<svg id="レイヤー_36" data-name="レイヤー 36" xmlns="http://www.w3.org/2000/svg" viewBox="0 0 463 180.51"><defs><style>.cls-1{fill:#51bba2;}.cls-2{fill:#a6dae9;}.cls-3{fill:#fff;}.cls-4{fill:#595757;}.cls-5{fill:#231815;}.cls-6{fill:#f9bf3d;}.cls-7{fill:#d0bad9;}.cls-8{fill:none;}</style></defs><title>hokushin_theme</title><path class="cls-1" d="M524.11,105.94H418.82L266.48,260.43H524.11a28.11,28.11,0,0,0,28-28V134A28.11,28.11,0,0,0,524.11,105.94Z" transform="translate(-89.14 -105.94)"/><path class="cls-2" d="M112.4,105.94c-12.79,0-23.26,12.62-23.26,28V232.4c0,15.42,10.47,28,23.26,28h180L418.82,105.94Z" transform="translate(-89.14 -105.94)"/><path class="cls-3" d="M525.82,206.05c-5-13.73-1.83-34.23-8.59-49-6.07-13.28-17.09-21-29.13-27.7h0s1.41-11.71-7.57-13.53S468.39,121,468.39,121h0c-10.1-2.3-22-1.51-38,6.09-24.83,11.83-36.56,51.53-36.56,51.53-3.07-.31-12.78-.68-14.82,6.83-2.43,8.94,5.63,12.64,5.63,12.64l1.57-3c-2.57,5.93-5.28,15.29-2.83,25.15a28.26,28.26,0,0,0,3.88,9.22l-.36.25s-3.1,18,4.57,28,8.23,3.32,9-2.4l.26-.27c3.78,7.39,9.29,9.84,18,6,9.46-4.15,6.3-9.16,19.09-8.26a45.37,45.37,0,0,0,12.37-.48l-2.73,1.4s-5,1.42-5.81,3.79-2.07,11.61,14.31,15.75S492,264,499.4,235.09q.57-2.21,1-4.41h0c3.19,5.67,8.25,5.88,11.56,11.59,2.84,4.9-3,7-1.55,11.41s15.55,1.45,21.85-2.46c4.8-3,3.28-3.89,3.69-12.59S530.81,219.78,525.82,206.05Z" transform="translate(-89.14 -105.94)"/><path class="cls-3" d="M411.26,263.14a10.65,10.65,0,0,1-4.52-1c-4.06-1.89-7-6.44-9.35-14.31a35.91,35.91,0,0,0-7.71-14.43,29.74,29.74,0,0,1-6.88-13.26c-4.1-16.5,6.2-31.81,6.31-32a.48.48,0,0,1,.68-.12.49.49,0,0,1,.13.68c-.11.14-10.16,15.1-6.17,31.17a28.87,28.87,0,0,0,6.69,12.87,36.78,36.78,0,0,1,7.89,14.77c2.21,7.48,5.09,12,8.82,13.7,3,1.41,6.7,1.12,11.24-.87a20.69,20.69,0,0,0,6.73-4.63c2.57-2.47,4.43-4.25,12.58-3.67a29.12,29.12,0,0,0,28-16.75.49.49,0,0,1,.65-.24.48.48,0,0,1,.24.65,30.14,30.14,0,0,1-28.94,17.31c-7.72-.54-9.44,1.11-11.83,3.4a22,22,0,0,1-7,4.82A18.75,18.75,0,0,1,411.26,263.14Z" transform="translate(-89.14 -105.94)"/><path class="cls-3" d="M465.54,201a.49.49,0,0,1-.45-.31.49.49,0,0,1,.27-.64c.05,0,5-2.06,6.81-6.32a9.07,9.07,0,0,0-.26-7.2c-3.26-7.76-13.53-4.15-14-4a.49.49,0,0,1-.33-.93c.11,0,11.58-4.07,15.2,4.54a10,10,0,0,1,.26,8c-1.94,4.63-7.13,6.75-7.35,6.84A.39.39,0,0,1,465.54,201Z" transform="translate(-89.14 -105.94)"/><path class="cls-3" d="M467.58,233.84a.49.49,0,0,1-.1-1,3.49,3.49,0,0,0,3-2.6c.36-1.14-1.26-2.63-1.91-3.11a.49.49,0,0,1-.19-.52.5.5,0,0,1,.43-.36s.55-.06,2.48-.5a1.23,1.23,0,0,0,1-.74c.28-.77-.19-2.07-1.26-3.48-1.77-2.34-.62-3.24.72-4.29.3-.23.62-.48.95-.78.54-.47.78-.8.78-1,0-.45-.86-1.18-2.15-2.29l-1-.87c-.91-.79-1.29-1.45-1.21-2.07.1-.84,1-1.27,1.85-1.72s1.75-.88,1.86-1.6a.92.92,0,0,0-.2-.73c-.83-1.12-3.7-1.73-4.73-1.87a.48.48,0,0,1-.42-.55.49.49,0,0,1,.55-.42c.42.06,4.16.6,5.39,2.25a1.93,1.93,0,0,1,.38,1.47c-.19,1.22-1.41,1.83-2.39,2.33-.6.3-1.28.64-1.32,1,0,.12,0,.48.88,1.21l1,.86c1.66,1.43,2.49,2.14,2.5,3a2.59,2.59,0,0,1-1.11,1.77c-.35.31-.69.57-1,.81-1.33,1-1.73,1.36-.54,2.93,1.31,1.72,1.81,3.29,1.4,4.4a2.16,2.16,0,0,1-1.68,1.36l-1.56.34c.82.79,1.89,2.15,1.46,3.49a4.43,4.43,0,0,1-3.72,3.26Z" transform="translate(-89.14 -105.94)"/><path class="cls-3" d="M461.62,273.53c-2.06,0-3.91.52-5.93,0-4.74-1.2-7.26-2.81-7.7-4.92-.62-3,3.21-6,6-8.11a12.08,12.08,0,0,0,2.06-1.77c3.06-4.92.64-11.84.61-11.91a.49.49,0,0,1,.3-.63.48.48,0,0,1,.62.3c.11.3,2.61,7.44-.7,12.76a11,11,0,0,1-2.29,2c-2.45,1.87-6.15,4.71-5.65,7.14.35,1.68,2.7,3.08,7,4.16a23.07,23.07,0,0,0,5.65.69c14.16,0,30.57-12.38,37.22-38.47,7.25-28.4-2.5-58.89-2.6-59.19a.49.49,0,0,1,.93-.31c.1.31,9.94,31.06,2.62,59.74-3.5,13.72-10.6,23.88-19.22,30.91C474.45,270.92,468.23,273.53,461.62,273.53Z" transform="translate(-89.14 -105.94)"/><path class="cls-3" d="M397.38,262.34c-1.57,0-3.62-1.71-6.4-5.33-7.71-10-4.79-27.61-4.66-28.36a.49.49,0,0,1,1,.17c0,.18-3,17.9,4.47,27.6,3.42,4.45,5.08,5.12,5.89,4.91,1.35-.37,1.76-3.65,2.13-6.54l.07-.54a.49.49,0,0,1,.54-.42.5.5,0,0,1,.43.55l-.07.53c-.44,3.51-.86,6.83-2.85,7.36A1.81,1.81,0,0,1,397.38,262.34Z" transform="translate(-89.14 -105.94)"/><path class="cls-3" d="M501.87,217.43a.51.51,0,0,1-.36-.15.49.49,0,0,1,0-.69c19.14-17.83,6.59-60.7,6.47-61.13a.49.49,0,0,1,.32-.61.48.48,0,0,1,.61.33c.13.44,12.85,43.89-6.73,62.12A.46.46,0,0,1,501.87,217.43Z" transform="translate(-89.14 -105.94)"/><path class="cls-3" d="M515.67,255.71a31.29,31.29,0,0,1-3.64,0,2.7,2.7,0,0,1-2.21-2c-.73-2.2.19-3.85,1.08-5.44,1-1.85,1.92-3.44.51-5.88a17.26,17.26,0,0,0-5.67-5.63,18,18,0,0,1-5.9-6,.49.49,0,0,1,.85-.48,16.82,16.82,0,0,0,5.62,5.64,18.34,18.34,0,0,1,5.94,5.94c1.69,2.92.53,5-.5,6.84-.82,1.48-1.6,2.87-1,4.66a2.4,2.4,0,0,0,1.61,1.4c4.32,1.56,14.51-1,19.51-4.11,3.43-2.13,3.42-3,3.39-7.15,0-1.32,0-3,.07-5.05.28-6.23-2.5-13.15-6-21.92-1.33-3.3-2.71-6.72-4.06-10.47-2.29-6.31-2.87-13.89-3.48-21.92-.72-9.39-1.46-19.1-5.1-27.08-6.81-14.91-20.07-22.85-33.07-29.71-12.17-6.43-27.32-12.26-53.08,0-24.35,11.59-36.19,50.83-36.3,51.23a.5.5,0,0,1-.61.33.49.49,0,0,1-.33-.61c.11-.4,12.07-40.05,36.82-51.84,26.17-12.46,41.57-6.53,54,0,13.15,6.94,26.56,15,33.5,30.17,3.71,8.15,4.46,17.94,5.18,27.42.61,8,1.18,15.47,3.43,21.66,1.35,3.73,2.72,7.14,4.05,10.44,3.57,8.87,6.39,15.88,6.1,22.32-.1,2.06-.09,3.69-.07,5,0,4.28-1.2,4-5.09,6.43C527.06,252.46,520.88,255.71,515.67,255.71Z" transform="translate(-89.14 -105.94)"/><path class="cls-3" d="M488,129.65h-.05a.49.49,0,0,1-.43-.54c.05-.46,1.24-11.29-7.19-13S468.73,121,468.7,121a.49.49,0,0,1-.89-.4c0-.08,3.44-7.35,12.7-5.47s8,13.94,8,14.06A.5.5,0,0,1,488,129.65Z" transform="translate(-89.14 -105.94)"/><path class="cls-3" d="M477.54,115.32a15.15,15.15,0,0,1,2.87.3c9,1.83,7.57,13.54,7.57,13.54h0c12,6.65,23.06,14.42,29.12,27.71,6.76,14.8,3.62,35.3,8.6,49s10.52,23.87,10.12,32.58,1.11,9.61-3.69,12.59a36.53,36.53,0,0,1-16.46,4.65c-2.77,0-4.87-.64-5.39-2.19-1.45-4.38,4.39-6.5,1.55-11.41-3.31-5.71-8.37-5.92-11.56-11.59h0c-.29,1.47-.62,2.95-1,4.41-6.49,25.45-22.57,38.87-37.51,38.87a24.39,24.39,0,0,1-6-.74c-16.38-4.13-10.45-14.92-9.17-17,3-1.39,12.48-5.55,12.48-5.55l-4.62-4.44c-5.1,3.83-8.71,6.59-14.95,6.59-.63,0-1.26,0-1.88-.07-1-.07-1.95-.1-2.78-.1-9.58,0-7.61,4.55-16.3,8.36a18.39,18.39,0,0,1-7.33,1.79c-4.68,0-8.08-2.74-10.66-7.81l-.27.27c-.46,3.59-.85,7.54-3,7.54-1.26,0-3.13-1.41-6-5.14-7.67-10-4.57-28-4.57-28l.36-.25a28.55,28.55,0,0,1-3.88-9.23c-2.45-9.86.26-19.21,2.84-25.14l-1.57,3s-8.07-3.71-5.64-12.65c1.62-6,8.08-7,12.21-7a24.79,24.79,0,0,1,2.62.13s11.73-39.71,36.56-51.54c11-5.21,20-7.22,27.88-7.22a45.13,45.13,0,0,1,10.09,1.13h0a10.23,10.23,0,0,1,9.28-5.5m0-2.93h0a13.07,13.07,0,0,0-10.66,5.15,47.64,47.64,0,0,0-8.7-.79c-9,0-18.53,2.46-29.15,7.51-22.53,10.74-34.46,42.35-37.4,51.13-.16,0,1.53-3.71,1.35-3.71-9.23-2.28-12.47,6.49-14.41,12-.8,5,.74,11.81,4.16,14.24-1.82,6-1.65,14.64-.45,22.62h0a36.55,36.55,0,0,0,3.87,9.16c-.46,3.05,1.19,24.1,7,29.28,3.38,4.4,1.77,6.64,4.22,6.64,1.24,0,3.44-.51,4.66-3.76a12.9,12.9,0,0,0,9.23,3.76,21.17,21.17,0,0,0,8.51-2,24,24,0,0,0,7.72-5.29c2-1.88,2.95-2.83,7.4-2.83.77,0,1.64,0,2.57.1.69.05,1.39.08,2.09.08,5.36,0,15.66-3.17,20.48-5.86.15,1.85-4.91,5.77-6,7.57-.27.26-1,.83-1.55,1.25-3.13,2.4-7.85,6-6.91,10.55.86,4.15,5.83,5.86,9.49,6.79,2.17.55,3.46-1.3,6-2,8.72-.74,13.9-2.62,21.88-9.05,7.29-7.12,14.59-12.9,17.83-24.9a23.16,23.16,0,0,0,2,1.56,12.74,12.74,0,0,0-.84,8.47,13.31,13.31,0,0,0,1.7,3.07,16.72,16.72,0,0,0,3.65,2.15c3.19,1.42,6.81.92,9,.75a56.66,56.66,0,0,0,16-4.48c4.33-2.51,6-2.72,6.44-8,0-1.28,0-2.87.07-4.86.32-7-2.73-14.57-6.27-23.35-1.32-3.28-2.69-6.68-4-10.37-2.13-5.87-2.69-13.22-3.29-21-.74-9.69-1.5-19.7-5.4-28.24-6.28-13.77-17.42-21.74-28.75-28.15,0-5.26-1.94-13.1-10-14.74a17.37,17.37,0,0,0-3.45-.36Z" transform="translate(-89.14 -105.94)"/><path class="cls-3" d="M459.91,269.12c-1-.41-44.26-10.85-46.65-11.48s-3.19.84-3.19.84l.26.28c-1.6-.33-3.38-.69-5.4-1.12-9.81-2.11-30.31-6.6-31.82-6.72s-1.4,1.21.67,3.62A195.88,195.88,0,0,1,385.22,272a5.17,5.17,0,0,0,1.91,2.18c.67.4,39.27,9.17,44.13,10.1a4.09,4.09,0,0,0,2.26,0h0s.69.47,2.6-.22l.38-.16h0c3.4-1.48,21.88-10.83,23.48-11.7A1.66,1.66,0,0,0,459.91,269.12Z" transform="translate(-89.14 -105.94)"/><path class="cls-4" d="M428.28,287.41Z" transform="translate(-89.14 -105.94)"/><path class="cls-3" d="M372.2,251c.05,0,1-1,1.09-1,.31-.63,20.46,4.09,30.27,6.2,2,.43,3.8.8,5.4,1.12l-.26-.28a2.3,2.3,0,0,1,2.07-1,4.49,4.49,0,0,1,1.12.16c2.39.64,45.67,11.08,46.65,11.48a1.66,1.66,0,0,1,.09,3.06c-1.6.87-20.07,10.22-23.47,11.7h0l-.39.16a5.51,5.51,0,0,1-1.81.38,1.48,1.48,0,0,1-.79-.16h0a2.09,2.09,0,0,1-.84.14,7.75,7.75,0,0,1-1.42-.16c-4.86-.94-43.45-9.71-44.13-10.1a5.25,5.25,0,0,1-1.91-2.19,195.74,195.74,0,0,0-11.44-17.41c-.68-1-.65-1.21-.49-1.69m-.35-4.88h0a3.66,3.66,0,0,0-3.45,2.08c-1.07,2.32.66,4.76,2.06,6.39a193.25,193.25,0,0,1,11,16.82,8.25,8.25,0,0,0,3.07,3.42c.5.29,1.1.55,21.31,5.17,9.84,2.24,21.15,4.77,23.74,5.27a10.86,10.86,0,0,0,2,.22,6.23,6.23,0,0,0,.77-.05,5.71,5.71,0,0,0,.86.06,8.26,8.26,0,0,0,2.81-.55l.5-.2.14-.06c3.65-1.61,21.94-10.86,23.65-11.8a4.53,4.53,0,0,0,2.5-4.25,4.79,4.79,0,0,0-2.87-4.09c-.64-.26-5.15-1.39-32.12-8-7.54-1.84-14.06-3.42-14.9-3.65a7.46,7.46,0,0,0-1.88-.26,5.57,5.57,0,0,0-3.17,1l-3.42-.72-7.28-1.57c-16.28-3.52-23.74-5.11-24.93-5.2l-.4,0Z" transform="translate(-89.14 -105.94)"/><path class="cls-4" d="M414.42,240" transform="translate(-89.14 -105.94)"/><path class="cls-4" d="M417.54,246.26" transform="translate(-89.14 -105.94)"/><line class="cls-4" x1="314.46" y1="137.49" x2="313.58" y2="137.35"/><path class="cls-4" d="M404.36,239.17" transform="translate(-89.14 -105.94)"/><path class="cls-3" d="M422.44,234.92a6.21,6.21,0,0,0,.26,4.5c1.11,2,.81,1.06.81,1.06s-1.22-2.56-.67-3.46a26.16,26.16,0,0,1,2.47-2.88,3.56,3.56,0,0,0,1.26,3.41,6.44,6.44,0,0,0,3.91,1.08,5.24,5.24,0,0,0,3.23-.51c2.1-.86,2.85-1.43,2.9-3s-1.73-1-1.73-1L425.74,233Z" transform="translate(-89.14 -105.94)"/><path class="cls-4" d="M395.57,232.72" transform="translate(-89.14 -105.94)"/><path class="cls-4" d="M401.13,235.11" transform="translate(-89.14 -105.94)"/><path class="cls-4" d="M394.25,235.31" transform="translate(-89.14 -105.94)"/><line class="cls-4" x1="304.35" y1="125.99" x2="303.6" y2="126.24"/><path class="cls-5" d="M477.91,275.22a.72.72,0,0,1,.42-.9,11.46,11.46,0,0,0,2.25-1.23c.29-.16.37-.42.74-.4a.59.59,0,0,1,.43,1,7.28,7.28,0,0,1-1.35,1,15.23,15.23,0,0,1-1.61.84A.67.67,0,0,1,477.91,275.22Zm5.88-.35a.83.83,0,0,0,.6-.81,1.77,1.77,0,0,0-1.15-1.58,2.92,2.92,0,0,1-1.52-1.43,1.89,1.89,0,0,1,.18-1.45.63.63,0,0,1,.85-.25.61.61,0,0,1,.22.84c-.13.29-.16.35-.09.5.26.55,1.36.68,2.12,1.68a2.5,2.5,0,0,1,.33,2.75c-.62,1-1.83,1.16-3,1.22-.75,0-1-.22-1-.67a.57.57,0,0,1,.6-.56A4.49,4.49,0,0,0,483.79,274.87Zm-1.34-7.56a.67.67,0,0,1-.35-.83.69.69,0,0,1,.59-.38l.23,0a8.89,8.89,0,0,1,1.38.84,8.71,8.71,0,0,1,.94.85.58.58,0,0,1,.12.46.59.59,0,0,1-.25.4.54.54,0,0,1-.37.14.6.6,0,0,1-.48-.27,7.17,7.17,0,0,0-.71-.58A5.59,5.59,0,0,0,482.45,267.31Zm6.65,8.3a.6.6,0,0,1-.74-.4,2.73,2.73,0,0,0-2-1.9.58.58,0,0,1-.52-.67.61.61,0,0,1,.73-.55,3.22,3.22,0,0,1,1.74.9,4.21,4.21,0,0,1,1.21,1.74A.62.62,0,0,1,489.1,275.61Zm-1-7.06H488a.41.41,0,0,1-.37-.42.4.4,0,0,1,.42-.37.41.41,0,0,0,.34-.12.54.54,0,0,0,.18-.42.53.53,0,0,0-.55-.55c-.31,0-.51.22-.54.59a.38.38,0,0,0,.09.26.43.43,0,0,1-.05.57.44.44,0,0,1-.55,0,1.27,1.27,0,0,1-.27-.86,1.33,1.33,0,0,1,1.32-1.3,1.35,1.35,0,0,1,1.33,1.33,1.41,1.41,0,0,1-.42,1A1.22,1.22,0,0,1,488.07,268.55Z" transform="translate(-89.14 -105.94)"/><path class="cls-5" d="M499.36,270.7a5.35,5.35,0,0,0-3.17,1.12s-1.06,1.36-1.58,1.88a.65.65,0,0,1-.84,0c-.19-.17-.35-.58.13-1.06a23.1,23.1,0,0,0,2.17-2.65,13.27,13.27,0,0,1,2.13-2.47c.05,0,0,0,0,0a19.22,19.22,0,0,1-2,.45c-.46.06-.78-.21-.76-.58a.64.64,0,0,1,.6-.58,8.77,8.77,0,0,0,1.6-.34,12.39,12.39,0,0,0,1.32-.38s1-.1,1.19.39a1,1,0,0,1-.32,1.23,16.75,16.75,0,0,0-2.05,1.92s0,.11.08.1a4.2,4.2,0,0,1,4.16.8,3,3,0,0,1,.71,3.37c-1,2.24-3.87,2.8-5.27,2.84a.61.61,0,0,1-.59-.55.61.61,0,0,1,.57-.62,7.59,7.59,0,0,0,2.91-.77,3.11,3.11,0,0,0,1.32-1.35C502.28,272,501.06,270.7,499.36,270.7Z" transform="translate(-89.14 -105.94)"/><path class="cls-5" d="M513.44,265.8a.68.68,0,0,1,.83-.35.61.61,0,0,1,.33.79,15.11,15.11,0,0,1-2.9,4.21c-.22.28-.36.44-.12.74a22.37,22.37,0,0,1,3.35,5.09.67.67,0,0,1-.33.81.8.8,0,0,1-.23.05.63.63,0,0,1-.58-.35,22.49,22.49,0,0,0-3.15-4.79,1.41,1.41,0,0,1-.46-1.21,1.61,1.61,0,0,1,.49-1A15.09,15.09,0,0,0,513.44,265.8Z" transform="translate(-89.14 -105.94)"/><path class="cls-5" d="M528,270.16a.19.19,0,0,0,.2.18,16.12,16.12,0,0,0,1.7-.31.53.53,0,0,1,.62.37.52.52,0,0,1-.38.63,10.8,10.8,0,0,1-1.91.32.25.25,0,0,0-.2.22c0,.55,0,1.09,0,1.52a.3.3,0,0,0,.2.28,7.25,7.25,0,0,1,.83.34,16.84,16.84,0,0,1,2,1.06.51.51,0,0,1,.17.74.49.49,0,0,1-.49.25,1.32,1.32,0,0,1-.5-.22,16.22,16.22,0,0,0-2.07-1,.16.16,0,0,0-.2.13,2.47,2.47,0,0,1-2.31,2,2.41,2.41,0,0,1-2-.92,1.84,1.84,0,0,1-.47-1.32,1.42,1.42,0,0,1,.63-1,2.49,2.49,0,0,1,1.32-.48,5.15,5.15,0,0,1,1.56,0,.17.17,0,0,0,.19-.16v-1.13a.21.21,0,0,0-.2-.18,13.64,13.64,0,0,1-2.42-.08.5.5,0,1,1,.16-1,19.12,19.12,0,0,0,2.24,0,.2.2,0,0,0,.19-.2l0-1.25a.18.18,0,0,0-.21-.17c-.74,0-3.24.21-4,.2a.53.53,0,0,1-.5-.52.51.51,0,0,1,.5-.51c.67,0,2.32-.09,4-.2a.24.24,0,0,0,.18-.24c0-.58-.05-1-.07-1.2a.56.56,0,0,1,.45-.61.59.59,0,0,1,.64.47,11.26,11.26,0,0,1,.07,1.27.2.2,0,0,0,.22.19c1.27-.12,2.45-.22,3-.25a.52.52,0,0,1,.55.48.52.52,0,0,1-.48.57l-3,.23a.22.22,0,0,0-.19.2ZM527,274.31a.22.22,0,0,0-.16-.26,3.56,3.56,0,0,0-1.43-.1c-1,.11-1.09.55-.89.88a1.5,1.5,0,0,0,.83.61,1.08,1.08,0,0,0,1-.07A1.49,1.49,0,0,0,527,274.31Z" transform="translate(-89.14 -105.94)"/><path class="cls-6" d="M521.06,202.78c-4.59-12.67-1.69-31.6-7.93-45.26-5.6-12.27-15.77-19.44-26.89-25.58h0s1.3-10.81-7-12.49S468,124.25,468,124.25h0c-9.33-2.13-20.33-1.4-35.06,5.62-22.92,10.91-33.75,47.57-33.75,47.57-2.83-.29-11.8-.63-13.68,6.29-2.25,8.26,5.2,11.68,5.2,11.68l1.45-2.77c-2.38,5.47-4.88,14.11-2.62,23.21a26.2,26.2,0,0,0,3.58,8.51l-.33.23s-2.86,16.61,4.22,25.83,7.6,3.06,8.27-2.21l.24-.26c3.49,6.83,8.58,9.09,16.61,5.56,8.73-3.83,5.81-8.46,17.62-7.62a27.07,27.07,0,0,0,18-5.49h0s2.37,6.61-.6,11.4c-1.19,1.91-15.74,9.16-.62,13s33.33-8.54,40.12-35.19c.35-1.36.65-2.72.92-4.08h0c3,5.23,7.62,5.42,10.67,10.69,2.63,4.53-2.77,6.49-1.43,10.53s14.36,1.35,20.17-2.26c4.44-2.76,3-3.59,3.4-11.63S525.66,215.46,521.06,202.78Z" transform="translate(-89.14 -105.94)"/><path class="cls-4" d="M415.43,255.63a9.67,9.67,0,0,1-4.17-.9c-3.75-1.74-6.49-5.93-8.63-13.2a33.12,33.12,0,0,0-7.12-13.32A27.35,27.35,0,0,1,389.16,216c-3.79-15.23,5.73-29.36,5.82-29.5a.45.45,0,1,1,.75.51c-.1.14-9.38,13.94-5.69,28.77a26.6,26.6,0,0,0,6.17,11.89,33.84,33.84,0,0,1,7.29,13.63c2,6.91,4.69,11,8.14,12.65,2.79,1.29,6.18,1,10.37-.81a19.15,19.15,0,0,0,6.21-4.27c2.38-2.28,4.09-3.92,11.62-3.39A26.89,26.89,0,0,0,465.67,230a.43.43,0,0,1,.59-.22.45.45,0,0,1,.23.59,27.84,27.84,0,0,1-26.71,16c-7.13-.5-8.73,1-10.93,3.14a20.26,20.26,0,0,1-6.48,4.45A17.44,17.44,0,0,1,415.43,255.63Z" transform="translate(-89.14 -105.94)"/><path class="cls-4" d="M390.77,195.87a.43.43,0,0,1-.19,0c-.08,0-7.76-3.68-5.45-12.2s14.93-6.54,15.06-6.52a.45.45,0,0,1-.15.89c-.12,0-11.93-1.9-14,5.86S390.89,195,391,195a.45.45,0,0,1-.19.86Z" transform="translate(-89.14 -105.94)"/><path class="cls-4" d="M465.53,198.22a.44.44,0,0,1-.41-.28.45.45,0,0,1,.25-.59s4.64-1.9,6.28-5.83a8.32,8.32,0,0,0-.24-6.65c-3-7.16-12.49-3.83-12.89-3.69a.44.44,0,0,1-.58-.27.46.46,0,0,1,.27-.58c.11,0,10.69-3.76,14,4.19a9.17,9.17,0,0,1,.24,7.35c-1.78,4.28-6.57,6.24-6.78,6.32A.47.47,0,0,1,465.53,198.22Z" transform="translate(-89.14 -105.94)"/><path class="cls-4" d="M467.42,228.57a.44.44,0,0,1-.44-.36.45.45,0,0,1,.35-.53,3.22,3.22,0,0,0,2.76-2.4c.33-1.05-1.17-2.42-1.77-2.87a.45.45,0,0,1,.22-.81s.51-.06,2.29-.47a1.11,1.11,0,0,0,.91-.68c.26-.71-.18-1.91-1.16-3.21-1.64-2.16-.58-3,.66-4,.27-.21.57-.44.88-.71.49-.44.72-.74.72-.95,0-.41-.8-1.09-2-2.12l-.93-.8c-.83-.72-1.18-1.33-1.11-1.91.1-.77.88-1.17,1.71-1.58s1.61-.81,1.72-1.48a.84.84,0,0,0-.19-.68c-.77-1-3.41-1.59-4.37-1.72a.46.46,0,0,1-.39-.51.47.47,0,0,1,.51-.39c.39.06,3.84.56,5,2.08a1.74,1.74,0,0,1,.35,1.36c-.18,1.12-1.3,1.69-2.2,2.14-.56.28-1.19.6-1.22.89,0,.12,0,.45.81,1.12l.92.8c1.53,1.31,2.29,2,2.3,2.79a2.37,2.37,0,0,1-1,1.63c-.32.29-.64.53-.92.76-1.23,1-1.6,1.25-.51,2.7s1.67,3,1.3,4.06A2,2,0,0,1,471,222c-.61.15-1.08.25-1.43.32.75.73,1.74,2,1.35,3.22a4.11,4.11,0,0,1-3.44,3Z" transform="translate(-89.14 -105.94)"/><path class="cls-4" d="M462.11,265.93a23.18,23.18,0,0,1-5.67-.71c-4.38-1.1-6.7-2.59-7.1-4.53-.58-2.79,3-5.51,5.54-7.49a11.79,11.79,0,0,0,1.9-1.63c2.83-4.55.59-10.94.57-11a.46.46,0,0,1,.27-.58.45.45,0,0,1,.58.27c.1.28,2.4,6.87-.65,11.78a10.09,10.09,0,0,1-2.12,1.87c-2.26,1.74-5.67,4.36-5.21,6.59.32,1.55,2.49,2.85,6.45,3.85a21.48,21.48,0,0,0,5.21.63c13.07,0,28.22-11.42,34.36-35.51,6.68-26.21-2.31-54.36-2.4-54.64a.45.45,0,0,1,.29-.57.46.46,0,0,1,.57.29c.09.29,9.16,28.67,2.41,55.15C493.88,242.36,488,252.48,480,259,474.4,263.54,468.21,265.93,462.11,265.93Z" transform="translate(-89.14 -105.94)"/><path class="cls-4" d="M402.61,254.89c-1.44,0-3.34-1.59-5.9-4.92-7.11-9.27-4.42-25.49-4.3-26.18a.45.45,0,0,1,.89.15c0,.17-2.74,16.53,4.13,25.48,3.15,4.11,4.69,4.73,5.43,4.53,1.25-.34,1.63-3.37,2-6l.06-.49a.46.46,0,0,1,.51-.39.45.45,0,0,1,.39.51l-.06.49c-.41,3.24-.8,6.3-2.63,6.79A1.61,1.61,0,0,1,402.61,254.89Z" transform="translate(-89.14 -105.94)"/><path class="cls-4" d="M499.07,213.43a.42.42,0,0,1-.33-.14.46.46,0,0,1,0-.64c17.66-16.45,6.08-56,6-56.42a.45.45,0,0,1,.31-.56.44.44,0,0,1,.56.3c.12.4,11.86,40.51-6.22,57.34A.42.42,0,0,1,499.07,213.43Z" transform="translate(-89.14 -105.94)"/><path class="cls-4" d="M511.78,249.2a10.1,10.1,0,0,1-3.33-.46,3.08,3.08,0,0,1-2.05-1.86c-.67-2,.18-3.55,1-5,1-1.71,1.77-3.18.47-5.42a15.92,15.92,0,0,0-5.23-5.21,16.48,16.48,0,0,1-5.44-5.49.45.45,0,1,1,.78-.45,15.34,15.34,0,0,0,5.19,5.2,16.94,16.94,0,0,1,5.48,5.49c1.56,2.69.49,4.62-.46,6.32-.76,1.36-1.48,2.65-.93,4.3a2.24,2.24,0,0,0,1.49,1.29c4,1.44,13.39-.92,18-3.8,3.17-2,3.16-2.76,3.13-6.59,0-1.22,0-2.74.06-4.67.27-5.75-2.3-12.14-5.56-20.23-1.23-3-2.5-6.21-3.75-9.66-2.12-5.83-2.65-12.83-3.21-20.24-.66-8.66-1.35-17.63-4.71-25-6.29-13.76-18.52-21.09-30.52-27.42-11.24-5.94-25.23-11.32-49,0-22.48,10.71-33.41,46.93-33.51,47.29a.45.45,0,1,1-.87-.25c.11-.37,11.15-37,34-47.85,24.15-11.5,38.37-6,49.81,0,12.14,6.4,24.52,13.83,30.92,27.85,3.43,7.51,4.12,16.56,4.79,25.3.56,7.35,1.09,14.28,3.16,20,1.25,3.44,2.51,6.59,3.74,9.64,3.3,8.19,5.9,14.66,5.63,20.6-.09,1.9-.08,3.41-.07,4.62,0,3.94,0,5.13-3.55,7.37A34.42,34.42,0,0,1,511.78,249.2Z" transform="translate(-89.14 -105.94)"/><path class="cls-4" d="M412.82,248.24c-1.52-.67-4.89.85-3,2.65s5,1.13,4.71-.6A2.49,2.49,0,0,0,412.82,248.24Z" transform="translate(-89.14 -105.94)"/><path class="cls-4" d="M486.25,132.4h-.05a.46.46,0,0,1-.4-.51c.05-.42,1.15-10.41-6.63-12s-10.69,4.47-10.72,4.54a.45.45,0,0,1-.82-.38c0-.06,3.18-6.78,11.72-5s7.36,12.88,7.35,13A.45.45,0,0,1,486.25,132.4Z" transform="translate(-89.14 -105.94)"/><path class="cls-4" d="M476.61,119.18a12.86,12.86,0,0,1,2.65.28c8.29,1.68,7,12.49,7,12.49h0c11.12,6.14,21.29,13.31,26.89,25.58,6.24,13.66,3.34,32.59,7.93,45.26s9.71,22,9.34,30.07,1,8.87-3.4,11.63a33.74,33.74,0,0,1-15.19,4.28c-2.56,0-4.5-.58-5-2-1.34-4,4.06-6,1.43-10.53-3.05-5.27-7.72-5.46-10.67-10.69h0c-.27,1.36-.57,2.72-.91,4.08-6,23.48-20.84,35.87-34.63,35.87a22.16,22.16,0,0,1-5.5-.68c-15.12-3.81-.57-11.06.62-13,3-4.79.6-11.4.6-11.4h0A27.28,27.28,0,0,1,441.54,246c-.58,0-1.16,0-1.73-.06-.95-.07-1.8-.1-2.57-.1-8.84,0-7,4.2-15.05,7.72a16.87,16.87,0,0,1-6.76,1.65c-4.32,0-7.46-2.53-9.85-7.21l-.24.26c-.42,3.3-.78,6.95-2.73,6.95-1.17,0-2.89-1.3-5.54-4.74-7.08-9.22-4.22-25.83-4.22-25.83l.33-.23a26.2,26.2,0,0,1-3.58-8.51c-2.26-9.1.24-17.74,2.62-23.21l-1.45,2.77s-7.45-3.42-5.2-11.68c1.49-5.5,7.46-6.41,11.27-6.41a23.79,23.79,0,0,1,2.41.12s10.83-36.66,33.75-47.57c10.12-4.82,18.48-6.67,25.74-6.67a41.37,41.37,0,0,1,9.32,1.05h0a9.44,9.44,0,0,1,8.57-5.07m0-2.71h0a12.06,12.06,0,0,0-9.84,4.75,43.93,43.93,0,0,0-8-.72c-8.3,0-17.1,2.26-26.9,6.93C411,137.34,400,166.52,397.31,174.62h-.47c-7.48,0-12.41,3-13.89,8.41a12.33,12.33,0,0,0,4.86,13.78,37.08,37.08,0,0,0-.84,19.71,30.17,30.17,0,0,0,3.15,8c-.43,2.81-2.34,18.21,4.8,27.51,3.12,4.07,5.42,5.8,7.69,5.8,1.14,0,3.17-.46,4.3-3.46a11.93,11.93,0,0,0,8.52,3.46,19.55,19.55,0,0,0,7.85-1.87,22.34,22.34,0,0,0,7.13-4.89c1.81-1.74,2.72-2.61,6.83-2.61.71,0,1.51,0,2.38.09.63.05,1.28.07,1.92.07a29.69,29.69,0,0,0,14.38-3.82,9.38,9.38,0,0,1-1,5.41c-.25.24-.93.76-1.44,1.14-2.88,2.22-7.24,5.57-6.37,9.74.79,3.84,5.38,5.42,8.76,6.27a24.93,24.93,0,0,0,6.16.76c7.73,0,15.59-3.51,22.13-9.9,6.73-6.56,11.85-15.86,14.84-26.94.78.65,1.57,1.21,2.32,1.74a13.94,13.94,0,0,1,4.58,4.5c.6,1,.47,1.47-.49,3.19-.86,1.54-2.15,3.86-1.17,6.84.59,1.76,2.37,3.87,7.55,3.87a36.47,36.47,0,0,0,16.62-4.69c4.48-2.79,4.66-4.87,4.62-9.31,0-1.18,0-2.65.06-4.49.3-6.44-2.52-13.44-5.78-21.56-1.22-3-2.48-6.16-3.72-9.56-2-5.42-2.48-12.21-3-19.4-.68-8.94-1.39-18.19-5-26.07-5.8-12.71-16.07-20.07-26.53-26,0-4.86-1.8-12.1-9.26-13.61a16.16,16.16,0,0,0-3.19-.33Z" transform="translate(-89.14 -105.94)"/><path class="cls-7" d="M455.29,268.72c-.9-.38-40.86-10-43.07-10.6s-2.94.77-2.94.77l.24.26c-1.47-.3-3.12-.63-5-1-9.06-1.95-28-6.09-29.37-6.2s-1.29,1.11.61,3.34a176.18,176.18,0,0,1,10.56,16.08,4.82,4.82,0,0,0,1.77,2c.62.37,36.24,8.46,40.73,9.33a3.9,3.9,0,0,0,2.08,0h0s.64.43,2.4-.2l.35-.15h0c3.14-1.37,20.2-10,21.67-10.8A1.53,1.53,0,0,0,455.29,268.72Z" transform="translate(-89.14 -105.94)"/><path class="cls-4" d="M430.16,283.28a7.22,7.22,0,0,1-1.4-.16c-3.72-.72-39.76-8.84-40.87-9.37h0a5.29,5.29,0,0,1-1.95-2.21,178.25,178.25,0,0,0-10.5-16c-1.41-1.65-1.92-2.8-1.55-3.52.15-.29.49-.62,1.31-.56,1.13.09,13.08,2.67,22.68,4.75l6.75,1.45c2.08.45,3.9.82,5.49,1.14,5.5,1.12,8.26,1.68,9.43,2.95,1,1.06,4.74,7.38,7.48,12,1.22,2.06,2.28,3.83,2.69,4.46.16.26.35.53.54.81,1,1.43,1.93,2.79,1.35,3.67A1.58,1.58,0,0,1,430.16,283.28ZM388.31,273c1.23.46,35.58,8.31,40.62,9.28,1.65.32,1.9,0,1.92,0,.25-.38-.78-1.87-1.33-2.67-.2-.28-.39-.57-.56-.83-.42-.64-1.43-2.34-2.7-4.49-2.57-4.32-6.45-10.86-7.37-11.85s-3.81-1.63-8.95-2.67l-5.5-1.14-6.75-1.46c-9.07-2-21.49-4.65-22.56-4.73-.28,0-.42,0-.44.07s0,.89,1.44,2.53a182.31,182.31,0,0,1,10.62,16.17A4.48,4.48,0,0,0,388.31,273Z" transform="translate(-89.14 -105.94)"/><path class="cls-4" d="M431.65,283.3a1.69,1.69,0,0,1-1-.23.45.45,0,0,1,.49-.75,3,3,0,0,0,2-.25c1.71-.62,20.24-10,22-10.93a1,1,0,0,0,.67-1,1.27,1.27,0,0,0-.7-1c-.7-.26-17.86-4.44-29.22-7.2-7.25-1.77-13-3.16-13.79-3.38-1.84-.49-2.42.55-2.43.56a.45.45,0,1,1-.79-.43c0-.07.93-1.67,3.45-1,.8.21,6.81,1.68,13.77,3.37,16.29,4,28.79,7,29.35,7.25a2.17,2.17,0,0,1,1.26,1.81,1.89,1.89,0,0,1-1.13,1.82c-1.1.61-20.23,10.31-22.11,11A5.37,5.37,0,0,1,431.65,283.3Z" transform="translate(-89.14 -105.94)"/><path class="cls-4" d="M433.07,282.93a1.71,1.71,0,0,1-1.55-.85c-.31-.58-.17-1.47,1.11-2.2,2.14-1.21,20.95-10,21.75-10.37a.45.45,0,1,1,.38.81c-.19.09-19.57,9.15-21.68,10.35-.61.34-.9.73-.76,1a1,1,0,0,0,1.19.26.46.46,0,0,1,.6.23.45.45,0,0,1-.23.59A2,2,0,0,1,433.07,282.93Z" transform="translate(-89.14 -105.94)"/><path class="cls-4" d="M428.94,277.83a13.08,13.08,0,0,1,2.17.55c.44.23,9.86-5.12,10.52-5.43,1.32-.59-15.62-4.27-18.73-5.22" transform="translate(-89.14 -105.94)"/><path class="cls-4" d="M431.13,278.74a.33.33,0,0,1-.19-.05,13.1,13.1,0,0,0-2.06-.51.36.36,0,0,1-.3-.42.37.37,0,0,1,.42-.29,14,14,0,0,1,2.19.54c.82-.19,6-3,8.21-4.26l1.64-.9c-1.67-.7-8.16-2.27-12.21-3.25-2.71-.66-5.05-1.22-6-1.52a.37.37,0,0,1-.24-.45.36.36,0,0,1,.45-.24c1,.29,3.3.85,6,1.51,11.37,2.75,13,3.31,13.07,3.93a.46.46,0,0,1-.29.45c-.16.08-1,.53-2,1.11C433,278.1,431.6,278.74,431.13,278.74Zm0-.72Z" transform="translate(-89.14 -105.94)"/><path class="cls-4" d="M421.78,265.91s5.82,1.4,6.55,1.66,2.51-1.41,3.12-2c.77-.69-.14-1-2.13-1.48s-5.45-1.34-6.07-1.45-1.52,0-2.57,1.39" transform="translate(-89.14 -105.94)"/><path class="cls-4" d="M428.5,268a.86.86,0,0,1-.28,0c-.57-.2-4.52-1.17-6.52-1.65a.36.36,0,1,1,.17-.7c.24.05,5.84,1.41,6.58,1.67.18.06.76-.09,2.62-1.77l.14-.13c.13-.12.15-.17.15-.18a9.47,9.47,0,0,0-2.13-.68c-2-.51-5.45-1.34-6-1.45-.76-.14-1.48.28-2.22,1.26a.36.36,0,0,1-.58-.44c.91-1.2,1.9-1.72,2.93-1.53.61.12,4.05.93,6.09,1.46,1.65.42,2.51.67,2.65,1.25a.89.89,0,0,1-.37.85l-.13.12C430.26,267.17,429.23,268,428.5,268Z" transform="translate(-89.14 -105.94)"/><path class="cls-4" d="M416.54,274.16a2.24,2.24,0,0,1-1.22-.42c-1.45-.95-5.94-1.93-7.28-2.21a20.45,20.45,0,0,0-2.5-.24,45.65,45.65,0,0,1-14.14-2.75c-8.34-3.15-6.15-9.45-6.12-9.51a.37.37,0,0,1,.36-.24.38.38,0,0,1,.33.3,10.24,10.24,0,0,0,1.2,3,6,6,0,0,0,2.65,1.87l-.13-.14a14.3,14.3,0,0,1-2.1-3.49.36.36,0,0,1,.05-.36.35.35,0,0,1,.33-.14,72.34,72.34,0,0,1,10.73,2.27,29.3,29.3,0,0,1,7.11,3.67,20.48,20.48,0,0,0,4.4,2.39,12.53,12.53,0,0,0,4.86.25c1.16-.1,1.86-.16,2.21.17a.62.62,0,0,1,.2.47,2.81,2.81,0,0,1-.7,1.74,8.7,8.7,0,0,1,.88,1.49,1.31,1.31,0,0,1-.27,1.56A1.3,1.3,0,0,1,416.54,274.16ZM385.7,260.72c-.09,1.87.63,5.13,6,7.14a44.77,44.77,0,0,0,13.92,2.71,20.73,20.73,0,0,1,2.61.25c1.76.37,6,1.32,7.53,2.32.58.38,1,.34,1.2.17a.6.6,0,0,0,.09-.71,8.31,8.31,0,0,0-1-1.58.38.38,0,0,1,0-.5,2.3,2.3,0,0,0,.7-1.4,6.48,6.48,0,0,0-1.63,0,13.28,13.28,0,0,1-5.14-.28,21.36,21.36,0,0,1-4.57-2.47,28.49,28.49,0,0,0-6.94-3.59,68.57,68.57,0,0,0-10-2.15,11.59,11.59,0,0,0,1.69,2.69c.68.72,1.3,1.27,1.31,1.27a.36.36,0,0,1-.33.62c-.15,0-3.55-1-4.64-2.75A9.22,9.22,0,0,1,385.7,260.72Z" transform="translate(-89.14 -105.94)"/><path class="cls-4" d="M404.83,266h0a.37.37,0,0,1-.34-.39c0-.09,0-.21,0-.36.06-.5.23-1.83-.21-2.06a50.34,50.34,0,0,0-7.46-.81.36.36,0,0,1,.05-.72c1.15.07,6.95.46,7.75.89s.7,1.92.59,2.79c0,.13,0,.24,0,.32A.36.36,0,0,1,404.83,266Z" transform="translate(-89.14 -105.94)"/><path class="cls-4" d="M398.05,269.56a1,1,0,0,1-.61-.21,4,4,0,0,1-1.25-2.08.36.36,0,0,1,.7-.16,3.35,3.35,0,0,0,1,1.67c.21.17.56-.09.7-.21.61-.51,1-1.35.85-1.52s-.35-.41-2.12-.51c-.19,0-.23,0-.3-.05a.35.35,0,0,1-.17-.48.36.36,0,0,1,.39-.2h.12c1.07.06,2.36.22,2.72.88s-.35,1.86-1,2.42A1.65,1.65,0,0,1,398.05,269.56Z" transform="translate(-89.14 -105.94)"/><path class="cls-4" d="M392.75,267.62a.36.36,0,0,1-.1-.71c.07,0,1.53-.47,2.37-3.18a.37.37,0,0,1,.46-.24.35.35,0,0,1,.23.45c-1,3.14-2.8,3.64-2.87,3.66Z" transform="translate(-89.14 -105.94)"/><path class="cls-4" d="M391.4,263.05a3,3,0,0,1,1,.69c.37.43,1,.09.55-.77s-1.6-.75-1.66-.46A1,1,0,0,0,391.4,263.05Z" transform="translate(-89.14 -105.94)"/><path class="cls-4" d="M375,251.91h.16c1.39.11,20.31,4.25,29.37,6.2,1.86.4,3.51.73,5,1l-.24-.26a2.12,2.12,0,0,1,1.91-.92,3.76,3.76,0,0,1,1,.15c2.21.58,42.17,10.22,43.07,10.6a1.53,1.53,0,0,1,.08,2.82c-1.47.8-18.53,9.43-21.67,10.8h0l-.35.15a4.94,4.94,0,0,1-1.67.34,1.41,1.41,0,0,1-.73-.14h0a1.91,1.91,0,0,1-.77.13,7.28,7.28,0,0,1-1.31-.15c-4.49-.87-40.11-9-40.73-9.33a4.82,4.82,0,0,1-1.77-2,176.18,176.18,0,0,0-10.56-16.08c-1.83-2.14-2-3.35-.77-3.35m0-2.71h0a3.37,3.37,0,0,0-3.19,1.92c-1,2.14.61,4.39,1.9,5.9a178.37,178.37,0,0,1,10.2,15.53,7.61,7.61,0,0,0,2.83,3.15c.46.27,1,.51,19.67,4.77,9.08,2.07,19.52,4.41,21.91,4.87a10,10,0,0,0,1.82.2,5.55,5.55,0,0,0,.72-.05,4.7,4.7,0,0,0,.79.06,7.65,7.65,0,0,0,2.59-.51l.47-.18.12-.06c3.37-1.48,20.25-10,21.83-10.89A4.18,4.18,0,0,0,459,270a4.41,4.41,0,0,0-2.65-3.78c-.59-.24-4.75-1.28-29.65-7.35l-13.76-3.36a6.61,6.61,0,0,0-1.73-.24,5.08,5.08,0,0,0-2.92.87l-3.16-.66L398.39,254c-15-3.25-21.92-4.72-23-4.8l-.37,0Z" transform="translate(-89.14 -105.94)"/><path class="cls-4" d="M419.14,227.09c-6.64,3-9,2.23-12.76-.05-3.37-2.06-16.82-3.17-16.82-3.17s-.47,2.77.35,3.35,3.93,12.5,12.71,14.29,3.58-9.29,9.31-9.29,5.47,10.64,11.66,12.42,15.87.38,18.22-3.63c2.18-3.71,3.65-7.2,3.65-11.85C445.46,226.47,422.3,225.66,419.14,227.09Zm-12.33,7.55c-.16,2.74,0,5.33-3.2,5s-7.08-.19-9.81-9.56c-.91-3.17-.12-3.57,2.29-3.14,3.36.59,7.76,1.67,9.25,3S407,231.89,406.81,234.64ZM439.3,240c-2.2,4-10.16,4.52-15.24,2.34-4-1.72-7.05-9.15-5.13-11.11,2.89-2.94,21.74-.57,21.74-.57a1.76,1.76,0,0,1,1.32,1.07C442.69,233.46,441.5,235.94,439.3,240Z" transform="translate(-89.14 -105.94)"/><path class="cls-4" d="M418.34,234.22c.15.21,2.05.7,2.23,2.46a20.76,20.76,0,0,0,.66,3.37L419,238.54Z" transform="translate(-89.14 -105.94)"/><path class="cls-4" d="M409.06,233.5a19,19,0,0,1,.06,2.31,3.88,3.88,0,0,1-.76,1.62l-.82-.12Z" transform="translate(-89.14 -105.94)"/><path class="cls-6" d="M405.1,242.24a39.35,39.35,0,0,1,2.28-3.85c1.21-1.77,2.61-3.87,2.61-3.87l-1.31,8Z" transform="translate(-89.14 -105.94)"/><path class="cls-4" d="M442.19,227.58s3.17.36,4.06.54c1.14.23.76,2.06.69,2.86s-.29,2.16-.29,2.16a2.21,2.21,0,0,0-1.8.93c-.51.93-2,.57-2,.57Z" transform="translate(-89.14 -105.94)"/><path class="cls-4" d="M425.75,229.57a5.77,5.77,0,0,0,.24,4.16c1,1.82.75,1,.75,1s-1.13-2.37-.63-3.2a25,25,0,0,1,2.29-2.65,3.27,3.27,0,0,0,1.16,3.14,6,6,0,0,0,3.61,1,4.86,4.86,0,0,0,3-.47c1.94-.79,2.64-1.33,2.68-2.78s-1.6-.89-1.6-.89l-8.43-1Z" transform="translate(-89.14 -105.94)"/><path class="cls-4" d="M400.94,227.55s.5,2.16,2,2.83,3.15-.63,3.15-.63Z" transform="translate(-89.14 -105.94)"/><path class="cls-4" d="M398.33,227.05a3,3,0,0,0,.48,1.85,9,9,0,0,1,.92,1s-1.11-1-.92-1.71a6.22,6.22,0,0,0,.22-1.4Z" transform="translate(-89.14 -105.94)"/><rect class="cls-8" x="281.16" y="9.62" width="164.06" height="170.89"/><line class="cls-8" x1="426.54" y1="152.7" x2="426.59" y2="152.09"/><path d="M137.62,159.75V144.7h6.82v1.06h-5.76v14Z" transform="translate(-89.14 -105.94)"/><path d="M145.88,160.2a43.81,43.81,0,0,0,5-3.92l.72,1.11c-1.35,1.25-3.3,2.85-4.39,3.69a.6.6,0,0,1-.22.55Zm5.72-14.68a18.4,18.4,0,0,0,7.71,2.48l-.29,1.33a6.55,6.55,0,0,0-.86-.06c-1,0-1.82.37-3.09,1.54l-1.21-.51a6.86,6.86,0,0,1,2.07-1.52,16.47,16.47,0,0,1-5.07-2.14Zm2.69,6.58a3.19,3.19,0,0,0-.56,1.56c0,.84.6,1.56,2,2.5a4.87,4.87,0,0,1,2.46,4,3.12,3.12,0,0,1-3.34,3.14,9.05,9.05,0,0,1-4-1.38,5.36,5.36,0,0,0,.39-1.19,8.31,8.31,0,0,0,3.43,1.21,1.77,1.77,0,0,0,2-1.82,4.3,4.3,0,0,0-2.16-3.18c-1.49-1-2.21-2-2.21-3.16a4.17,4.17,0,0,1,.7-2.15Zm4.63,2.44a9.48,9.48,0,0,1,5.54,5.66l-1.33.74a8.94,8.94,0,0,0-5-5.33Zm3.57-9.72a2.3,2.3,0,1,1-2.3,2.3A2.3,2.3,0,0,1,162.49,144.82Zm1.56,2.3a1.56,1.56,0,0,0-3.12,0,1.56,1.56,0,1,0,3.12,0Z" transform="translate(-89.14 -105.94)"/><path d="M179,145.87l1.21,1.33a1,1,0,0,1-.6.18c-1.9,1.64-5.76,5.52-7.05,6.85h0a11.61,11.61,0,0,1,5.39-1.45c3.18,0,5.38,1.66,5.38,4.77,0,3.84-3.74,5.4-10.36,5.73a6.27,6.27,0,0,0-.49-1.38c6.13-.27,9.33-1.41,9.33-4.3,0-2.34-1.66-3.51-4.25-3.51a12.46,12.46,0,0,0-7.38,2.87,21.7,21.7,0,0,0-1.66,1.78l-1-1c1.87-2.15,7.65-8,9.91-10.21-1,.1-5.23.37-7.3.49a.67.67,0,0,1-.41.31l-.21-1.73a89.1,89.1,0,0,0,9.19-.57Z" transform="translate(-89.14 -105.94)"/><path d="M199.63,163.81a61.84,61.84,0,0,0-8-7.63c-1-.82-1.39-1.39-1.39-2.13a2.61,2.61,0,0,1,1.08-1.87c1.87-1.72,5.37-5,7.34-7.05l1.75,1.15a.62.62,0,0,1-.45.2,1,1,0,0,1-.25,0c-2,2-5.25,4.76-6.93,6.34-.49.47-.88.88-.88,1.21s.37.75,1.08,1.29a67.44,67.44,0,0,1,8.1,7.44Z" transform="translate(-89.14 -105.94)"/><path d="M208.86,148.1c1.27.08,3,.08,4.36.08.93,0,2,0,2.83,0,0-1,0-2.13,0-2.85l2.07.1c0,.25-.2.37-.55.43,0,.33,0,1.91,0,2.26a40.13,40.13,0,0,0,6.81-.8l.18,1.35a41.85,41.85,0,0,1-7,.78c0,1.23,0,2.5.08,3.78a35.47,35.47,0,0,0,5.79-.8l.16,1.33a39.93,39.93,0,0,1-5.93.72l.17,3.42a23.09,23.09,0,0,1,6,3.2l-.91,1.25a19.84,19.84,0,0,0-5.08-3c0,.33,0,.69,0,1,0,2-1.19,3.08-3.67,3.08s-4.51-1.07-4.51-3,2.23-3.05,4.53-3.05a9.2,9.2,0,0,1,2.15.24c0-.88-.06-1.94-.08-3.05-.66,0-1.39,0-2,0-3.51,0-4.49-.55-4.49-1.74,0-.78.6-1.42,1.91-2.26l1,.64c-.92.51-1.41,1-1.41,1.37,0,.62,1,.74,3.57.74.45,0,.92,0,1.37,0l-.12-3.8c-.89.05-1.91.05-2.83.05-1.32,0-3.18,0-4.41-.05Zm7.58,10.68a8.76,8.76,0,0,0-2.29-.32c-1.56,0-3.14.63-3.14,1.86s1.44,1.81,3.22,1.81c1.62,0,2.23-.72,2.23-2.16Z" transform="translate(-89.14 -105.94)"/><path d="M234.53,148.92V164H227.7v-1.08h5.77v-14Z" transform="translate(-89.14 -105.94)"/><path d="M252.89,146.44c-.07.22-.27.35-.68.33a49,49,0,0,0-1.09,9.23,22.19,22.19,0,0,0,.27,4.06c.39-1,1.27-3.16,1.56-3.88l.86.9c-.84,2.07-1.46,3.24-1.75,4.17a3.5,3.5,0,0,0-.16,1,2.19,2.19,0,0,0,.1.63l-1.45.27a22.41,22.41,0,0,1-.9-7.05,60.59,60.59,0,0,1,1.08-10Zm13.06,15c-.74,0-1.5.06-2.26.06a28.89,28.89,0,0,1-3.81-.22c-2.52-.37-3.69-1.77-3.69-3.41,0-1.41.78-2.6,1.92-4l1.34.58a4.83,4.83,0,0,0-1.75,3.22c0,2.38,3.49,2.38,5.62,2.38.86,0,1.79,0,2.65-.11Zm-9.5-12.53a66.79,66.79,0,0,0,8.94-.78l.13,1.44a79.89,79.89,0,0,1-9,.76Z" transform="translate(-89.14 -105.94)"/><path d="M269.33,150.66c.47-.1,1.15-.28,2.11-.59a33.64,33.64,0,0,1,9.13-2c3.44,0,6.38,1.7,6.38,6,0,5.08-5,7-12,7.75a6.53,6.53,0,0,0-.53-1.39c6.33-.6,10.89-2.32,10.89-6.28,0-3.22-2.22-4.61-4.92-4.61-2.94,0-8.21,1.7-10.07,2.5a.57.57,0,0,1-.37.47Z" transform="translate(-89.14 -105.94)"/><path d="M292.73,147.69c0,.19-.27.31-.55.33a33.19,33.19,0,0,0-.39,5.1c0,.76,0,1.5.08,2.16.24,3.48,1.66,5.6,3.24,5.58.82,0,1.89-2.1,2.62-4.39a8,8,0,0,0,1.19.88c-.94,2.77-2.13,5-3.83,5.06-2.61,0-4.41-3.11-4.7-7-.06-.78-.08-1.64-.08-2.56a47.74,47.74,0,0,1,.31-5.52Zm13.6,9.54a10.23,10.23,0,0,0-5.17-7.71l.9-1.11a11.25,11.25,0,0,1,5.78,8.34Z" transform="translate(-89.14 -105.94)"/><path d="M310.69,147.69c1.54-.06,14.17-1,16.84-1l0,1.53c-.27,0-.51,0-.76,0a5.94,5.94,0,0,0-3.51,1.05c-3.07,1.84-6,5.15-6,7.79,0,2.87,2,4.57,7.09,5.23l-.68,1.44c-5.82-.84-8-3-8-6.67,0-2.89,2.85-6.4,6.6-8.75-2.17.14-8.3.61-10.95.86a.66.66,0,0,1-.45.33Z" transform="translate(-89.14 -105.94)"/></svg>