<?xml version="1.0" encoding="utf-8"?><svg xmlns="http://www.w3.org/2000/svg" width="99" height="81" viewBox="65.345 27.518 99 81"><linearGradient id="a" gradientUnits="userSpaceOnUse" x1="42.902" y1="33.416" x2="98.412" y2="88.925"><stop offset="0" stop-color="#ead18f"/><stop offset=".076" stop-color="#e1c477"/><stop offset=".221" stop-color="#d1af4e"/><stop offset=".335" stop-color="#c8a235"/><stop offset=".405" stop-color="#c49d2c"/><stop offset=".559" stop-color="#d4b35c"/><stop offset=".766" stop-color="#e7cd97"/><stop offset=".919" stop-color="#f3debb"/><stop offset="1" stop-color="#f8e4c9"/></linearGradient><linearGradient id="b" gradientUnits="userSpaceOnUse" x1="42.651" y1="65.664" x2="97.904" y2="120.916"><stop offset="0" stop-color="#ead18f"/><stop offset=".076" stop-color="#e1c477"/><stop offset=".221" stop-color="#d1af4e"/><stop offset=".335" stop-color="#c8a235"/><stop offset=".405" stop-color="#c49d2c"/><stop offset=".559" stop-color="#d4b35c"/><stop offset=".766" stop-color="#e7cd97"/><stop offset=".919" stop-color="#f3debb"/><stop offset="1" stop-color="#f8e4c9"/></linearGradient><linearGradient id="c" gradientUnits="userSpaceOnUse" x1="43.106" y1="45.535" x2="98.65" y2="101.079"><stop offset="0" stop-color="#ead18f"/><stop offset=".076" stop-color="#e1c477"/><stop offset=".221" stop-color="#d1af4e"/><stop offset=".335" stop-color="#c8a235"/><stop offset=".405" stop-color="#c49d2c"/><stop offset=".559" stop-color="#d4b35c"/><stop offset=".766" stop-color="#e7cd97"/><stop offset=".919" stop-color="#f3debb"/><stop offset="1" stop-color="#f8e4c9"/></linearGradient><linearGradient id="d" gradientUnits="userSpaceOnUse" x1="83.804" y1="49.637" x2="139.109" y2="104.943"><stop offset="0" stop-color="#ead18f"/><stop offset=".076" stop-color="#e1c477"/><stop offset=".221" stop-color="#d1af4e"/><stop offset=".335" stop-color="#c8a235"/><stop offset=".405" stop-color="#c49d2c"/><stop offset=".559" stop-color="#d4b35c"/><stop offset=".766" stop-color="#e7cd97"/><stop offset=".919" stop-color="#f3debb"/><stop offset="1" stop-color="#f8e4c9"/></linearGradient><linearGradient id="e" gradientUnits="userSpaceOnUse" x1="73.083" y1="62.679" x2="128.389" y2="117.985"><stop offset="0" stop-color="#ead18f"/><stop offset=".076" stop-color="#e1c477"/><stop offset=".221" stop-color="#d1af4e"/><stop offset=".335" stop-color="#c8a235"/><stop offset=".405" stop-color="#c49d2c"/><stop offset=".559" stop-color="#d4b35c"/><stop offset=".766" stop-color="#e7cd97"/><stop offset=".919" stop-color="#f3debb"/><stop offset="1" stop-color="#f8e4c9"/></linearGradient><path fill="#B2B2B2" d="M79.289 40.332c0 .147.011.339.03.575a136.529 136.529 0 0 0 .179 10.529c-.079 1.062-.169 1.887-.268 2.477v.664c-.189.266-.245.752-.165 1.459-.229.59-.617 1.299-1.164 2.124l-.269-.266-.209.089c-1.214-.768-2.06-1.15-2.537-1.15-.368 0-.91.029-1.626.088-.718.06-1.255.089-1.613.089-1.164 0-2.518.649-4.06 1.946-.108-.531-.263-1.238-.462-2.123v-.31c.229-1.386.383-3.273.462-5.662l.091-5.928c.01-.442.059-1.18.148-2.212.09-.943.129-1.682.119-2.212l-.015-.31-.253-.486-.225-1.902.075-1.593c.079-.295.196-.457.35-.486.154-.029.277-.147.366-.354.259 0 .453.266.583.797l.059.266c.06.236.125.354.194.354.109 0 .333-.133.672-.398.417-.266.666-.428.745-.486a10.753 10.753 0 0 1 1.762-.619 310.98 310.98 0 0 0-.149-2.742l.074-1.283.344-.708.373-.133c.109.531.269.885.478 1.062.13.06.323.266.583.619l.074 1.239-.269 1.991h.045a56.67 56.67 0 0 1 2.193.441 10.93 10.93 0 0 1 2.18.885l.253-.752.419.089c.02.324.118.692.298 1.105.129.295.264.59.403.885 0 .384-.046.818-.135 1.306-.088.483-.133.829-.133 1.036zm-1.193 4.512c0-.206.005-.516.015-.929s.015-.723.015-.929c0-.147-.015-.914-.044-2.301-.329-.59-.896-.885-1.702-.885-.02 0-.109-.059-.269-.177-.069.03-.119.03-.148 0a35.024 35.024 0 0 1-2.016-.354c-.08-.03-.249-.104-.507-.222-.22-.088-.394-.133-.522-.133.01 0-.313.104-.971.311-.02 0-.049-.016-.09-.045-.039-.029-.064-.044-.074-.044-1.323 0-2.199.472-2.627 1.415l-.06.974.06.354c.14 0 .351-.104.635-.311.283-.206.5-.31.649-.31.059 0 .149.015.269.044s.209.045.269.045c.179 0 .45-.045.813-.133.364-.088.636-.133.814-.133.099 0 .278.045.537.133l.045-.354c.109.324.169.486.179.486.029 0 .072-.016.127-.045s.098-.044.127-.044h.418c.188.039.328.06.418.06.099 0 .243-.029.433-.089a1.55 1.55 0 0 1 .433-.089c.13 0 .314.074.553.222l.224-.442c.269.088.617.31 1.044.664-.049 1.592-.303 2.491-.761 2.697-.238 0-.591.104-1.06.311l-.567-.178h-1.06c-.108 0-.271.021-.484.06a3.09 3.09 0 0 1-.47.059c-2.011 0-3.26.487-3.746 1.46l-.017.84c.18.207.359.311.539.311.01-.029.02-.045.029-.045l.164-.133c.169.119.248.178.238.178-.06 0 .135-.089.583-.266 1.153-.413 1.885-.561 2.192-.442.906.295 1.443.428 1.613.397l.223-.397c.101.324.319.486.657.486.1 0 .249-.036.448-.11s.348-.11.447-.11c.149 0 .353.029.612.089.357.059.592.103.701.132l-.089.753.074.53c-.378 1.327-.776 2.123-1.194 2.389-.13-.029-.313.015-.552.133-1.573-.442-2.463-.663-2.672-.663-1.532 0-2.746.324-3.642.973l-.492-.221c-.08.501-.159 1.548-.239 3.141l.075.088c1.88-.973 3.925-1.459 6.134-1.459.188 0 .571.146 1.149.441l1.194.575c.099.06.462-.015 1.089-.222-.02-.471-.005-1.12.044-1.945-.01-.619-.049-1.711-.118-3.273a80.413 80.413 0 0 1-.089-3.318zM81.149 45.33c-.17.324-.279.664-.329 1.018l-.418.266a10.576 10.576 0 0 1-.298-1.99c-.01-.089-.046-.811-.104-2.168l.134-.221c.021-.178.04-.311.06-.398s.224-.324.612-.707c.358-.354.587-.547.687-.576.05-.029.264-.044.643-.044a.614.614 0 0 0 .372-.133l.12.354c.02.146.029.472.029.973.011.059.03.147.06.266a4.783 4.783 0 0 1-.687 1.99c-.3.472-.592.929-.881 1.37zm2.194 4.91c-.04 1.033-.299 2.654-.776 4.867-.437 2.005-.656 3.672-.656 4.998l-.238.443c-.27 0-.45-.318-.546-.951a103.02 103.02 0 0 1-.261-1.881c-.01-.029-.06-.236-.149-.619a4.081 4.081 0 0 1-.119-.885c.17-.914.378-1.917.627-3.008.1-.473.357-1.328.776-2.566.417-1.238.701-2.013.851-2.322s.343-.465.582-.465c.02.266.029.457.029.576 0 .265-.02.59-.06.973-.04.383-.06.664-.06.84zm.553-15.748c-.06.207-.173.457-.337.752s-.385.62-.663.974c-.14.147-.408.31-.807.487-.328.117-.592.354-.79.707l-.194-.133c-.169-.825-.254-1.488-.254-1.99 0-.059.029-.561.09-1.504l-.061-.885c.239-.531.473-.797.701-.797.07 0 .154-.043.255-.133l.313.354.865-.31c.109-.029.313.236.611.797l.598-.089c.039.294.06.737.06 1.327-.149.002-.278.148-.387.443zm9.656 8.317c-.1.03-.225.148-.373.354-.149.206-.269.31-.359.31-.218 0-.554-.118-1.007-.354-.453-.236-.803-.34-1.053-.311-.417.03-.636.045-.656.045-1.015 0-2.592.324-4.73.973-.438.118-.719.384-.844.797-.125.412-.271.59-.44.531-.179-.414-.299-.988-.358-1.726-.01-.295-.073-.737-.193-1.327a18.55 18.55 0 0 1 .209-1.593c.159-.384.473-.663.94-.841l.148.178c.588-1.858 1.492-4.542 2.716-8.051l-.029-.531c.02-.472.115-.797.284-.973.14-.148.283-.178.432-.089l.105-.177h.284c.029.472.174.958.432 1.459.27.59.403 1.136.403 1.637 0 1.121-.333 1.785-1 1.991-.517.974-.979 2.374-1.388 4.202.069-.059.129-.088.18-.088.02 0 .084.044.193.133l.344-.178.164.133c.01 0 .015.015.015.045.14-.03.637-.089 1.492-.178a15.975 15.975 0 0 1 1.492-.088c.021 0 .323.104.911.309-.09-.53-.174-1.076-.254-1.637-.129-.736-.264-1.164-.403-1.282l-.373-.796v-1.15c0-.029.016-.266.045-.708l.612-.442c.358.118.825.87 1.402 2.256.159.855.313 1.711.463 2.566.148.855.224 1.828.224 2.92 0 .088-.005.316-.015.686-.01.369-.015.7-.015.995zm.103 5.792l.061.486c-.279.529-.418 1.222-.418 2.077v3.533c.029.148.045.324.045.531 0 .266-.032.573-.098.927a5.026 5.026 0 0 0-.097.841c0 .147.01.31.03.486l-.269.706h-.135c-.349.561-.756.767-1.224.62-1.243-.473-2.074-.709-2.493-.709-2.199 0-3.722.68-4.567 2.035-.128-.531-.218-1.254-.268-2.168-.04-.823-.115-1.413-.224-1.768v-1.016c.248-.441.402-1.473.462-3.092.01-.148.029-.443.061-.885.029-.353.044-.647.044-.883s-.042-.59-.126-1.061c-.085-.472-.128-.826-.128-1.062 0-.411.065-.802.195-1.171.128-.368.268-.566.417-.597l.254.222c1.045-.824 2.313-1.237 3.806-1.237.786 0 1.243.015 1.373.044.1.029.309.118.627.266.259.118.467.178.627.178.06 0 .239-.016.538-.045.068-.619.313-1.002.73-1.15a5.9 5.9 0 0 0 .299 1.238c.179.471.298.811.358 1.016.099.384.184.826.253 1.326l-.133.312zm-1.626 1.46c-.875-.617-1.791-.926-2.746-.926-1.503 0-2.607.293-3.313.881-.069.029-.13.207-.18.529-.119.617-.179 1.854-.179 3.707 1.433-.561 2.527-.841 3.283-.841.279 0 1.354.147 3.224.442l-.089-3.792zM97.725 32.738c-.219.678-.438 1.371-.657 2.079-.299.943-.452 1.651-.463 2.123.369 1.858.646 3.377.836 4.557v1.813l-.045.973c-.179.148-.497.855-.954 2.124-.339.914-.578 1.732-.718 2.455-.138.722-.248 1.718-.328 2.985-.099 1.593-.193 3.17-.283 4.733-.139 2.035-.328 3.421-.567 4.159-.298-.502-.447-1.533-.447-3.098 0-2.979.164-5.883.493-8.714.357-3.038.86-5.574 1.507-7.608-.03-.413-.189-1.18-.478-2.301-.09-.088-.174-.133-.254-.133-.378 0-.717.855-1.016 2.566-.328-.384-.512-.959-.552-1.726a49.372 49.372 0 0 0-.104-1.946c.01-.561.025-1.121.045-1.682.03-.678.148-1.061.358-1.15l.224.222c.219-.354.503-.885.851-1.593.14-.295.518-.832 1.135-1.614.616-.781.99-1.172 1.119-1.172h.627c-.051.681-.16 1.329-.329 1.948zm4.421 10.882c.011.118.016.222.016.31 0 .236-.011.619-.029 1.15s-.028.929-.028 1.194c0 .118.02.943.058 2.478.1 0 .249.044.447.133.527.029.807.061.836.09.259.117.503.547.731 1.287-.079.532-.248 1.332-.508 2.397-.149.147-.289.222-.417.222-.1 0-.251-.045-.456-.133-.204-.089-.36-.133-.47-.133-.06 0-.125.029-.193.088-.046.473-.07 1.637-.07 3.494 0 1.74-.2 3.201-.6 4.381l-.284-.576c-.092-.736-.161-2.698-.211-5.883 0-.295-.01-.619-.029-.974-.011-.029-.11-.118-.299-.265-.547.146-1.006.5-1.373 1.061a15.57 15.57 0 0 1-.269-2.925c0-.562.119-1.153.358-1.776l.253.133a.47.47 0 0 0 .18.133c.069 0 .463-.148 1.179-.443 0-.945.019-2.096.055-3.451a95.69 95.69 0 0 1-.016-1.594c0-.265.006-.471.016-.619-.349.768-.811 2.022-1.389 3.763-.576 1.741-1.02 2.968-1.328 3.677-.537 1.244-1.089 2.102-1.656 2.573l-.06-.663c-.119-.06-.324-.488-.611-1.289a1.218 1.218 0 0 0-.255-.442c.11-.562.215-.962.313-1.2.17-.385.44-.731.813-1.041.374-.312.641-.613.8-.908.846-1.593 1.775-4.158 2.79-7.697-.816.029-1.582.648-2.298 1.857a15.79 15.79 0 0 1-.269-2.963c0-.738.063-1.299.193-1.682.487-.324.976-.634 1.463-.929.587-.354 1.089-.517 1.508-.487.01-.412.044-1.018.104-1.813l-.282-2.168c0-.561.068-1.018.208-1.371.04 0 .117-.082.232-.244s.193-.242.232-.242c.159 0 .345.294.556.884l.478 1.416.029 1.99c-.14.177-.225.442-.254.796l.029.354 2.314.222c.039 0 .09-.023.149-.066.059-.045.104-.066.134-.066.498 0 .775.014.836.044.238.118.493.516.761 1.194l-.089 1.15c-.13.266-.27.663-.418 1.193-.209.738-.339 1.18-.389 1.328a35.837 35.837 0 0 1-1.328-.576 5.663 5.663 0 0 0-1.463-.176c-.06 0-.114.029-.164.088.338 1.268.831 2.698 1.478 4.291.687 1.681 1.255 2.802 1.701 3.361.17.207.537.517 1.105.93.467.326.831.725 1.089 1.197l.254 1.11c-.239.591-.622 1.303-1.149 2.13-.557.855-.96 1.342-1.208 1.461-.429-.649-.876-1.742-1.344-3.279-.716-2.395-1.104-3.666-1.164-3.813-.307-.797-.75-2.022-1.328-3.673z"/><path fill="#B2B2B2" d="M109.942 41.453c-.059.501-.184 1.209-.373 2.123-.1.324-.381.877-.844 1.658-.462.781-.783 1.246-.962 1.395-.12-.502-.259-1.328-.418-2.479.06-.825.109-1.385.149-1.68l.283-.797.358.398c.318-.384.642-.752.97-1.106.329-.354.677-.53 1.045-.53-.097.413-.168.753-.208 1.018zm.598 8.581a71.14 71.14 0 0 1-.307 2.058c-.145.898-.484 2.469-1.021 4.711-.08.59-.244 1.386-.493 2.389-.06.148-.149.383-.269.707-.069.236-.125.635-.164 1.195l-.388-2.389.029-.619a3.175 3.175 0 0 0-.074-.487l-.09-.222c.07-.648.095-1.149.075-1.504l.373-2.433c.258 0 .642-.854 1.149-2.565.079-.266.502-1.357 1.268-3.273l.329.442c-.109.56-.249 1.224-.417 1.99zm-.254-15.261c-.149.176-.448.324-.896.441-.289.236-.727.517-1.313.841l-.253-1.637c.079-.885.128-1.401.148-1.548.09-.619.209-.914.357-.885.309.088.458.133.448.133.149 0 .371-.022.665-.066.293-.045.515-.066.663-.066.358 0 .677.266.956.796-.248 1.032-.506 1.697-.775 1.991zm10.522 17.296c-.208-.561-.338-1.283-.388-2.167-.01-.797-.025-1.594-.045-2.39a8.327 8.327 0 0 0-.089-1.149l-.419.176c-.518-.441-1.447-.898-2.79-1.371-.06-.088-.13-.133-.209-.133-.22 0-.328.281-.328.841 0 .06.005.133.015.222.299.088.507.162.627.221.269.178.462.413.582.708.248-.089.482-.295.701-.619.209.295.348.501.418.619.139.295.238.634.298 1.018a479.697 479.697 0 0 1-.133 2.389l.089 3.495c-.06.295-.117.788-.172 1.481-.055.692-.147 1.261-.276 1.703-.298-.531-.472-1.342-.522-2.433l-.06-2.965c-.029-.619-.109-1.061-.238-1.326-.09-.118-.22-.295-.389-.531-.238-.324-.487-.486-.746-.486-.219 0-.353.162-.402.486-.03.207-.041.561-.03 1.062l.075 3.185c0 3.51-.232 6.135-.7 7.875a3.466 3.466 0 0 1-.26-.686c-.045-.191-.112-.818-.2-1.881-.09-1.062-.134-1.725-.134-1.99 0-.178.012-.457.034-.841.023-.384.035-.679.035-.884l-.045-6.105-.134-.31c-.278.147-.492.28-.642.398a1.42 1.42 0 0 0-.568.796c-.01.029-.064.442-.164 1.238-.148 1.209-.253 1.977-.313 2.301-.13.767-.299 1.4-.508 1.902-.179-.354-.254-.826-.224-1.416.04-.59.1-1.607.179-3.053.09-1.592.133-2.535.128-2.83s.017-.708.066-1.238c.05-.295.159-.473.328-.531.1.236.244.472.433.707.309-.265.782-.707 1.418-1.326-.029-.59-.119-.885-.269-.885-.259 0-.627.17-1.104.508-.478.34-.836.51-1.074.51s-.402.383-.493 1.149c-.089.855-.174 1.711-.253 2.565-.119.914-.299 1.637-.538 2.168l-.283-.31c0-.442.045-1.444.135-3.008.069-1.416.094-2.286.074-2.61l-.104-1.727c-.02-.268.013-.615.097-1.045.085-.43.177-.719.277-.869.108.062.243.238.402.535.219.355.354.578.402.667 1.255-1.155 2.826-1.734 4.717-1.734.08 0 .184.03.313.089.169.061.273.105.313.135.796.176 1.219.279 1.269.309.487.18.906.432 1.254.756.119-.77.243-1.155.373-1.155.388 0 .631.623.731 1.867.049.593.068 1.687.059 3.278-.01.915 0 1.549.031 1.902-.12 1.328-.329 2.242-.627 2.743zm.089-14.333c-.199 0-.48-.229-.843-.686-.363-.457-.64-.686-.828-.686-.031.029-.075.457-.135 1.283-.01.147-.024.295-.044.442-.061.413-.2 1.017-.419 1.813-.248.943-.433 1.416-.552 1.416-.07 0-.14-.045-.209-.133-1.015-.118-1.607-.178-1.776-.178-.985 0-1.99.473-3.016 1.416-.049-.236-.102-.486-.156-.752a3.118 3.118 0 0 1-.067-.752l.135-3.008-.06-.619-.134-.133-1.314.752-.328-1.726c0-.974.149-1.622.448-1.946l.298.398c.09-.118.359-.295.807-.531l-.016-1.018c.09-.826.26-1.342.508-1.548.13.265.333.619.612 1.062.179.207.263.502.253.885l.105.044c.318-.029.801-.103 1.447-.222.01-.176.015-.295.015-.354 0-1.475-.03-2.314-.089-2.521.079-.707.229-1.193.447-1.459l.687 1.326c-.01.089-.042.317-.098.686a6.124 6.124 0 0 0-.081.818c0 .679.015 1.106.045 1.283l1.687-.133c.06-.472.123-.943.193-1.415.069-.472.229-.737.478-.796.021.206.104.523.254.951.149.427.239.936.269 1.525.587.413 1.493.664 2.717.752-.408 2.511-.822 3.764-1.24 3.764zm-5.368-1.504a.96.96 0 0 0-.403-.088c-.258 0-.626.191-1.104.574l-.135 2.257.075.089 1.462-.797c.13-.324.194-.781.194-1.371.001-.324-.029-.545-.089-.664zm2.791-.087c-.179-.118-.467-.178-.865-.178-.278 0-.558.03-.836.089-.109.266-.164.663-.164 1.194v.442c.05.177.139.266.269.266l1.522.089c.079-.59.12-1.033.12-1.328 0-.383-.016-.574-.046-.574zM121.728 59.221c-.11-.117-.224-.236-.344-.354-.119-.118-.219-.311-.299-.575l.254-1.902c.05-.354.175-.692.373-1.018.159-.235.318-.472.479-.708.478-.825.811-2.138 1-3.937l-.061-1.239.193-.441.508.354c.09.236.135.634.135 1.194 0 1.858-.209 3.671-.626 5.44-.448 1.918-.986 2.979-1.612 3.186zm5.233-22.03c-.109.088-.274.25-.492.486-.159.207-.388.855-.687 1.946.029.295.119.472.269.53l.269-.176c.039.146.218.53.537 1.15.249.471.373 1.105.373 1.901 0 .06-.021.368-.06.929a2.1 2.1 0 0 1-.373.575 4.713 4.713 0 0 0-.373.442c-.169.295-.349.768-.537 1.416-.08.146-.18.412-.299.796-.029.118-.065.604-.104 1.46-.04.855-.06 1.43-.06 1.725 0 .502.01 1.262.029 2.279.021 1.017.03 1.791.03 2.322 0 2.595-.171 4.748-.51 6.459-.191-.266-.34-.813-.45-1.637-.08-.68-.114-1.299-.104-1.859.02-.619.029-.898.029-.84l-.074-3.539c0-.383.007-.98.021-1.791.016-.812.023-1.424.023-1.836 0-.089-.01-.59-.03-1.504-.558-1.18-1.1-1.77-1.627-1.77l-.343-.487-.06-2.034.208-1.328c.249-.059.498-.412.746-1.061.409-1.063.622-1.607.643-1.637-.159-.679-.468-1.121-.925-1.328l-.479.797c-.02-1.533-.029-2.478-.029-2.831 0-.561.039-.944.118-1.15.339-.708.677-1.431 1.016-2.167.448-.944.727-1.799.836-2.566l.541-1.283c.09.178.22.34.39.487.13.147.263.28.402.397.05 1.15.194 2.021.434 2.61.02.06.243.457.672 1.194.268.473.437 1.047.507 1.726-.149.652-.308 1.05-.477 1.197zm-1.667-3.584c-.258.09-.646.915-1.164 2.479.039.117.149.338.328.663.199.413.334.722.404.929.118-.207.297-.545.537-1.018.02-.059.144-.383.372-.973a12.32 12.32 0 0 0-.477-2.08zm-.343 7.831c-.149.324-.299.635-.448.93-.18.383-.303.781-.373 1.193.159.354.403.738.732 1.15l.552-1.813a9.536 9.536 0 0 0-.18-.885c-.099-.354-.193-.546-.283-.575zm1.581 14.464l-.313.487c-.158-.914-.248-2.124-.268-3.628-.01-1.857-.04-3.066-.09-3.627l.194-.574.746.53.104.885c-.09.648-.157 1.644-.201 2.985-.044 1.343-.101 2.323-.172 2.942zm8.543-14.287c0 1.475.029 3.686.084 6.635.057 2.949.085 5.161.085 6.636 0 2.3-.171 4.144-.51 5.53l-.285-.266c-.299-2.448-.449-6.636-.449-12.564-.079 0-.198.111-.359.332-.159.222-.283.332-.372.332-.429 0-.86-.376-1.294-1.128-.433-.752-.749-1.673-.949-2.765l-.701 1.99c-.279.738-.553 1.254-.821 1.549-.209.147-.478.472-.806.973-.03 1.15-.164 3.701-.403 7.653-.09 1.681-.273 2.802-.553 3.362l-.432.266c.02-3.098.089-6.164.208-9.201.169-4.218.255-7.107.255-8.671 0-.295-.065-.679-.194-1.149l-.21-3.672c.11-.384.324-.576.643-.576.02 0 .198.133.537.398.348-.354.687-.619 1.015-.796.239-.029.598-.133 1.074-.31l.061-.797c0-.295-.07-.744-.209-1.349-.14-.604-.21-1.084-.21-1.438 0-.147.005-.295.016-.442-.021-.502.025-.855.134-1.063.021-.029.14-.146.358-.354.062.148.28.266.661.354.339.06.549.561.628 1.505l-.045.397c-.07.236-.159.59-.269 1.063-.04.235-.06.678-.06 1.326v.354l.015.044c-.029-.029.164-.044.582-.044.646 0 1.264.251 1.851.752l.418-.397c.09.146.209.295.358.441.339.324.532.841.582 1.549.01.266.01.767 0 1.504-.29.208-.434.887-.434 2.037zm-4.691-1.769c-.448.117-.956.368-1.522.752-.01.088-.02.295-.03.619-.01.324-.054.693-.134 1.105a4.36 4.36 0 0 0-.06.354c.01.09.024.192.045.311l-.091 2.168.031.309c.984-.973 1.606-2.816 1.865-5.529l-.104-.089zm3.691 1.047c-.229-.502-.548-.855-.955-1.063l-1.03-.354c-.089.029-.184.059-.284.089-.138.059-.208.177-.208.354 0 1.415.213 2.507.642 3.273.378.679.831 1.018 1.358 1.018.159 0 .323-.029.492-.089 0-.324.015-.781.045-1.371l-.06-1.857z"/><path fill="#B2B2B2" d="M140.034 35.539c.317.06.795.222 1.433.487l.015-.044c.05-.118.135-.28.254-.486.119.146.293.486.522 1.017-.03.531-.046 1.726-.046 3.583 0 1.387-.357 2.08-1.074 2.08h-.388c.329.53.736.928 1.224 1.193l.016.398c.01.561-.069 1.055-.239 1.482-.169.428-.348.641-.538.641-.327 0-.755-.634-1.282-1.902-.021.178-.043.568-.067 1.173a7.762 7.762 0 0 1-.306 1.836c-.22-.442-.344-.988-.373-1.637-.03-.649-.056-1.298-.075-1.946-.169.059-.338.279-.508.663l-.448.974c-1.233 2.182-2.004 3.273-2.313 3.273-.13-.029-.309-.074-.537-.133-.299-.089-.448-.473-.448-1.15 0-.561.096-.973.284-1.238.229-.089.547-.222.954-.398.18-.088.463-.486.852-1.194s.661-1.327.82-1.858h-.029c-.1 0-.241.141-.426.421-.184.28-.311.42-.381.42-.108 0-.21-.118-.306-.354a2.251 2.251 0 0 1-.141-.841c0-.088.01-.177.029-.266.05-1.681.079-2.403.089-2.167 0-.03-.01-.177-.029-.442l-.045-.486a19.24 19.24 0 0 1-.044-.974c0-.206.015-.472.044-.796.219.029.604-.155 1.156-.553.553-.398.988-.612 1.306-.643l.061-.885a.409.409 0 0 0-.179-.043c-.08 0-.274.088-.583.265a7.7 7.7 0 0 0-.775.222c-.159.059-.394.457-.701 1.193-.22-.265-.304-.752-.255-1.459l.18-2.654.434.486c.666-.412 1.308-.693 1.925-.84-.021-.207-.074-.34-.164-.398 0-1.121.085-1.857.254-2.212.219.235.438.472.655.708.17.236.279.885.329 1.946.129.118.264.162.403.133a56.76 56.76 0 0 1 1.298-.177c.318 0 .522.354.612 1.061-.14.62-.354 1.018-.642 1.195-.388.236-.628.428-.717.574l-.851-.133c-.119 0-.198.074-.238.222a.479.479 0 0 0 0 .177v.486zm6.766 24.67c.03 0-.249-.148-.836-.443-1.373-.736-2.602-1.105-3.687-1.105-1.442 0-2.433.148-2.97.443a8.584 8.584 0 0 1-.97.486c-.179.059-.438.191-.776.398-.18.146-.289.486-.329 1.018a.574.574 0 0 0-.253-.09c-.061 0-.254.162-.583.486l-.253-.176c-.22-1.063-.328-1.918-.328-2.566 0-1.033.417-1.714 1.253-2.04l.358.399a2.6 2.6 0 0 1 .88-.887c.319-.176.633-.368.941-.576v-1.773l-.313-.887c.01-.68.09-1.213.238-1.596.199 0 .482.133.851.398l.313 1.463a4.272 4.272 0 0 0-.164 1.242c0 .236.005.502.015.797a.77.77 0 0 0 .58.044c.139-.03.392-.089.759-.177.02-.266.029-.428.029-.486V50.59l-.163-.443-.075-.441a.962.962 0 0 0-.238-.091.598.598 0 0 0-.255.091.604.604 0 0 1-.224.088c-.468.088-.716.133-.746.133-.308.147-.532.442-.671.887l-.508.31c-.278-1.211-.418-2.335-.418-3.37.06-.355.159-.754.299-1.195.169.088.258.133.268.133.051.206.125.368.225.486.189 0 .532-.104 1.03-.31.626-.266.99-.415 1.089-.444.629-.178 1.134-.266 1.513-.266.129 0 .318.015.566.045.249.029.438.043.568.043l.865-.176c.846-.148 1.328.563 1.447 2.132-.527.741-1.373 1.112-2.537 1.112-.04 0-.254-.03-.642-.089-.249.56-.373 1.047-.373 1.46 0 .177.015.279.045.309h.179c.259-.059.945-.176 2.06-.354.209-.029.402.118.582.442.22.384.328.915.328 1.593-.129.295-.258.516-.388.664-.209.206-.662.368-1.358.486-.935.117-1.422.177-1.463.177-.06.147-.089.517-.089 1.106l.119.132c.398-.118.606-.177.627-.177.478 0 1.323.088 2.537.268 1.085.177 1.945.236 2.582.177.021.235.03.415.03.532 0 .652-.21 1.51-.627 2.573-.418 1.063-.73 1.596-.939 1.596zm-7.78-21.867c-.021-.06-.061-.089-.12-.089-.555 0-1.021.251-1.397.752-.07.089-.104.31-.104.663 0 .148.029.413.09.797l1.472-.752c.039-.266.061-.546.061-.841v-.53zm2.437.088l-.03-.044c-.497-.147-.762-.222-.791-.222-.04 0-.243.045-.612.133a2.17 2.17 0 0 0-.03.531v.575c.07-.029.194-.043.373-.043h.374c.249 0 .503.088.761.265l.015-.397a42.366 42.366 0 0 0-.06-.798zm6.353 8.935c-.269 0-1.303-1.637-3.104-4.91-.198.178-.497.679-.896 1.504-.567 1.209-.865 1.828-.895 1.858-.09-.177-.294-.354-.612-.531-.08-.029-.164-.103-.255-.221v-1.062c.708-.738 1.344-1.814 1.911-3.229-.06-.295-.239-.442-.538-.442-.118-.324-.179-.723-.179-1.194 0-.177.015-.339.046-.487a.954.954 0 0 1 .179-.397c.039-.06.069-.192.089-.398.27.206.434.339.492.398.13.118.274.354.434.708.079.206.135.31.164.31.01 0 .025-.015.045-.044l1.135-2.92.089.354c.02 0 .05-.015.09-.044h.089c.08 0 .172.177.276.53.104.354.157.649.157.885 0 .118-.005.222-.015.311a2.33 2.33 0 0 1-.554.885c-.179.176-.323.59-.432 1.238 1.393 2.006 2.557 3.008 3.492 3.008l.553-.177a9.186 9.186 0 0 1-.747 2.72c-.397.898-.736 1.347-1.014 1.347zm-.925-11.147h-.449c-1.233 0-2.04.236-2.418.708-.159.383-.448.855-.865 1.416-.199.117-.438.339-.717.663a3.008 3.008 0 0 1-.209-.841l.061-.221a5.518 5.518 0 0 1 .372-1.637c.189-.442.373-.87.553-1.283.129-.324.323-1.268.582-2.831l-.135-1.194.373-1.018c.398.089.647.191.746.311.249.295.384.898.403 1.813-.188.384-.299.62-.328.709-.1.265-.159.619-.179 1.061l.06.045c.865-.473 1.75-.708 2.656-.708.388 0 .657.472.807 1.415-.249 1.062-.686 1.592-1.313 1.592z"/><path fill="#B2B2B2" d="M153.36 51.214c-.965-.324-1.512-.486-1.643-.486-.739 0-1.676.708-2.811 2.123l-.224-.575v-.885c.07-.561.209-1.268.419-2.123.198-.118.537-.442 1.015-.973.417-.473.761-.738 1.029-.797.03-.236.045-.811.045-1.725 0-.855-.014-1.371-.04-1.549-.526-.029-1.055.31-1.582 1.018-.288-.088-.433-.604-.433-1.549 0-.501.125-1.355.373-2.564.209 0 .478-.104.806-.311.398-.266.667-.412.807-.442l.06-.442v-.088c0-1.269-.1-2.285-.299-3.053a.663.663 0 0 1-.187-.044.623.623 0 0 0-.187-.044c-.159 0-.32.199-.484.597s-.312.597-.441.597l-.104-.044c-.17-.796-.255-1.386-.255-1.769 0-.119.005-.252.015-.398a5.978 5.978 0 0 1-.029-.575c0-.266.046-.604.135-1.018.119-.53.184-.87.193-1.018l.299-.354c.079.413.194.619.344.619.029 0 .691-.192 1.985-.575-.02.029.159.066.537.111.378.043.632.109.761.198.229.177.458.53.687 1.062-.06 1.15-.254 1.814-.582 1.99-.159 0-.373.104-.642.311-.209-.059-.498.029-.866.266-.089.295-.134.766-.134 1.415v1.062c0 .473.045.87.134 1.194.607 0 1.055.368 1.344 1.106.01.206.015.368.015.486 0 .767-.114 1.268-.343 1.504-.12.118-.339.177-.657.177-.349 0-.522.782-.522 2.345 0 .266.005.575.015.929.299.089.717.251 1.255.487.687.324 1.029 1.018 1.029 2.078 0 .59-.1 1.047-.299 1.372-.16.294-.338.413-.538.354zm9.324 7.55l-.82 1.195-1.821-1.771c-.657-.59-1.299-.885-1.925-.885a3.82 3.82 0 0 0-1.985.53c-.209.06-.513.148-.91.266-.21.089-.57.45-1.082 1.084-.513.635-.898 1.172-1.157 1.615-.109-.236-.18-.545-.209-.93-.03-.383-.055-.766-.074-1.15a1.388 1.388 0 0 0-.091-.397c.041-1.003.189-1.888.448-2.654.189.03.383-.147.582-.53l.313.397c.419-.501.995-.796 1.731-.885.855-.118 1.443-.295 1.762-.53l.044-.311-.059-1.77c-.08-.176-.185-.279-.314-.309-.169 0-.278-.029-.328-.089a10.55 10.55 0 0 0-.926.421c-.317.162-.582.553-.79 1.172l-.388-.486c-.07-.295-.105-.752-.105-1.372v-.442l.373-1.813c.588-.56 1.423-1.018 2.508-1.371v-.929c0-.531-.109-.797-.328-.797.049 0-.17.104-.657.311-.289.117-.576.25-.865.397s-.567.457-.836.929a4.428 4.428 0 0 1-.27-1.105 59.727 59.727 0 0 0-.133-1.194c.068-.649.123-1.475.164-2.478.069-1.592.104-2.418.104-2.477a15.98 15.98 0 0 1-.044-2.035 80.57 80.57 0 0 0 .119-2.123c-.01-.089-.061-.457-.149-1.106-.08-.472-.12-.825-.12-1.062 0-.207.05-.612.15-1.217.1-.604.179-.906.238-.906.239 0 .979-.191 2.224-.576.389-.117 1.065-.176 2.029-.176.26 0 .503.029.732.088.089.029.253.118.492.266.209.147.373.221.493.221l.626-.221.463.84.149.797c-.199 1.445-.299 2.418-.299 2.92 0 .53.01 1.238.029 2.123.021 1.15.03 1.857.03 2.123.01.768-.005 1.77-.045 3.008-.06 1.445-.13 2.463-.209 3.053l-.328.133a7.77 7.77 0 0 1-.672-.045h-.656c-.13 0-.323-.029-.582-.088s-.453-.088-.582-.088c-.09 0-.185.043-.283.132l-.015 1.283c.049.147.243.235.581.265.13 0 .274-.014.433-.043a.53.53 0 0 1 .21-.045c.677-.059 1.214.442 1.611 1.504l-.045 1.682c-.328.441-.751.678-1.268.707-.061 0-.498-.029-1.314-.088a.281.281 0 0 0-.104-.045c-.12 0-.179.457-.179 1.371 0 .266.005.546.015.841.061.089.109.133.149.133.1 0 .246-.022.44-.066.193-.044.336-.066.425-.066 1.064 0 2.388.737 3.971 2.212l-.671 2.652zm-5.28-17.99c-.06-.089-.224-.133-.491-.133-.1 0-.254.015-.463.044h-.463c-.309 0-.505.178-.59.531-.084.354-.127.973-.127 1.857l.06.222c.179 0 .445-.089.799-.266s.61-.265.77-.265c.039 0 .169.059.388.176l.118-.133c.011-.324.016-.53.016-.619l-.017-1.414zm-.317-5.883l-.225-.221a1.383 1.383 0 0 1-.44.133c-.184.029-.435.133-.753.31-.229.206-.344.692-.344 1.46 0 .266.02.574.061.929a.31.31 0 0 0 .051.11.076.076 0 0 0 .053.022h.046c.457-.03 1.05-.206 1.775-.531l.029-.442-.179-.906a3.876 3.876 0 0 1-.074-.864zm3.965 6.016c-.169-.413-.508-.62-1.015-.62h-.358a.702.702 0 0 0-.231.066.665.665 0 0 1-.217.066c-.159 0-.373.074-.642.222-.129.177-.194.649-.194 1.415v.487c.598.059 1.488.235 2.672.53l.045-.354-.06-1.812zm-.159-5.219c-.219-.502-.727-.752-1.522-.752a.874.874 0 0 1-.269-.066.84.84 0 0 0-.269-.066c-.02 0-.12.015-.299.044-.01.354-.029.841-.06 1.46l.03.574c.537.06 1.338.311 2.402.753l-.013-1.947z"/><path d="M78.276 39.333c0 .147.01.339.03.575a136.5 136.5 0 0 0 .179 10.528c-.079 1.062-.169 1.888-.269 2.478v.664c-.188.265-.244.752-.164 1.459-.229.59-.617 1.298-1.164 2.124l-.27-.266-.208.088c-1.214-.767-2.06-1.15-2.537-1.15-.368 0-.91.029-1.627.088s-1.254.088-1.612.088c-1.164 0-2.518.649-4.06 1.946a115.28 115.28 0 0 0-.462-2.123v-.31c.229-1.386.383-3.273.462-5.662l.09-5.928c.01-.442.06-1.18.149-2.212.089-.944.129-1.681.119-2.212l-.015-.31-.254-.486-.225-1.902.075-1.593c.079-.295.197-.457.351-.486.154-.029.277-.147.366-.354.259 0 .453.266.582.796l.06.266c.06.236.125.354.194.354.109 0 .333-.133.671-.398.418-.266.667-.428.746-.487a10.72 10.72 0 0 1 1.762-.619 316.49 316.49 0 0 0-.149-2.743l.074-1.283.344-.708.373-.133c.109.531.269.885.478 1.062.129.059.323.265.582.619l.074 1.239-.268 1.991h.044a56.21 56.21 0 0 1 2.194.442c.807.236 1.532.531 2.18.884l.253-.752.418.089c.021.324.119.693.298 1.105.13.295.265.59.404.885 0 .383-.046.818-.135 1.305-.088.488-.133.835-.133 1.042zm-1.193 4.512c0-.207.005-.516.015-.929s.015-.723.015-.929c0-.147-.015-.915-.045-2.3-.328-.59-.895-.885-1.701-.885-.02 0-.109-.059-.269-.177-.069.03-.119.03-.148 0a35.024 35.024 0 0 1-2.016-.354 10.97 10.97 0 0 1-.507-.221c-.22-.089-.395-.133-.522-.133.01 0-.313.103-.971.31-.02 0-.05-.015-.09-.044-.04-.029-.064-.044-.074-.044-1.323 0-2.199.472-2.627 1.416l-.06.973.06.354c.139 0 .351-.104.635-.31.283-.206.499-.31.648-.31.06 0 .149.015.27.044.118.029.209.044.268.044.18 0 .45-.044.813-.133.364-.088.635-.133.814-.133.099 0 .277.044.537.133l.044-.354c.11.324.169.487.18.487a.303.303 0 0 0 .126-.044.319.319 0 0 1 .128-.044h.417c.189.039.329.059.419.059a1.6 1.6 0 0 0 .433-.088c.188-.059.333-.088.433-.088.13 0 .313.074.552.221l.224-.442c.27.088.617.31 1.045.664-.05 1.592-.303 2.492-.761 2.698-.238 0-.592.103-1.06.31l-.567-.177h-1.06c-.108 0-.271.02-.484.059a2.96 2.96 0 0 1-.471.059c-2.01 0-3.259.487-3.746 1.46l-.016.84c.18.207.359.31.538.31.01-.03.02-.044.03-.044l.164-.133c.169.118.248.177.238.177-.06 0 .135-.089.583-.266 1.153-.413 1.885-.561 2.192-.442.906.295 1.443.428 1.612.398l.224-.398c.101.324.318.486.657.486.1 0 .249-.037.448-.11.198-.074.348-.11.447-.11.149 0 .353.029.612.088.357.059.591.103.701.132l-.089.752.074.531c-.378 1.327-.777 2.123-1.194 2.389-.13-.029-.313.015-.552.133-1.573-.442-2.464-.664-2.672-.664-1.532 0-2.746.324-3.642.973l-.492-.221c-.08.501-.159 1.548-.239 3.141l.075.088c1.88-.973 3.925-1.459 6.134-1.459.188 0 .571.147 1.149.442l1.193.575c.1.059.462-.015 1.09-.221-.021-.472-.005-1.121.044-1.946-.01-.619-.049-1.71-.118-3.273a82.143 82.143 0 0 1-.088-3.32zM80.136 44.331a3.136 3.136 0 0 0-.328 1.018l-.418.265a10.482 10.482 0 0 1-.298-1.99c-.01-.089-.046-.811-.105-2.168l.135-.221c.02-.177.04-.31.06-.398s.224-.324.612-.708c.358-.354.587-.546.687-.575.05-.03.263-.044.642-.044a.615.615 0 0 0 .373-.133l.12.354c.02.147.029.472.029.973.01.059.03.147.06.266a4.787 4.787 0 0 1-.687 1.991c-.3.471-.593.928-.882 1.37zm2.194 4.91c-.04 1.032-.299 2.654-.776 4.866-.438 2.005-.657 3.672-.657 4.998l-.238.443c-.269 0-.45-.317-.545-.951-.094-.635-.181-1.261-.261-1.88-.01-.03-.06-.236-.149-.62a4.003 4.003 0 0 1-.119-.884 75.7 75.7 0 0 1 .626-3.008c.101-.472.358-1.327.777-2.566.417-1.238.701-2.013.851-2.322s.343-.464.581-.464c.021.266.03.457.03.575 0 .265-.021.59-.06.973-.04.383-.06.663-.06.84zm.552-15.748c-.059.207-.172.457-.336.752s-.385.62-.664.973c-.14.147-.407.31-.806.487-.329.118-.592.354-.791.708l-.193-.133c-.169-.826-.254-1.489-.254-1.991 0-.059.029-.561.09-1.504l-.061-.885c.239-.531.473-.796.701-.796.07 0 .154-.044.254-.133l.314.354.865-.31c.108-.029.313.236.611.796l.598-.088c.039.294.059.737.059 1.327-.149.001-.277.148-.387.443zm9.657 8.317c-.101.03-.225.147-.373.354-.149.207-.27.31-.359.31-.219 0-.554-.118-1.007-.354s-.804-.339-1.053-.31c-.417.03-.636.044-.656.044-1.016 0-2.592.324-4.73.973-.438.118-.72.383-.844.796-.125.413-.271.59-.44.531-.179-.413-.299-.988-.358-1.725-.01-.295-.074-.737-.193-1.327.039-.472.108-1.003.208-1.593.159-.383.474-.664.941-.84l.148.177c.587-1.858 1.492-4.542 2.716-8.051l-.029-.531c.02-.472.114-.796.284-.973.139-.147.283-.177.432-.088l.105-.177h.283c.03.472.175.958.433 1.46.269.59.403 1.135.403 1.637 0 1.121-.333 1.784-1 1.991-.518.973-.98 2.374-1.388 4.202.069-.059.129-.088.179-.088.021 0 .084.044.194.133l.343-.177.165.133c.01 0 .015.015.015.044.14-.03.637-.088 1.492-.177a15.975 15.975 0 0 1 1.492-.088c.021 0 .323.104.911.31a59.073 59.073 0 0 1-.255-1.637c-.128-.737-.263-1.165-.402-1.283l-.373-.796v-1.15c0-.029.015-.266.045-.708l.612-.442c.357.118.825.87 1.402 2.256.159.855.313 1.71.463 2.565.148.855.224 1.829.224 2.92 0 .088-.005.317-.015.686s-.015.698-.015.993zm.104 5.791l.061.486c-.279.529-.419 1.222-.419 2.077v3.534c.03.147.046.324.046.531 0 .265-.032.573-.098.927a5.047 5.047 0 0 0-.098.841c0 .147.011.31.031.486l-.27.706h-.134c-.349.561-.756.766-1.224.62-1.244-.472-2.075-.708-2.493-.708-2.199 0-3.722.679-4.567 2.034-.128-.53-.219-1.253-.268-2.167-.04-.824-.115-1.414-.224-1.768v-1.016c.248-.442.402-1.473.462-3.093.01-.147.029-.442.061-.885.029-.352.044-.647.044-.883s-.042-.59-.127-1.06c-.085-.472-.127-.826-.127-1.062 0-.411.065-.802.194-1.17s.269-.567.418-.597l.254.221c1.045-.824 2.313-1.237 3.806-1.237.786 0 1.243.015 1.373.044.1.029.309.118.627.265.258.118.467.177.626.177.061 0 .239-.015.538-.044.069-.619.313-1.002.731-1.15.06.442.159.855.299 1.238.179.47.298.81.358 1.016.099.383.184.826.253 1.325l-.133.312zm-1.626 1.46c-.876-.617-1.792-.925-2.746-.925-1.503 0-2.607.293-3.314.881-.068.029-.129.206-.179.529-.119.618-.179 1.854-.179 3.707 1.433-.56 2.527-.84 3.283-.84.278 0 1.353.147 3.224.442l-.089-3.794zM96.711 31.739c-.219.678-.437 1.371-.656 2.079-.299.943-.452 1.651-.463 2.123.368 1.858.646 3.377.836 4.557v1.813l-.045.973c-.179.147-.498.855-.954 2.124-.339.914-.578 1.732-.718 2.455-.139.722-.248 1.718-.328 2.986a908.18 908.18 0 0 0-.283 4.733c-.14 2.035-.328 3.42-.567 4.159-.298-.502-.447-1.533-.447-3.097 0-2.979.164-5.883.492-8.714.358-3.038.861-5.574 1.508-7.609-.03-.413-.189-1.18-.478-2.3-.09-.088-.175-.133-.255-.133-.377 0-.716.855-1.015 2.566-.328-.383-.513-.958-.552-1.725a51.444 51.444 0 0 0-.104-1.946c.01-.561.025-1.121.045-1.681.03-.678.148-1.062.358-1.15l.224.221c.219-.354.502-.885.851-1.592.14-.295.518-.833 1.135-1.615.616-.781.99-1.172 1.118-1.172h.628a10.328 10.328 0 0 1-.33 1.945zm4.423 10.882c.01.118.015.221.015.31 0 .236-.01.62-.028 1.15s-.028.929-.028 1.194c0 .118.02.943.057 2.477.101 0 .25.044.448.133.527.029.807.061.836.09.258.118.503.547.731 1.287-.079.533-.249 1.333-.508 2.398-.149.147-.289.221-.417.221-.101 0-.252-.044-.456-.133s-.36-.133-.47-.133c-.06 0-.125.03-.193.088-.047.472-.07 1.637-.07 3.495 0 1.74-.201 3.2-.6 4.38l-.285-.576c-.091-.736-.161-2.698-.21-5.883 0-.295-.01-.619-.03-.973-.01-.029-.109-.118-.299-.265-.547.147-1.005.501-1.373 1.062a15.67 15.67 0 0 1-.268-2.925c0-.562.119-1.154.358-1.777l.253.133c.05.059.109.104.179.133.07 0 .463-.147 1.18-.442 0-.945.019-2.096.054-3.452-.01-.59-.015-1.121-.015-1.593 0-.265.005-.472.015-.619-.348.767-.81 2.022-1.388 3.762-.576 1.742-1.02 2.967-1.328 3.677-.537 1.244-1.089 2.102-1.656 2.573l-.061-.664c-.118-.059-.323-.488-.611-1.289a1.203 1.203 0 0 0-.254-.442c.11-.562.215-.962.313-1.2.169-.385.44-.732.813-1.042.374-.312.64-.614.799-.909.846-1.592 1.776-4.158 2.791-7.697-.816.029-1.582.648-2.298 1.858a15.717 15.717 0 0 1-.27-2.964c0-.737.064-1.298.194-1.681.487-.324.976-.634 1.463-.929.587-.354 1.089-.516 1.508-.487.01-.413.044-1.018.104-1.813l-.283-2.167c0-.561.069-1.018.209-1.372.04 0 .117-.081.232-.243s.193-.243.232-.243c.159 0 .345.294.555.884l.479 1.416.029 1.99c-.14.177-.225.442-.254.796l.029.354 2.313.221c.04 0 .09-.022.149-.066.06-.044.105-.066.135-.066.498 0 .775.015.836.044.238.118.492.516.761 1.194l-.089 1.15c-.13.266-.27.664-.419 1.194-.208.737-.338 1.18-.388 1.327a33.16 33.16 0 0 1-1.328-.575 5.619 5.619 0 0 0-1.463-.177c-.06 0-.114.029-.164.088.338 1.268.83 2.698 1.478 4.291.687 1.681 1.254 2.802 1.701 3.362.169.207.537.516 1.105.929.467.326.83.724 1.089 1.198l.254 1.11c-.239.591-.622 1.303-1.149 2.13-.557.855-.96 1.342-1.209 1.46-.428-.649-.875-1.742-1.343-3.279-.717-2.395-1.105-3.666-1.165-3.813-.308-.795-.75-2.019-1.327-3.67z"/><path d="M108.93 40.453c-.06.501-.184 1.209-.373 2.124-.1.324-.381.877-.844 1.659-.462.781-.783 1.246-.962 1.394-.12-.501-.259-1.327-.418-2.478.06-.826.109-1.386.149-1.681l.283-.796.358.398c.318-.383.642-.752.97-1.106.329-.354.677-.531 1.045-.531-.098.413-.168.752-.208 1.017zm.597 8.582c-.061.472-.162 1.158-.307 2.057s-.484 2.47-1.021 4.711c-.081.59-.245 1.386-.493 2.389-.061.148-.149.384-.269.708-.069.235-.125.634-.165 1.194l-.388-2.389.03-.619a3.343 3.343 0 0 0-.074-.487l-.09-.221c.07-.649.095-1.15.075-1.504l.372-2.433c.259 0 .643-.855 1.15-2.565.079-.266.502-1.357 1.268-3.273l.328.442a84.67 84.67 0 0 1-.416 1.99zm-.254-15.262c-.149.177-.448.324-.896.442-.289.236-.728.516-1.313.84l-.254-1.637c.079-.885.129-1.401.148-1.548.091-.619.21-.914.358-.884.309.088.458.132.448.132.149 0 .371-.022.665-.066.292-.044.514-.066.663-.066.358 0 .677.265.956.796-.248 1.033-.506 1.697-.775 1.991zm10.522 17.297c-.208-.561-.338-1.283-.388-2.167-.01-.796-.025-1.593-.045-2.389a8.32 8.32 0 0 0-.09-1.15l-.418.177c-.518-.442-1.447-.899-2.791-1.371-.059-.088-.129-.133-.208-.133-.22 0-.329.28-.329.84 0 .059.006.133.016.221.299.089.507.163.627.221.268.177.462.413.581.708.249-.088.483-.295.702-.619.208.295.348.501.418.619.139.295.238.634.298 1.018a387.78 387.78 0 0 1-.134 2.389l.089 3.495c-.059.295-.116.789-.171 1.482-.056.693-.147 1.261-.277 1.703-.297-.531-.472-1.342-.521-2.433l-.06-2.964c-.03-.619-.11-1.062-.238-1.327-.09-.118-.22-.295-.389-.531-.238-.324-.488-.487-.746-.487-.219 0-.354.163-.402.487-.031.207-.041.561-.031 1.062l.075 3.185c0 3.509-.232 6.134-.699 7.874-.13-.266-.215-.494-.26-.686s-.112-.818-.2-1.88c-.09-1.062-.135-1.726-.135-1.991 0-.177.013-.457.035-.841.023-.383.035-.678.035-.884l-.045-6.105-.134-.31c-.279.147-.492.28-.643.398a1.424 1.424 0 0 0-.567.796c-.01.03-.064.442-.164 1.239-.148 1.209-.253 1.976-.313 2.3-.13.767-.299 1.401-.508 1.902-.179-.354-.254-.826-.225-1.416.041-.589.101-1.607.18-3.052.09-1.592.132-2.536.127-2.831s.017-.708.067-1.238c.05-.295.158-.472.327-.531.101.236.245.472.434.708a35.34 35.34 0 0 0 1.418-1.327c-.03-.59-.119-.885-.269-.885-.259 0-.627.17-1.104.509-.479.339-.836.509-1.074.509s-.403.383-.493 1.15c-.089.855-.174 1.711-.253 2.566-.12.914-.299 1.637-.538 2.167l-.283-.31c0-.442.045-1.445.135-3.008.069-1.416.094-2.286.074-2.61l-.105-1.727c-.02-.267.014-.615.098-1.045.085-.429.177-.719.276-.868.109.061.244.238.403.535.219.355.353.579.402.667 1.254-1.155 2.826-1.734 4.717-1.734.08 0 .184.03.313.088.169.061.272.105.313.135.795.177 1.219.28 1.268.31.488.179.906.431 1.255.756.118-.771.243-1.156.373-1.156.388 0 .631.623.73 1.867.05.593.069 1.687.06 3.279-.01.915 0 1.548.03 1.902-.118 1.326-.327 2.24-.626 2.742zm.089-14.333c-.198 0-.479-.229-.843-.686-.362-.457-.639-.686-.827-.686-.031.03-.075.458-.135 1.283-.01.147-.025.295-.045.442-.061.413-.199 1.017-.418 1.813-.248.944-.433 1.416-.553 1.416-.069 0-.139-.044-.208-.133-1.015-.118-1.607-.177-1.776-.177-.985 0-1.99.472-3.016 1.416-.049-.236-.102-.486-.156-.752s-.077-.516-.067-.752l.135-3.008-.06-.619-.135-.133-1.313.752-.328-1.725c0-.973.149-1.622.448-1.946l.298.398c.09-.118.358-.295.806-.531l-.015-1.018c.09-.826.259-1.342.508-1.548.129.265.333.619.612 1.062.179.207.263.501.253.885l.104.044c.319-.029.802-.103 1.447-.221.01-.177.016-.295.016-.354 0-1.475-.03-2.315-.09-2.521.079-.708.229-1.194.448-1.46l.687 1.327c-.01.088-.042.317-.098.686a6.109 6.109 0 0 0-.081.818c0 .678.015 1.106.044 1.283l1.688-.132c.059-.472.123-.944.193-1.416.069-.472.229-.737.478-.796.021.207.104.523.254.951.149.427.239.936.269 1.526.587.413 1.493.664 2.717.752-.41 2.507-.822 3.76-1.241 3.76zm-5.367-1.504a.96.96 0 0 0-.403-.088c-.258 0-.626.191-1.104.575l-.134 2.256.075.088 1.462-.796c.13-.324.193-.781.193-1.371-.001-.325-.03-.546-.089-.664zm2.791-.088c-.18-.118-.467-.177-.866-.177-.277 0-.557.03-.836.088-.108.266-.164.664-.164 1.194v.442c.051.177.14.266.27.266l1.522.088c.079-.59.119-1.032.119-1.327 0-.383-.016-.574-.045-.574zM120.714 58.221a13.986 13.986 0 0 0-.343-.354c-.12-.118-.219-.31-.299-.575l.254-1.902c.05-.354.175-.693.373-1.018l.478-.708c.479-.826.812-2.138 1-3.937l-.06-1.239.193-.442.508.354c.09.236.135.634.135 1.194 0 1.858-.209 3.671-.627 5.441-.448 1.918-.985 2.98-1.612 3.186zm5.234-22.029c-.11.088-.274.25-.493.486-.159.207-.388.855-.687 1.946.03.295.12.472.27.531l.268-.177c.04.147.219.531.537 1.15.25.472.373 1.105.373 1.902 0 .059-.02.369-.059.929-.09.206-.214.398-.373.575a4.684 4.684 0 0 0-.373.442c-.17.295-.349.767-.537 1.416-.08.147-.181.413-.299.796-.03.118-.065.604-.105 1.46-.039.855-.059 1.43-.059 1.725 0 .501.01 1.261.029 2.278.02 1.017.029 1.792.029 2.322 0 2.595-.17 4.748-.509 6.459-.191-.266-.341-.812-.45-1.637a13.866 13.866 0 0 1-.105-1.858c.021-.62.03-.899.03-.841l-.074-3.539c0-.383.007-.98.021-1.792s.022-1.423.022-1.836c0-.088-.01-.59-.029-1.504-.558-1.18-1.1-1.77-1.627-1.77l-.344-.487-.059-2.035.208-1.327c.249-.059.498-.413.746-1.062.408-1.062.622-1.607.642-1.637-.159-.678-.468-1.121-.925-1.327l-.478.796c-.02-1.534-.029-2.478-.029-2.831 0-.561.039-.944.118-1.15.339-.708.677-1.43 1.015-2.167.448-.944.728-1.799.836-2.566l.542-1.283c.09.177.219.339.39.487.129.147.263.28.402.398.05 1.15.193 2.02.434 2.61.02.059.243.457.671 1.194.269.472.438 1.047.508 1.726-.149.652-.308 1.05-.477 1.198zm-1.667-3.584c-.258.089-.647.915-1.164 2.478.039.118.149.339.328.664.199.413.333.722.403.929.119-.207.298-.545.537-1.018.021-.059.145-.383.373-.973a12.32 12.32 0 0 0-.477-2.08zm-.343 7.83c-.149.324-.298.634-.447.929-.18.383-.303.782-.373 1.194.159.354.403.737.731 1.15l.553-1.814a9.536 9.536 0 0 0-.18-.885c-.1-.352-.194-.544-.284-.574zm1.582 14.465l-.313.487c-.158-.914-.248-2.124-.268-3.627-.011-1.858-.04-3.067-.091-3.627l.195-.575.746.531.104.885c-.09.648-.157 1.644-.202 2.986-.044 1.341-.101 2.321-.171 2.94zm8.543-14.288c0 1.475.028 3.687.084 6.635.057 2.949.085 5.161.085 6.636 0 2.3-.171 4.143-.511 5.53l-.284-.266c-.299-2.448-.449-6.636-.449-12.563-.079 0-.199.111-.359.332-.159.221-.284.332-.373.332-.428 0-.859-.376-1.294-1.128-.432-.752-.748-1.673-.948-2.765l-.701 1.991c-.279.737-.553 1.253-.821 1.548-.209.147-.478.472-.807.973-.029 1.15-.164 3.701-.402 7.653-.09 1.681-.273 2.801-.553 3.362l-.433.266c.021-3.097.089-6.164.209-9.201.169-4.217.254-7.107.254-8.67 0-.295-.064-.678-.193-1.15l-.21-3.672c.11-.383.323-.575.642-.575.021 0 .199.133.537.398.349-.354.688-.62 1.016-.796.239-.029.598-.133 1.074-.31l.061-.796c0-.295-.07-.745-.209-1.349-.14-.604-.21-1.084-.21-1.438 0-.147.005-.295.015-.442-.02-.501.026-.855.135-1.062.02-.029.14-.147.358-.354.062.147.279.265.66.354.34.059.55.561.629 1.504l-.045.398c-.07.236-.159.59-.269 1.062-.04.236-.06.678-.06 1.327v.354l.015.044c-.029-.03.164-.044.582-.044.646 0 1.264.25 1.851.752l.418-.398c.089.147.209.295.358.442.338.324.532.84.582 1.548.01.265.01.767 0 1.504-.291.206-.434.884-.434 2.034zm-4.693-1.769c-.447.118-.955.369-1.521.752-.01.089-.021.295-.03.62-.01.324-.054.693-.135 1.106a4.591 4.591 0 0 0-.059.354c.01.089.024.192.044.31l-.09 2.167.031.31c.983-.973 1.605-2.816 1.865-5.53l-.105-.089zm3.693 1.047c-.229-.501-.548-.855-.956-1.062-.338-.118-.682-.236-1.029-.354-.089.03-.185.059-.284.089-.139.059-.209.177-.209.354 0 1.416.214 2.507.643 3.273.378.678.831 1.018 1.358 1.018.159 0 .323-.029.492-.088 0-.325.015-.782.045-1.372l-.06-1.858z"/><path fill="#EC6800" d="M139.021 34.54c.317.059.795.221 1.433.487l.015-.044c.049-.118.134-.28.254-.486.119.147.293.486.522 1.017-.031.531-.046 1.726-.046 3.583 0 1.386-.357 2.079-1.074 2.079h-.388c.328.531.736.929 1.224 1.194l.015.398c.01.561-.069 1.054-.238 1.482s-.348.642-.538.642c-.327 0-.756-.634-1.283-1.902-.02.177-.042.568-.067 1.172a7.71 7.71 0 0 1-.305 1.836c-.22-.442-.344-.988-.373-1.637-.031-.649-.056-1.298-.075-1.947-.17.059-.339.28-.508.664l-.448.973c-1.233 2.183-2.004 3.273-2.313 3.273-.13-.029-.309-.074-.537-.132-.299-.089-.448-.472-.448-1.15 0-.56.095-.973.284-1.239.229-.088.547-.221.954-.398.18-.088.463-.486.851-1.194.389-.708.662-1.327.821-1.858h-.029c-.101 0-.241.14-.426.42-.184.28-.311.42-.381.42-.108 0-.211-.118-.306-.354a2.247 2.247 0 0 1-.142-.841c0-.088.01-.177.03-.265.049-1.681.079-2.404.089-2.167 0-.03-.01-.177-.03-.442l-.044-.487c-.03-.472-.045-.796-.045-.973 0-.207.015-.472.045-.796.219.03.604-.155 1.156-.553.552-.398.988-.612 1.306-.642l.061-.885a.414.414 0 0 0-.179-.044c-.081 0-.274.088-.583.265a7.692 7.692 0 0 0-.775.221c-.159.059-.394.457-.701 1.194-.22-.265-.304-.752-.255-1.459l.18-2.654.433.486c.667-.413 1.308-.693 1.925-.84-.02-.207-.073-.339-.164-.398 0-1.121.085-1.858.255-2.212l.655.708c.169.236.279.885.329 1.946.129.118.264.162.403.133a55.84 55.84 0 0 1 1.298-.177c.318 0 .522.354.612 1.062-.14.62-.354 1.018-.643 1.195-.388.236-.627.427-.716.575l-.851-.133c-.12 0-.199.074-.238.221a.479.479 0 0 0 0 .177v.486zm6.765 24.669c.031 0-.248-.147-.836-.442-1.373-.737-2.602-1.106-3.686-1.106-1.443 0-2.434.148-2.971.443a8.253 8.253 0 0 1-.969.486c-.18.059-.438.191-.777.398-.179.146-.288.486-.328 1.018a.582.582 0 0 0-.253-.089c-.061 0-.255.162-.583.486l-.253-.177c-.22-1.062-.328-1.917-.328-2.566 0-1.034.417-1.714 1.253-2.04l.358.4c.208-.356.502-.651.88-.887.318-.177.632-.369.941-.577v-1.773l-.314-.886c.01-.68.091-1.213.238-1.596.2 0 .483.132.852.398l.313 1.463a4.238 4.238 0 0 0-.164 1.242c0 .236.005.501.015.796.178.09.372.105.579.044.14-.03.392-.088.759-.177a8.59 8.59 0 0 0 .03-.486V49.59l-.163-.442-.075-.442a.97.97 0 0 0-.239-.09.608.608 0 0 0-.254.09.604.604 0 0 1-.224.088c-.468.088-.716.133-.747.133-.308.147-.532.442-.67.886l-.508.31c-.279-1.211-.418-2.335-.418-3.37.059-.355.159-.754.298-1.196.17.089.259.133.269.133.051.207.125.369.225.487.188 0 .532-.104 1.029-.31.627-.266.99-.415 1.09-.444.629-.177 1.133-.266 1.512-.266.13 0 .319.015.567.044.249.029.438.044.567.044l.866-.177c.846-.147 1.328.564 1.446 2.132-.526.741-1.373 1.112-2.537 1.112-.039 0-.253-.03-.641-.088-.249.56-.373 1.047-.373 1.459 0 .177.015.28.045.31h.179c.258-.059.944-.177 2.06-.354.209-.029.402.118.582.442.219.384.328.915.328 1.593-.129.295-.259.516-.388.664-.209.207-.662.369-1.358.486-.935.118-1.423.177-1.463.177-.06.147-.089.516-.089 1.106l.119.132c.397-.118.606-.177.626-.177.479 0 1.324.088 2.538.267 1.085.177 1.945.236 2.581.177.021.236.031.415.031.533 0 .652-.21 1.509-.627 2.573-.417 1.064-.73 1.597-.94 1.597zm-7.779-21.867c-.021-.059-.061-.088-.12-.088-.555 0-1.021.25-1.397.752-.07.088-.105.31-.105.664 0 .147.03.413.09.796l1.473-.752c.039-.266.061-.546.061-.841v-.531zm2.436.088l-.029-.044c-.497-.147-.762-.221-.791-.221-.04 0-.244.044-.612.132-.03.147-.04.325-.03.531v.575c.07-.029.194-.044.373-.044h.374c.248 0 .503.088.761.265l.015-.398c-.011-.176-.03-.442-.061-.796zm6.353 8.936c-.268 0-1.303-1.637-3.104-4.91-.199.177-.498.679-.896 1.504-.567 1.209-.865 1.828-.896 1.858-.09-.177-.293-.354-.612-.531-.08-.029-.164-.103-.254-.221v-1.062c.707-.737 1.344-1.813 1.911-3.229-.061-.295-.239-.442-.538-.442-.118-.324-.179-.723-.179-1.194 0-.177.015-.339.045-.487s.09-.28.18-.398c.039-.059.069-.192.089-.398.269.207.433.339.492.398.13.118.274.354.434.708.079.207.135.31.164.31.01 0 .024-.015.045-.044l1.134-2.919.09.354c.02 0 .049-.015.09-.044h.089c.08 0 .172.177.276.531s.157.649.157.885c0 .118-.005.221-.015.31a2.33 2.33 0 0 1-.554.885c-.179.177-.323.59-.432 1.239 1.393 2.005 2.557 3.008 3.491 3.008l.553-.177a9.153 9.153 0 0 1-.746 2.72c-.396.896-.735 1.346-1.014 1.346zm-.925-11.148h-.449c-1.233 0-2.039.236-2.417.708-.159.383-.448.855-.865 1.416-.199.118-.438.339-.717.664a3.037 3.037 0 0 1-.21-.84l.061-.221c.04-.561.164-1.106.373-1.637.189-.442.373-.87.552-1.283.13-.324.324-1.268.583-2.831L142.647 30l.373-1.017c.397.088.647.191.746.31.249.295.384.899.403 1.813-.188.383-.299.62-.328.708-.101.265-.159.619-.179 1.062l.059.044c.866-.472 1.751-.708 2.657-.708.388 0 .657.472.807 1.416-.249 1.06-.686 1.59-1.314 1.59z"/><path d="M152.348 50.214c-.966-.324-1.513-.486-1.643-.486-.739 0-1.676.708-2.811 2.123l-.224-.575v-.885c.07-.561.209-1.268.418-2.124.199-.118.537-.442 1.016-.973.417-.472.761-.737 1.029-.796.029-.236.045-.811.045-1.725 0-.855-.014-1.371-.04-1.548-.527-.029-1.056.31-1.583 1.018-.287-.088-.432-.604-.432-1.548 0-.501.125-1.356.373-2.565.208 0 .478-.104.806-.31.397-.265.667-.413.807-.442l.06-.442v-.088c0-1.268-.101-2.285-.299-3.052a.656.656 0 0 1-.187-.044.63.63 0 0 0-.187-.044c-.159 0-.32.199-.485.597-.164.398-.312.597-.44.597l-.104-.044c-.169-.796-.254-1.386-.254-1.769 0-.118.005-.251.015-.398a5.962 5.962 0 0 1-.029-.575c0-.266.045-.604.135-1.018.119-.531.184-.87.193-1.018l.299-.354c.079.413.194.619.344.619.029 0 .691-.192 1.984-.575-.02.029.16.066.537.111.378.044.633.11.761.199.229.177.458.531.687 1.062-.059 1.15-.253 1.814-.581 1.991-.159 0-.373.104-.643.31-.208-.059-.497.029-.865.265-.089.295-.135.767-.135 1.416v1.062c0 .472.046.87.135 1.194.607 0 1.055.369 1.344 1.106.01.207.015.369.015.487 0 .767-.115 1.268-.344 1.504-.119.118-.338.177-.656.177-.349 0-.522.782-.522 2.345 0 .266.005.575.015.929.299.089.717.251 1.255.487.687.324 1.029 1.018 1.029 2.079 0 .59-.1 1.047-.299 1.372-.161.289-.34.407-.539.348zm9.323 7.55l-.821 1.195-1.821-1.77c-.656-.59-1.299-.885-1.925-.885-.727 0-1.388.177-1.985.531a68.23 68.23 0 0 0-.91.266c-.209.088-.569.45-1.082 1.083-.512.635-.898 1.173-1.156 1.615-.109-.236-.18-.545-.21-.929a49.643 49.643 0 0 1-.074-1.15 1.36 1.36 0 0 0-.09-.398c.041-1.003.189-1.888.448-2.654.189.03.383-.147.582-.531l.313.398c.418-.501.995-.796 1.731-.885.855-.118 1.442-.295 1.762-.531l.044-.31-.06-1.77c-.08-.177-.184-.28-.313-.31-.169 0-.278-.029-.328-.088-.299.118-.607.258-.926.42-.317.162-.582.553-.79 1.172l-.389-.486c-.07-.295-.104-.752-.104-1.372v-.442l.373-1.813c.588-.56 1.423-1.018 2.508-1.371v-.929c0-.531-.11-.796-.329-.796.05 0-.169.104-.656.31-.289.118-.577.25-.865.398-.289.147-.567.457-.836.929a4.428 4.428 0 0 1-.27-1.105 55.029 55.029 0 0 0-.134-1.194c.069-.649.124-1.475.164-2.478.069-1.592.104-2.418.104-2.477a16.181 16.181 0 0 1-.045-2.035c.03-.354.069-1.062.12-2.123-.01-.088-.061-.457-.149-1.106-.08-.472-.12-.826-.12-1.062 0-.207.05-.612.149-1.217.101-.604.18-.907.238-.907.24 0 .98-.191 2.224-.575.39-.118 1.065-.177 2.03-.177.259 0 .503.029.732.088.089.03.253.118.492.266.209.147.373.221.492.221l.627-.221.463.84.149.796c-.199 1.445-.299 2.418-.299 2.919 0 .531.01 1.239.029 2.124.02 1.15.03 1.858.03 2.123.01.767-.006 1.77-.045 3.008-.06 1.445-.13 2.462-.209 3.052l-.328.133c-.149 0-.373-.015-.672-.044h-.656c-.13 0-.324-.029-.582-.088a2.883 2.883 0 0 0-.583-.088c-.089 0-.184.044-.282.132l-.016 1.283c.05.147.244.236.582.265.13 0 .274-.015.433-.044.07-.03.14-.044.209-.044.677-.059 1.214.442 1.612 1.504l-.045 1.681c-.328.442-.751.678-1.269.708-.06 0-.497-.029-1.313-.088a.28.28 0 0 0-.104-.044c-.12 0-.18.457-.18 1.371 0 .266.005.545.016.84.06.089.109.133.149.133.1 0 .246-.022.439-.066.194-.044.337-.066.426-.066 1.064 0 2.388.737 3.971 2.212l-.67 2.653zm-5.279-17.989c-.06-.088-.224-.133-.491-.133a3.76 3.76 0 0 0-.464.044h-.463c-.309 0-.504.177-.589.531-.084.354-.127.973-.127 1.858l.06.221c.179 0 .445-.088.798-.266.354-.177.61-.265.77-.265.04 0 .17.059.388.177l.119-.133c.011-.324.016-.531.016-.619s-.007-.56-.017-1.415zm-.318-5.883l-.225-.221a1.385 1.385 0 0 1-.44.132c-.184.03-.436.133-.754.31-.229.206-.343.693-.343 1.459 0 .266.02.575.061.929a.32.32 0 0 0 .051.11.074.074 0 0 0 .053.022h.046c.457-.03 1.049-.207 1.775-.531l.029-.442c-.06-.295-.119-.597-.179-.907s-.084-.596-.074-.861zm3.965 6.016c-.169-.413-.508-.62-1.016-.62h-.357a.678.678 0 0 0-.231.066.707.707 0 0 1-.217.066c-.159 0-.373.074-.643.221-.128.177-.193.649-.193 1.416v.487c.598.059 1.487.236 2.672.531l.045-.354-.06-1.813zm-.159-5.22c-.219-.501-.727-.752-1.522-.752a.874.874 0 0 1-.269-.066.874.874 0 0 0-.269-.066c-.021 0-.12.015-.299.044-.01.354-.03.84-.06 1.46l.029.575c.537.059 1.339.31 2.403.752l-.013-1.947z"/><linearGradient id="f" gradientUnits="userSpaceOnUse" x1="87.082" y1="43.013" x2="142.388" y2="98.318"><stop offset="0" stop-color="#ead18f"/><stop offset=".076" stop-color="#e1c477"/><stop offset=".221" stop-color="#d1af4e"/><stop offset=".335" stop-color="#c8a235"/><stop offset=".405" stop-color="#c49d2c"/><stop offset=".559" stop-color="#d4b35c"/><stop offset=".766" stop-color="#e7cd97"/><stop offset=".919" stop-color="#f3debb"/><stop offset="1" stop-color="#f8e4c9"/></linearGradient><path opacity=".8" fill="url(#f)" d="M65.929 64.165h97.611v13H65.929z"/><path fill="#ABABAB" d="M76.151 92.108c-.475.58-.959.939-1.45 1.07-.222.053-.563.156-1.022.314-.224.133-.563.279-1.024.438-.57.078-.966.143-1.188.197a3.755 3.755 0 0 0-1.167.475c-.127-.264-.229-.672-.309-1.229-.063-.367-.166-.617-.309-.75a5.393 5.393 0 0 1-.024-.473c0-.557.107-1.068.321-1.545.213-.475.486-.713.82-.713.968.053 2.268.053 3.901 0 .665-.025 1.116.029 1.355.16.43.209.762.711.999 1.504-.33.052-.633.238-.903.552zm8.541 2.178c-4.347 7.227-8.564 11.775-12.656 13.648l-1.285-1.463a5.135 5.135 0 0 1-.071-.793c0-.525.247-1.502.737-2.93.715-.34 1.437-.684 2.165-1.025a16.637 16.637 0 0 0 2.116-1.266c1.318-1.004 3.253-3.164 5.805-6.49.303-.393 1.112-1.646 2.428-3.756.968-1.559 1.84-2.664 2.615-3.324l.572.277c-.129 2.269-.935 4.642-2.426 7.122zm-6.21-9.426c-.301.553-.546.803-.736.752l-4.067-.91c-.063 0-.184.059-.358.178s-.309.176-.403.176l-.191-.039-.38-1.936c-.063-.236-.032-.58.095-1.027.253-.92.816-1.383 1.689-1.383.206 0 .451.107.738.316.379.238.625.369.737.396.412.129 1.068.379 1.973.748.92.449 1.508 1.135 1.761 2.057-.318 0-.603.223-.858.672zM111.31 105.761l-1.046.91c-1.284-.688-2.655-2.084-4.115-4.197a1112.302 1112.302 0 0 1-3.593-5.457c-.237.264-1.545 1.977-3.926 5.143-1.537 2.031-2.979 3.426-4.328 4.191-.063-.156-.198-.289-.404-.395-.365-.156-.729-.33-1.094-.514-.492-.213-.817-.434-.976-.672-.049-.08-.166-.555-.357-1.426.222-.738.65-1.227 1.284-1.461.54-.135 1.072-.285 1.594-.457.524-.17 1.261-.783 2.212-1.84 2.094-2.27 3.625-4.234 4.592-5.895.73-1.24 1.896-3.693 3.498-7.357l-.405-.16c-.572.133-1.261.238-2.069.316-.744.131-1.856.344-3.332.635l-1.402.234c-.522.16-.944.479-1.261.953l-.355-.277c0-1.504-.04-2.453-.121-2.85.034-.818.311-1.439.833-1.859.145-.105.627-.355 1.452-.75.253.633.443.932.572.91l5.778-.99.237-.041c.256 0 .524.105.81.316.031-.027.261-.383.69-1.068.269-.42.522-.633.762-.633.095 0 .205.027.332.082.095.314.376.646.845.986.467.344.812.764 1.035 1.268-.999 1.662-1.65 2.859-1.951 3.598a92.82 92.82 0 0 1-1.142 3.049c-.126.287-.508.988-1.142 2.098-.508.896-.825 1.633-.951 2.213a205.597 205.597 0 0 1 2.639 3.207c.937 1.053 1.959 1.764 3.069 2.135 1.001.211 2.498.672 4.494 1.385-.253.793-.724 1.613-1.414 2.471-.689.859-1.138 1.591-1.344 2.199zM136.453 93.931c-.208.053-.479.305-.821.752-.34.451-.652.674-.939.674-.172 0-.586-.17-1.236-.514-.76-.422-1.223-.66-1.379-.713-.303.025-.746-.014-1.332-.117l-.429.154-.81-.352c-.174.289-.348 1.107-.521 2.449l-.287 1.82c-.127.686-.275 1.252-.451 1.701a16.887 16.887 0 0 1-2.069 3.676c-.92 1.238-1.809 2.059-2.665 2.455-1.458.711-2.528 1.066-3.211 1.066-.237 0-.896-.092-1.975-.279l-.332-1.225c.045-1.582.461-2.584 1.236-3.008.318-.158 1.086-.236 2.309-.236.507 0 1.063-.117 1.664-.355.762-.316 1.585-1.043 2.473-2.178.999-1.291 1.5-2.48 1.5-3.561 0-.08-.008-.199-.025-.355l-.046-.318c-.332-.42-.58-1.029-.738-1.82l-.332-.277c-.475-.027-1.182-.012-2.117.041-.35.051-1.157.287-2.428.711-1.315.449-2.085.768-2.307.949-.222.186-.411.516-.571.99l-.404.238-.548-.08-.216-1.305c.143-1.027.271-1.77.385-2.217.189-.818.45-1.424.783-1.82a272.57 272.57 0 0 1 5.496-1.107c.664-.107 1.634-.158 2.902-.158 1.283 0 3.956.289 8.016.871.032 0 .08-.029.143-.08l.238-.078.237.078c.047.027.103.051.168.08l1.165-.158.619.434c-.097.475-.289 1.039-.573 1.686-.287.646-.477 1.142-.572 1.486zm-2.902-9.971c-.077 1.109-.696 1.662-1.854 1.662-.285 0-.698-.039-1.236-.119-.542-.078-.946-.119-1.215-.119-.127 0-.293-.025-.501-.078a3.85 3.85 0 0 1-.498-.119 10.488 10.488 0 0 0-1.595-.117c-.237 0-.952.09-2.139.275-1.191.184-1.834.316-1.927.396-.016 0-.109.119-.275.355-.166.238-.305.346-.417.316l-.499-.197-.401-1.504c.091-1.396.457-2.229 1.092-2.492.254 0 .634-.068 1.142-.197 1.238-.555 2.681-.779 4.329-.674 1.984.131 3.005.199 3.068.199 1.144.209 2.127.686 2.952 1.424 0 .239-.011.567-.026.989zM159.195 105.593c-.222 0-.517-.08-.881-.236-.411-.16-.698-.266-.854-.318-.366-.053-1.636-.197-3.807-.436-1.46-.156-2.277-.236-2.451-.236-3.425 0-6.271 1.055-8.541 3.164-.602-.869-.903-2.293-.903-4.271 0-.264.136-.582.407-.949.425-.213.758-.305.997-.279.556-.473 1.076-1.387 1.571-2.732.377-1.107.759-2.215 1.139-3.322.337-.818.817-2.057 1.452-3.719.192-.605.483-1.504.881-2.691.364-1.027.617-1.805.76-2.334.271-.869.471-1.688.596-2.453l-.046-.117a1.512 1.512 0 0 1-.239-.791c0-.818.253-1.451.76-1.898.477-.264.943-.527 1.402-.793.416.291.993.66 1.737 1.109.224.342.336.898.336 1.662 0 .422-.199.91-.598 1.463-.3.396-.603.793-.903 1.186-.997 1.77-2.226 4.844-3.688 9.219-.33.791-.664 1.582-.997 2.373-.411 1.004-.635 1.848-.666 2.533 1.204-.342 2.656-.514 4.354-.514 2.744 0 4.694.213 5.852.633-.269-1.32-.569-2.203-.904-2.652-.38-.5-.627-.83-.737-.988a11.444 11.444 0 0 1-.594-1.305c.158-1.135.586-1.805 1.282-2.02.239.107.581.305 1.024.594.016 0 .253.344.712 1.029.208.238.517.633.929 1.188.318.475.706 1.529 1.165 3.166.382 1.318.675 2.492.882 3.523a4.122 4.122 0 0 1-.524 1.523c-.27.456-.575.689-.905.689z"/><path d="M75.339 90.759c-.476.58-.958.936-1.45 1.068-.222.053-.564.158-1.023.316-.222.131-.562.277-1.022.436-.57.08-.968.146-1.189.197a3.79 3.79 0 0 0-1.165.477c-.129-.264-.231-.674-.311-1.227-.062-.369-.164-.621-.309-.752a6.724 6.724 0 0 1-.023-.475c0-.557.106-1.068.32-1.545.216-.473.488-.711.821-.711.967.051 2.269.051 3.901 0 .666-.025 1.119.025 1.354.158.43.213.762.713 1.002 1.504-.335.052-.636.237-.906.554zm8.54 2.176c-4.344 7.227-8.564 11.777-12.653 13.65l-1.286-1.465a4.856 4.856 0 0 1-.071-.791c0-.529.245-1.504.738-2.926.712-.346 1.435-.686 2.164-1.031a16.731 16.731 0 0 0 2.117-1.264c1.315-1.002 3.25-3.166 5.805-6.49.301-.396 1.109-1.648 2.425-3.758.968-1.555 1.841-2.662 2.618-3.324l.569.277c-.126 2.268-.934 4.641-2.426 7.122zm-6.208-9.426c-.301.555-.546.805-.737.75l-4.068-.908c-.063 0-.182.059-.355.178-.177.119-.311.178-.406.178l-.189-.039-.38-1.936c-.065-.238-.031-.578.095-1.027.253-.922.817-1.381 1.689-1.381.206 0 .451.104.736.314.38.236.627.367.738.395.411.131 1.07.381 1.974.748.92.449 1.508 1.135 1.761 2.057-.32-.001-.604.222-.858.671zM110.499 104.409l-1.047.908c-1.286-.686-2.657-2.082-4.117-4.193a1044.102 1044.102 0 0 1-3.591-5.459c-.237.264-1.547 1.979-3.925 5.141-1.539 2.033-2.981 3.434-4.329 4.197-.065-.16-.197-.291-.405-.396a22.87 22.87 0 0 1-1.094-.514c-.491-.211-.817-.436-.976-.676-.046-.076-.166-.551-.356-1.422.222-.738.649-1.227 1.284-1.463a21.08 21.08 0 0 0 1.595-.457c.522-.17 1.26-.783 2.212-1.84 2.093-2.268 3.624-4.232 4.592-5.895.728-1.238 1.896-3.689 3.495-7.357l-.403-.158c-.571.131-1.262.236-2.069.316-.746.133-1.855.344-3.331.631-.476.082-.944.16-1.403.24a2.282 2.282 0 0 0-1.262.949l-.356-.277c0-1.504-.039-2.453-.118-2.85.031-.816.311-1.436.832-1.859.143-.104.628-.354 1.452-.75.254.633.443.936.57.91l5.778-.99.24-.041c.255 0 .521.107.809.318.032-.025.262-.383.69-1.068.27-.424.522-.635.76-.635.095 0 .208.029.335.082.095.314.375.645.842.988.47.344.815.764 1.037 1.266-1.001 1.662-1.65 2.863-1.952 3.602a99.166 99.166 0 0 1-1.14 3.045c-.129.291-.509.99-1.144 2.098-.507.895-.825 1.633-.952 2.215a203.585 203.585 0 0 1 2.642 3.205c.936 1.055 1.958 1.768 3.068 2.137.999.211 2.499.672 4.497 1.385-.256.791-.727 1.613-1.417 2.473-.691.854-1.138 1.585-1.343 2.194zM135.641 92.579c-.204.053-.478.303-.819.752-.343.451-.653.676-.939.676-.177 0-.586-.174-1.239-.516-.762-.422-1.221-.658-1.379-.711-.301.025-.743-.012-1.331-.119l-.428.158-.809-.355c-.177.291-.351 1.107-.524 2.453l-.283 1.818c-.129.684-.281 1.252-.453 1.699a16.816 16.816 0 0 1-2.071 3.678c-.92 1.24-1.807 2.057-2.663 2.451-1.46.713-2.528 1.068-3.213 1.068-.237 0-.894-.094-1.973-.275l-.334-1.229c.048-1.58.459-2.584 1.238-3.006.316-.158 1.084-.236 2.307-.236.507 0 1.063-.119 1.666-.357.762-.316 1.587-1.041 2.474-2.176.999-1.293 1.499-2.48 1.499-3.564 0-.076-.01-.193-.025-.352l-.048-.318c-.332-.422-.577-1.027-.735-1.82l-.335-.277c-.475-.025-1.181-.014-2.116.039-.349.053-1.158.291-2.428.711-1.315.451-2.083.768-2.307.953-.222.182-.41.514-.57.988l-.405.238-.548-.078-.214-1.307c.145-1.031.271-1.768.384-2.217.188-.82.449-1.426.783-1.822 1.221-.264 3.051-.633 5.496-1.107.665-.104 1.632-.158 2.9-.158 1.286 0 3.959.291 8.017.871.031 0 .079-.025.143-.08l.237-.078.239.078c.048.027.101.055.168.08l1.163-.158.617.434c-.095.479-.282 1.039-.569 1.686-.287.645-.477 1.141-.573 1.485zm-2.903-9.969c-.075 1.107-.697 1.662-1.854 1.662-.282 0-.698-.041-1.238-.121-.538-.078-.943-.117-1.211-.117-.128 0-.295-.025-.5-.08-.271-.051-.436-.09-.499-.119a10.476 10.476 0 0 0-1.597-.117c-.237 0-.949.092-2.139.275-1.19.188-1.832.318-1.929.396-.014 0-.106.119-.272.359-.167.234-.305.34-.416.313l-.498-.197-.408-1.502c.1-1.398.461-2.229 1.097-2.494.253 0 .635-.066 1.142-.197 1.236-.555 2.681-.777 4.33-.672 1.982.131 3.006.197 3.068.197 1.144.213 2.125.688 2.952 1.426 0 .236-.01.565-.028.988zM158.384 104.241c-.224 0-.519-.08-.88-.236a20.657 20.657 0 0 0-.857-.316c-.365-.051-1.634-.199-3.808-.438-1.459-.156-2.271-.234-2.447-.234-3.425 0-6.274 1.055-8.541 3.164-.604-.871-.904-2.293-.904-4.273 0-.262.135-.582.403-.949.428-.211.762-.305 1.001-.277.555-.475 1.078-1.387 1.569-2.73.38-1.109.762-2.219 1.142-3.322.332-.818.816-2.059 1.45-3.721.191-.607.484-1.502.882-2.691.364-1.027.617-1.805.76-2.334.27-.867.467-1.688.596-2.451l-.048-.119a1.53 1.53 0 0 1-.239-.791c0-.818.256-1.451.762-1.9.479-.262.944-.527 1.403-.789.413.287.991.658 1.736 1.105.224.346.335.896.335 1.662 0 .424-.198.91-.596 1.465l-.904 1.186c-.999 1.77-2.228 4.842-3.686 9.219l-1.001 2.373c-.41 1.002-.634 1.846-.665 2.535 1.205-.346 2.657-.518 4.353-.518 2.744 0 4.694.213 5.853.633-.27-1.318-.57-2.201-.904-2.65-.38-.5-.625-.83-.736-.99-.174-.314-.374-.75-.596-1.305.158-1.133.586-1.807 1.282-2.016.241.105.582.303 1.024.594.017 0 .254.342.715 1.027.205.238.517.635.928 1.188.316.473.704 1.529 1.165 3.166.382 1.318.675 2.492.879 3.521a4.137 4.137 0 0 1-.522 1.523c-.271.461-.572.689-.904.689zM70.85 71.915h-1.492l-.26 1.25a3.75 3.75 0 0 0-.096.69c0 .121.027.227.084.318.055.092.176.151.359.179v.219h-1.211v-.219c.16-.059.264-.135.311-.229.096-.188.203-.568.32-1.143l1.354-6.535h.1l1.34 6.607c.107.53.205.875.293 1.032a.474.474 0 0 0 .365.267v.219h-1.514v-.219c.152-.016.256-.068.309-.158a.61.61 0 0 0 .082-.327c0-.172-.039-.442-.113-.813l-.231-1.138zm-.088-.437l-.646-3.211-.666 3.211h1.312zM74.836 69.196v3.266c0 .618.008.997.021 1.135.014.139.037.234.068.289s.068.082.109.082c.059 0 .125-.033.199-.1l.041.211-.779.656h-.127V73.6c-.223.5-.393.813-.51.942s-.242.193-.371.193c-.146 0-.271-.087-.379-.261s-.182-.398-.223-.672-.063-.66-.063-1.161v-2.398c0-.257-.014-.435-.039-.533-.027-.099-.064-.175-.117-.229s-.146-.078-.281-.074v-.211h.91v3.599c0 .502.041.83.125.986.084.157.186.235.305.235.08 0 .174-.053.275-.158.104-.106.225-.308.367-.605v-3.049c0-.307-.027-.515-.082-.623-.055-.107-.166-.166-.338-.174v-.211h.889zM76.219 67.431v1.766h.605v.414h-.605v3.482c0 .348.023.582.072.703.047.121.109.182.184.182.063 0 .123-.04.182-.12a.937.937 0 0 0 .137-.356h.109c-.066.384-.16.672-.281.866-.121.193-.246.29-.375.29-.088 0-.172-.05-.256-.149a.989.989 0 0 1-.184-.428c-.041-.186-.061-.472-.061-.859v-3.61h-.412v-.195c.105-.086.211-.232.32-.438.109-.205.207-.449.293-.73.045-.148.105-.42.184-.815h.088zM78.344 69.04c.393 0 .707.309.945.927.201.527.303 1.134.303 1.818 0 .48-.055.968-.166 1.461-.111.492-.266.863-.461 1.114-.195.25-.412.375-.652.375-.391 0-.701-.322-.932-.968-.195-.543-.291-1.153-.291-1.83 0-.492.059-.982.176-1.469.119-.487.273-.847.467-1.08.191-.232.396-.348.611-.348zm-.088.383c-.1 0-.199.062-.301.185-.1.123-.182.34-.244.648s-.094.706-.094 1.191c0 .781.074 1.456.225 2.023s.348.851.592.851c.184 0 .334-.156.451-.47.119-.313.18-.85.18-1.613 0-.954-.1-1.705-.297-2.252-.135-.376-.305-.563-.512-.563zM80.732 70.176c.303-.757.592-1.136.867-1.136.141 0 .262.073.363.22.102.147.184.389.244.726.041.234.061.595.061 1.08v2.295c0 .339.014.569.041.69.02.098.055.173.1.228.047.055.133.082.256.082v.211h-1.287v-.212h.055c.121 0 .205-.038.254-.114a.876.876 0 0 0 .1-.336c.008-.059.012-.242.012-.55v-2.203c0-.489-.031-.845-.092-1.066s-.164-.332-.307-.332c-.225 0-.445.255-.666.763v2.839c0 .362.01.587.031.673a.563.563 0 0 0 .109.248c.045.053.141.079.281.079v.211h-1.287v-.212h.057c.133 0 .221-.069.268-.208.045-.138.068-.402.068-.792v-2c0-.645-.006-1.037-.021-1.178-.014-.141-.035-.236-.064-.287s-.07-.076-.119-.076c-.053 0-.115.029-.189.088l-.043-.211.787-.656h.123v1.136zM84.143 69.04c.393 0 .707.309.945.927.201.527.303 1.134.303 1.818 0 .48-.057.968-.168 1.461-.111.492-.264.863-.459 1.114-.195.25-.414.375-.652.375-.391 0-.701-.322-.932-.968-.195-.543-.293-1.153-.293-1.83 0-.492.061-.982.178-1.469.117-.487.273-.847.465-1.08.193-.232.396-.348.613-.348zm-.088.383c-.1 0-.201.062-.301.185-.102.123-.184.34-.244.648a6.15 6.15 0 0 0-.094 1.191c0 .781.074 1.456.225 2.023s.348.851.592.851c.182 0 .334-.156.451-.47.119-.313.178-.85.178-1.613 0-.954-.1-1.705-.295-2.252-.135-.376-.305-.563-.512-.563zM86.541 70.19c.189-.394.301-.619.334-.679.086-.149.176-.266.273-.348a.457.457 0 0 1 .293-.124c.162 0 .301.099.418.295s.195.481.234.855c.195-.472.359-.782.492-.929.135-.148.273-.222.414-.222.139 0 .26.073.367.22.105.147.191.387.252.72.043.227.063.583.063 1.068v2.313c0 .335.014.565.037.69.02.086.055.158.105.219s.135.091.25.091v.211H88.79v-.21h.055a.3.3 0 0 0 .26-.135.723.723 0 0 0 .094-.298c.008-.066.012-.256.012-.567v-2.309c0-.438-.025-.746-.076-.926-.074-.25-.191-.375-.354-.375-.1 0-.201.052-.301.155-.102.104-.223.296-.367.577l-.006.064.008.252v2.561c0 .366.01.595.029.685s.057.164.111.225.148.091.279.091v.211h-1.311v-.211c.143 0 .24-.035.295-.105a.673.673 0 0 0 .109-.315c.01-.066.016-.26.016-.579v-2.309c0-.438-.031-.753-.094-.946-.082-.252-.197-.378-.346-.378-.102 0-.203.058-.303.171a1.933 1.933 0 0 0-.361.585v2.877c0 .351.012.579.035.685s.059.184.105.236c.045.053.139.079.279.079v.211h-1.283v-.212c.117 0 .201-.026.248-.079s.082-.137.107-.251c.023-.115.037-.339.037-.67v-2.055c0-.592-.01-.974-.025-1.146a.759.759 0 0 0-.063-.268c-.029-.049-.068-.073-.117-.073-.053 0-.117.029-.191.088l-.041-.211.785-.656h.123v1.151zM90.131 69.196h1.209v.211h-.059c-.086 0-.148.038-.191.115s-.064.172-.064.286c0 .153.031.366.094.638l.635 2.721.578-2.979c.031-.161.047-.321.047-.479a.468.468 0 0 0-.02-.16.249.249 0 0 0-.07-.104c-.033-.025-.09-.038-.17-.038v-.211h.842v.211a.273.273 0 0 0-.162.095.996.996 0 0 0-.125.265 7.054 7.054 0 0 0-.096.454l-1.053 5.365c-.104.521-.236.914-.402 1.18-.166.267-.324.399-.479.399-.111 0-.203-.066-.273-.199a.95.95 0 0 1-.107-.458c0-.164.025-.297.076-.396.053-.1.125-.149.215-.149.063 0 .148.043.256.13.076.06.123.089.141.089.057 0 .119-.061.186-.183.068-.121.137-.356.203-.705l.184-.94-.932-4.049a4.183 4.183 0 0 0-.135-.454 1.389 1.389 0 0 0-.117-.277.525.525 0 0 0-.209-.165v-.213zM97.107 66.446v2.75H97c-.033-.528-.094-.948-.182-1.261s-.213-.561-.377-.745c-.162-.184-.33-.275-.504-.275-.197 0-.359.124-.488.372a1.8 1.8 0 0 0-.191.846c0 .241.039.462.121.661.117.293.396.683.838 1.171.359.397.604.703.736.916.131.213.232.464.303.753.072.289.107.592.107.908 0 .602-.113 1.12-.338 1.556-.227.436-.516.653-.871.653a.909.909 0 0 1-.314-.054c-.059-.021-.18-.093-.363-.219s-.301-.188-.35-.188c-.047 0-.084.03-.111.09s-.047.184-.061.371h-.105v-2.727h.105c.049.569.115.996.197 1.279.084.283.211.519.381.705.17.188.357.281.561.281.236 0 .422-.129.559-.387s.205-.563.205-.914c0-.195-.025-.393-.078-.592a1.934 1.934 0 0 0-.242-.557c-.072-.117-.275-.365-.605-.745-.328-.379-.563-.682-.701-.908s-.244-.477-.314-.75a3.523 3.523 0 0 1-.107-.901c0-.569.105-1.061.316-1.472.211-.412.48-.618.807-.618.205 0 .422.104.65.313.105.099.18.147.223.147.051 0 .09-.03.121-.092.031-.061.057-.184.074-.369h.105zM97.705 69.196h1.209v.211h-.061a.202.202 0 0 0-.189.115.583.583 0 0 0-.064.287c0 .153.031.366.094.638l.633 2.721.578-2.979c.033-.161.049-.321.049-.479a.524.524 0 0 0-.02-.16.235.235 0 0 0-.072-.104c-.031-.025-.088-.038-.17-.038v-.211h.842v.211a.268.268 0 0 0-.16.095.937.937 0 0 0-.125.265 5.819 5.819 0 0 0-.096.454l-1.055 5.365c-.102.521-.236.914-.4 1.18-.166.267-.324.399-.479.399-.111 0-.203-.066-.275-.199a.95.95 0 0 1-.107-.458c0-.164.025-.297.078-.396s.123-.149.215-.149c.063 0 .146.043.256.13.074.06.121.089.141.089.057 0 .119-.061.186-.183.068-.121.135-.356.203-.705l.182-.94-.93-4.049a4.784 4.784 0 0 0-.137-.454 1.56 1.56 0 0 0-.115-.277.525.525 0 0 0-.209-.165v-.214zM102.426 69.04v1.828h-.094c-.072-.575-.164-.966-.275-1.173-.111-.208-.254-.312-.428-.312-.133 0-.238.072-.32.218a.978.978 0 0 0-.121.48c0 .22.031.407.09.564.059.16.178.33.357.51l.412.417c.385.388.576.897.576 1.531 0 .489-.09.883-.268 1.183-.18.299-.379.448-.6.448-.158 0-.34-.059-.543-.176a.317.317 0 0 0-.152-.059c-.045 0-.078.05-.104.148h-.094v-1.914h.094c.053.548.154.961.305 1.239.148.278.314.417.5.417.131 0 .236-.079.318-.238.082-.158.123-.35.123-.572 0-.271-.045-.498-.137-.682-.092-.185-.273-.417-.549-.698-.273-.282-.453-.536-.537-.763-.086-.223-.129-.504-.129-.845 0-.441.074-.811.221-1.108.145-.297.334-.445.566-.445.102 0 .227.046.371.137.096.06.16.09.191.09s.055-.014.072-.042a.88.88 0 0 0 .059-.185h.096zM103.766 67.431v1.766h.605v.414h-.605v3.482c0 .348.023.582.072.703.047.121.109.182.186.182.061 0 .121-.04.18-.12a.937.937 0 0 0 .137-.356h.109c-.066.384-.16.672-.281.866-.121.193-.246.29-.375.29-.088 0-.172-.05-.256-.149a.989.989 0 0 1-.184-.428c-.041-.186-.061-.472-.061-.859v-3.61h-.41v-.195c.104-.086.211-.232.318-.438.109-.205.207-.449.293-.73.045-.148.105-.42.184-.815h.088zM105.055 71.228c-.002.797.092 1.422.281 1.875.188.453.41.68.664.68.17 0 .316-.096.443-.288.125-.191.23-.522.314-.993l.088.117a4.505 4.505 0 0 1-.346 1.461c-.191.438-.43.656-.717.656-.311 0-.578-.251-.799-.753-.223-.502-.332-1.177-.332-2.024 0-.918.113-1.634.34-2.147.229-.514.514-.771.857-.771.289 0 .527.198.715.596.188.396.281.927.281 1.592h-1.789zm0-.344h1.201a4.678 4.678 0 0 0-.059-.727 1.376 1.376 0 0 0-.211-.516c-.094-.125-.191-.188-.293-.188-.158 0-.297.126-.422.378-.123.253-.195.604-.216 1.053zM107.965 70.19c.189-.394.301-.619.334-.679.084-.149.176-.266.273-.348a.457.457 0 0 1 .293-.124c.16 0 .301.099.418.295s.195.481.234.855c.193-.472.359-.782.492-.929.135-.148.271-.222.414-.222.137 0 .26.073.367.22.105.147.189.387.252.72.043.227.063.583.063 1.068v2.313c0 .335.012.565.037.69.02.086.055.158.105.219s.135.091.25.091v.211h-1.283v-.21h.055a.3.3 0 0 0 .26-.135.723.723 0 0 0 .094-.298c.008-.066.012-.256.012-.567v-2.309c0-.438-.027-.746-.078-.926-.072-.25-.189-.375-.352-.375-.102 0-.201.052-.301.155-.102.104-.223.296-.367.577l-.006.064.008.252v2.561c0 .366.01.595.029.685s.057.164.111.225.146.091.279.091v.211h-1.311v-.211c.143 0 .24-.035.293-.105a.651.651 0 0 0 .111-.315 6.2 6.2 0 0 0 .014-.579v-2.309c0-.438-.029-.753-.092-.946-.082-.252-.199-.378-.348-.378-.102 0-.201.058-.301.171a1.894 1.894 0 0 0-.361.585v2.877c0 .351.012.579.035.685s.059.184.104.236c.047.053.141.079.281.079v.211H107.1v-.212c.119 0 .203-.026.25-.079s.082-.137.107-.251c.023-.115.035-.339.035-.67v-2.055c0-.592-.008-.974-.025-1.146a.679.679 0 0 0-.063-.268c-.027-.049-.066-.073-.115-.073-.053 0-.117.029-.191.088l-.043-.211.787-.656h.123v1.151zM114.17 69.618v3.531c0 .502.027.819.08.952.07.173.164.259.281.259h.234v.211h-1.555v-.211h.117c.074 0 .143-.039.205-.117a.703.703 0 0 0 .129-.317c.023-.134.035-.393.035-.776v-3.531h-.506v-.422h.506v-.351c0-.533.043-.985.125-1.355.084-.37.211-.67.383-.897s.363-.342.578-.342c.197 0 .381.133.547.398.109.176.164.373.164.592 0 .117-.023.228-.072.331s-.102.155-.158.155c-.045 0-.09-.032-.139-.097-.047-.064-.107-.203-.176-.416-.07-.213-.135-.356-.193-.431s-.123-.111-.195-.111c-.086 0-.16.048-.221.144-.061.095-.104.243-.131.443-.025.201-.039.718-.039 1.551v.386h.668v.422h-.667zM116.355 69.04c.393 0 .707.309.945.927.201.527.303 1.134.303 1.818 0 .48-.057.968-.168 1.461-.111.492-.264.863-.459 1.114-.195.25-.414.375-.652.375-.391 0-.701-.322-.932-.968-.195-.543-.293-1.153-.293-1.83 0-.492.061-.982.178-1.469.117-.487.273-.847.467-1.08.192-.232.395-.348.611-.348zm-.087.383c-.1 0-.201.062-.301.185-.102.123-.182.34-.244.648s-.094.706-.094 1.191c0 .781.074 1.456.225 2.023s.348.851.592.851c.182 0 .334-.156.451-.47.119-.313.178-.85.178-1.613 0-.954-.098-1.705-.295-2.252-.135-.376-.305-.563-.512-.563zM118.744 69.04v1.207c.217-.805.438-1.207.666-1.207.104 0 .189.065.258.196s.102.282.102.454a.92.92 0 0 1-.072.387c-.051.105-.109.158-.176.158s-.141-.067-.223-.203-.143-.203-.184-.203c-.033 0-.07.039-.109.117-.084.161-.172.426-.262.794v2.573c0 .298.018.523.053.677a.607.607 0 0 0 .131.265c.063.07.152.105.268.105v.211h-1.332v-.211c.133 0 .23-.043.295-.13a.67.67 0 0 0 .1-.3 6.04 6.04 0 0 0 .014-.57v-2.078c0-.627-.006-1-.018-1.119a.732.732 0 0 0-.068-.262c-.033-.055-.076-.082-.125-.082-.059 0-.125.029-.199.088l-.027-.211.789-.656h.119zM124.535 66.626l.043 1.865h-.107a4.386 4.386 0 0 0-.086-.703c-.059-.227-.137-.394-.234-.501s-.225-.161-.383-.161h-.541v6.07c0 .486.025.79.076.911.072.163.182.245.33.245h.133v.219h-1.627v-.219h.137c.162 0 .277-.102.344-.304.043-.125.063-.408.063-.853v-6.07h-.461c-.18 0-.307.027-.383.082-.098.074-.182.217-.252.428s-.111.496-.125.855h-.107l.045-1.865h3.135zM126.371 73.796c-.266.426-.432.672-.5.738a.465.465 0 0 1-.326.146c-.178 0-.326-.127-.441-.381-.115-.255-.174-.589-.174-1.003 0-.263.027-.489.084-.681.078-.267.213-.517.404-.751.189-.234.508-.521.953-.856v-.211c0-.534-.041-.901-.121-1.1-.082-.199-.201-.299-.357-.299-.117 0-.211.066-.281.198a.964.964 0 0 0-.105.456l.004.339c0 .18-.021.318-.066.415-.045.098-.104.146-.176.146-.07 0-.129-.051-.174-.152s-.066-.239-.066-.415c0-.336.084-.645.25-.925.166-.281.398-.422.699-.422.23 0 .418.08.566.24.111.121.193.311.246.568.033.168.051.511.051 1.03v1.822c0 .511.004.824.014.939s.025.192.047.231.047.059.076.059.057-.014.078-.041c.041-.051.117-.193.23-.428v.328c-.213.589-.414.883-.607.883-.092 0-.166-.066-.221-.198-.056-.129-.085-.356-.087-.675zm0-.382v-2.046c-.285.234-.469.4-.551.498a1.625 1.625 0 0 0-.318.54 1.897 1.897 0 0 0-.098.615c0 .281.041.516.123.701.08.186.174.278.279.278.143.001.333-.194.565-.586zM127.375 69.196h1.223v.211c-.078 0-.133.028-.164.083a.453.453 0 0 0-.047.221c0 .096.033.242.1.44l.092.282.188.62.207-.605c.139-.39.209-.636.211-.74a.454.454 0 0 0-.049-.214.168.168 0 0 0-.156-.087v-.211h.873v.211a.349.349 0 0 0-.242.159c-.094.134-.221.424-.379.872l-.354.974.645 1.938c.16.476.273.761.342.856.066.097.156.15.264.162v.203H128.9v-.203c.084 0 .15-.039.199-.118a.398.398 0 0 0 .053-.217c0-.091-.061-.318-.182-.684l-.381-1.151-.416 1.145c-.127.359-.191.573-.191.64 0 .096.021.182.064.258.043.078.107.12.191.128v.203h-.846v-.203a.328.328 0 0 0 .18-.147c.07-.113.191-.403.361-.871l.541-1.501-.488-1.482c-.141-.424-.248-.689-.324-.797-.076-.108-.172-.162-.287-.162v-.213zM131.746 74.571v-.219h.145c.162 0 .275-.107.344-.321.041-.129.063-.418.063-.866v-5.133c0-.495-.025-.806-.08-.93-.072-.172-.182-.258-.326-.258h-.145v-.219h1.561c.572 0 1.008.135 1.307.404s.539.719.721 1.348.273 1.355.273 2.18c0 1.105-.162 2.029-.486 2.771-.363.828-.918 1.242-1.662 1.242h-1.715zm1.094-.578c.24.109.439.164.602.164.436 0 .797-.318 1.086-.954.287-.637.432-1.5.432-2.589 0-1.097-.145-1.962-.432-2.595-.289-.632-.658-.948-1.109-.948-.168 0-.361.057-.578.17v6.752zM136.451 71.228c-.002.797.09 1.422.279 1.875.188.453.41.68.664.68.17 0 .318-.096.443-.288.125-.191.23-.522.314-.993l.088.117a4.505 4.505 0 0 1-.346 1.461c-.191.438-.43.656-.717.656-.311 0-.578-.251-.799-.753s-.332-1.177-.332-2.024c0-.918.113-1.634.34-2.147.229-.514.514-.771.857-.771.291 0 .529.198.715.596.188.396.281.927.281 1.592h-1.787zm0-.344h1.199a4.678 4.678 0 0 0-.059-.727c-.047-.219-.117-.391-.211-.516s-.191-.188-.293-.188c-.156 0-.297.126-.422.378-.122.253-.194.604-.214 1.053zM139.484 66.235v7.125c0 .335.012.558.035.667s.061.191.109.248.141.085.275.085v.211h-1.277v-.211c.121 0 .201-.025.246-.076a.577.577 0 0 0 .102-.251c.025-.117.037-.342.037-.673v-4.883c0-.603-.006-.972-.02-1.11-.012-.138-.033-.231-.063-.282s-.066-.076-.113-.076c-.049 0-.111.031-.186.094l-.049-.211.775-.656h.129zM141.096 69.04v4.32c0 .335.012.559.035.67a.58.58 0 0 0 .104.248c.047.055.131.082.254.082v.211h-1.262v-.211c.127 0 .213-.025.256-.076s.078-.135.104-.251c.025-.117.037-.342.037-.673v-2.078c0-.581-.008-.958-.025-1.129a.699.699 0 0 0-.063-.261.129.129 0 0 0-.117-.073c-.053 0-.117.029-.193.088l-.039-.211.785-.656h.124zm-.233-2.805c.078 0 .146.058.201.173.057.115.084.254.084.418s-.027.305-.084.421c-.055.117-.123.176-.201.176-.08 0-.148-.059-.203-.176-.057-.116-.086-.257-.086-.421s.027-.303.084-.418c.055-.115.123-.173.205-.173zM142.57 70.176c.303-.757.592-1.136.867-1.136.141 0 .262.073.365.22.102.147.182.389.242.726.041.234.063.595.063 1.08v2.295c0 .339.012.569.039.69a.53.53 0 0 0 .1.228c.047.055.133.082.258.082v.211h-1.287v-.212h.053c.121 0 .205-.038.254-.114a.843.843 0 0 0 .1-.336c.008-.059.012-.242.012-.55v-2.203c0-.489-.029-.845-.092-1.066-.061-.222-.162-.332-.307-.332-.223 0-.445.255-.666.763v2.839c0 .362.01.587.031.673.025.113.063.195.109.248s.141.079.281.079v.211h-1.287v-.212h.057c.133 0 .221-.069.268-.208.047-.138.068-.402.068-.792v-2c0-.645-.006-1.037-.02-1.178-.016-.141-.037-.236-.066-.287s-.068-.076-.117-.076c-.053 0-.117.029-.191.088l-.043-.211.787-.656h.123v1.136zM147.002 69.04v6.914c0 .345.012.566.033.665a.548.548 0 0 0 .105.229c.049.055.143.082.281.082v.211h-1.307v-.211h.053c.107 0 .188-.031.242-.094a.558.558 0 0 0 .09-.232c.023-.112.033-.329.033-.65v-2.316c-.172.423-.32.711-.449.866-.129.154-.26.231-.398.231-.252 0-.475-.236-.672-.71-.197-.473-.295-1.106-.295-1.9 0-.911.129-1.652.391-2.226.26-.573.574-.859.941-.859.107 0 .207.031.297.095.09.063.172.157.242.284a3.05 3.05 0 0 0 .316-.379h.097zm-.469 4.229v-2.52c0-.293-.018-.523-.055-.691s-.102-.311-.195-.428c-.096-.117-.201-.176-.32-.176-.211 0-.393.186-.543.557s-.227.934-.227 1.688c0 .723.078 1.271.23 1.646.154.375.34.563.557.563.111 0 .211-.05.297-.149.088-.101.174-.264.256-.49zM149.883 69.196v3.266c0 .618.006.997.021 1.135.014.139.037.234.068.289s.066.082.109.082c.059 0 .125-.033.199-.1l.039.211-.777.656h-.129V73.6c-.223.5-.393.813-.51.942s-.24.193-.371.193c-.145 0-.271-.087-.379-.261a1.855 1.855 0 0 1-.223-.672 8.346 8.346 0 0 1-.061-1.161v-2.398c0-.257-.014-.435-.041-.533a.491.491 0 0 0-.117-.229c-.051-.054-.145-.078-.281-.074v-.211h.91v3.599c0 .502.043.83.127.986.082.157.184.235.303.235.082 0 .174-.053.277-.158.102-.106.225-.308.365-.605v-3.049c0-.307-.027-.515-.08-.623-.055-.107-.168-.166-.338-.174v-.211h.889zM150.943 71.228c-.002.797.092 1.422.279 1.875.189.453.41.68.666.68.168 0 .316-.096.441-.288.125-.191.23-.522.316-.993l.086.117a4.405 4.405 0 0 1-.346 1.461c-.189.438-.428.656-.715.656-.313 0-.578-.251-.801-.753-.221-.502-.332-1.177-.332-2.024 0-.918.113-1.634.342-2.147.227-.514.512-.771.855-.771.291 0 .529.198.715.596.188.396.281.927.281 1.592h-1.787zm0-.344h1.199a4.436 4.436 0 0 0-.059-.727c-.047-.219-.117-.391-.211-.516s-.191-.188-.293-.188c-.156 0-.297.126-.42.378-.124.253-.196.604-.216 1.053zM153.842 70.176c.303-.757.592-1.136.867-1.136.141 0 .262.073.363.22.102.147.184.389.242.726.043.234.063.595.063 1.08v2.295c0 .339.014.569.041.69.02.098.053.173.1.228s.131.082.256.082v.211h-1.287v-.212h.055c.121 0 .205-.038.252-.114a.84.84 0 0 0 .102-.336c.008-.059.012-.242.012-.55v-2.203c0-.489-.031-.845-.092-1.066s-.164-.332-.307-.332c-.225 0-.445.255-.666.763v2.839c0 .362.01.587.031.673a.563.563 0 0 0 .109.248c.045.053.139.079.281.079v.211h-1.287v-.212h.057c.133 0 .221-.069.268-.208.045-.138.068-.402.068-.792v-2c0-.645-.008-1.037-.021-1.178s-.035-.236-.064-.287-.07-.076-.119-.076c-.053 0-.115.029-.189.088l-.043-.211.787-.656h.123v1.136zM158.182 72.528c-.068.711-.205 1.257-.41 1.637-.203.38-.43.57-.676.57-.295 0-.551-.256-.771-.769-.219-.512-.328-1.204-.328-2.076 0-.845.121-1.531.363-2.059.244-.528.533-.792.873-.792.254 0 .465.14.629.419.164.28.246.57.246.871 0 .149-.023.27-.07.361-.045.092-.109.138-.193.138-.111 0-.193-.074-.25-.224-.033-.082-.055-.238-.064-.47s-.049-.407-.115-.528c-.064-.118-.156-.177-.273-.177-.188 0-.34.145-.455.435-.152.383-.229.891-.229 1.52 0 .643.076 1.209.229 1.7.15.491.355.736.613.736.186 0 .352-.13.498-.39.104-.181.205-.509.303-.985l.08.083zM158.404 69.196h1.209v.211h-.059c-.086 0-.148.038-.191.115s-.064.172-.064.286c0 .153.031.366.094.638l.635 2.721.578-2.979c.031-.161.047-.321.047-.479a.468.468 0 0 0-.02-.16.249.249 0 0 0-.07-.104c-.031-.025-.088-.038-.17-.038v-.211h.842v.211a.273.273 0 0 0-.162.095 1.064 1.064 0 0 0-.125.265 7.054 7.054 0 0 0-.096.454l-1.053 5.365c-.104.521-.236.914-.402 1.18-.166.267-.324.399-.479.399-.111 0-.203-.066-.273-.199a.95.95 0 0 1-.107-.458c0-.164.025-.297.076-.396.053-.1.125-.149.215-.149.063 0 .148.043.256.13.076.06.123.089.143.089.057 0 .117-.061.184-.183.068-.121.137-.356.203-.705l.184-.94-.932-4.049a4.183 4.183 0 0 0-.135-.454 1.389 1.389 0 0 0-.117-.277.525.525 0 0 0-.209-.165v-.213z"/><linearGradient id="g" gradientUnits="userSpaceOnUse" x1="21.153" y1="44.765" x2="76.46" y2="100.072"><stop offset="0" stop-color="#ead18f"/><stop offset=".076" stop-color="#e1c477"/><stop offset=".221" stop-color="#d1af4e"/><stop offset=".335" stop-color="#c8a235"/><stop offset=".405" stop-color="#c49d2c"/><stop offset=".559" stop-color="#d4b35c"/><stop offset=".766" stop-color="#e7cd97"/><stop offset=".919" stop-color="#f3debb"/><stop offset="1" stop-color="#f8e4c9"/></linearGradient><linearGradient id="h" gradientUnits="userSpaceOnUse" x1="91.372" y1="32.859" x2="146.477" y2="87.964"><stop offset="0" stop-color="#ead18f"/><stop offset=".076" stop-color="#e1c477"/><stop offset=".221" stop-color="#d1af4e"/><stop offset=".335" stop-color="#c8a235"/><stop offset=".405" stop-color="#c49d2c"/><stop offset=".559" stop-color="#d4b35c"/><stop offset=".766" stop-color="#e7cd97"/><stop offset=".919" stop-color="#f3debb"/><stop offset="1" stop-color="#f8e4c9"/></linearGradient><linearGradient id="i" gradientUnits="userSpaceOnUse" x1="66.66" y1="41.019" x2="121.967" y2="96.326"><stop offset="0" stop-color="#ead18f"/><stop offset=".076" stop-color="#e1c477"/><stop offset=".221" stop-color="#d1af4e"/><stop offset=".335" stop-color="#c8a235"/><stop offset=".405" stop-color="#c49d2c"/><stop offset=".559" stop-color="#d4b35c"/><stop offset=".766" stop-color="#e7cd97"/><stop offset=".919" stop-color="#f3debb"/><stop offset="1" stop-color="#f8e4c9"/></linearGradient><linearGradient id="j" gradientUnits="userSpaceOnUse" x1="75.56" y1="1.815" x2="130.866" y2="57.121"><stop offset="0" stop-color="#ead18f"/><stop offset=".076" stop-color="#e1c477"/><stop offset=".221" stop-color="#d1af4e"/><stop offset=".335" stop-color="#c8a235"/><stop offset=".405" stop-color="#c49d2c"/><stop offset=".559" stop-color="#d4b35c"/><stop offset=".766" stop-color="#e7cd97"/><stop offset=".919" stop-color="#f3debb"/><stop offset="1" stop-color="#f8e4c9"/></linearGradient><linearGradient id="k" gradientUnits="userSpaceOnUse" x1="94.897" y1="15.034" x2="150.203" y2="70.339"><stop offset="0" stop-color="#ead18f"/><stop offset=".076" stop-color="#e1c477"/><stop offset=".221" stop-color="#d1af4e"/><stop offset=".335" stop-color="#c8a235"/><stop offset=".405" stop-color="#c49d2c"/><stop offset=".559" stop-color="#d4b35c"/><stop offset=".766" stop-color="#e7cd97"/><stop offset=".919" stop-color="#f3debb"/><stop offset="1" stop-color="#f8e4c9"/></linearGradient></svg>