<?xml version="1.0" encoding="utf-8"?><svg xmlns="http://www.w3.org/2000/svg" width="99" height="81" viewBox="51.345 29.258 99 81"><linearGradient id="a" gradientUnits="userSpaceOnUse" x1="42.902" y1="15.156" x2="98.412" y2="70.665"><stop offset="0" stop-color="#ead18f"/><stop offset=".076" stop-color="#e1c477"/><stop offset=".221" stop-color="#d1af4e"/><stop offset=".335" stop-color="#c8a235"/><stop offset=".405" stop-color="#c49d2c"/><stop offset=".559" stop-color="#d4b35c"/><stop offset=".766" stop-color="#e7cd97"/><stop offset=".919" stop-color="#f3debb"/><stop offset="1" stop-color="#f8e4c9"/></linearGradient><linearGradient id="b" gradientUnits="userSpaceOnUse" x1="42.651" y1="47.404" x2="97.904" y2="102.656"><stop offset="0" stop-color="#ead18f"/><stop offset=".076" stop-color="#e1c477"/><stop offset=".221" stop-color="#d1af4e"/><stop offset=".335" stop-color="#c8a235"/><stop offset=".405" stop-color="#c49d2c"/><stop offset=".559" stop-color="#d4b35c"/><stop offset=".766" stop-color="#e7cd97"/><stop offset=".919" stop-color="#f3debb"/><stop offset="1" stop-color="#f8e4c9"/></linearGradient><linearGradient id="c" gradientUnits="userSpaceOnUse" x1="43.106" y1="27.275" x2="98.65" y2="82.819"><stop offset="0" stop-color="#ead18f"/><stop offset=".076" stop-color="#e1c477"/><stop offset=".221" stop-color="#d1af4e"/><stop offset=".335" stop-color="#c8a235"/><stop offset=".405" stop-color="#c49d2c"/><stop offset=".559" stop-color="#d4b35c"/><stop offset=".766" stop-color="#e7cd97"/><stop offset=".919" stop-color="#f3debb"/><stop offset="1" stop-color="#f8e4c9"/></linearGradient><linearGradient id="d" gradientUnits="userSpaceOnUse" x1="83.804" y1="31.377" x2="139.109" y2="86.683"><stop offset="0" stop-color="#ead18f"/><stop offset=".076" stop-color="#e1c477"/><stop offset=".221" stop-color="#d1af4e"/><stop offset=".335" stop-color="#c8a235"/><stop offset=".405" stop-color="#c49d2c"/><stop offset=".559" stop-color="#d4b35c"/><stop offset=".766" stop-color="#e7cd97"/><stop offset=".919" stop-color="#f3debb"/><stop offset="1" stop-color="#f8e4c9"/></linearGradient><path fill="#B2B2B2" d="M58.87 31.916c.101.547.266.911.494 1.093.31.243.493.425.554.546l.06 1.139-.299 2.275c.488.304 1.254.554 2.296.751s1.817.447 2.325.751l.27-.819.314.091c.01.273.109.622.299 1.047.14.304.274.607.403.911 0 .272-.047.667-.142 1.184-.095.516-.142.895-.142 1.138 0 .182.015.395.044.637-.02 1.093-.029 2.17-.029 3.232 0 2.519.07 5.098.209 7.737-.08 1.093-.169 1.942-.269 2.549v.592c-.21.304-.27.85-.18 1.639-.199.547-.563 1.214-1.092 2.003l-.27-.273-.209.137c-1.227-.818-2.089-1.229-2.588-1.229-.369 0-.917.03-1.645.091-.729.062-1.271.091-1.631.091-1.196 0-2.563.668-4.098 2.004-.12-.547-.26-1.215-.42-2.004v-.182c.229-1.427.385-3.414.464-5.963.03-2.063.065-4.143.105-6.236 0-.455.049-1.229.149-2.321a31.1 31.1 0 0 0 .119-2.321l-.015-.455-.27-.546-.224-1.821.075-1.547c.059-.213.164-.334.313-.364s.269-.152.358-.364c.22 0 .387.243.502.729.114.485.222.728.321.728.069 0 .299-.136.688-.409.439-.273.693-.44.763-.501a15.47 15.47 0 0 1 1.87-.683c0-.182-.03-.713-.09-1.593s-.085-1.366-.075-1.457l.075-1.229.299-.638.319-.14zm-1.086 8.588c-1.386 0-2.304.531-2.752 1.593l-.061 1.229.091.592c.159 0 .387-.114.68-.342.294-.228.517-.341.666-.341.06 0 .151.015.276.045.124.03.218.046.276.046.181 0 .454-.046.823-.137s.648-.137.837-.137c.07 0 .266.046.584.137l.029-.182c.061.242.11.364.15.364.03 0 .072-.023.127-.068.056-.046.102-.068.143-.068h.418c.19.041.329.061.419.061.1 0 .247-.03.441-.091.194-.062.342-.092.441-.092.12 0 .309.076.568.228l.239-.455c.278.122.599.319.957.592-.05 1.427-.284 2.246-.703 2.458l-1.077.273-.553-.183H59.71c-.109 0-.271.021-.485.062a2.833 2.833 0 0 1-.486.061c-2.094 0-3.386.564-3.874 1.693l-.029 1.189c.22.242.434.364.643.364l.195-.137.239.137c-.061 0 .14-.092.599-.273 1.166-.396 1.903-.548 2.212-.457.929.306 1.486.441 1.676.411l.18-.318c.09.273.319.409.688.409.1 0 .249-.037.448-.113s.354-.114.464-.114c.149 0 .349.031.599.092.339.091.543.136.613.136l-.061.547.061.501c-.35 1.274-.729 2.032-1.137 2.275-.13 0-.314.061-.555.182-1.585-.485-2.482-.728-2.691-.728-1.565 0-2.802.349-3.709 1.047l-.538-.273c-.101.546-.195 1.79-.285 3.732l.15.182c1.914-1.001 3.992-1.502 6.235-1.502l2.38 1.047c.069.03.457-.045 1.161-.228.02-.151.029-.743.029-1.776 0-.183.015-.334.045-.455-.01-.668-.05-1.823-.119-3.464a84.291 84.291 0 0 1-.1-3.51c0-.213.006-.539.02-.979.014-.439.02-.768.02-.98l-.039-2.551c-.359-.667-.963-1.001-1.811-1.001l-.269-.228-.149.045-2.05-.409c-.079-.03-.254-.106-.523-.228-.22-.091-.394-.137-.523-.137l-1.002.318c-.01 0-.034-.015-.075-.045-.038-.03-.063-.046-.073-.046zM68.467 42.294l.075.228c.02.122.029.41.029.865 0 .151.01.273.03.364-.089.729-.412 1.502-.965 2.321s-.859 1.487-.92 2.003l-.328.182c-.15-.576-.271-1.881-.359-3.914l.135-.228c.01-.183.024-.318.044-.41.021-.091.212-.311.576-.66.364-.349.596-.554.695-.614.22.06.549.015.988-.137zm.897 7.784c.01.151.015.272.015.364 0 .272-.02.591-.06.955-.039.455-.06.759-.06.911-.04 1.062-.292 2.692-.756 4.893s-.695 3.968-.695 5.303l-.194.364c-.229 0-.394-.349-.494-1.047-.079-.606-.154-1.214-.224-1.82-.08-.243-.165-.698-.254-1.366.159-.91.363-1.941.612-3.095.1-.455.359-1.32.778-2.595s.7-2.071.845-2.39.308-.477.487-.477zm-.343-16.523c.089-.03.284.243.583.819l.568-.091c.021.183.03.471.03.865-.11 0-.229.182-.359.546-.159.455-.265.713-.313.773l-.479.729c-.181.304-.475.539-.883.706s-.713.417-.913.751l-.135-.092c-.149-.758-.224-1.38-.224-1.866l.09-1.547-.06-.819c.198-.455.408-.698.628-.729.08 0 .164-.03.254-.091l.313.364.9-.318zm5.609-2.094c.029.425.176.918.44 1.479s.396 1.069.396 1.525c0 1.031-.323 1.639-.972 1.82-.578 1.123-1.091 2.762-1.54 4.916l.06.045c.219-.121.314-.182.284-.182l.194.137.344-.183c.061.062.125.122.195.183.149 0 .652-.061 1.51-.183a16.022 16.022 0 0 1 1.511-.091c.13 0 .309.061.538.183.27.121.449.197.539.228a106.56 106.56 0 0 1-.314-2.049c-.149-.88-.304-1.396-.464-1.548l-.328-.728V35.92l.029-.546.553-.41c.34.122.789.88 1.347 2.276.159.88.314 1.752.464 2.617.149.864.225 1.844.225 2.936 0 .152-.005.402-.015.751-.011.35-.016.614-.016.797-.06.03-.164.144-.313.341s-.27.296-.359.296c-.02 0-.494-.212-1.421-.637-.14-.061-.358-.076-.658-.046-.419.061-.639.091-.658.091-1.036 0-2.637.319-4.801.956-.379.122-.668.395-.867.819-.15.455-.249.668-.3.638h-.104c-.159-.364-.267-.918-.322-1.661-.054-.744-.111-1.207-.172-1.389.031-.395.085-.865.165-1.411.149-.364.448-.622.897-.773l.179.182c.3-.819.769-2.261 1.407-4.324.587-1.911 1.062-3.338 1.42-4.278l-.044-.638c.02-.395.104-.667.254-.819.14-.121.274-.121.403 0l.12-.228h.194zm4.321 15.385c.051.364.19.873.42 1.525.229.652.384 1.267.463 1.844l-.135.318.061.5c-.271.547-.405 1.306-.405 2.276v3.732c.021.151.031.334.031.546 0 .213-.033.517-.098.91a6.208 6.208 0 0 0-.098.911c0 .151.01.304.03.455l-.209.546h-.135c-.329.607-.732.82-1.212.638-1.266-.485-2.108-.729-2.527-.729-2.243 0-3.779.683-4.606 2.048-.1-.395-.172-1.047-.218-1.957-.045-.91-.121-1.547-.231-1.912v-.819c.259-.455.419-1.577.479-3.368.01-.121.03-.409.06-.864.031-.455.046-.789.046-1.002 0-.272-.046-.659-.135-1.16-.09-.501-.135-.842-.135-1.024 0-.395.058-.759.172-1.093.114-.333.237-.516.366-.546l.27.228c1.058-.85 2.343-1.274 3.858-1.274.798 0 1.252.016 1.361.046s.329.121.658.272c.269.122.483.183.643.183l.599-.046c.05-.637.258-1.032.627-1.184zM71.548 56.86c1.516-.607 2.657-.911 3.425-.911.21 0 1.326.152 3.351.455l-.105-4.46c-.906-.668-1.859-1.002-2.856-1.002-1.535 0-2.662.304-3.38.91-.089.092-.169.319-.239.684-.141.819-.206 2.261-.196 4.324zM83.447 32.28h.538c-.05.729-.304 1.791-.763 3.187s-.688 2.412-.688 3.05c.389 1.973.673 3.565.852 4.779v1.82l-.044.819c-.16.152-.475.896-.942 2.23-.399 1.123-.674 2.154-.823 3.096-.129.788-.283 2.837-.464 6.145-.159 2.974-.358 4.855-.598 5.645-.239-.426-.358-1.411-.358-2.959 0-3.096.169-6.13.508-9.104.359-3.156.868-5.781 1.525-7.875-.02-.485-.194-1.38-.522-2.686-.101-.121-.2-.182-.3-.182-.419 0-.777.88-1.076 2.64-.25-.333-.395-.842-.435-1.524s-.074-1.358-.104-2.025c.01-.516.025-1.032.045-1.548.02-.698.11-1.077.27-1.138l.239.228c.239-.364.543-.94.912-1.729.14-.273.517-.819 1.13-1.639s.978-1.23 1.098-1.23zm4.157-.697c.14 0 .314.303.524.91l.448 1.365.029 1.775c-.139.182-.229.531-.269 1.047l.061.592 2.407.228c.03 0 .077-.022.143-.068.064-.046.111-.068.142-.068.498 0 .772.016.823.046.229.091.464.455.702 1.092l-.074.956c-.11.243-.244.652-.403 1.229-.2.728-.325 1.168-.374 1.319-.29-.151-.724-.349-1.302-.592a4.582 4.582 0 0 0-1.496-.228c-.109 0-.204.091-.284.273.32 1.335.828 2.883 1.525 4.643.719 1.852 1.317 3.064 1.796 3.642.169.242.538.576 1.105 1.001.469.334.828.744 1.077 1.233l.21.914c-.21.548-.573 1.232-1.092 2.056-.548.88-.938 1.381-1.166 1.502-.41-.668-.854-1.808-1.332-3.421a866.159 866.159 0 0 1-1.166-3.968c-.369-.941-.888-2.443-1.556-4.507l.075 1.184c0 .273-.011.683-.03 1.229-.021.546-.03.955-.03 1.229l.075 2.731c.069.151.159.22.269.204.11-.015.19.008.239.068.27.03.543.046.823.046.249.121.473.503.673 1.142-.061.489-.21 1.252-.449 2.287-.13.122-.254.183-.374.183-.109 0-.266-.046-.471-.137s-.361-.137-.471-.137c-.08 0-.165.046-.254.137-.061.546-.091 1.836-.091 3.869 0 1.76-.179 3.171-.538 4.232l-.209-.409c-.091-.728-.149-2.071-.18-4.028s-.052-2.997-.067-3.118-.062-.212-.142-.272a1.112 1.112 0 0 0-.225-.137c-.579.151-1.032.5-1.361 1.047a14.428 14.428 0 0 1-.239-2.739c0-.518.104-1.051.314-1.599l.418.273 1.271-.503c0-1.062.025-2.321.075-3.777-.01-.638-.015-1.214-.015-1.73 0-.485.005-.864.015-1.138-.359.789-.828 2.063-1.406 3.823-.648 2.003-1.116 3.357-1.406 4.058-.558 1.371-1.105 2.3-1.645 2.785l-.06-.637c-.149 0-.3-.245-.449-.732-.179-.548-.304-.868-.374-.959.07-.396.154-.718.254-.96.159-.366.43-.709.809-1.028.379-.318.647-.645.807-.979.888-1.699 1.88-4.536 2.977-8.512-.906 0-1.734.622-2.482 1.866-.149-.789-.225-1.699-.225-2.73 0-.729.051-1.244.149-1.548.498-.334 1.003-.668 1.512-1.002.597-.363 1.105-.516 1.525-.455.02-.606.063-1.319.134-2.139l-.299-2.321c0-.456.055-.835.165-1.139.039 0 .116-.083.231-.25.118-.166.185-.249.204-.249z"/><path fill="#B2B2B2" d="M97.441 48.029v.501l-.27 1.639-1.914 5.188a21.37 21.37 0 0 0-.539 1.594 11.092 11.092 0 0 0-.374 2.003h-.493c-.109-.456-.164-1.017-.164-1.685 0-.334.022-.88.067-1.639.044-.759.063-1.335.052-1.729.04-.395.125-.743.255-1.047.179-.273.428-.683.748-1.229l.718-1.365c.188-.364.572-.956 1.151-1.775.22-.303.474-.456.763-.456zm-1.346-8.511c.439 0 .809.304 1.107.91a5.99 5.99 0 0 1-1.361 2.186c-.738.789-1.211 1.35-1.421 1.684l-.269-1.001c0-2.337.184-3.581.553-3.732H95.542c.249-.032.434-.047.553-.047zm4.907 3.504c.139 0 .323.197.553.592.169.304.344.607.523.91l.015 1.002c0 .303-.04.599-.12.888-.079.288-.154.568-.224.842-.05.425-.139 1.047-.27 1.866.03-.03.061-.046.09-.046.189 0 .314.592.374 1.775 1.994 4.34 3.929 6.722 5.804 7.146v.182c.01.516-.154 1.32-.494 2.413a40.825 40.825 0 0 1-.539 2.048h-.208c-.43.061-.868-.213-1.317-.819-.647-.819-1.405-2.14-2.272-3.96a43.76 43.76 0 0 1-2.049-5.007c-.449 2.185-.997 4.081-1.646 5.69-.787 1.941-1.53 2.912-2.228 2.912-.728 0-1.092-.561-1.092-1.684 0-.486.287-1.017.859-1.594a12.477 12.477 0 0 0 1.504-1.82c.558-.789 1.132-2.443 1.72-4.962s.883-4.688.883-6.509l-.046-1.229c-.02-.423.04-.636.18-.636zm-.913-11.197c.219 0 .568.288 1.047.865l.06 1.184c.01.242-.024.5-.104.773l-.194.592c-.04.243-.09 1.001-.149 2.277.937-.335 1.79-.502 2.558-.502.657 0 1.291.091 1.899.274l.165-.594.269-.409c.34.151.663 1.111.973 2.877-.249.58-.52 1.812-.809 3.692-.249 1.669-.608 2.822-1.076 3.46-.22.272-.419.409-.599.409-.239 0-.398-.258-.479-.773.101-.485.329-1.229.688-2.23a11.9 11.9 0 0 0 .659-2.686c-1.098-.455-1.801-.683-2.109-.683.04 0-.3.091-1.017.272l-1.512.41a14.823 14.823 0 0 1-.972 3.322c-.508 1.184-.947 1.775-1.316 1.775-.418 0-.628-.395-.628-1.184 0-.333.056-.622.164-.864.718-1.578 1.231-3.02 1.541-4.328.25-1.065.453-2.436.613-4.108-.05-.697-.165-1.684-.344-2.958.019-.575.243-.863.672-.863zM112.86 30.384c.429.213.679.941.747 2.186l-.149 1.866c.27.119.537.263.801.428.264.167.432.765.502 1.793l-.105.544c-.31.514-.608.771-.897.771-.09 0-.16.045-.209.136-.149.789-.225 1.912-.225 3.368 0 .517.01 1.298.029 2.345.021 1.047.03 1.828.03 2.344l-.104 3.187c.199.212.364.318.494.318h.134a.345.345 0 0 1 .135-.045c.159 0 .464.485.912 1.456l-.074.956c-.119.091-.259.288-.419.592-.209.425-.339.683-.39.773l-2.153-1.138a2.58 2.58 0 0 1-.522-.228c-.101.151-.325.242-.674.273-.489.061-.738.091-.748.091-.438.151-.893.652-1.361 1.502-.519.94-.897 1.502-1.137 1.684-.089-.272-.145-.728-.164-1.365a34.64 34.64 0 0 0-.09-1.456l.165-.092-.09-1.047a17.675 17.675 0 0 1 1.854-1.957c.089-.94.135-1.639.135-2.094 0-4.127-.015-6.539-.046-7.237l.136-.592a16.12 16.12 0 0 1-.016-.864c0-.304-.024-.592-.074-.865-.159.121-.408.183-.748.183l-.449.091-.09-1.231c.01-.364.024-.766.045-1.206.02-.439.08-.705.179-.797l.254.273c.07-.151.234-.228.494-.228.199 0 .369-.149.508-.447l-.164-2.814.195-.729.807.501.195 1.001-.046 1.683.135.358c.659-.328 1.183-.493 1.571-.493.139 0 .273.061.403.182.02-.88.024-2.094.015-3.641l.269-.319zm-2.831 23.26c.129.151.264.304.403.455.109.121.199.439.269.956a69.908 69.908 0 0 1-.164 1.866c-.039.364-.199 1.146-.479 2.345-.279 1.197-.483 1.994-.613 2.389-.259.82-.558 1.229-.897 1.229a.376.376 0 0 1-.164-.046c-.07-.607-.104-.986-.104-1.138 0-.667.254-1.79.763-3.368.557-1.7.886-3.263.986-4.688zm.677-6.646c-.288 0-.488.137-.598.409-.05.455-.074.835-.074 1.138 0 .334.024.562.074.684.109 0 .544-.046 1.302-.137.528-.091.962-.076 1.301.045l-.135-2.002-.359.136c-.169 0-.421-.045-.755-.136-.334-.092-.585-.137-.756-.137zm-.527-4.248l-.075 1.365.03.637c.318-.303.533-.455.643-.455.03 0 .079.023.149.068.07.046.12.068.149.068.868-.121 1.347-.151 1.437-.091.02-.243.055-.546.104-.91 0-.425-.015-.676-.044-.751-.029-.076-.112-.114-.246-.114a3.17 3.17 0 0 1-.562-.068 3.238 3.238 0 0 0-.554-.068h-.299c-.249 0-.493.106-.732.319zm.094-5.038l-.135.911.104.91 2.333-.046v-1.775l-.359-.272h-.479c-.169 0-.419.045-.748.137-.327.09-.566.135-.716.135zm3.33 24.307c-.169.425-.328.714-.478.865-.2-.364-.401-1.001-.606-1.912-.203-.91-.331-1.714-.381-2.412l-.135-1.73c-.09-.728-.135-1.305-.135-1.729 0-.091.016-.182.045-.272h.313l.225.364c.31.485.586 1.486.83 3.004s.353 2.789.322 3.822zm7.169-29.997c.01.03.154.304.434.819.18.304.269.698.269 1.184 0 .182-.01.395-.029.638-.359.788-.538 1.866-.538 3.231 0 .516.013 1.282.037 2.299.025 1.017.038 1.782.038 2.298a9.2 9.2 0 0 1-.038.684c-.024.303-.037.53-.037.683 0 .364.01.88.029 1.547.03.759.051 1.29.061 1.594.02 1.486.04 3.869.06 7.146 0 .577.022 1.487.067 2.731s.067 2.186.067 2.822c0 1.912-.165 3.141-.494 3.688-.188-.426-.323-.941-.403-1.548 0-.03-.05-.653-.149-1.866l.045-.501c-.11-3.854-.165-6.706-.165-8.558a1.287 1.287 0 0 0-1.092-.546c-.897 0-1.71.242-2.438.729-.1.546-.229 2.078-.39 4.597-.118 1.852-.384 3.187-.792 4.006-.169.364-.379.547-.628.547a.426.426 0 0 1-.314-.137l-.194-.82c.109-.85.309-1.911.599-3.186.349-1.518.572-2.549.673-3.096.598-3.489.896-8.8.896-15.931-.119-.425-.254-.698-.403-.819-.149-.485-.225-1.26-.225-2.321l.075-.683 2.542-.547c.041 0 .108.023.202.068a.58.58 0 0 0 .187.068h.704a.401.401 0 0 0 .142-.045.384.384 0 0 1 .157-.046c.14 0 .289.106.448.318l.225-1.047h.372zm-3.819 12.097l-.149 2.194.015 1.094c.679-.455 1.276-.683 1.796-.683.029 0 .478.091 1.346.273l.016-.594-.136-2.561c-.02-.336-.125-.427-.313-.274-.19-.122-.594-.183-1.212-.183-.58.002-1.034.247-1.363.734zm.08-4.465c0 .151.021.288.06.41.628-.638 1.246-.956 1.854-.956.369 0 .664.182.883.546l.075-1.639-.075-1.866a151.355 151.355 0 0 0-1.795-.455c-.448.364-.684.562-.703.592-.119.212-.179.819-.179 1.82a7.3 7.3 0 0 1-.061.751c-.038.35-.059.616-.059.797z"/><path fill="#B2B2B2" d="M127.706 43.94l-.105 1.007c-.148.275-.408.412-.777.412s-.608.137-.718.409c.09.941.324 1.699.703 2.276l.987 1.365-.18 2.367-.523.91c-.159-.03-.313-.182-.463-.455-.249-.395-.39-.607-.42-.638-.079.364-.119 1.472-.119 3.323 0 1.608-.045 3.231-.135 4.871-.12 2.366-.304 3.55-.553 3.55-.12-.638-.19-1.441-.21-2.413v-2.503c0-.485-.01-1.222-.029-2.208-.021-.986-.03-1.722-.03-2.207 0-2.519-.016-4.006-.045-4.461-.209.485-.509 1.274-.897 2.367-.738 2.67-1.137 4.096-1.197 4.278-.548 1.639-1.066 2.458-1.555 2.458-.12 0-.249-.304-.389-.91-.09-.486-.186-.956-.284-1.411v-1.093c.607-.151 1.355-1.305 2.243-3.459a45.135 45.135 0 0 0 1.854-5.599l-.27-.183c-.668 0-1.325.698-1.975 2.094-.179-.151-.293-.485-.343-1.001a92.644 92.644 0 0 1-.135-1.502l.104-1.326.359-.914.345.183c.389-.427 1.191-.869 2.407-1.326.01-.395.015-.759.015-1.092 0-.881-.035-1.563-.108-2.049v-1.001c-.08.03-.29.182-.628.455-.3.272-.494.379-.584.318l-.523-.273-.104-.683v-.272a4.63 4.63 0 0 1 .104-.547c.159-.303.398-.713.718-1.229.18-.121.448-.334.808-.638.708-.667 1.137-1.577 1.286-2.73l.345-.41.896.819c.051.243.077.554.082.934.005.379.023.645.053.796l-.06.41c-.798.455-1.495 1.411-2.094 2.867.06.273.215.425.464.455.209.062.313.289.313.684 0 .272-.046.697-.14 1.274-.093.576-.14.985-.14 1.229 0 .151.016.334.045.546.109.183.225.259.344.228.369-.061.564-.091.584-.091.32.002.544.582.674 1.739zm4.961-3.193c.199.091.394.182.583.272.24.152.404.44.494.865v1.229l.478.729c.141 0 .409-.242.809-.729l.613.729.164 2.185c-.768.819-1.332 1.639-1.689 2.458-.21.486-.613 1.73-1.212 3.732-.369 1.214-.968 2.898-1.795 5.053-.857 2.246-1.49 3.748-1.899 4.506-.329.607-.629.911-.897.911-.26 0-.748-.364-1.466-1.093v-1.047l.269-.637.181.045c.368-.334.896-.91 1.585-1.729.468-.759.967-1.729 1.496-2.913.638-1.396 1.071-2.579 1.301-3.551-.26-1.274-.668-1.973-1.227-2.094-.469.668-.942 1.123-1.421 1.365-.18-.061-.429-.288-.748-.683-.06-.272-.09-.53-.09-.773 0-.516.075-.902.225-1.161.149-.258.309-.387.479-.387.11-.242.369-.5.778-.773.339-.243.598-.743.777-1.502l.225.091a55.9 55.9 0 0 0 .823-2.003 60.23 60.23 0 0 1 .553-1.775c.237-.79.442-1.229.611-1.32zm.523-8.648c-.149.91-.459 1.548-.928 1.911a2.477 2.477 0 0 0-.912 1.411c.109.486.274 1.093.493 1.821.109-.183.345-.668.703-1.457.398-.819.613-1.305.644-1.456.02-.061.029-.281.029-.66 0-.38.08-.569.239-.569.07.061.145.137.225.228l.389-.409c.041.03.249.137.628.318.2.091.389.41.569.956 0 .425-.075.834-.225 1.229-.1.243-.429.668-.987 1.274-.618.668-1.007 1.123-1.166 1.366-.279.485-.703 1.381-1.271 2.686-.529 1.244-.952 2.124-1.272 2.64-.488.759-.987 1.138-1.495 1.138-.079 0-.384-.318-.912-.955l-.09-1.048c.27-.333.498-.5.688-.5.479 0 1.326-1.153 2.542-3.46-.229-1.092-.498-1.729-.808-1.911-.539.85-1.052 1.396-1.541 1.639l-.269-.228-.18-.819c.149-.485.499-1.093 1.047-1.821.708-.91 1.13-1.486 1.265-1.729.134-.242.261-.485.381-.729l.448-1.183c.2-.517.364-.774.494-.774.039 0 .109.023.21.068a.596.596 0 0 0 .224.068c.249 0 .409.03.479.091.16.09.279.378.359.864zm-1.376 14.702l.06.455.658 2.14c.149-.122.35-.592.599-1.411.299-.941.503-1.518.613-1.73l.015-.363c0-.062-.07-.835-.21-2.321-.368.121-.686.516-.949 1.183a93.872 93.872 0 0 0-.786 2.047zM139.675 39.897l.12.364a6.697 6.697 0 0 1-.367 1.547 6.035 6.035 0 0 0-.336 1.729c.429 1.578.643 3.293.643 5.144 0 1.487-.164 3.141-.493 4.962a32.844 32.844 0 0 1-1.047 4.188c-.189.576-.658 1.608-1.405 3.095-.479.941-.848 1.412-1.107 1.412-.418 0-.737-.395-.957-1.184.029-1.153.209-2.079.539-2.777.118-.242.299-.47.538-.683.339-.334.528-.531.567-.592.52-.606 1.077-1.79 1.676-3.55.668-1.973 1.002-3.688 1.002-5.144 0-1.305-.18-2.307-.538-3.005-.08.092-.199.243-.359.456-.03.03-.284.652-.762 1.866-.051.121-.19.303-.42.546-.149.151-.254.47-.313.956-.12-.759-.18-1.518-.18-2.276 0-1.608.214-2.7.643-3.277l.225.228c.379-.789.753-1.577 1.122-2.366.506-1.002.91-1.548 1.209-1.639zm.255-7.738l.149.318-.074 1.184c-.12.061-.244.364-.374.91-.16.638-.28 1.032-.359 1.184-.399.698-.957 1.184-1.676 1.457-.1.121-.239.258-.418.409l-.27-2.321c.021-2.124.274-3.217.763-3.277l.194.865c.867-.516 1.431-.774 1.69-.774.12-.001.245.015.375.045zm6.825 8.785c.069 0 .179.053.328.159s.25.174.3.205h.284c.907.333 1.471.47 1.689.409l-.658 2.64a44.066 44.066 0 0 1-.418 2.003 94.611 94.611 0 0 0-1.002-1.001c-.389-.334-.729-.485-1.017-.455h-.15c-.149.546-.224.956-.224 1.229 0 .091.005.183.015.273l.029 3.687c0 .091-.005.251-.015.479s-.015.401-.015.523l.179 5.917c-.1.852-.269 2.082-.508 3.696-.069.366-.404.778-1.002 1.235-.539.395-.918.592-1.137.592-.07 0-.168-.046-.292-.137-.125-.092-.227-.137-.307-.137-.04-.092-.154-.182-.345-.273-.129-.091-.224-.305-.283-.641-.05-.121-.24-.41-.568-.867-.22-.336-.384-.76-.493-1.278l.089-1.371.329-.638.613.455c1.316 0 2.204-.485 2.662-1.456.16-.85.239-1.487.239-1.912 0-.576-.01-1.441-.029-2.594a163.75 163.75 0 0 1-.03-2.595c0-.243.011-.6.03-1.07.02-.47.029-.826.029-1.069 0-.546-.063-.986-.187-1.32a63.336 63.336 0 0 1-.366-1.001c-.768.213-1.262.364-1.48.455a4.258 4.258 0 0 0-1.467.956c-.079.091-.323.212-.732.364-.289.091-.523.364-.702.819-.091-.273-.135-.638-.135-1.093 0-.425.02-1.017.06-1.775.109-.546.283-.985.522-1.319.07-.091.41-.319 1.018-.683 1.526-.941 2.912-1.411 4.158-1.411h.989zm-1.082-7.965c.968 0 1.675.304 2.124.91-.03.425-.145.94-.345 1.548-.198.606-.369.91-.508.91-.14 0-.22.273-.24.819-.149-.395-.313-.592-.493-.592-.169 0-.429.03-.777.091a4.91 4.91 0 0 1-.777.092c-.748 0-1.217.015-1.406.045-.539.152-.987.485-1.346 1.002l-.166-.183-.508.183c-.06-.152-.089-.501-.089-1.047 0-.698.024-1.214.074-1.548.02-.183.114-.607.284-1.274l.238.137c.868-.729 2.18-1.093 3.935-1.093z"/><path d="M57.857 30.917c.1.546.266.91.494 1.093.31.242.493.425.554.546l.06 1.138-.299 2.276c.488.303 1.254.554 2.296.751 1.041.197 1.817.447 2.325.751l.27-.819.314.091c.01.273.109.622.299 1.047.14.304.273.606.403.91 0 .273-.048.668-.142 1.184-.095.516-.143.896-.143 1.138 0 .183.015.395.045.638-.02 1.092-.03 2.17-.03 3.231 0 2.519.07 5.098.21 7.738-.08 1.092-.169 1.941-.269 2.549v.592c-.21.304-.27.85-.181 1.639-.198.546-.563 1.214-1.091 2.003l-.27-.273-.209.137c-1.227-.819-2.09-1.229-2.588-1.229-.369 0-.917.03-1.646.091a20.99 20.99 0 0 1-1.63.092c-1.197 0-2.563.667-4.098 2.003-.12-.547-.26-1.214-.42-2.003v-.183c.229-1.426.385-3.413.464-5.963.029-2.063.065-4.142.104-6.235 0-.455.05-1.229.149-2.321.08-1.002.12-1.775.12-2.321l-.015-.455-.27-.547-.225-1.82.075-1.548c.06-.212.164-.334.313-.364s.27-.151.359-.364c.22 0 .387.243.502.729.114.485.222.729.321.729.069 0 .299-.137.688-.41.439-.272.693-.439.763-.5a15.18 15.18 0 0 1 1.869-.683c0-.183-.029-.714-.089-1.594-.061-.88-.085-1.365-.075-1.456l.075-1.229.299-.637.319-.142zm-1.086 8.588c-1.386 0-2.304.53-2.752 1.593l-.061 1.229.09.592c.159 0 .387-.113.681-.341s.517-.342.666-.342c.06 0 .151.016.276.046.124.03.217.045.276.045.181 0 .454-.045.823-.136.369-.092.647-.137.837-.137.07 0 .265.045.584.137l.029-.183c.061.243.109.364.15.364.029 0 .072-.022.127-.068s.102-.068.142-.068h.419c.189.042.329.061.418.061.101 0 .248-.03.442-.091s.342-.091.441-.091c.119 0 .309.076.567.228l.239-.455c.279.121.599.318.958.592-.051 1.426-.285 2.245-.703 2.458l-1.077.272-.554-.182H58.7c-.109 0-.271.021-.485.061a2.732 2.732 0 0 1-.487.061c-2.093 0-3.385.565-3.873 1.693l-.03 1.189c.22.243.435.364.644.364l.194-.137.239.137c-.06 0 .14-.091.599-.273 1.167-.396 1.904-.548 2.213-.457.928.306 1.486.442 1.676.412l.18-.319c.09.273.319.41.688.41.1 0 .249-.038.447-.114.2-.075.354-.113.464-.113.149 0 .35.03.599.091.34.091.543.137.613.137l-.06.546.06.501c-.349 1.274-.728 2.033-1.137 2.275-.129 0-.314.062-.554.183-1.586-.485-2.482-.729-2.691-.729-1.565 0-2.803.349-3.71 1.047l-.538-.272c-.1.546-.194 1.79-.284 3.732l.15.182c1.914-1.001 3.992-1.502 6.235-1.502l2.379 1.047c.069.03.457-.046 1.162-.228.02-.152.029-.743.029-1.777 0-.182.015-.334.045-.455-.011-.668-.05-1.822-.119-3.463a84.376 84.376 0 0 1-.1-3.511c0-.213.006-.539.02-.979.014-.44.02-.769.02-.98l-.039-2.551c-.359-.668-.963-1.002-1.811-1.002l-.27-.228-.149.046-2.049-.41c-.079-.03-.255-.105-.523-.228-.22-.091-.394-.136-.523-.136l-1.002.318c-.01 0-.035-.016-.075-.046s-.066-.045-.076-.045zM67.454 41.295l.075.228c.02.121.029.409.029.865 0 .151.01.272.029.363-.089.729-.411 1.503-.964 2.322-.553.818-.859 1.486-.92 2.002l-.328.183c-.15-.577-.271-1.882-.359-3.915l.135-.228c.01-.182.024-.318.044-.409s.212-.312.576-.66c.363-.349.595-.554.695-.614.221.06.55.014.988-.137zm.897 7.783c.011.152.016.273.016.364 0 .273-.021.592-.06.956-.04.455-.06.759-.06.91-.04 1.063-.292 2.693-.756 4.894-.464 2.199-.695 3.967-.695 5.303l-.194.363c-.229 0-.395-.349-.494-1.047-.079-.606-.154-1.213-.224-1.82-.08-.243-.165-.698-.254-1.365.159-.91.363-1.942.612-3.096.1-.455.359-1.319.778-2.594.418-1.275.7-2.071.845-2.39.145-.319.307-.478.486-.478zm-.343-16.522c.089-.03.284.242.583.819l.568-.091c.02.182.029.47.029.864-.109 0-.229.183-.358.547-.159.455-.265.713-.313.773l-.479.729c-.18.303-.474.538-.882.705-.409.167-.714.417-.913.751l-.135-.091c-.149-.759-.224-1.381-.224-1.866l.089-1.548-.059-.819c.198-.455.408-.697.628-.729.08 0 .164-.03.254-.091l.313.364.899-.317zm5.608-2.094c.03.425.177.918.441 1.479.265.561.396 1.069.396 1.524 0 1.032-.323 1.639-.972 1.82-.578 1.123-1.092 2.762-1.541 4.916l.061.046c.219-.121.313-.183.284-.183l.193.137.345-.182c.061.061.125.121.194.182.149 0 .653-.061 1.511-.182a16.003 16.003 0 0 1 1.511-.091c.13 0 .309.061.538.182.27.121.449.197.539.228-.109-.668-.215-1.351-.314-2.048-.149-.88-.304-1.396-.464-1.548l-.328-.729v-1.092l.029-.547.553-.409c.34.121.789.88 1.347 2.275.159.88.314 1.753.464 2.617.149.865.225 1.844.225 2.937 0 .151-.005.401-.015.751a24.44 24.44 0 0 0-.017.796c-.059.03-.164.145-.313.342s-.269.296-.358.296c-.021 0-.494-.213-1.421-.638-.14-.061-.359-.075-.659-.045-.418.061-.638.091-.657.091-1.037 0-2.638.318-4.801.956-.379.121-.669.395-.867.819-.15.455-.25.667-.3.637h-.105c-.159-.364-.266-.918-.321-1.661-.055-.743-.111-1.206-.172-1.389.03-.395.085-.864.165-1.41.149-.364.448-.622.897-.774l.179.183c.3-.819.769-2.261 1.407-4.324.587-1.912 1.061-3.338 1.42-4.279l-.044-.637c.02-.395.104-.668.254-.819.14-.121.274-.121.403 0l.12-.228h.193zm4.322 15.385c.051.364.189.872.419 1.524.229.652.384 1.268.463 1.844l-.134.318.06.501c-.27.546-.404 1.305-.404 2.275v3.732c.021.152.03.334.03.547 0 .212-.032.516-.098.91a6.168 6.168 0 0 0-.097.91c0 .151.01.304.029.455l-.208.547h-.135c-.329.606-.733.819-1.212.637-1.267-.485-2.109-.729-2.527-.729-2.243 0-3.78.683-4.606 2.049-.101-.395-.173-1.047-.218-1.957-.045-.911-.122-1.548-.231-1.912v-.818c.259-.455.418-1.578.479-3.368.01-.121.029-.41.06-.865s.045-.789.045-1.001c0-.273-.045-.66-.134-1.161-.09-.5-.135-.842-.135-1.023 0-.395.058-.759.172-1.093s.236-.516.366-.546l.269.228c1.058-.85 2.344-1.274 3.859-1.274.797 0 1.251.015 1.361.045.109.03.329.122.657.273.27.121.484.182.644.182l.599-.045c.049-.639.258-1.034.627-1.185zM70.535 55.86c1.516-.606 2.657-.91 3.425-.91.21 0 1.326.151 3.351.455l-.105-4.461c-.907-.667-1.859-1.001-2.856-1.001-1.535 0-2.662.303-3.38.91-.089.091-.17.318-.239.683-.141.819-.206 2.261-.196 4.324zM82.435 31.281h.538c-.05.729-.304 1.79-.763 3.186s-.688 2.413-.688 3.05c.389 1.973.673 3.565.852 4.779v1.821l-.045.819c-.159.151-.474.895-.941 2.23-.399 1.122-.674 2.154-.823 3.095-.13.789-.284 2.837-.464 6.145-.159 2.974-.359 4.855-.599 5.645-.238-.425-.357-1.411-.357-2.959 0-3.095.169-6.129.508-9.104.359-3.155.868-5.78 1.525-7.874-.02-.485-.194-1.381-.523-2.686-.1-.121-.199-.183-.3-.183-.418 0-.777.881-1.076 2.641-.249-.334-.394-.842-.434-1.525-.04-.683-.074-1.357-.105-2.025.01-.516.026-1.031.046-1.547.02-.698.109-1.078.269-1.139l.24.228c.239-.364.543-.94.912-1.729.139-.272.516-.819 1.129-1.639s.978-1.229 1.099-1.229zm4.157-.698c.14 0 .314.304.524.91l.448 1.366.029 1.774c-.14.183-.229.531-.269 1.047l.06.592 2.408.228c.029 0 .077-.022.143-.068.064-.045.111-.067.142-.067.498 0 .772.015.822.045.229.091.464.455.703 1.093l-.074.956c-.11.242-.245.652-.404 1.229a40.253 40.253 0 0 1-.374 1.32c-.289-.152-.723-.35-1.302-.592a4.55 4.55 0 0 0-1.495-.228c-.11 0-.204.091-.284.272.319 1.336.828 2.883 1.525 4.644.718 1.851 1.316 3.064 1.796 3.641.169.243.538.577 1.105 1.002.469.334.828.743 1.077 1.232l.21.914c-.21.548-.574 1.233-1.092 2.056-.549.881-.938 1.381-1.167 1.503-.409-.668-.853-1.808-1.331-3.422a704.884 704.884 0 0 1-1.166-3.968c-.369-.94-.888-2.442-1.557-4.506l.075 1.184c0 .272-.01.683-.029 1.229-.021.546-.031.956-.031 1.229l.075 2.73c.069.152.16.22.27.205.109-.016.189.008.239.068.27.03.543.045.823.045.249.122.473.503.673 1.143-.061.489-.21 1.251-.449 2.287-.13.121-.254.182-.374.182-.11 0-.267-.045-.471-.137-.205-.091-.361-.136-.471-.136-.08 0-.166.045-.255.136-.061.547-.09 1.836-.09 3.869 0 1.76-.179 3.171-.538 4.233l-.21-.41c-.09-.728-.149-2.07-.179-4.028-.03-1.957-.053-2.996-.067-3.117-.016-.122-.063-.213-.143-.273s-.154-.106-.225-.137c-.578.152-1.031.501-1.361 1.047a14.425 14.425 0 0 1-.239-2.738c0-.518.105-1.051.314-1.599l.419.272 1.271-.502c0-1.063.025-2.321.075-3.778-.011-.637-.016-1.214-.016-1.729 0-.485.005-.865.016-1.138-.359.789-.828 2.063-1.406 3.823-.648 2.003-1.116 3.356-1.406 4.057-.559 1.371-1.106 2.301-1.646 2.786l-.06-.638c-.148 0-.299-.244-.448-.731-.18-.549-.304-.869-.374-.96.07-.396.154-.717.254-.96.159-.365.43-.709.809-1.027.379-.319.647-.646.807-.979.888-1.699 1.88-4.537 2.977-8.512-.907 0-1.735.622-2.482 1.866-.149-.789-.225-1.699-.225-2.731 0-.729.05-1.244.149-1.548.498-.334 1.003-.667 1.511-1.001.598-.364 1.106-.516 1.525-.455.021-.607.064-1.32.135-2.14l-.299-2.321c0-.455.055-.834.164-1.138.04 0 .117-.084.231-.251.118-.166.185-.25.205-.25z"/><path d="M96.429 47.03v.5l-.27 1.639-1.914 5.189a21.068 21.068 0 0 0-.539 1.593 11.108 11.108 0 0 0-.374 2.003h-.493c-.11-.455-.164-1.017-.164-1.685 0-.333.022-.88.066-1.638.045-.759.063-1.336.053-1.73.04-.395.125-.743.254-1.047.18-.272.429-.683.748-1.229.159-.304.398-.759.719-1.365.188-.364.572-.956 1.151-1.775.22-.303.474-.455.763-.455zm-1.347-8.511c.439 0 .809.303 1.107.91a5.978 5.978 0 0 1-1.361 2.185c-.738.789-1.211 1.351-1.421 1.685l-.269-1.002c0-2.336.184-3.58.553-3.732H94.529a4.71 4.71 0 0 1 .553-.046zm4.906 3.504c.14 0 .323.197.554.592.169.303.344.606.522.91l.016 1.001c0 .304-.04.6-.12.888a52.26 52.26 0 0 0-.224.842c-.051.425-.14 1.047-.27 1.866.03-.03.06-.045.09-.045.189 0 .314.592.374 1.775 1.994 4.339 3.929 6.721 5.803 7.146v.183c.011.516-.154 1.319-.493 2.412-.109.485-.29 1.168-.539 2.048h-.209c-.429.062-.867-.212-1.316-.819-.647-.819-1.405-2.139-2.273-3.96a43.93 43.93 0 0 1-2.048-5.007c-.449 2.186-.998 4.082-1.646 5.69-.787 1.941-1.53 2.913-2.228 2.913-.729 0-1.092-.562-1.092-1.685 0-.485.286-1.017.859-1.593a12.477 12.477 0 0 0 1.503-1.821c.559-.789 1.132-2.442 1.721-4.961.588-2.519.883-4.688.883-6.509l-.046-1.229c-.02-.425.04-.637.179-.637zm-.913-11.197c.22 0 .569.288 1.048.864l.06 1.184c.01.243-.025.501-.105.773l-.193.592c-.041.243-.09 1.002-.149 2.278.937-.336 1.789-.503 2.557-.503a6.52 6.52 0 0 1 1.899.275l.165-.594.27-.41c.339.152.663 1.111.973 2.878-.25.58-.52 1.811-.809 3.692-.249 1.669-.608 2.822-1.076 3.459-.22.273-.419.41-.599.41-.239 0-.398-.259-.479-.774.1-.485.329-1.229.688-2.23.319-.85.539-1.744.658-2.686-1.097-.455-1.8-.683-2.108-.683.039 0-.3.091-1.017.273l-1.512.409c-.18 1.093-.504 2.2-.972 3.323-.509 1.184-.947 1.775-1.316 1.775-.419 0-.628-.395-.628-1.184a2.1 2.1 0 0 1 .164-.865c.718-1.578 1.231-3.02 1.541-4.328.249-1.065.453-2.435.613-4.107-.051-.698-.165-1.685-.344-2.959.019-.574.243-.862.671-.862zM111.847 29.385c.43.212.679.94.748 2.185l-.149 1.866c.27.119.536.264.801.429.264.167.431.765.501 1.792l-.104.545c-.31.514-.608.77-.897.77-.09 0-.16.046-.21.137-.149.789-.224 1.911-.224 3.368 0 .516.01 1.297.029 2.344.021 1.047.03 1.828.03 2.345l-.104 3.186c.199.213.364.319.493.319h.135a.346.346 0 0 1 .135-.046c.159 0 .464.485.912 1.457l-.074.955c-.12.092-.26.289-.42.592-.208.425-.338.683-.389.774l-2.153-1.139a2.55 2.55 0 0 1-.523-.228c-.1.152-.324.243-.674.273-.488.061-.737.091-.747.091-.438.152-.893.652-1.361 1.502-.519.941-.897 1.502-1.137 1.685-.089-.273-.145-.729-.164-1.365-.04-.789-.07-1.274-.09-1.457l.165-.091-.09-1.047a17.318 17.318 0 0 1 1.854-1.957c.089-.941.135-1.639.135-2.094 0-4.127-.016-6.54-.046-7.237l.136-.592a16.188 16.188 0 0 1-.016-.865 4.87 4.87 0 0 0-.074-.864c-.159.121-.409.182-.748.182l-.449.091-.089-1.229c.01-.364.024-.767.044-1.206.021-.44.081-.706.18-.797l.254.273c.07-.152.234-.228.494-.228.199 0 .368-.15.508-.448l-.164-2.814.195-.729.807.501.195 1.002-.046 1.682.135.358c.658-.328 1.182-.493 1.57-.493.14 0 .274.061.404.183.02-.88.024-2.094.015-3.642l.267-.319zm-2.831 23.259c.13.152.265.304.404.455.109.122.199.44.269.956a69.908 69.908 0 0 1-.164 1.866c-.039.364-.2 1.146-.479 2.345-.279 1.198-.484 1.995-.613 2.39-.26.819-.559 1.229-.897 1.229a.372.372 0 0 1-.164-.046c-.07-.606-.104-.985-.104-1.138 0-.667.254-1.79.762-3.368.557-1.7.886-3.263.986-4.689zm.677-6.646c-.289 0-.488.137-.599.41-.049.455-.074.834-.074 1.138 0 .334.025.562.074.683.11 0 .545-.046 1.302-.137.528-.091.963-.075 1.301.046l-.134-2.003-.359.137c-.169 0-.422-.046-.755-.137-.334-.091-.585-.137-.756-.137zm-.528-4.248l-.075 1.365.031.638c.318-.304.533-.455.643-.455.03 0 .079.022.149.068.07.045.12.068.149.068.867-.122 1.347-.152 1.437-.092.02-.242.055-.546.104-.91 0-.425-.015-.675-.044-.751-.03-.076-.112-.113-.247-.113a3.27 3.27 0 0 1-.561-.068 3.139 3.139 0 0 0-.554-.068h-.299c-.249 0-.494.105-.733.318zm.096-5.037l-.135.91.104.91 2.333-.045v-1.775l-.359-.273h-.479c-.17 0-.419.046-.748.137-.328.09-.568.136-.716.136zm3.329 24.306c-.169.425-.328.714-.478.865-.2-.364-.401-1.001-.606-1.912a16.634 16.634 0 0 1-.381-2.412l-.135-1.729c-.09-.729-.136-1.305-.136-1.729 0-.091.017-.183.046-.273h.313l.225.364c.31.485.586 1.487.83 3.004.245 1.516.353 2.79.322 3.822zm7.17-29.996c.01.03.154.303.434.819.18.303.269.697.269 1.183 0 .183-.01.395-.029.638-.359.789-.538 1.866-.538 3.231 0 .517.013 1.282.037 2.299s.038 1.783.038 2.299c0 .151-.014.379-.038.683s-.037.531-.037.683c0 .364.01.88.029 1.548.029.759.051 1.29.061 1.593.02 1.487.039 3.869.06 7.146 0 .576.022 1.487.066 2.731.046 1.244.067 2.185.067 2.821 0 1.912-.164 3.141-.493 3.688-.189-.425-.323-.941-.403-1.548 0-.03-.05-.652-.149-1.866l.044-.501c-.109-3.854-.164-6.706-.164-8.557a1.288 1.288 0 0 0-1.092-.547c-.897 0-1.71.243-2.438.729-.1.546-.229 2.079-.39 4.598-.119 1.851-.384 3.186-.793 4.005-.169.364-.378.547-.628.547a.424.424 0 0 1-.313-.137l-.194-.819c.109-.85.309-1.912.598-3.187.35-1.517.573-2.549.673-3.095.599-3.49.897-8.8.897-15.932-.12-.425-.254-.697-.403-.819-.149-.485-.225-1.259-.225-2.321l.075-.683 2.542-.546c.041 0 .107.022.202.068a.607.607 0 0 0 .187.068h.703c.03 0 .077-.016.143-.046a.4.4 0 0 1 .157-.046c.14 0 .289.106.448.319l.225-1.047h.372zm-3.82 12.096l-.149 2.194.015 1.095c.679-.455 1.276-.683 1.796-.683.029 0 .478.091 1.345.272l.016-.594-.135-2.56c-.021-.336-.125-.427-.313-.275-.19-.121-.594-.182-1.212-.182-.579.002-1.033.246-1.363.733zm.081-4.464c0 .151.02.288.06.409.628-.638 1.246-.956 1.854-.956.369 0 .664.183.883.547l.075-1.639-.075-1.866a158.063 158.063 0 0 0-1.795-.455c-.449.363-.684.561-.703.591-.12.213-.179.819-.179 1.821 0 .151-.021.402-.061.751s-.059.615-.059.797z"/><path fill="#EC6800" d="M126.693 42.941l-.105 1.007c-.149.274-.408.411-.777.411s-.608.137-.718.41c.09.94.324 1.699.703 2.275l.987 1.366-.181 2.366-.522.91c-.159-.03-.313-.182-.463-.455-.25-.395-.391-.606-.42-.637-.079.364-.12 1.472-.12 3.322 0 1.608-.044 3.232-.134 4.871-.12 2.366-.304 3.55-.554 3.55-.119-.637-.189-1.441-.209-2.412v-2.504c0-.485-.01-1.221-.03-2.207a117.62 117.62 0 0 1-.029-2.208c0-2.519-.016-4.006-.046-4.461a44.272 44.272 0 0 0-.896 2.367c-.738 2.671-1.137 4.097-1.197 4.278-.548 1.639-1.066 2.458-1.555 2.458-.12 0-.25-.303-.389-.91a54.014 54.014 0 0 0-.284-1.411v-1.092c.607-.152 1.355-1.306 2.243-3.46a45.302 45.302 0 0 0 1.854-5.599l-.269-.182c-.668 0-1.325.698-1.975 2.094-.179-.151-.294-.485-.343-1.002a81.793 81.793 0 0 1-.135-1.502l.104-1.325.359-.914.344.182c.389-.427 1.192-.868 2.408-1.325.01-.395.015-.759.015-1.093 0-.88-.035-1.563-.108-2.048v-1.002c-.08.03-.29.183-.629.455-.299.273-.493.38-.583.319l-.523-.273-.104-.683v-.273c.029-.212.063-.395.104-.546.159-.304.398-.713.717-1.229.181-.121.449-.333.809-.637.708-.668 1.137-1.578 1.286-2.731l.344-.409.897.819c.051.242.077.554.082.933.005.38.022.646.053.797l-.06.409c-.798.455-1.496 1.411-2.094 2.868.059.272.214.425.464.455.208.061.313.288.313.683 0 .273-.046.698-.14 1.274-.093.576-.14.986-.14 1.229 0 .151.015.333.045.546.109.182.225.258.344.228.369-.061.564-.091.584-.091.319.002.543.582.673 1.739zm4.96-3.194c.2.091.395.183.584.273.239.151.403.439.494.864v1.229l.478.729c.141 0 .409-.243.808-.729l.613.729.165 2.185c-.768.819-1.332 1.639-1.69 2.458-.209.485-.613 1.729-1.211 3.732-.369 1.214-.968 2.897-1.795 5.052-.857 2.246-1.49 3.748-1.9 4.507-.328.606-.628.91-.896.91-.26 0-.748-.364-1.467-1.093v-1.047l.27-.637.18.045c.369-.333.897-.91 1.586-1.729.468-.759.967-1.729 1.496-2.913.638-1.396 1.071-2.579 1.301-3.55-.26-1.274-.668-1.973-1.227-2.094-.47.667-.942 1.122-1.421 1.365-.18-.061-.43-.288-.748-.683a3.55 3.55 0 0 1-.09-.774c0-.516.075-.902.225-1.16s.309-.387.479-.387c.11-.243.369-.501.777-.774.34-.242.599-.743.778-1.502l.225.091a54.24 54.24 0 0 0 .822-2.002c.18-.607.364-1.199.553-1.775.238-.789.442-1.229.611-1.32zm.524-8.648c-.149.911-.459 1.548-.927 1.912a2.48 2.48 0 0 0-.913 1.411c.11.485.275 1.092.494 1.82.109-.182.344-.667.703-1.456.398-.819.613-1.305.643-1.457.021-.061.03-.28.03-.66 0-.379.08-.568.239-.568.07.061.145.137.225.228l.389-.41c.04.03.249.137.628.319.2.091.389.409.569.955 0 .425-.075.835-.225 1.229-.101.242-.429.667-.987 1.274-.618.668-1.007 1.123-1.167 1.365-.278.485-.703 1.381-1.271 2.686-.529 1.244-.953 2.124-1.272 2.641-.488.758-.987 1.138-1.495 1.138-.079 0-.384-.318-.912-.956l-.091-1.047c.271-.334.499-.501.689-.501.479 0 1.326-1.153 2.542-3.459-.229-1.093-.499-1.729-.808-1.912-.539.85-1.053 1.396-1.541 1.639l-.269-.228-.18-.819c.149-.485.499-1.092 1.047-1.82.708-.91 1.13-1.487 1.264-1.729.135-.243.262-.485.381-.729l.449-1.184c.2-.516.364-.773.494-.773.039 0 .109.022.21.068a.618.618 0 0 0 .223.068c.25 0 .41.03.479.091.162.09.28.378.36.864zm-1.376 14.702l.061.455.658 2.14c.149-.121.349-.592.599-1.411.299-.94.503-1.518.613-1.729l.015-.364c0-.061-.07-.834-.21-2.321-.369.121-.686.516-.949 1.184a93.733 93.733 0 0 0-.787 2.046z"/><path d="M138.662 38.897l.12.364a6.716 6.716 0 0 1-.367 1.548 5.988 5.988 0 0 0-.336 1.729c.429 1.578.643 3.292.643 5.144 0 1.486-.164 3.141-.494 4.961a32.683 32.683 0 0 1-1.046 4.188c-.19.577-.658 1.608-1.406 3.096-.479.94-.848 1.411-1.106 1.411-.418 0-.738-.395-.958-1.184.03-1.153.21-2.079.54-2.776a2.22 2.22 0 0 1 .537-.683c.34-.334.528-.531.568-.592.52-.607 1.077-1.791 1.676-3.551.668-1.973 1.002-3.687 1.002-5.144 0-1.305-.18-2.306-.538-3.004-.08.091-.2.242-.359.455-.03.03-.284.652-.763 1.866-.05.121-.189.304-.419.546-.149.152-.255.471-.313.956a14.555 14.555 0 0 1-.181-2.275c0-1.608.215-2.701.644-3.277l.225.228c.379-.789.752-1.578 1.121-2.367.507-1.001.91-1.548 1.21-1.639zm.255-7.738l.148.319-.074 1.184c-.119.061-.244.363-.373.91-.16.637-.28 1.031-.359 1.184-.399.697-.958 1.184-1.676 1.456-.1.121-.239.258-.418.41l-.27-2.321c.02-2.125.274-3.217.763-3.277l.194.864c.867-.516 1.431-.773 1.69-.773.12-.001.245.014.375.044zm6.825 8.785c.069 0 .179.054.328.159.149.106.249.175.3.205h.284c.907.334 1.471.471 1.689.41l-.658 2.64c-.079.455-.22 1.123-.418 2.003-.33-.334-.663-.668-1.002-1.002-.389-.334-.729-.485-1.018-.455h-.15c-.149.547-.224.956-.224 1.229 0 .091.006.182.016.272l.029 3.688c0 .091-.005.25-.015.478s-.015.402-.015.523l.179 5.917c-.1.852-.269 2.083-.509 3.696-.069.366-.403.778-1.002 1.235-.538.395-.917.592-1.137.592-.07 0-.167-.046-.291-.137-.125-.091-.227-.137-.307-.137-.04-.091-.154-.182-.345-.273-.13-.091-.224-.305-.284-.641-.049-.121-.239-.41-.567-.867-.22-.335-.384-.76-.494-1.278l.09-1.371.329-.637.613.455c1.316 0 2.204-.485 2.662-1.457.16-.85.239-1.486.239-1.911 0-.577-.01-1.441-.03-2.595-.02-1.153-.029-2.018-.029-2.595 0-.242.01-.599.029-1.069.021-.471.03-.827.03-1.069 0-.547-.063-.986-.188-1.32a86.893 86.893 0 0 1-.365-1.001c-.768.212-1.262.363-1.481.455a4.247 4.247 0 0 0-1.466.955c-.079.092-.323.213-.733.364-.288.092-.522.364-.702.819-.09-.272-.134-.637-.134-1.092 0-.425.02-1.017.059-1.775.11-.546.284-.986.523-1.32.07-.091.41-.318 1.018-.683 1.525-.94 2.912-1.411 4.158-1.411h.989zm-1.082-7.965c.967 0 1.675.304 2.123.911-.029.425-.144.94-.344 1.547-.199.607-.369.911-.509.911s-.22.272-.239.819c-.149-.395-.313-.592-.493-.592-.17 0-.429.03-.777.091a5 5 0 0 1-.778.091c-.747 0-1.217.016-1.405.046-.539.151-.987.485-1.347 1.001l-.165-.182-.508.182c-.06-.151-.09-.501-.09-1.047 0-.698.025-1.214.074-1.548.021-.182.115-.606.285-1.274l.238.137c.869-.729 2.18-1.093 3.935-1.093z"/><linearGradient id="e" gradientUnits="userSpaceOnUse" x1="73.083" y1="44.419" x2="128.389" y2="99.725"><stop offset="0" stop-color="#ead18f"/><stop offset=".076" stop-color="#e1c477"/><stop offset=".221" stop-color="#d1af4e"/><stop offset=".335" stop-color="#c8a235"/><stop offset=".405" stop-color="#c49d2c"/><stop offset=".559" stop-color="#d4b35c"/><stop offset=".766" stop-color="#e7cd97"/><stop offset=".919" stop-color="#f3debb"/><stop offset="1" stop-color="#f8e4c9"/></linearGradient><path opacity=".8" fill="url(#e)" d="M51.929 65.572h97.613v12.999H51.929z"/><path fill="#ABABAB" d="M62.152 93.516c-.475.579-.959.938-1.45 1.069-.222.053-.563.157-1.022.315-.224.132-.563.279-1.024.437-.57.078-.966.143-1.188.197a3.733 3.733 0 0 0-1.167.476c-.127-.265-.229-.673-.309-1.229-.063-.368-.166-.618-.309-.751a5.358 5.358 0 0 1-.024-.473c0-.557.107-1.068.321-1.544.213-.476.486-.714.82-.714.968.054 2.268.054 3.901 0 .665-.025 1.116.029 1.355.16.43.21.762.711.999 1.504-.33.053-.633.238-.903.553zm8.541 2.177c-4.347 7.227-8.564 11.774-12.655 13.648l-1.286-1.464a5.123 5.123 0 0 1-.071-.792c0-.526.247-1.503.737-2.93.715-.341 1.437-.685 2.165-1.026a16.476 16.476 0 0 0 2.116-1.266c1.318-1.003 3.253-3.164 5.805-6.489.303-.394 1.112-1.647 2.428-3.757.968-1.558 1.84-2.664 2.615-3.323l.572.276c-.129 2.269-.935 4.643-2.426 7.123zm-6.21-9.426c-.301.553-.546.804-.736.752l-4.067-.91c-.063 0-.184.06-.358.178-.174.119-.309.177-.403.177l-.192-.039-.379-1.936c-.063-.236-.032-.58.095-1.027.253-.921.816-1.384 1.689-1.384.206 0 .451.107.738.317.38.237.625.368.737.396.412.13 1.068.38 1.973.748.92.449 1.508 1.136 1.761 2.058-.318-.001-.603.221-.858.67zM97.311 107.167l-1.046.91c-1.284-.688-2.655-2.084-4.115-4.196-1.205-1.817-2.402-3.64-3.593-5.458-.237.265-1.545 1.977-3.926 5.144-1.537 2.03-2.979 3.426-4.328 4.19-.063-.156-.198-.289-.404-.394-.365-.157-.729-.33-1.094-.515-.492-.212-.817-.434-.976-.671-.049-.081-.166-.556-.357-1.426.222-.739.65-1.227 1.284-1.462a21.6 21.6 0 0 0 1.594-.457c.524-.17 1.261-.783 2.212-1.84 2.094-2.269 3.625-4.233 4.592-5.895.73-1.239 1.896-3.692 3.498-7.357l-.405-.159c-.572.132-1.261.238-2.069.315-.744.132-1.855.344-3.332.635l-1.402.235a2.293 2.293 0 0 0-1.261.952l-.355-.276c0-1.505-.04-2.454-.121-2.85.034-.818.311-1.44.833-1.859.145-.106.627-.356 1.452-.751.253.633.443.933.571.91l5.779-.99.237-.04c.256 0 .524.105.81.316.031-.027.261-.383.69-1.068.269-.421.522-.633.762-.633a.85.85 0 0 1 .332.081c.095.314.376.646.845.987.467.343.812.764 1.035 1.267-.999 1.662-1.65 2.86-1.951 3.599a93.843 93.843 0 0 1-1.142 3.048c-.126.288-.508.989-1.142 2.098-.508.896-.824 1.634-.951 2.213a205.597 205.597 0 0 1 2.639 3.207c.937 1.054 1.959 1.765 3.069 2.135 1.001.212 2.498.672 4.494 1.385-.253.793-.724 1.614-1.414 2.472-.689.859-1.138 1.591-1.344 2.198zM122.454 95.337c-.208.053-.479.306-.821.752-.34.451-.652.674-.939.674-.172 0-.585-.17-1.236-.513-.76-.423-1.223-.66-1.379-.713-.303.025-.746-.015-1.331-.118l-.43.155-.81-.353c-.174.289-.348 1.107-.522 2.45a735.63 735.63 0 0 1-.286 1.819c-.127.686-.275 1.252-.451 1.701a16.87 16.87 0 0 1-2.069 3.677c-.92 1.238-1.809 2.058-2.665 2.454-1.458.711-2.528 1.066-3.211 1.066-.237 0-.896-.092-1.975-.278l-.332-1.225c.045-1.583.461-2.584 1.236-3.008.318-.159 1.086-.236 2.309-.236.507 0 1.063-.118 1.664-.356.762-.316 1.585-1.043 2.473-2.177.999-1.292 1.5-2.48 1.5-3.562 0-.08-.008-.198-.026-.355l-.045-.318c-.332-.419-.58-1.028-.738-1.819l-.332-.277c-.475-.027-1.182-.013-2.117.04-.35.052-1.157.288-2.428.712-1.315.449-2.085.768-2.307.949-.222.185-.411.516-.571.989l-.403.239-.549-.08-.215-1.306c.142-1.027.271-1.769.384-2.216.189-.818.45-1.424.783-1.82a278.27 278.27 0 0 1 5.496-1.108c.664-.106 1.634-.158 2.902-.158 1.283 0 3.956.289 8.017.871.031 0 .079-.028.142-.079l.237-.079.238.079c.047.027.103.051.168.079l1.165-.158.619.435c-.097.474-.289 1.038-.573 1.685-.287.647-.477 1.143-.572 1.486zm-2.902-9.97c-.077 1.108-.696 1.661-1.854 1.661-.285 0-.698-.039-1.236-.118-.542-.079-.946-.119-1.215-.119-.127 0-.293-.026-.501-.078a4.038 4.038 0 0 1-.498-.119 10.359 10.359 0 0 0-1.595-.118c-.237 0-.951.09-2.139.276-1.191.183-1.834.316-1.927.396-.016 0-.109.119-.275.356s-.305.345-.417.316l-.499-.197-.401-1.504c.091-1.397.457-2.229 1.092-2.492.254 0 .633-.068 1.142-.198 1.238-.555 2.681-.778 4.329-.673 1.984.131 3.005.198 3.068.198 1.144.21 2.127.686 2.952 1.424 0 .238-.011.566-.026.989zM145.196 106.999c-.222 0-.517-.079-.881-.236a20.964 20.964 0 0 0-.854-.317c-.366-.053-1.636-.198-3.807-.436-1.46-.157-2.277-.237-2.451-.237-3.425 0-6.271 1.056-8.541 3.165-.601-.869-.903-2.294-.903-4.272 0-.264.136-.581.407-.949.425-.213.758-.305.997-.278.556-.474 1.076-1.387 1.57-2.732.378-1.107.76-2.215 1.14-3.322.337-.819.817-2.057 1.452-3.72.192-.604.483-1.503.881-2.69.364-1.027.617-1.806.76-2.334.271-.87.471-1.688.596-2.453l-.046-.118a1.512 1.512 0 0 1-.239-.79c0-.818.253-1.452.76-1.898.477-.265.943-.528 1.402-.793.416.291.993.66 1.737 1.108.224.343.336.898.336 1.662 0 .423-.199.91-.597 1.463-.301.397-.604.793-.904 1.187-.997 1.769-2.226 4.843-3.688 9.218-.33.792-.664 1.583-.997 2.374-.411 1.003-.635 1.848-.666 2.532 1.204-.342 2.656-.514 4.354-.514 2.743 0 4.694.213 5.852.633-.269-1.32-.569-2.203-.904-2.651-.38-.501-.627-.831-.737-.989a11.444 11.444 0 0 1-.594-1.305c.158-1.135.586-1.805 1.282-2.019.239.107.581.305 1.024.594.016 0 .253.344.712 1.028.208.238.517.634.929 1.188.318.475.706 1.529 1.165 3.165a43.87 43.87 0 0 1 .882 3.523 4.138 4.138 0 0 1-.523 1.523c-.271.459-.576.69-.906.69z"/><path d="M61.34 92.166c-.476.58-.958.936-1.45 1.068-.222.053-.564.158-1.023.315-.222.132-.562.278-1.022.436-.569.08-.968.146-1.189.198a3.804 3.804 0 0 0-1.165.476c-.129-.264-.231-.674-.311-1.227-.062-.368-.164-.621-.309-.751a6.773 6.773 0 0 1-.023-.476c0-.556.106-1.068.32-1.544.216-.474.488-.711.821-.711.967.051 2.269.051 3.901 0 .666-.026 1.119.025 1.354.158.43.212.762.712 1.002 1.503-.335.053-.636.238-.906.555zm8.54 2.176c-4.344 7.227-8.564 11.776-12.653 13.65l-1.286-1.465a4.875 4.875 0 0 1-.071-.791c0-.529.245-1.504.738-2.927.712-.345 1.435-.686 2.164-1.03a16.611 16.611 0 0 0 2.117-1.265c1.315-1.002 3.25-3.165 5.805-6.489.301-.396 1.109-1.648 2.425-3.759.968-1.554 1.841-2.662 2.618-3.323l.569.277c-.127 2.268-.934 4.641-2.426 7.122zm-6.208-9.426c-.301.554-.546.804-.737.75l-4.068-.908c-.063 0-.182.058-.355.178-.177.118-.311.177-.406.177l-.189-.038-.38-1.936c-.065-.238-.032-.579.095-1.027.253-.923.817-1.382 1.689-1.382.206 0 .451.104.736.315.38.236.627.366.738.394.411.131 1.07.382 1.974.749.92.449 1.508 1.134 1.761 2.057-.32-.001-.604.222-.858.671zM96.5 105.815l-1.047.908c-1.286-.685-2.657-2.082-4.117-4.192a1003.86 1003.86 0 0 1-3.591-5.46c-.237.265-1.547 1.979-3.925 5.142-1.539 2.032-2.981 3.433-4.329 4.196-.065-.159-.197-.291-.405-.396a21.08 21.08 0 0 1-1.094-.514c-.491-.211-.817-.436-.976-.675-.046-.076-.166-.552-.356-1.422.222-.739.649-1.227 1.284-1.464.54-.132 1.07-.283 1.595-.456.522-.171 1.26-.784 2.212-1.84 2.093-2.268 3.624-4.232 4.592-5.895.728-1.238 1.896-3.69 3.496-7.358l-.404-.158c-.571.131-1.262.237-2.069.316-.746.133-1.855.344-3.331.632l-1.403.239a2.286 2.286 0 0 0-1.262.949l-.356-.277c0-1.503-.039-2.452-.119-2.849.032-.817.312-1.436.833-1.859.143-.104.628-.354 1.452-.751.254.633.443.937.57.91l5.778-.989.24-.041c.255 0 .521.107.809.318.032-.026.262-.383.69-1.069.27-.423.522-.634.76-.634.095 0 .208.028.334.081.096.314.376.645.844.988.469.344.814.765 1.036 1.266-1.001 1.662-1.649 2.863-1.952 3.602a98.02 98.02 0 0 1-1.14 3.046c-.129.291-.509.99-1.144 2.097-.507.896-.825 1.634-.952 2.216a194.812 194.812 0 0 1 2.642 3.205c.936 1.055 1.958 1.767 3.068 2.136.999.211 2.499.672 4.497 1.385-.256.791-.727 1.614-1.417 2.473-.691.856-1.138 1.586-1.343 2.194zM121.642 93.985c-.204.054-.478.304-.819.752-.343.451-.653.676-.94.676-.176 0-.585-.174-1.238-.516-.762-.422-1.221-.658-1.379-.711-.301.026-.743-.011-1.331-.118l-.428.158-.809-.356c-.177.291-.351 1.107-.524 2.453l-.283 1.819c-.129.684-.281 1.251-.453 1.699a16.862 16.862 0 0 1-2.071 3.678c-.92 1.239-1.806 2.056-2.663 2.451-1.46.713-2.528 1.068-3.213 1.068-.237 0-.894-.095-1.973-.276l-.334-1.228c.048-1.581.459-2.584 1.238-3.007.316-.158 1.084-.236 2.307-.236.507 0 1.063-.119 1.666-.356.762-.316 1.587-1.041 2.474-2.176.999-1.294 1.499-2.481 1.499-3.564 0-.076-.01-.194-.025-.353l-.048-.318c-.332-.422-.577-1.026-.735-1.819l-.335-.278c-.475-.025-1.181-.013-2.116.04-.349.053-1.158.29-2.428.711-1.315.45-2.083.768-2.307.953-.222.182-.41.514-.57.988l-.405.237-.548-.078-.214-1.306c.145-1.031.271-1.769.384-2.218.188-.819.449-1.426.783-1.821 1.221-.264 3.051-.633 5.496-1.108.665-.104 1.632-.158 2.9-.158 1.286 0 3.959.292 8.017.871.031 0 .079-.025.143-.079l.237-.079.239.079c.048.027.101.054.168.079l1.163-.158.617.435c-.095.478-.282 1.038-.569 1.686-.287.645-.477 1.142-.573 1.484zm-2.903-9.968c-.075 1.107-.697 1.662-1.854 1.662-.282 0-.698-.04-1.238-.12-.538-.078-.943-.117-1.211-.117-.128 0-.295-.025-.5-.08-.271-.052-.436-.091-.499-.119a10.473 10.473 0 0 0-1.597-.118c-.237 0-.949.093-2.139.276-1.19.187-1.832.317-1.929.396-.014 0-.106.119-.272.359-.167.234-.305.34-.416.313l-.498-.198-.408-1.501c.1-1.399.461-2.229 1.097-2.495.253 0 .635-.066 1.141-.197 1.237-.555 2.682-.777 4.331-.672 1.982.132 3.005.198 3.068.198 1.144.212 2.125.687 2.952 1.425 0 .236-.01.565-.028.988zM144.385 105.647c-.224 0-.519-.079-.88-.235a21.145 21.145 0 0 0-.857-.317c-.365-.051-1.634-.198-3.809-.437-1.458-.156-2.271-.235-2.447-.235-3.424 0-6.273 1.056-8.54 3.164-.604-.87-.904-2.292-.904-4.273 0-.261.135-.581.403-.949.428-.21.762-.304 1.001-.277.555-.474 1.078-1.387 1.569-2.73.38-1.109.762-2.218 1.142-3.321.332-.819.816-2.059 1.45-3.722.191-.607.484-1.502.882-2.69.364-1.027.617-1.805.76-2.334.27-.868.467-1.688.596-2.451l-.048-.119a1.533 1.533 0 0 1-.239-.791c0-.818.256-1.452.762-1.9.479-.263.944-.528 1.403-.79.413.288.991.658 1.736 1.106.224.345.335.896.335 1.661 0 .424-.198.911-.596 1.465l-.904 1.186c-.999 1.77-2.228 4.842-3.686 9.22-.335.79-.667 1.582-1.001 2.372-.41 1.002-.634 1.847-.665 2.535 1.205-.345 2.657-.517 4.353-.517 2.744 0 4.694.212 5.853.633-.27-1.318-.57-2.202-.904-2.651-.38-.499-.625-.829-.736-.99-.174-.314-.374-.75-.596-1.304.158-1.133.586-1.807 1.282-2.016.241.105.582.302 1.025.593.016 0 .253.342.714 1.028.206.237.517.634.928 1.187.316.474.704 1.529 1.165 3.166a42.49 42.49 0 0 1 .879 3.522 4.143 4.143 0 0 1-.522 1.523c-.271.46-.572.688-.904.688zM57.784 73.286h-2.025l-.352 1.25c-.086.309-.131.539-.131.691a.49.49 0 0 0 .113.318c.076.092.24.15.49.178v.219h-1.645v-.219c.217-.059.359-.135.422-.229.131-.188.275-.568.436-1.143l1.836-6.535h.135l1.816 6.607c.146.531.279.875.398 1.033s.283.246.496.266v.219H57.72v-.219c.207-.016.348-.068.42-.158a.492.492 0 0 0 .109-.326c0-.172-.051-.443-.152-.814l-.313-1.138zm-.119-.437l-.877-3.211-.904 3.211h1.781zM63.194 70.567v3.266c0 .619.01.998.027 1.135.02.139.051.234.094.289s.092.082.148.082a.5.5 0 0 0 .27-.1l.055.211-1.057.656h-.174v-1.135c-.301.5-.533.813-.691.941s-.326.193-.504.193c-.195 0-.367-.086-.512-.26s-.246-.398-.303-.672-.084-.66-.084-1.162v-2.398c0-.256-.018-.434-.055-.533a.484.484 0 0 0-.158-.229c-.07-.053-.197-.078-.381-.074v-.211h1.234v3.6c0 .5.057.83.17.986.115.156.252.234.412.234.111 0 .236-.053.375-.158s.305-.307.496-.605v-3.049c0-.307-.035-.514-.109-.623-.074-.107-.227-.166-.459-.174v-.211h1.206zM65.067 68.802v1.766h.822v.414h-.822v3.482c0 .348.033.582.098.703.066.121.15.182.252.182.084 0 .166-.039.246-.121a.8.8 0 0 0 .184-.355h.148c-.09.385-.217.672-.381.865-.164.195-.334.291-.508.291-.119 0-.234-.049-.348-.148s-.195-.242-.25-.428-.08-.473-.08-.859v-3.611h-.558v-.195c.141-.086.285-.232.434-.438s.279-.449.396-.73a8.24 8.24 0 0 0 .25-.816h.117zM67.952 70.411c.531 0 .959.309 1.283.928.273.527.41 1.133.41 1.818 0 .48-.076.967-.227 1.459-.15.494-.359.865-.625 1.115-.264.25-.559.375-.885.375-.529 0-.951-.322-1.264-.967-.264-.545-.396-1.154-.396-1.83 0-.494.08-.982.24-1.471.16-.486.371-.846.633-1.078s.538-.349.831-.349zm-.119.383c-.135 0-.271.063-.408.186s-.248.34-.332.648-.125.705-.125 1.189c0 .783.102 1.457.305 2.025.201.566.469.85.801.85.248 0 .453-.156.613-.469.162-.313.242-.852.242-1.613 0-.955-.135-1.705-.402-2.252-.182-.377-.413-.564-.694-.564zM71.192 71.548c.41-.758.803-1.137 1.176-1.137.191 0 .357.074.494.221.139.146.248.389.33.725.057.234.084.596.084 1.08v2.295c0 .34.018.57.055.691a.457.457 0 0 0 .135.227c.064.055.18.082.348.082v.211h-1.746v-.211h.074c.164 0 .277-.037.344-.113a.707.707 0 0 0 .135-.336 4.66 4.66 0 0 0 .016-.551v-2.203c0-.488-.041-.844-.123-1.066-.084-.221-.223-.332-.418-.332-.301 0-.604.254-.902.764v2.838c0 .363.014.588.041.674a.533.533 0 0 0 .15.248c.063.053.189.078.383.078v.211H70.02v-.211h.078c.178 0 .299-.068.361-.207s.094-.402.094-.793v-2c0-.645-.01-1.037-.029-1.178s-.049-.236-.088-.287a.195.195 0 0 0-.16-.076.543.543 0 0 0-.26.088l-.057-.211 1.068-.656h.166v1.135zM75.817 70.411c.533 0 .961.309 1.283.928.275.527.412 1.133.412 1.818 0 .48-.076.967-.227 1.459-.152.494-.359.865-.625 1.115s-.561.375-.885.375c-.531 0-.951-.322-1.264-.967-.264-.545-.396-1.154-.396-1.83 0-.494.08-.982.24-1.471.16-.486.371-.846.633-1.078.261-.232.538-.349.829-.349zm-.117.383c-.137 0-.271.063-.408.186s-.248.34-.332.648-.127.705-.127 1.189c0 .783.102 1.457.305 2.025.203.566.471.85.803.85.248 0 .453-.156.613-.469s.242-.852.242-1.613c0-.955-.135-1.705-.402-2.252-.182-.377-.415-.564-.694-.564zM79.073 71.562c.256-.393.408-.619.453-.678.115-.15.24-.266.373-.348a.733.733 0 0 1 .395-.125c.221 0 .41.1.568.295.158.197.264.482.318.855.264-.471.486-.781.668-.93.182-.146.369-.221.561-.221.188 0 .354.074.498.221s.26.387.344.719c.057.227.084.584.084 1.068v2.313c0 .336.018.566.051.691.025.084.072.158.143.219s.184.09.34.09v.211h-1.742v-.211h.073c.15 0 .268-.045.354-.135.059-.063.1-.16.127-.297a6 6 0 0 0 .014-.568v-2.309c0-.438-.033-.746-.104-.926-.1-.25-.258-.375-.479-.375-.135 0-.271.053-.408.156s-.303.295-.496.576l-.008.066.01.252v2.561c0 .367.014.596.041.686a.448.448 0 0 0 .15.225c.072.061.199.09.377.09v.211h-1.777v-.211c.193 0 .326-.035.398-.105s.123-.174.15-.314c.014-.066.02-.26.02-.58v-2.309c0-.438-.041-.752-.125-.945-.113-.252-.27-.379-.471-.379a.63.63 0 0 0-.41.172 1.932 1.932 0 0 0-.49.584v2.877c0 .352.018.58.049.686.031.104.078.184.141.236s.189.078.381.078v.211h-1.742v-.211c.16 0 .273-.025.338-.078.063-.053.111-.137.145-.252s.051-.338.051-.67v-2.055c0-.592-.012-.973-.035-1.145-.018-.131-.047-.219-.086-.268a.187.187 0 0 0-.158-.074.536.536 0 0 0-.258.088l-.059-.211 1.068-.656h.166v1.149zM83.944 70.567h1.641v.211h-.08c-.115 0-.203.039-.26.115a.454.454 0 0 0-.086.287c0 .152.041.365.127.637l.859 2.721.783-2.979c.045-.162.066-.322.066-.479a.378.378 0 0 0-.027-.16c-.021-.043-.053-.078-.096-.104s-.121-.039-.23-.039v-.211h1.141v.211a.408.408 0 0 0-.219.096.895.895 0 0 0-.168.264 4.698 4.698 0 0 0-.131.455l-1.43 5.365c-.139.52-.32.914-.545 1.18s-.439.398-.648.398c-.15 0-.275-.066-.373-.199s-.146-.285-.146-.457c0-.164.035-.297.105-.396a.34.34 0 0 1 .291-.15c.086 0 .201.043.348.131a.616.616 0 0 0 .191.088c.078 0 .16-.061.252-.182s.184-.357.275-.705l.248-.941-1.264-4.049a3.692 3.692 0 0 0-.184-.453 1.268 1.268 0 0 0-.158-.277.713.713 0 0 0-.283-.166v-.212zM94.351 67.997l.057 1.865h-.146c-.027-.328-.066-.563-.115-.703-.08-.227-.186-.393-.316-.5a.807.807 0 0 0-.521-.162h-.734v6.07c0 .486.035.791.104.912a.488.488 0 0 0 .449.244h.18v.219h-2.207v-.219h.184a.48.48 0 0 0 .469-.303c.057-.125.084-.41.084-.854v-6.07h-.627c-.242 0-.416.027-.518.082-.135.074-.248.217-.342.428-.096.211-.152.496-.17.855h-.146l.063-1.865h4.252zM95.884 70.411v1.207c.293-.805.596-1.207.904-1.207.143 0 .258.066.35.197s.139.281.139.453c0 .152-.033.281-.1.387s-.146.158-.24.158c-.088 0-.189-.066-.301-.203-.111-.135-.193-.203-.246-.203-.047 0-.096.039-.15.117-.115.162-.232.426-.355.795v2.572c0 .299.023.523.072.678a.559.559 0 0 0 .176.264c.086.07.207.105.365.105v.211H94.69v-.211c.178 0 .313-.043.398-.129a.556.556 0 0 0 .135-.301c.014-.066.02-.256.02-.57v-2.078c0-.627-.008-1-.025-1.119a.55.55 0 0 0-.092-.262.21.21 0 0 0-.168-.082.55.55 0 0 0-.271.088l-.037-.211 1.07-.656h.164zM99.46 75.167c-.359.426-.586.672-.68.738a.739.739 0 0 1-.439.146c-.244 0-.443-.127-.602-.381-.156-.254-.234-.588-.234-1.004a1.8 1.8 0 0 1 .115-.68c.104-.266.285-.516.545-.75s.691-.521 1.295-.857v-.211c0-.533-.055-.9-.166-1.1-.109-.199-.271-.299-.482-.299a.443.443 0 0 0-.381.199.747.747 0 0 0-.146.455l.008.34c0 .18-.029.318-.09.414-.061.098-.141.146-.238.146s-.176-.051-.236-.152-.09-.24-.09-.414c0-.336.111-.645.338-.926.225-.281.541-.422.949-.422.311 0 .568.08.768.24.15.121.262.311.334.568.047.168.068.512.068 1.031v1.82c0 .512.008.826.02.941.014.115.035.191.064.23s.063.059.102.059a.157.157 0 0 0 .107-.041c.055-.051.158-.193.313-.428v.328c-.287.59-.563.883-.824.883-.125 0-.225-.066-.301-.199-.076-.127-.113-.354-.117-.674zm0-.381v-2.047c-.385.234-.635.4-.748.498a1.642 1.642 0 0 0-.432.541 1.432 1.432 0 0 0-.131.615c0 .281.055.516.164.701.111.186.236.277.381.277.194.001.45-.194.766-.585zM101.995 71.548c.41-.758.803-1.137 1.176-1.137.191 0 .355.074.494.221s.248.389.33.725c.055.234.084.596.084 1.08v2.295c0 .34.018.57.053.691.029.096.074.172.137.227s.18.082.348.082v.211h-1.746v-.211h.072c.164 0 .279-.037.344-.113a.688.688 0 0 0 .137-.336c.01-.059.016-.242.016-.551v-2.203c0-.488-.041-.844-.123-1.066-.084-.221-.223-.332-.418-.332-.303 0-.604.254-.902.764v2.838c0 .363.014.588.041.674.037.111.086.195.148.248s.191.078.383.078v.211h-1.746v-.211h.076c.18 0 .301-.068.363-.207s.094-.402.094-.793v-2c0-.645-.01-1.037-.029-1.178s-.049-.236-.09-.287a.188.188 0 0 0-.158-.076.543.543 0 0 0-.26.088l-.057-.211 1.066-.656h.168v1.135zM107.167 70.411v1.828h-.129c-.096-.574-.221-.965-.373-1.174-.152-.207-.346-.311-.58-.311a.52.52 0 0 0-.434.217.789.789 0 0 0-.164.482c0 .219.041.406.121.563.08.162.24.332.484.512l.561.416c.52.389.779.898.779 1.531 0 .49-.121.883-.361 1.182-.242.301-.514.449-.813.449-.217 0-.461-.059-.738-.176a.527.527 0 0 0-.207-.059c-.059 0-.105.051-.139.148h-.129v-1.914h.129c.072.549.209.961.41 1.24.203.277.43.416.682.416.176 0 .32-.078.432-.238a.972.972 0 0 0 .166-.572c0-.27-.061-.498-.186-.682s-.373-.416-.744-.699c-.371-.281-.615-.535-.73-.762-.115-.223-.172-.504-.172-.844 0-.441.098-.811.297-1.109.197-.297.455-.445.77-.445.139 0 .307.047.502.137.131.061.219.09.262.09.041 0 .072-.014.096-.041s.051-.09.08-.186h.128zM109.173 70.411v4.32c0 .336.016.559.049.67.031.111.078.193.141.248s.178.082.344.082v.211h-1.711v-.211c.172 0 .287-.025.346-.076s.105-.135.141-.25c.035-.117.051-.342.051-.674v-2.078c0-.58-.01-.957-.033-1.129a.561.561 0 0 0-.086-.26.187.187 0 0 0-.158-.074.562.562 0 0 0-.262.088l-.055-.211 1.064-.656h.169zm-.315-2.805c.107 0 .197.059.273.174.076.113.113.254.113.418s-.037.305-.113.42c-.076.117-.166.176-.273.176s-.201-.059-.277-.176c-.076-.115-.115-.256-.115-.42s.039-.305.113-.418c.076-.115.168-.174.279-.174zM111.169 68.802v1.766h.822v.414h-.822v3.482c0 .348.033.582.098.703.066.121.148.182.252.182.084 0 .166-.039.244-.121a.782.782 0 0 0 .186-.355h.148c-.09.385-.217.672-.381.865-.164.195-.334.291-.508.291-.119 0-.234-.049-.348-.148s-.195-.242-.25-.428-.08-.473-.08-.859v-3.611h-.559v-.195c.141-.086.285-.232.434-.438s.279-.449.396-.73a8.24 8.24 0 0 0 .25-.816h.118zM113.544 70.411v4.32c0 .336.018.559.049.67s.08.193.141.248c.063.055.178.082.344.082v.211h-1.711v-.211c.172 0 .287-.025.346-.076s.105-.135.141-.25c.035-.117.053-.342.053-.674v-2.078c0-.58-.012-.957-.035-1.129a.561.561 0 0 0-.086-.26.187.187 0 0 0-.158-.074.562.562 0 0 0-.262.088l-.055-.211 1.064-.656h.169zm-.315-2.805c.107 0 .197.059.273.174.076.113.113.254.113.418s-.037.305-.113.42c-.076.117-.166.176-.273.176s-.201-.059-.277-.176c-.076-.115-.115-.256-.115-.42s.039-.305.113-.418c.076-.115.168-.174.279-.174zM116.239 70.411c.531 0 .959.309 1.281.928.275.527.412 1.133.412 1.818 0 .48-.076.967-.227 1.459-.15.494-.359.865-.625 1.115-.264.25-.559.375-.885.375-.529 0-.951-.322-1.264-.967-.264-.545-.396-1.154-.396-1.83 0-.494.08-.982.24-1.471.16-.486.371-.846.633-1.078s.538-.349.831-.349zm-.119.383c-.135 0-.271.063-.408.186s-.248.34-.332.648-.125.705-.125 1.189c0 .783.102 1.457.305 2.025.201.566.469.85.801.85.248 0 .453-.156.613-.469.162-.313.242-.852.242-1.613 0-.955-.135-1.705-.402-2.252-.182-.377-.413-.564-.694-.564zM119.479 71.548c.41-.758.803-1.137 1.176-1.137.191 0 .357.074.494.221.139.146.248.389.33.725.057.234.084.596.084 1.08v2.295c0 .34.018.57.055.691a.457.457 0 0 0 .135.227c.064.055.18.082.348.082v.211h-1.746v-.211h.074c.164 0 .277-.037.344-.113a.707.707 0 0 0 .135-.336 4.66 4.66 0 0 0 .016-.551v-2.203c0-.488-.041-.844-.123-1.066-.084-.221-.223-.332-.418-.332-.301 0-.604.254-.902.764v2.838c0 .363.014.588.041.674a.533.533 0 0 0 .15.248c.063.053.189.078.383.078v.211h-1.748v-.211h.078c.178 0 .299-.068.361-.207s.094-.402.094-.793v-2c0-.645-.01-1.037-.029-1.178s-.049-.236-.088-.287a.195.195 0 0 0-.16-.076.543.543 0 0 0-.26.088l-.057-.211 1.068-.656h.166v1.135zM127.71 67.817v2.75h-.145c-.045-.527-.129-.947-.248-1.26s-.289-.563-.51-.746-.449-.275-.684-.275c-.268 0-.488.125-.662.373a1.418 1.418 0 0 0-.262.846c0 .24.055.461.166.66.158.293.537.684 1.135 1.172.488.396.82.703 1 .916.178.213.316.463.412.752s.145.592.145.908c0 .602-.152 1.121-.459 1.557s-.699.652-1.18.652a1.69 1.69 0 0 1-.428-.053 3.458 3.458 0 0 1-.492-.219c-.25-.127-.408-.189-.475-.189-.064 0-.115.031-.152.09-.037.061-.064.184-.082.371h-.143v-2.727h.143c.066.57.156.996.268 1.279.113.283.285.518.518.705.23.188.484.281.76.281.32 0 .572-.129.758-.387s.279-.563.279-.914a1.742 1.742 0 0 0-.435-1.149c-.1-.117-.373-.365-.82-.744s-.764-.682-.951-.908a2.42 2.42 0 0 1-.428-.75 2.654 2.654 0 0 1-.146-.902c0-.568.143-1.061.43-1.473.287-.41.652-.617 1.096-.617.277 0 .57.105.881.314.143.098.244.146.305.146a.185.185 0 0 0 .162-.092c.043-.061.076-.184.102-.369h.142zM128.521 70.567h1.641v.211h-.08c-.115 0-.201.039-.26.115a.466.466 0 0 0-.086.287c0 .152.041.365.127.637l.859 2.721.783-2.979c.045-.162.066-.322.066-.479a.378.378 0 0 0-.027-.16c-.02-.043-.053-.078-.096-.104s-.121-.039-.23-.039v-.211h1.141v.211a.415.415 0 0 0-.219.096.895.895 0 0 0-.168.264 5.417 5.417 0 0 0-.131.455l-1.43 5.365c-.139.52-.32.914-.545 1.18s-.439.398-.648.398c-.15 0-.275-.066-.373-.199s-.146-.285-.146-.457c0-.164.037-.297.107-.396s.166-.15.289-.15c.086 0 .201.043.348.131a.616.616 0 0 0 .191.088c.078 0 .162-.061.254-.182.09-.121.182-.357.273-.705l.248-.941-1.262-4.049a4.113 4.113 0 0 0-.186-.453 1.285 1.285 0 0 0-.156-.277.738.738 0 0 0-.285-.166v-.212zM134.927 70.411v1.828h-.127c-.098-.574-.223-.965-.375-1.174-.152-.207-.346-.311-.58-.311a.52.52 0 0 0-.434.217.789.789 0 0 0-.164.482c0 .219.041.406.121.563.08.162.24.332.484.512l.561.416c.52.389.779.898.779 1.531 0 .49-.119.883-.361 1.182-.242.301-.514.449-.813.449-.215 0-.461-.059-.738-.176a.527.527 0 0 0-.207-.059c-.059 0-.105.051-.139.148h-.127v-1.914h.127c.072.549.209.961.412 1.24.201.277.428.416.68.416.176 0 .32-.078.432-.238a.972.972 0 0 0 .166-.572c0-.27-.061-.498-.186-.682s-.371-.416-.744-.699c-.371-.281-.615-.535-.73-.762-.115-.223-.172-.504-.172-.844 0-.441.098-.811.297-1.109.197-.297.455-.445.77-.445.139 0 .307.047.502.137.131.061.219.09.262.09.041 0 .072-.014.096-.041s.051-.09.082-.186h.126zM136.743 68.802v1.766h.822v.414h-.822v3.482c0 .348.033.582.1.703.064.121.148.182.25.182.084 0 .166-.039.246-.121a.8.8 0 0 0 .184-.355h.148c-.09.385-.217.672-.381.865-.164.195-.334.291-.508.291-.119 0-.234-.049-.348-.148s-.195-.242-.25-.428-.08-.473-.08-.859v-3.611h-.559v-.195c.141-.086.285-.232.434-.438s.279-.449.396-.73a8.24 8.24 0 0 0 .25-.816h.118zM138.495 72.599c-.004.797.123 1.422.379 1.875s.557.68.902.68c.229 0 .43-.096.6-.287s.313-.523.428-.994l.117.117a3.52 3.52 0 0 1-.467 1.461c-.26.438-.582.656-.973.656-.422 0-.783-.25-1.084-.752s-.451-1.178-.451-2.025c0-.918.154-1.633.463-2.146s.695-.771 1.16-.771c.395 0 .719.199.973.596s.379.928.379 1.592h-2.426zm0-.344h1.627c-.012-.344-.039-.586-.08-.727a1.185 1.185 0 0 0-.285-.516c-.127-.125-.26-.188-.398-.188-.213 0-.402.127-.57.379s-.267.603-.294 1.052zM142.442 71.562c.254-.393.406-.619.451-.678.115-.15.24-.266.373-.348a.733.733 0 0 1 .395-.125c.221 0 .41.1.568.295.158.197.264.482.318.855.264-.471.486-.781.668-.93.182-.146.369-.221.561-.221.188 0 .354.074.498.221s.26.387.344.719c.057.227.084.584.084 1.068v2.313c0 .336.018.566.051.691a.47.47 0 0 0 .143.219c.07.061.184.09.34.09v.211h-1.742v-.211h.074c.15 0 .268-.045.354-.135a.579.579 0 0 0 .127-.297 6 6 0 0 0 .014-.568v-2.309c0-.438-.033-.746-.104-.926-.098-.25-.258-.375-.479-.375-.135 0-.271.053-.408.156s-.303.295-.496.576l-.008.064.01.252v2.561c0 .367.014.596.041.686a.448.448 0 0 0 .15.225c.072.061.199.09.377.09v.211h-1.777v-.211c.193 0 .326-.035.398-.105s.123-.174.15-.314c.014-.066.02-.26.02-.58v-2.309c0-.438-.041-.752-.125-.945-.113-.252-.27-.379-.471-.379a.63.63 0 0 0-.41.172 1.896 1.896 0 0 0-.488.584v2.877c0 .352.016.58.047.686.031.104.078.184.141.236s.189.078.381.078v.211h-1.742v-.211c.16 0 .273-.025.338-.078s.111-.137.145-.252.051-.338.051-.67v-2.055c0-.592-.012-.973-.035-1.145a.602.602 0 0 0-.084-.268.192.192 0 0 0-.158-.074.543.543 0 0 0-.26.088l-.057-.211 1.066-.656h.168v1.151z"/><linearGradient id="f" gradientUnits="userSpaceOnUse" x1="87.082" y1="24.753" x2="142.388" y2="80.058"><stop offset="0" stop-color="#ead18f"/><stop offset=".076" stop-color="#e1c477"/><stop offset=".221" stop-color="#d1af4e"/><stop offset=".335" stop-color="#c8a235"/><stop offset=".405" stop-color="#c49d2c"/><stop offset=".559" stop-color="#d4b35c"/><stop offset=".766" stop-color="#e7cd97"/><stop offset=".919" stop-color="#f3debb"/><stop offset="1" stop-color="#f8e4c9"/></linearGradient><linearGradient id="g" gradientUnits="userSpaceOnUse" x1="21.153" y1="26.505" x2="76.46" y2="81.812"><stop offset="0" stop-color="#ead18f"/><stop offset=".076" stop-color="#e1c477"/><stop offset=".221" stop-color="#d1af4e"/><stop offset=".335" stop-color="#c8a235"/><stop offset=".405" stop-color="#c49d2c"/><stop offset=".559" stop-color="#d4b35c"/><stop offset=".766" stop-color="#e7cd97"/><stop offset=".919" stop-color="#f3debb"/><stop offset="1" stop-color="#f8e4c9"/></linearGradient><linearGradient id="h" gradientUnits="userSpaceOnUse" x1="91.372" y1="14.599" x2="146.477" y2="69.704"><stop offset="0" stop-color="#ead18f"/><stop offset=".076" stop-color="#e1c477"/><stop offset=".221" stop-color="#d1af4e"/><stop offset=".335" stop-color="#c8a235"/><stop offset=".405" stop-color="#c49d2c"/><stop offset=".559" stop-color="#d4b35c"/><stop offset=".766" stop-color="#e7cd97"/><stop offset=".919" stop-color="#f3debb"/><stop offset="1" stop-color="#f8e4c9"/></linearGradient><linearGradient id="i" gradientUnits="userSpaceOnUse" x1="66.66" y1="22.759" x2="121.967" y2="78.066"><stop offset="0" stop-color="#ead18f"/><stop offset=".076" stop-color="#e1c477"/><stop offset=".221" stop-color="#d1af4e"/><stop offset=".335" stop-color="#c8a235"/><stop offset=".405" stop-color="#c49d2c"/><stop offset=".559" stop-color="#d4b35c"/><stop offset=".766" stop-color="#e7cd97"/><stop offset=".919" stop-color="#f3debb"/><stop offset="1" stop-color="#f8e4c9"/></linearGradient><linearGradient id="j" gradientUnits="userSpaceOnUse" x1="94.897" y1="-3.226" x2="150.203" y2="52.08"><stop offset="0" stop-color="#ead18f"/><stop offset=".076" stop-color="#e1c477"/><stop offset=".221" stop-color="#d1af4e"/><stop offset=".335" stop-color="#c8a235"/><stop offset=".405" stop-color="#c49d2c"/><stop offset=".559" stop-color="#d4b35c"/><stop offset=".766" stop-color="#e7cd97"/><stop offset=".919" stop-color="#f3debb"/><stop offset="1" stop-color="#f8e4c9"/></linearGradient></svg>