<?xml version="1.0" encoding="utf-8"?><svg xmlns="http://www.w3.org/2000/svg" width="99" height="81" viewBox="71.733 -0.982 99 81"><linearGradient id="a" gradientUnits="userSpaceOnUse" x1="138.948" y1="44.315" x2="194.255" y2="99.622"><stop offset="0" stop-color="#ead18f"/><stop offset=".076" stop-color="#e1c477"/><stop offset=".221" stop-color="#d1af4e"/><stop offset=".335" stop-color="#c8a235"/><stop offset=".405" stop-color="#c49d2c"/><stop offset=".559" stop-color="#d4b35c"/><stop offset=".766" stop-color="#e7cd97"/><stop offset=".919" stop-color="#f3debb"/><stop offset="1" stop-color="#f8e4c9"/></linearGradient><linearGradient id="b" gradientUnits="userSpaceOnUse" x1="158.286" y1="57.534" x2="213.592" y2="112.84"><stop offset="0" stop-color="#ead18f"/><stop offset=".076" stop-color="#e1c477"/><stop offset=".221" stop-color="#d1af4e"/><stop offset=".335" stop-color="#c8a235"/><stop offset=".405" stop-color="#c49d2c"/><stop offset=".559" stop-color="#d4b35c"/><stop offset=".766" stop-color="#e7cd97"/><stop offset=".919" stop-color="#f3debb"/><stop offset="1" stop-color="#f8e4c9"/></linearGradient><path fill="#B2B2B2" d="M90.341 13.483c-.112.061-.189.091-.232.091-.014 0-.175-.061-.484-.183l-.738-4.146c-.195.091-.351.137-.463.137-.07 0-.183-.015-.337-.046a2.173 2.173 0 0 0-.316-.045c-2.474-.305-3.914-.455-4.321-.455-.07 0-.175-.023-.315-.068a1.152 1.152 0 0 0-.298-.068c-.056 0-.195.227-.421.683a300.88 300.88 0 0 0-.063 3.554c-.07 1.367-.33 2.354-.779 2.961-.238-.425-.422-1.094-.549-2.004-.098-.79-.133-1.52-.104-2.188.056-1.275.084-1.898.084-1.867a5.8 5.8 0 0 0-.021-.41l-.337-.183-.086-.046c-.351 0-.87.023-1.559.068a25.21 25.21 0 0 1-1.539.068.54.54 0 0 1-.179-.045.527.527 0 0 0-.18-.046c.014 0-.365.122-1.138.364-.941.273-1.503.79-1.687 1.549-.07.334-.183.82-.337 1.459-.211.697-.583 1.473-1.117 2.322.014-.485.003-.934-.031-1.344a6.573 6.573 0 0 1-.032-.934c.184-2.309.379-4.268.59-5.877l.633-.639 1.729 1.003c.646-.425 1.468-.759 2.466-1.003 1.615-.363 2.458-.561 2.529-.592-.028-.242-.133-.562-.316-.957-.183 0-.457-.021-.822-.068a7.42 7.42 0 0 0-.843-.068c-.828 0-1.496.319-2.002.957l-.464-.501a4.075 4.075 0 0 1-.042-.501c0-.607.077-1.352.232-2.232l.589-.957.611.639C79.647 1.288 81.313 1 82.648 1h.843c.38.03.667.046.864.046.744 0 1.236.061 1.475.184.492.183.942.655 1.35 1.418l-.147 1.327c-.31.091-.76.364-1.35.821l-.484-.363-.063-.046c-1.447 0-2.346.089-2.697.27l.126.181-.085.719c-.014-.03.437-.045 1.35-.045 1.729 0 3.169.652 4.321 1.959.168-.395.276-.775.326-1.139.05-.365.192-.578.433-.639.098-.03.421-.076.969-.137.225-.061.429.273.611 1.002a65.41 65.41 0 0 1-.105 1.186c0 .395.099 1.776.296 4.146l-.34 1.593zm-.759 19.469c-.464.304-1.166.638-2.107 1.002-.365-.061-.795-.045-1.286.046-.786 0-1.903-.151-3.352-.456a2.258 2.258 0 0 1-1.38-.865c-.344-.455-.657-1.245-.938-2.369a8.817 8.817 0 0 1-.285-1.525 79.726 79.726 0 0 1-.095-1.391 1.946 1.946 0 0 0-.632-.137c-1.321 0-2.831.607-4.532 1.822-.056-.303-.151-.684-.284-1.139s-.207-.865-.221-1.23c.126-1.032.245-2.217.357-3.553.028-.881.12-2.156.274-3.827-.057-.151-.147-.38-.274-.684l-.042-.41c.31-.577.646-.987 1.012-1.229l.527.41c1.434-.668 3.61-1.003 6.533-1.003.057 0 .99.198 2.804.593.112-.122.358-.183.737-.183.38 0 .66-.061.844-.183l.884.273c.437.243.654.578.654 1.002 0 .184-.063.41-.19.684l-.104.229c-.183.395-.274.729-.274 1.002 0 .152.028.365.085.638v3.326a9.62 9.62 0 0 1-.865 4.009 15.157 15.157 0 0 0-1.096-.455.77.77 0 0 1-.295.045l-2.065-.455c-.043 0-.73.076-2.065.228a2.06 2.06 0 0 0-.211.957c0 .819.464 1.229 1.391 1.229.184 0 .46.046.833.137.372.092.657.137.854.137.646 0 1.608-.228 2.887-.684 1.278-.455 2.241-.683 2.888-.683.197 0 .442.015.737.046-.197 1.183-.767 2.732-1.708 4.646zM75.545 16.961a3.746 3.746 0 0 1-.189-1.14c0-.151.007-.379.021-.683.014-.304.021-.547.021-.729 0-.182.049-.379.147-.592s.203-.289.316-.229l.4.229 2.233-.774c.24.091.482.197.728.319.246.121.439.379.579.773v1.367c-1.67.183-3.09.669-4.256 1.459zm4.427-4.829c-2.347 0-3.724.35-4.131 1.048l-.443-.684c.057-.759.084-1.169.084-1.229v-.092l-.021-.091a4.713 4.713 0 0 1-.063-.456l.127-.318c2.023-.365 3.077-.547 3.161-.547.787 0 1.236.501 1.349 1.504-.014.151-.036.439-.063.865zm.168 10.979c-.856.03-2.122.288-3.794.774l-.147 1.367.084.137c.45-.183 1.121-.342 2.014-.479.892-.137 1.542-.281 1.949-.434l.063-1.093-.169-.272zm-.148-3.964c-.07 0-1.181.197-3.33.593-.126.425-.189.79-.189 1.093 0 .122.021.305.063.547l.041.092c.07 0 .177.029.316.091l3.373-.774.146-.592c-.11-.7-.251-1.05-.42-1.05zm6.828 3.63l-.104-.091c-.632.213-1.327.273-2.086.182-.858-.152-1.322-.228-1.393-.228-.618 0-1.067.137-1.348.41l.041 1.185c.057.091.106.137.147.137a.614.614 0 0 0 .212-.068.584.584 0 0 1 .211-.068c-.015 0 .351.061 1.096.182.07.031.168.031.295 0 .141-.029.238-.045.295-.045.099 0 .977.213 2.634.638l.063-.364-.063-1.87zm-.02-3.372c-.127-.212-.245-.303-.358-.273l-.568.184c-.745-.335-1.427-.502-2.045-.502-.351 0-.661.098-.928.289-.126-.092-.225-.137-.295-.137-.141 0-.273.111-.4.338a1.489 1.489 0 0 0-.189.744c0 .119.021.24.063.36a60.95 60.95 0 0 1 1.075-.046c.141 0 1.356.121 3.646.365.014-.092.021-.168.021-.229l-.022-1.093zm1.117-7.502c-.141.152-.268.244-.379.273a.616.616 0 0 1-.338 0 2.518 2.518 0 0 0-.357-.045h-1.097c-1.209 0-1.975.182-2.298.547l-.273-.273-.189-1.23.063-.455-.127-.684.315-.365.591.229c.394-.152.913-.229 1.561-.229h.548c.898 0 1.58.305 2.043.912l-.063 1.32zm-.274 3.539c-.111.091-.407.137-.885.137-.394.03-.646.152-.758.364l-.233-.183a.75.75 0 0 0-.168-.091c-.871 0-1.596.137-2.171.41-.183-.122-.309-.485-.379-1.093-.043-.486-.085-.957-.127-1.413l.274-.546.632.137c.268 0 .66-.031 1.181-.092.52-.061.912-.092 1.18-.092.521 0 1.109.456 1.771 1.367l-.317 1.095zM110.924 20.497c-.604.883-1.174 1.611-1.707 2.189-1.869-.881-3.161-1.322-3.878-1.322-.211 0-.415.031-.611.092-.281 1.701-.64 3.113-1.075 4.236-.576 1.488-1.433 2.871-2.571 4.146-1.012 1.154-2.023 1.975-3.035 2.461-.534.09-1.32.379-2.36.865l-.506-.319-.274.091c-.098-.121-.259-.242-.484-.363-.225-.122-.408-.32-.549-.594l-.021-2.231c.184-.364.365-.714.548-1.048.184-.334.415-.502.695-.502.127 0 .317.039.569.114.253.076.443.114.569.114.338 0 .913-.258 1.729-.775.772-.485 1.342-.926 1.707-1.32.323-.334.784-.904 1.38-1.709.598-.805.96-1.328 1.087-1.571a5.418 5.418 0 0 0 .8-2.187c-.07-.092-.26-.137-.568-.137-.563-.031-1.406.076-2.529.318l-.254-.182-3.583 1.32-.188-.091c-1.166.547-1.954.957-2.361 1.23a8.201 8.201 0 0 0-2.192 2.187l-.337-2.597a3.12 3.12 0 0 0 .201-1.048c.007-.365.031-.607.073-.729.28-1.096.857-1.643 1.728-1.643.142 0 .268.03.38.092 2.501-1.552 5.48-2.645 8.937-3.285-.506-1.063-1.082-1.594-1.729-1.594-.464 0-.787.273-.969.82l-1.055-.456c-.141-.243-.211-.761-.211-1.552 0-.182-.007-.349-.021-.502.07-.213.141-.547.211-1.003.253-.638.464-.956.632-.956.099 0 .296.137.591.41.505-.456 1.053-1.217 1.644-2.282.506-.911 1.005-1.822 1.497-2.735-.141-.121-.479-.183-1.013-.183-.716 0-1.594.198-2.634.593-1.266.516-2.045 1.139-2.34 1.867l-.527-.455c0-.152-.014-.44-.042-.865-.027-.334-.042-.607-.042-.82s.049-.547.147-1.002c.099-.456.134-.836.105-1.14l.844-1.185.505.592a8.744 8.744 0 0 1 4.215-1.047c.675 0 1.286-.168 1.834-.502l.569.229 1.096-.639c.043.244.12.426.232.547.225.243.449.471.674.684.226.365.337.836.337 1.412 0 .395-.069.715-.21.957a13.566 13.566 0 0 1-1.201 1.641c-.197.151-.478.439-.844.865-.042.061-.266.563-.674 1.504-.085.212-.337.607-.759 1.184-.323.426-.527.866-.611 1.322.028.334.168.622.422.865l.59.547c.14.213.33.676.569 1.389.238.715.456 1.146.653 1.299.154.121.498.182 1.032.182.941 0 1.644.076 2.108.229.646.123 1.285.244 1.918.366.744.335 1.193 1.188 1.349 2.56l-.212 1.052zM128.304 14.318c-.141.942-.373 2.339-.696 4.191-.477 2.399-.913 4.282-1.307 5.649-.253.851-.633 1.762-1.138 2.733l-1.307 2.369c-1.082 2.157-2.065 3.447-2.951 3.872l-.632-.455a8.988 8.988 0 0 1-.127-1.458c0-1.032.127-1.883.379-2.552.253-.668.647-1.366 1.182-2.096.603-.819 1.004-1.427 1.2-1.822 1.602-3.219 2.747-7.258 3.436-12.118-.337-.547-.766-.881-1.286-1.003-.098-.029-.562-.045-1.391-.045-.084 0-.222-.023-.41-.068a2.05 2.05 0 0 0-.412-.068c-.505 0-1.089.941-1.748 2.824l-.634 1.777c-.266.668-.666 1.686-1.2 3.053-.38 1.094-.983 2.703-1.813 4.829-.493 1.124-1.156 2.271-1.992 3.439s-1.592 1.754-2.266 1.754c-.099 0-.604-.167-1.518-.501l-.4-2.051.422-1.594a627.588 627.588 0 0 0 3.014-2.551c1.11-1.094 1.988-2.431 2.635-4.01.253-.607.593-1.587 1.021-2.939.429-1.352.763-2.33 1.002-2.938l-.169-.092c-.632.243-1.265.471-1.897.684-.506.213-1.117.865-1.833 1.959l-.274-.228-.21-1.229c.014-.152.021-.866.021-2.143 0-1.068.098-1.754.295-2.059.464 0 1.345-.16 2.645-.48s2.126-.602 2.478-.847c.491-.304.85-1.003 1.075-2.096l-.485-3.053.379-.911c.154 0 .349-.167.58-.501.231-.335.426-.501.58-.501.041 0 .119.03.231.091.112.396.442.819.991 1.276.478.395.766 1.123.863 2.186-.07.547-.252 1.154-.548 1.822-.309.76-.506 1.307-.59 1.641.702 0 1.636.184 2.803.549.042-.03.239-.35.59-.959.225-.395.436-.592.633-.592.084 0 .323.258.717.774.168.212.352.458.548.731.196.274.33.558.399.846.07.291.134.549.19.778.057.228.162.435.316.617-.632.797-1.096 1.968-1.391 3.516zM137.738 13.407c-.099.486-.189 1.321-.273 2.506a273.752 273.752 0 0 0-.19 2.688c-.491 4.496-1.65 8.201-3.477 11.117-.802 1.275-1.455 1.867-1.961 1.776h-.189l-.422-1.275a18.294 18.294 0 0 1-.042-1.14c0-1.063.176-1.988.526-2.779.225-.516.626-1.139 1.202-1.867.674-.881 1.145-1.549 1.412-2.004a10.83 10.83 0 0 0 1.085-2.848c.246-1.049.454-2.757.622-5.126.141-2.034.211-3.843.211-5.421 0-.881-.099-1.504-.295-1.869a1.738 1.738 0 0 1-.19-.819c0-.79.158-1.496.475-2.118.316-.623.656-.935 1.022-.935.548 0 .886.638 1.012 1.913-.099.912-.219 2.324-.358 4.238-.141 2.065-.198 3.386-.17 3.963zm9.956 7.381c-1.125 2.855-2.754 5.527-4.89 8.018-.043.062-.457.471-1.245 1.23a6.87 6.87 0 0 0-1.158 1.549c-.31-.547-.576-1.344-.801-2.392s-.338-1.981-.338-2.802c0-.455.028-1.139.084-2.051.085-1.063.127-1.761.127-2.096.026-2.186.06-5.451.099-9.795 0-.425.028-1.094.084-2.004a35.87 35.87 0 0 0 .085-2.051c0-.334-.134-.805-.401-1.412-.267-.607-.4-1.108-.4-1.504.548-1.852 1.125-2.779 1.729-2.779.702 0 1.173.381 1.411 1.14.014.547-.112 1.321-.379 2.323a3.232 3.232 0 0 0-.138.547c-.021.152-.077 1.131-.168 2.938a167.256 167.256 0 0 0-.138 2.938c0 .121.007.365.023.729.016.365.024.639.024.82 0 .517-.022 1.276-.066 2.278a55.762 55.762 0 0 0-.065 2.232c0 .062.028 1.169.084 3.325.048.213.07.441.07.684 0 .122-.007.313-.021.57s-.021.463-.021.615c0 .242.028.471.085.684 1.096-.973 2.431-2.719 4.004-5.24l1.813-3.371c.717-1.215 1.44-1.943 2.171-2.188-.364 2.828-.92 5.182-1.664 7.065zM167.975 17.108c-.184.062-.426.35-.728.868s-.579.776-.833.776c-.154 0-.519-.197-1.096-.592-.674-.486-1.081-.76-1.222-.82-.267.03-.661-.016-1.181-.137l-.379.182-.718-.41c-.154.334-.309 1.276-.463 2.823-.112.94-.196 1.636-.253 2.09-.112.788-.245 1.44-.4 1.956a21.431 21.431 0 0 1-1.833 4.227c-.815 1.424-1.603 2.363-2.361 2.817-1.293.82-2.24 1.228-2.845 1.228-.211 0-.795-.105-1.75-.318l-.295-1.412c.042-1.822.407-2.977 1.096-3.463.281-.182.963-.273 2.045-.273.449 0 .94-.137 1.475-.41.675-.361 1.406-1.197 2.192-2.502.885-1.486 1.327-2.853 1.327-4.096 0-.092-.007-.227-.021-.408l-.042-.365c-.295-.485-.513-1.184-.653-2.094l-.295-.318c-.421-.03-1.047-.016-1.876.045-.31.061-1.026.334-2.15.818-1.166.517-1.848.881-2.044 1.094s-.365.592-.506 1.137l-.358.273-.484-.091-.189-1.501c.126-1.184.239-2.033.337-2.549.168-.941.4-1.639.695-2.094 1.082-.303 2.704-.729 4.869-1.275.589-.121 1.447-.182 2.57-.182 1.139 0 3.506.334 7.104 1.002.028 0 .07-.03.127-.091l.211-.091.21.091c.042.03.092.061.147.091l1.033-.182.548.502c-.084.547-.253 1.195-.507 1.941-.251.746-.42 1.317-.504 1.713zm-2.572-11.492c-.07 1.275-.618 1.914-1.644 1.914-.254 0-.618-.046-1.097-.137-.478-.092-.836-.137-1.075-.137-.112 0-.26-.03-.442-.092-.239-.061-.387-.105-.442-.137a7.172 7.172 0 0 0-1.412-.137c-.21 0-.844.107-1.897.32-1.053.212-1.622.363-1.707.455-.014 0-.095.137-.242.41s-.271.395-.369.364l-.442-.228-.357-1.731c.084-1.61.407-2.566.969-2.87.225 0 .563-.076 1.013-.229 1.096-.637 2.374-.896 3.835-.773 1.757.151 2.663.227 2.719.227 1.013.244 1.883.791 2.613 1.641a54.77 54.77 0 0 1-.023 1.14z"/><path fill="#316745" d="M89.328 12.483c-.112.061-.189.091-.232.091-.014 0-.175-.061-.484-.182l-.738-4.146c-.196.091-.352.137-.463.137-.07 0-.183-.015-.337-.045s-.261-.045-.317-.045c-2.473-.304-3.913-.456-4.32-.456-.07 0-.175-.023-.315-.068a1.124 1.124 0 0 0-.298-.069c-.056 0-.196.228-.422.683a351.026 351.026 0 0 0-.063 3.554c-.07 1.367-.33 2.354-.78 2.961-.238-.425-.421-1.094-.548-2.005a13.09 13.09 0 0 1-.104-2.187c.056-1.276.084-1.898.084-1.868 0-.091-.007-.228-.021-.41l-.337-.182-.085-.045c-.351 0-.87.023-1.559.068s-1.202.068-1.539.068a.545.545 0 0 1-.18-.045.523.523 0 0 0-.179-.046c.014 0-.365.122-1.138.365-.941.273-1.504.79-1.687 1.549-.07.334-.183.82-.337 1.458-.211.698-.583 1.473-1.117 2.323a12.1 12.1 0 0 0-.031-1.344 6.573 6.573 0 0 1-.032-.934c.184-2.308.379-4.267.59-5.877l.633-.638 1.729 1.002c.646-.425 1.468-.759 2.466-1.002 1.615-.364 2.458-.562 2.529-.592-.028-.243-.134-.562-.316-.957-.183 0-.457-.022-.822-.068a7.437 7.437 0 0 0-.843-.068c-.829 0-1.496.319-2.002.957l-.464-.501a4.097 4.097 0 0 1-.043-.501c0-.607.077-1.352.232-2.232l.59-.957.611.638C78.635.289 80.3 0 81.635 0h.843c.38.03.668.045.865.045.744 0 1.236.061 1.475.184.492.183.941.655 1.35 1.418l-.148 1.328c-.31.091-.76.365-1.35.822l-.484-.364-.063-.045c-1.447 0-2.347.089-2.697.27l.125.18-.084.72c-.014-.031.437-.046 1.35-.046 1.728 0 3.168.653 4.32 1.959.169-.395.277-.774.327-1.139.049-.365.192-.577.432-.638.099-.03.422-.076.97-.136.225-.061.429.273.611 1.002a63.33 63.33 0 0 1-.105 1.185c0 .395.099 1.777.295 4.146l-.339 1.592zm-.759 19.469c-.464.304-1.166.638-2.107 1.002-.365-.061-.795-.046-1.286.045-.787 0-1.903-.152-3.352-.456a2.254 2.254 0 0 1-1.38-.866c-.345-.456-.657-1.245-.938-2.369-.154-.577-.25-1.085-.285-1.526s-.066-.904-.095-1.39c-.253-.091-.464-.137-.633-.137-1.32 0-2.831.607-4.531 1.822a11.951 11.951 0 0 0-.285-1.139 5.25 5.25 0 0 1-.221-1.23c.127-1.033.246-2.217.358-3.554.027-.881.12-2.156.274-3.827a20.78 20.78 0 0 0-.274-.684l-.042-.41c.31-.577.646-.987 1.012-1.23l.527.41c1.433-.668 3.61-1.002 6.533-1.002.057 0 .99.198 2.804.592.111-.122.358-.182.736-.182.38 0 .661-.061.845-.182l.884.273c.437.243.654.577.654 1.002 0 .183-.063.41-.19.684l-.104.228c-.184.395-.274.729-.274 1.002 0 .152.028.365.084.638v3.326a9.62 9.62 0 0 1-.864 4.009 15.078 15.078 0 0 0-1.096-.456.752.752 0 0 1-.295.046l-2.065-.456c-.043 0-.731.076-2.065.228a2.058 2.058 0 0 0-.211.957c0 .82.464 1.23 1.391 1.23.184 0 .46.045.833.137.372.091.657.137.854.137.646 0 1.608-.228 2.888-.684 1.278-.456 2.24-.683 2.888-.683.196 0 .442.015.736.045-.197 1.188-.767 2.737-1.708 4.65zM74.532 15.961a3.74 3.74 0 0 1-.189-1.139c0-.152.007-.379.021-.683.015-.304.021-.547.021-.729s.049-.38.147-.592c.099-.213.203-.289.316-.228l.4.228 2.233-.774c.239.091.481.197.728.319s.438.379.579.774v1.367c-1.671.181-3.09.667-4.256 1.457zm4.426-4.829c-2.346 0-3.723.349-4.131 1.048l-.442-.684c.056-.759.084-1.169.084-1.23v-.091l-.021-.091a5.487 5.487 0 0 1-.063-.456l.126-.319c2.024-.364 3.078-.546 3.162-.546.787 0 1.236.501 1.349 1.503a38.54 38.54 0 0 0-.064.866zm.169 10.979c-.857.03-2.122.289-3.794.774l-.147 1.367.084.137c.45-.182 1.121-.341 2.013-.478.893-.137 1.543-.281 1.95-.433l.063-1.093-.169-.274zm-.148-3.963c-.07 0-1.181.197-3.33.592-.127.425-.189.79-.189 1.093 0 .122.021.304.063.547l.042.091c.07 0 .176.03.316.091l3.372-.774.147-.592c-.111-.699-.252-1.048-.421-1.048zm6.829 3.629l-.104-.091c-.633.213-1.328.273-2.087.183-.857-.152-1.321-.228-1.392-.228-.618 0-1.067.137-1.349.41l.042 1.185c.057.091.105.137.147.137a.62.62 0 0 0 .212-.068.586.586 0 0 1 .21-.068c-.015 0 .352.061 1.097.182.07.03.168.03.295 0 .141-.03.238-.045.295-.045.099 0 .976.212 2.634.638l.063-.365-.063-1.87zm-.021-3.371c-.127-.212-.245-.304-.358-.273l-.568.183c-.745-.334-1.427-.501-2.045-.501-.352 0-.661.097-.928.289-.126-.091-.225-.137-.295-.137-.141 0-.274.112-.4.338a1.489 1.489 0 0 0-.189.744c0 .12.021.241.063.361a54.99 54.99 0 0 1 1.075-.045c.141 0 1.356.121 3.646.364.014-.091.021-.167.021-.228-.001-.093-.008-.457-.022-1.095zm1.116-7.502c-.141.152-.267.243-.379.273a.632.632 0 0 1-.337 0 2.368 2.368 0 0 0-.358-.045h-1.096c-1.209 0-1.975.182-2.298.546l-.274-.273-.188-1.23.063-.456-.127-.683.315-.365.591.228c.394-.152.913-.228 1.56-.228h.548c.899 0 1.581.304 2.044.911l-.064 1.322zm-.273 3.538c-.112.091-.408.137-.885.137-.394.03-.646.152-.759.364l-.232-.182a.75.75 0 0 0-.168-.091c-.871 0-1.596.137-2.171.41-.184-.122-.309-.486-.379-1.093-.043-.486-.085-.957-.127-1.413l.274-.546.632.137c.267 0 .66-.031 1.18-.091a11.01 11.01 0 0 1 1.181-.091c.521 0 1.109.456 1.771 1.367l-.317 1.092z"/><path d="M109.91 19.498c-.604.883-1.173 1.611-1.706 2.188-1.869-.881-3.161-1.321-3.879-1.321-.211 0-.414.031-.611.091-.28 1.701-.639 3.113-1.074 4.237-.576 1.488-1.434 2.871-2.571 4.146-1.013 1.154-2.023 1.974-3.035 2.46-.534.091-1.32.379-2.36.865l-.507-.319-.273.091c-.099-.122-.26-.243-.485-.364-.225-.122-.407-.319-.548-.593l-.021-2.232c.183-.365.365-.714.548-1.048.184-.334.415-.501.695-.501.127 0 .316.038.569.114.253.076.443.114.569.114.338 0 .913-.258 1.729-.775.772-.486 1.341-.926 1.707-1.321.322-.334.783-.904 1.38-1.708.598-.805.96-1.329 1.086-1.572a5.41 5.41 0 0 0 .801-2.187c-.07-.091-.261-.137-.569-.137-.562-.03-1.405.076-2.529.319l-.253-.182-3.583 1.321-.19-.09c-1.167.547-1.954.957-2.361 1.23a8.201 8.201 0 0 0-2.192 2.187l-.337-2.597a3.12 3.12 0 0 0 .2-1.048c.007-.365.032-.607.073-.729.281-1.095.857-1.642 1.729-1.642.142 0 .267.03.38.091 2.501-1.551 5.479-2.645 8.937-3.284-.506-1.063-1.082-1.595-1.729-1.595-.464 0-.787.273-.97.82l-1.054-.456c-.141-.243-.211-.761-.211-1.551 0-.182-.007-.349-.021-.503.07-.212.14-.547.21-1.002.254-.638.464-.957.633-.957.099 0 .295.137.59.41.506-.456 1.054-1.217 1.645-2.282.505-.911 1.005-1.822 1.496-2.735-.14-.122-.478-.183-1.012-.183-.716 0-1.595.198-2.634.592-1.266.517-2.045 1.139-2.34 1.868l-.527-.456c0-.152-.014-.44-.042-.866a10.196 10.196 0 0 1-.042-.82c0-.212.049-.546.147-1.002.098-.456.134-.835.104-1.139l.844-1.185.506.592a8.73 8.73 0 0 1 4.215-1.048c.675 0 1.286-.167 1.834-.501l.569.228 1.096-.638c.043.243.12.425.232.547.225.243.449.471.674.683.226.365.337.835.337 1.413 0 .395-.07.714-.21.957a13.558 13.558 0 0 1-1.201 1.64c-.197.152-.478.44-.844.866-.042.061-.267.562-.674 1.503-.085.212-.337.607-.759 1.185-.323.425-.527.866-.611 1.321.027.334.168.623.422.866l.589.546c.141.213.331.676.57 1.39.238.714.456 1.146.652 1.298.154.122.499.182 1.033.182.941 0 1.644.076 2.107.228l1.918.366c.745.334 1.194 1.188 1.35 2.559l-.211 1.055zM127.291 13.318c-.141.942-.373 2.339-.696 4.191-.478 2.399-.913 4.283-1.308 5.649-.252.851-.632 1.762-1.137 2.733l-1.308 2.369c-1.082 2.157-2.065 3.447-2.95 3.873l-.632-.456a8.877 8.877 0 0 1-.127-1.458c0-1.033.127-1.883.379-2.551.253-.668.646-1.367 1.181-2.096.604-.82 1.005-1.427 1.201-1.822 1.602-3.219 2.747-7.259 3.436-12.119-.337-.547-.766-.881-1.286-1.002-.098-.03-.562-.045-1.391-.045-.084 0-.222-.023-.41-.068a2.06 2.06 0 0 0-.412-.068c-.505 0-1.089.941-1.749 2.825l-.633 1.777c-.266.668-.667 1.686-1.201 3.052-.38 1.094-.983 2.703-1.812 4.83-.493 1.124-1.156 2.27-1.992 3.439s-1.592 1.754-2.266 1.754c-.099 0-.604-.167-1.518-.501l-.4-2.05.421-1.594a582.525 582.525 0 0 0 3.015-2.551c1.109-1.094 1.988-2.43 2.634-4.009.254-.607.594-1.587 1.022-2.939.429-1.352.763-2.331 1.002-2.938l-.169-.091c-.633.243-1.265.471-1.897.683-.506.213-1.117.866-1.833 1.959l-.274-.228-.211-1.23c.015-.152.021-.866.021-2.142 0-1.068.098-1.754.295-2.06.464 0 1.345-.159 2.645-.48s2.126-.602 2.478-.847c.491-.304.85-1.002 1.075-2.096l-.486-3.053.38-.911c.154 0 .349-.167.58-.501.231-.334.425-.501.579-.501.042 0 .12.031.231.091.113.395.443.82.991 1.276.479.395.766 1.124.864 2.187-.07.547-.253 1.154-.548 1.822-.31.759-.506 1.306-.59 1.64.702 0 1.636.184 2.802.549.043-.03.24-.349.591-.958.225-.395.436-.592.632-.592.085 0 .324.258.718.774.168.212.351.458.548.731.196.275.329.558.399.847l.19.778a1.5 1.5 0 0 0 .316.617c-.631.791-1.096 1.963-1.39 3.511zM136.726 12.407c-.099.486-.189 1.321-.274 2.506a293.356 293.356 0 0 0-.189 2.688c-.491 4.495-1.651 8.201-3.478 11.116-.801 1.276-1.455 1.868-1.96 1.777h-.19l-.421-1.275a17.582 17.582 0 0 1-.043-1.139c0-1.063.177-1.989.527-2.779.225-.516.625-1.139 1.202-1.868.674-.881 1.145-1.549 1.411-2.004.479-.851.84-1.8 1.086-2.848s.454-2.756.622-5.125c.141-2.035.211-3.842.211-5.421 0-.881-.099-1.503-.295-1.868a1.742 1.742 0 0 1-.19-.82c0-.79.158-1.496.474-2.119.316-.623.657-.934 1.023-.934.548 0 .885.638 1.012 1.914a133.49 133.49 0 0 0-.359 4.237c-.142 2.064-.198 3.385-.169 3.962zm9.955 7.381c-1.124 2.855-2.754 5.528-4.89 8.018-.042.061-.457.471-1.244 1.23a6.87 6.87 0 0 0-1.158 1.549c-.31-.547-.577-1.344-.802-2.392s-.337-1.981-.337-2.802c0-.456.027-1.139.084-2.05.085-1.063.127-1.761.127-2.096.026-2.187.06-5.452.099-9.795 0-.425.027-1.094.084-2.005s.084-1.594.084-2.05c0-.334-.133-.805-.4-1.413-.267-.607-.4-1.108-.4-1.503.548-1.853 1.125-2.779 1.729-2.779.703 0 1.174.38 1.412 1.139.014.547-.113 1.321-.379 2.324-.071.212-.117.395-.138.546s-.077 1.131-.168 2.938a166.575 166.575 0 0 0-.138 2.939c0 .121.007.364.022.729.017.365.025.638.025.82 0 .516-.023 1.276-.066 2.278a53.852 53.852 0 0 0-.065 2.232c0 .061.027 1.169.084 3.326.048.213.07.44.07.684 0 .122-.007.312-.021.569-.014.258-.022.463-.022.615 0 .243.029.471.086.684 1.096-.972 2.43-2.719 4.004-5.239l1.813-3.372c.717-1.215 1.439-1.944 2.171-2.187-.367 2.826-.921 5.18-1.666 7.063zM166.962 16.109c-.184.061-.426.35-.728.868s-.579.776-.833.776c-.154 0-.52-.197-1.096-.592-.674-.486-1.081-.759-1.222-.82-.268.031-.661-.015-1.182-.136l-.379.182-.717-.41c-.154.334-.309 1.276-.463 2.823-.112.94-.197 1.636-.253 2.09-.113.788-.246 1.441-.401 1.956a21.465 21.465 0 0 1-1.833 4.228c-.814 1.424-1.602 2.363-2.36 2.817-1.293.82-2.241 1.228-2.846 1.228-.21 0-.794-.106-1.749-.319l-.295-1.412c.042-1.822.407-2.977 1.096-3.462.281-.183.963-.273 2.045-.273.449 0 .94-.137 1.475-.41.675-.362 1.405-1.198 2.192-2.502.885-1.486 1.327-2.853 1.327-4.097 0-.091-.007-.226-.021-.408l-.042-.364c-.296-.486-.513-1.185-.653-2.094l-.295-.319c-.422-.03-1.047-.015-1.877.045-.309.061-1.025.334-2.149.818-1.166.516-1.848.881-2.045 1.093-.195.212-.364.592-.505 1.137l-.358.273-.484-.091-.19-1.501c.127-1.183.239-2.033.338-2.548.168-.941.4-1.64.695-2.094 1.082-.304 2.704-.729 4.868-1.275.59-.122 1.447-.182 2.571-.182 1.139 0 3.506.334 7.104 1.002.027 0 .07-.03.127-.091l.21-.091.211.091c.042.03.091.061.147.091l1.033-.182.548.503c-.084.547-.254 1.194-.507 1.94-.251.744-.42 1.315-.504 1.712zm-2.571-11.492c-.07 1.275-.618 1.914-1.645 1.914-.253 0-.618-.046-1.096-.137-.478-.091-.836-.137-1.075-.137-.112 0-.26-.03-.442-.091-.239-.061-.387-.106-.443-.137a7.087 7.087 0 0 0-1.411-.137c-.211 0-.844.106-1.897.319-1.054.212-1.622.364-1.707.456-.014 0-.095.137-.242.41-.147.273-.271.395-.369.365l-.442-.228-.358-1.731c.084-1.61.408-2.566.97-2.871.225 0 .562-.076 1.012-.228 1.097-.638 2.374-.896 3.835-.774 1.757.152 2.663.228 2.72.228 1.012.243 1.883.79 2.613 1.64-.003.273-.01.653-.023 1.139z"/><linearGradient id="c" gradientUnits="userSpaceOnUse" x1="93.285" y1="15.034" x2="148.591" y2="70.34"><stop offset="0" stop-color="#ead18f"/><stop offset=".076" stop-color="#e1c477"/><stop offset=".221" stop-color="#d1af4e"/><stop offset=".335" stop-color="#c8a235"/><stop offset=".405" stop-color="#c49d2c"/><stop offset=".559" stop-color="#d4b35c"/><stop offset=".766" stop-color="#e7cd97"/><stop offset=".919" stop-color="#f3debb"/><stop offset="1" stop-color="#f8e4c9"/></linearGradient><path opacity=".8" fill="url(#c)" d="M72.132 36.187h97.612v13H72.132z"/><path fill="#ABABAB" d="M81.782 64.131c-.475.58-.959.939-1.45 1.07-.222.053-.563.156-1.022.314-.224.133-.563.279-1.024.438-.57.078-.966.143-1.188.197a3.755 3.755 0 0 0-1.167.475c-.127-.264-.229-.672-.309-1.229-.063-.367-.166-.617-.309-.75a5.825 5.825 0 0 1-.024-.473c0-.557.107-1.068.321-1.545.213-.475.486-.713.82-.713.968.053 2.268.053 3.901 0 .665-.025 1.116.029 1.355.16.43.209.762.711.999 1.504-.331.052-.633.237-.903.552zm8.541 2.178c-4.347 7.225-8.564 11.775-12.655 13.646l-1.286-1.461a5.135 5.135 0 0 1-.071-.793c0-.525.247-1.502.737-2.93.715-.34 1.437-.684 2.165-1.025a16.868 16.868 0 0 0 2.116-1.268c1.318-1.004 3.253-3.162 5.805-6.488.303-.393 1.112-1.646 2.428-3.756.968-1.559 1.84-2.665 2.615-3.325l.572.277c-.129 2.269-.936 4.642-2.426 7.123zm-6.21-9.427c-.301.553-.546.803-.736.752l-4.067-.91c-.063 0-.184.059-.358.178s-.309.176-.403.176l-.191-.039-.38-1.936c-.063-.236-.032-.58.095-1.027.253-.92.816-1.383 1.689-1.383.206 0 .451.107.738.316.38.238.625.369.737.396.412.129 1.068.379 1.973.748.92.449 1.508 1.135 1.761 2.057-.318 0-.603.223-.858.672zM116.94 77.783l-1.046.91c-1.284-.688-2.655-2.084-4.115-4.197a1343.271 1343.271 0 0 1-3.593-5.457c-.237.264-1.545 1.975-3.926 5.143-1.537 2.031-2.979 3.426-4.328 4.191-.063-.156-.198-.289-.404-.395-.365-.156-.729-.33-1.094-.514-.492-.213-.816-.434-.976-.672-.049-.08-.166-.555-.357-1.426.222-.738.65-1.227 1.284-1.461a21.61 21.61 0 0 0 1.594-.459c.524-.17 1.261-.783 2.212-1.84 2.094-2.268 3.625-4.232 4.592-5.893.73-1.24 1.896-3.693 3.498-7.358l-.405-.16c-.572.133-1.261.238-2.069.316-.744.131-1.856.344-3.332.635l-1.402.234c-.522.16-.944.479-1.261.954l-.355-.277c0-1.505-.04-2.454-.121-2.851.034-.818.311-1.439.833-1.859.145-.105.627-.355 1.452-.75.253.633.443.932.572.91l5.778-.99.237-.041c.256 0 .524.105.81.316.031-.027.261-.383.69-1.068.269-.42.522-.633.762-.633.095 0 .205.027.332.082.095.314.376.646.845.986.467.344.812.764 1.035 1.268-.999 1.662-1.65 2.859-1.951 3.598a92.682 92.682 0 0 1-1.142 3.05c-.126.287-.508.988-1.142 2.098-.508.896-.824 1.633-.951 2.213a205.597 205.597 0 0 1 2.639 3.207c.937 1.051 1.959 1.762 3.069 2.133 1.001.211 2.498.672 4.494 1.385-.253.795-.724 1.615-1.414 2.473-.688.859-1.138 1.592-1.344 2.199zM142.084 65.953c-.208.053-.479.305-.821.752-.34.451-.652.674-.939.674-.172 0-.586-.17-1.236-.514-.76-.422-1.223-.66-1.379-.713-.303.025-.746-.014-1.332-.117l-.429.154-.81-.352c-.174.289-.348 1.107-.522 2.449a651.01 651.01 0 0 1-.286 1.818c-.127.686-.275 1.252-.451 1.701a16.9 16.9 0 0 1-2.069 3.678c-.92 1.238-1.809 2.059-2.665 2.455-1.458.711-2.528 1.066-3.211 1.066-.237 0-.896-.092-1.975-.279l-.332-1.225c.045-1.582.461-2.584 1.236-3.008.318-.158 1.086-.236 2.309-.236.507 0 1.063-.117 1.664-.355.762-.316 1.585-1.045 2.473-2.18.999-1.291 1.5-2.479 1.5-3.559 0-.08-.008-.199-.026-.355l-.045-.318c-.332-.42-.58-1.029-.738-1.82l-.332-.277c-.475-.027-1.182-.012-2.117.041-.35.051-1.157.287-2.428.711-1.315.449-2.085.768-2.307.949-.222.186-.411.516-.571.99l-.404.238-.548-.08-.216-1.305c.143-1.027.271-1.77.385-2.217.189-.818.45-1.424.783-1.82a272.57 272.57 0 0 1 5.496-1.107c.664-.107 1.634-.158 2.902-.158 1.283 0 3.956.289 8.016.871.032 0 .08-.029.143-.08l.237-.078.238.078c.047.027.103.051.168.08l1.165-.158.619.434c-.097.475-.289 1.039-.573 1.686-.287.646-.477 1.142-.572 1.486zm-2.902-9.972c-.077 1.109-.696 1.662-1.854 1.662-.285 0-.698-.039-1.236-.119-.542-.078-.946-.119-1.215-.119-.127 0-.293-.025-.501-.078a3.85 3.85 0 0 1-.498-.119 10.488 10.488 0 0 0-1.595-.117c-.237 0-.952.09-2.139.275-1.191.184-1.834.316-1.927.396-.016 0-.109.119-.275.355-.166.238-.305.346-.417.316l-.499-.197-.401-1.504c.091-1.396.457-2.229 1.092-2.492.254 0 .634-.068 1.142-.197 1.238-.555 2.681-.779 4.329-.674 1.984.131 3.005.199 3.068.199 1.144.209 2.127.686 2.952 1.424 0 .239-.011.568-.026.989zM164.826 77.615c-.222 0-.517-.08-.881-.236-.411-.16-.698-.266-.854-.318-.366-.053-1.636-.197-3.807-.436-1.46-.156-2.277-.236-2.451-.236-3.425 0-6.271 1.055-8.541 3.164-.602-.869-.903-2.293-.903-4.271 0-.264.136-.582.407-.949.425-.213.758-.305.997-.279.556-.473 1.076-1.389 1.57-2.734.378-1.107.76-2.213 1.14-3.32.337-.818.817-2.057 1.452-3.719.192-.605.483-1.504.881-2.691.364-1.027.617-1.806.76-2.335.271-.869.471-1.688.596-2.453l-.046-.117a1.512 1.512 0 0 1-.239-.791c0-.818.253-1.451.76-1.898.477-.264.943-.527 1.402-.793.416.291.993.66 1.737 1.109.224.342.336.898.336 1.662 0 .422-.199.91-.598 1.463-.3.396-.603.793-.903 1.186-.997 1.771-2.226 4.845-3.688 9.22-.33.791-.664 1.582-.997 2.371-.411 1.004-.635 1.848-.666 2.533 1.204-.342 2.656-.514 4.354-.514 2.744 0 4.694.213 5.852.633-.269-1.32-.569-2.203-.904-2.652a36.98 36.98 0 0 1-.737-.986 11.444 11.444 0 0 1-.594-1.305c.158-1.135.586-1.805 1.282-2.02.239.107.581.305 1.024.594.016 0 .253.344.712 1.029.208.238.517.633.929 1.188.318.475.706 1.527 1.165 3.164.382 1.318.675 2.494.882 3.525a4.122 4.122 0 0 1-.524 1.523c-.27.457-.575.689-.905.689z"/><path d="M80.97 62.781c-.475.58-.958.936-1.45 1.068-.222.053-.564.158-1.023.316-.222.131-.562.277-1.022.436-.569.08-.968.146-1.189.197a3.79 3.79 0 0 0-1.165.477c-.128-.264-.231-.674-.311-1.227-.062-.369-.164-.621-.309-.752a6.724 6.724 0 0 1-.023-.475c0-.557.106-1.068.32-1.545.216-.473.488-.711.821-.711.967.051 2.269.051 3.901 0 .666-.025 1.119.025 1.354.158.43.213.762.713 1.002 1.504-.335.052-.636.238-.906.554zm8.54 2.176c-4.344 7.225-8.564 11.777-12.653 13.65l-1.286-1.465a4.856 4.856 0 0 1-.071-.791c0-.529.245-1.504.738-2.928.712-.346 1.435-.686 2.164-1.031a16.731 16.731 0 0 0 2.117-1.264c1.315-1.002 3.25-3.164 5.805-6.488.301-.396 1.109-1.648 2.425-3.758.968-1.556 1.841-2.663 2.618-3.325l.569.277c-.126 2.27-.934 4.643-2.426 7.123zm-6.208-9.427c-.301.555-.546.805-.737.75l-4.068-.908c-.063 0-.182.059-.355.178-.177.119-.311.178-.406.178l-.189-.039-.38-1.936c-.065-.238-.031-.578.095-1.027.253-.922.817-1.381 1.689-1.381.206 0 .451.104.736.314.38.236.627.367.738.395.411.131 1.07.381 1.974.748.92.449 1.508 1.135 1.761 2.057-.32-.001-.604.222-.858.671zM116.13 76.432l-1.047.908c-1.286-.686-2.657-2.082-4.117-4.195a1043.653 1043.653 0 0 1-3.591-5.457c-.237.264-1.547 1.979-3.925 5.139-1.539 2.035-2.981 3.436-4.329 4.199-.065-.16-.197-.291-.405-.396a22.87 22.87 0 0 1-1.094-.514c-.491-.211-.817-.436-.976-.676-.046-.076-.166-.551-.356-1.422.222-.74.649-1.229 1.284-1.465a21.08 21.08 0 0 0 1.595-.457c.522-.17 1.26-.783 2.212-1.84 2.093-2.266 3.624-4.23 4.592-5.893.728-1.238 1.896-3.689 3.495-7.358l-.403-.158c-.571.131-1.262.236-2.069.316-.746.133-1.855.344-3.331.631-.476.082-.944.16-1.403.24a2.282 2.282 0 0 0-1.262.949l-.356-.277c0-1.504-.039-2.453-.118-2.85.031-.816.311-1.436.832-1.859.143-.104.628-.354 1.452-.75.254.633.443.936.57.91l5.778-.99.24-.041c.255 0 .521.107.809.318.032-.025.262-.383.69-1.068.27-.424.522-.635.76-.635.095 0 .208.029.335.082.095.314.375.645.843.988.469.344.814.764 1.036 1.266-1.001 1.662-1.65 2.863-1.952 3.602-.238.684-.618 1.701-1.14 3.046-.129.291-.509.99-1.144 2.098-.507.895-.825 1.633-.952 2.215a203.585 203.585 0 0 1 2.642 3.205c.936 1.055 1.958 1.766 3.068 2.135.999.211 2.499.672 4.497 1.385-.256.791-.727 1.613-1.417 2.475-.691.854-1.138 1.584-1.343 2.194zM141.271 64.602c-.204.053-.478.303-.819.752-.343.451-.653.676-.939.676-.177 0-.586-.174-1.239-.516-.762-.422-1.221-.658-1.379-.711-.301.025-.743-.012-1.331-.119l-.428.158-.809-.355c-.177.291-.351 1.107-.524 2.453l-.283 1.818c-.129.684-.281 1.25-.453 1.697a16.876 16.876 0 0 1-2.071 3.68c-.92 1.24-1.807 2.057-2.663 2.451-1.46.713-2.528 1.068-3.213 1.068-.237 0-.894-.094-1.973-.275l-.334-1.229c.048-1.58.459-2.584 1.238-3.008.316-.158 1.084-.236 2.307-.236.507 0 1.063-.119 1.666-.357.762-.316 1.587-1.041 2.474-2.176.999-1.291 1.499-2.479 1.499-3.563 0-.076-.01-.193-.025-.352l-.048-.318c-.332-.422-.577-1.027-.735-1.82l-.335-.277c-.475-.025-1.181-.014-2.116.039-.349.053-1.158.291-2.428.711-1.315.451-2.083.768-2.307.953-.222.182-.41.514-.57.988l-.405.238-.548-.078-.214-1.307c.145-1.031.271-1.768.384-2.217.188-.82.449-1.426.783-1.822 1.221-.264 3.051-.633 5.496-1.107.665-.104 1.632-.158 2.9-.158 1.286 0 3.959.291 8.017.871.031 0 .079-.025.143-.08l.237-.078.239.078c.048.027.101.055.168.08l1.163-.158.617.434c-.095.479-.282 1.039-.569 1.686-.286.646-.476 1.142-.573 1.486zm-2.902-9.97c-.075 1.107-.697 1.662-1.854 1.662-.282 0-.698-.041-1.238-.121-.538-.078-.943-.117-1.211-.117-.128 0-.295-.025-.5-.08-.271-.051-.436-.09-.499-.119a10.476 10.476 0 0 0-1.597-.117c-.237 0-.949.092-2.139.275-1.19.188-1.832.318-1.929.396-.014 0-.106.119-.272.359-.167.234-.305.34-.416.313l-.498-.197-.408-1.502c.1-1.398.461-2.229 1.097-2.494.253 0 .635-.066 1.142-.197 1.236-.555 2.681-.777 4.33-.672 1.982.131 3.005.197 3.068.197 1.144.213 2.125.688 2.952 1.426-.001.236-.01.564-.028.988zM164.015 76.264c-.224 0-.519-.08-.881-.236a20.237 20.237 0 0 0-.856-.316c-.366-.051-1.634-.199-3.808-.438-1.459-.156-2.271-.234-2.448-.234-3.424 0-6.273 1.055-8.54 3.164-.604-.871-.904-2.293-.904-4.273 0-.262.135-.584.403-.951.428-.211.762-.305 1.001-.277.555-.475 1.078-1.387 1.569-2.73l1.142-3.32c.332-.818.816-2.059 1.45-3.721.191-.607.484-1.502.882-2.691.364-1.028.617-1.806.76-2.335.27-.867.467-1.688.596-2.451l-.048-.119a1.53 1.53 0 0 1-.239-.791c0-.818.256-1.451.762-1.9.479-.262.944-.527 1.403-.789.413.287.991.658 1.736 1.105.224.346.335.896.335 1.662 0 .424-.198.91-.596 1.465l-.904 1.186c-.999 1.77-2.228 4.843-3.686 9.22-.335.791-.667 1.582-1.001 2.373-.41 1.002-.634 1.844-.665 2.533 1.205-.346 2.657-.518 4.353-.518 2.744 0 4.694.213 5.853.633-.27-1.318-.57-2.199-.904-2.648-.38-.5-.625-.83-.736-.99-.174-.314-.374-.75-.596-1.305.158-1.133.586-1.807 1.282-2.016.241.105.582.303 1.024.594.017 0 .254.342.715 1.027.205.238.517.635.928 1.188.316.473.704 1.529 1.165 3.164.382 1.318.675 2.492.879 3.523a4.137 4.137 0 0 1-.522 1.523c-.272.46-.572.689-.904.689zM75.755 39.085v3.125h1.014c.264 0 .439-.068.527-.206.119-.18.186-.497.199-.951h.127v2.781h-.127c-.033-.388-.064-.637-.096-.747a.66.66 0 0 0-.201-.323c-.094-.079-.238-.118-.43-.118h-1.014v2.618c0 .352.01.565.027.641s.051.137.096.182.131.067.258.067h.783c.262 0 .451-.031.57-.094.117-.062.23-.185.34-.368.141-.241.285-.605.432-1.093h.137l-.398 1.992h-3.561v-.219h.164a.456.456 0 0 0 .311-.135.49.49 0 0 0 .148-.282c.027-.125.039-.382.039-.77V40.03c0-.503-.029-.813-.088-.93-.082-.156-.219-.234-.41-.234h-.164v-.219h3.561l.049 1.75h-.131c-.049-.42-.102-.708-.158-.865a.763.763 0 0 0-.258-.359c-.09-.059-.25-.088-.48-.088h-1.266zM79.856 38.257v7.125c0 .335.014.558.043.667a.5.5 0 0 0 .131.248c.059.057.17.085.33.085v.211h-1.535v-.211c.145 0 .242-.025.295-.076s.094-.134.125-.251c.029-.117.045-.341.045-.672V40.5c0-.602-.01-.972-.025-1.11s-.041-.232-.076-.283-.08-.076-.135-.076c-.059 0-.133.031-.225.094l-.059-.211.932-.656h.154zM81.241 43.249c-.002.797.109 1.422.336 1.875s.494.68.801.68c.203 0 .381-.096.531-.288s.277-.523.379-.994l.105.117a3.89 3.89 0 0 1-.416 1.461c-.229.438-.516.656-.861.656-.375 0-.695-.251-.961-.753-.268-.502-.4-1.177-.4-2.024 0-.918.137-1.634.41-2.147s.617-.771 1.029-.771c.35 0 .637.198.861.595s.338.928.338 1.592h-2.152zm0-.344h1.443c-.012-.344-.035-.586-.072-.727a1.234 1.234 0 0 0-.252-.516c-.113-.125-.23-.188-.354-.188-.188 0-.357.126-.506.378s-.235.604-.259 1.053zM86.462 44.55c-.084.711-.248 1.257-.494 1.637-.244.38-.516.57-.814.57-.354 0-.662-.256-.926-.769-.264-.512-.395-1.204-.395-2.076 0-.845.145-1.531.438-2.059.291-.528.641-.792 1.049-.792.307 0 .559.14.756.419s.295.57.295.871c0 .149-.027.269-.082.361s-.133.138-.232.138c-.135 0-.234-.074-.301-.223-.041-.083-.066-.239-.078-.47-.014-.231-.059-.407-.139-.529a.373.373 0 0 0-.328-.176c-.227 0-.41.145-.549.435-.184.383-.275.89-.275 1.52 0 .642.092 1.208.273 1.7.184.491.43.736.74.736.223 0 .422-.13.598-.39.125-.18.246-.509.365-.985l.099.082zM87.819 39.452v1.766h.729v.414h-.729v3.482c0 .348.027.583.086.704.057.121.131.182.223.182.074 0 .148-.04.217-.121a.856.856 0 0 0 .164-.356h.131c-.078.384-.191.672-.338.866-.145.194-.295.291-.449.291-.105 0-.207-.05-.309-.149a.904.904 0 0 1-.221-.428c-.049-.186-.072-.472-.072-.859v-3.611h-.496v-.195c.127-.086.254-.232.387-.438.131-.206.248-.45.352-.731.053-.148.127-.42.221-.815h.104zM89.761 41.062v1.207c.262-.805.529-1.207.803-1.207.125 0 .229.065.311.196s.123.282.123.454c0 .152-.031.281-.09.387s-.129.158-.211.158c-.08 0-.17-.067-.268-.203-.098-.135-.172-.203-.219-.203-.041 0-.086.039-.133.118-.102.161-.207.425-.316.793v2.573c0 .298.021.523.064.677a.573.573 0 0 0 .156.265c.076.07.184.105.324.105v.211h-1.604v-.211c.16 0 .277-.043.355-.129a.59.59 0 0 0 .119-.3c.012-.066.016-.257.016-.57v-2.078c0-.627-.006-1-.021-1.119-.014-.12-.043-.207-.082-.262s-.09-.082-.148-.082c-.07 0-.15.029-.24.088l-.033-.211.949-.656h.145zM92.698 41.062c.473 0 .852.309 1.137.927.244.528.365 1.134.365 1.818 0 .481-.066.968-.201 1.46s-.318.864-.553 1.114c-.236.25-.498.375-.785.375-.471 0-.844-.322-1.121-.968-.234-.543-.352-1.153-.352-1.83 0-.493.072-.982.213-1.469.143-.487.33-.847.561-1.079.232-.232.476-.348.736-.348zm-.105.382c-.121 0-.24.062-.361.185-.121.124-.221.34-.295.648-.074.309-.111.706-.111 1.191 0 .782.09 1.457.27 2.024s.418.851.713.851c.219 0 .4-.156.543-.469s.213-.851.213-1.613c0-.954-.119-1.705-.355-2.252-.164-.377-.369-.565-.617-.565zM95.571 42.197c.365-.757.713-1.136 1.043-1.136.17 0 .316.073.439.22.121.147.219.388.291.725.051.234.074.595.074 1.08v2.295c0 .339.016.569.049.69a.446.446 0 0 0 .121.228c.055.055.158.082.307.082v.211h-1.547v-.211h.064c.145 0 .246-.038.305-.114a.754.754 0 0 0 .121-.336c.008-.059.014-.242.014-.55v-2.203c0-.49-.037-.845-.111-1.066-.072-.221-.195-.332-.369-.332-.268 0-.535.254-.801.763v2.839c0 .362.012.587.037.672a.523.523 0 0 0 .133.249c.055.053.168.079.338.079v.211h-1.547v-.211h.066c.16 0 .266-.069.322-.208.055-.138.082-.403.082-.792v-2c0-.645-.008-1.037-.025-1.178-.016-.141-.043-.236-.078-.287s-.084-.076-.143-.076a.436.436 0 0 0-.229.088l-.051-.211.945-.656h.148v1.135zM99.222 41.062v4.32c0 .335.016.559.043.67a.53.53 0 0 0 .125.248c.057.055.158.082.305.082v.211h-1.516v-.211c.15 0 .254-.025.307-.076a.553.553 0 0 0 .123-.251c.031-.117.047-.341.047-.672v-2.078c0-.581-.012-.958-.031-1.129a.605.605 0 0 0-.076-.26.159.159 0 0 0-.139-.073.456.456 0 0 0-.234.088l-.047-.211.943-.656h.15zm-.28-2.805c.096 0 .176.058.242.173.068.115.102.254.102.418s-.033.304-.102.421c-.066.117-.146.175-.242.175s-.178-.059-.244-.175c-.068-.117-.104-.257-.104-.421s.035-.303.102-.418c.067-.116.149-.173.246-.173zM102.731 44.55c-.084.711-.248 1.257-.494 1.637-.244.38-.516.57-.814.57-.354 0-.662-.256-.926-.769-.264-.512-.395-1.204-.395-2.076 0-.845.146-1.531.438-2.059s.641-.792 1.049-.792c.307 0 .559.14.756.419s.297.57.297.871c0 .149-.029.269-.084.361s-.133.138-.232.138c-.135 0-.234-.074-.301-.223-.039-.083-.066-.239-.078-.47-.014-.231-.059-.407-.139-.529a.373.373 0 0 0-.328-.176c-.227 0-.41.145-.549.435-.182.383-.275.89-.275 1.52 0 .642.092 1.208.275 1.7.182.491.428.736.738.736.223 0 .422-.13.6-.39.125-.18.244-.509.363-.985l.099.082zM106.136 42.327h2.145v-2.273c0-.403-.016-.669-.045-.797a.483.483 0 0 0-.145-.25.448.448 0 0 0-.311-.14h-.164v-.219h1.98v.219h-.164a.459.459 0 0 0-.311.134.476.476 0 0 0-.148.282c-.027.126-.041.383-.041.771v5.133c0 .402.016.667.045.795.023.098.07.182.141.251.1.094.205.141.314.141h.164v.219h-1.98v-.219h.164c.189 0 .328-.096.414-.287.057-.125.086-.425.086-.901v-2.422h-2.145v2.422c0 .402.016.667.045.795.023.098.07.182.143.251a.444.444 0 0 0 .309.141h.168v.219h-1.98v-.219h.164c.191 0 .33-.096.418-.287.053-.125.08-.425.08-.901v-5.133c0-.403-.014-.669-.043-.797a.505.505 0 0 0-.141-.25.46.46 0 0 0-.314-.14h-.164v-.219h1.98v.219h-.168a.458.458 0 0 0-.309.134.51.51 0 0 0-.146.282c-.027.126-.041.383-.041.771v2.275zM110.483 43.249c-.002.797.109 1.422.336 1.875s.494.68.801.68c.203 0 .381-.096.531-.288s.277-.523.381-.994l.104.117a3.818 3.818 0 0 1-.416 1.461c-.229.438-.516.656-.861.656-.373 0-.695-.251-.961-.753-.268-.502-.4-1.177-.4-2.024 0-.918.137-1.634.41-2.147s.617-.771 1.029-.771c.35 0 .637.198.861.595s.338.928.338 1.592h-2.153zm0-.344h1.443c-.012-.344-.035-.586-.07-.727a1.235 1.235 0 0 0-.254-.516c-.113-.125-.23-.188-.354-.188-.188 0-.357.126-.506.378s-.233.604-.259 1.053zM114.819 45.817c-.32.426-.521.672-.604.738a.61.61 0 0 1-.391.146c-.215 0-.393-.127-.531-.381-.141-.254-.209-.588-.209-1.003 0-.262.033-.489.102-.68.094-.266.254-.517.484-.751s.613-.52 1.148-.856v-.211c0-.534-.049-.901-.148-1.1-.098-.199-.24-.298-.428-.298-.143 0-.254.066-.338.199a.819.819 0 0 0-.129.456l.008.339c0 .179-.027.317-.082.415-.053.097-.125.146-.211.146-.084 0-.154-.051-.209-.152a.905.905 0 0 1-.08-.416c0-.335.1-.644.299-.925.201-.281.48-.421.842-.421.277 0 .504.08.682.24.135.121.232.311.297.568.041.168.061.512.061 1.031v1.822c0 .512.006.825.018.94s.029.192.057.231c.025.039.055.059.09.059a.133.133 0 0 0 .096-.041 3 3 0 0 0 .275-.428v.328c-.254.589-.498.883-.73.883-.111 0-.199-.066-.266-.199s-.101-.359-.103-.679zm0-.381V43.39c-.344.234-.564.401-.664.499a1.593 1.593 0 0 0-.383.54 1.588 1.588 0 0 0-.115.615c0 .282.049.516.146.701.096.186.209.278.336.278.173-.001.399-.196.68-.587zM117.229 38.257v7.125c0 .335.014.558.043.667.027.109.07.192.131.248.059.057.168.085.33.085v.211h-1.535v-.211c.145 0 .242-.025.295-.076s.094-.134.123-.251c.031-.117.045-.341.045-.672V40.5c0-.602-.008-.972-.023-1.11s-.041-.232-.076-.283-.08-.076-.135-.076c-.059 0-.135.031-.225.094l-.059-.211.932-.656h.154zM118.999 39.452v1.766h.729v.414h-.729v3.482c0 .348.029.583.086.704.059.121.133.182.223.182.076 0 .148-.04.219-.121s.125-.199.162-.356h.133c-.08.384-.193.672-.338.866-.146.194-.297.291-.451.291-.105 0-.207-.05-.307-.149-.102-.1-.176-.242-.223-.428s-.072-.472-.072-.859v-3.611h-.494v-.195c.125-.086.254-.232.385-.438s.248-.45.352-.731c.053-.148.127-.42.221-.815h.104zM120.942 38.257v3.926c.25-.478.451-.784.598-.919s.295-.203.443-.203c.176 0 .328.084.455.252s.221.432.281.792c.043.25.064.708.064 1.374v1.902c0 .339.018.571.049.696a.46.46 0 0 0 .115.222c.055.055.154.082.301.082v.211h-1.535v-.211h.07c.146 0 .248-.038.305-.114a.755.755 0 0 0 .119-.336c.006-.063.01-.246.01-.55V43.48c0-.587-.018-.973-.053-1.156s-.092-.322-.168-.414c-.076-.092-.17-.138-.279-.138s-.227.051-.346.152-.264.307-.43.616v2.841c0 .366.012.595.035.684.023.09.068.165.133.225.064.061.176.091.336.091v.211h-1.549v-.211a.459.459 0 0 0 .326-.111c.045-.039.082-.113.109-.222.027-.109.041-.332.041-.667v-4.859c0-.612-.008-.989-.025-1.129-.018-.14-.045-.236-.08-.287s-.082-.076-.141-.076c-.049 0-.125.031-.232.094l-.049-.211.938-.656h.159zM129.755 46.593h-1.236l-1.566-3.719a4.123 4.123 0 0 1-.277.012 1.574 1.574 0 0 1-.198-.012v2.313c0 .499.031.809.096.93.086.171.215.257.387.257h.18v.219h-1.98v-.219h.174c.195 0 .334-.109.418-.328.049-.121.072-.408.072-.86v-5.133c0-.499-.031-.809-.096-.93-.088-.171-.219-.257-.395-.257h-.174v-.219h1.682c.49 0 .852.062 1.084.185.234.123.43.349.594.679.162.33.242.723.242 1.18 0 .488-.092.911-.277 1.271a1.563 1.563 0 0 1-.861.761l.957 2.277c.217.524.404.873.561 1.045s.361.282.613.329v.219zm-3.277-4.086c.043 0 .078.001.109.003l.078.003c.436 0 .764-.164.984-.492.221-.328.33-.746.33-1.253 0-.496-.088-.899-.268-1.209-.178-.311-.414-.466-.707-.466-.131 0-.307.037-.527.109v3.305zM130.435 43.249c-.002.797.109 1.422.336 1.875.229.453.494.68.801.68.203 0 .381-.096.531-.288.152-.192.277-.523.381-.994l.104.117a3.818 3.818 0 0 1-.416 1.461c-.229.438-.516.656-.861.656-.373 0-.695-.251-.961-.753s-.4-1.177-.4-2.024c0-.918.137-1.634.41-2.147s.617-.771 1.031-.771c.35 0 .635.198.859.595.227.397.338.928.338 1.592h-2.153zm0-.344h1.443c-.01-.344-.035-.586-.07-.727a1.235 1.235 0 0 0-.254-.516c-.113-.125-.23-.188-.354-.188-.188 0-.355.126-.506.378-.148.253-.234.604-.259 1.053zM135.655 44.55c-.084.711-.248 1.257-.494 1.637-.244.38-.516.57-.813.57-.355 0-.664-.256-.928-.769-.264-.512-.395-1.204-.395-2.076 0-.845.146-1.531.438-2.059s.641-.792 1.051-.792c.305 0 .557.14.754.419s.297.57.297.871a.677.677 0 0 1-.084.361.258.258 0 0 1-.232.138c-.133 0-.234-.074-.301-.223-.039-.083-.066-.239-.078-.47-.012-.231-.059-.407-.139-.529a.371.371 0 0 0-.328-.176c-.227 0-.41.145-.547.435-.184.383-.275.89-.275 1.52 0 .642.092 1.208.273 1.7.182.491.43.736.74.736.221 0 .42-.13.598-.39.125-.18.246-.509.363-.985l.1.082zM137.632 41.062c.471 0 .852.309 1.137.927.242.528.365 1.134.365 1.818 0 .481-.068.968-.201 1.46-.135.493-.318.864-.555 1.114-.234.25-.496.375-.785.375-.469 0-.842-.322-1.119-.968-.234-.543-.352-1.153-.352-1.83 0-.493.072-.982.213-1.469.143-.487.328-.847.561-1.079.232-.232.476-.348.736-.348zm-.106.382c-.121 0-.242.062-.363.185-.119.124-.219.34-.293.648-.074.309-.111.706-.111 1.191 0 .782.09 1.457.27 2.024s.418.851.711.851c.221 0 .402-.156.545-.469s.213-.851.213-1.613c0-.954-.119-1.705-.355-2.252-.164-.377-.369-.565-.617-.565zM140.505 41.062v1.207c.262-.805.527-1.207.803-1.207.125 0 .229.065.309.196a.837.837 0 0 1 .123.454c0 .152-.029.281-.088.387s-.129.158-.211.158c-.08 0-.17-.067-.268-.203-.1-.135-.172-.203-.221-.203-.039 0-.084.039-.131.118-.104.161-.207.425-.316.793v2.573c0 .298.021.523.064.677a.573.573 0 0 0 .156.265c.076.07.184.105.324.105v.211h-1.604v-.211c.158 0 .277-.043.354-.129.059-.063.098-.163.121-.3.01-.066.016-.257.016-.57v-2.078c0-.627-.008-1-.021-1.119a.602.602 0 0 0-.082-.262c-.041-.055-.09-.082-.148-.082-.07 0-.15.029-.24.088l-.033-.211.949-.656h.144zM144.112 45.981c-.152.277-.301.476-.445.596a.728.728 0 0 1-.471.18c-.34 0-.637-.245-.891-.735s-.383-1.12-.383-1.89.143-1.474.424-2.112.643-.958 1.086-.958c.273 0 .5.153.68.459v-.998c0-.612-.008-.989-.025-1.129-.018-.14-.043-.236-.08-.287s-.082-.076-.137-.076a.478.478 0 0 0-.236.094l-.043-.211.932-.656h.152v6.211c0 .628.01 1.011.027 1.15a.697.697 0 0 0 .08.29c.039.055.082.082.133.082.061 0 .143-.033.246-.1l.037.211-.928.656h-.158v-.777zm0-.409v-2.753a2.966 2.966 0 0 0-.123-.729c-.068-.219-.158-.383-.27-.494-.113-.111-.223-.167-.33-.167-.199 0-.377.154-.533.462-.207.406-.311.999-.311 1.778 0 .788.1 1.392.299 1.811.201.419.424.629.668.629.208-.001.407-.179.6-.537zM150.124 38.468v2.75h-.127c-.041-.528-.113-.948-.219-1.261a1.783 1.783 0 0 0-.453-.745c-.195-.184-.396-.275-.607-.275-.236 0-.432.124-.586.372-.154.248-.232.53-.232.846 0 .242.049.462.146.662.143.293.477.683 1.008 1.17.432.398.729.704.887.917s.279.464.365.753.129.592.129.908c0 .602-.137 1.12-.408 1.556s-.619.653-1.047.653c-.133 0-.26-.018-.377-.054a2.707 2.707 0 0 1-.438-.219c-.221-.125-.361-.188-.42-.188-.057 0-.102.03-.135.09s-.059.184-.074.371h-.127v-2.727h.127c.059.57.139.996.238 1.279.1.283.252.518.457.705a.982.982 0 0 0 .676.281c.283 0 .508-.129.672-.387s.246-.563.246-.914c0-.195-.031-.393-.094-.592s-.16-.385-.291-.557c-.088-.117-.332-.365-.729-.745-.395-.379-.678-.682-.844-.908-.168-.227-.293-.477-.379-.75s-.129-.574-.129-.902c0-.569.127-1.061.381-1.472s.578-.618.971-.618c.246 0 .506.104.781.313.127.098.217.147.27.147.059 0 .107-.03.145-.092.037-.061.068-.184.09-.369h.127zM150.845 41.218h1.455v.211h-.072c-.102 0-.18.039-.23.115s-.076.172-.076.286c0 .153.037.366.113.638l.762 2.72.695-2.979c.039-.162.059-.321.059-.479a.39.39 0 0 0-.025-.16.226.226 0 0 0-.084-.104c-.039-.026-.107-.039-.205-.039v-.211h1.012v.211a.348.348 0 0 0-.193.094.917.917 0 0 0-.15.266 5.39 5.39 0 0 0-.115.454l-1.268 5.365c-.123.52-.283.914-.482 1.18s-.391.399-.574.399c-.135 0-.246-.066-.332-.199a.826.826 0 0 1-.129-.458c0-.165.031-.296.094-.396a.29.29 0 0 1 .258-.149c.074 0 .178.043.307.13.092.06.148.089.17.089.068 0 .143-.061.225-.182.08-.122.162-.357.244-.706l.219-.94-1.119-4.049a3.767 3.767 0 0 0-.164-.454 1.444 1.444 0 0 0-.139-.277.64.64 0 0 0-.252-.165v-.211zM156.524 41.062v1.828h-.113c-.086-.575-.197-.966-.332-1.173s-.305-.311-.514-.311c-.158 0-.287.072-.385.217s-.146.305-.146.481c0 .219.037.407.109.563.068.161.213.331.428.511l.498.417c.461.387.691.897.691 1.531 0 .489-.107.883-.322 1.182s-.455.449-.721.449c-.189 0-.408-.059-.652-.176a.434.434 0 0 0-.186-.059c-.051 0-.092.05-.121.148h-.113v-1.914h.113c.063.548.184.961.363 1.239.18.278.381.417.604.417.156 0 .283-.079.383-.238s.148-.35.148-.573a1.3 1.3 0 0 0-.166-.682c-.109-.184-.33-.417-.658-.698-.33-.281-.547-.536-.648-.762-.102-.223-.152-.504-.152-.845 0-.441.088-.811.264-1.108.174-.297.402-.446.682-.446.123 0 .271.046.445.137.115.06.193.089.232.089a.099.099 0 0 0 .084-.042.637.637 0 0 0 .072-.185h.113zM158.136 39.452v1.766h.729v.414h-.729v3.482c0 .348.029.583.086.704.059.121.133.182.223.182.076 0 .148-.04.219-.121s.125-.199.162-.356h.133c-.08.384-.193.672-.338.866-.146.194-.297.291-.451.291-.105 0-.207-.05-.307-.149a.888.888 0 0 1-.223-.428c-.049-.186-.072-.472-.072-.859v-3.611h-.494v-.195c.125-.086.254-.232.385-.438s.248-.45.352-.731c.053-.148.127-.42.221-.815h.104zM159.687 43.249c-.002.797.111 1.422.338 1.875s.492.68.799.68c.205 0 .383-.096.533-.288s.277-.523.379-.994l.105.117a3.89 3.89 0 0 1-.416 1.461c-.23.438-.516.656-.861.656-.375 0-.695-.251-.961-.753-.268-.502-.4-1.177-.4-2.024 0-.918.137-1.634.41-2.147s.615-.771 1.029-.771c.35 0 .637.198.861.595s.338.928.338 1.592h-2.154zm0-.344h1.445c-.012-.344-.035-.586-.072-.727a1.212 1.212 0 0 0-.254-.516c-.111-.125-.229-.188-.352-.188-.189 0-.357.126-.506.378s-.236.604-.261 1.053zM163.188 42.212c.227-.394.359-.619.4-.679.102-.149.213-.265.33-.348s.234-.124.35-.124c.195 0 .363.099.504.295.141.197.234.482.283.855.232-.472.432-.782.592-.929.162-.147.328-.221.498-.221.166 0 .313.073.441.22.127.147.229.386.305.719.049.227.074.583.074 1.068v2.313c0 .335.016.565.045.69a.454.454 0 0 0 .125.219c.063.061.164.091.303.091v.211h-1.545v-.211h.064a.387.387 0 0 0 .314-.135.603.603 0 0 0 .111-.298c.01-.066.014-.255.014-.567v-2.309c0-.438-.029-.746-.092-.926-.088-.25-.229-.375-.424-.375-.121 0-.242.052-.363.155s-.268.296-.439.577l-.008.064.01.252v2.561c0 .366.012.595.035.684.023.09.068.165.135.225.064.061.176.091.334.091v.211h-1.576v-.211c.172 0 .291-.035.354-.105a.631.631 0 0 0 .135-.315c.012-.066.016-.259.016-.579v-2.309c0-.438-.037-.753-.111-.946-.1-.252-.238-.378-.416-.378-.123 0-.244.057-.363.171a1.874 1.874 0 0 0-.434.585v2.877c0 .351.014.579.041.685.029.105.07.184.125.236.055.053.168.079.338.079v.211h-1.545v-.211c.143 0 .242-.026.299-.079a.498.498 0 0 0 .129-.251c.029-.115.045-.338.045-.67v-2.055c0-.591-.01-.974-.031-1.146a.665.665 0 0 0-.074-.268.164.164 0 0 0-.141-.073.439.439 0 0 0-.23.088l-.051-.211.947-.656h.148v1.152z"/><linearGradient id="d" gradientUnits="userSpaceOnUse" x1="146.868" y1="16.256" x2="202.237" y2="71.624"><stop offset="0" stop-color="#ead18f"/><stop offset=".076" stop-color="#e1c477"/><stop offset=".221" stop-color="#d1af4e"/><stop offset=".335" stop-color="#c8a235"/><stop offset=".405" stop-color="#c49d2c"/><stop offset=".559" stop-color="#d4b35c"/><stop offset=".766" stop-color="#e7cd97"/><stop offset=".919" stop-color="#f3debb"/><stop offset="1" stop-color="#f8e4c9"/></linearGradient><linearGradient id="e" gradientUnits="userSpaceOnUse" x1="25.023" y1="55.335" x2="80.202" y2="110.515"><stop offset="0" stop-color="#ead18f"/><stop offset=".076" stop-color="#e1c477"/><stop offset=".221" stop-color="#d1af4e"/><stop offset=".335" stop-color="#c8a235"/><stop offset=".405" stop-color="#c49d2c"/><stop offset=".559" stop-color="#d4b35c"/><stop offset=".766" stop-color="#e7cd97"/><stop offset=".919" stop-color="#f3debb"/><stop offset="1" stop-color="#f8e4c9"/></linearGradient><linearGradient id="f" gradientUnits="userSpaceOnUse" x1="21.153" y1="50.626" x2="76.46" y2="105.932"><stop offset="0" stop-color="#ead18f"/><stop offset=".076" stop-color="#e1c477"/><stop offset=".221" stop-color="#d1af4e"/><stop offset=".335" stop-color="#c8a235"/><stop offset=".405" stop-color="#c49d2c"/><stop offset=".559" stop-color="#d4b35c"/><stop offset=".766" stop-color="#e7cd97"/><stop offset=".919" stop-color="#f3debb"/><stop offset="1" stop-color="#f8e4c9"/></linearGradient></svg>