<?xml version="1.0" encoding="utf-8"?><svg xmlns="http://www.w3.org/2000/svg" width="99" height="81" viewBox="53.345 28.973 99 81"><linearGradient id="a" gradientUnits="userSpaceOnUse" x1="42.902" y1="75.871" x2="98.412" y2="131.38"><stop offset="0" stop-color="#ead18f"/><stop offset=".076" stop-color="#e1c477"/><stop offset=".221" stop-color="#d1af4e"/><stop offset=".335" stop-color="#c8a235"/><stop offset=".405" stop-color="#c49d2c"/><stop offset=".559" stop-color="#d4b35c"/><stop offset=".766" stop-color="#e7cd97"/><stop offset=".919" stop-color="#f3debb"/><stop offset="1" stop-color="#f8e4c9"/></linearGradient><linearGradient id="b" gradientUnits="userSpaceOnUse" x1="43.106" y1="87.99" x2="98.65" y2="143.534"><stop offset="0" stop-color="#ead18f"/><stop offset=".076" stop-color="#e1c477"/><stop offset=".221" stop-color="#d1af4e"/><stop offset=".335" stop-color="#c8a235"/><stop offset=".405" stop-color="#c49d2c"/><stop offset=".559" stop-color="#d4b35c"/><stop offset=".766" stop-color="#e7cd97"/><stop offset=".919" stop-color="#f3debb"/><stop offset="1" stop-color="#f8e4c9"/></linearGradient><linearGradient id="c" gradientUnits="userSpaceOnUse" x1="87.082" y1="85.468" x2="142.388" y2="140.773"><stop offset="0" stop-color="#ead18f"/><stop offset=".076" stop-color="#e1c477"/><stop offset=".221" stop-color="#d1af4e"/><stop offset=".335" stop-color="#c8a235"/><stop offset=".405" stop-color="#c49d2c"/><stop offset=".559" stop-color="#d4b35c"/><stop offset=".766" stop-color="#e7cd97"/><stop offset=".919" stop-color="#f3debb"/><stop offset="1" stop-color="#f8e4c9"/></linearGradient><linearGradient id="d" gradientUnits="userSpaceOnUse" x1="21.153" y1="87.22" x2="76.46" y2="142.527"><stop offset="0" stop-color="#ead18f"/><stop offset=".076" stop-color="#e1c477"/><stop offset=".221" stop-color="#d1af4e"/><stop offset=".335" stop-color="#c8a235"/><stop offset=".405" stop-color="#c49d2c"/><stop offset=".559" stop-color="#d4b35c"/><stop offset=".766" stop-color="#e7cd97"/><stop offset=".919" stop-color="#f3debb"/><stop offset="1" stop-color="#f8e4c9"/></linearGradient><linearGradient id="e" gradientUnits="userSpaceOnUse" x1="91.372" y1="75.314" x2="146.477" y2="130.419"><stop offset="0" stop-color="#ead18f"/><stop offset=".076" stop-color="#e1c477"/><stop offset=".221" stop-color="#d1af4e"/><stop offset=".335" stop-color="#c8a235"/><stop offset=".405" stop-color="#c49d2c"/><stop offset=".559" stop-color="#d4b35c"/><stop offset=".766" stop-color="#e7cd97"/><stop offset=".919" stop-color="#f3debb"/><stop offset="1" stop-color="#f8e4c9"/></linearGradient><linearGradient id="f" gradientUnits="userSpaceOnUse" x1="66.66" y1="83.474" x2="121.967" y2="138.781"><stop offset="0" stop-color="#ead18f"/><stop offset=".076" stop-color="#e1c477"/><stop offset=".221" stop-color="#d1af4e"/><stop offset=".335" stop-color="#c8a235"/><stop offset=".405" stop-color="#c49d2c"/><stop offset=".559" stop-color="#d4b35c"/><stop offset=".766" stop-color="#e7cd97"/><stop offset=".919" stop-color="#f3debb"/><stop offset="1" stop-color="#f8e4c9"/></linearGradient><path fill="#B2B2B2" d="M61.281 44.475c.529.506.889.982 1.076 1.428.256.595.384 1.414.384 2.455 0 2.083-.341 3.973-1.024 5.669-.479 1.189-1.289 2.588-2.434 4.195-.137.059-.342.245-.614.558-.273.313-.47.469-.59.469-.546.476-1.092.714-1.639.714-.581 0-1.051-.357-1.409-1.07l.077-1.652c.461-.714 1.075-1.369 1.844-1.964a88.756 88.756 0 0 0 1.947-1.562c1.314-1.161 2.118-3.021 2.407-5.58-.427-.773-.973-1.16-1.639-1.16l-.077.044-.205.089-.435.268-.205-.401-1.333 1.116c-.119-.208-.272-.64-.461-1.294-.119-.417-.272-.669-.461-.759l.128-.669-.178-.849c.136-.297.239-.58.308-.848v-.223c.171-.773.435-1.161.794-1.161.188 0 .375.208.563.625.496-.149 1.324-.818 2.485-2.008 1.076-1.131 1.775-1.696 2.1-1.696.343 0 .59.313.743.938a36.427 36.427 0 0 1-2.152 4.328zm1.127-8.436c-.137.148-.323.401-.563.759-.154 0-.333.134-.538.401-.289.357-.461.551-.512.581-.41.148-.965.491-1.665 1.026-.12.208-.205.551-.256 1.027l-1.025-.402c-.068-.387-.137-.781-.205-1.183-.067-.402-.188-.722-.357-.96l.23-1.116-.181-.268.359-1.785.333-.134.718.313.076.669c.717-.476 1.827-1.042 3.33-1.696l.436.223.384 1.518a2.09 2.09 0 0 1-.564 1.027zM80.39 58.713c-.017.357-.153 1.012-.409 1.965-.291 1.101-.538 1.666-.743 1.695a3.198 3.198 0 0 1-.59.402l-.23-.135a.468.468 0 0 1-.307.135c-.308 0-.624-.372-.948-1.116a221.73 221.73 0 0 0-5.276-5.312c-.205.029-.396.246-.576.647s-.603.989-1.268 1.763c-.479.596-.803 1.057-.974 1.384-.87.476-1.537.699-1.998.669h-.41c-.597-.951-.896-1.531-.896-1.74 0-.387.195-.684.588-.893 1.521-.773 2.732-2.023 3.638-3.75-.529-.922-1.136-1.502-1.818-1.74-.342.506-.82 1.295-1.435 2.365-1.109 1.965-1.913 3.273-2.407 3.928-1.042 1.34-2.05 2.01-3.023 2.01l-.563-.447c0-.445-.119-.714-.358-.803 0-.982.146-1.637.436-1.965.393-.268.982-.713 1.768-1.338.956-.893 1.604-1.578 1.947-2.054.409-.536.947-1.458 1.613-2.767.376-.595.87-1.577 1.485-2.946-.563.208-1.127.432-1.69.67-.563.238-1.067.684-1.512 1.339l-.665-.223a2.268 2.268 0 0 1-.309-1.027l-.23-.401-.153-1.116c.052-.178.111-.476.18-.893.204-.446.308-.773.308-.982l.384-.357c.205.06.376.268.513.625.341-.03.87-.208 1.587-.536a46.269 46.269 0 0 1 1.666-4.463.457.457 0 0 0-.18-.044c-.188 0-.491.119-.909.357-.419.238-.704.461-.857.669l-.927.312-.666-1.696c.205-1.964.59-3.021 1.152-3.169l.18.045c.12-.298.333-.677.641-1.138.308-.461.751-1.198 1.332-2.209.137-.387.367-.908.691-1.563.102-.148.265-.476.487-.982.085-.03.204-.253.357-.669a.416.416 0 0 1 .359-.178c.068.238.436.64 1.101 1.205.172.148.325.313.461.491l.077.804-.256 1.294c-.017.03-.333.134-.947.312-.188.03-.487.365-.896 1.004-.41.64-.692 1.183-.846 1.629l4.072-.357c.393-.029.615-.059.666-.089.239-.06.427-.223.563-.491-.272-.357-.656-.952-1.152-1.785a8.73 8.73 0 0 0 .153-1.652l.359-.58c.137.119.58.446 1.331.982l.257-.223c.222.357.632.863 1.229 1.518a6.01 6.01 0 0 1 1.178 1.919l-.102.848.204 1.16-.64 1.428a5.712 5.712 0 0 1-1.307.134c-.052 0-.315-.06-.794-.179a.408.408 0 0 1-.205.044h-.128c.324.298.653.618.986.96.332.342.605.803.819 1.384.214.58.328.885.346.915.12.268.282.521.487.759v.535c.017.06.127.67.332 1.83-.256.655-.537 1.042-.845 1.161-1.059-.417-2.288-.625-3.688-.625-.085 0-.243.022-.474.067-.23.045-.415.067-.552.067-.426 0-.861.104-1.306.313l.23.089c.052.595.068 1.205.052 1.83-.308.089-.53.328-.667.714.7.417 1.341.967 1.921 1.651.444-.536.854-1.309 1.229-2.321.172-.506.471-1.161.897-1.964.222 0 .396.126.524.379.129.253.252.499.372.737a.185.185 0 0 1 .128-.045c.188 0 .418.208.691.625 0 .06-.06.536-.18 1.428-.068.536-.179.967-.332 1.294-.41.208-.88.655-1.41 1.339 2.033 2.084 3.98 3.08 5.841 2.99.324-.029.542-.014.653.045.111.061.329.193.653.402-.01.388-.036.953-.07 1.697zm-7.889-16.514c.085-.357.195-.893.332-1.607-.461.03-.913.044-1.357.044-.546.06-.973.179-1.28.357l.051.447c-.239.178-.529.506-.87.982-.223.417-.513 1.086-.871 2.008.547-.149 1.37-.23 2.472-.246 1.102-.015 1.925-.097 2.472-.245l-.949-1.74z"/><path fill="#B2B2B2" d="M92.042 51.631c-.223.089-.47.297-.742.625-.393.417-.633.669-.718.759-.905-.328-2.28-.729-4.124-1.206a1.248 1.248 0 0 1-.409-.134c-.223.149-.615.238-1.179.268-.768.03-1.179.06-1.229.089-.718.119-1.47.58-2.255 1.383a55.29 55.29 0 0 1-.974 1.027 3.866 3.866 0 0 1-1.05.67c-.205-.328-.351-1.086-.436-2.277a5.783 5.783 0 0 0-.153-.892l.307-.089-.153-.982c.308-.149.905-.521 1.793-1.116.699-.506 1.17-.789 1.409-.848.119-.774.179-1.369.179-1.786 0-3.987-.025-6.338-.077-7.052l.23-.58c0-.298-.024-.744-.076-1.339-.256.089-.658.134-1.204.134.018 0-.272.044-.871.134l-.179-1.473c.034-.417.072-.848.115-1.294.043-.446.184-.744.423-.893l.409.268c.137-.149.38-.216.73-.201.35.015.628-.097.832-.334l-.281-2.678.435-.893 1.512.536.358 1.116-.051 1.607.128.179c1.076-.298 1.946-.447 2.612-.447.188 0 .367.03.538.089.017-.773.025-1.89.025-3.348l.589-.401c.804.238 1.273 1.026 1.41 2.365l-.23 1.652 1.383.357c.409.208.674.863.794 1.964l-.206.669c-.579.536-1.126.804-1.639.804-.102 0-.179.03-.23.089-.239.714-.358 1.726-.358 3.035 0 .506.017 1.265.051 2.276s.052 1.771.052 2.276c0 .208-.052 1.19-.153 2.946.256.149.47.223.64.223.068 0 .149-.007.243-.022s.158-.037.192-.067c.324-.03.914.491 1.768 1.562l-.18 1.25zm-7.335 4.568c-.067.387-.341 1.16-.818 2.32-.478 1.161-.828 1.949-1.051 2.366-.478.833-1.016 1.249-1.613 1.249-.103 0-.23-.014-.385-.044-.153-.714-.23-1.161-.23-1.339 0-.715.453-1.859 1.358-3.438.904-1.576 1.451-3.139 1.639-4.686.222.178.401.297.538.356.409.208.7.655.87 1.339-.068.418-.17 1.043-.308 1.877zm3.221-9.254c-.257.06-.419.089-.487.089-.291 0-.717-.044-1.281-.134-.563-.089-.99-.134-1.28-.134-.427 0-.727.104-.896.313a5.843 5.843 0 0 0-.103.982c0 .179.018.313.051.402.188 0 .88-.045 2.074-.134.855-.089 1.547-.089 2.076 0l-.154-1.384zm-2.196-4.553h-.512c-.375 0-.751.089-1.127.268-.067.625-.103.997-.103 1.116 0 .06.009.164.025.313.428-.238.752-.357.974-.357.052 0 .133.022.243.067.112.045.193.052.243.022.257-.03.667-.075 1.23-.134.529-.06.904-.045 1.127.044.018-.179.06-.402.128-.669 0-.298-.009-.461-.025-.491-.018-.03-.133-.044-.346-.044-.214 0-.525-.022-.936-.067a8.923 8.923 0 0 0-.921-.068zm2.152-4.642l-.384-.179H86.604c-.291 0-.691.03-1.203.089-.564.089-.957.134-1.18.134l-.179.669.128.625 3.714-.044V37.75zm1.051 24.43c-.359-.387-.727-1.033-1.102-1.941-.376-.907-.606-1.719-.692-2.433a18.23 18.23 0 0 0-.255-1.674c-.138-.729-.206-1.302-.206-1.718 0-.149.052-.328.154-.536h.641l.409.356c.547.536 1.034 1.555 1.46 3.059.428 1.502.615 2.805.563 3.905-.341.447-.665.774-.972.982zm14.257-27.406c-.614.744-.922 1.741-.922 2.99 0 .506.021 1.25.064 2.232s.064 1.711.064 2.187c0 .179-.021.409-.064.692s-.064.499-.064.647c0 .357.021.878.064 1.563.043.684.072 1.175.09 1.473.034 1.429.068 3.735.103 6.919 0 .564.038 1.443.115 2.633.076 1.19.115 2.098.115 2.723 0 1.935-.325 3.214-.974 3.839a4.216 4.216 0 0 1-.797-1.606c-.017-.09-.11-.744-.283-1.965l.077-.535c-.188-3.601-.282-6.293-.282-8.079-.427-.298-.992-.446-1.694-.446-1.505 0-2.856.223-4.056.669-.137.476-.351 1.949-.641 4.419-.205 1.755-.666 3.05-1.384 3.883-.307.388-.691.581-1.152.581-.204 0-.401-.061-.588-.18l-.411-.938c.188-.893.529-1.948 1.025-3.168.597-1.518.981-2.545 1.152-3.08 1.008-3.303 1.511-8.362 1.511-15.176-.171-.328-.375-.551-.614-.669-.308-.565-.462-1.384-.462-2.455 0-.06.026-.208.077-.446l.104-.446 4.413-.536c.086 0 .201.022.347.067.145.044.251.067.319.067h1.182c.05 0 .131-.015.245-.044.11-.03.191-.045.243-.045.239 0 .478.089.719.268l.359-.982h.771c.017.029.281.327.794.893.308.327.461.759.461 1.294.001.207-.008.46-.026.757zm-3.004 8.793c0-.149-.085-.193-.256-.134l-.128.089c-.345-.119-1.027-.178-2.054-.178-.924 0-1.649.208-2.181.625l-.129.982c-.034.297-.068.61-.102.937v.759c1.111-.417 2.087-.625 2.924-.625.17 0 .89.089 2.155.268.018-.417.009-.766-.025-1.049l-.204-1.674zm0-7.231l-.358-.089-2.511-.357a7.269 7.269 0 0 0-1.203.58c-.137.149-.205.655-.205 1.518 0 .179-.034.432-.103.759-.068.328-.103.565-.103.714 0 .06.008.104.026.134 1.092-.595 2.125-.893 3.099-.893.529 0 .99.134 1.383.402.052-.625.077-1.027.077-1.205 0-.179-.034-.7-.102-1.563zM125.731 37.659c-.648.894-1.638 1.341-2.971 1.341-.137 0-.665-.164-1.587-.491-.273-.03-.684-.104-1.23-.223l-2.868-.582-6.813.225h-.077l-.41.268c-.204.119-.478.179-.819.179-.41-.03-.691-.03-.845 0-.496.148-1.094.476-1.794.982-.837.625-1.366 1.22-1.588 1.785-.256-.565-.384-1.354-.384-2.366 0-.565.162-1.4.486-2.507 3.228-1.315 5.533-1.971 6.916-1.971.393 0 .785.03 1.179.089a3.44 3.44 0 0 0 .077-.223l.102-.312c.086-.208.129-.387.129-.536l-.23-1.206.281-1.116 1.229-.491c.019.238.095.417.231.536.273.178.556.357.845.536.376.297.564.64.564 1.026 0 .208-.061.454-.181.736-.118.283-.179.484-.179.603v.134l.999-.045c2.493-.03 5.499.374 9.017 1.209l.308.896-.387 1.524zm-.588 13.705c0 .417.018 1.012.051 1.785.052.863.077 1.474.077 1.83.035 1.756.052 3.289.052 4.598 0 .744-.266 1.875-.795 3.393-.546-.565-.905-1.324-1.075-2.276-.069-.952-.146-1.919-.231-2.901-.05-.477-.118-1.205-.204-2.188l-.051-2.365c-.052-1.042-.23-1.696-.538-1.964-.324.297-.642.446-.948.446-.358 0-.819-.119-1.384-.357-.768-.298-1.237-.461-1.408-.491-.478-.119-1.264-.179-2.356-.179-.427 0-.854.015-1.281.045-.58.089-1.451.193-2.612.313h-1.768c-.717.03-1.306.164-1.767.401-.068.06-.316.104-.743.134-.256.03-.482.215-.679.558-.196.342-.431 1.51-.705 3.504-.324 2.5-.503 3.824-.537 3.973-.154.803-.461 2.008-.923 3.615-.648-.773-.973-1.771-.973-2.99 0-.953.076-2.143.23-3.57.137-1.161.265-2.336.384-3.527.137-1.368.205-1.993.205-1.874 0-.149-.162-.642-.486-1.479.223-.659.401-1.075.538-1.255.136-.179.401-.285.794-.314.188 0 .41-.074.666-.223.119.208.495.493 1.127.852l1.845-.985c.256-.121.742-.181 1.46-.181.887 0 1.416-.015 1.588-.044 1.639-.268 2.416-.402 2.33-.402 2.221 0 3.672.21 4.354.627 1.69-.03 2.852.18 3.484.628l1.076-.628c.307.18.614.344.922.495.341.238.588.597.742 1.075-.308.535-.461 1.175-.461 1.921zm-5.311-9.002c0 .089.06.431.179 1.026-.051.119-.153.714-.308 1.786-.118.803-.375 1.205-.768 1.205-.034 0-.154-.06-.358-.179l-.564.179c-.341.148-.529.223-.563.223-.104 0-.248-.037-.436-.112-.188-.074-.333-.111-.437-.111h-2.996c-.974 0-1.93.178-2.868.536l-.308-.134-1.051.625c-.171-.297-.308-.863-.409-1.696-.018-.238-.086-.402-.205-.491.033-.476.137-1.071.307-1.785.154-.595.23-1.012.23-1.25l-.436-1.696a7.289 7.289 0 0 1-.153-.759c.137-.148.308-.268.513-.357a.984.984 0 0 0 .409-.313l1.563.313c.238 0 .584-.052 1.036-.156.453-.104.782-.156.986-.156.376-.021.709-.03.999-.03.342 0 .854.036 1.537.104.683.069 1.195.104 1.536.104.257 0 .847-.089 1.769-.268.034.119.333.491.896 1.116.154.178.291.401.411.669-.341.804-.511 1.339-.511 1.607zm.188 13.451c0-.119.043.282.128 1.205a36.138 36.138 0 0 1-.295 1.919c-.145.833-.388 1.22-.729 1.161-.307-.061-.443-.09-.41-.09-.119 0-.299.053-.538.156-.238.104-.418.156-.537.156-.103 0-.252-.037-.449-.111-.195-.074-.345-.111-.447-.111-.273-.03-1.366-.045-3.278-.045-1.179 0-2.016.178-2.511.535l-.41-.09-.999.625c-.204-.268-.333-.669-.384-1.205-.018-.237-.103-.595-.256-1.07.033-.447.137-1.042.307-1.785.154-.625.23-1.102.23-1.429 0-.149-.137-.7-.409-1.651l-.205-.804c.188-.149.367-.238.538-.269.085 0 .222-.133.409-.4l1.538.268c.272 0 .742-.045 1.408-.135.666-.089 1.169-.133 1.512-.133.357 0 .904.029 1.639.089s1.289.089 1.665.089c.272 0 .837-.089 1.69-.268.052.179.359.565.922 1.16.137.148.282.372.436.67-.377.625-.565 1.146-.565 1.563zm-3.219-14.433c-.103 0-.214.069-.333.208-3.04 0-4.918.103-5.636.307-.085.147-.137.366-.153.658-.017.294-.034.556-.051.791l.025.268c.871-.178 1.981-.268 3.329-.268 1.896-.03 3.007-.06 3.331-.089.017-.179.025-.342.025-.491.001-.923-.179-1.384-.537-1.384zm.581 13.51c-.103 0-.223.06-.359.179h-.64l-1.717-.357c-.188-.029-.807.045-1.856.223-1.051.18-1.653.328-1.807.447-.034.029-.11.564-.23 1.606l.052.313c.819-.148 1.997-.268 3.534-.356 1.623-.09 2.801-.193 3.536-.313a2.52 2.52 0 0 0 .024-.357c0-.923-.179-1.385-.537-1.385zM137.198 42.184c-.393-.03-.938-.208-1.639-.536-.153 0-.444.03-.872.089-.357.03-.648.044-.87.044-.273 0-.691-.037-1.256-.111-.563-.074-.98-.112-1.255-.112-1.11 0-2.868.744-5.276 2.232-.29-.506-.393-1.116-.307-1.83l.23-1.741.589.134 2.741-1.428c.085-.536.127-1.101.127-1.696v-1.383c-.222-.506-.332-.938-.332-1.294 0-.298.051-.565.153-.804.205-.208.47-.313.794-.313.495 0 .743.655.743 1.964 0 .208-.043 1.146-.129 2.812.052.089.12.134.205.134.052-.03.265-.104.641-.223l.641-.266c-.104-1.127-.153-1.796-.153-2.003 0-.238.017-.593.05-1.069.035-.475.052-.83.052-1.068 0-.238-.085-.563-.256-.98-.17-.417-.257-.789-.257-1.116 0-.119.019-.283.052-.491l.563-.893c.718.06 1.306.417 1.769 1.071l.076 1.071c-.068.208-.153.521-.257.936l.282.134c1.69-.326 2.511-.489 2.459-.489.376 0 .82.285 1.332.852l-.385 2.109c-.478.089-1.126.134-1.946.134-1.075 0-1.537.015-1.383.045a3.888 3.888 0 0 0-.436.311c-.103.089-.154.251-.154.487 0 .178.017.387.052.623.7.207 1.435.355 2.203.445.769.087 1.289.221 1.562.398.444.297.862.919 1.256 1.865-.41 1.392-.879 2.045-1.409 1.956zm.496 6.621c0 .327.008.826.025 1.495.017.669.024 1.168.024 1.495v4.375c0 1.666-.299 3.049-.896 4.15l-1.179.178c-.256 0-.648-.044-1.178-.133-.529-.09-.931-.135-1.204-.135-.137 0-.717.104-1.742.313-.733.149-1.46.298-2.177.447-.871.268-1.537.758-1.998 1.473l-.563-.402c-.239-.445-.359-.981-.359-1.606 0-.417.068-.989.205-1.718.137-.729.214-1.243.23-1.541.018-.297.052-1.934.104-4.909 0-.387.025-1.175.077-2.366.033-1.012.05-1.8.05-2.366 0-.179-.033-.432-.102-.759s-.104-.58-.104-.759.043-.342.129-.491l.769-.268c.188.089.367.208.537.357.172.149.257.446.257.893 0 .298-.018.685-.052 1.161a23.039 23.039 0 0 0-.076 1.205c-.205 4.821-.308 7.32-.308 7.499 0 .119.025.595.077 1.428l.102.09c.154-.06 1.271-.357 3.348-.893-.171-.625-.256-1.533-.256-2.723 0-.328.019-.923.058-1.785.017-.774.027-1.384.027-1.831v-.625c-.034-.06-.076-.089-.128-.089-.717 0-1.521.313-2.407.938a9.409 9.409 0 0 1-.077-.982c0-.238.017-.536.051-.893.034-.208.068-.61.103-1.205l.589.491 1.87-.714c.045-.536.068-1.547.068-3.035l.051-1.785.465-.446c.721.208 1.081.714 1.081 1.518 0 .238-.056.543-.167.915-.11.372-.166.632-.166.781 0 .119.026.64.076 1.563.376.03.761.067 1.153.111.394.045.751.201 1.075.469l.257.982-.282 1.384-1.536-.223c-.507 0-.761.164-.761.491 0 .387.02.989.061 1.808.04.818.06 1.436.06 1.853 0 .893-.06 1.8-.18 2.723 1.247.089 2.331.357 3.254.803.068-.416.098-1.026.089-1.83-.008-.803.013-1.368.064-1.695-.068-2.202-.104-3.333-.104-3.393 0-.357.019-.871.052-1.54.035-.669.052-1.168.052-1.495 0-.238-.03-.588-.09-1.049a8.845 8.845 0 0 1-.09-1.049l.076-1.071.513-.402c.104.179.351.461.743.848.308.268.521.625.641 1.071-.018.238-.077.729-.18 1.473a13.309 13.309 0 0 0-.101 1.425zm-8.513 7.498c-.17-.119-.4-.342-.691-.669a4.399 4.399 0 0 1-.077-.401c0-.744.12-1.354.359-1.83.085-.149.376-.536.87-1.161.223-.268.428-.595.615-.982l.538.669c.103.179.205.536.307 1.071-.563 1.666-1.204 2.768-1.921 3.303zm.512-9.284c-.239-.208-.393-.506-.461-.893-.017-.03-.068-.417-.153-1.161a2.154 2.154 0 0 0-.18-.669l.436-.402c.819.119 1.212.179 1.179.179a.472.472 0 0 0 .204-.067.471.471 0 0 1 .205-.067c.103 0 .256.119.461.357-.222.596-.785 1.503-1.691 2.723zm5.84-1.473c-.393.328-1.016.521-1.869.581l-.359-.848.948-1.607.999-.58.615 1.384-.334 1.07zm-.409 10.355c-.444 0-.846-.462-1.204-1.384a8.478 8.478 0 0 1-.589-2.544c1.212 0 2.066.506 2.561 1.518v1.026c-.375.922-.631 1.384-.768 1.384zm15.522-14.015l-1.075 1.518a.901.901 0 0 1-.23.044c-.376 0-.982-.714-1.819-2.143-.272-.476-.879-1.339-1.818-2.589-.99-1.309-1.622-2.053-1.895-2.231-.461.446-.99 1.324-1.589 2.633-.631 1.398-1.136 2.321-1.511 2.768a40.52 40.52 0 0 1-1.076 1.116l-.82-.803a26.34 26.34 0 0 1-.05-1.518c.614-.863 1.502-2.202 2.663-4.018.205-.357.563-1.16 1.076-2.41.409-1.012.803-1.741 1.178-2.187.205.119.486.313.846.58.29.298.444.848.461 1.652 2.527 2.797 4.618 4.657 6.275 5.579l-.616 2.009zm-1.972 9.239c-.7 1.22-1.238 2.247-1.614 3.08-.238.506-.64.967-1.204 1.384-.648.476-1.092.893-1.331 1.25-.239.356-.542 1.071-.909 2.142-.368 1.072-.717 1.823-1.051 2.255a3.124 3.124 0 0 1-1.19.96c-.752.326-1.161.521-1.229.58l-.538-.179-.358-.625c0-1.071.025-1.741.076-2.009.12-.564.418-1.012.897-1.339.887-.536 1.46-.997 1.715-1.384.376-.564.709-1.592.999-3.08-.085-.564-.358-.938-.819-1.115-.461-.179-.709-.551-.742-1.116-.086-.059-.154-.089-.205-.089-.137 0-.372.134-.704.401-.333.269-.603.401-.808.401l-.179-.044-.333-1.294.153-.848-.153-1.027.384-1.071.512.491c1.555-.952 2.997-1.428 4.329-1.428.256 0 .628.074 1.115.223.486.149.85.223 1.088.223.119 0 .239-.089.358-.268l.128-.178c.205-.357.437-.536.691-.536.104.268.351.565.743.893.308.298.53.863.667 1.696-.173.833-.335 1.384-.488 1.651zm-1.742-5.49c-.222 0-.567-.044-1.037-.134s-.824-.134-1.063-.134c-.154 0-.381.065-.68.193s-.524.193-.679.193a.697.697 0 0 1-.281-.089.685.685 0 0 0-.282-.089c-1.024 0-1.682.298-1.972.893-.188-.328-.316-.804-.385-1.429a45.494 45.494 0 0 0-.128-1.606l.333-.893.641.402c.256-.06.675-.223 1.256-.491.528-.238.955-.357 1.279-.357l1.896.06c1.161 0 1.896.804 2.203 2.41-.324.714-.691 1.071-1.101 1.071zm-2.356 5.178c-.615 0-.966.089-1.051.268.29.833.521 1.636.691 2.41.717-.356 1.298-1.086 1.742-2.187-.222-.327-.683-.491-1.382-.491z"/><path d="M60.269 43.475c.529.506.888.982 1.076 1.428.256.595.384 1.414.384 2.455 0 2.083-.342 3.973-1.025 5.669-.478 1.189-1.288 2.588-2.433 4.195-.137.059-.342.245-.614.558-.273.313-.471.469-.59.469-.546.476-1.092.714-1.64.714-.58 0-1.05-.357-1.408-1.07l.077-1.652c.461-.714 1.075-1.369 1.844-1.964a88.756 88.756 0 0 0 1.947-1.562c1.314-1.161 2.117-3.021 2.407-5.58-.428-.773-.974-1.16-1.639-1.16l-.077.044-.205.089-.436.268-.204-.401L56.4 47.09c-.119-.208-.272-.64-.461-1.294-.119-.417-.272-.669-.461-.759l.128-.669-.18-.848c.137-.297.24-.58.308-.848v-.223c.172-.773.436-1.161.795-1.161.188 0 .375.208.563.625.496-.149 1.324-.818 2.485-2.008 1.076-1.131 1.775-1.696 2.1-1.696.343 0 .59.313.743.938a36.425 36.425 0 0 1-2.151 4.328zm1.127-8.436a6.673 6.673 0 0 0-.563.759c-.154 0-.333.134-.538.401-.29.357-.461.551-.513.581-.409.148-.964.491-1.664 1.026-.12.208-.205.551-.257 1.027l-1.024-.402c-.068-.387-.137-.781-.205-1.183-.068-.402-.188-.722-.358-.96l.23-1.116-.18-.268.359-1.785.333-.134.718.313.076.669c.717-.476 1.826-1.042 3.33-1.696l.436.223.384 1.518a2.106 2.106 0 0 1-.564 1.027zm17.981 22.674c-.017.357-.153 1.012-.41 1.965-.29 1.101-.538 1.666-.742 1.695a3.233 3.233 0 0 1-.59.402l-.23-.135a.468.468 0 0 1-.307.135c-.308 0-.624-.372-.948-1.116a219.738 219.738 0 0 0-5.277-5.312c-.204.029-.396.246-.575.647-.18.401-.603.989-1.269 1.763-.478.596-.802 1.057-.973 1.384-.871.476-1.537.699-1.999.669h-.409c-.598-.951-.896-1.531-.896-1.74 0-.387.196-.684.589-.893 1.521-.773 2.732-2.023 3.638-3.75-.529-.922-1.136-1.502-1.818-1.74-.343.506-.82 1.295-1.435 2.365-1.109 1.965-1.913 3.273-2.407 3.928-1.042 1.34-2.05 2.01-3.023 2.01l-.563-.447c0-.445-.119-.714-.358-.803 0-.982.146-1.637.436-1.965.393-.268.982-.713 1.768-1.338.955-.893 1.604-1.578 1.946-2.054.41-.536.948-1.458 1.613-2.767.376-.595.871-1.577 1.486-2.946-.564.208-1.127.432-1.69.67-.564.238-1.067.684-1.512 1.339l-.666-.223a2.254 2.254 0 0 1-.308-1.027l-.23-.401-.153-1.116c.052-.178.111-.476.18-.893.204-.446.308-.773.308-.982l.384-.357c.204.06.376.268.512.625.342-.03.871-.208 1.588-.536a46.269 46.269 0 0 1 1.666-4.463.457.457 0 0 0-.18-.044c-.188 0-.491.119-.909.357-.419.238-.705.461-.858.669l-.928.312-.665-1.696c.204-1.964.589-3.021 1.152-3.169l.18.045c.12-.298.332-.677.64-1.138.308-.461.752-1.198 1.333-2.209.137-.387.367-.908.691-1.563.102-.148.264-.476.486-.982.085-.03.205-.253.358-.669a.416.416 0 0 1 .359-.178c.068.238.435.64 1.101 1.205.171.148.324.313.461.491l.077.804-.256 1.294c-.017.03-.334.134-.948.312-.188.03-.486.365-.896 1.004-.411.64-.692 1.183-.846 1.629l4.072-.357c.393-.029.615-.059.666-.089.239-.06.427-.223.563-.491-.273-.357-.657-.952-1.152-1.785a8.73 8.73 0 0 0 .153-1.652l.359-.58c.136.119.58.446 1.331.982l.256-.223c.223.357.633.863 1.229 1.518a5.996 5.996 0 0 1 1.179 1.919l-.103.848.205 1.16-.64 1.428a5.712 5.712 0 0 1-1.307.134c-.052 0-.315-.06-.795-.179a.401.401 0 0 1-.204.044h-.128c.324.298.652.618.986.96.332.342.605.803.819 1.384.213.58.328.885.346.915.12.268.282.521.486.759v.535c.018.06.128.67.333 1.83-.257.655-.537 1.042-.845 1.161-1.059-.417-2.288-.625-3.688-.625-.086 0-.244.022-.475.067-.23.045-.414.067-.551.067-.426 0-.861.104-1.306.313l.23.089c.052.595.068 1.205.052 1.83-.308.089-.53.328-.667.714.7.417 1.341.967 1.921 1.651.444-.536.854-1.309 1.229-2.321.171-.506.47-1.161.897-1.964.222 0 .396.126.524.379l.372.737a.184.184 0 0 1 .127-.045c.188 0 .419.208.691.625 0 .06-.059.536-.179 1.428-.068.536-.179.967-.332 1.294-.411.208-.88.655-1.41 1.339 2.033 2.084 3.979 3.08 5.841 2.99.324-.029.542-.014.653.045.111.061.329.193.653.402-.009.388-.035.953-.069 1.697zm-7.889-16.514c.085-.357.195-.893.332-1.607-.461.03-.913.044-1.357.044-.546.06-.974.179-1.281.357l.052.447c-.239.178-.529.506-.87.982-.223.417-.513 1.086-.872 2.008.547-.149 1.371-.23 2.473-.246 1.102-.015 1.925-.097 2.472-.245l-.949-1.74z"/><path d="M91.029 50.631c-.223.089-.47.297-.743.625l-.717.759c-.905-.328-2.28-.729-4.124-1.206a1.248 1.248 0 0 1-.409-.134c-.223.149-.615.238-1.18.268-.768.03-1.178.06-1.229.089-.717.119-1.469.58-2.254 1.383a55.29 55.29 0 0 1-.974 1.027 3.855 3.855 0 0 1-1.051.67c-.204-.328-.35-1.086-.435-2.277a5.908 5.908 0 0 0-.153-.892l.307-.089-.153-.982c.308-.149.904-.521 1.793-1.116.699-.506 1.169-.789 1.408-.848.12-.774.18-1.369.18-1.786 0-3.987-.025-6.338-.077-7.052l.23-.58c0-.298-.024-.744-.076-1.339-.257.089-.658.134-1.204.134.017 0-.272.044-.871.134l-.18-1.473c.035-.417.072-.848.116-1.294.042-.446.183-.744.422-.893l.41.268c.137-.149.38-.216.729-.201.351.015.629-.097.833-.334l-.282-2.678.436-.893 1.512.536.358 1.116-.051 1.607.128.179c1.076-.298 1.946-.447 2.612-.447.188 0 .367.03.538.089.017-.773.025-1.89.025-3.348l.589-.401c.803.238 1.273 1.026 1.409 2.365l-.23 1.652 1.383.357c.41.208.675.863.795 1.964l-.206.669c-.579.536-1.127.804-1.639.804-.103 0-.18.03-.23.089-.239.714-.358 1.726-.358 3.035 0 .506.017 1.265.051 2.276s.051 1.771.051 2.276c0 .208-.051 1.19-.153 2.946.257.149.47.223.641.223.068 0 .149-.007.243-.022s.158-.037.191-.067c.325-.03.914.491 1.768 1.562l-.179 1.25zm-7.335 4.568c-.068.387-.341 1.16-.818 2.32-.479 1.161-.828 1.949-1.051 2.366-.479.833-1.017 1.249-1.613 1.249-.104 0-.23-.014-.385-.044-.153-.714-.23-1.161-.23-1.339 0-.715.453-1.859 1.357-3.438.905-1.576 1.451-3.139 1.64-4.686.222.178.401.297.538.356.409.208.7.655.87 1.339-.068.418-.17 1.043-.308 1.877zm3.22-9.254c-.256.06-.418.089-.486.089-.291 0-.717-.044-1.281-.134-.563-.089-.99-.134-1.281-.134-.426 0-.726.104-.896.313a5.857 5.857 0 0 0-.104.982c0 .179.019.313.052.402.188 0 .88-.045 2.074-.134.854-.089 1.546-.089 2.075 0l-.153-1.384zm-2.194-4.553h-.513c-.375 0-.751.089-1.127.268-.068.625-.103.997-.103 1.116 0 .06.009.164.025.313.428-.238.752-.357.974-.357.052 0 .133.022.243.067.112.045.193.052.243.022.257-.03.667-.075 1.229-.134.529-.06.905-.045 1.128.044.017-.179.06-.402.128-.669 0-.298-.009-.461-.026-.491-.017-.03-.132-.044-.345-.044-.214 0-.525-.022-.936-.067a8.964 8.964 0 0 0-.92-.068zm2.151-4.642l-.384-.179H85.591c-.291 0-.691.03-1.204.089-.563.089-.956.134-1.179.134l-.18.669.129.625 3.714-.044V36.75zm1.05 24.43c-.358-.387-.726-1.033-1.101-1.941-.376-.907-.606-1.719-.692-2.433-.033-.387-.119-.944-.255-1.674-.138-.729-.206-1.302-.206-1.718 0-.149.052-.328.154-.536h.64l.41.356c.547.536 1.033 1.555 1.46 3.059.427 1.502.615 2.805.563 3.905-.34.447-.665.774-.973.982zm14.259-27.406c-.614.744-.922 1.741-.922 2.99 0 .506.021 1.25.064 2.232.042.982.064 1.711.064 2.187 0 .179-.022.409-.064.692a4.66 4.66 0 0 0-.064.647c0 .357.021.878.064 1.563l.09 1.473c.033 1.429.068 3.735.102 6.919 0 .564.039 1.443.116 2.633.076 1.19.114 2.098.114 2.723 0 1.935-.324 3.214-.973 3.839a4.202 4.202 0 0 1-.797-1.606c-.017-.09-.11-.744-.284-1.965l.078-.535c-.188-3.601-.282-6.293-.282-8.079-.427-.298-.992-.446-1.694-.446-1.505 0-2.856.223-4.056.669-.137.476-.351 1.949-.641 4.419-.206 1.755-.667 3.05-1.384 3.883-.307.388-.691.581-1.152.581-.205 0-.401-.061-.589-.18l-.41-.938c.188-.893.529-1.948 1.024-3.168.598-1.518.982-2.545 1.152-3.08 1.009-3.303 1.512-8.362 1.512-15.176-.171-.328-.376-.551-.614-.669-.308-.565-.462-1.384-.462-2.455 0-.06.025-.208.077-.446l.103-.446 4.414-.536c.085 0 .201.022.347.067.145.044.251.067.319.067h1.181c.051 0 .132-.015.246-.044.11-.03.191-.045.243-.045.239 0 .478.089.719.268l.359-.982h.771c.017.029.281.327.793.893.308.327.461.759.461 1.294 0 .207-.008.46-.025.757zm-3.005 8.793c0-.149-.085-.193-.257-.134l-.127.089c-.345-.119-1.027-.178-2.054-.178-.924 0-1.65.208-2.182.625l-.128.982c-.034.297-.068.61-.103.937v.759c1.112-.417 2.088-.625 2.925-.625.17 0 .89.089 2.155.268a6.47 6.47 0 0 0-.026-1.049c-.032-.283-.101-.841-.203-1.674zm0-7.231l-.358-.089-2.511-.357a7.274 7.274 0 0 0-1.204.58c-.136.149-.204.655-.204 1.518 0 .179-.035.432-.104.759-.067.328-.102.565-.102.714 0 .06.008.104.025.134 1.093-.595 2.126-.893 3.1-.893.529 0 .99.134 1.383.402.052-.625.077-1.027.077-1.205 0-.179-.034-.7-.102-1.563z"/><path fill="#AACF53" d="M124.719 36.659c-.649.895-1.64 1.341-2.972 1.341-.137 0-.666-.164-1.588-.491a13.01 13.01 0 0 1-1.229-.223l-2.868-.582-6.814.225h-.076l-.41.268c-.205.119-.478.179-.82.179-.409-.03-.691-.03-.845 0-.495.148-1.093.476-1.793.982-.837.625-1.366 1.22-1.588 1.785-.256-.565-.384-1.354-.384-2.366 0-.565.162-1.4.485-2.507 3.229-1.315 5.534-1.971 6.917-1.971.393 0 .785.03 1.178.089a2.54 2.54 0 0 0 .077-.223l.103-.312c.086-.208.128-.387.128-.536l-.23-1.206.282-1.116 1.229-.491c.018.238.094.417.231.536.273.178.555.357.845.536.376.297.564.64.564 1.026 0 .208-.061.454-.181.736-.118.283-.179.484-.179.603v.134l.999-.045c2.493-.03 5.499.374 9.017 1.209l.308.896-.386 1.524zm-.589 13.705c0 .417.017 1.012.051 1.785.051.863.077 1.474.077 1.83.034 1.756.052 3.289.052 4.598 0 .744-.266 1.875-.795 3.393-.546-.565-.905-1.324-1.075-2.276-.069-.952-.146-1.919-.231-2.901a126.4 126.4 0 0 1-.205-2.188l-.05-2.365c-.052-1.042-.23-1.696-.538-1.964-.325.297-.642.446-.948.446-.358 0-.819-.119-1.384-.357-.768-.298-1.237-.461-1.408-.491-.479-.119-1.264-.179-2.356-.179-.428 0-.854.015-1.281.045-.58.089-1.451.193-2.612.313h-1.768c-.718.03-1.306.164-1.767.401-.068.06-.316.104-.743.134-.256.03-.482.215-.679.558-.196.342-.431 1.51-.705 3.504-.324 2.5-.504 3.824-.537 3.973-.154.803-.461 2.008-.923 3.615-.649-.773-.973-1.771-.973-2.99 0-.953.076-2.143.23-3.57.137-1.161.265-2.336.384-3.527.137-1.368.205-1.993.205-1.874 0-.149-.162-.642-.487-1.479.223-.659.402-1.075.539-1.255.136-.179.401-.285.794-.314.188 0 .409-.074.666-.223.119.208.495.493 1.126.852l1.845-.985c.257-.121.743-.181 1.461-.181.887 0 1.416-.015 1.587-.044 1.64-.268 2.417-.402 2.331-.402 2.221 0 3.672.21 4.354.627 1.69-.03 2.852.18 3.483.628l1.076-.628c.307.18.614.344.923.495.341.238.588.597.742 1.075-.308.535-.461 1.175-.461 1.921zm-5.311-9.002c0 .089.059.431.179 1.026-.052.119-.153.714-.308 1.786-.119.803-.375 1.205-.768 1.205-.035 0-.154-.06-.359-.179l-.563.179c-.342.148-.529.223-.563.223-.103 0-.248-.037-.435-.112-.188-.074-.333-.111-.437-.111h-2.996a7.99 7.99 0 0 0-2.869.536l-.308-.134-1.05.625c-.172-.297-.308-.863-.41-1.696-.017-.238-.085-.402-.204-.491.033-.476.136-1.071.307-1.785.154-.595.23-1.012.23-1.25l-.436-1.696a7.037 7.037 0 0 1-.153-.759c.137-.148.308-.268.513-.357a.99.99 0 0 0 .409-.313l1.563.313c.239 0 .585-.052 1.037-.156.453-.104.781-.156.986-.156.376-.021.709-.03.999-.03.341 0 .854.036 1.537.104.683.069 1.195.104 1.536.104.256 0 .846-.089 1.768-.268.035.119.334.491.896 1.116.154.178.291.401.41.669-.341.804-.511 1.339-.511 1.607zm.188 13.451c0-.119.043.282.128 1.205a36.138 36.138 0 0 1-.295 1.919c-.145.833-.388 1.22-.73 1.161-.307-.061-.442-.09-.409-.09-.119 0-.299.053-.538.156-.238.104-.418.156-.537.156-.103 0-.252-.037-.449-.111-.195-.074-.345-.111-.448-.111-.272-.03-1.366-.045-3.278-.045-1.178 0-2.015.178-2.511.535l-.409-.09-.999.625c-.205-.268-.333-.669-.384-1.205-.018-.237-.103-.595-.256-1.07.033-.447.136-1.042.307-1.785.154-.625.23-1.102.23-1.429 0-.149-.137-.7-.41-1.651l-.204-.804c.188-.149.367-.238.538-.269.085 0 .222-.133.409-.4l1.537.268c.273 0 .743-.045 1.409-.135.665-.089 1.169-.133 1.511-.133.358 0 .905.029 1.64.089.733.06 1.289.089 1.665.089.272 0 .837-.089 1.69-.268.051.179.358.565.922 1.16.137.148.282.372.435.67-.376.625-.564 1.146-.564 1.563zm-3.219-14.433c-.103 0-.214.069-.333.208-3.04 0-4.919.103-5.636.307-.085.147-.137.366-.153.658-.017.294-.034.556-.052.791l.026.268c.871-.178 1.981-.268 3.329-.268 1.896-.03 3.006-.06 3.331-.089.017-.179.025-.342.025-.491.001-.923-.179-1.384-.537-1.384zm.581 13.51c-.104 0-.223.06-.359.179h-.64l-1.717-.357c-.188-.029-.807.045-1.856.223-1.051.18-1.653.328-1.807.447-.034.029-.11.564-.23 1.606l.052.313c.819-.148 1.997-.268 3.534-.356 1.622-.09 2.801-.193 3.535-.313a2.38 2.38 0 0 0 .025-.357c0-.923-.179-1.385-.537-1.385z"/><path d="M136.186 41.184c-.393-.03-.938-.208-1.64-.536-.153 0-.443.03-.871.089-.358.03-.648.044-.87.044-.273 0-.691-.037-1.256-.111-.563-.074-.981-.112-1.255-.112-1.11 0-2.869.744-5.276 2.232-.29-.506-.393-1.116-.307-1.83l.23-1.741.589.134 2.74-1.428c.085-.536.128-1.101.128-1.696v-1.383c-.222-.506-.332-.938-.332-1.294 0-.298.05-.565.153-.804.204-.208.47-.313.794-.313.495 0 .743.655.743 1.964 0 .208-.043 1.146-.129 2.812.052.089.12.134.205.134.051-.03.265-.104.641-.223l.641-.266c-.104-1.127-.154-1.796-.154-2.003 0-.238.018-.593.051-1.069.035-.475.052-.83.052-1.068 0-.238-.085-.563-.257-.98-.17-.417-.256-.789-.256-1.116 0-.119.018-.283.052-.491l.563-.893c.718.06 1.306.417 1.768 1.071l.076 1.071c-.068.208-.153.521-.256.936l.282.134c1.69-.326 2.511-.489 2.459-.489.376 0 .82.285 1.331.852l-.384 2.109c-.478.089-1.126.134-1.946.134-1.075 0-1.537.015-1.383.045a3.71 3.71 0 0 0-.436.311c-.103.089-.154.251-.154.487 0 .178.017.387.052.623.7.207 1.434.355 2.202.445.77.087 1.289.221 1.563.398.444.297.862.919 1.255 1.865-.409 1.392-.879 2.045-1.408 1.956zm.495 6.621c0 .327.008.826.026 1.495.017.669.024 1.168.024 1.495v4.375c0 1.666-.299 3.049-.896 4.15l-1.178.178c-.256 0-.649-.044-1.179-.133-.528-.09-.931-.135-1.203-.135-.137 0-.718.104-1.742.313-.734.149-1.46.298-2.178.447-.87.268-1.537.758-1.998 1.473l-.563-.402c-.239-.445-.359-.981-.359-1.606 0-.417.068-.989.205-1.718.137-.729.214-1.243.23-1.541.018-.297.052-1.934.103-4.909 0-.387.026-1.175.077-2.366.034-1.012.051-1.8.051-2.366 0-.179-.034-.432-.102-.759-.068-.327-.104-.58-.104-.759s.043-.342.129-.491l.769-.268c.187.089.367.208.537.357.171.149.256.446.256.893 0 .298-.017.685-.051 1.161a23.039 23.039 0 0 0-.076 1.205c-.205 4.821-.308 7.32-.308 7.499 0 .119.025.595.077 1.428l.102.09c.154-.06 1.271-.357 3.348-.893-.171-.625-.256-1.533-.256-2.723 0-.328.019-.923.057-1.785.017-.774.028-1.384.028-1.831v-.625c-.034-.06-.076-.089-.128-.089-.717 0-1.521.313-2.408.938a9.7 9.7 0 0 1-.077-.982c0-.238.018-.536.052-.893.033-.208.068-.61.102-1.205l.59.491 1.87-.714c.045-.536.067-1.547.067-3.035l.052-1.785.465-.446c.721.208 1.08.714 1.08 1.518 0 .238-.055.543-.166.915-.11.372-.166.632-.166.781 0 .119.025.64.076 1.563.376.03.761.067 1.153.111a2.02 2.02 0 0 1 1.075.469l.257.982-.282 1.384-1.536-.223c-.507 0-.761.164-.761.491 0 .387.02.989.061 1.808.04.818.059 1.436.059 1.853 0 .893-.059 1.8-.179 2.723 1.246.089 2.33.357 3.254.803.067-.416.098-1.026.089-1.83-.008-.803.013-1.368.064-1.695-.068-2.202-.104-3.333-.104-3.393 0-.357.018-.871.052-1.54s.052-1.168.052-1.495c0-.238-.03-.588-.091-1.049a9.016 9.016 0 0 1-.089-1.049l.076-1.071.513-.402c.103.179.35.461.743.848.308.268.521.625.641 1.071-.018.238-.077.729-.18 1.473a13.094 13.094 0 0 0-.102 1.425zm-8.513 7.498c-.17-.119-.4-.342-.691-.669a4.027 4.027 0 0 1-.077-.401c0-.744.119-1.354.359-1.83.085-.149.376-.536.87-1.161.223-.268.428-.595.615-.982l.538.669c.102.179.205.536.307 1.071-.563 1.666-1.204 2.768-1.921 3.303zm.513-9.284c-.239-.208-.393-.506-.461-.893-.018-.03-.068-.417-.153-1.161a2.157 2.157 0 0 0-.181-.669l.437-.402c.819.119 1.212.179 1.178.179.052 0 .12-.022.205-.067a.471.471 0 0 1 .205-.067c.103 0 .256.119.461.357-.223.596-.786 1.503-1.691 2.723zm5.84-1.473c-.393.328-1.016.521-1.869.581l-.359-.848.947-1.607.999-.58.615 1.384-.333 1.07zm-.41 10.355c-.444 0-.846-.462-1.204-1.384a8.509 8.509 0 0 1-.59-2.544c1.213 0 2.066.506 2.562 1.518v1.026c-.375.922-.632 1.384-.768 1.384zm15.522-14.015l-1.075 1.518a.917.917 0 0 1-.23.044c-.376 0-.982-.714-1.819-2.143-.273-.476-.88-1.339-1.818-2.589-.99-1.309-1.622-2.053-1.896-2.231-.461.446-.99 1.324-1.588 2.633-.632 1.398-1.136 2.321-1.511 2.768-.104.119-.461.491-1.076 1.116l-.82-.803a26.413 26.413 0 0 1-.051-1.518c.614-.863 1.503-2.202 2.664-4.018.205-.357.563-1.16 1.075-2.41.41-1.012.804-1.741 1.179-2.187.204.119.486.313.846.58.29.298.444.848.461 1.652 2.527 2.797 4.618 4.657 6.275 5.579l-.616 2.009zm-1.972 9.239c-.7 1.22-1.238 2.247-1.614 3.08-.238.506-.64.967-1.204 1.384-.648.476-1.092.893-1.331 1.25-.239.356-.542 1.071-.909 2.142-.368 1.072-.718 1.823-1.051 2.255-.333.431-.73.751-1.191.96-.751.326-1.161.521-1.229.58l-.538-.179-.357-.625c0-1.071.025-1.741.076-2.009a2.092 2.092 0 0 1 .896-1.339c.888-.536 1.461-.997 1.716-1.384.376-.564.709-1.592.999-3.08-.085-.564-.358-.938-.819-1.115-.461-.179-.709-.551-.743-1.116-.086-.059-.154-.089-.204-.089-.137 0-.372.134-.704.401-.334.269-.603.401-.808.401l-.179-.044-.334-1.294.153-.848-.153-1.027.384-1.071.513.491c1.554-.952 2.997-1.428 4.329-1.428.256 0 .628.074 1.114.223.487.149.85.223 1.088.223.12 0 .24-.089.359-.268l.128-.178c.205-.357.437-.536.691-.536.103.268.351.565.743.893.308.298.53.863.666 1.696-.171.833-.334 1.384-.487 1.651zm-1.742-5.49c-.223 0-.567-.044-1.037-.134-.471-.089-.824-.134-1.063-.134-.154 0-.381.065-.68.193s-.524.193-.679.193a.705.705 0 0 1-.282-.089.681.681 0 0 0-.281-.089c-1.024 0-1.682.298-1.972.893-.188-.328-.316-.804-.385-1.429a48.01 48.01 0 0 0-.128-1.606l.332-.893.642.402c.256-.06.675-.223 1.255-.491.529-.238.956-.357 1.28-.357l1.896.06c1.161 0 1.896.804 2.203 2.41-.325.714-.691 1.071-1.101 1.071zm-2.356 5.178c-.615 0-.965.089-1.05.268.289.833.52 1.636.691 2.41.717-.356 1.298-1.086 1.742-2.187-.222-.327-.683-.491-1.383-.491z"/><linearGradient id="g" gradientUnits="userSpaceOnUse" x1="75.56" y1="44.27" x2="130.866" y2="99.576"><stop offset="0" stop-color="#ead18f"/><stop offset=".076" stop-color="#e1c477"/><stop offset=".221" stop-color="#d1af4e"/><stop offset=".335" stop-color="#c8a235"/><stop offset=".405" stop-color="#c49d2c"/><stop offset=".559" stop-color="#d4b35c"/><stop offset=".766" stop-color="#e7cd97"/><stop offset=".919" stop-color="#f3debb"/><stop offset="1" stop-color="#f8e4c9"/></linearGradient><path opacity=".8" fill="url(#g)" d="M54.406 65.423h97.612v13H54.406z"/><path fill="#ABABAB" d="M64.057 93.367c-.475.58-.959.939-1.45 1.07-.222.053-.563.156-1.022.314-.224.133-.563.279-1.024.438-.57.078-.966.143-1.188.197a3.755 3.755 0 0 0-1.167.475c-.127-.264-.229-.672-.309-1.229-.063-.367-.166-.617-.309-.75a5.393 5.393 0 0 1-.024-.473c0-.557.107-1.068.321-1.545.213-.475.486-.713.82-.713.968.053 2.268.053 3.901 0 .665-.025 1.116.029 1.355.16.43.209.762.711.999 1.504-.331.052-.634.238-.903.552zm8.541 2.178c-4.347 7.225-8.564 11.775-12.655 13.646l-1.286-1.461a5.135 5.135 0 0 1-.071-.793c0-.525.247-1.502.737-2.93.715-.34 1.437-.684 2.165-1.025a16.941 16.941 0 0 0 2.116-1.268c1.318-1.004 3.253-3.162 5.805-6.488.303-.393 1.112-1.646 2.428-3.756.968-1.559 1.84-2.665 2.615-3.325l.572.277c-.129 2.269-.936 4.642-2.426 7.123zm-6.21-9.427c-.301.553-.546.803-.736.752l-4.067-.91c-.063 0-.184.059-.358.178s-.309.176-.403.176l-.192-.039-.379-1.936c-.063-.236-.032-.58.095-1.027.253-.92.816-1.383 1.689-1.383.206 0 .451.107.738.316.38.238.625.369.737.396.412.129 1.068.379 1.973.748.92.449 1.508 1.135 1.761 2.057-.318 0-.603.223-.858.672zM99.215 107.02l-1.046.91c-1.284-.688-2.655-2.084-4.115-4.197a1343.271 1343.271 0 0 1-3.593-5.457c-.237.264-1.546 1.975-3.926 5.143-1.537 2.031-2.979 3.426-4.328 4.191-.063-.156-.198-.289-.404-.395-.365-.156-.729-.33-1.094-.514-.492-.213-.817-.434-.976-.672-.049-.08-.166-.555-.357-1.426.222-.738.65-1.227 1.283-1.461a21.495 21.495 0 0 0 1.595-.459c.524-.17 1.261-.783 2.212-1.84 2.094-2.268 3.625-4.232 4.592-5.893.73-1.24 1.896-3.693 3.498-7.358l-.405-.16c-.572.133-1.261.238-2.069.316-.744.131-1.856.344-3.332.635l-1.402.234c-.522.16-.944.479-1.261.954l-.355-.277c0-1.505-.04-2.454-.121-2.851.034-.818.311-1.439.833-1.859.145-.105.627-.355 1.452-.75.253.633.443.932.571.91l5.779-.99.237-.041c.255 0 .524.105.81.316.031-.027.261-.383.69-1.068.269-.42.522-.633.762-.633.095 0 .205.027.332.082.095.314.376.646.845.986.467.344.812.764 1.035 1.268-.999 1.662-1.65 2.859-1.951 3.598a92.682 92.682 0 0 1-1.142 3.05c-.126.287-.508.988-1.142 2.098-.508.896-.824 1.633-.951 2.213a205.597 205.597 0 0 1 2.639 3.207c.937 1.051 1.959 1.762 3.068 2.133 1.002.211 2.499.672 4.495 1.385-.253.795-.724 1.615-1.414 2.473-.689.859-1.138 1.591-1.344 2.199zM124.358 95.189c-.208.053-.479.305-.821.752-.34.451-.652.674-.939.674-.172 0-.586-.17-1.236-.514-.76-.422-1.223-.66-1.379-.713-.303.025-.746-.014-1.331-.117l-.43.154-.81-.352c-.174.289-.348 1.107-.522 2.449a651.01 651.01 0 0 1-.286 1.818c-.127.686-.275 1.252-.451 1.701a16.9 16.9 0 0 1-2.069 3.678c-.92 1.238-1.809 2.059-2.665 2.455-1.458.711-2.528 1.066-3.211 1.066-.237 0-.896-.092-1.975-.279l-.332-1.225c.045-1.582.461-2.584 1.236-3.008.318-.158 1.086-.236 2.309-.236.507 0 1.063-.117 1.664-.355.762-.316 1.585-1.045 2.473-2.18.999-1.291 1.5-2.479 1.5-3.559 0-.08-.008-.199-.026-.355l-.045-.318c-.332-.42-.58-1.029-.738-1.82l-.332-.277c-.475-.027-1.182-.012-2.117.041-.35.051-1.157.287-2.428.711-1.315.449-2.085.768-2.307.949-.222.186-.411.516-.571.99l-.403.238-.549-.08-.215-1.305c.142-1.027.271-1.77.383-2.217.19-.818.451-1.424.784-1.82a272.57 272.57 0 0 1 5.496-1.107c.664-.107 1.634-.158 2.902-.158 1.283 0 3.956.289 8.017.871.031 0 .079-.029.142-.08l.237-.078.238.078c.047.027.103.051.168.08l1.165-.158.619.434c-.097.475-.289 1.039-.573 1.686-.286.647-.477 1.143-.572 1.486zm-2.902-9.971c-.077 1.109-.696 1.662-1.854 1.662-.285 0-.698-.039-1.236-.119-.542-.078-.946-.119-1.215-.119-.127 0-.293-.025-.501-.078a3.85 3.85 0 0 1-.498-.119 10.488 10.488 0 0 0-1.595-.117c-.237 0-.951.09-2.139.275-1.191.184-1.834.316-1.927.396-.016 0-.109.119-.275.355-.166.238-.305.346-.417.316l-.499-.197-.401-1.504c.091-1.396.457-2.229 1.092-2.492.254 0 .633-.068 1.142-.197 1.238-.555 2.681-.779 4.329-.674 1.984.131 3.005.199 3.068.199 1.144.209 2.127.686 2.951 1.424 0 .239-.009.567-.025.989zM147.101 106.852c-.222 0-.517-.08-.881-.236-.411-.16-.698-.266-.854-.318-.366-.053-1.636-.197-3.807-.436-1.46-.156-2.277-.236-2.451-.236-3.425 0-6.271 1.055-8.541 3.164-.601-.869-.903-2.293-.903-4.271 0-.264.136-.582.407-.949.425-.213.758-.305.997-.279.556-.473 1.076-1.389 1.57-2.734.378-1.107.76-2.213 1.14-3.32.337-.818.817-2.057 1.452-3.719.192-.605.483-1.504.881-2.691.364-1.027.617-1.806.76-2.335.271-.869.471-1.688.596-2.453l-.046-.117a1.512 1.512 0 0 1-.239-.791c0-.818.253-1.451.76-1.898.477-.264.943-.527 1.402-.793.416.291.993.66 1.737 1.109.224.342.336.898.336 1.662 0 .422-.199.91-.597 1.463l-.904 1.186c-.997 1.771-2.226 4.845-3.688 9.22-.33.791-.664 1.582-.997 2.371-.411 1.004-.635 1.848-.666 2.533 1.204-.342 2.656-.514 4.354-.514 2.743 0 4.694.213 5.852.633-.269-1.32-.569-2.203-.904-2.652a36.98 36.98 0 0 1-.737-.986 11.444 11.444 0 0 1-.594-1.305c.158-1.135.586-1.805 1.282-2.02.239.107.581.305 1.024.594.016 0 .253.344.712 1.029.208.238.517.633.929 1.188.318.475.706 1.527 1.165 3.164.382 1.318.675 2.494.882 3.525a4.138 4.138 0 0 1-.523 1.523c-.272.456-.576.689-.906.689z"/><path d="M63.244 92.018c-.476.58-.958.936-1.45 1.068-.222.053-.564.158-1.023.316-.222.131-.562.277-1.022.436-.569.08-.968.146-1.189.197a3.78 3.78 0 0 0-1.165.477c-.129-.264-.231-.674-.311-1.227-.062-.369-.164-.621-.309-.752a6.724 6.724 0 0 1-.023-.475c0-.557.106-1.068.32-1.545.216-.473.488-.711.821-.711.967.051 2.269.051 3.901 0 .666-.025 1.119.025 1.354.158.43.213.762.713 1.002 1.504-.335.052-.635.237-.906.554zm8.54 2.175c-4.344 7.225-8.564 11.777-12.653 13.65l-1.286-1.465a4.856 4.856 0 0 1-.071-.791c0-.529.245-1.504.738-2.928.712-.346 1.435-.686 2.164-1.031a16.731 16.731 0 0 0 2.117-1.264c1.315-1.002 3.25-3.164 5.805-6.488.301-.396 1.109-1.648 2.425-3.758.968-1.556 1.84-2.663 2.618-3.325l.569.277c-.127 2.27-.934 4.643-2.426 7.123zm-6.208-9.426c-.301.555-.546.805-.737.75l-4.068-.908c-.063 0-.182.059-.355.178-.177.119-.311.178-.406.178l-.189-.039-.38-1.936c-.065-.238-.032-.578.095-1.027.253-.922.817-1.381 1.689-1.381.206 0 .451.104.736.314.38.236.627.367.738.395.411.131 1.07.381 1.974.748.92.449 1.508 1.135 1.761 2.057-.32-.001-.605.221-.858.671zM98.404 105.668l-1.047.908c-1.286-.686-2.657-2.082-4.117-4.195a1043.653 1043.653 0 0 1-3.591-5.457c-.237.264-1.547 1.979-3.925 5.139-1.539 2.035-2.981 3.436-4.329 4.199-.065-.16-.197-.291-.405-.396a22.87 22.87 0 0 1-1.094-.514c-.491-.211-.817-.436-.976-.676-.046-.076-.166-.551-.356-1.422.222-.74.649-1.229 1.284-1.465a21.08 21.08 0 0 0 1.595-.457c.522-.17 1.26-.783 2.212-1.84 2.093-2.266 3.624-4.23 4.592-5.893.728-1.238 1.896-3.689 3.496-7.358l-.404-.158c-.571.131-1.262.236-2.069.316-.746.133-1.855.344-3.331.631-.476.082-.944.16-1.403.24a2.282 2.282 0 0 0-1.262.949l-.356-.277c0-1.504-.039-2.453-.119-2.85.032-.816.312-1.436.833-1.859.143-.104.628-.354 1.452-.75.254.633.443.936.57.91l5.778-.99.24-.041c.255 0 .521.107.809.318.032-.025.262-.383.69-1.068.27-.424.522-.635.76-.635.095 0 .208.029.334.082.096.314.376.645.844.988.469.344.814.764 1.036 1.266-1.001 1.662-1.649 2.863-1.952 3.602-.238.684-.618 1.701-1.14 3.046-.129.291-.509.99-1.144 2.098-.507.895-.825 1.633-.952 2.215a203.585 203.585 0 0 1 2.642 3.205c.936 1.055 1.958 1.766 3.068 2.135.999.211 2.499.672 4.497 1.385-.256.791-.727 1.613-1.417 2.475-.69.854-1.138 1.585-1.343 2.194zM123.546 93.838c-.204.053-.478.303-.819.752-.343.451-.653.676-.94.676-.176 0-.585-.174-1.238-.516-.762-.422-1.221-.658-1.379-.711-.301.025-.743-.012-1.331-.119l-.428.158-.809-.355c-.177.291-.351 1.107-.524 2.453l-.283 1.818c-.129.684-.281 1.25-.453 1.697a16.876 16.876 0 0 1-2.071 3.68c-.92 1.24-1.807 2.057-2.663 2.451-1.46.713-2.528 1.068-3.213 1.068-.237 0-.894-.094-1.973-.275l-.334-1.229c.048-1.58.459-2.584 1.238-3.008.316-.158 1.084-.236 2.307-.236.507 0 1.063-.119 1.666-.357.762-.316 1.587-1.041 2.474-2.176.999-1.291 1.499-2.479 1.499-3.563 0-.076-.01-.193-.025-.352l-.048-.318c-.332-.422-.577-1.027-.735-1.82l-.335-.277c-.475-.025-1.181-.014-2.116.039-.349.053-1.158.291-2.428.711-1.315.451-2.083.768-2.307.953-.222.182-.41.514-.57.988l-.405.238-.548-.078-.214-1.307c.145-1.031.271-1.768.384-2.217.188-.82.449-1.426.783-1.822 1.221-.264 3.051-.633 5.496-1.107.665-.104 1.632-.158 2.9-.158 1.286 0 3.959.291 8.017.871.031 0 .079-.025.143-.08l.237-.078.239.078c.048.027.101.055.168.08l1.163-.158.617.434c-.095.479-.282 1.039-.569 1.686-.287.646-.476 1.142-.573 1.486zm-2.902-9.97c-.075 1.107-.697 1.662-1.854 1.662-.282 0-.698-.041-1.238-.121-.538-.078-.943-.117-1.211-.117-.128 0-.295-.025-.5-.08-.271-.051-.436-.09-.499-.119a10.476 10.476 0 0 0-1.597-.117c-.237 0-.949.092-2.139.275-1.19.188-1.832.318-1.929.396-.014 0-.106.119-.273.359-.166.234-.304.34-.415.313l-.498-.197-.408-1.502c.099-1.398.461-2.229 1.097-2.494.253 0 .635-.066 1.141-.197 1.237-.555 2.682-.777 4.331-.672 1.982.131 3.005.197 3.068.197 1.144.213 2.125.688 2.952 1.426-.001.236-.011.564-.028.988zM146.289 105.5c-.224 0-.519-.08-.88-.236a20.657 20.657 0 0 0-.857-.316c-.365-.051-1.634-.199-3.809-.438-1.458-.156-2.271-.234-2.447-.234-3.424 0-6.273 1.055-8.54 3.164-.604-.871-.904-2.293-.904-4.273 0-.262.135-.584.403-.951.428-.211.762-.305 1.001-.277.555-.475 1.078-1.387 1.569-2.73l1.142-3.32c.332-.818.816-2.059 1.45-3.721.191-.607.484-1.502.882-2.691.364-1.028.617-1.806.76-2.335.27-.867.467-1.688.596-2.451l-.048-.119a1.53 1.53 0 0 1-.239-.791c0-.818.256-1.451.762-1.9.479-.262.944-.527 1.403-.789.413.287.99.658 1.736 1.105.224.346.335.896.335 1.662 0 .424-.198.91-.596 1.465l-.904 1.186c-.999 1.77-2.228 4.843-3.686 9.22-.335.791-.667 1.582-1.001 2.373-.41 1.002-.634 1.844-.665 2.533 1.205-.346 2.657-.518 4.353-.518 2.744 0 4.694.213 5.852.633-.269-1.318-.569-2.199-.903-2.648-.38-.5-.626-.83-.736-.99-.174-.314-.374-.75-.596-1.305.158-1.133.586-1.807 1.282-2.016.241.105.582.303 1.024.594.017 0 .254.342.715 1.027.206.238.517.635.928 1.188.316.473.704 1.529 1.165 3.164.382 1.318.675 2.492.879 3.523a4.137 4.137 0 0 1-.522 1.523c-.271.46-.572.689-.904.689zM61.235 67.704v2.75h-.207c-.066-.528-.188-.948-.361-1.261a1.92 1.92 0 0 0-.738-.745 1.963 1.963 0 0 0-.994-.275c-.387 0-.707.124-.959.372-.254.248-.379.53-.379.846 0 .242.078.462.24.662.23.293.779.683 1.646 1.17.707.398 1.191.704 1.449.917.26.213.459.464.598.753.141.289.211.592.211.908 0 .602-.223 1.12-.666 1.556s-1.014.653-1.713.653c-.219 0-.424-.018-.617-.054-.115-.02-.354-.093-.717-.219-.361-.125-.59-.188-.688-.188a.278.278 0 0 0-.219.09c-.055.06-.094.184-.121.371h-.207v-2.727H57c.098.57.227.996.391 1.279.162.283.412.518.748.705a2.22 2.22 0 0 0 1.104.281c.465 0 .83-.129 1.1-.387.268-.258.402-.563.402-.914 0-.195-.051-.393-.152-.592a1.774 1.774 0 0 0-.477-.557c-.145-.117-.543-.365-1.191-.745-.646-.379-1.107-.682-1.381-.908a2.448 2.448 0 0 1-.621-.75 1.937 1.937 0 0 1-.211-.902c0-.569.207-1.061.623-1.472.418-.412.947-.618 1.59-.618.402 0 .828.104 1.277.313.209.098.355.147.441.147.096 0 .176-.03.236-.092.063-.061.111-.184.148-.369h.208zM65.206 70.298c.773 0 1.393.309 1.861.927.396.528.596 1.134.596 1.818 0 .481-.109.968-.328 1.46s-.521.864-.906 1.114c-.385.25-.813.375-1.283.375-.77 0-1.381-.322-1.834-.968a3.1 3.1 0 0 1-.574-1.83c0-.493.117-.982.35-1.469s.537-.847.916-1.079a2.259 2.259 0 0 1 1.202-.348zm-.172.383c-.197 0-.395.062-.592.185-.197.124-.359.34-.48.648-.123.309-.184.706-.184 1.191 0 .782.146 1.457.441 2.024s.684.851 1.164.851c.359 0 .656-.156.889-.469.234-.313.352-.851.352-1.613 0-.954-.195-1.705-.584-2.252-.264-.378-.6-.565-1.006-.565zM70.411 70.876v3.531c0 .502.053.819.156.952a.676.676 0 0 0 .555.259h.463v.211h-3.061v-.211h.229a.741.741 0 0 0 .408-.118.6.6 0 0 0 .252-.317c.047-.133.07-.392.07-.776v-3.531h-.996v-.422h.996v-.351c0-.534.082-.986.246-1.356s.414-.669.752-.897a1.977 1.977 0 0 1 1.135-.342c.393 0 .752.133 1.078.398.217.176.324.373.324.592a.473.473 0 0 1-.145.331c-.096.104-.199.155-.313.155a.488.488 0 0 1-.27-.097c-.094-.064-.211-.203-.348-.416-.139-.213-.264-.356-.379-.431s-.244-.111-.385-.111a.673.673 0 0 0-.434.143c-.119.096-.205.244-.258.444-.051.201-.078.718-.078 1.551v.386h1.316v.422h-1.313z"/><path d="M73.698 68.688v1.766h1.193v.414h-1.193v3.482c0 .348.049.583.143.704s.215.182.363.182c.123 0 .242-.04.357-.121s.203-.199.268-.356h.215c-.131.384-.314.672-.555.866-.236.194-.482.291-.736.291-.172 0-.338-.05-.502-.149s-.285-.242-.363-.428-.117-.472-.117-.859v-3.611h-.811v-.195c.205-.086.416-.232.631-.438s.406-.45.574-.731c.088-.148.209-.42.363-.815h.17zM75.089 70.454h2.139v.211c-.195.016-.324.053-.387.112a.342.342 0 0 0-.092.255c0 .123.031.271.096.444l1.098 3.09 1.098-2.523-.291-.786c-.09-.237-.207-.401-.352-.492-.082-.055-.234-.089-.457-.101v-.211h2.428v.211c-.264.012-.451.064-.561.157-.072.064-.109.167-.109.309 0 .076.014.153.043.233l1.154 3.075 1.07-2.963c.074-.213.111-.382.111-.508 0-.075-.037-.142-.109-.201s-.215-.093-.426-.101v-.211h1.605v.211c-.322.051-.561.283-.713.696l-1.695 4.632h-.23l-1.277-3.434-1.494 3.434h-.199l-1.643-4.518c-.107-.288-.213-.482-.316-.583-.105-.101-.268-.176-.49-.228v-.21zM86.505 75.054c-.521.426-.852.672-.984.738a1.435 1.435 0 0 1-.641.146 1.12 1.12 0 0 1-.871-.381c-.227-.254-.34-.588-.34-1.003 0-.262.055-.489.166-.68.152-.266.416-.517.793-.751s1.002-.52 1.877-.856v-.211c0-.534-.078-.901-.24-1.1-.16-.199-.395-.298-.699-.298-.234 0-.418.066-.555.199a.614.614 0 0 0-.209.456l.01.339c0 .179-.045.317-.131.415a.45.45 0 0 1-.348.146.433.433 0 0 1-.34-.152.613.613 0 0 1-.133-.416c0-.335.164-.644.49-.925.328-.281.787-.421 1.377-.421.453 0 .824.08 1.115.24.219.121.379.311.484.568.066.168.1.512.1 1.031v1.822c0 .512.01.825.027.94.02.115.051.192.092.231a.214.214 0 0 0 .148.059.293.293 0 0 0 .156-.041c.078-.051.23-.193.453-.428v.328c-.418.589-.816.883-1.195.883a.536.536 0 0 1-.436-.199c-.106-.133-.162-.36-.166-.679zm0-.382v-2.046c-.559.234-.92.401-1.084.499-.293.172-.502.352-.627.54a1.075 1.075 0 0 0-.189.615c0 .282.08.516.238.701.16.186.344.278.551.278.281 0 .652-.196 1.111-.587zM90.181 70.298v1.207c.428-.805.865-1.207 1.314-1.207.203 0 .373.065.506.196s.201.282.201.454a.557.557 0 0 1-.145.387.459.459 0 0 1-.346.158c-.131 0-.277-.067-.438-.203-.162-.135-.281-.203-.359-.203-.066 0-.139.039-.217.118-.168.161-.34.425-.518.793v2.573c0 .298.035.523.105.677a.607.607 0 0 0 .258.265c.121.07.299.105.529.105v.211H88.45v-.211c.26 0 .453-.043.58-.129a.506.506 0 0 0 .193-.3c.02-.066.029-.257.029-.57V72.54c0-.627-.012-1-.037-1.119a.43.43 0 0 0-.135-.262.36.36 0 0 0-.242-.082c-.115 0-.246.029-.393.088l-.055-.211 1.553-.656h.238zM93.341 72.485c-.002.797.182 1.422.551 1.875.373.453.809.68 1.309.68.334 0 .625-.096.871-.288s.453-.523.621-.994l.17.117a2.837 2.837 0 0 1-.68 1.461 1.776 1.776 0 0 1-1.408.656c-.613 0-1.137-.251-1.572-.753-.438-.502-.654-1.177-.654-2.024 0-.918.223-1.634.67-2.147s1.01-.771 1.686-.771c.572 0 1.041.198 1.408.595s.551.928.551 1.592h-3.523zm0-.343h2.363c-.02-.344-.059-.586-.117-.727a1.141 1.141 0 0 0-.414-.516 1.02 1.02 0 0 0-.578-.188c-.309 0-.584.126-.826.378-.245.253-.387.603-.428 1.053zM102.403 70.876v3.531c0 .502.051.819.156.952a.67.67 0 0 0 .553.259h.465v.211h-3.061v-.211h.229a.735.735 0 0 0 .406-.118.605.605 0 0 0 .254-.317c.045-.133.068-.392.068-.776v-3.531h-.994v-.422h.994v-.351c0-.534.082-.986.246-1.356s.414-.669.752-.897a1.978 1.978 0 0 1 1.137-.342c.391 0 .75.133 1.078.398.217.176.324.373.324.592a.479.479 0 0 1-.146.331c-.096.104-.199.155-.311.155a.483.483 0 0 1-.271-.097c-.094-.064-.211-.203-.348-.416s-.264-.356-.379-.431-.242-.111-.385-.111a.677.677 0 0 0-.434.143c-.119.096-.205.244-.256.444-.053.201-.078.718-.078 1.551v.386h1.314v.422h-1.313zM106.702 70.298c.771 0 1.393.309 1.861.927.396.528.596 1.134.596 1.818 0 .481-.109.968-.328 1.46-.221.493-.521.864-.906 1.114-.385.25-.813.375-1.285.375-.768 0-1.379-.322-1.832-.968a3.1 3.1 0 0 1-.574-1.83 3.4 3.4 0 0 1 .348-1.469c.232-.487.539-.847.918-1.079a2.259 2.259 0 0 1 1.202-.348zm-.174.383c-.195 0-.393.062-.59.185-.199.124-.359.34-.48.648-.123.309-.184.706-.184 1.191 0 .782.146 1.457.441 2.024s.682.851 1.164.851c.359 0 .656-.156.889-.469s.35-.851.35-1.613c0-.954-.193-1.705-.582-2.252-.264-.378-.599-.565-1.008-.565zM111.401 70.298v1.207c.428-.805.865-1.207 1.314-1.207.203 0 .373.065.506.196a.613.613 0 0 1 .201.454.557.557 0 0 1-.145.387.459.459 0 0 1-.346.158c-.131 0-.277-.067-.438-.203-.162-.135-.281-.203-.359-.203-.066 0-.139.039-.217.118-.166.161-.338.425-.518.793v2.573c0 .298.037.523.107.677a.59.59 0 0 0 .256.265c.123.07.299.105.529.105v.211h-2.623v-.211c.26 0 .453-.043.58-.129a.508.508 0 0 0 .195-.3c.018-.066.027-.257.027-.57V72.54c0-.627-.012-1-.035-1.119a.451.451 0 0 0-.135-.262.37.37 0 0 0-.244-.082c-.115 0-.246.029-.393.088l-.055-.211 1.555-.656h.238zM118.581 68.321v3.125h1.658c.432 0 .719-.068.865-.206.193-.18.301-.497.322-.951h.209v2.781h-.209c-.051-.388-.104-.637-.156-.747a.713.713 0 0 0-.33-.323c-.15-.079-.387-.118-.701-.118h-1.658V74.5c0 .352.016.565.045.641s.082.137.156.182.215.067.424.067h1.281c.428 0 .736-.031.93-.094.193-.062.379-.185.559-.368.23-.241.465-.605.707-1.093h.223l-.652 1.992h-5.826v-.217h.27c.18 0 .348-.045.508-.135.119-.063.201-.157.244-.282s.064-.382.064-.77v-5.156c0-.503-.049-.813-.145-.93-.135-.156-.359-.234-.672-.234h-.27v-.219h5.824l.082 1.75h-.215c-.078-.42-.164-.708-.26-.865a.898.898 0 0 0-.42-.359c-.148-.059-.41-.088-.785-.088h-2.072zM125.292 67.493v7.125c0 .335.023.558.07.667a.5.5 0 0 0 .213.248c.098.057.277.085.541.085v.211h-2.512v-.211c.236 0 .396-.025.484-.076a.513.513 0 0 0 .201-.251c.049-.117.072-.341.072-.672v-4.883c0-.602-.012-.972-.039-1.11-.025-.138-.066-.232-.125-.283a.317.317 0 0 0-.219-.076.986.986 0 0 0-.369.094l-.094-.211 1.523-.656h.254zM130.296 75.218c-.248.277-.492.476-.729.596-.238.12-.494.18-.768.18-.559 0-1.045-.245-1.459-.735-.416-.49-.625-1.12-.625-1.89s.23-1.474.691-2.112c.459-.639 1.053-.958 1.775-.958.449 0 .82.153 1.113.459v-.998c0-.612-.014-.989-.041-1.129-.027-.14-.072-.236-.131-.287a.337.337 0 0 0-.225-.076c-.096 0-.225.031-.385.094l-.072-.211 1.523-.656h.252v6.211c0 .628.014 1.011.041 1.15.029.138.072.235.135.29s.133.082.215.082c.1 0 .234-.033.402-.1l.061.211-1.518.656h-.258v-.777zm0-.409v-2.753a1.921 1.921 0 0 0-.199-.729 1.19 1.19 0 0 0-.443-.494 1.04 1.04 0 0 0-.537-.167c-.328 0-.619.154-.875.462-.338.406-.508.999-.508 1.778 0 .788.164 1.392.49 1.811.328.419.691.629 1.092.629.337-.001.665-.18.98-.537zM133.261 72.485c-.004.797.18 1.422.551 1.875s.807.68 1.309.68c.332 0 .623-.096.871-.288.246-.192.453-.523.619-.994l.172.117a2.837 2.837 0 0 1-.68 1.461 1.776 1.776 0 0 1-1.408.656c-.613 0-1.139-.251-1.574-.753s-.654-1.177-.654-2.024c0-.918.225-1.634.672-2.147a2.135 2.135 0 0 1 1.684-.771c.572 0 1.041.198 1.408.595.369.397.553.928.553 1.592h-3.523zm0-.343h2.361c-.018-.344-.057-.586-.117-.727-.092-.219-.23-.391-.414-.516s-.377-.188-.576-.188c-.309 0-.584.126-.828.378-.243.253-.385.603-.426 1.053zM138.964 70.298v1.207c.428-.805.865-1.207 1.314-1.207.203 0 .371.065.506.196a.618.618 0 0 1 .199.454.548.548 0 0 1-.145.387.453.453 0 0 1-.346.158c-.131 0-.275-.067-.436-.203-.162-.135-.283-.203-.359-.203-.066 0-.139.039-.217.118-.168.161-.34.425-.518.793v2.573c0 .298.035.523.105.677a.613.613 0 0 0 .256.265c.123.07.299.105.529.105v.211h-2.621v-.211c.26 0 .453-.043.578-.129a.499.499 0 0 0 .195-.3c.02-.066.029-.257.029-.57V72.54c0-.627-.014-1-.037-1.119-.023-.12-.07-.207-.135-.262s-.146-.082-.242-.082c-.115 0-.246.029-.393.088l-.057-.211 1.555-.656h.24zM143.03 67.493v7.125c0 .335.023.558.07.667a.504.504 0 0 0 .215.248c.096.057.275.085.541.085v.211h-2.512v-.211c.236 0 .396-.025.482-.076s.154-.134.201-.251c.051-.117.074-.341.074-.672v-4.883c0-.602-.014-.972-.039-1.11s-.068-.232-.125-.283a.323.323 0 0 0-.221-.076.986.986 0 0 0-.367.094l-.096-.211 1.523-.656h.254zM144.144 70.454h2.381v.211h-.117c-.168 0-.293.039-.377.115a.378.378 0 0 0-.125.286c0 .153.063.366.184.638l1.248 2.72 1.137-2.979c.064-.162.096-.321.096-.479a.28.28 0 0 0-.039-.16.297.297 0 0 0-.141-.104.98.98 0 0 0-.334-.039v-.211h1.656v.211a.769.769 0 0 0-.318.094.967.967 0 0 0-.244.266 3.618 3.618 0 0 0-.189.454l-2.074 5.365c-.199.52-.463.914-.789 1.18s-.639.399-.939.399a.762.762 0 0 1-.543-.199.613.613 0 0 1-.211-.458c0-.165.051-.296.152-.396a.582.582 0 0 1 .422-.149c.125 0 .291.043.504.13.148.06.242.089.279.089.111 0 .232-.061.363-.182.133-.122.266-.357.4-.706l.359-.94-1.832-4.049a3.2 3.2 0 0 0-.268-.454 1.225 1.225 0 0 0-.229-.277c-.084-.063-.223-.118-.412-.165v-.211z"/><linearGradient id="h" gradientUnits="userSpaceOnUse" x1="94.897" y1="57.489" x2="150.203" y2="112.794"><stop offset="0" stop-color="#ead18f"/><stop offset=".076" stop-color="#e1c477"/><stop offset=".221" stop-color="#d1af4e"/><stop offset=".335" stop-color="#c8a235"/><stop offset=".405" stop-color="#c49d2c"/><stop offset=".559" stop-color="#d4b35c"/><stop offset=".766" stop-color="#e7cd97"/><stop offset=".919" stop-color="#f3debb"/><stop offset="1" stop-color="#f8e4c9"/></linearGradient><linearGradient id="i" gradientUnits="userSpaceOnUse" x1="29.896" y1="14.988" x2="85.203" y2="70.294"><stop offset="0" stop-color="#ead18f"/><stop offset=".076" stop-color="#e1c477"/><stop offset=".221" stop-color="#d1af4e"/><stop offset=".335" stop-color="#c8a235"/><stop offset=".405" stop-color="#c49d2c"/><stop offset=".559" stop-color="#d4b35c"/><stop offset=".766" stop-color="#e7cd97"/><stop offset=".919" stop-color="#f3debb"/><stop offset="1" stop-color="#f8e4c9"/></linearGradient><linearGradient id="j" gradientUnits="userSpaceOnUse" x1="83.48" y1="16.21" x2="138.848" y2="71.579"><stop offset="0" stop-color="#ead18f"/><stop offset=".076" stop-color="#e1c477"/><stop offset=".221" stop-color="#d1af4e"/><stop offset=".335" stop-color="#c8a235"/><stop offset=".405" stop-color="#c49d2c"/><stop offset=".559" stop-color="#d4b35c"/><stop offset=".766" stop-color="#e7cd97"/><stop offset=".919" stop-color="#f3debb"/><stop offset="1" stop-color="#f8e4c9"/></linearGradient></svg>