<?xml version="1.0" encoding="utf-8"?><svg xmlns="http://www.w3.org/2000/svg" width="98" height="81" viewBox="45.345 25.518 98 81"><linearGradient id="a" gradientUnits="userSpaceOnUse" x1="42.902" y1="33.416" x2="98.412" y2="88.925"><stop offset="0" stop-color="#ead18f"/><stop offset=".076" stop-color="#e1c477"/><stop offset=".221" stop-color="#d1af4e"/><stop offset=".335" stop-color="#c8a235"/><stop offset=".405" stop-color="#c49d2c"/><stop offset=".559" stop-color="#d4b35c"/><stop offset=".766" stop-color="#e7cd97"/><stop offset=".919" stop-color="#f3debb"/><stop offset="1" stop-color="#f8e4c9"/></linearGradient><linearGradient id="b" gradientUnits="userSpaceOnUse" x1="42.651" y1="65.664" x2="97.904" y2="120.916"><stop offset="0" stop-color="#ead18f"/><stop offset=".076" stop-color="#e1c477"/><stop offset=".221" stop-color="#d1af4e"/><stop offset=".335" stop-color="#c8a235"/><stop offset=".405" stop-color="#c49d2c"/><stop offset=".559" stop-color="#d4b35c"/><stop offset=".766" stop-color="#e7cd97"/><stop offset=".919" stop-color="#f3debb"/><stop offset="1" stop-color="#f8e4c9"/></linearGradient><linearGradient id="c" gradientUnits="userSpaceOnUse" x1="43.106" y1="45.535" x2="98.65" y2="101.079"><stop offset="0" stop-color="#ead18f"/><stop offset=".076" stop-color="#e1c477"/><stop offset=".221" stop-color="#d1af4e"/><stop offset=".335" stop-color="#c8a235"/><stop offset=".405" stop-color="#c49d2c"/><stop offset=".559" stop-color="#d4b35c"/><stop offset=".766" stop-color="#e7cd97"/><stop offset=".919" stop-color="#f3debb"/><stop offset="1" stop-color="#f8e4c9"/></linearGradient><linearGradient id="d" gradientUnits="userSpaceOnUse" x1="83.804" y1="49.637" x2="139.109" y2="104.943"><stop offset="0" stop-color="#ead18f"/><stop offset=".076" stop-color="#e1c477"/><stop offset=".221" stop-color="#d1af4e"/><stop offset=".335" stop-color="#c8a235"/><stop offset=".405" stop-color="#c49d2c"/><stop offset=".559" stop-color="#d4b35c"/><stop offset=".766" stop-color="#e7cd97"/><stop offset=".919" stop-color="#f3debb"/><stop offset="1" stop-color="#f8e4c9"/></linearGradient><linearGradient id="e" gradientUnits="userSpaceOnUse" x1="73.083" y1="62.679" x2="128.389" y2="117.985"><stop offset="0" stop-color="#ead18f"/><stop offset=".076" stop-color="#e1c477"/><stop offset=".221" stop-color="#d1af4e"/><stop offset=".335" stop-color="#c8a235"/><stop offset=".405" stop-color="#c49d2c"/><stop offset=".559" stop-color="#d4b35c"/><stop offset=".766" stop-color="#e7cd97"/><stop offset=".919" stop-color="#f3debb"/><stop offset="1" stop-color="#f8e4c9"/></linearGradient><linearGradient id="f" gradientUnits="userSpaceOnUse" x1="87.082" y1="43.013" x2="142.388" y2="98.318"><stop offset="0" stop-color="#ead18f"/><stop offset=".076" stop-color="#e1c477"/><stop offset=".221" stop-color="#d1af4e"/><stop offset=".335" stop-color="#c8a235"/><stop offset=".405" stop-color="#c49d2c"/><stop offset=".559" stop-color="#d4b35c"/><stop offset=".766" stop-color="#e7cd97"/><stop offset=".919" stop-color="#f3debb"/><stop offset="1" stop-color="#f8e4c9"/></linearGradient><linearGradient id="g" gradientUnits="userSpaceOnUse" x1="21.153" y1="44.765" x2="76.46" y2="100.072"><stop offset="0" stop-color="#ead18f"/><stop offset=".076" stop-color="#e1c477"/><stop offset=".221" stop-color="#d1af4e"/><stop offset=".335" stop-color="#c8a235"/><stop offset=".405" stop-color="#c49d2c"/><stop offset=".559" stop-color="#d4b35c"/><stop offset=".766" stop-color="#e7cd97"/><stop offset=".919" stop-color="#f3debb"/><stop offset="1" stop-color="#f8e4c9"/></linearGradient><linearGradient id="h" gradientUnits="userSpaceOnUse" x1="91.372" y1="32.859" x2="146.477" y2="87.964"><stop offset="0" stop-color="#ead18f"/><stop offset=".076" stop-color="#e1c477"/><stop offset=".221" stop-color="#d1af4e"/><stop offset=".335" stop-color="#c8a235"/><stop offset=".405" stop-color="#c49d2c"/><stop offset=".559" stop-color="#d4b35c"/><stop offset=".766" stop-color="#e7cd97"/><stop offset=".919" stop-color="#f3debb"/><stop offset="1" stop-color="#f8e4c9"/></linearGradient><path fill="#B2B2B2" d="M69.165 40.678c-.207 0-.809-.315-1.806-.946-.601-.39-1.357-.991-2.269-1.802-1.203-1.081-1.951-1.727-2.244-1.937a551.874 551.874 0 0 1-3.66-3.018c-.345.3-1.849 1.681-4.514 4.144-1.821 1.682-3.352 2.973-4.59 3.874-.31 0-.756-.045-1.341-.135-.326-.09-.688-.436-1.082-1.036-.552-.901-.869-1.396-.955-1.487l.182-1.216c1.563 0 3.411-.736 5.543-2.207 2.218-1.501 3.825-3.198 4.822-5.09.894-1.651 1.461-2.477 1.701-2.477.361 0 .735.255 1.122.766.387.511.581 1.081.581 1.711 0 .21-.019.42-.053.631 1.152.871 2.897 2.027 5.235 3.468.722.39 1.658.661 2.811.811 1.771.27 2.708.42 2.811.45l.412.631v1.396c-.927 2.313-1.829 3.469-2.706 3.469zm-12.317 1.216c0 1.321-.052 2.627-.154 3.918-.224 2.763-.868 5.375-1.934 7.837-1.238 2.853-2.588 4.279-4.049 4.279-.637 0-1.117-.436-1.444-1.306-.034-.931.258-1.832.877-2.703 1.083-1.381 2.157-2.748 3.223-4.099 1.118-1.742 1.677-3.784 1.677-6.125 0-.811-.164-1.982-.49-3.514-.068-.33-.103-.525-.103-.585 0-.781.214-1.171.645-1.171.188 0 .468.083.838.248.37.166.658.233.863.203.275.721.413 1.321.413 1.802-.001.42-.121.825-.362 1.216zm7.169-.225c-.086.18-.198.45-.336.811-.068.24-.103.826-.103 1.756v1.126c.017.45.025.72.025.811v3.513c0 4.354-.362 7.762-1.087 10.224-.775-1.861-1.165-4.714-1.165-8.558 0-.27.018-.541.052-.811a31.188 31.188 0 0 1-.068-2.027c0-1.021.06-2.778.181-5.27a12.796 12.796 0 0 0-.104-1.937c-.104-.811-.258-1.336-.464-1.577a3.687 3.687 0 0 1-.077-.676c0-1.081.343-1.696 1.031-1.847.085.18.576.631 1.469 1.352.619.51.929 1.216.929 2.117 0 .212-.095.542-.283.993z"/><path fill="#B2B2B2" d="M78.936 34.597l-2.995-.225c-1.91 0-3.546.465-4.903 1.396l-.284-.586.025-1.711c.121-.51.313-.795.581-.855l.786-.18c.103-.03.55-.24 1.341-.631.31-.03.766-.12 1.366-.27a5.67 5.67 0 0 0 .052-.811c0-.24-.172-.871-.516-1.892l.284-1.441c.206 0 .472-.06.802-.18.397-.15.663-.225.803-.225.086.36.207.616.361.766.157.15.312.308.467.473.154.165.283.413.387.743-.361.75-.542 1.426-.542 2.027 0 .09.009.195.025.315l1.806.18c.773.09 1.418.691 1.934 1.802-.861.9-1.453 1.335-1.78 1.305zm.506 15.399c0 1.958.078 3.765.233 5.42l-.413 1.627c-.138-.18-.232-.272-.284-.272.052 0-.224.257-.822.768-.361-.27-.723-.405-1.083-.405-1.339 0-2.311.075-2.91.225-1.083.3-1.983.916-2.705 1.847a5.13 5.13 0 0 1-.567-2.344c0-.601.06-1.098.181-1.49.103-.271.231-.752.387-1.445.086-.602.129-1.355.129-2.259 0-.271-.064-.618-.193-1.04-.129-.42-.193-.736-.193-.948 0-.18.043-.362.128-.542 1.202-1.235 2.74-1.853 4.612-1.853.755 0 1.502.182 2.241.542l1.003-.225.773 1.038-.517 1.356zm-1.881-4.724c-.121 0-1.014-.15-2.682-.45-.345-.06-.825.015-1.444.225-.67.24-1.117.541-1.341.901-.412-.331-.619-1.081-.619-2.252.602-.901 1.65-1.441 3.146-1.622.688-.09 1.016-.135.98-.135l1.831.225c-.018 0 .301-.045.954-.135l1.006 1.171c-.155 1.382-.765 2.072-1.831 2.072zm.447-5.27c-.207.03-.482.015-.825-.045-.396-.03-.662-.045-.8-.045-.498 0-1.216.127-2.153.383-.937.255-1.62.383-2.05.383l-.31-.045a3.272 3.272 0 0 1-.283-1.351c0-.24.017-.511.051-.811 1.118-.931 2.425-1.396 3.921-1.396h2.113c1.118 0 1.797.69 2.037 2.072-.48.54-1.049.825-1.701.855zm-.215 11.069c-.394-.362-.9-.557-1.518-.587a26.661 26.661 0 0 0-1.54-.135c-.035 0-.112-.03-.232-.092a.703.703 0 0 0-.282-.09c-.171 0-.387.075-.642.227-.396.24-.6.375-.617.405-.138.272-.206.785-.206 1.539 0 .362.017.935.052 1.717 1.354-.391 3.015-.586 4.985-.586v-2.398zm15.119-4.598c-.739-.541-1.977-.811-3.714-.811-2.974 0-4.951.195-5.93.585l-.232-.18c-.361.09-.963.3-1.806.63.053-1.56.104-3.132.155-4.722.068-1.888.197-3.46.387-4.72-.224.12-.431.181-.619.181-.447 0-.842-.105-1.187-.315l-.31-.404c.069-.688.163-1.124.284-1.304s.37-.313.748-.403c.154-.03.344-.075.566-.135 1.204-.42 3.353-1.439 6.447-3.057.327-.15.653-.283.979-.403.413-.21.696-.465.852-.766-.052-.12-.146-.18-.284-.18-.189 0-1.314.18-3.377.541l.051 1.079c-.172-.12-.267-.18-.283-.18-.224.24-.49.495-.8.764-.378-1.049-.688-1.573-.929-1.573-.309 0-.695.075-1.16.225l-1.135.405-.309-.495a2.243 2.243 0 0 1 .231-1.582l1.96-.589v-.95c.104-.45.335-.677.696-.677.155 0 .364.203.632.608.266.405.468.623.605.653.258-.03.636 0 1.135.09.773-.03 1.926-.135 3.455-.315l-.025-.721c.379-.51.714-.766 1.006-.766.069 0 .163.03.283.09.068.24.193.473.374.698.181.226.323.518.426.878.516.03 1.074.15 1.676.36.825.271 1.238.616 1.238 1.036l-.026.36c-.446.33-.765.495-.954.495-.069 0-.954-.12-2.656-.36a1.01 1.01 0 0 1-.567.631c-.103.03-.24.105-.412.225l.8.585-.388 1.577c-1.065 0-1.848.135-2.347.405.155.27.396.601.723.991.224.21.894.315 2.012.315.206 0 .52-.038.94-.113.422-.075.735-.112.941-.112.722 0 1.315.437 1.779 1.313-.842.727-1.754 1.074-2.733 1.043l-2.295-.135c-.051.03-.224.045-.516.045-.223 0-.36.088-.413.265v.31c.155.118.68.176 1.574.176 1.529 0 2.389.045 2.577.135.293.148.603.508.93 1.077L92.731 40.4c-2.441-.24-3.688-.358-3.739-.358-.137 0-.224.105-.258.313l.103.313c1.239-.208 2.029-.253 2.373-.135.43.09.852.18 1.264.271.378.18.73.614 1.058 1.302-.55.569-.997.824-1.342.764-1.237-.24-1.848-.351-1.831-.33-.068 0-.636.058-1.701.178a.431.431 0 0 0-.052.222c0 .088.008.206.026.353.188.12.729.178 1.624.178l5.157-.135.026 1.164c-.619 1.074-1.461 1.733-2.527 1.973zm-.163 13.512c-.516-.27-1.058-.75-1.625-1.441a99.155 99.155 0 0 1-1.444-1.847c-.567-.661-1.642-1.471-3.224-2.432-.858.661-1.71 1.336-2.552 2.027-1.238.931-2.063 1.396-2.477 1.396-.24 0-.55-.248-.928-.743-.379-.496-.602-.969-.67-1.419l.31-.946c.12-.12.387-.21.799-.271.292-.06.585-.105.877-.135.945-.24 1.744-.856 2.398-1.847-.241-.571-.77-.894-1.587-.969-.816-.075-1.362-.563-1.637-1.464.12-1.501.412-2.252.876-2.252.104 0 .249.03.439.09.188.06.326.09.412.09.258 0 .623-.022 1.096-.067s.82-.068 1.044-.068c.086 0 .207.015.361.045.155.03.268.045.335.045.189 0 .47-.038.838-.113.37-.075.633-.112.787-.112a61.09 61.09 0 0 0 2.243-.225c.825-.15 1.556-.391 2.192-.721l.232.135.412-.135c.24-.12.688.51 1.341 1.892a97.213 97.213 0 0 0-2.579 1.892c-.464.451-1.168 1.081-2.114 1.892 1.41 1.201 2.725 1.892 3.945 2.072.464 0 1.152.105 2.063.315a.85.85 0 0 1 .412.405c.018.181.026.331.026.451 0 .871-.327 1.787-.98 2.748-.496.751-1.037 1.322-1.621 1.712zM86.903 42.75a.343.343 0 0 0-.077-.09c-.154 0-1.375.15-3.662.45l-.18.811.103.045 3.816-.36a.74.74 0 0 0 .052-.27c0-.181-.017-.376-.052-.586zm-.292-2.673h-1.702c-.688.03-1.237.15-1.65.36a.978.978 0 0 0-.128.496c0 .09.008.18.025.27h.129c.24 0 .559-.06.954-.18.516-.18.825-.285.928-.315.241 0 .602-.03 1.084-.09.172-.03.396-.105.67-.225-.069-.211-.172-.316-.31-.316zm.387-2.507l-.051-.18-.052-.045c-.086.03-1.221.24-3.404.631-.068.12-.095.3-.078.541v.135l.104.135c.464-.24 1.048-.42 1.753-.541.584-.09 1.169-.165 1.754-.225l.025-.271-.051-.18zm0-2.612c0-.12-.018-.24-.051-.36h-.026c-.465.09-1.16.405-2.089.946.843-.09 1.564-.24 2.166-.45v-.136zm-.102 14.758h-.413c-.498 0-.885.09-1.161.27.207.3.654.616 1.342.946.326-.24.809-.616 1.444-1.126a40.69 40.69 0 0 0-1.212-.09z"/><path fill="#B2B2B2" d="M100.524 31.64c-.429.63-.644 1.141-.644 1.531 0 .18.025.391.077.631-.035.24-.052.465-.052.675 0 .571.181 1.441.541 2.612.361 1.171.542 2.102.542 2.793 0 .66-.258 1.411-.773 2.252-.396.601-.799 1.201-1.213 1.802-.188.33-.438.886-.746 1.667-.706 1.801-1.204 3.963-1.496 6.486a238.374 238.374 0 0 1-.387 3.265 16.63 16.63 0 0 1-.696 3.13 3.895 3.895 0 0 1-.464-1.892c0-4.264.223-7.537.67-9.819.36-1.711 1.264-4.534 2.707-8.468l-.412-1.802c-.224-.841-.447-1.261-.67-1.261-.259 0-.623.398-1.097 1.194-.473.796-.872 1.193-1.198 1.193-.276-.3-.456-.735-.542-1.306-.017-.3-.104-.766-.259-1.396.019-.09.078-.556.182-1.396.051-.541.163-.976.335-1.306.12-.24.31-.661.567-1.261l.36.045c.413-.24 1.023-.631 1.831-1.171l1.856-1.486c.361-.27.688-.405.979-.405.104 0 .224.015.361.045.241.271.361.826.361 1.667.003.57-.237 1.23-.72 1.981zm5.004 21.304c-.499.24-1.191.856-2.076 1.847-.886.991-1.603 1.592-2.154 1.802-1.03-.42-1.657-1.291-1.881-2.612.103-.391.498-.736 1.186-1.036.963-.42 1.582-.735 1.857-.946.688-.541 1.116-1.291 1.288-2.252.206-.06.37-.09.49-.09.379 0 .7.263.968.789.266.525.399 1.104.399 1.734 0 .238-.026.494-.077.764zm11.594-5.225l-1.083.405c-1.667-1.531-3.033-2.252-4.099-2.162l-1.703.09-.154.856c.068 1.141.104 1.741.104 1.801 0 .271-.022.668-.064 1.194-.043.525-.064.923-.064 1.193 0 1.051.068 1.892.206 2.522-.086.15-.129.676-.129 1.576 0 .36-.077.781-.232 1.261-.191.571-.294.991-.312 1.261-.034.451-.072.758-.116.923-.042.165-.152.413-.324.743l-.698-.901-.518-2.522c0-.541.008-1.366.026-2.478l.18-6.621-.129-.721-.335.135c-.189-.09-.68-.135-1.47-.135.051 0-.387.166-1.315.496l-2.012.541-.799.09c-.31.06-.56.21-.748.45l-.567.721c-.188.24-.378.345-.567.315l-.257-.045a84.992 84.992 0 0 1-.155-1.847c0-.3.086-.615.258-.948l-.025-.859.928-1.312.645.407a16.573 16.573 0 0 1 6.682-1.402c.033-.12.051-.3.051-.54a5.79 5.79 0 0 0-.051-.676l-.261-.541.154-1.126a.334.334 0 0 0-.31-.18c-.188 0-.309-.015-.361-.045-.222.09-.652.135-1.288.135-.551 0-.976.113-1.276.338s-.753.518-1.354.878l-.671-1.802.155-5.585c-.274-.571-.412-1.517-.412-2.837 0-.36.12-.751.361-1.171l1.212-.721.515.271c.242.09.542.21.903.36.138.03.825-.09 2.063-.36l2.121-.451c.433-.06.621-.09.569-.09.396 0 1.272.195 2.631.585.051-.03.378-.195.979-.496.36-.15.67-.435.929-.855.36.21.885.63 1.572 1.261-.034.18-.188.69-.465 1.531-.223.661-.334 1.171-.334 1.531 0-.27.103 1.156.309 4.279l-.618 2.658c-.189.03-.422.18-.696.45-.361.331-.576.525-.646.585l-1.289-.27a.572.572 0 0 0-.193.067.575.575 0 0 1-.193.068c-.051 0-.593-.12-1.624-.36l-.258.135.051.948-.283 1.535c.12.06.661.09 1.625.09 1.049 0 2.286.21 3.712.632 1.221.422 2.451.828 3.688 1.218-1.001 2.171-1.724 3.344-2.171 3.524zm-3.446-14.865c-.688-.511-1.831-.764-3.43-.764-2.354 0-4.091.389-5.209 1.166l-.051 3.324c.945-.45 2.183-.676 3.713-.676.516 0 1.294.045 2.334.135 1.039.09 1.817.135 2.333.135.086 0 .224-.045.413-.135l-.103-3.185zm4.616 22.426c-.31.333-.748.92-1.314 1.762h-.182c-.378.03-.972-.332-1.779-1.084-.67-.632-1.194-1.218-1.573-1.762-.24-.391-.61-.978-1.108-1.76-.206-.3-.516-.768-.928-1.398l.232-1.351.669-.676.903.045c1.564 1.861 3.516 2.792 5.854 2.792.069.482.103.828.103 1.038-.001.814-.293 1.612-.877 2.394z"/><path fill="#B2B2B2" d="M125.014 35.408c-.206.39-.438.976-.696 1.756l.103.811-.077.766c.412 2.312.619 4.068.619 5.27 0 .841-.095 1.457-.284 1.847-.103.24-.554.751-1.353 1.532-.801.78-1.312 1.231-1.535 1.351-.155.09-.314.172-.478.248s-.288.263-.374.563c-.051.691-.111 1.727-.18 3.108-.035 1.531-.095 2.612-.181 3.243-.154 1.171-.446 2.102-.877 2.792-.48-1.441-.722-2.718-.722-3.829v-3.963c0-1.051.051-2.643.155-4.774.103-2.132.154-3.724.154-4.774 0-.901.077-3.138.232-6.711.017-.51-.057-1.096-.22-1.756s-.357-1.111-.58-1.351l-.283-1.441c.326-.631.636-1.141.928-1.531l.464.225c1.462-.541 2.278-.811 2.45-.811.911 0 1.701.48 2.372 1.441s1.006 2.237 1.006 3.829c.001.567-.215 1.288-.643 2.159zm-2.803 4.204c-.275.18-.558.375-.851.585-.292.21-.438.556-.438 1.036 0 .24.017.601.052 1.081.034.48.051.841.051 1.081 0 .12-.017.308-.051.563a4.709 4.709 0 0 0-.052.608c0 .09.025.315.077.676 1.015-.601 1.736-1.712 2.166-3.333-.155-1.321-.473-2.087-.954-2.297zm.069-7.987c-.155-.09-.284-.135-.387-.135-.602 0-.903 1.562-.903 4.685 0 .45.034.826.104 1.126 1.015-1.261 1.797-2.943 2.347-5.044-.31-.632-.697-.842-1.161-.632zm5.235 5.75c-.859.45-1.401.675-1.625.675-.086 0-.188-.015-.309-.045-.258-.39-.404-.961-.439-1.711.551-1.111 1.553-2.334 3.005-3.671 1.453-1.336 2.454-2.545 3.004-3.626l-.077-.946c.068-.12.473-.285 1.212-.495a.776.776 0 0 0 .412-.226l1.573 1.306a3.9 3.9 0 0 0 1.108 1.441l1.29.991c.516.48 1.314 1.126 2.397 1.937.602.24 1.505.646 2.708 1.216l.953-.271.207.721c-.326.69-.447 1.276-.361 1.757-.291.6-.67 1.081-1.135 1.441-.738.571-1.151.916-1.237 1.036-.12-.21-.24-.315-.36-.315-.121 0-.259-.083-.413-.248a14.532 14.532 0 0 1-.696-.833c-.154-.09-.387-.24-.696-.45a2.547 2.547 0 0 0-.412-.27l.258 1.126c-.517.42-1.204.63-2.063.63-.756 0-1.28.105-1.573.315l.077.539-.18 1.171 2.011.09c.773.09 1.428.33 1.96.719.207-.06.465-.329.773-.809l.773.225c.035.15.172.358.414.629.24.27.42.676.541 1.214-.327.931-.49 1.484-.49 1.665 0 .36.008.899.026 1.62.017.719.025 1.214.025 1.482 0 .451-.077.916-.232 1.396-.172.568-.387.914-.644 1.034l-.414-.63c-.138.09-.42.15-.851.18-.172.03-.403.12-.696.27-1.151-.12-1.83-.18-2.037-.18-.447 0-.782.015-1.006.045 2.579 2.913 4.564 4.369 5.957 4.369.103 0 .533-.045 1.289-.135.344.21.559.555.645 1.036 0 .12.026.331.077.631l-.438.63.128.36c-.188.12-.455.48-.799 1.081a2.46 2.46 0 0 1-.231.405c-.189.271-.581.525-1.174.766s-1.053.36-1.38.36c-.051-.06-1.006-1.094-2.861-3.106-1.204-1.319-2.046-2.581-2.527-3.78l-.619-.495a96.73 96.73 0 0 1-1.65 2.61c-1.049 1.5-2.836 3.091-5.363 4.771l-.799-.45-.568-2.205.491-1.126.799.045c.945 0 1.908-.524 2.888-1.575.911-.989 1.633-2.235 2.166-3.736l-.18-.045c-.035-.03-.061-.045-.078-.045-1.289 0-2.424.465-3.404 1.396-.138-.3-.283-.841-.438-1.62-.138-.571-.301-.961-.49-1.171.154-.479.262-.989.322-1.53s.177-1.321.349-2.34c-.069-.18-.125-.495-.168-.946-.043-.45-.142-.809-.297-1.079l.773-1.036.696.18c.98-.3 2.45-.735 4.41-1.306-.138-.959-.284-1.484-.438-1.574a.814.814 0 0 0-.31-.045c-.825 0-1.547.18-2.166.539-.052.03-.177.135-.374.315-.198.18-.34.271-.426.271-.103 0-.224-.06-.361-.18l-.232-2.385zm4.28 6.561l-.155-.135c-1.048.18-2.19.45-3.43.811-.291.331-.42 1.141-.387 2.432l.104.135c.498-.27 1.143-.465 1.934-.585 1.135-.15 1.797-.255 1.985-.315l-.051-2.343zm2.012-11.486c-.464-.661-.731-.991-.8-.991-.396 0-1.108.616-2.141 1.847a28.713 28.713 0 0 0-2.217 3.063c1.117-.331 2.433-.496 3.945-.496-.653 0 .661.015 3.944.045-.617-.75-1.528-1.906-2.731-3.468zm4.745 12.462c-1.05-.871-2.304-1.306-3.766-1.306-.567 0-.92.03-1.057.09l-.129 2.207.103.405c1.049-.15 1.634-.226 1.753-.226.053 0 1.066.18 3.043.541l.155-.09-.102-1.621z"/><path d="M68.152 39.678c-.207 0-.809-.315-1.806-.946-.602-.39-1.358-.991-2.27-1.802-1.202-1.081-1.95-1.727-2.243-1.937-.739-.601-1.96-1.606-3.661-3.018-.344.3-1.848 1.681-4.513 4.144-1.822 1.682-3.353 2.973-4.59 3.874-.31 0-.757-.045-1.341-.135-.327-.09-.688-.436-1.083-1.036-.551-.901-.868-1.396-.954-1.487l.181-1.216c1.564 0 3.412-.736 5.544-2.207 2.218-1.501 3.825-3.198 4.822-5.09.894-1.651 1.461-2.477 1.701-2.477.361 0 .735.255 1.122.766.387.511.58 1.081.58 1.711 0 .21-.018.42-.052.631 1.152.871 2.897 2.027 5.234 3.468.723.39 1.659.661 2.812.811 1.771.27 2.707.42 2.811.45l.412.631v1.396c-.926 2.313-1.83 3.469-2.706 3.469zm-12.317 1.216c0 1.321-.052 2.627-.154 3.918-.224 2.763-.869 5.375-1.935 7.837-1.237 2.853-2.587 4.279-4.049 4.279-.636 0-1.116-.436-1.444-1.306-.033-.931.259-1.832.878-2.703 1.083-1.381 2.157-2.748 3.223-4.099 1.118-1.742 1.677-3.784 1.677-6.125 0-.811-.164-1.982-.49-3.514-.068-.33-.104-.525-.104-.585 0-.781.215-1.171.646-1.171.188 0 .468.083.838.248.37.166.657.233.863.203.275.721.412 1.321.412 1.802-.001.42-.12.825-.361 1.216zm7.168-.225c-.086.18-.197.45-.335.811-.068.24-.103.826-.103 1.756v1.126c.017.45.025.72.025.811v3.513c0 4.354-.363 7.762-1.087 10.224-.775-1.861-1.165-4.714-1.165-8.558 0-.27.018-.541.052-.811a31.2 31.2 0 0 1-.069-2.027c0-1.021.061-2.778.182-5.27a12.796 12.796 0 0 0-.104-1.937c-.103-.811-.257-1.336-.464-1.577a3.777 3.777 0 0 1-.077-.676c0-1.081.344-1.696 1.032-1.847.085.18.575.631 1.469 1.352.619.51.929 1.216.929 2.117-.001.212-.096.542-.285.993z"/><path d="M77.923 33.597l-2.996-.225c-1.91 0-3.545.465-4.903 1.396l-.283-.586.025-1.711c.12-.51.313-.795.581-.855l.786-.18c.103-.03.55-.24 1.34-.631.31-.03.766-.12 1.367-.27a5.67 5.67 0 0 0 .052-.811c0-.24-.172-.871-.516-1.892l.284-1.441c.206 0 .472-.06.801-.18.398-.15.664-.225.804-.225.086.36.207.616.361.766.157.15.312.308.467.473.154.165.282.413.387.743-.361.75-.542 1.426-.542 2.027 0 .09.009.195.025.315l1.806.18c.773.09 1.418.691 1.934 1.802-.86.9-1.453 1.335-1.78 1.305zm.507 15.399c0 1.958.077 3.765.232 5.42l-.412 1.627c-.138-.18-.232-.272-.284-.272.052 0-.224.257-.823.768-.36-.27-.722-.405-1.083-.405-1.338 0-2.31.075-2.909.225-1.083.3-1.983.916-2.705 1.847a5.132 5.132 0 0 1-.568-2.344c0-.601.061-1.098.182-1.49.103-.271.231-.752.387-1.445.086-.602.128-1.355.128-2.259 0-.271-.063-.618-.192-1.04-.13-.42-.194-.736-.194-.948 0-.18.044-.362.129-.542 1.202-1.235 2.74-1.853 4.611-1.853.755 0 1.503.182 2.242.542l1.003-.225.773 1.038c-.104.271-.277.721-.517 1.356zm-1.882-4.724c-.121 0-1.015-.15-2.682-.45-.345-.06-.825.015-1.444.225-.67.24-1.117.541-1.341.901-.412-.331-.619-1.081-.619-2.252.602-.901 1.65-1.441 3.146-1.622.688-.09 1.015-.135.98-.135l1.831.225c-.018 0 .301-.045.953-.135l1.007 1.171c-.154 1.382-.765 2.072-1.831 2.072zm.446-5.27c-.206.03-.481.015-.824-.045-.396-.03-.662-.045-.8-.045-.498 0-1.217.127-2.153.383s-1.62.383-2.05.383l-.31-.045a3.272 3.272 0 0 1-.284-1.351c0-.24.018-.511.052-.811 1.118-.931 2.425-1.396 3.92-1.396h2.114c1.118 0 1.797.69 2.037 2.072-.481.54-1.049.825-1.702.855zm-.214 11.069c-.395-.362-.9-.557-1.518-.587a26.74 26.74 0 0 0-1.54-.135c-.035 0-.112-.03-.232-.092a.703.703 0 0 0-.282-.09c-.171 0-.387.075-.642.227-.396.24-.6.375-.618.405-.137.272-.205.785-.205 1.539 0 .362.017.935.051 1.717 1.354-.391 3.016-.586 4.986-.586v-2.398zm15.118-4.598c-.738-.541-1.976-.811-3.713-.811-2.974 0-4.951.195-5.931.585l-.232-.18c-.36.09-.962.3-1.805.63.052-1.56.104-3.132.155-4.722.068-1.888.197-3.46.387-4.72-.224.12-.431.181-.619.181-.447 0-.842-.105-1.187-.315l-.31-.404c.069-.688.163-1.124.284-1.304.12-.18.37-.313.748-.403.154-.03.344-.075.566-.135 1.204-.42 3.353-1.439 6.446-3.057.328-.15.654-.283.98-.403.413-.21.696-.465.851-.766-.051-.12-.146-.18-.283-.18-.189 0-1.315.18-3.378.541l.052 1.079c-.172-.12-.267-.18-.284-.18-.224.24-.489.495-.799.764-.378-1.049-.688-1.573-.929-1.573-.309 0-.695.075-1.16.225l-1.135.405-.309-.495a2.243 2.243 0 0 1 .231-1.582l1.959-.589v-.95c.104-.45.336-.677.696-.677.155 0 .365.203.633.608.266.405.468.623.605.653.258-.03.636 0 1.134.09.774-.03 1.927-.135 3.456-.315l-.026-.721c.379-.51.715-.766 1.006-.766.069 0 .164.03.284.09.068.24.193.473.374.698.18.226.322.518.426.878.515.03 1.074.15 1.676.36.824.271 1.238.616 1.238 1.036l-.027.36c-.445.33-.765.495-.953.495-.069 0-.955-.12-2.656-.36-.103.3-.292.511-.567.631-.104.03-.24.105-.413.225l.801.585-.388 1.577c-1.065 0-1.848.135-2.347.405.155.27.396.601.723.991.223.21.894.315 2.012.315.206 0 .52-.038.94-.113.422-.075.735-.112.94-.112.723 0 1.316.437 1.78 1.313-.842.727-1.754 1.074-2.733 1.043l-2.295-.135c-.052.03-.224.045-.516.045-.224 0-.36.088-.413.265v.31c.155.118.68.176 1.573.176 1.529 0 2.39.045 2.578.135.293.148.603.508.929 1.077L91.719 39.4c-2.441-.24-3.688-.358-3.739-.358-.138 0-.224.105-.258.313l.103.313c1.238-.208 2.029-.253 2.373-.135.43.09.851.18 1.264.271.378.18.729.614 1.058 1.302-.551.569-.998.824-1.342.764-1.237-.24-1.848-.351-1.831-.33-.068 0-.636.058-1.701.178a.422.422 0 0 0-.052.222c0 .088.008.206.025.353.189.12.73.178 1.625.178l5.157-.135.026 1.164c-.62 1.074-1.463 1.733-2.529 1.973zm-.163 13.512c-.515-.27-1.058-.75-1.624-1.441a95.101 95.101 0 0 1-1.444-1.847c-.567-.661-1.642-1.471-3.224-2.432-.858.661-1.71 1.336-2.552 2.027-1.239.931-2.063 1.396-2.477 1.396-.24 0-.55-.248-.928-.743-.379-.496-.602-.969-.671-1.419l.31-.946c.121-.12.387-.21.8-.271.292-.06.584-.105.876-.135.946-.24 1.745-.856 2.399-1.847-.241-.571-.77-.894-1.587-.969-.816-.075-1.362-.563-1.638-1.464.121-1.501.413-2.252.877-2.252.104 0 .249.03.439.09.188.06.326.09.412.09.257 0 .623-.022 1.095-.067.474-.045.821-.068 1.045-.068.086 0 .207.015.361.045.155.03.267.045.335.045.189 0 .469-.038.838-.113.37-.075.632-.112.786-.112 1.032-.09 1.78-.165 2.244-.225.825-.15 1.556-.391 2.191-.721l.232.135.413-.135c.24-.12.688.51 1.34 1.892a97.513 97.513 0 0 0-2.578 1.892c-.464.451-1.169 1.081-2.114 1.892 1.409 1.201 2.725 1.892 3.945 2.072.464 0 1.152.105 2.063.315a.85.85 0 0 1 .412.405c.017.181.025.331.025.451 0 .871-.326 1.787-.979 2.748-.496.751-1.037 1.322-1.622 1.712zM85.891 41.75a.363.363 0 0 0-.077-.09c-.154 0-1.375.15-3.662.45l-.18.811.103.045 3.816-.36a.76.76 0 0 0 .052-.27 3.806 3.806 0 0 0-.052-.586zm-.292-2.673h-1.702c-.688.03-1.237.15-1.65.36a.979.979 0 0 0-.129.496c0 .09.009.18.026.27h.129c.24 0 .559-.06.954-.18.516-.18.825-.285.928-.315.24 0 .602-.03 1.083-.09a3.11 3.11 0 0 0 .671-.225c-.07-.211-.173-.316-.31-.316zm.386-2.507l-.052-.18-.051-.045c-.086.03-1.221.24-3.404.631-.069.12-.095.3-.078.541v.135l.104.135c.464-.24 1.048-.42 1.752-.541.585-.09 1.17-.165 1.754-.225l.026-.271-.051-.18zm0-2.612c0-.12-.018-.24-.052-.36h-.025c-.465.09-1.16.405-2.089.946.843-.09 1.564-.24 2.166-.45v-.136zm-.102 14.758h-.414c-.497 0-.884.09-1.16.27.207.3.654.616 1.342.946.326-.24.808-.616 1.444-1.126a40.69 40.69 0 0 0-1.212-.09z"/><path fill="#AACF53" d="M99.512 30.64c-.43.63-.644 1.141-.644 1.531 0 .18.025.391.077.631-.035.24-.052.465-.052.675 0 .571.18 1.441.541 2.612.361 1.171.542 2.102.542 2.793 0 .66-.258 1.411-.773 2.252-.396.601-.8 1.201-1.213 1.802-.188.33-.438.886-.747 1.667-.705 1.801-1.203 3.963-1.495 6.486a238.374 238.374 0 0 1-.387 3.265 16.63 16.63 0 0 1-.696 3.13 3.895 3.895 0 0 1-.464-1.892c0-4.264.222-7.537.669-9.819.361-1.711 1.265-4.534 2.708-8.468l-.413-1.802c-.224-.841-.447-1.261-.669-1.261-.259 0-.624.398-1.097 1.194s-.872 1.193-1.198 1.193c-.276-.3-.456-.735-.543-1.306-.017-.3-.103-.766-.258-1.396.018-.09.078-.556.181-1.396.052-.541.164-.976.336-1.306.119-.24.31-.661.566-1.261l.361.045c.412-.24 1.022-.631 1.831-1.171l1.856-1.486c.361-.27.688-.405.979-.405.104 0 .224.015.361.045.241.271.36.826.36 1.667.002.57-.238 1.23-.719 1.981zm5.003 21.304c-.498.24-1.19.856-2.076 1.847-.885.991-1.603 1.592-2.153 1.802-1.03-.42-1.658-1.291-1.882-2.612.104-.391.499-.736 1.187-1.036.963-.42 1.582-.735 1.856-.946.688-.541 1.117-1.291 1.289-2.252.206-.06.37-.09.49-.09.379 0 .7.263.967.789s.4 1.104.4 1.734c0 .238-.027.494-.078.764zm11.594-5.225l-1.083.405c-1.667-1.531-3.034-2.252-4.1-2.162l-1.702.09-.154.856c.068 1.141.103 1.741.103 1.801 0 .271-.021.668-.063 1.194-.043.525-.064.923-.064 1.193 0 1.051.068 1.892.205 2.522-.086.15-.128.676-.128 1.576 0 .36-.077.781-.232 1.261-.191.571-.294.991-.312 1.261-.034.451-.072.758-.116.923-.042.165-.152.413-.324.743l-.698-.901-.518-2.522c0-.541.008-1.366.025-2.478l.181-6.621-.129-.721-.335.135c-.189-.09-.68-.135-1.471-.135.052 0-.387.166-1.314.496l-2.012.541-.8.09c-.31.06-.559.21-.747.45l-.567.721c-.188.24-.379.345-.567.315l-.258-.045a84.992 84.992 0 0 1-.155-1.847c0-.3.086-.615.259-.948l-.026-.859.929-1.312.645.407a16.572 16.572 0 0 1 6.681-1.402c.034-.12.052-.3.052-.54 0-.181-.018-.406-.052-.676l-.26-.541.154-1.126a.334.334 0 0 0-.31-.18c-.189 0-.309-.015-.361-.045-.223.09-.652.135-1.289.135-.55 0-.975.113-1.275.338s-.753.518-1.354.878l-.671-1.802.155-5.585c-.274-.571-.412-1.517-.412-2.837 0-.36.119-.751.361-1.171l1.211-.721.516.271c.241.09.542.21.903.36.138.03.825-.09 2.063-.36l2.121-.451c.432-.06.621-.09.569-.09.395 0 1.272.195 2.631.585.051-.03.377-.195.979-.496.361-.15.671-.435.93-.855.36.21.885.63 1.572 1.261-.034.18-.188.69-.465 1.531-.223.661-.334 1.171-.334 1.531 0-.27.103 1.156.309 4.279l-.618 2.658c-.189.03-.422.18-.697.45-.36.331-.575.525-.645.585l-1.289-.27c-.034 0-.099.022-.193.067s-.158.068-.193.068c-.052 0-.594-.12-1.624-.36l-.259.135.052.948-.284 1.535c.121.06.662.09 1.626.09 1.048 0 2.286.21 3.712.632 1.221.422 2.45.828 3.688 1.218-1.003 2.171-1.724 3.344-2.172 3.524zm-3.446-14.865c-.688-.511-1.831-.764-3.43-.764-2.355 0-4.091.389-5.209 1.166l-.052 3.324c.946-.45 2.184-.676 3.714-.676.516 0 1.294.045 2.334.135 1.039.09 1.817.135 2.333.135.086 0 .224-.045.412-.135l-.102-3.185zm4.615 22.426c-.31.333-.747.92-1.314 1.762h-.181c-.378.03-.972-.332-1.779-1.084-.67-.632-1.194-1.218-1.573-1.762-.24-.391-.61-.978-1.109-1.76-.205-.3-.515-.768-.928-1.398l.232-1.351.67-.676.903.045c1.563 1.861 3.516 2.792 5.854 2.792.069.482.103.828.103 1.038-.001.814-.293 1.612-.878 2.394z"/><path d="M124 34.408c-.205.39-.438.976-.696 1.756l.104.811-.077.766c.412 2.312.619 4.068.619 5.27 0 .841-.096 1.457-.284 1.847-.103.24-.554.751-1.354 1.532-.8.78-1.311 1.231-1.534 1.351-.155.09-.314.172-.478.248s-.288.263-.374.563c-.052.691-.111 1.727-.18 3.108-.035 1.531-.095 2.612-.182 3.243-.154 1.171-.446 2.102-.876 2.792-.48-1.441-.723-2.718-.723-3.829v-3.963c0-1.051.052-2.643.156-4.774.103-2.132.154-3.724.154-4.774 0-.901.076-3.138.232-6.711.017-.51-.057-1.096-.22-1.756s-.357-1.111-.58-1.351l-.284-1.441c.327-.631.637-1.141.928-1.531l.465.225c1.462-.541 2.277-.811 2.45-.811.911 0 1.701.48 2.372 1.441.67.961 1.006 2.237 1.006 3.829.002.567-.214 1.288-.644 2.159zm-2.802 4.204c-.275.18-.559.375-.851.585-.292.21-.438.556-.438 1.036 0 .24.017.601.051 1.081.035.48.052.841.052 1.081 0 .12-.017.308-.052.563a4.862 4.862 0 0 0-.051.608c0 .09.025.315.077.676 1.015-.601 1.736-1.712 2.166-3.333-.155-1.321-.472-2.087-.954-2.297zm.07-7.987c-.155-.09-.284-.135-.387-.135-.602 0-.903 1.562-.903 4.685 0 .45.034.826.104 1.126 1.014-1.261 1.797-2.943 2.347-5.044-.311-.632-.698-.842-1.161-.632zm5.234 5.75c-.859.45-1.401.675-1.625.675-.086 0-.189-.015-.309-.045-.259-.39-.405-.961-.439-1.711.55-1.111 1.552-2.334 3.004-3.671 1.453-1.336 2.454-2.545 3.005-3.626l-.077-.946c.068-.12.473-.285 1.212-.495a.783.783 0 0 0 .412-.226l1.572 1.306a3.913 3.913 0 0 0 1.109 1.441l1.29.991c.516.48 1.314 1.126 2.397 1.937.602.24 1.505.646 2.708 1.216l.953-.271.207.721c-.326.69-.447 1.276-.361 1.757-.292.6-.671 1.081-1.135 1.441-.738.571-1.151.916-1.237 1.036-.121-.21-.24-.315-.361-.315-.12 0-.258-.083-.412-.248a14.532 14.532 0 0 1-.696-.833c-.154-.09-.387-.24-.696-.45a2.508 2.508 0 0 0-.413-.27l.259 1.126c-.517.42-1.204.63-2.063.63-.756 0-1.28.105-1.573.315l.077.539-.18 1.171 2.011.09c.773.09 1.428.33 1.96.719.206-.06.465-.329.773-.809l.773.225c.034.15.172.358.413.629.24.27.421.676.541 1.214-.326.931-.489 1.484-.489 1.665 0 .36.008.899.025 1.62.018.719.026 1.214.026 1.482 0 .451-.077.916-.232 1.396-.173.568-.387.914-.645 1.034l-.413-.63c-.138.09-.421.15-.851.18-.173.03-.404.12-.696.27-1.151-.12-1.83-.18-2.037-.18-.447 0-.782.015-1.006.045 2.579 2.913 4.563 4.369 5.957 4.369.103 0 .533-.045 1.289-.135.344.21.559.555.645 1.036 0 .12.025.331.077.631l-.438.63.129.36c-.188.12-.455.48-.799 1.081-.087.18-.164.315-.231.405-.189.271-.581.525-1.174.766-.594.24-1.054.36-1.38.36-.052-.06-1.006-1.094-2.861-3.106-1.204-1.319-2.046-2.581-2.527-3.78l-.62-.495c-.36.601-.91 1.471-1.649 2.61-1.049 1.5-2.836 3.091-5.363 4.771l-.8-.45-.567-2.205.49-1.126.8.045c.945 0 1.908-.524 2.887-1.575.911-.989 1.634-2.235 2.167-3.736l-.181-.045c-.034-.03-.06-.045-.078-.045-1.288 0-2.423.465-3.403 1.396-.138-.3-.283-.841-.438-1.62-.138-.571-.301-.961-.489-1.171.154-.479.262-.989.322-1.53s.176-1.321.349-2.34c-.069-.18-.125-.495-.169-.946-.042-.45-.141-.809-.296-1.079l.773-1.036.696.18c.98-.3 2.45-.735 4.409-1.306-.137-.959-.283-1.484-.438-1.574a.818.818 0 0 0-.31-.045c-.825 0-1.548.18-2.167.539-.051.03-.176.135-.374.315-.197.18-.339.271-.425.271-.104 0-.224-.06-.361-.18l-.233-2.385zm4.28 6.561l-.155-.135c-1.049.18-2.191.45-3.43.811-.292.331-.42 1.141-.387 2.432l.104.135c.498-.27 1.142-.465 1.934-.585 1.135-.15 1.796-.255 1.985-.315l-.051-2.343zm2.011-11.486c-.464-.661-.73-.991-.799-.991-.396 0-1.109.616-2.141 1.847a28.573 28.573 0 0 0-2.217 3.063c1.117-.331 2.433-.496 3.945-.496-.653 0 .661.015 3.944.045a152.49 152.49 0 0 1-2.732-3.468zm4.745 12.462c-1.049-.871-2.304-1.306-3.765-1.306-.567 0-.92.03-1.058.09l-.128 2.207.103.405c1.049-.15 1.633-.226 1.753-.226.053 0 1.066.18 3.043.541l.155-.09-.103-1.621z"/><linearGradient id="i" gradientUnits="userSpaceOnUse" x1="66.66" y1="41.019" x2="121.967" y2="96.326"><stop offset="0" stop-color="#ead18f"/><stop offset=".076" stop-color="#e1c477"/><stop offset=".221" stop-color="#d1af4e"/><stop offset=".335" stop-color="#c8a235"/><stop offset=".405" stop-color="#c49d2c"/><stop offset=".559" stop-color="#d4b35c"/><stop offset=".766" stop-color="#e7cd97"/><stop offset=".919" stop-color="#f3debb"/><stop offset="1" stop-color="#f8e4c9"/></linearGradient><path opacity=".8" fill="url(#i)" d="M45.507 62.172h97.613v13H45.507z"/><path fill="#ABABAB" d="M55.73 90.116c-.475.58-.959.939-1.45 1.07-.222.053-.563.156-1.022.314-.224.133-.563.279-1.024.438-.57.078-.966.143-1.188.197a3.755 3.755 0 0 0-1.167.475c-.127-.264-.229-.672-.309-1.229-.063-.367-.166-.617-.309-.75a5.393 5.393 0 0 1-.024-.473c0-.557.107-1.068.321-1.545.213-.475.486-.713.82-.713.968.053 2.268.053 3.901 0 .665-.025 1.116.029 1.355.16.43.209.762.711.999 1.504-.33.052-.633.238-.903.552zm8.541 2.178c-4.347 7.225-8.564 11.775-12.656 13.646l-1.285-1.461a5.135 5.135 0 0 1-.071-.793c0-.525.247-1.502.737-2.93.715-.34 1.437-.684 2.165-1.025a16.941 16.941 0 0 0 2.116-1.268c1.318-1.004 3.253-3.162 5.805-6.488.303-.393 1.112-1.646 2.428-3.756.968-1.559 1.84-2.665 2.615-3.325l.572.277c-.129 2.269-.936 4.642-2.426 7.123zm-6.209-9.427c-.301.553-.546.803-.736.752l-4.067-.91c-.063 0-.184.059-.358.178s-.309.176-.403.176l-.192-.039-.379-1.936c-.063-.236-.032-.58.095-1.027.253-.92.816-1.383 1.689-1.383.206 0 .451.107.737.316.38.238.626.369.738.396.412.129 1.068.379 1.973.748.92.449 1.508 1.135 1.761 2.057-.318 0-.604.223-.858.672zM90.889 103.769l-1.046.91c-1.284-.688-2.655-2.084-4.115-4.197a1343.271 1343.271 0 0 1-3.593-5.457c-.237.264-1.546 1.975-3.926 5.143-1.537 2.031-2.979 3.426-4.328 4.191-.063-.156-.198-.289-.404-.395-.365-.156-.729-.33-1.094-.514-.492-.213-.817-.434-.976-.672-.049-.08-.166-.555-.357-1.426.222-.738.65-1.227 1.283-1.461a21.495 21.495 0 0 0 1.595-.459c.524-.17 1.261-.783 2.212-1.84 2.094-2.268 3.625-4.232 4.592-5.893.73-1.24 1.896-3.693 3.498-7.358l-.405-.16c-.572.133-1.261.238-2.069.316-.744.131-1.856.344-3.332.635l-1.402.234c-.522.16-.944.479-1.261.954l-.355-.277c0-1.505-.04-2.454-.121-2.851.034-.818.311-1.439.833-1.859.145-.105.627-.355 1.452-.75.253.633.443.932.571.91l5.779-.99.237-.041c.255 0 .524.105.81.316.031-.027.261-.383.69-1.068.269-.42.522-.633.762-.633.095 0 .205.027.332.082.095.314.376.646.845.986.467.344.812.764 1.035 1.268-.999 1.662-1.65 2.859-1.951 3.598a92.682 92.682 0 0 1-1.142 3.05c-.126.287-.508.988-1.142 2.098-.508.896-.824 1.633-.951 2.213a205.597 205.597 0 0 1 2.639 3.207c.937 1.051 1.959 1.762 3.068 2.133 1.002.211 2.499.672 4.495 1.385-.253.795-.724 1.615-1.414 2.473-.689.859-1.138 1.591-1.344 2.199zM116.032 91.938c-.208.053-.479.305-.821.752-.34.451-.652.674-.939.674-.172 0-.586-.17-1.236-.514-.76-.422-1.223-.66-1.379-.713-.303.025-.746-.014-1.331-.117l-.43.154-.81-.352c-.174.289-.348 1.107-.522 2.449a651.01 651.01 0 0 1-.286 1.818c-.127.686-.275 1.252-.451 1.701a16.9 16.9 0 0 1-2.069 3.678c-.92 1.238-1.809 2.059-2.665 2.455-1.458.711-2.528 1.066-3.211 1.066-.237 0-.896-.092-1.975-.279l-.332-1.225c.045-1.582.461-2.584 1.236-3.008.318-.158 1.086-.236 2.309-.236.507 0 1.063-.117 1.664-.355.762-.316 1.585-1.045 2.473-2.18.999-1.291 1.5-2.479 1.5-3.559 0-.08-.008-.199-.026-.355l-.045-.318c-.332-.42-.58-1.029-.738-1.82l-.332-.277c-.475-.027-1.182-.012-2.117.041-.35.051-1.157.287-2.428.711-1.315.449-2.085.768-2.307.949-.222.186-.411.516-.571.99l-.403.238-.549-.08-.216-1.305c.143-1.027.271-1.77.384-2.217.19-.818.451-1.424.784-1.82a272.57 272.57 0 0 1 5.496-1.107c.664-.107 1.634-.158 2.902-.158 1.283 0 3.956.289 8.017.871.031 0 .078-.029.142-.08l.237-.078.238.078c.047.027.103.051.168.08l1.165-.158.619.434c-.097.475-.289 1.039-.573 1.686-.287.647-.477 1.143-.572 1.486zm-2.902-9.971c-.077 1.109-.696 1.662-1.854 1.662-.285 0-.698-.039-1.236-.119-.542-.078-.946-.119-1.215-.119-.127 0-.293-.025-.501-.078a3.85 3.85 0 0 1-.498-.119 10.488 10.488 0 0 0-1.595-.117c-.237 0-.951.09-2.139.275-1.191.184-1.834.316-1.927.396-.016 0-.109.119-.275.355-.166.238-.305.346-.417.316l-.499-.197-.401-1.504c.091-1.396.457-2.229 1.092-2.492.254 0 .633-.068 1.142-.197 1.238-.555 2.681-.779 4.329-.674 1.984.131 3.005.199 3.068.199 1.144.209 2.127.686 2.951 1.424 0 .239-.009.567-.025.989zM138.774 103.601c-.222 0-.517-.08-.881-.236-.411-.16-.698-.266-.854-.318-.366-.053-1.636-.197-3.807-.436-1.46-.156-2.277-.236-2.451-.236-3.425 0-6.271 1.055-8.541 3.164-.601-.869-.903-2.293-.903-4.271 0-.264.136-.582.407-.949.425-.213.758-.305.997-.279.556-.473 1.076-1.389 1.57-2.734.378-1.107.76-2.213 1.14-3.32.337-.818.817-2.057 1.452-3.719.192-.605.483-1.504.881-2.691.364-1.027.617-1.806.76-2.335.271-.869.471-1.688.596-2.453l-.046-.117a1.512 1.512 0 0 1-.239-.791c0-.818.253-1.451.76-1.898.477-.264.943-.527 1.402-.793.416.291.993.66 1.737 1.109.224.342.336.898.336 1.662 0 .422-.199.91-.598 1.463-.3.396-.603.793-.903 1.186-.997 1.771-2.227 4.845-3.688 9.22-.33.791-.664 1.582-.997 2.371-.411 1.004-.635 1.848-.666 2.533 1.204-.342 2.656-.514 4.354-.514 2.743 0 4.694.213 5.852.633-.269-1.32-.569-2.203-.904-2.652a36.98 36.98 0 0 1-.737-.986 11.444 11.444 0 0 1-.594-1.305c.158-1.135.586-1.805 1.282-2.02.239.107.581.305 1.024.594.016 0 .253.344.712 1.029.208.238.517.633.929 1.188.318.475.706 1.527 1.165 3.164.382 1.318.675 2.494.882 3.525a4.122 4.122 0 0 1-.524 1.523c-.27.456-.575.689-.905.689z"/><path d="M54.918 88.767c-.476.58-.958.936-1.45 1.068-.222.053-.564.158-1.023.316-.222.131-.562.277-1.022.436-.57.08-.968.146-1.189.197a3.78 3.78 0 0 0-1.165.477c-.129-.264-.231-.674-.311-1.227-.062-.369-.164-.621-.309-.752a6.724 6.724 0 0 1-.023-.475c0-.557.106-1.068.32-1.545.216-.473.488-.711.821-.711.967.051 2.269.051 3.901 0 .666-.025 1.119.025 1.354.158.43.213.762.713 1.002 1.504-.335.052-.636.237-.906.554zm8.54 2.175c-4.344 7.225-8.564 11.777-12.653 13.65l-1.286-1.465a4.856 4.856 0 0 1-.071-.791c0-.529.245-1.504.738-2.928.712-.346 1.435-.686 2.164-1.031a16.731 16.731 0 0 0 2.117-1.264c1.315-1.002 3.25-3.164 5.805-6.488.301-.396 1.109-1.648 2.425-3.758.968-1.556 1.84-2.663 2.618-3.325l.569.277c-.127 2.27-.934 4.643-2.426 7.123zm-6.208-9.426c-.301.555-.546.805-.737.75l-4.068-.908c-.063 0-.182.059-.355.178-.177.119-.311.178-.406.178l-.189-.039-.38-1.936c-.065-.238-.032-.578.095-1.027.253-.922.817-1.381 1.689-1.381.206 0 .451.104.736.314.38.236.627.367.738.395.411.131 1.07.381 1.974.748.92.449 1.508 1.135 1.761 2.057-.32-.001-.605.221-.858.671zM90.078 102.417l-1.047.908c-1.286-.686-2.657-2.082-4.117-4.195a1043.653 1043.653 0 0 1-3.591-5.457c-.237.264-1.547 1.979-3.925 5.139-1.539 2.035-2.981 3.436-4.329 4.199-.065-.16-.197-.291-.405-.396-.364-.16-.729-.33-1.095-.514-.49-.211-.816-.436-.975-.676-.046-.076-.166-.551-.356-1.422.222-.74.649-1.229 1.284-1.465a21.08 21.08 0 0 0 1.595-.457c.522-.17 1.26-.783 2.212-1.84 2.093-2.266 3.624-4.23 4.592-5.893.728-1.238 1.896-3.689 3.495-7.358l-.403-.158c-.571.131-1.262.236-2.069.316-.746.133-1.855.344-3.331.631-.476.082-.944.16-1.403.24a2.282 2.282 0 0 0-1.262.949l-.356-.277c0-1.504-.039-2.453-.119-2.85.032-.816.312-1.436.833-1.859.143-.104.628-.354 1.452-.75.254.633.443.936.57.91l5.778-.99.24-.041c.255 0 .521.107.809.318.032-.025.262-.383.69-1.068.27-.424.522-.635.76-.635.095 0 .208.029.334.082.096.314.376.645.844.988.469.344.814.764 1.036 1.266-1.001 1.662-1.65 2.863-1.952 3.602-.238.684-.618 1.701-1.14 3.046-.129.291-.509.99-1.144 2.098-.507.895-.825 1.633-.952 2.215a203.585 203.585 0 0 1 2.642 3.205c.936 1.055 1.958 1.766 3.068 2.135.999.211 2.499.672 4.497 1.385-.256.791-.727 1.613-1.417 2.475-.691.854-1.138 1.585-1.343 2.194zM115.22 90.587c-.204.053-.478.303-.819.752-.343.451-.653.676-.94.676-.176 0-.585-.174-1.238-.516-.762-.422-1.221-.658-1.379-.711-.301.025-.744-.012-1.331-.119l-.428.158-.809-.355c-.177.291-.351 1.107-.524 2.453l-.283 1.818c-.129.684-.281 1.25-.453 1.697a16.876 16.876 0 0 1-2.071 3.68c-.92 1.24-1.807 2.057-2.663 2.451-1.46.713-2.528 1.068-3.213 1.068-.237 0-.895-.094-1.973-.275l-.334-1.229c.048-1.58.459-2.584 1.238-3.008.316-.158 1.084-.236 2.307-.236.507 0 1.063-.119 1.666-.357.762-.316 1.587-1.041 2.474-2.176.999-1.291 1.499-2.479 1.499-3.563 0-.076-.01-.193-.025-.352l-.048-.318c-.332-.422-.577-1.027-.735-1.82l-.335-.277c-.475-.025-1.181-.014-2.116.039-.349.053-1.158.291-2.428.711-1.315.451-2.084.768-2.307.953-.222.182-.41.514-.57.988l-.405.238-.548-.078-.214-1.307c.145-1.031.271-1.768.384-2.217.188-.82.449-1.426.783-1.822 1.221-.264 3.051-.633 5.496-1.107.665-.104 1.632-.158 2.9-.158 1.286 0 3.959.291 8.017.871.031 0 .079-.025.143-.08l.237-.078.239.078c.048.027.101.055.168.08l1.163-.158.617.434c-.095.479-.282 1.039-.569 1.686-.287.646-.477 1.142-.573 1.486zm-2.903-9.97c-.075 1.107-.697 1.662-1.854 1.662-.282 0-.698-.041-1.238-.121-.538-.078-.943-.117-1.211-.117-.128 0-.295-.025-.5-.08-.271-.051-.436-.09-.499-.119a10.476 10.476 0 0 0-1.597-.117c-.237 0-.949.092-2.139.275-1.19.188-1.832.318-1.929.396-.014 0-.106.119-.273.359-.166.234-.305.34-.415.313l-.498-.197-.408-1.502c.099-1.398.461-2.229 1.097-2.494.253 0 .635-.066 1.141-.197 1.237-.555 2.682-.777 4.331-.672 1.982.131 3.005.197 3.068.197 1.144.213 2.125.688 2.952 1.426 0 .236-.01.564-.028.988zM137.963 102.249c-.224 0-.519-.08-.88-.236a20.657 20.657 0 0 0-.857-.316c-.365-.051-1.634-.199-3.809-.438-1.458-.156-2.271-.234-2.447-.234-3.424 0-6.273 1.055-8.54 3.164-.604-.871-.904-2.293-.904-4.273 0-.262.135-.584.403-.951.428-.211.762-.305 1.001-.277.555-.475 1.078-1.387 1.569-2.73l1.142-3.32c.332-.818.816-2.059 1.45-3.721.191-.607.484-1.502.882-2.691.364-1.028.617-1.806.76-2.335.27-.867.467-1.688.596-2.451l-.048-.119a1.53 1.53 0 0 1-.239-.791c0-.818.256-1.451.762-1.9.479-.262.944-.527 1.403-.789.413.287.99.658 1.736 1.105.224.346.335.896.335 1.662 0 .424-.198.91-.596 1.465l-.904 1.186c-.999 1.77-2.228 4.843-3.686 9.22-.335.791-.667 1.582-1.001 2.373-.41 1.002-.634 1.844-.665 2.533 1.205-.346 2.657-.518 4.353-.518 2.744 0 4.694.213 5.852.633-.269-1.318-.569-2.199-.903-2.648-.38-.5-.626-.83-.736-.99-.174-.314-.374-.75-.596-1.305.158-1.133.586-1.807 1.282-2.016.241.105.582.303 1.024.594.017 0 .254.342.715 1.027.206.238.517.635.928 1.188.316.473.704 1.529 1.165 3.164.382 1.318.675 2.492.879 3.523a4.137 4.137 0 0 1-.522 1.523c-.271.461-.572.689-.904.689zM51.56 70.375l.111.041-.385 2.162h-3.473v-.219h.168c.191 0 .326-.108.408-.326.045-.124.068-.411.068-.861v-5.133c0-.495-.031-.806-.092-.93-.086-.172-.215-.258-.385-.258h-.168v-.219h2.029v.219c-.236-.004-.404.035-.5.117a.61.61 0 0 0-.195.31c-.037.124-.055.422-.055.894v4.99c0 .324.018.547.055.668.025.082.066.143.121.182s.227.059.516.059h.328c.344 0 .584-.045.725-.135.139-.09.266-.249.379-.479.116-.228.231-.589.345-1.082zM53.517 67.047c.459 0 .828.309 1.105.927.236.527.355 1.134.355 1.818 0 .48-.066.968-.195 1.461-.131.492-.311.863-.539 1.114-.229.25-.482.375-.762.375-.457 0-.82-.322-1.09-.968-.227-.543-.34-1.153-.34-1.83 0-.492.068-.982.207-1.469.137-.487.318-.847.543-1.08.227-.232.466-.348.716-.348zm-.102.383c-.117 0-.234.062-.352.185s-.213.34-.285.648-.109.706-.109 1.191c0 .781.088 1.456.262 2.023.176.567.406.851.691.851.215 0 .391-.156.529-.47.139-.313.207-.85.207-1.613 0-.954-.115-1.705-.346-2.252-.156-.376-.355-.563-.597-.563zM56.31 68.183c.354-.757.691-1.136 1.014-1.136.164 0 .307.073.426.22.119.147.213.389.283.726.049.234.072.595.072 1.08v2.295c0 .339.016.569.047.69.023.098.063.173.117.228s.154.082.299.082v.211h-1.504v-.211h.063c.143 0 .24-.038.297-.114s.096-.188.117-.336c.01-.059.014-.242.014-.55v-2.203c0-.489-.035-.845-.107-1.066-.07-.222-.191-.332-.359-.332-.26 0-.52.255-.777.763v2.839c0 .362.012.587.035.673.031.113.074.195.129.248s.164.079.33.079v.211H55.3v-.211h.066c.154 0 .258-.069.313-.208.055-.138.08-.402.08-.792v-2c0-.645-.008-1.037-.023-1.178-.018-.141-.043-.236-.078-.287a.156.156 0 0 0-.137-.076.414.414 0 0 0-.223.088l-.051-.211.92-.656h.145v1.134zM59.616 70.607a1.52 1.52 0 0 1-.428-.669 2.926 2.926 0 0 1-.148-.95c0-.53.113-.986.34-1.368s.518-.573.871-.573c.289 0 .539.125.752.375h.643c.096 0 .15.005.166.015s.027.026.033.051a.58.58 0 0 1 .02.188.971.971 0 0 1-.016.212.11.11 0 0 1-.035.048c-.018.012-.074.018-.17.018h-.396c.123.281.186.64.186 1.077 0 .499-.109.926-.324 1.281-.217.354-.506.532-.871.532a.997.997 0 0 1-.459-.121c-.096.149-.16.281-.193.394s-.051.208-.051.287c0 .066.02.132.055.195.037.063.107.108.213.136.063.015.217.028.463.039.453.019.748.045.881.078.205.051.369.187.492.405.121.22.184.49.184.812 0 .442-.117.857-.352 1.245-.346.572-.793.858-1.348.858-.428 0-.787-.17-1.08-.511-.166-.195-.248-.398-.248-.61 0-.094.012-.188.035-.281.039-.145.117-.347.234-.604.016-.035.129-.246.34-.634a1.397 1.397 0 0 1-.242-.327.716.716 0 0 1-.072-.328c0-.138.031-.299.094-.483s.205-.448.431-.787zm-.031 1.971a3.165 3.165 0 0 0-.238.556 1.555 1.555 0 0 0-.082.474c0 .187.064.351.193.491.221.241.539.362.957.362.398 0 .691-.124.879-.372.189-.247.283-.512.283-.793 0-.203-.057-.347-.168-.433-.115-.086-.342-.137-.68-.152-.496-.023-.876-.067-1.144-.133zm.607-5.25c-.162 0-.299.115-.408.345-.111.229-.166.582-.166 1.058 0 .615.076 1.092.225 1.431.115.258.26.386.436.386.168 0 .307-.111.414-.333s.162-.57.162-1.046c0-.619-.076-1.104-.229-1.454-.111-.258-.256-.387-.434-.387zM62.257 69.445h1.717v.883h-1.717v-.883zM65.339 65.438v1.766h.709v.414h-.709V71.1c0 .348.029.582.084.703.057.121.129.182.217.182.072 0 .145-.04.211-.12a.882.882 0 0 0 .16-.356h.127c-.076.384-.188.672-.328.866-.141.193-.287.29-.438.29-.102 0-.201-.05-.299-.149s-.17-.242-.217-.428c-.045-.186-.068-.472-.068-.859v-3.61h-.48v-.195c.121-.086.246-.232.373-.438.127-.205.24-.449.342-.73.053-.148.123-.42.215-.815h.101zM66.847 69.234c-.002.797.107 1.422.328 1.875s.479.68.777.68c.197 0 .369-.096.518-.288.145-.191.268-.522.367-.993l.102.117a3.923 3.923 0 0 1-.404 1.461c-.221.438-.5.656-.836.656-.363 0-.676-.251-.934-.753-.26-.502-.389-1.177-.389-2.024 0-.918.133-1.634.398-2.147s.598-.771 1-.771c.34 0 .619.198.836.596.219.396.328.927.328 1.592h-2.091zm0-.343h1.404c-.012-.344-.035-.586-.07-.727-.055-.219-.137-.391-.246-.516s-.223-.188-.342-.188c-.184 0-.348.126-.492.378s-.229.603-.254 1.053zM70.235 67.047v1.207c.252-.805.514-1.207.779-1.207.123 0 .223.065.301.196.08.131.119.282.119.454a.785.785 0 0 1-.086.387c-.057.105-.125.158-.205.158-.078 0-.164-.067-.26-.203s-.166-.203-.213-.203c-.039 0-.082.039-.129.117-.1.161-.201.426-.307.794v2.573c0 .298.021.523.063.677.029.105.08.193.152.265.072.07.178.105.314.105v.211h-1.559v-.211c.154 0 .27-.043.346-.13a.588.588 0 0 0 .115-.3c.012-.066.016-.257.016-.57v-2.078c0-.627-.006-1-.021-1.119a.578.578 0 0 0-.08-.262.168.168 0 0 0-.145-.082.427.427 0 0 0-.232.088l-.033-.211.924-.656h.141zM72.505 68.197c.221-.394.35-.619.391-.679.1-.149.205-.266.32-.348a.582.582 0 0 1 .34-.124c.189 0 .354.099.49.295s.229.481.273.855c.229-.472.42-.782.576-.929.156-.148.318-.222.482-.222.162 0 .305.073.43.22.125.147.223.387.297.72.047.227.072.583.072 1.068v2.313c0 .335.014.565.043.69.021.086.063.158.123.219s.158.091.293.091v.211h-1.5v-.211h.063c.129 0 .23-.045.305-.135a.642.642 0 0 0 .109-.298c.008-.066.012-.256.012-.567v-2.309c0-.438-.029-.746-.088-.926-.086-.25-.225-.375-.414-.375-.115 0-.234.052-.352.155s-.26.296-.428.577l-.006.064.008.252v2.561c0 .366.012.595.035.685s.066.164.129.225c.064.061.174.091.326.091v.211h-1.531v-.211c.166 0 .281-.035.344-.105s.105-.175.129-.315c.012-.066.018-.26.018-.579v-2.309c0-.438-.037-.753-.109-.946-.096-.252-.23-.378-.404-.378-.119 0-.236.058-.354.171a1.909 1.909 0 0 0-.422.585v2.877c0 .351.014.579.041.685s.068.184.121.236c.055.053.164.079.328.079v.211h-1.5v-.211c.139 0 .234-.026.291-.079a.522.522 0 0 0 .125-.251c.027-.115.043-.339.043-.67v-2.055c0-.592-.01-.974-.029-1.146-.016-.13-.041-.219-.074-.268s-.078-.073-.137-.073a.42.42 0 0 0-.223.088l-.049-.211.92-.656h.143v1.151zM82.44 64.453l.102 2.703h-.102c-.137-.812-.332-1.396-.586-1.754-.252-.356-.557-.535-.912-.535-.297 0-.566.134-.807.401s-.43.695-.568 1.281c-.137.586-.207 1.315-.207 2.187 0 .72.066 1.343.195 1.87.131.527.326.933.588 1.214.26.281.559.422.895.422.289 0 .547-.11.77-.331.223-.222.467-.66.734-1.317l.102.117c-.225.708-.486 1.226-.787 1.554-.301.329-.656.493-1.07.493-.742 0-1.318-.488-1.727-1.464-.305-.727-.457-1.582-.457-2.565 0-.793.1-1.521.301-2.185s.479-1.178.83-1.543.738-.548 1.154-.548c.326 0 .645.142.961.425.094.087.16.13.199.13.059 0 .111-.037.156-.112.057-.105.098-.254.123-.442h.113zM84.804 71.803c-.311.426-.506.672-.586.738a.58.58 0 0 1-.379.146c-.209 0-.381-.127-.518-.381-.135-.255-.203-.589-.203-1.003 0-.263.033-.489.1-.681.09-.267.246-.517.471-.751.223-.234.596-.521 1.115-.856v-.211c0-.534-.047-.901-.143-1.1-.096-.199-.234-.299-.416-.299-.139 0-.248.066-.328.198a.835.835 0 0 0-.125.456l.006.339c0 .18-.025.318-.078.415-.053.098-.121.146-.205.146s-.15-.051-.203-.152-.078-.239-.078-.415c0-.336.098-.645.291-.925a.936.936 0 0 1 .816-.422c.27 0 .49.08.662.24.131.121.227.311.289.568.039.168.059.511.059 1.03v1.822c0 .511.006.824.018.939.01.115.029.192.055.231s.055.059.088.059a.125.125 0 0 0 .092-.041c.047-.051.137-.193.27-.428v.328c-.248.589-.484.883-.711.883-.107 0-.193-.066-.258-.198-.066-.129-.099-.356-.101-.675zm0-.382v-2.046c-.332.234-.547.4-.645.498a1.633 1.633 0 0 0-.373.54 1.665 1.665 0 0 0-.111.615c0 .281.047.516.141.701.096.186.205.278.328.278.168.001.386-.194.66-.586zM86.987 67.047v1.207c.252-.805.514-1.207.779-1.207.123 0 .223.065.301.196.08.131.119.282.119.454a.785.785 0 0 1-.086.387c-.057.105-.125.158-.205.158-.078 0-.164-.067-.26-.203s-.166-.203-.213-.203c-.039 0-.082.039-.129.117-.1.161-.201.426-.307.794v2.573c0 .298.021.523.063.677.029.105.08.193.152.265.072.07.178.105.314.105v.211h-1.559v-.211c.156 0 .27-.043.346-.13a.588.588 0 0 0 .115-.3c.012-.066.016-.257.016-.57v-2.078c0-.627-.006-1-.021-1.119a.607.607 0 0 0-.078-.262c-.039-.055-.088-.082-.145-.082a.43.43 0 0 0-.234.088l-.033-.211.924-.656h.141zM88.864 69.234c-.002.797.107 1.422.328 1.875s.479.68.777.68c.197 0 .369-.096.516-.288.146-.191.27-.522.369-.993l.102.117c-.047.537-.182 1.023-.404 1.461s-.5.656-.836.656c-.363 0-.676-.251-.934-.753-.26-.502-.391-1.177-.391-2.024 0-.918.133-1.634.4-2.147.264-.514.598-.771 1-.771.34 0 .617.198.836.596.219.396.328.927.328 1.592h-2.091zm0-.343h1.404c-.012-.344-.035-.586-.07-.727-.055-.219-.137-.391-.246-.516s-.225-.188-.344-.188c-.182 0-.346.126-.49.378s-.228.603-.254 1.053zM94.935 72.359v.219h-1.924v-.219h.16c.186 0 .32-.096.404-.286.055-.125.08-.426.08-.901v-5.133c0-.401-.014-.667-.043-.796a.521.521 0 0 0-.137-.251.439.439 0 0 0-.305-.141h-.16v-.219h1.924v.219h-.16c-.184 0-.318.096-.4.286-.055.125-.084.426-.084.901v5.133c0 .401.016.667.043.796a.504.504 0 0 0 .139.251.428.428 0 0 0 .303.141h.16zM96.204 68.183c.354-.757.691-1.136 1.014-1.136.164 0 .307.073.426.22.119.147.213.389.283.726.049.234.072.595.072 1.08v2.295c0 .339.016.569.047.69.023.098.063.173.117.228s.154.082.299.082v.211h-1.504v-.211h.063c.143 0 .24-.038.297-.114s.096-.188.117-.336c.01-.059.014-.242.014-.55v-2.203c0-.489-.035-.845-.107-1.066-.07-.222-.191-.332-.359-.332-.26 0-.52.255-.777.763v2.839c0 .362.012.587.035.673.031.113.074.195.129.248s.164.079.33.079v.211h-1.506v-.211h.066c.154 0 .258-.069.313-.208.055-.138.08-.402.08-.792v-2c0-.645-.008-1.037-.023-1.178-.018-.141-.043-.236-.078-.287a.156.156 0 0 0-.137-.076.414.414 0 0 0-.223.088l-.051-.211.92-.656h.145v1.134zM100.661 67.047v1.828h-.111c-.084-.575-.191-.966-.322-1.173-.131-.208-.297-.312-.5-.312-.154 0-.277.072-.373.218a.864.864 0 0 0-.141.48c0 .22.033.407.104.564.068.16.207.33.416.51l.484.417c.447.388.672.897.672 1.531 0 .489-.104.883-.313 1.183-.209.299-.441.448-.699.448-.186 0-.398-.059-.637-.176a.407.407 0 0 0-.178-.059c-.051 0-.092.05-.119.148h-.111V70.74h.111c.061.548.18.961.354 1.239s.369.417.586.417c.152 0 .275-.079.373-.238.096-.158.143-.35.143-.572 0-.271-.053-.498-.16-.682-.107-.185-.32-.417-.641-.698-.32-.282-.529-.536-.629-.763-.1-.223-.15-.504-.15-.845 0-.441.086-.811.258-1.108.17-.297.391-.445.662-.445.119 0 .264.046.434.137.113.06.188.09.225.09a.094.094 0 0 0 .082-.042.596.596 0 0 0 .07-.185h.11zM103.999 67.203v3.266c0 .618.008.997.025 1.135.016.139.043.234.08.289s.078.082.127.082c.068 0 .146-.033.234-.1l.045.211-.908.656h-.15v-1.136c-.26.5-.459.813-.596.942s-.281.193-.434.193c-.17 0-.318-.087-.443-.261-.123-.174-.211-.398-.26-.672s-.072-.66-.072-1.161V68.25c0-.257-.016-.435-.047-.533-.029-.099-.076-.175-.137-.229s-.17-.078-.328-.074v-.211h1.063v3.599c0 .502.051.83.148.986.098.157.217.235.355.235.094 0 .201-.053.322-.158.119-.106.262-.308.428-.605v-3.049c0-.307-.031-.515-.096-.623-.063-.107-.193-.166-.395-.174v-.211h1.039zM105.618 67.047v1.207c.254-.805.514-1.207.781-1.207.121 0 .221.065.301.196s.119.282.119.454a.808.808 0 0 1-.086.387c-.059.105-.127.158-.207.158-.076 0-.162-.067-.258-.203s-.168-.203-.213-.203c-.041 0-.084.039-.129.117-.1.161-.201.426-.309.794v2.573c0 .298.021.523.064.677a.568.568 0 0 0 .15.265c.074.07.178.105.314.105v.211h-1.557v-.211c.154 0 .27-.043.344-.13a.588.588 0 0 0 .115-.3c.012-.066.018-.257.018-.57v-2.078c0-.627-.008-1-.021-1.119-.014-.12-.041-.207-.08-.262s-.086-.082-.145-.082a.425.425 0 0 0-.232.088l-.033-.211.924-.656h.14zM108.7 71.803c-.311.426-.506.672-.584.738a.588.588 0 0 1-.381.146c-.209 0-.381-.127-.516-.381-.137-.255-.205-.589-.205-1.003 0-.263.033-.489.1-.681.09-.267.248-.517.471-.751.225-.234.596-.521 1.115-.856v-.211c0-.534-.047-.901-.143-1.1-.096-.199-.234-.299-.416-.299-.139 0-.246.066-.328.198a.835.835 0 0 0-.125.456l.006.339c0 .18-.025.318-.078.415-.053.098-.121.146-.205.146s-.15-.051-.203-.152-.078-.239-.078-.415c0-.336.098-.645.291-.925a.94.94 0 0 1 .818-.422c.27 0 .49.08.662.24.129.121.225.311.287.568.039.168.061.511.061 1.03v1.822c0 .511.004.824.016.939s.029.192.055.231.055.059.088.059a.132.132 0 0 0 .094-.041c.045-.051.135-.193.268-.428v.328c-.248.589-.484.883-.709.883-.109 0-.195-.066-.26-.198-.066-.129-.097-.356-.101-.675zm0-.382v-2.046c-.332.234-.547.4-.643.498a1.604 1.604 0 0 0-.373.54 1.625 1.625 0 0 0-.113.615c0 .281.047.516.143.701.094.186.203.278.326.278.168.001.389-.194.66-.586zM110.884 68.183c.354-.757.693-1.136 1.014-1.136.166 0 .307.073.426.22.119.147.213.389.283.726.049.234.074.595.074 1.08v2.295c0 .339.016.569.045.69a.497.497 0 0 0 .117.228c.055.055.154.082.301.082v.211h-1.506v-.211h.064c.141 0 .238-.038.295-.114s.096-.188.117-.336c.01-.059.014-.242.014-.55v-2.203c0-.489-.035-.845-.105-1.066-.072-.222-.191-.332-.359-.332-.262 0-.521.255-.779.763v2.839c0 .362.012.587.037.673.031.113.072.195.127.248s.164.079.33.079v.211h-1.504v-.211h.066c.152 0 .258-.069.311-.208.055-.138.082-.402.082-.792v-2c0-.645-.01-1.037-.025-1.178s-.043-.236-.076-.287a.16.16 0 0 0-.139-.076.42.42 0 0 0-.223.088l-.049-.211.92-.656h.143v1.134zM115.958 70.535c-.082.711-.24 1.257-.479 1.637s-.502.57-.791.57c-.346 0-.645-.256-.9-.769-.256-.512-.385-1.204-.385-2.076 0-.845.143-1.531.426-2.059.283-.528.623-.792 1.02-.792.297 0 .543.14.734.419.191.28.287.57.287.871 0 .149-.027.27-.08.361-.055.092-.131.138-.227.138-.131 0-.229-.074-.291-.224-.039-.082-.064-.238-.078-.47-.012-.231-.057-.407-.133-.528a.364.364 0 0 0-.32-.177c-.221 0-.398.145-.531.435-.178.383-.268.891-.268 1.52 0 .643.088 1.209.266 1.7s.416.736.719.736c.215 0 .41-.13.58-.39.123-.181.24-.509.355-.985l.096.083zM116.901 69.234c-.002.797.107 1.422.328 1.875s.479.68.775.68c.199 0 .371-.096.518-.288.146-.191.27-.522.369-.993l.102.117c-.047.537-.182 1.023-.404 1.461s-.5.656-.836.656c-.365 0-.676-.251-.936-.753-.258-.502-.389-1.177-.389-2.024 0-.918.133-1.634.4-2.147.264-.514.598-.771 1-.771.34 0 .617.198.836.596.219.396.328.927.328 1.592h-2.091zm0-.343h1.404c-.012-.344-.035-.586-.07-.727-.055-.219-.137-.391-.246-.516s-.225-.188-.344-.188c-.182 0-.346.126-.49.378s-.228.603-.254 1.053zM123.991 64.453v2.75h-.123c-.041-.528-.111-.948-.215-1.261a1.774 1.774 0 0 0-.439-.745c-.189-.184-.387-.275-.59-.275-.229 0-.42.124-.568.372a1.58 1.58 0 0 0-.227.846c0 .241.047.462.143.661.137.293.463.683.979 1.171.42.397.707.703.861.916s.273.464.355.753c.084.289.125.592.125.908 0 .602-.133 1.12-.396 1.556s-.602.653-1.018.653c-.129 0-.252-.018-.367-.054-.068-.021-.209-.093-.424-.219s-.352-.188-.408-.188-.1.03-.131.09c-.033.06-.057.184-.072.371h-.123v-2.727h.123c.059.569.135.996.232 1.279.096.283.244.519.443.705.201.188.418.281.656.281.275 0 .494-.129.652-.387a1.7 1.7 0 0 0 .24-.914c0-.195-.031-.393-.092-.592s-.154-.385-.281-.557c-.088-.117-.322-.365-.709-.745-.385-.379-.658-.682-.82-.908s-.283-.477-.367-.75a3.046 3.046 0 0 1-.127-.901c0-.569.123-1.061.371-1.472.248-.412.563-.618.943-.618.238 0 .492.104.76.313.123.099.211.147.262.147.057 0 .104-.03.141-.092.037-.061.066-.184.088-.369h.123zM124.69 67.203h1.414v.211h-.07c-.1 0-.174.038-.223.115a.505.505 0 0 0-.074.286c0 .153.035.366.109.638l.74 2.721.676-2.979c.037-.161.057-.321.057-.479a.433.433 0 0 0-.023-.16.245.245 0 0 0-.084-.104c-.037-.025-.104-.038-.197-.038v-.211h.982v.211a.328.328 0 0 0-.188.095.888.888 0 0 0-.146.265c-.02.056-.057.207-.113.454l-1.23 5.365c-.119.521-.275.914-.469 1.18-.193.267-.381.399-.559.399-.131 0-.238-.066-.322-.199a.842.842 0 0 1-.125-.458c0-.164.029-.297.09-.396.063-.1.145-.149.25-.149.074 0 .174.043.301.13.088.06.143.089.164.089.066 0 .139-.061.219-.183.078-.121.156-.356.236-.705l.213-.94-1.088-4.049a4.37 4.37 0 0 0-.158-.454 1.472 1.472 0 0 0-.137-.277.62.62 0 0 0-.244-.165v-.213zM130.21 67.047v1.828h-.111c-.084-.575-.189-.966-.32-1.173-.131-.208-.299-.312-.5-.312-.154 0-.279.072-.375.218a.864.864 0 0 0-.141.48c0 .22.035.407.104.564.068.16.207.33.418.51l.482.417c.449.388.672.897.672 1.531 0 .489-.104.883-.313 1.183-.209.299-.441.448-.699.448-.186 0-.396-.059-.635-.176a.414.414 0 0 0-.18-.059c-.051 0-.09.05-.119.148h-.109V70.74h.109c.063.548.18.961.354 1.239.176.278.371.417.586.417.152 0 .277-.079.373-.238.096-.158.145-.35.145-.572 0-.271-.055-.498-.162-.682-.105-.185-.32-.417-.641-.698-.32-.282-.529-.536-.629-.763-.1-.223-.148-.504-.148-.845 0-.441.086-.811.256-1.108.17-.297.393-.445.664-.445.119 0 .264.046.432.137.113.06.188.09.225.09s.064-.014.084-.042a.638.638 0 0 0 .068-.185h.11zM131.774 65.438v1.766h.709v.414h-.709V71.1c0 .348.029.582.086.703.055.121.127.182.215.182.072 0 .145-.04.211-.12a.882.882 0 0 0 .16-.356h.127c-.076.384-.188.672-.328.866-.141.193-.287.29-.438.29-.102 0-.201-.05-.299-.149s-.17-.242-.217-.428c-.045-.186-.068-.472-.068-.859v-3.61h-.48v-.195c.121-.086.246-.232.373-.438a3.82 3.82 0 0 0 .342-.73c.053-.148.123-.42.215-.815h.101zM133.282 69.234c-.002.797.107 1.422.328 1.875s.479.68.777.68c.197 0 .371-.096.518-.288.145-.191.268-.522.367-.993l.102.117c-.045.537-.18 1.023-.402 1.461s-.502.656-.838.656c-.363 0-.676-.251-.934-.753-.26-.502-.389-1.177-.389-2.024 0-.918.133-1.634.398-2.147s.6-.771 1-.771c.34 0 .619.198.836.596.219.396.328.927.328 1.592h-2.091zm0-.343h1.404c-.012-.344-.035-.586-.07-.727-.055-.219-.137-.391-.246-.516s-.223-.188-.342-.188c-.184 0-.348.126-.492.378s-.228.603-.254 1.053zM136.685 68.197c.219-.394.35-.619.389-.679.1-.149.207-.266.32-.348a.583.583 0 0 1 .342-.124c.189 0 .352.099.488.295s.229.481.275.855c.227-.472.418-.782.576-.929.156-.148.316-.222.482-.222a.55.55 0 0 1 .428.22c.125.147.225.387.297.72.049.227.072.583.072 1.068v2.313c0 .335.016.565.043.69a.49.49 0 0 0 .123.219c.061.061.158.091.293.091v.211h-1.5v-.211h.063a.37.37 0 0 0 .305-.135.62.62 0 0 0 .109-.298c.01-.066.014-.256.014-.567v-2.309c0-.438-.029-.746-.09-.926-.086-.25-.223-.375-.412-.375a.54.54 0 0 0-.352.155c-.119.104-.262.296-.428.577l-.008.064.01.252v2.561c0 .366.012.595.035.685.021.09.064.164.129.225.063.061.172.091.326.091v.211h-1.531v-.211c.166 0 .279-.035.344-.105a.64.64 0 0 0 .129-.315c.012-.066.016-.26.016-.579v-2.309c0-.438-.035-.753-.107-.946-.098-.252-.232-.378-.406-.378-.119 0-.236.058-.352.171a1.845 1.845 0 0 0-.422.585v2.877c0 .351.014.579.041.685s.068.184.121.236.162.079.326.079v.211h-1.5v-.211c.139 0 .236-.026.291-.079s.098-.137.125-.251c.029-.115.043-.339.043-.67v-2.055c0-.592-.01-.974-.029-1.146a.66.66 0 0 0-.074-.268.152.152 0 0 0-.135-.073.414.414 0 0 0-.223.088l-.051-.211.92-.656h.145v1.151z"/><linearGradient id="j" gradientUnits="userSpaceOnUse" x1="75.56" y1="1.815" x2="130.866" y2="57.121"><stop offset="0" stop-color="#ead18f"/><stop offset=".076" stop-color="#e1c477"/><stop offset=".221" stop-color="#d1af4e"/><stop offset=".335" stop-color="#c8a235"/><stop offset=".405" stop-color="#c49d2c"/><stop offset=".559" stop-color="#d4b35c"/><stop offset=".766" stop-color="#e7cd97"/><stop offset=".919" stop-color="#f3debb"/><stop offset="1" stop-color="#f8e4c9"/></linearGradient><linearGradient id="k" gradientUnits="userSpaceOnUse" x1="94.897" y1="15.034" x2="150.203" y2="70.339"><stop offset="0" stop-color="#ead18f"/><stop offset=".076" stop-color="#e1c477"/><stop offset=".221" stop-color="#d1af4e"/><stop offset=".335" stop-color="#c8a235"/><stop offset=".405" stop-color="#c49d2c"/><stop offset=".559" stop-color="#d4b35c"/><stop offset=".766" stop-color="#e7cd97"/><stop offset=".919" stop-color="#f3debb"/><stop offset="1" stop-color="#f8e4c9"/></linearGradient></svg>