<?xml version="1.0" encoding="utf-8"?><svg xmlns="http://www.w3.org/2000/svg" width="99" height="81" viewBox="69.345 30.736 99 81"><linearGradient id="a" gradientUnits="userSpaceOnUse" x1="42.902" y1="46.634" x2="98.412" y2="102.144"><stop offset="0" stop-color="#ead18f"/><stop offset=".076" stop-color="#e1c477"/><stop offset=".221" stop-color="#d1af4e"/><stop offset=".335" stop-color="#c8a235"/><stop offset=".405" stop-color="#c49d2c"/><stop offset=".559" stop-color="#d4b35c"/><stop offset=".766" stop-color="#e7cd97"/><stop offset=".919" stop-color="#f3debb"/><stop offset="1" stop-color="#f8e4c9"/></linearGradient><linearGradient id="b" gradientUnits="userSpaceOnUse" x1="42.651" y1="78.882" x2="97.904" y2="134.135"><stop offset="0" stop-color="#ead18f"/><stop offset=".076" stop-color="#e1c477"/><stop offset=".221" stop-color="#d1af4e"/><stop offset=".335" stop-color="#c8a235"/><stop offset=".405" stop-color="#c49d2c"/><stop offset=".559" stop-color="#d4b35c"/><stop offset=".766" stop-color="#e7cd97"/><stop offset=".919" stop-color="#f3debb"/><stop offset="1" stop-color="#f8e4c9"/></linearGradient><linearGradient id="c" gradientUnits="userSpaceOnUse" x1="43.106" y1="58.753" x2="98.65" y2="114.297"><stop offset="0" stop-color="#ead18f"/><stop offset=".076" stop-color="#e1c477"/><stop offset=".221" stop-color="#d1af4e"/><stop offset=".335" stop-color="#c8a235"/><stop offset=".405" stop-color="#c49d2c"/><stop offset=".559" stop-color="#d4b35c"/><stop offset=".766" stop-color="#e7cd97"/><stop offset=".919" stop-color="#f3debb"/><stop offset="1" stop-color="#f8e4c9"/></linearGradient><linearGradient id="d" gradientUnits="userSpaceOnUse" x1="83.804" y1="62.856" x2="139.109" y2="118.162"><stop offset="0" stop-color="#ead18f"/><stop offset=".076" stop-color="#e1c477"/><stop offset=".221" stop-color="#d1af4e"/><stop offset=".335" stop-color="#c8a235"/><stop offset=".405" stop-color="#c49d2c"/><stop offset=".559" stop-color="#d4b35c"/><stop offset=".766" stop-color="#e7cd97"/><stop offset=".919" stop-color="#f3debb"/><stop offset="1" stop-color="#f8e4c9"/></linearGradient><linearGradient id="e" gradientUnits="userSpaceOnUse" x1="73.083" y1="75.898" x2="128.389" y2="131.203"><stop offset="0" stop-color="#ead18f"/><stop offset=".076" stop-color="#e1c477"/><stop offset=".221" stop-color="#d1af4e"/><stop offset=".335" stop-color="#c8a235"/><stop offset=".405" stop-color="#c49d2c"/><stop offset=".559" stop-color="#d4b35c"/><stop offset=".766" stop-color="#e7cd97"/><stop offset=".919" stop-color="#f3debb"/><stop offset="1" stop-color="#f8e4c9"/></linearGradient><linearGradient id="f" gradientUnits="userSpaceOnUse" x1="87.082" y1="56.231" x2="142.388" y2="111.537"><stop offset="0" stop-color="#ead18f"/><stop offset=".076" stop-color="#e1c477"/><stop offset=".221" stop-color="#d1af4e"/><stop offset=".335" stop-color="#c8a235"/><stop offset=".405" stop-color="#c49d2c"/><stop offset=".559" stop-color="#d4b35c"/><stop offset=".766" stop-color="#e7cd97"/><stop offset=".919" stop-color="#f3debb"/><stop offset="1" stop-color="#f8e4c9"/></linearGradient><linearGradient id="g" gradientUnits="userSpaceOnUse" x1="21.153" y1="57.983" x2="76.46" y2="113.29"><stop offset="0" stop-color="#ead18f"/><stop offset=".076" stop-color="#e1c477"/><stop offset=".221" stop-color="#d1af4e"/><stop offset=".335" stop-color="#c8a235"/><stop offset=".405" stop-color="#c49d2c"/><stop offset=".559" stop-color="#d4b35c"/><stop offset=".766" stop-color="#e7cd97"/><stop offset=".919" stop-color="#f3debb"/><stop offset="1" stop-color="#f8e4c9"/></linearGradient><linearGradient id="h" gradientUnits="userSpaceOnUse" x1="91.372" y1="46.078" x2="146.477" y2="101.183"><stop offset="0" stop-color="#ead18f"/><stop offset=".076" stop-color="#e1c477"/><stop offset=".221" stop-color="#d1af4e"/><stop offset=".335" stop-color="#c8a235"/><stop offset=".405" stop-color="#c49d2c"/><stop offset=".559" stop-color="#d4b35c"/><stop offset=".766" stop-color="#e7cd97"/><stop offset=".919" stop-color="#f3debb"/><stop offset="1" stop-color="#f8e4c9"/></linearGradient><path opacity=".8" fill="url(#h)" d="M70.42 67.029h97.01v13.202H70.42z"/><path fill="#ABABAB" d="M80.58 95.407c-.472.589-.953.955-1.44 1.087-.221.054-.561.159-1.018.319-.222.135-.561.283-1.019.444-.566.079-.959.145-1.18.2a3.694 3.694 0 0 0-1.16.482c-.125-.269-.228-.683-.307-1.248-.063-.373-.165-.626-.306-.762a5.26 5.26 0 0 1-.025-.48c0-.565.106-1.085.319-1.569.213-.482.483-.724.815-.724.961.054 2.255.054 3.879 0 .659-.025 1.107.03 1.346.163.427.212.758.722.993 1.527-.329.053-.63.241-.897.561zm8.487 2.212c-4.319 7.338-8.511 11.958-12.577 13.859l-1.277-1.485a5.157 5.157 0 0 1-.071-.805c0-.533.245-1.525.732-2.976.711-.345 1.429-.694 2.151-1.041.82-.43 1.521-.86 2.104-1.286 1.31-1.02 3.233-3.213 5.77-6.59.3-.399 1.104-1.673 2.413-3.815.961-1.583 1.827-2.705 2.599-3.375l.568.282c-.128 2.302-.931 4.712-2.412 7.232zm-6.171-9.573c-.299.562-.543.815-.73.764l-4.043-.924c-.063 0-.184.06-.355.181-.174.121-.308.178-.402.178l-.189-.04-.379-1.965c-.062-.24-.03-.589.095-1.043.252-.934.813-1.404 1.681-1.404.203 0 .448.109.732.321.377.242.621.375.732.403.41.131 1.062.385 1.961.759.914.457 1.498 1.153 1.75 2.089-.315-.001-.6.225-.853.681zM115.521 109.271l-1.041.925c-1.275-.698-2.637-2.117-4.089-4.263a1566.9 1566.9 0 0 1-3.571-5.542c-.235.268-1.534 2.006-3.899 5.223-1.527 2.063-2.962 3.479-4.302 4.257-.063-.159-.197-.294-.402-.401a18.526 18.526 0 0 1-1.086-.521c-.489-.216-.813-.44-.971-.683-.049-.081-.164-.563-.355-1.447.22-.75.647-1.246 1.275-1.483a21.79 21.79 0 0 0 1.586-.466c.521-.173 1.253-.795 2.198-1.868 2.08-2.304 3.602-4.299 4.563-5.985.727-1.26 1.885-3.751 3.477-7.472l-.402-.163c-.568.135-1.253.242-2.058.321-.738.133-1.844.349-3.31.645-.474.082-.938.161-1.394.238-.521.163-.94.486-1.253.968l-.354-.282c0-1.527-.04-2.491-.119-2.894.032-.831.307-1.462.827-1.889.144-.107.622-.361 1.442-.761.251.643.44.946.568.924l5.744-1.005.236-.042c.253 0 .52.107.804.321.031-.028.259-.389.687-1.085.267-.427.518-.643.756-.643.095 0 .205.027.331.083.095.319.373.657.839 1.002.464.349.806.775 1.028 1.287-.992 1.688-1.64 2.904-1.939 3.653a95.66 95.66 0 0 1-1.133 3.097c-.128.292-.507 1.003-1.135 2.13-.507.911-.819 1.659-.945 2.248.88 1.073 1.756 2.156 2.622 3.257.93 1.068 1.946 1.79 3.051 2.167.993.214 2.482.683 4.466 1.406-.251.807-.72 1.64-1.405 2.51-.686.873-1.133 1.617-1.337 2.233zM140.509 97.258c-.206.054-.476.31-.815.764-.338.458-.649.685-.934.685-.172 0-.582-.173-1.229-.522-.754-.428-1.215-.67-1.369-.724-.302.026-.742-.014-1.324-.119l-.428.157-.804-.357c-.173.294-.347 1.125-.519 2.487l-.284 1.848c-.128.696-.274 1.271-.448 1.728a17.286 17.286 0 0 1-2.058 3.734c-.914 1.257-1.798 2.09-2.648 2.493-1.448.722-2.514 1.083-3.19 1.083-.235 0-.891-.094-1.962-.284l-.331-1.243c.045-1.606.458-2.624 1.228-3.055.317-.161 1.081-.24 2.295-.24.505 0 1.056-.119 1.653-.361.758-.321 1.576-1.06 2.459-2.212.992-1.312 1.491-2.519 1.491-3.615 0-.081-.01-.202-.027-.361l-.044-.323c-.331-.426-.576-1.045-.733-1.849l-.33-.281c-.472-.028-1.174-.012-2.104.042-.349.052-1.15.292-2.413.722-1.309.456-2.072.779-2.293.964-.221.188-.41.523-.568 1.006l-.4.242-.545-.082-.215-1.324c.141-1.044.269-1.797.381-2.251.189-.832.448-1.447.779-1.849 1.214-.268 3.033-.645 5.462-1.125.661-.109 1.624-.161 2.885-.161 1.275 0 3.932.294 7.967.885.031 0 .077-.03.142-.081l.235-.08.236.08c.048.028.103.051.168.081l1.158-.161.615.44c-.097.482-.288 1.055-.57 1.712-.286.654-.474 1.157-.569 1.507zm-2.884-10.126c-.078 1.126-.692 1.688-1.843 1.688-.282 0-.694-.04-1.228-.121-.54-.08-.94-.121-1.209-.121-.125 0-.29-.026-.497-.08-.267-.055-.433-.093-.494-.121a10.126 10.126 0 0 0-1.586-.119c-.235 0-.945.091-2.125.28-1.185.187-1.822.321-1.916.402-.015 0-.107.121-.272.361-.166.242-.304.351-.415.321l-.495-.201-.4-1.527c.091-1.418.454-2.263 1.087-2.531.251 0 .628-.069 1.135-.2 1.229-.563 2.664-.792 4.302-.685 1.972.133 2.987.203 3.049.203a5.84 5.84 0 0 1 2.933 1.446c-.002.243-.011.576-.026 1.005zM163.11 109.101c-.22 0-.512-.081-.874-.239-.409-.163-.693-.27-.851-.323-.363-.054-1.626-.2-3.781-.442-1.452-.159-2.264-.24-2.437-.24-3.404 0-6.233 1.071-8.489 3.213-.598-.882-.897-2.328-.897-4.338 0-.268.136-.591.404-.964.424-.216.754-.31.992-.283.551-.48 1.069-1.409 1.56-2.776.376-1.124.757-2.248 1.134-3.372.334-.832.812-2.089 1.442-3.777.191-.615.479-1.527.875-2.733.362-1.043.613-1.833.755-2.37a18.27 18.27 0 0 0 .591-2.491l-.044-.119a1.563 1.563 0 0 1-.238-.803c0-.831.252-1.474.756-1.928a84.53 84.53 0 0 0 1.395-.805c.412.295.986.67 1.725 1.126.222.347.334.913.334 1.688 0 .429-.197.924-.593 1.486-.298.402-.6.805-.899 1.204-.99 1.797-2.212 4.919-3.664 9.362-.328.804-.661 1.606-.991 2.409-.408 1.02-.631 1.876-.662 2.572 1.197-.347 2.64-.521 4.327-.521 2.727 0 4.665.216 5.815.643-.267-1.341-.566-2.237-.898-2.693a38.221 38.221 0 0 1-.732-1.003 11.492 11.492 0 0 1-.59-1.325c.156-1.152.582-1.832 1.273-2.051.238.109.578.31 1.02.604.016 0 .251.349.707 1.045.207.242.513.643.923 1.206.314.481.701 1.552 1.158 3.214.379 1.339.671 2.532.876 3.579a4.266 4.266 0 0 1-.521 1.548c-.27.461-.572.697-.901.697z"/><path d="M79.771 94.036c-.472.589-.951.95-1.44 1.085-.221.054-.561.161-1.017.321-.221.133-.559.282-1.018.443-.566.081-.961.149-1.181.2-.443.107-.828.27-1.158.484-.128-.268-.23-.684-.31-1.246-.06-.375-.162-.631-.306-.764a5.964 5.964 0 0 1-.024-.482c0-.565.105-1.085.318-1.569.215-.48.485-.722.816-.722.961.052 2.256.052 3.878 0 .661-.025 1.112.026 1.346.161.428.216.758.724.996 1.527-.331.052-.631.241-.9.562zm8.488 2.21c-4.316 7.338-8.511 11.96-12.574 13.862l-1.278-1.487a5.007 5.007 0 0 1-.071-.804c0-.537.243-1.527.732-2.972.71-.352 1.427-.696 2.152-1.048a16.551 16.551 0 0 0 2.104-1.283c1.307-1.018 3.23-3.214 5.77-6.59.297-.403 1.102-1.674 2.41-3.816.961-1.579 1.827-2.704 2.601-3.376l.566.282c-.126 2.303-.929 4.713-2.412 7.232zm-6.169-9.573c-.3.563-.543.817-.732.762l-4.043-.922c-.064 0-.182.06-.354.181-.176.121-.309.181-.403.181l-.188-.04-.379-1.965c-.064-.242-.031-.587.095-1.043.251-.936.812-1.402 1.68-1.402.203 0 .448.105.73.319.377.24.623.373.733.401.409.133 1.065.387 1.962.759.915.457 1.499 1.152 1.75 2.089-.316-.002-.6.224-.851.68zM114.714 107.899l-1.038.922c-1.28-.696-2.642-2.114-4.093-4.26a1126.86 1126.86 0 0 1-3.569-5.542c-.236.268-1.537 2.009-3.899 5.219-1.529 2.066-2.964 3.488-4.302 4.264-.066-.162-.197-.296-.404-.402a24.37 24.37 0 0 1-1.087-.521c-.487-.215-.812-.442-.971-.687-.044-.077-.164-.56-.354-1.444.221-.751.646-1.246 1.276-1.486a20.613 20.613 0 0 0 1.585-.464c.521-.173 1.253-.796 2.198-1.869 2.08-2.302 3.603-4.297 4.563-5.985.725-1.257 1.885-3.747 3.474-7.472l-.4-.161a16.43 16.43 0 0 1-2.057.321c-.74.135-1.845.349-3.311.641-.472.083-.938.163-1.394.244-.522.161-.939.482-1.255.964l-.354-.282c0-1.527-.041-2.491-.118-2.894.031-.829.308-1.458.827-1.889.142-.105.623-.359 1.442-.761.252.643.441.95.566.924l5.744-1.006.238-.042c.253 0 .518.109.805.323.03-.026.259-.389.686-1.085.268-.431.519-.645.754-.645.095 0 .207.03.333.083.095.319.373.655.837 1.004.466.349.811.775 1.03 1.285-.993 1.688-1.639 2.908-1.94 3.658-.236.694-.613 1.728-1.131 3.092-.128.296-.507 1.006-1.138 2.13-.504.909-.819 1.658-.945 2.25a206.933 206.933 0 0 1 2.624 3.254c.93 1.071 1.947 1.794 3.051 2.169.992.215 2.482.683 4.468 1.406-.253.804-.721 1.639-1.407 2.513-.685.87-1.129 1.612-1.334 2.231zM139.701 95.885c-.203.054-.474.307-.814.764-.34.458-.649.686-.934.686-.176 0-.582-.177-1.231-.523-.756-.429-1.212-.668-1.369-.722-.299.026-.74-.012-1.324-.121l-.425.16-.803-.361c-.176.296-.348 1.125-.522 2.492-.125.827-.22 1.441-.28 1.847-.127.693-.28 1.27-.45 1.725a17.185 17.185 0 0 1-2.059 3.735c-.915 1.26-1.797 2.089-2.647 2.489-1.45.724-2.513 1.085-3.191 1.085-.236 0-.89-.095-1.961-.279l-.332-1.248c.046-1.604.456-2.624 1.229-3.054.314-.16 1.078-.239 2.293-.239.504 0 1.056-.121 1.654-.363.759-.321 1.578-1.058 2.46-2.21.991-1.312 1.49-2.518 1.49-3.618 0-.078-.012-.196-.026-.357l-.047-.323c-.331-.429-.574-1.043-.73-1.849l-.333-.282c-.472-.026-1.174-.014-2.104.04-.346.054-1.15.296-2.413.723-1.309.458-2.07.78-2.293.968-.22.185-.408.521-.566 1.003l-.402.242-.545-.079-.213-1.327c.144-1.047.27-1.795.381-2.251.188-.833.447-1.448.779-1.851 1.215-.268 3.031-.643 5.462-1.125.661-.105 1.622-.161 2.883-.161 1.278 0 3.935.296 7.968.885.03 0 .079-.026.141-.081l.236-.08.237.08c.049.027.101.055.169.081l1.155-.161.613.44c-.095.486-.282 1.055-.566 1.712-.284.655-.473 1.159-.57 1.508zm-2.885-10.124c-.073 1.125-.692 1.688-1.843 1.688-.28 0-.693-.042-1.229-.123-.535-.08-.938-.119-1.204-.119-.128 0-.292-.026-.497-.082-.269-.051-.434-.091-.495-.121a10.12 10.12 0 0 0-1.587-.119c-.236 0-.943.093-2.125.28-1.186.19-1.821.323-1.918.402-.014 0-.106.121-.271.365-.166.238-.304.345-.414.317l-.495-.201-.405-1.525c.098-1.42.458-2.263 1.09-2.533.252 0 .631-.067 1.135-.2 1.228-.563 2.664-.79 4.304-.682 1.971.133 2.987.2 3.049.2 1.138.216 2.111.698 2.934 1.448a28.55 28.55 0 0 1-.029 1.005zM162.305 107.729c-.223 0-.515-.081-.874-.24-.412-.16-.694-.27-.853-.321-.363-.052-1.624-.202-3.784-.444-1.45-.158-2.258-.237-2.432-.237-3.405 0-6.235 1.07-8.49 3.213-.599-.885-.896-2.329-.896-4.34 0-.266.133-.592.4-.965.425-.215.758-.31.995-.282.55-.481 1.071-1.408 1.559-2.772.377-1.126.758-2.252 1.135-3.373.331-.831.813-2.09 1.44-3.779.191-.617.481-1.525.878-2.733.361-1.043.612-1.833.754-2.37a19.36 19.36 0 0 0 .592-2.489l-.047-.121a1.59 1.59 0 0 1-.237-.803c0-.831.253-1.474.758-1.93.476-.266.938-.536 1.394-.801.41.292.984.668 1.725 1.123.223.351.333.911.333 1.688 0 .431-.195.924-.592 1.488l-.899 1.204c-.991 1.797-2.214 4.917-3.661 9.363l-.996 2.409c-.406 1.018-.628 1.874-.659 2.574 1.196-.352 2.639-.526 4.325-.526 2.726 0 4.665.217 5.815.643-.267-1.339-.566-2.234-.899-2.69a37.73 37.73 0 0 1-.73-1.005c-.172-.32-.371-.762-.592-1.325.156-1.151.582-1.835 1.274-2.047.239.107.578.308 1.019.603.016 0 .252.347.71 1.043.205.242.512.646.922 1.206.315.48.7 1.554 1.158 3.215.379 1.339.671 2.53.872 3.577a4.208 4.208 0 0 1-.519 1.547c-.268.464-.568.697-.898.697zM72.895 69.528h1.2l2.725 6.055v-4.658c0-.494-.031-.802-.091-.925a.405.405 0 0 0-.385-.249h-.154v-.222h1.548v.222h-.156c-.189 0-.323.103-.4.309-.048.126-.073.415-.073.866v6.803h-.118l-2.931-6.497v4.97c0 .494.028.802.089.925.083.166.211.249.385.249h.156v.222h-1.55v-.222h.155c.189 0 .324-.103.404-.309.046-.127.071-.415.071-.866v-5.609a3.74 3.74 0 0 0-.294-.542 1.003 1.003 0 0 0-.294-.245.6.6 0 0 0-.288-.054v-.223zM79.746 76.81c-.307.433-.5.683-.58.75a.574.574 0 0 1-.377.148c-.206 0-.377-.129-.512-.387-.134-.259-.201-.598-.201-1.019 0-.267.032-.497.099-.691.089-.271.245-.525.466-.763.223-.238.592-.529 1.105-.87v-.214c0-.542-.046-.916-.141-1.117-.095-.203-.232-.304-.412-.304-.137 0-.245.067-.326.201a.858.858 0 0 0-.124.463l.006.344c0 .183-.025.323-.077.421-.053.099-.12.149-.203.149s-.149-.052-.201-.155a.931.931 0 0 1-.077-.421c0-.341.097-.655.288-.939a.921.921 0 0 1 .81-.428c.267 0 .487.081.657.244.13.123.225.315.284.577.041.171.061.519.061 1.046v1.851c0 .519.006.837.016.954a.585.585 0 0 0 .054.235c.027.04.054.06.089.06s.065-.014.091-.042c.047-.052.136-.196.267-.435v.333c-.245.598-.479.896-.703.896-.106 0-.193-.067-.258-.201-.064-.132-.097-.362-.101-.686zm0-.388v-2.078c-.328.238-.541.407-.638.506a1.62 1.62 0 0 0-.369.548c-.075.19-.112.398-.112.625 0 .286.047.524.142.712.093.188.201.283.324.283.166 0 .383-.199.653-.596zM81.908 70.346v1.793h.701v.42h-.701v3.537c0 .353.026.591.083.714.056.123.128.185.215.185.071 0 .141-.041.209-.122a.913.913 0 0 0 .158-.362h.126c-.076.39-.187.682-.325.879-.142.196-.286.295-.436.295-.1 0-.198-.051-.295-.152s-.167-.246-.215-.435c-.045-.188-.068-.479-.068-.873v-3.667h-.477v-.198c.121-.087.245-.236.371-.445.125-.208.239-.457.338-.742.053-.151.122-.427.215-.828h.101zM83.937 71.98v4.387c0 .34.013.567.04.681a.522.522 0 0 0 .122.251c.052.056.15.083.292.083v.214h-1.46v-.214c.146 0 .244-.026.294-.077a.56.56 0 0 0 .12-.255c.03-.119.044-.347.044-.684v-2.11c0-.59-.01-.973-.028-1.146a.663.663 0 0 0-.074-.265.15.15 0 0 0-.135-.074.428.428 0 0 0-.225.089l-.044-.214.908-.667h.146zm-.27-2.848c.091 0 .169.058.234.175a.882.882 0 0 1 .097.424c0 .167-.033.31-.097.428-.065.119-.144.178-.234.178-.093 0-.172-.06-.235-.178a.876.876 0 0 1-.099-.428c0-.167.031-.307.097-.424.063-.117.142-.175.237-.175zM86.237 71.98c.456 0 .821.313 1.096.941.234.536.352 1.151.352 1.847 0 .488-.065.983-.193 1.484-.129.5-.307.876-.533 1.131-.227.254-.479.381-.756.381-.454 0-.814-.327-1.081-.983-.224-.551-.338-1.171-.338-1.858 0-.5.069-.998.207-1.492.135-.495.314-.86.539-1.097.222-.236.457-.354.707-.354zm-.1.389c-.116 0-.232.063-.351.188-.116.125-.211.345-.282.658-.071.313-.108.717-.108 1.21 0 .793.087 1.479.262 2.055.174.576.401.864.684.864.213 0 .387-.159.524-.477.138-.317.207-.863.207-1.639 0-.969-.114-1.731-.345-2.287-.155-.382-.352-.572-.591-.572zM89.006 73.133c.352-.769.686-1.153 1.005-1.153.164 0 .304.074.422.223.117.149.213.395.282.737.048.238.071.604.071 1.097v2.331c0 .344.016.578.047.701a.475.475 0 0 0 .115.231c.055.056.153.083.298.083v.214h-1.492v-.214h.062c.142 0 .238-.039.294-.116a.759.759 0 0 0 .116-.341c.01-.06.014-.246.014-.559V74.13c0-.497-.035-.858-.104-1.083-.071-.225-.191-.337-.357-.337-.258 0-.517.259-.771.774v2.883c0 .368.011.596.036.684a.554.554 0 0 0 .126.252c.054.053.162.08.327.08v.214h-1.491v-.214h.065c.153 0 .256-.07.31-.211.053-.14.079-.408.079-.804v-2.031c0-.655-.008-1.053-.024-1.196-.016-.143-.041-.24-.076-.292a.153.153 0 0 0-.137-.077.412.412 0 0 0-.221.089l-.048-.214.912-.667h.142v1.153zM93.184 76.81c-.308.433-.501.683-.58.75a.575.575 0 0 1-.377.148c-.207 0-.379-.129-.513-.387-.135-.259-.201-.598-.201-1.019 0-.267.033-.497.099-.691a2.05 2.05 0 0 1 .467-.763c.222-.238.589-.529 1.105-.87v-.214c0-.542-.049-.916-.142-1.117-.095-.203-.231-.304-.413-.304-.136 0-.246.067-.325.201a.867.867 0 0 0-.124.463l.006.344c0 .183-.024.323-.077.421-.052.099-.12.149-.205.149-.081 0-.146-.052-.199-.155a.942.942 0 0 1-.079-.421c0-.341.097-.655.29-.939a.92.92 0 0 1 .811-.428c.267 0 .485.081.655.244.13.123.225.315.286.577.039.171.06.519.06 1.046v1.851c0 .519.004.837.016.954a.598.598 0 0 0 .055.235c.024.04.054.06.087.06a.129.129 0 0 0 .093-.042c.046-.052.133-.196.267-.435v.333c-.246.598-.481.896-.704.896-.108 0-.193-.067-.257-.201-.066-.132-.099-.362-.101-.686zm0-.388v-2.078c-.331.238-.543.407-.638.506a1.643 1.643 0 0 0-.371.548c-.074.19-.11.398-.11.625 0 .286.046.524.139.712.095.188.203.283.325.283.165 0 .384-.199.655-.596zM95.506 69.132v7.235c0 .34.014.566.04.677.027.111.07.195.128.252.056.058.162.086.317.086v.214h-1.479v-.214c.14 0 .234-.026.284-.077a.532.532 0 0 0 .12-.255c.029-.119.042-.347.042-.684v-4.958c0-.612-.008-.987-.022-1.127-.016-.14-.039-.235-.074-.287a.15.15 0 0 0-.129-.077c-.057 0-.13.032-.217.095l-.056-.214.896-.666h.15zM99.183 73.265h2.065v-2.309c0-.41-.014-.68-.043-.811a.51.51 0 0 0-.137-.254.426.426 0 0 0-.3-.142h-.159v-.222h1.908v.222h-.158a.429.429 0 0 0-.3.136.51.51 0 0 0-.143.287c-.025.128-.039.39-.039.784v5.212c0 .408.016.677.043.808a.526.526 0 0 0 .135.255.432.432 0 0 0 .304.143h.158v.222h-1.908v-.222h.159c.182 0 .314-.097.398-.291.054-.127.081-.433.081-.916v-2.459h-2.065v2.459c0 .408.016.677.045.808a.506.506 0 0 0 .137.255.416.416 0 0 0 .298.143h.161v.222h-1.908v-.222h.158c.184 0 .319-.097.402-.291.052-.127.079-.433.079-.916v-5.212c0-.41-.016-.68-.043-.811a.532.532 0 0 0-.135-.254.435.435 0 0 0-.304-.142h-.158v-.222h1.908v.222h-.161a.424.424 0 0 0-.298.136.529.529 0 0 0-.141.287c-.027.128-.041.39-.041.784v2.311zM103.372 74.201c-.003.81.104 1.444.323 1.904s.476.69.771.69c.195 0 .367-.097.513-.293.145-.194.267-.53.365-1.008l.101.119c-.047.545-.18 1.039-.4 1.483s-.497.667-.829.667c-.361 0-.671-.255-.927-.765-.257-.51-.387-1.195-.387-2.056 0-.933.134-1.659.396-2.181.264-.521.594-.782.992-.782.336 0 .612.201.829.605.217.402.325.941.325 1.616h-2.072zm0-.349h1.391c-.012-.349-.033-.595-.069-.738-.055-.222-.136-.396-.244-.523s-.222-.19-.34-.19c-.182 0-.345.128-.487.384-.144.255-.227.611-.251 1.067zM107.549 76.81c-.308.433-.501.683-.58.75a.575.575 0 0 1-.377.148c-.207 0-.379-.129-.513-.387-.135-.259-.201-.598-.201-1.019 0-.267.031-.497.097-.691.091-.271.246-.525.468-.763.223-.238.59-.529 1.106-.87v-.214c0-.542-.049-.916-.142-1.117-.095-.203-.233-.304-.413-.304-.138 0-.246.067-.325.201a.867.867 0 0 0-.124.463l.006.344c0 .183-.024.323-.077.421-.052.099-.12.149-.205.149-.081 0-.148-.052-.199-.155a.942.942 0 0 1-.079-.421c0-.341.097-.655.29-.939a.92.92 0 0 1 .811-.428c.267 0 .485.081.655.244.129.123.224.315.286.577.038.171.06.519.06 1.046v1.851c0 .519.004.837.016.954a.621.621 0 0 0 .054.235c.025.04.055.06.088.06a.129.129 0 0 0 .093-.042c.046-.052.133-.196.267-.435v.333c-.246.598-.481.896-.706.896-.106 0-.191-.067-.255-.201-.067-.132-.099-.362-.101-.686zm0-.388v-2.078c-.331.238-.543.407-.638.506a1.632 1.632 0 0 0-.372.548c-.073.19-.109.398-.109.625 0 .286.046.524.139.712.095.188.203.283.325.283.166 0 .384-.199.655-.596zM109.871 69.132v7.235c0 .34.013.566.04.677a.524.524 0 0 0 .126.252c.058.058.164.086.319.086v.214h-1.479v-.214c.14 0 .234-.026.284-.077a.532.532 0 0 0 .12-.255c.028-.119.042-.347.042-.684v-4.958c0-.612-.008-.987-.022-1.127-.016-.14-.039-.235-.074-.287-.034-.051-.077-.077-.129-.077-.057 0-.13.032-.217.095l-.056-.214.896-.666h.15zM111.576 70.346v1.793h.701v.42h-.701v3.537c0 .353.026.591.083.714.056.123.128.185.215.185.071 0 .143-.041.209-.122a.886.886 0 0 0 .158-.362h.126c-.076.39-.187.682-.325.879-.142.196-.286.295-.434.295-.102 0-.2-.051-.297-.152s-.167-.246-.213-.435c-.047-.188-.07-.479-.07-.873v-3.667h-.477v-.198c.121-.087.245-.236.371-.445.125-.208.239-.457.338-.742.053-.151.124-.427.215-.828h.101zM113.447 69.132v3.986c.242-.485.436-.795.576-.933.142-.137.284-.205.426-.205.17 0 .316.085.44.257.122.17.213.438.271.804.043.254.063.719.063 1.396v1.931c0 .344.016.58.046.707.021.095.061.17.112.225.052.056.149.083.288.083v.214h-1.479v-.214h.069c.139 0 .237-.039.292-.116a.773.773 0 0 0 .113-.341c.008-.063.012-.25.012-.559v-1.931c0-.596-.017-.988-.052-1.174-.033-.187-.087-.327-.16-.42a.339.339 0 0 0-.27-.14c-.105 0-.218.052-.334.155-.114.103-.253.312-.414.626v2.885c0 .372.012.604.035.695a.44.44 0 0 0 .128.228c.062.062.17.092.322.092v.214h-1.492v-.214a.427.427 0 0 0 .314-.113c.045-.04.08-.114.106-.225.025-.111.039-.337.039-.677v-4.935c0-.622-.008-1.005-.025-1.146a.749.749 0 0 0-.075-.292.159.159 0 0 0-.138-.077c-.046 0-.119.032-.224.095l-.047-.214.903-.666h.155zM119.466 77.375v.222h-1.906v-.222h.157c.186 0 .318-.097.401-.291.055-.127.08-.433.08-.916v-5.212c0-.408-.014-.678-.043-.809a.537.537 0 0 0-.136-.255c-.097-.095-.196-.143-.303-.143h-.157v-.222h1.906v.222h-.16c-.18 0-.313.097-.396.291-.054.127-.081.433-.081.916v5.212c0 .408.014.677.043.808a.506.506 0 0 0 .137.255c.095.095.193.143.298.143h.16zM120.725 73.133c.351-.769.687-1.153 1.004-1.153.164 0 .306.074.423.223.118.149.213.395.282.737.047.238.072.604.072 1.097v2.331c0 .344.015.578.046.701a.476.476 0 0 0 .116.231c.054.056.152.083.296.083v.214h-1.491v-.214h.063c.139 0 .237-.039.294-.116a.747.747 0 0 0 .115-.341c.01-.06.014-.246.014-.559V74.13c0-.497-.034-.858-.106-1.083-.069-.225-.189-.337-.355-.337-.259 0-.516.259-.771.774v2.883c0 .368.012.596.037.684a.518.518 0 0 0 .126.252c.054.053.162.08.326.08v.214h-1.49v-.214h.065c.152 0 .255-.07.308-.211.054-.14.081-.408.081-.804v-2.031c0-.655-.008-1.053-.025-1.196-.016-.143-.04-.24-.075-.292s-.079-.077-.138-.077a.407.407 0 0 0-.22.089l-.049-.214.911-.667h.143v1.153zM125.143 71.98v1.856h-.108c-.083-.584-.189-.981-.318-1.191-.13-.211-.296-.316-.497-.316-.153 0-.276.073-.369.221a.876.876 0 0 0-.142.488c0 .223.035.414.104.573.067.163.205.335.412.518l.479.423c.444.394.667.912.667 1.555 0 .497-.103.896-.31 1.201-.207.303-.439.455-.694.455-.184 0-.395-.06-.63-.179a.398.398 0 0 0-.178-.059c-.051 0-.09.05-.118.15h-.108v-1.944h.108c.062.557.178.976.352 1.259.172.283.365.423.58.423.151 0 .274-.08.369-.242.095-.161.144-.355.144-.582 0-.274-.055-.506-.161-.692-.104-.188-.316-.424-.634-.709-.317-.287-.525-.544-.624-.774-.099-.226-.147-.512-.147-.858 0-.448.085-.823.253-1.125.171-.302.389-.452.658-.452.117 0 .261.046.429.139.112.061.186.091.225.091a.093.093 0 0 0 .081-.042.716.716 0 0 0 .069-.188h.108zM128.454 72.139v3.316c0 .627.008 1.012.023 1.152.018.141.043.238.079.293.037.056.08.083.128.083.067 0 .145-.034.23-.102l.046.214-.9.667h-.149V76.61c-.257.508-.456.826-.592.957-.135.131-.278.196-.429.196-.168 0-.315-.088-.439-.265a1.705 1.705 0 0 1-.257-.683c-.048-.277-.071-.67-.071-1.179V73.2c0-.261-.016-.441-.047-.542a.496.496 0 0 0-.135-.232c-.061-.055-.171-.08-.327-.076v-.214h1.054v3.654c0 .51.051.843.147 1.002.097.16.214.239.352.239.095 0 .201-.054.321-.161.117-.108.259-.313.423-.615v-3.096c0-.312-.031-.523-.095-.633-.062-.109-.193-.168-.391-.177v-.214h1.029zM130.06 71.98v1.226c.251-.817.508-1.226.773-1.226.121 0 .22.066.299.199a.896.896 0 0 1 .118.461.804.804 0 0 1-.087.393c-.056.107-.124.161-.203.161-.077 0-.162-.068-.257-.207-.095-.138-.166-.206-.211-.206-.04 0-.083.04-.128.119-.098.164-.2.432-.305.806v2.613c0 .302.021.531.062.687a.604.604 0 0 0 .15.269.435.435 0 0 0 .313.107v.214h-1.545v-.214c.153 0 .268-.043.341-.132.056-.063.093-.165.116-.305.009-.067.015-.261.015-.579v-2.11c0-.637-.006-1.016-.021-1.137a.594.594 0 0 0-.08-.266c-.038-.056-.085-.083-.143-.083a.411.411 0 0 0-.23.089l-.032-.214.914-.667h.141zM133.116 76.81c-.31.433-.503.683-.58.75a.577.577 0 0 1-.377.148c-.209 0-.379-.129-.513-.387-.136-.259-.203-.598-.203-1.019 0-.267.033-.497.099-.691.089-.271.246-.525.468-.763.221-.238.59-.529 1.106-.87v-.214c0-.542-.049-.916-.144-1.117-.095-.203-.231-.304-.411-.304-.138 0-.246.067-.325.201a.869.869 0 0 0-.126.463l.008.344a.943.943 0 0 1-.077.421c-.052.099-.12.149-.205.149-.081 0-.148-.052-.201-.155a.945.945 0 0 1-.077-.421c0-.341.097-.655.288-.939a.924.924 0 0 1 .812-.428c.268 0 .485.081.656.244.129.123.224.315.286.577.038.171.058.519.058 1.046v1.851c0 .519.006.837.018.954.01.117.029.195.054.235.025.04.055.06.087.06a.126.126 0 0 0 .093-.042c.045-.052.134-.196.266-.435v.333c-.246.598-.479.896-.704.896-.106 0-.191-.067-.255-.201-.067-.132-.099-.362-.101-.686zm0-.388v-2.078c-.331.238-.544.407-.641.506a1.636 1.636 0 0 0-.369.548c-.073.19-.112.398-.112.625 0 .286.049.524.142.712.095.188.203.283.325.283.166 0 .385-.199.655-.596zM135.279 73.133c.352-.769.687-1.153 1.006-1.153.164 0 .303.074.421.223.118.149.213.395.282.737.049.238.071.604.071 1.097v2.331c0 .344.016.578.047.701a.476.476 0 0 0 .116.231c.054.056.152.083.298.083v.214h-1.493v-.214h.063c.141 0 .237-.039.294-.116a.77.77 0 0 0 .117-.341c.008-.06.012-.246.012-.559V74.13c0-.497-.034-.858-.104-1.083-.071-.225-.189-.337-.357-.337-.257 0-.515.259-.771.774v2.883c0 .368.012.596.037.684.03.115.071.198.125.252.055.053.163.08.329.08v.214h-1.492v-.214h.065c.152 0 .255-.07.31-.211.052-.14.079-.408.079-.804v-2.031c0-.655-.008-1.053-.023-1.196-.018-.143-.042-.24-.077-.292a.153.153 0 0 0-.136-.077.412.412 0 0 0-.222.089l-.049-.214.913-.667h.141v1.153zM140.311 75.522c-.08.722-.238 1.276-.476 1.662-.236.386-.497.579-.783.579-.343 0-.641-.26-.894-.78s-.381-1.223-.381-2.109c0-.857.142-1.555.422-2.09.28-.537.618-.804 1.011-.804.296 0 .537.142.729.425.189.285.284.579.284.885a.74.74 0 0 1-.079.367c-.054.093-.129.14-.224.14-.13 0-.227-.076-.29-.227-.039-.083-.064-.242-.076-.477-.011-.235-.056-.414-.133-.537a.356.356 0 0 0-.317-.18c-.219 0-.395.147-.527.441-.177.389-.266.904-.266 1.543 0 .653.089 1.228.266 1.727.176.499.411.748.711.748.215 0 .406-.132.576-.396.122-.183.238-.517.353-1l.094.083zM141.246 74.201c-.002.81.106 1.444.324 1.904.219.46.476.69.77.69.197 0 .368-.097.515-.293.145-.194.267-.53.365-1.008l.101.119a4.081 4.081 0 0 1-.4 1.483c-.22.444-.499.667-.829.667-.361 0-.671-.255-.928-.765-.258-.51-.385-1.195-.385-2.056 0-.933.131-1.659.395-2.181.265-.521.595-.782.993-.782.337 0 .613.201.829.605.217.402.325.941.325 1.616h-2.075zm0-.349h1.392c-.012-.349-.034-.595-.069-.738a1.266 1.266 0 0 0-.243-.523c-.108-.127-.223-.19-.341-.19-.182 0-.344.128-.487.384-.144.255-.227.611-.252 1.067zM148.275 69.346v2.793h-.123c-.039-.537-.108-.963-.211-1.28s-.248-.569-.436-.757c-.189-.187-.385-.28-.585-.28-.229 0-.416.126-.565.378a1.662 1.662 0 0 0-.224.859c0 .245.046.469.141.671.136.297.46.693.971 1.189.418.404.702.714.854.93.153.216.269.471.353.765.081.293.123.601.123.922 0 .611-.131 1.138-.393 1.58-.261.442-.597.663-1.009.663-.128 0-.25-.018-.363-.054-.068-.021-.209-.094-.422-.222s-.348-.191-.404-.191c-.056 0-.099.031-.129.091-.033.061-.057.186-.072.376h-.121V75.01h.121c.057.578.134 1.011.23 1.299.095.288.241.527.44.716.197.19.414.286.65.286.272 0 .488-.131.647-.393.156-.262.235-.571.235-.929 0-.198-.028-.398-.089-.601a1.854 1.854 0 0 0-.28-.565c-.087-.119-.318-.371-.701-.757-.381-.385-.654-.692-.814-.922s-.282-.484-.365-.762a3.174 3.174 0 0 1-.124-.915c0-.578.122-1.077.367-1.495.246-.418.558-.628.937-.628.235 0 .486.106.752.318.121.1.209.15.259.15.058 0 .104-.031.142-.093.034-.062.063-.187.085-.375h.123zM148.968 72.139h1.401v.214h-.067a.246.246 0 0 0-.223.117.53.53 0 0 0-.073.291c0 .156.035.372.108.648l.734 2.763.669-3.026c.037-.164.057-.326.057-.486a.451.451 0 0 0-.023-.163.235.235 0 0 0-.081-.105c-.039-.026-.104-.039-.197-.039v-.214h.975v.214a.335.335 0 0 0-.188.096.99.99 0 0 0-.144.269 5.75 5.75 0 0 0-.112.461l-1.222 5.449c-.118.529-.272.928-.464 1.198-.191.271-.377.405-.553.405-.13 0-.236-.067-.319-.202a.876.876 0 0 1-.126-.465c0-.167.031-.301.092-.402.06-.101.143-.152.247-.152.073 0 .172.043.298.132.087.061.141.09.162.09.065 0 .138-.062.217-.186.077-.123.154-.362.233-.716l.213-.955-1.079-4.112a3.986 3.986 0 0 0-.158-.461 1.414 1.414 0 0 0-.133-.281.625.625 0 0 0-.244-.168v-.214zM154.441 71.98v1.856h-.11c-.083-.584-.189-.981-.319-1.191-.129-.211-.296-.316-.494-.316-.155 0-.277.073-.372.221a.892.892 0 0 0-.141.488c0 .223.035.414.104.573.067.163.205.335.413.518l.48.423c.444.394.665.912.665 1.555 0 .497-.103.896-.31 1.201-.207.303-.439.455-.694.455-.184 0-.395-.06-.63-.179a.391.391 0 0 0-.177-.059c-.05 0-.091.05-.119.15h-.108v-1.944h.108c.062.557.18.976.352 1.259s.367.423.58.423c.15 0 .274-.08.369-.242.097-.161.144-.355.144-.582 0-.274-.053-.506-.159-.692-.106-.188-.316-.424-.636-.709-.317-.287-.526-.544-.625-.774-.097-.226-.146-.512-.146-.858 0-.448.085-.823.255-1.125.169-.302.387-.452.657-.452.118 0 .262.046.43.139.11.061.186.091.223.091a.093.093 0 0 0 .081-.042.62.62 0 0 0 .069-.188h.11zM155.992 70.346v1.793h.703v.42h-.703v3.537c0 .353.028.591.085.714.056.123.125.185.215.185.071 0 .141-.041.208-.122a.873.873 0 0 0 .157-.362h.127c-.077.39-.186.682-.324.879-.142.196-.286.295-.436.295-.101 0-.199-.051-.296-.152s-.168-.246-.214-.435c-.047-.188-.068-.479-.068-.873v-3.667h-.478v-.198c.12-.087.244-.236.372-.445a4.12 4.12 0 0 0 .338-.742 9.46 9.46 0 0 0 .213-.828h.101zM157.488 74.201c-.002.81.106 1.444.323 1.904.22.46.476.69.771.69.197 0 .367-.097.512-.293.146-.194.268-.53.365-1.008l.101.119a4.022 4.022 0 0 1-.399 1.483c-.221.444-.497.667-.83.667-.361 0-.669-.255-.926-.765s-.385-1.195-.385-2.056c0-.933.132-1.659.395-2.181.263-.521.594-.782.991-.782.337 0 .613.201.83.605.216.402.324.941.324 1.616h-2.072zm0-.349h1.39c-.009-.349-.032-.595-.067-.738-.056-.222-.137-.396-.245-.523s-.221-.19-.339-.19c-.182 0-.344.128-.487.384-.145.255-.228.611-.252 1.067zM160.86 73.148c.219-.399.346-.628.387-.689.099-.152.205-.27.316-.353a.571.571 0 0 1 .339-.126c.188 0 .35.1.485.299.135.199.227.489.271.869.227-.479.416-.794.572-.943.154-.151.315-.225.478-.225.16 0 .302.074.426.223.123.149.222.393.294.731.048.23.071.592.071 1.085v2.348c0 .34.016.574.042.701a.488.488 0 0 0 .124.222c.058.062.154.092.29.092v.214h-1.488v-.214h.063a.364.364 0 0 0 .302-.137.673.673 0 0 0 .108-.303c.008-.067.014-.26.014-.576v-2.344c0-.444-.031-.758-.09-.94-.085-.254-.222-.381-.409-.381-.116 0-.232.053-.349.158-.117.105-.259.301-.425.586l-.006.065.008.256v2.6c0 .372.012.604.034.695a.464.464 0 0 0 .13.228c.062.062.17.092.323.092v.214h-1.52v-.214c.166 0 .278-.036.342-.107a.65.65 0 0 0 .128-.32c.011-.067.015-.264.015-.588v-2.344c0-.444-.034-.765-.105-.961-.097-.256-.23-.384-.402-.384-.118 0-.234.058-.351.173-.18.177-.32.374-.417.594v2.921c0 .356.014.588.04.695a.52.52 0 0 0 .12.24c.055.053.162.08.325.08v.214h-1.487v-.214c.138 0 .232-.027.288-.08a.533.533 0 0 0 .124-.255c.029-.117.043-.344.043-.681v-2.086c0-.601-.01-.989-.029-1.164a.687.687 0 0 0-.073-.271.153.153 0 0 0-.136-.074.404.404 0 0 0-.221.089l-.05-.214.912-.667h.144v1.171z"/><path fill="#B2B2B2" d="M85.338 37.16c-.258.803-.388 1.237-.388 1.299 0 .309.024.757.07 1.343.048.587.071 1.035.071 1.344 0 .216-.012.532-.035.949l-.054.904c0 .218.006.48.018.79v.833c0 .216-.015.572-.043 1.066-.03.496-.045.867-.045 1.114 0 .463.026 1.204.079 2.223.054 1.02.08 1.794.08 2.319 0 1.173-.035 3.014-.105 5.515-.083 2.783-.162 4.568-.238 5.355-.076.787-.215 1.398-.415 1.831l-.828.648c-2.093-.896-4.233-1.345-6.419-1.345-1.635 0-3.52.587-5.66 1.762a7.514 7.514 0 0 1-.511-2.688c0-.771.105-1.343.316-1.715a283.34 283.34 0 0 1-.017-1.946c0-4.666.028-7.912.088-9.736l.211-4.495c.035-1.143.117-2.859.247-5.146l-.563-3.477c.07-.432.146-.929.229-1.484.071-.371.188-.571.353-.603.106 0 .241-.077.405-.231.142.216.294.425.459.625.164.201.311.301.44.301.117 0 .776-.201 1.975-.603a42.965 42.965 0 0 0 2.24-.371c.729-.186 1.375-.278 1.939-.278.164 0 .37.031.616.092.317.062.524.093.619.093.47 0 1.186.062 2.149.186.094.031.259.116.493.255.236.139.42.208.548.208a.831.831 0 0 0 .089-.232l.07-.139c.106-.278.223-.479.353-.602.048-.062.094-.093.142-.093.059 0 .24.232.546.695.306.464.476.757.512.881.082.247.122.728.122 1.438v.463a4.21 4.21 0 0 1-.158.652zm-1.692 13.989c0-.216.011-.547.034-.996.024-.448.036-.78.036-.996 0-.402-.012-1.004-.036-1.807a68.511 68.511 0 0 1-.034-1.807c0-.586.011-1.459.034-2.618.024-1.158.036-2.03.036-2.618 0-.124-.018-.973-.054-2.548a.674.674 0 0 0-.599-.324c-.294-.031-.493-.092-.6-.185-.413.031-.977-.031-1.692-.185-.788-.186-1.348-.278-1.677-.278-.234 0-.758.093-1.568.278l-1.5.139c-.271.155-.682.355-1.233.603l-.723.093c-.331.062-.555.224-.671.486-.118.262-.194.733-.229 1.413-.059.865-.106 1.39-.141 1.575v.648c-.048.278-.071 1.05-.071 2.317a33.8 33.8 0 0 1-.053 1.528c-.094.834-.188 2.101-.281 3.799l.105.649c-.153.679-.229 2.053-.229 4.124 0 .462-.026 1.15-.079 2.061a37.537 37.537 0 0 0-.079 2.062c0 .495.018.973.053 1.437l.211.417c2.141-.926 3.986-1.39 5.537-1.39.564 0 1.419.124 2.566.371 1.146.247 2.002.371 2.566.371h.44l-.069-8.619zm-.881 5.375c-.224.278-.523.694-.898 1.251-.964-.834-1.95-1.251-2.962-1.251-.152 0-.382.015-.688.046a7.005 7.005 0 0 1-.669.046c-.083 0-.559.17-1.428.51-.87.34-1.34.541-1.41.602-.176.186-.358.51-.546.973l-.494-.092c-.199-1.575-.382-2.626-.546-3.151.011-.278.064-.695.158-1.25h.124l.088-.186a.565.565 0 0 0 .229-.046c.023-.031.06-.108.105-.232l.459.417c.811-.586 1.868-.973 3.172-1.158.024-.34.036-.602.036-.788 0-.247-.009-.618-.027-1.111-.018-.494-.026-.85-.026-1.066h-1.004c-.435.062-.746.309-.934.74-.282-.37-.471-.879-.564-1.528-.035-.339-.136-.865-.3-1.575l.141-.926c.646-.278 1.62-.572 2.921-.881v-.926c-.188-.618-.294-1.143-.318-1.575-.129-.186-.346-.278-.651-.278-.588 0-.97.216-1.146.649l-.106.231c-.176.432-.405.649-.688.649l-.493-3.382.265-.834c1.422-.618 2.462-.927 3.119-.927.07 0 .177.016.317.047s.241.046.3.046l2.203.093a4.156 4.156 0 0 1 2.186.927c-.129.71-.32 1.32-.572 1.83-.254.51-.503.765-.75.765-.234 0-.59-.054-1.065-.162-.476-.108-.838-.162-1.084-.162h-.247l.07 1.251c-.012.093-.029.371-.053.834a2.079 2.079 0 0 1-.159.742v.277c.059.031.482.14 1.27.325.505.154.898.525 1.181 1.112l.088 1.622-.123.834c-.423-.124-.77-.186-1.039-.186h-1.392c-.044.124-.066.541-.066 1.251 0 .247-.026.571-.079.973-.053.402-.085.694-.097.881.152.092.276.139.37.139.353 0 .604-.34.758-1.02.234-.988.376-1.544.422-1.668l.46-.231.546 1.483.018.37c-.07.401-.105.772-.105 1.112l-.229.277c.281.187.699.279 1.251.279.07 0 .179-.031.326-.092a.957.957 0 0 1 .326-.093c.142 0 .287.108.44.324.2.279.3.618.3 1.02-.004.582-.233 1.201-.691 1.849zM100.153 64.74c-.951-.926-2.432-4.293-4.44-10.1-.377-1.05-.611-1.699-.706-1.946-.293-.742-.575-1.251-.846-1.529l-1.991.371c-.8.155-1.457.417-1.975.788-.341.278-.646.742-.916 1.39l-.212 3.798.018.186c1.022-.463 1.58-.695 1.674-.695.013 0 .388.032 1.129.093l.053 1.251-.142 1.482a2.615 2.615 0 0 1-1.162 1.482c-.436.216-.879.426-1.331.626-.453.2-.838.563-1.154 1.089-.835 1.359-1.34 2.038-1.517 2.038l-.423-2.27c.047-.68.141-1.622.282-2.827.082-.371.273-.741.573-1.111.3-.371.496-.68.59-.928.165-.494.265-.987.3-1.481.165-2.533.247-4.943.247-7.23 0-.339-.006-.805-.019-1.392v-1.346l-.369-.371c-.235-1.021-.353-1.686-.353-1.994 0-1.083.146-1.778.44-2.089.142.404.253.62.335.65l.335-.558.247.141c.141-.093.223-.141.246-.141s.218.063.582.187c1.045-.805 2.679-1.314 4.899-1.531 1.058-.093 1.574-.139 1.552-.139l1.691.185c.152-.867.246-1.716.282-2.552-.082-.309-.247-.463-.494-.463-.105 0-.258.031-.458.093-.199.062-.329.093-.388.093.036 0-.1-.062-.405-.186-.082-.041-.405-.062-.97-.062l-1.058.062c-1.187 0-2.32.309-3.401.927-.142.062-.317.2-.529.417-.88.927-1.434 1.375-1.656 1.344l-.193-.046-.176-2.271c.069-.556.188-1.316.352-2.278.141-.526.5-.853 1.075-.977.059.156.141.388.247.699 1.868-1.18 3.977-1.768 6.327-1.768.164 0 .652.062 1.463.185l.106-.093c.034 0 .094.024.176.07a.436.436 0 0 0 .194.069c.034 0 .141-.154.316-.463l.142-.186c.082 0 .152.031.212.093.069.186.281.525.634 1.019.258.341.43.836.512 1.484a5.054 5.054 0 0 1-.3 1.207c-.212.556-.336.914-.37 1.068-.082.309-.159.756-.229 1.345-.07.71-.13 1.173-.177 1.39-.141.651-.363 1.703-.669 3.154l-.406.231c-.199.124-.316.186-.352.186l-2.239-.603c-.07 0-.416.17-1.04.51.188.713.512 1.641.97 2.784.446-.216.876-.325 1.287-.325.141 0 .322.016.546.046.294.031.477.046.547.046 1.057.092 1.779.187 2.167.28a6.013 6.013 0 0 1 2.151.836c0 1.241-.236 2.046-.706 2.419a6.221 6.221 0 0 0-.528.418c-.212.185-.364.448-.458.788l-.512.371a89.978 89.978 0 0 0-1.551-.603c-.622-.246-1.134-.371-1.533-.371-.106 0-.223.016-.353.047.822 1.946 1.728 3.644 2.715 5.096 1.162 1.699 2.168 2.626 3.014 2.78l.581.093.142.741c-.728 2.724-1.609 4.314-2.644 4.777zm-7.331-17.945l.088-2.271-.106-.093c-.423.031-1.216.433-2.379 1.205-.2.062-.481.278-.846.649-.153.247-.229.834-.229 1.761 0 .216.006.432.018.648l.088.463c.8-.309 1.979-.88 3.543-1.714l-.177-.648z"/><path fill="#B2B2B2" d="M105.04 40.896c.376 1.358.652 3.119.828 5.281-.082.958-.293 1.977-.634 3.058-.458 1.39-.734 2.301-.828 2.734-.224 1.081-.388 2.409-.494 3.984l-.247 4.123a549.136 549.136 0 0 0-.563 5.189l-.546.371c.035-2.472.072-4.951.114-7.436.041-2.487.173-4.611.396-6.371a37.57 37.57 0 0 1 1.445-6.44c.035-.278.053-.525.053-.741 0-.865-.188-1.807-.563-2.826a.107.107 0 0 0-.089-.046c-.082 0-.312.448-.688 1.344a3.431 3.431 0 0 1-.334.556 19.913 19.913 0 0 0-.6-1.761c.012-.927.028-1.498.053-1.714.047-.556.171-1.035.37-1.436.364-.772.911-1.452 1.639-2.039.905-.68 1.476-1.174 1.71-1.482a.182.182 0 0 1 .123-.047c.106 0 .218.201.336.603a9.735 9.735 0 0 1-.636 2.78c-.481 1.234-.763 2.006-.845 2.316zm13.084 23.583c-.435.74-.928 1.25-1.48 1.528-1.387-1.667-2.78-3.351-4.18-5.05-1.766-2.07-3.205-3.244-4.321-3.521-.764 1.978-1.287 3.29-1.568 3.939-.646 1.39-1.27 2.316-1.868 2.779-.377-.092-.564-.833-.564-2.224.165-.742.593-1.421 1.286-2.039.635-.556 1.017-1.436 1.146-2.64a.105.105 0 0 0-.089-.046c-.164 0-.411.062-.739.186-.33.123-.576.184-.741.184a.562.562 0 0 1-.265-.092c-.023-.34-.034-.618-.034-.834 0-1.884.869-2.749 2.607-2.594.106-.433.203-1.126.291-2.084s.186-1.653.291-2.085l-.07-.37c-.399.031-.67.015-.812-.049-.328-.185-.492-.633-.492-1.345 0-.217.152-.896.458-2.041a42.38 42.38 0 0 0 .476-1.95l-.775.373-.282-.232c-.105-.311-.164-.758-.176-1.347a3.041 3.041 0 0 1-.142-.973c0-.558.124-.975.37-1.253l.282.139 1.78-.79.864.79c.352-.309.815-.573 1.392-.79a36.742 36.742 0 0 0 1.395-.556v-.742a.475.475 0 0 0-.144-.046c-.27 0-.676.155-1.216.463-.541.309-.887.463-1.039.463-.13 0-.282-.17-.459-.51a3.912 3.912 0 0 1-.035-.463c0-.185.064-.494.194-.927-.013.093-.019-.077-.019-.51l.019-.324.141-.139h.211c.412-.495 1.116-.927 2.115-1.297a26.932 26.932 0 0 1-.052-1.251c0-.618.24-1.189.725-1.714l.973.973a2.66 2.66 0 0 0-.088.51c0 .277.052.71.158 1.297.176 0 .447.039.812.116.363.077.64.116.827.116.294 0 .605-.078.935-.232.094.124.3.247.617.371.234.124.423.463.563 1.019-.246 1.02-.376 1.915-.388 2.687.142.186.432.325.873.417.44.093.772.371.995.834-.271 1.606-.641 2.548-1.11 2.827l-1.004-.834c-.105.092-.2.378-.282.857a52.49 52.49 0 0 0-.212 1.32c-.141.679-.388 1.065-.74 1.158h-.898c-.036 0-.458.093-1.27.278l-.035.139a2.295 2.295 0 0 0-.035.417c0 .123.006.277.018.463.129.062.341.078.635.046.505-.031.811-.046.916-.046.812.062 1.275.776 1.393 2.143-.306.527-.646.854-1.021.977h-1.094c-.423 0-.728.108-.917.325v.926l2.222.371c1.093.216 1.757.51 1.992.88l.088 1.065c-.153.958-.506 1.791-1.058 2.501-.071 0-.206-.123-.405-.37l-.054-.092c-.07-.062-.129-.047-.176.046-.658-.771-1.457-1.189-2.397-1.25l-.053.556.053 2.456c.424.185 1.026.556 1.808 1.111.78.556 1.365.927 1.753 1.113.329.155.882.232 1.657.232.246.401.37.802.37 1.204 0 .463-.118 1.05-.353 1.761-.19.553-.372.986-.549 1.296zm-6.051-22.287c-1.621.371-2.633.865-3.032 1.483-.282.432-.522 1.189-.722 2.27l.739.834.036 1.158c0 .833-.076 1.946-.229 3.336-.152 1.544-.24 2.657-.265 3.335.094.216.164.294.212.232l.353-.324.158-1.297a25.491 25.491 0 0 0 2.715-1.436l-.019-.927c-.117-.062-.193-.092-.229-.092-.247 0-.887.371-1.921 1.112l-.212-1.343.528-1.762c.412-.339 1.04-.741 1.887-1.204 0-.309-.006-.649-.018-1.019-.964-.031-1.733.339-2.31 1.112l-.247-1.39c.083-.216.159-.571.229-1.065.07-.495.164-.819.282-.973l.229.186 1.779-.834.07-.973-.013-.419zm-.035 13.159c-.436 0-.894.185-1.376.555.564.434 1.018.711 1.357.835l.07-.88c.025-.34.007-.51-.051-.51zm1.886-17.375l-.477.278-.034.324.034.556a8.242 8.242 0 0 0 1.798.278h.265c.035-.247.053-.51.053-.788-.164-.154-.458-.316-.881-.487-.423-.168-.676-.222-.758-.161zm0 3.846c-.153-.154-.271-.232-.353-.232-.106 0-.158.525-.158 1.576.223.031.552.046.986.046.282 0 .518-.062.705-.186l.124-.927c-.293-.184-.729-.277-1.304-.277z"/><path fill="#B2B2B2" d="M134.774 49.787c-.152.093-.376.293-.67.603a5.248 5.248 0 0 0-1.198-.695c-.399 1.453-.711 2.352-.934 2.691-.282.432-.752.648-1.411.648-.305 0-.805.062-1.498.186-.105 1.02-.193 3.135-.264 6.348-.048 2.594-.241 4.679-.582 6.254-.317-.433-.523-1.266-.617-2.501-.047-.648-.064-1.714-.053-3.197l.036-6.486-.036-.187c-.364.125-.725.264-1.076.417-.413.216-.742.557-.988 1.02.364.062.958.263 1.783.602a21.303 21.303 0 0 1-.478 1.946l-1.183.325c-.576.154-.924.278-1.042.37-.211.155-.369.51-.476 1.066l-.583-.788c-.023-.154-.036-.495-.036-1.019 0-.216-.046-.355-.14-.418 0-1.389.182-2.084.547-2.084-.06 0 .183.031.724.092.082-.031.217-.092.406-.185-.035-.124-.082-.51-.141-1.158-.048-.494-.119-.819-.213-.974l-.019-.417c0-.277.039-.557.115-.836.076-.278.181-.418.31-.418.036 0 .115.033.238.094s.196.093.22.093l2.013-.929c.012-.248.018-.433.018-.556 0-.154-.012-.278-.035-.373-.505.188-1.012.373-1.518.558a3.83 3.83 0 0 0-1.466 1.159l-.017.882-.494.373-.354-.652a28.086 28.086 0 0 1-1.904 5.471c-.964 2.069-1.773 3.104-2.432 3.104-.306 0-.629-.293-.97-.881l.105-1.344a5.138 5.138 0 0 1 1.005-2.038c.399-.432.799-.88 1.198-1.345 1.164-1.42 1.939-3.461 2.327-6.121.152-.991.229-1.994.229-3.016 0-.526-.082-.975-.246-1.345.129-.867.334-1.407.616-1.625.082.249.218.48.407.697a2.1 2.1 0 0 1 .388.604c.294.062.571 0 .83-.188.165-.124.399-.309.705-.556.342-.123.859-.371 1.554-.743l-.105-.927c.034-.772.229-1.25.582-1.436l.404.51c.259.988.476 1.482.653 1.482a.9.9 0 0 0 .316-.092c.142-.062.241-.093.3-.093.082 0 .641.124 1.675.37.116-.556.306-.834.563-.834.341.68.682 1.346 1.022 1.995.399.867.587 1.809.563 2.83.177.186.506.373.987.559.423.154.752.386.987.695l.017 1.531c-.147.216-.371.512-.664.882zm-.288-9.278c-.787.371-1.316.556-1.586.556-.152 0-.424-.124-.812-.371-.47-.278-.752-.448-.846-.51-1.034-.432-1.768-.648-2.203-.648-1.398 0-2.779.433-4.142 1.297-.376.031-.94.201-1.692.51-.528.37-1.028 1.004-1.498 1.899-.294-.247-.476-.726-.546-1.437-.094-.926-.171-1.467-.229-1.622 0-.896.124-1.42.37-1.575l.193.139c1.775-1.297 3.673-2.146 5.694-2.548 0-.247-.101-.695-.3-1.344a4.145 4.145 0 0 1-.16-.694c.13-1.05.412-1.576.848-1.576.104.34.311.71.616 1.112.364.525.594.881.688 1.065l.07.973.105.139c.353.093.928.139 1.728.139.436 0 1.075.124 1.921.371.94.247 1.558.509 1.852.788.364.371.616 1.003.758 1.9a1.776 1.776 0 0 1-.291.486c-.1.108-.203.224-.309.347-.106.126-.182.326-.229.604zm-8.072 20.355c-.188.216-.458.556-.811 1.019a81.451 81.451 0 0 0-1.938 2.641c-.541.834-.858 1.236-.953 1.204-.199-.308-.298-.802-.298-1.482 0-.154-.13-.571-.389-1.251.035-.123.101-.4.194-.833l-.018-.325c.164-.339.343-.532.537-.579.193-.046.391-.1.591-.162.094-.063.446-.447 1.058-1.159.27-.308.688-.648 1.251-1.02.271-.185.464-.277.582-.277.176 0 .394.169.651.51-.175.834-.328 1.405-.457 1.714zm1.274-15.521c-.047-.124-.116-.185-.211-.185-.399 0-.957.201-1.675.602-.082.031-.317.232-.704.603l-.388.324c-.118.124-.194.186-.229.186l-.124-.139a77.633 77.633 0 0 1-.141-.788c-.059.34-.088.88-.088 1.622h.07l.07.093a5.089 5.089 0 0 1 1.692-1.112 38.549 38.549 0 0 0 1.727-.603v-.603zm3.72 3.969a.718.718 0 0 0-.688-.417l-.405.186-.317-.231-.212.231c-.129-.031-.364-.031-.704 0a1.603 1.603 0 0 0-.124.557c0 .123.018.247.054.37.116.031.258.046.422.046h.987c.47-.031.8-.046.987-.046.011-.093.017-.231.017-.417 0-.094-.006-.187-.017-.279zm-.035-4.154c-1.151-.248-1.81-.371-1.974-.371a.545.545 0 0 0-.336.093v.973c.164 0 .976.077 2.433.231l-.123-.926zm3.555 17.698c-.271.525-.582.958-.935 1.297-.165.154-.405.448-.723.88l-.229-.232-.178.093c-.116.062-.193.093-.229.093-.176 0-.685-.487-1.524-1.46-.841-.974-1.342-1.646-1.508-2.015-.305-.649-.47-1.576-.492-2.781l.246-.371c.094 0 .37.216.828.648.142.124.348.187.617.187.2 0 .423.092.67.278.353.216.563.355.634.417.4.186 1 .448 1.799.788.188.032.381.069.581.117.199.046.365.208.493.486a30.26 30.26 0 0 0-.05 1.575zm-2.064-5.976c-.022.03-.046.139-.07.324l-.352-.186c-.106 0-.794.293-2.063.881-.035-.093-.217-.263-.547-.51l-.193-.371a6.459 6.459 0 0 1 1.798-2.604l.123-.744.723-.698c.071 0 .142.045.212.139.082.341.211.761.388 1.258.094.154.19.317.29.488.101.169.174.411.221.72-.059.372-.236.807-.53 1.303z"/><path fill="#B2B2B2" d="M138.938 37.343c-.294.649-.441 1.174-.441 1.575 0 .185.018.401.054.648a7.569 7.569 0 0 0-.036.695c0 .586.124 1.482.37 2.687.248 1.205.371 2.162.371 2.873 0 .679-.177 1.452-.529 2.317-.27.617-.546 1.235-.828 1.853-.129.339-.3.912-.511 1.714-.482 1.854-.822 4.077-1.022 6.671-.082 1.113-.17 2.231-.264 3.36a24.649 24.649 0 0 1-.478 3.219 5.744 5.744 0 0 1-.316-1.946c0-4.386.152-7.753.458-10.1.246-1.761.864-4.665 1.852-8.71l-.282-1.853c-.153-.865-.306-1.298-.459-1.298-.176 0-.426.409-.749 1.228-.322.819-.597 1.228-.819 1.228-.188-.309-.312-.756-.37-1.344-.012-.308-.071-.787-.176-1.436.011-.093.053-.571.123-1.436.035-.556.111-1.004.229-1.344.082-.247.211-.679.388-1.297l.246.046A27.1 27.1 0 0 0 137 35.488l1.27-1.529c.246-.278.47-.417.67-.417.07 0 .152.016.246.046.165.278.248.849.248 1.714-.001.59-.167 1.269-.496 2.041zm3.419 21.915c-.34.247-.813.881-1.419 1.899-.605 1.02-1.096 1.637-1.472 1.854-.704-.433-1.134-1.329-1.286-2.688.07-.4.341-.755.811-1.065.657-.433 1.081-.757 1.27-.973.47-.557.764-1.328.881-2.317a.873.873 0 0 1 .335-.092c.259 0 .479.27.66.811.184.54.274 1.135.274 1.784 0 .246-.017.509-.054.787zm7.926-5.374l-.74.417c-1.14-1.575-2.073-2.316-2.803-2.225l-1.163.093-.105.881c.047 1.174.07 1.791.07 1.853 0 .278-.015.688-.044 1.228-.029.542-.044.95-.044 1.228 0 1.081.047 1.946.141 2.595-.059.155-.088.696-.088 1.623 0 .371-.053.803-.158 1.297-.132.587-.202 1.02-.214 1.297a9.216 9.216 0 0 1-.079.95 5.285 5.285 0 0 1-.222.764l-.478-.926-.354-2.595c0-.555.006-1.405.018-2.548l.123-6.811-.088-.741-.229.139c-.13-.093-.465-.139-1.006-.139.036 0-.264.169-.898.51l-1.375.555c-.188.032-.37.062-.546.093-.212.062-.382.216-.512.463l-.388.741c-.129.248-.258.355-.388.324l-.176-.046a153.78 153.78 0 0 1-.106-1.899c0-.309.06-.634.177-.973l-.019-.885.636-1.351.44.419c1.469-.962 2.99-1.443 4.566-1.443a3.28 3.28 0 0 0 .035-.556c0-.186-.012-.417-.035-.695l-.178-.556.105-1.158c-.047-.124-.117-.186-.211-.186-.13 0-.212-.016-.247-.047-.152.093-.446.14-.882.14-.376 0-.666.115-.872.348a12.49 12.49 0 0 1-.925.903l-.458-1.854.105-5.745c-.188-.587-.282-1.56-.282-2.919 0-.37.082-.772.246-1.204l.828-.742.354.278c.164.093.37.216.616.371.094.031.564-.093 1.411-.371l1.449-.463c.295-.062.425-.092.389-.092.271 0 .87.201 1.799.602.034-.031.258-.201.67-.51.246-.154.458-.448.634-.88.246.216.605.648 1.075 1.297-.023.185-.13.71-.317 1.575-.152.679-.229 1.205-.229 1.575 0-.277.071 1.19.212 4.402l-.423 2.733c-.13.031-.288.186-.476.463-.247.34-.394.541-.441.602l-.882-.277c-.022 0-.066.022-.131.069-.064.046-.109.069-.133.069-.035 0-.405-.124-1.11-.371l-.176.14.034.975-.193 1.579c.082.062.453.093 1.111.093.716 0 1.562.218 2.537.65.834.433 1.675.852 2.521 1.255-.679 2.227-1.172 3.433-1.478 3.619zm-2.355-15.294c-.471-.521-1.252-.784-2.345-.784-1.61 0-2.796.399-3.56 1.2l-.036 3.417c.646-.463 1.492-.695 2.539-.695.352 0 .883.046 1.595.139.71.093 1.242.139 1.595.139.06 0 .153-.046.282-.139l-.07-3.277zm3.154 23.072c-.211.341-.511.945-.899 1.812h-.122c-.26.031-.664-.34-1.217-1.116a11.835 11.835 0 0 1-1.074-1.811 266.32 266.32 0 0 0-.758-1.813c-.142-.311-.354-.79-.636-1.438l.158-1.391.459-.694.616.046c1.07 1.916 2.403 2.873 4.001 2.873.048.497.071.852.071 1.07.001.835-.199 1.656-.599 2.462z"/><path fill="#B2B2B2" d="M155.675 41.22c-.141.401-.3 1.003-.476 1.807l.07.834-.053.787c.282 2.378.423 4.185.423 5.421 0 .864-.064 1.498-.194 1.9-.07.247-.379.771-.925 1.575s-.896 1.267-1.049 1.391a3.658 3.658 0 0 1-.326.253c-.11.078-.197.271-.255.58-.036.711-.076 1.777-.124 3.197-.022 1.575-.064 2.688-.123 3.336-.105 1.204-.306 2.162-.6 2.872-.329-1.482-.493-2.794-.493-3.938v-4.077c0-1.081.035-2.717.105-4.911.07-2.193.106-3.83.106-4.911 0-.926.052-3.228.158-6.903a9.95 9.95 0 0 0-.149-1.807c-.112-.68-.244-1.143-.396-1.39l-.194-1.482c.224-.649.435-1.174.634-1.576l.318.231c.999-.556 1.557-.834 1.675-.834.622 0 1.162.495 1.621 1.483.458.988.687 2.301.687 3.938 0 .587-.146 1.328-.44 2.224zm-1.915 4.323c-.188.186-.382.386-.582.603-.199.216-.3.571-.3 1.066 0 .247.013.618.036 1.111.023.495.034.865.034 1.112 0 .124-.011.316-.034.579a7.693 7.693 0 0 0-.036.625c0 .093.019.325.054.696.692-.619 1.187-1.761 1.48-3.43-.106-1.357-.323-2.145-.652-2.362zm.048-8.215c-.106-.093-.194-.139-.266-.139-.41 0-.616 1.606-.616 4.818 0 .464.022.85.07 1.159.693-1.297 1.228-3.027 1.604-5.189-.212-.649-.476-.866-.792-.649zm3.577 5.915c-.588.463-.958.695-1.11.695a.645.645 0 0 1-.212-.046c-.176-.402-.275-.988-.299-1.761.376-1.143 1.061-2.401 2.054-3.776.992-1.375 1.677-2.618 2.053-3.729l-.053-.973c.047-.124.322-.294.828-.51a.527.527 0 0 0 .282-.232l1.075 1.343c.176.587.429 1.081.758 1.483l.881 1.02c.353.494.898 1.158 1.64 1.992.411.248 1.028.665 1.851 1.251l.652-.278.141.741c-.224.71-.306 1.313-.246 1.807-.2.617-.459 1.112-.775 1.482-.506.587-.788.942-.848 1.066-.082-.216-.164-.325-.246-.325s-.176-.084-.282-.255a15.995 15.995 0 0 1-.476-.856 10.474 10.474 0 0 1-.476-.463 1.894 1.894 0 0 0-.282-.278l.176 1.159c-.352.432-.821.648-1.409.648-.518 0-.876.108-1.075.324l.053.556-.123 1.203c.458.031.916.062 1.374.091.529.093.976.34 1.34.741.141-.062.317-.34.528-.832l.528.229c.024.154.118.371.282.649.165.277.288.695.371 1.249-.224.956-.335 1.527-.335 1.712 0 .371.006.924.018 1.666.012.74.018 1.25.018 1.527 0 .461-.054.94-.159 1.432-.117.587-.264.942-.44 1.065l-.282-.648c-.094.093-.287.154-.581.185-.118.031-.276.124-.476.279-.788-.124-1.252-.187-1.393-.187-.306 0-.535.016-.688.048 1.762 2.995 3.119 4.494 4.071 4.494.07 0 .364-.047.881-.139.235.216.383.571.44 1.065 0 .124.018.34.054.649l-.3.648.088.37c-.13.124-.312.495-.546 1.112-.06.187-.111.325-.159.417-.129.278-.396.542-.802.788-.405.247-.72.37-.942.37-.036-.062-.688-1.126-1.957-3.194-.822-1.357-1.397-2.655-1.728-3.888l-.423-.51c-.247.618-.623 1.512-1.128 2.685-.717 1.545-1.938 3.18-3.666 4.907l-.547-.462-.388-2.27.335-1.156c.376.032.559.047.547.047.646 0 1.305-.541 1.974-1.622.623-1.02 1.116-2.299 1.48-3.842l-.123-.045c-.023-.032-.041-.046-.053-.046-.882 0-1.657.479-2.327 1.434-.094-.308-.193-.862-.3-1.665-.094-.587-.205-.99-.334-1.206a11.85 11.85 0 0 0 .221-1.573c.04-.555.119-1.358.237-2.407-.047-.186-.085-.51-.115-.973-.028-.463-.097-.834-.202-1.112l.529-1.064.476.186c.67-.309 1.674-.757 3.014-1.343-.094-.987-.194-1.527-.3-1.62a.386.386 0 0 0-.211-.046c-.563 0-1.058.185-1.481.556-.034.031-.12.139-.255.324-.136.185-.232.276-.291.276-.07 0-.152-.062-.246-.186l-.16-2.453zm2.927 6.749l-.106-.139a15.63 15.63 0 0 0-2.345.835c-.199.339-.288 1.172-.264 2.501l.07.139c.341-.277.781-.478 1.321-.602.775-.155 1.229-.263 1.357-.324l-.033-2.41zm1.374-11.815c-.317-.679-.5-1.019-.547-1.019-.27 0-.758.633-1.463 1.899a32.31 32.31 0 0 0-1.516 3.15c.764-.34 1.663-.51 2.697-.51-.446 0 .452.015 2.696.046-.422-.77-1.044-1.96-1.867-3.566zm3.242 12.818c-.716-.895-1.573-1.343-2.572-1.343-.389 0-.629.031-.723.093l-.088 2.27.07.417c.716-.155 1.115-.231 1.198-.231.035 0 .729.185 2.08.555l.105-.093-.07-1.668z"/><path d="M84.348 36.145c-.258.803-.388 1.237-.388 1.299 0 .309.024.757.071 1.344s.07 1.035.07 1.344c0 .216-.012.532-.035.949-.024.417-.041.718-.053.904 0 .218.006.48.018.79v.834c0 .216-.015.572-.044 1.065-.03.497-.044.867-.044 1.114 0 .463.025 1.205.079 2.224.053 1.02.079 1.793.079 2.318 0 1.174-.035 3.014-.105 5.516-.082 2.782-.161 4.567-.238 5.355-.076.788-.214 1.398-.414 1.83l-.829.649c-2.093-.896-4.232-1.344-6.418-1.344-1.635 0-3.521.587-5.66 1.761a7.49 7.49 0 0 1-.512-2.688c0-.772.105-1.343.317-1.716-.012-1.112-.018-1.76-.018-1.946 0-4.666.029-7.911.088-9.735l.212-4.496c.034-1.143.117-2.859.246-5.145l-.563-3.477c.07-.433.147-.929.229-1.485.07-.371.188-.571.352-.603.106 0 .241-.077.406-.231.141.216.294.425.458.625s.312.301.44.301c.117 0 .776-.201 1.976-.603a42.792 42.792 0 0 0 2.239-.371c.729-.185 1.375-.278 1.939-.278.164 0 .37.031.617.093.316.062.523.093.618.093.47 0 1.187.061 2.15.185.094.031.258.116.493.255s.419.208.548.208a.844.844 0 0 0 .088-.231l.07-.14c.106-.277.224-.479.353-.602.048-.062.094-.093.142-.093.059 0 .24.232.546.695.306.464.476.757.512.881.082.247.123.728.123 1.438v.463a4.167 4.167 0 0 1-.158.651zm-1.692 13.989c0-.216.012-.548.035-.996s.035-.78.035-.996c0-.402-.012-1.004-.035-1.807a69.511 69.511 0 0 1-.035-1.807c0-.587.012-1.459.035-2.618.023-1.158.035-2.03.035-2.618 0-.123-.018-.973-.053-2.548a.678.678 0 0 0-.6-.325c-.294-.031-.493-.092-.6-.185-.412.031-.976-.031-1.692-.186-.788-.186-1.348-.278-1.676-.278-.235 0-.759.093-1.569.278l-1.499.139c-.271.155-.682.355-1.234.603l-.723.093c-.331.062-.554.224-.671.486-.118.262-.194.733-.229 1.413-.059.865-.105 1.39-.141 1.575v.648c-.048.278-.07 1.05-.07 2.317a33.644 33.644 0 0 1-.054 1.529c-.094.834-.188 2.1-.281 3.799l.106.65c-.152.679-.229 2.054-.229 4.124 0 .463-.025 1.15-.079 2.062a38.584 38.584 0 0 0-.079 2.062c0 .495.018.974.054 1.437l.21.417c2.141-.927 3.987-1.39 5.537-1.39.565 0 1.42.124 2.567.371 1.146.247 2.002.37 2.565.37h.44l-.07-8.619zm-.882 5.375a20.06 20.06 0 0 0-.897 1.251c-.964-.834-1.951-1.251-2.962-1.251-.153 0-.383.015-.688.046a7.405 7.405 0 0 1-.669.046c-.083 0-.559.17-1.428.509-.87.34-1.34.541-1.411.603-.176.185-.358.509-.546.973l-.494-.092c-.199-1.575-.382-2.625-.546-3.151.012-.278.064-.695.158-1.251h.124l.088-.185a.565.565 0 0 0 .229-.046c.022-.031.059-.108.105-.232l.459.417c.81-.586 1.867-.973 3.172-1.158.023-.339.035-.602.035-.787 0-.248-.009-.618-.026-1.112s-.026-.849-.026-1.065h-1.005c-.435.062-.746.309-.934.741-.282-.371-.471-.88-.564-1.529-.035-.34-.136-.865-.3-1.576l.142-.926c.646-.278 1.62-.572 2.92-.88v-.926c-.188-.618-.294-1.143-.318-1.576-.128-.186-.346-.278-.651-.278-.588 0-.97.216-1.146.649l-.106.231c-.176.433-.404.649-.688.649l-.492-3.382.264-.834c1.422-.618 2.462-.927 3.119-.927.071 0 .177.016.317.047.142.031.241.046.3.046l2.204.093c.81.093 1.539.402 2.185.927-.129.71-.32 1.321-.572 1.83-.253.51-.503.765-.749.765-.235 0-.591-.054-1.066-.162-.476-.108-.837-.162-1.084-.162h-.247l.07 1.251c-.012.093-.029.371-.052.834a2.073 2.073 0 0 1-.16.741v.278c.06.031.482.139 1.27.324.506.155.899.525 1.182 1.112l.088 1.621-.124.834c-.422-.123-.77-.185-1.039-.185h-1.392c-.044.124-.066.541-.066 1.251 0 .247-.026.571-.079.973a15.78 15.78 0 0 0-.097.88c.152.093.276.139.37.139.353 0 .605-.339.758-1.019.235-.988.376-1.544.423-1.668l.459-.231.546 1.482.018.371c-.07.401-.105.772-.105 1.112l-.229.277c.281.186.698.278 1.251.278.07 0 .179-.031.325-.093a.96.96 0 0 1 .327-.093c.141 0 .287.108.439.325.2.278.3.618.3 1.019-.001.585-.231 1.203-.689 1.852zM99.163 63.725c-.951-.926-2.432-4.293-4.44-10.101a135.909 135.909 0 0 0-.706-1.945c-.293-.742-.575-1.251-.846-1.529-.657.124-1.321.247-1.991.37-.8.155-1.457.417-1.974.788-.342.278-.647.741-.917 1.39l-.212 3.799.018.185c1.022-.463 1.581-.694 1.675-.694.013 0 .388.031 1.128.092l.053 1.251-.141 1.482a2.626 2.626 0 0 1-1.163 1.483c-.436.216-.879.425-1.331.625-.452.201-.837.564-1.154 1.089-.834 1.359-1.34 2.039-1.516 2.039l-.424-2.27c.048-.68.142-1.622.282-2.826.082-.371.273-.742.573-1.112.3-.371.496-.68.59-.927.165-.494.265-.988.3-1.483.165-2.532.247-4.942.247-7.229 0-.34-.006-.806-.018-1.392v-1.346l-.37-.371c-.235-1.021-.353-1.686-.353-1.994 0-1.083.147-1.778.44-2.089.142.404.253.62.335.651l.335-.558.247.141c.141-.093.224-.141.246-.141.023 0 .218.063.582.187 1.045-.805 2.679-1.314 4.899-1.531 1.058-.093 1.575-.139 1.552-.139l1.691.186a19.31 19.31 0 0 0 .282-2.553c-.082-.309-.246-.463-.494-.463-.105 0-.258.031-.458.093-.199.062-.328.093-.388.093.036 0-.1-.062-.405-.186-.082-.041-.404-.062-.969-.062l-1.058.062c-1.188 0-2.321.309-3.402.927-.141.062-.317.2-.528.417-.881.927-1.434 1.375-1.657 1.344l-.193-.046-.176-2.271c.069-.556.188-1.317.352-2.278.142-.526.5-.853 1.075-.976.059.156.141.388.247.699 1.868-1.18 3.978-1.769 6.327-1.769.165 0 .652.062 1.463.185l.106-.093c.034 0 .094.024.176.07a.44.44 0 0 0 .194.069c.035 0 .142-.154.317-.463l.141-.186c.082 0 .153.031.212.093.069.186.281.525.634 1.019.259.342.43.836.512 1.484a4.961 4.961 0 0 1-.3 1.207c-.212.556-.335.914-.37 1.068-.082.309-.158.756-.229 1.345-.07.71-.129 1.174-.177 1.39-.14.651-.363 1.703-.669 3.154l-.406.231c-.198.124-.316.186-.352.186l-2.238-.603c-.071 0-.417.17-1.041.51.188.713.512 1.641.97 2.784.447-.216.876-.324 1.287-.324.141 0 .323.015.546.046.294.031.477.046.547.046 1.057.092 1.78.187 2.168.28a6.015 6.015 0 0 1 2.15.836c0 1.241-.235 2.046-.705 2.419a6.248 6.248 0 0 0-.529.419c-.212.185-.364.448-.458.788l-.512.371a97.937 97.937 0 0 0-1.55-.602c-.623-.247-1.135-.371-1.533-.371-.106 0-.224.016-.354.047.823 1.946 1.728 3.645 2.715 5.096 1.163 1.698 2.168 2.625 3.014 2.779l.581.093.142.742c-.728 2.719-1.609 4.31-2.644 4.773zm-7.331-17.946l.088-2.27-.106-.093c-.422.031-1.216.432-2.379 1.204-.2.062-.481.278-.846.649-.152.247-.229.834-.229 1.761 0 .216.006.432.018.648l.088.463c.8-.309 1.98-.88 3.543-1.714l-.177-.648z"/><path fill="#FCC800" d="M104.05 39.88c.377 1.358.653 3.12.829 5.281-.082.958-.294 1.977-.635 3.058-.458 1.39-.734 2.301-.828 2.733-.224 1.082-.388 2.409-.494 3.985l-.246 4.123a491.45 491.45 0 0 0-.563 5.189l-.547.371c.035-2.471.073-4.95.114-7.436.042-2.487.173-4.61.396-6.371a37.58 37.58 0 0 1 1.445-6.439c.036-.278.053-.525.053-.742 0-.865-.188-1.807-.563-2.826a.106.106 0 0 0-.089-.046c-.082 0-.312.448-.688 1.344a3.294 3.294 0 0 1-.334.556 19.913 19.913 0 0 0-.6-1.761c.012-.927.029-1.498.054-1.714.046-.556.17-1.034.37-1.436.363-.772.91-1.452 1.639-2.039.904-.68 1.475-1.174 1.71-1.482a.178.178 0 0 1 .122-.047c.106 0 .218.201.336.603a9.734 9.734 0 0 1-.635 2.78c-.481 1.235-.763 2.007-.846 2.316zm13.085 23.582c-.436.741-.929 1.25-1.481 1.529-1.386-1.668-2.78-3.351-4.18-5.05-1.766-2.07-3.205-3.244-4.321-3.521-.764 1.977-1.287 3.289-1.568 3.938-.646 1.39-1.269 2.316-1.868 2.78-.376-.093-.564-.834-.564-2.224.165-.741.594-1.421 1.286-2.039.636-.556 1.018-1.437 1.146-2.641a.106.106 0 0 0-.089-.046c-.164 0-.41.062-.739.185-.329.124-.576.185-.74.185a.558.558 0 0 1-.265-.092c-.023-.34-.035-.618-.035-.834 0-1.884.869-2.749 2.608-2.595.106-.432.203-1.127.291-2.085.088-.958.186-1.652.291-2.084l-.071-.371c-.398.031-.67.015-.811-.049-.329-.185-.493-.633-.493-1.345 0-.217.152-.896.458-2.041a41.07 41.07 0 0 0 .476-1.95l-.775.373-.282-.231c-.105-.311-.164-.759-.176-1.348a3.043 3.043 0 0 1-.141-.973c0-.558.123-.975.37-1.252l.282.139 1.779-.79.864.79c.352-.309.816-.573 1.393-.79a37.108 37.108 0 0 0 1.394-.556v-.742a.505.505 0 0 0-.143-.046c-.271 0-.676.155-1.217.464-.54.308-.887.463-1.039.463-.13 0-.282-.17-.458-.51a3.737 3.737 0 0 1-.036-.463c0-.186.065-.495.194-.927-.013.093-.019-.078-.019-.51l.019-.325.142-.139h.211c.411-.494 1.116-.927 2.114-1.297a28.49 28.49 0 0 1-.052-1.251c0-.618.24-1.189.725-1.714l.973.973a2.66 2.66 0 0 0-.088.51c0 .278.053.71.158 1.297.177 0 .447.039.812.116.363.077.64.116.827.116.294 0 .605-.078.936-.231.094.124.299.247.616.371.235.124.424.463.563 1.019-.246 1.02-.376 1.915-.388 2.687.142.186.433.325.873.417.441.093.772.371.996.834-.271 1.606-.642 2.548-1.111 2.826l-1.004-.834c-.105.092-.2.378-.282.857-.082.479-.153.919-.212 1.32-.14.68-.388 1.066-.739 1.159h-.899c-.035 0-.458.092-1.27.278l-.034.139a2.196 2.196 0 0 0-.036.417c0 .124.006.277.018.463.13.062.341.078.635.047.505-.031.811-.047.917-.047.811.062 1.274.776 1.392 2.143-.306.527-.646.854-1.021.977h-1.094c-.422 0-.728.108-.917.324v.927l2.223.371c1.092.216 1.756.51 1.991.88l.088 1.066c-.152.958-.506 1.792-1.058 2.501-.07 0-.206-.124-.405-.37l-.053-.093c-.07-.062-.13-.047-.176.046-.658-.772-1.458-1.189-2.397-1.25l-.054.556.054 2.456c.423.186 1.025.556 1.807 1.112.781.556 1.366.927 1.754 1.112.328.154.881.231 1.656.231.247.402.37.803.37 1.205 0 .463-.117 1.05-.353 1.761-.19.555-.372.987-.548 1.296zm-6.052-22.285c-1.621.371-2.633.865-3.031 1.483-.282.432-.523 1.189-.723 2.27l.739.834.036 1.158c0 .834-.076 1.946-.229 3.336-.152 1.544-.24 2.656-.265 3.336.094.216.164.293.212.231l.353-.324.159-1.297a25.295 25.295 0 0 0 2.714-1.436l-.018-.927c-.117-.062-.193-.093-.229-.093-.247 0-.887.371-1.921 1.112l-.212-1.343.529-1.761c.411-.34 1.04-.742 1.886-1.205 0-.309-.006-.648-.018-1.019-.964-.031-1.733.34-2.31 1.112l-.246-1.39c.082-.216.158-.571.229-1.065.071-.495.165-.819.282-.973l.229.186 1.78-.834.07-.973-.016-.418zm-.035 13.158c-.435 0-.893.186-1.375.556.564.433 1.017.711 1.357.834l.07-.88c.024-.34.006-.51-.052-.51zm1.887-17.375l-.477.278-.035.324.035.556a8.354 8.354 0 0 0 1.798.278h.264a5.47 5.47 0 0 0 .054-.788c-.165-.154-.459-.316-.881-.487-.424-.168-.676-.222-.758-.161zm0 3.846c-.154-.154-.271-.231-.354-.231-.106 0-.158.525-.158 1.575.224.031.552.046.987.046.282 0 .517-.062.704-.185l.124-.927c-.294-.185-.728-.278-1.303-.278z"/><path d="M133.785 48.771c-.153.093-.376.294-.67.603a5.23 5.23 0 0 0-1.199-.694c-.399 1.453-.71 2.351-.934 2.69-.282.432-.752.648-1.41.648-.306 0-.806.062-1.499.186-.105 1.02-.193 3.135-.264 6.348-.047 2.594-.24 4.68-.582 6.254-.316-.433-.522-1.266-.616-2.502-.048-.648-.065-1.714-.054-3.197l.036-6.486-.036-.186c-.364.124-.724.263-1.076.417-.412.216-.742.556-.988 1.02.364.062.959.262 1.783.603a20.976 20.976 0 0 1-.478 1.946l-1.182.324c-.576.154-.925.278-1.043.371-.21.155-.369.51-.476 1.065l-.582-.787c-.023-.155-.036-.495-.036-1.02 0-.216-.047-.355-.141-.417 0-1.39.182-2.085.548-2.085-.061 0 .183.031.723.093.082-.031.218-.093.407-.186-.036-.124-.082-.51-.142-1.158-.047-.494-.119-.819-.213-.973l-.018-.417c0-.278.038-.558.115-.836.076-.277.181-.418.309-.418.036 0 .115.033.239.094a.896.896 0 0 0 .219.093l2.013-.928c.012-.248.018-.433.018-.556 0-.155-.012-.278-.034-.373-.506.188-1.013.373-1.519.558-.6.278-1.088.664-1.465 1.159l-.018.882-.494.373-.354-.651a28.153 28.153 0 0 1-1.903 5.469c-.964 2.069-1.774 3.104-2.433 3.104-.306 0-.628-.293-.97-.88l.105-1.343a5.144 5.144 0 0 1 1.006-2.039c.399-.433.798-.881 1.197-1.344 1.164-1.421 1.939-3.461 2.327-6.122.152-.99.229-1.994.229-3.016 0-.526-.082-.975-.246-1.345.13-.867.334-1.407.617-1.625.082.249.217.48.406.697a2.1 2.1 0 0 1 .388.604c.294.062.571 0 .831-.188.164-.124.398-.309.704-.556.343-.124.859-.371 1.554-.744l-.105-.927c.035-.772.229-1.25.582-1.436l.405.51c.258.988.476 1.482.652 1.482.07 0 .176-.031.317-.092.141-.062.24-.093.299-.093.083 0 .641.124 1.675.371.117-.556.306-.834.563-.834.342.68.682 1.346 1.022 1.995.399.867.587 1.809.564 2.83.177.185.505.373.986.558.424.154.752.386.987.695l.018 1.531c-.148.215-.371.511-.664.881zm-.288-9.277c-.788.371-1.316.556-1.587.556-.152 0-.423-.124-.811-.371-.47-.278-.752-.447-.846-.509-1.035-.433-1.769-.649-2.203-.649-1.399 0-2.779.433-4.143 1.297-.376.031-.939.201-1.691.51-.529.37-1.029 1.004-1.499 1.899-.294-.247-.476-.726-.546-1.437-.094-.926-.17-1.467-.229-1.621 0-.896.124-1.421.371-1.576l.193.139c1.774-1.297 3.672-2.146 5.693-2.547 0-.247-.101-.695-.3-1.344a4.135 4.135 0 0 1-.159-.695c.129-1.05.412-1.576.847-1.576.105.34.312.71.616 1.112.365.525.594.881.688 1.066l.071.973.104.139c.354.093.929.139 1.728.139.436 0 1.075.124 1.921.371.941.247 1.558.509 1.852.788.364.371.617 1.004.758 1.9-.095.216-.191.378-.291.486s-.203.224-.309.347c-.106.124-.182.325-.228.603zm-8.073 20.355a21.67 21.67 0 0 0-.81 1.019 79.622 79.622 0 0 0-1.939 2.641c-.541.834-.857 1.236-.952 1.205-.199-.309-.299-.803-.299-1.482 0-.155-.13-.572-.389-1.251.036-.123.101-.401.194-.834l-.018-.324c.164-.34.344-.533.537-.579.193-.046.391-.101.591-.162.094-.062.447-.448 1.058-1.158.27-.309.688-.649 1.251-1.02.271-.185.464-.278.582-.278.176 0 .394.17.651.51-.175.832-.327 1.404-.457 1.713zm1.275-15.522c-.048-.124-.117-.185-.212-.185-.399 0-.957.201-1.674.602-.083.031-.317.232-.705.603l-.388.324c-.118.124-.194.186-.229.186l-.123-.139a54.042 54.042 0 0 1-.142-.788c-.058.34-.088.88-.088 1.622h.07l.071.093a5.094 5.094 0 0 1 1.691-1.112 38.152 38.152 0 0 0 1.728-.603v-.603zm3.719 3.97a.718.718 0 0 0-.688-.418l-.405.186-.316-.231-.212.231c-.13-.031-.364-.031-.705 0a1.603 1.603 0 0 0-.124.557c0 .124.018.247.054.37.117.031.258.046.423.046h.986c.47-.031.8-.046.987-.046.012-.093.018-.231.018-.417a2.14 2.14 0 0 0-.018-.278zm-.035-4.155c-1.151-.247-1.81-.371-1.974-.371a.547.547 0 0 0-.336.093v.973c.165 0 .976.078 2.433.231l-.123-.926zm3.555 17.699c-.271.525-.582.958-.935 1.297-.164.154-.405.448-.723.88l-.229-.231-.177.093c-.117.062-.193.093-.229.093-.176 0-.685-.486-1.524-1.46-.84-.973-1.342-1.645-1.507-2.015-.306-.648-.47-1.575-.493-2.78l.246-.371c.094 0 .37.216.829.649.141.123.347.185.616.185.2 0 .424.093.67.278.354.216.563.355.635.417.399.185.999.448 1.798.788.188.031.382.069.582.116.199.046.364.208.493.487a28.354 28.354 0 0 0-.052 1.574zm-2.063-5.977c-.023.031-.047.139-.071.325l-.352-.186c-.106 0-.794.293-2.062.88-.036-.093-.218-.263-.548-.51l-.193-.371a6.451 6.451 0 0 1 1.799-2.604l.122-.743.724-.699c.07 0 .141.046.212.139.082.341.21.76.388 1.257.094.154.189.318.289.488.101.17.175.412.221.721-.058.373-.235.807-.529 1.303z"/><path d="M137.948 36.328c-.294.648-.44 1.173-.44 1.575 0 .186.018.401.053.648a7.92 7.92 0 0 0-.035.695c0 .586.123 1.482.37 2.687s.37 2.162.37 2.873c0 .679-.176 1.452-.529 2.317-.27.617-.546 1.235-.828 1.853-.129.339-.3.911-.511 1.714-.482 1.853-.822 4.077-1.022 6.672-.082 1.111-.17 2.231-.264 3.359a24.641 24.641 0 0 1-.477 3.22 5.715 5.715 0 0 1-.317-1.946c0-4.386.153-7.753.458-10.101.247-1.76.864-4.664 1.852-8.71l-.282-1.853c-.152-.865-.306-1.297-.458-1.297-.176 0-.427.409-.749 1.228-.323.819-.597 1.228-.82 1.228-.188-.309-.312-.757-.37-1.344-.012-.308-.07-.787-.176-1.436.012-.093.053-.571.124-1.437.034-.556.11-1.004.229-1.344.082-.247.211-.679.388-1.297l.247.046a27.2 27.2 0 0 0 1.25-1.205c.283-.339.706-.849 1.27-1.529.247-.278.47-.417.67-.417.07 0 .153.016.247.046.164.278.247.849.247 1.714-.003.589-.168 1.268-.497 2.041zm3.42 21.914c-.341.247-.814.88-1.42 1.899-.604 1.02-1.095 1.637-1.471 1.854-.705-.433-1.134-1.329-1.287-2.687.07-.402.342-.757.812-1.066.657-.432 1.08-.757 1.269-.973.471-.556.764-1.329.881-2.317a.906.906 0 0 1 .336-.093c.258 0 .479.271.66.811.183.541.273 1.135.273 1.784 0 .248-.018.51-.053.788zm7.926-5.374l-.741.417c-1.14-1.575-2.073-2.316-2.802-2.224l-1.163.093-.106.881c.047 1.174.07 1.791.07 1.853 0 .278-.015.687-.043 1.228-.03.541-.045.95-.045 1.228 0 1.081.048 1.946.142 2.594-.06.155-.088.695-.088 1.622 0 .37-.054.803-.159 1.297-.131.586-.202 1.019-.213 1.297-.023.463-.05.78-.08.95-.028.17-.103.425-.221.765l-.478-.927-.354-2.594c0-.556.006-1.405.018-2.548l.124-6.811-.088-.741-.229.139c-.129-.093-.465-.139-1.005-.139.035 0-.265.17-.899.51l-1.375.556c-.188.031-.37.062-.546.093-.212.062-.382.216-.512.464-.128.247-.258.494-.388.741-.128.248-.258.355-.387.324l-.177-.046c-.07-1.205-.106-1.838-.106-1.9 0-.309.06-.633.178-.973l-.019-.884.635-1.351.441.419c1.468-.961 2.989-1.442 4.565-1.442.024-.124.036-.309.036-.556 0-.186-.012-.417-.036-.695l-.177-.556.105-1.158c-.048-.124-.118-.186-.212-.186-.13 0-.212-.016-.247-.047-.152.093-.446.14-.881.14-.376 0-.666.115-.872.348-.206.231-.515.532-.926.903l-.458-1.854.105-5.745c-.188-.587-.282-1.56-.282-2.919 0-.37.082-.772.246-1.204l.829-.742.353.278c.164.093.37.216.617.371.094.031.564-.093 1.41-.371l1.449-.463c.296-.062.425-.093.39-.093.271 0 .87.201 1.798.603.035-.031.258-.201.67-.51.246-.154.458-.448.634-.88.247.216.605.648 1.075 1.297-.023.186-.13.71-.317 1.575-.152.679-.229 1.205-.229 1.575 0-.277.07 1.19.212 4.402l-.424 2.733c-.13.031-.288.186-.476.464-.246.339-.394.54-.44.602l-.882-.277c-.023 0-.067.022-.132.069-.064.046-.109.069-.132.069-.036 0-.405-.124-1.111-.371l-.176.14.035.975-.193 1.579c.082.062.452.093 1.11.093.717 0 1.563.218 2.538.65a82.04 82.04 0 0 0 2.52 1.255c-.68 2.223-1.173 3.43-1.478 3.615zm-2.356-15.293c-.471-.522-1.252-.784-2.344-.784-1.61 0-2.797.399-3.561 1.201l-.036 3.417c.647-.463 1.493-.695 2.539-.695.352 0 .884.046 1.595.139s1.242.139 1.595.139c.06 0 .153-.046.283-.139l-.071-3.278zm3.154 23.071c-.21.341-.51.945-.898 1.812h-.123c-.259.031-.664-.339-1.216-1.116a11.766 11.766 0 0 1-1.075-1.811c-.165-.403-.418-1.008-.758-1.813-.142-.311-.353-.79-.636-1.438l.159-1.391.458-.695.617.046c1.069 1.915 2.402 2.873 4.001 2.873.047.496.07.852.07 1.069 0 .839-.199 1.658-.599 2.464z"/><path d="M154.685 40.204c-.14.402-.299 1.003-.476 1.807l.071.834-.054.787c.282 2.378.424 4.186.424 5.421 0 .865-.065 1.498-.194 1.899-.07.248-.379.772-.926 1.575-.546.803-.896 1.267-1.049 1.39a3.671 3.671 0 0 1-.325.255c-.111.077-.197.27-.256.579-.035.71-.076 1.776-.123 3.197-.023 1.575-.065 2.687-.124 3.336-.105 1.205-.306 2.162-.6 2.873-.328-1.483-.493-2.795-.493-3.938v-4.077c0-1.081.035-2.718.105-4.911.071-2.193.106-3.83.106-4.911 0-.926.053-3.228.159-6.904a10.05 10.05 0 0 0-.15-1.807c-.112-.68-.243-1.143-.396-1.39l-.194-1.482c.224-.649.436-1.174.635-1.576l.317.232c.999-.556 1.557-.834 1.675-.834.622 0 1.163.495 1.621 1.483s.688 2.301.688 3.938c0 .587-.147 1.329-.441 2.224zm-1.915 4.324c-.188.185-.382.386-.582.602-.198.216-.299.571-.299 1.066 0 .247.012.618.035 1.112s.035.865.035 1.112c0 .124-.012.316-.035.579s-.035.471-.035.625c0 .093.018.324.053.695.693-.618 1.188-1.761 1.481-3.429-.107-1.358-.324-2.146-.653-2.362zm.047-8.216c-.106-.093-.194-.139-.265-.139-.411 0-.617 1.606-.617 4.818 0 .463.023.849.07 1.158.693-1.297 1.228-3.027 1.604-5.189-.211-.648-.474-.864-.792-.648zm3.579 5.915c-.588.463-.959.695-1.111.695a.625.625 0 0 1-.212-.046c-.176-.402-.275-.988-.299-1.761.376-1.143 1.061-2.402 2.054-3.776s1.677-2.618 2.053-3.729l-.053-.973c.048-.124.323-.293.828-.51a.53.53 0 0 0 .282-.231l1.075 1.343c.176.587.43 1.081.758 1.482l.881 1.02c.353.495.899 1.158 1.64 1.992.412.248 1.028.665 1.852 1.251l.651-.278.141.741c-.223.71-.305 1.313-.246 1.807-.2.617-.458 1.112-.775 1.482-.506.587-.788.942-.847 1.066-.082-.216-.164-.325-.247-.325-.082 0-.176-.085-.282-.255-.104-.17-.264-.456-.476-.857a10.474 10.474 0 0 1-.476-.463 1.894 1.894 0 0 0-.282-.278l.176 1.158c-.352.432-.821.648-1.409.648-.517 0-.876.108-1.075.324l.053.556-.123 1.203c.458.031.917.062 1.375.091.528.093.976.34 1.34.741.14-.062.316-.34.527-.832l.529.23c.023.154.117.37.282.648.164.278.288.695.37 1.249-.224.956-.335 1.527-.335 1.712 0 .37.006.925.018 1.666.012.739.018 1.249.018 1.527 0 .461-.053.94-.158 1.433-.118.586-.265.942-.441 1.065l-.282-.648c-.094.092-.287.154-.581.185-.117.031-.276.123-.476.278-.787-.124-1.252-.186-1.393-.186-.306 0-.535.016-.688.047 1.763 2.996 3.119 4.494 4.072 4.494.07 0 .364-.046.88-.139.236.216.383.571.441 1.065 0 .124.017.34.053.649l-.3.648.088.371c-.129.124-.311.494-.546 1.112a2.983 2.983 0 0 1-.158.417c-.13.278-.396.541-.803.788-.405.247-.719.37-.942.37-.036-.062-.688-1.127-1.957-3.195-.822-1.356-1.397-2.654-1.728-3.888l-.422-.51c-.248.618-.624 1.512-1.128 2.685-.718 1.544-1.939 3.18-3.667 4.907l-.546-.463-.388-2.268.334-1.157.548.046c.646 0 1.304-.541 1.974-1.622.622-1.02 1.115-2.299 1.479-3.841l-.122-.047c-.024-.031-.042-.046-.054-.046-.882 0-1.656.479-2.326 1.434-.094-.309-.193-.863-.3-1.666-.094-.587-.205-.989-.335-1.205.105-.494.179-1.017.221-1.574.04-.556.12-1.358.237-2.407-.047-.186-.085-.51-.114-.973-.029-.464-.097-.834-.202-1.112l.528-1.064.476.186c.67-.309 1.675-.757 3.015-1.343-.094-.987-.194-1.527-.3-1.62a.393.393 0 0 0-.212-.046c-.563 0-1.058.185-1.48.556-.035.031-.12.139-.256.324-.135.185-.231.276-.291.276-.07 0-.152-.062-.246-.186l-.159-2.448zm2.925 6.749l-.106-.139c-.716.186-1.498.463-2.345.834-.198.339-.287 1.173-.264 2.501l.071.139c.34-.277.78-.479 1.321-.602.775-.155 1.228-.263 1.357-.325l-.034-2.408zm1.375-11.814c-.318-.68-.5-1.019-.548-1.019-.27 0-.758.633-1.462 1.899a32.554 32.554 0 0 0-1.517 3.15c.764-.34 1.663-.51 2.697-.51-.446 0 .452.015 2.696.046-.421-.771-1.043-1.96-1.866-3.566zm3.242 12.817c-.717-.896-1.574-1.343-2.572-1.343-.389 0-.63.031-.724.093l-.088 2.27.07.417c.717-.154 1.116-.231 1.199-.231.034 0 .728.185 2.079.556l.105-.092-.069-1.67z"/><linearGradient id="i" gradientUnits="userSpaceOnUse" x1="66.66" y1="54.238" x2="121.967" y2="109.545"><stop offset="0" stop-color="#ead18f"/><stop offset=".076" stop-color="#e1c477"/><stop offset=".221" stop-color="#d1af4e"/><stop offset=".335" stop-color="#c8a235"/><stop offset=".405" stop-color="#c49d2c"/><stop offset=".559" stop-color="#d4b35c"/><stop offset=".766" stop-color="#e7cd97"/><stop offset=".919" stop-color="#f3debb"/><stop offset="1" stop-color="#f8e4c9"/></linearGradient><linearGradient id="j" gradientUnits="userSpaceOnUse" x1="75.56" y1="15.034" x2="130.866" y2="70.34"><stop offset="0" stop-color="#ead18f"/><stop offset=".076" stop-color="#e1c477"/><stop offset=".221" stop-color="#d1af4e"/><stop offset=".335" stop-color="#c8a235"/><stop offset=".405" stop-color="#c49d2c"/><stop offset=".559" stop-color="#d4b35c"/><stop offset=".766" stop-color="#e7cd97"/><stop offset=".919" stop-color="#f3debb"/><stop offset="1" stop-color="#f8e4c9"/></linearGradient><linearGradient id="k" gradientUnits="userSpaceOnUse" x1="94.897" y1="28.252" x2="150.203" y2="83.558"><stop offset="0" stop-color="#ead18f"/><stop offset=".076" stop-color="#e1c477"/><stop offset=".221" stop-color="#d1af4e"/><stop offset=".335" stop-color="#c8a235"/><stop offset=".405" stop-color="#c49d2c"/><stop offset=".559" stop-color="#d4b35c"/><stop offset=".766" stop-color="#e7cd97"/><stop offset=".919" stop-color="#f3debb"/><stop offset="1" stop-color="#f8e4c9"/></linearGradient></svg>