<?xml version="1.0" encoding="utf-8"?><svg xmlns="http://www.w3.org/2000/svg" width="99" height="84" viewBox="3.121 5.426 99 84"><linearGradient id="a" gradientUnits="userSpaceOnUse" x1="106.679" y1="40.324" x2="162.188" y2="95.834"><stop offset="0" stop-color="#ead18f"/><stop offset=".076" stop-color="#e1c477"/><stop offset=".221" stop-color="#d1af4e"/><stop offset=".335" stop-color="#c8a235"/><stop offset=".405" stop-color="#c49d2c"/><stop offset=".559" stop-color="#d4b35c"/><stop offset=".766" stop-color="#e7cd97"/><stop offset=".919" stop-color="#f3debb"/><stop offset="1" stop-color="#f8e4c9"/></linearGradient><linearGradient id="b" gradientUnits="userSpaceOnUse" x1="106.883" y1="52.443" x2="162.427" y2="107.987"><stop offset="0" stop-color="#ead18f"/><stop offset=".076" stop-color="#e1c477"/><stop offset=".221" stop-color="#d1af4e"/><stop offset=".335" stop-color="#c8a235"/><stop offset=".405" stop-color="#c49d2c"/><stop offset=".559" stop-color="#d4b35c"/><stop offset=".766" stop-color="#e7cd97"/><stop offset=".919" stop-color="#f3debb"/><stop offset="1" stop-color="#f8e4c9"/></linearGradient><linearGradient id="c" gradientUnits="userSpaceOnUse" x1="84.93" y1="51.673" x2="140.237" y2="106.98"><stop offset="0" stop-color="#ead18f"/><stop offset=".076" stop-color="#e1c477"/><stop offset=".221" stop-color="#d1af4e"/><stop offset=".335" stop-color="#c8a235"/><stop offset=".405" stop-color="#c49d2c"/><stop offset=".559" stop-color="#d4b35c"/><stop offset=".766" stop-color="#e7cd97"/><stop offset=".919" stop-color="#f3debb"/><stop offset="1" stop-color="#f8e4c9"/></linearGradient><linearGradient id="d" gradientUnits="userSpaceOnUse" x1="93.673" y1="-20.558" x2="148.979" y2="34.748"><stop offset="0" stop-color="#ead18f"/><stop offset=".076" stop-color="#e1c477"/><stop offset=".221" stop-color="#d1af4e"/><stop offset=".335" stop-color="#c8a235"/><stop offset=".405" stop-color="#c49d2c"/><stop offset=".559" stop-color="#d4b35c"/><stop offset=".766" stop-color="#e7cd97"/><stop offset=".919" stop-color="#f3debb"/><stop offset="1" stop-color="#f8e4c9"/></linearGradient><path fill="#B2B2B2" d="M8.648 18.87a38.08 38.08 0 0 0-.12 2.018 129.706 129.706 0 0 1-.072 2.062c-.153 3.1-.646 6.053-1.479 8.86-.579 1.93-1.096 2.998-1.553 3.202l-.637-.833a4.322 4.322 0 0 1-.097-1.009c0-.936.229-1.989.686-3.158.336-.76.678-1.535 1.021-2.325.434-1.141.779-2.705 1.035-4.693.249-1.901.373-3.86.373-5.878l-.181-1.71c.016-.38.037-.753.061-1.119s.093-.666.204-.899c.233-.029.357-.043.373-.043.209 0 .365.102.47.307.104.205.2.629.289 1.272.031.234.092.672.181 1.315-.289.993-.473 1.87-.554 2.631zm7.126 13.641c-.113.205-.317.936-.614 2.193-.239.994-.493 1.477-.758 1.447-.28-.175-.581-.848-.901-2.018-.354-1.316-.686-3.1-.999-5.352-.248-1.988-.497-3.962-.745-5.921l-.603-4.211c-.248-1.872-.373-3.348-.373-4.43s.088-1.798.265-2.149h.53c.048.468.155.702.324.702.016.351.064.76.145 1.228s.132.877.156 1.228c0 .351.032.907.096 1.667l-.107.395c.32 3.158.785 5.893 1.396 8.203.697 2.632 1.46 4.152 2.286 4.562l.168 1.184-.266 1.272zm-1.531-13.948c-.273 0-.519-.234-.734-.702-.241-.526-.401-1.257-.481-2.193l.048-1.185.217-.395c.112.994.381 1.491.806 1.491.153 0 .285-.234.397-.704s.168-.983.168-1.541c0-.616-.056-1.137-.168-1.563-.112-.424-.252-.638-.421-.638-.457 0-.697.746-.723 2.237l-.24.702c-.232 0-.349-.336-.349-1.009a8.54 8.54 0 0 1 .049-.483l.035-.482c.232-2.281.658-3.421 1.275-3.421.369 0 .667.47.896 1.406.229.938.343 2.08.343 3.427 0 1.171-.101 2.285-.301 3.339-.224 1.142-.497 1.714-.817 1.714zM17.974 23.739l-.146.526c-.047.175-.12.292-.216.351-.145-.263-.257-.658-.338-1.184a51.34 51.34 0 0 1-.336-2.413c-.161-1.345-.241-2.179-.241-2.5 0-1.082.153-1.842.458-2.281l.156.264h.229c.224.848.353 1.593.385 2.237.008.292.057.804.145 1.535l-.013 1.404c0-.029.024.585.072 1.842a.482.482 0 0 0-.155.219zm6.255-3.861a33.1 33.1 0 0 0-.505 2.149c-.112.585-.251 1.492-.415 2.72s-.299 2.12-.403 2.676c-.353 1.959-.689 3.494-1.01 4.605-.265.936-.69 2.12-1.276 3.553-.44 1.082-.794 1.754-1.059 2.018a31.76 31.76 0 0 0-.649.438c-.248.146-.461.395-.637.746a5.93 5.93 0 0 0-.481-1.184c-.169-.322-.346-1.009-.53-2.062.185-.907.47-1.521.854-1.842.337-.205.67-.41.999-.614.417-.351.922-1.213 1.515-2.588.771-1.784 1.364-3.772 1.781-5.965.145-1.053.396-2.573.758-4.562l-.144-2.062c-.033-.38.071-.994.313-1.842l.276.175.277-.351.24.307.156-.307.529 1.667c-.104.469-.3 1.244-.589 2.325zm-3.464.132c0 .497-.037 1.126-.108 1.886-.049 0-.08.015-.097.044-.032.263-.121.672-.265 1.228l-.036.132c-.048.087-.084.395-.108.921a10.192 10.192 0 0 1-.289-1.798 45.695 45.695 0 0 1-.071-1.974 18.618 18.618 0 0 0-.229-2.456 15.15 15.15 0 0 1-.181-1.535c.192-.761.422-1.141.687-1.141.128 0 .221.044.276.132l.181-.22c.024.38.204.775.541 1.185a30.1 30.1 0 0 0-.259 1.798c-.029.322-.042.921-.042 1.798zM35.962 16.501c-.208 1.14-.333 1.784-.373 1.93-.136.585-.324.994-.565 1.228a48.444 48.444 0 0 1-1.131-1.272c-.457-.468-.843-.702-1.155-.702-.072 0-.128.044-.169.131l.206 1.229c-.298.556-.502 1.389-.614 2.5-.023.176-.136 1.535-.337 4.08-.152 1.988-.433 3.955-.842 5.899s-.854 3.487-1.336 4.627a8.69 8.69 0 0 1-1.78 2.676c-.209-.205-.466-.614-.771-1.228a19.685 19.685 0 0 1-.023-.877c0-1.082.151-1.915.457-2.5.273-.38.549-.76.83-1.141.401-.556.826-1.506 1.275-2.851.898-2.69 1.479-6.039 1.744-10.045l-.265-1.798a14.51 14.51 0 0 0-1.131.132c-.425.146-.782.585-1.07 1.316l-.24-.307c-.177.292-.506 1.433-.987 3.421-.393 1.55-.786 2.325-1.179 2.325-.241 0-.461-.175-.662-.526-.249-.438-.396-1.067-.445-1.886.121-.906.338-1.608.65-2.105.28-.38.558-.76.83-1.14.393-.614.77-1.652 1.131-3.114s.613-2.939.758-4.431c-.017-.175-.04-.453-.072-.833a2.648 2.648 0 0 0-.145-.614c0-1.316.229-1.974.687-1.974h.312c.192.41.381.819.565 1.229.177.497.301 1.184.373 2.062l-.434.79c-.016.059-.052.249-.108.57-.08.497-.164.979-.253 1.447l.085.132c.729-.614 1.62-.921 2.671-.921a5.79 5.79 0 0 1 1.636.219c.049 0 .148.059.301.176.129.087.232.131.313.131l1.395-.307.146 1.141a8.34 8.34 0 0 0-.278 1.181zM43.79 26.678c-.265 0-.609-.176-1.035-.526-.521-.439-.862-.688-1.022-.746-.393-.176-1.106-.264-2.142-.264-.119 0-.292.059-.517.176-.225.117-.385.175-.482.175-.648.117-1.051.234-1.202.351-.289.205-.666.775-1.131 1.71-.144-.526-.217-1.418-.217-2.675.104-.965.169-1.536.192-1.711.104-.614.24-.921.409-.921.032 0 .08.015.145.043a.392.392 0 0 0 .145.044c.12 0 .288-.073.505-.219.272-.205.445-.322.518-.351.313-.146.602-.219.866-.219h2.142c.746 0 1.315.088 1.708.263.185.059.377.088.577.088-.096 0 .474-.146 1.709-.439.04.029.104.088.192.176l.253.175c-.033 1.521-.217 2.734-.554 3.641-.305.819-.659 1.229-1.059 1.229zM49.58 21.122c-.241.643-.49 1.038-.746 1.184-.112.059-.28.176-.506.351-.12.146-.297.307-.529.482a4.125 4.125 0 0 0-.601.219 1.687 1.687 0 0 0-.591.526c-.063-.292-.116-.746-.155-1.36-.033-.409-.085-.687-.157-.833a17.393 17.393 0 0 1-.012-.57c0-.585.055-1.148.163-1.689.107-.541.246-.797.414-.768.489.059 1.147.059 1.974 0 .337-.029.565.015.686.132.217.234.385.79.505 1.667-.16.088-.309.308-.445.659zm4.486 3.947c-2.237 7.369-4.446 11.975-6.628 13.817l-.625-1.711a8.017 8.017 0 0 1-.025-.614c0-.556.137-1.696.41-3.421.385-.292.95-.79 1.695-1.491.642-.731 1.368-1.974 2.178-3.729.738-1.579 1.4-3.29 1.985-5.132l1.01-3.158c.434-1.287.791-2.12 1.071-2.5l.289.307c-.112 2.456-.565 5.001-1.36 7.632zm-3.319-11.975c-.153.585-.277.848-.373.79l-2.058-.965c-.032-.029-.093.022-.181.154-.089.131-.156.197-.204.197l-.085-.044-.204-2.105c-.032-.263-.016-.658.049-1.185.128-.994.412-1.491.854-1.491.104 0 .232.103.386.307.185.263.305.424.36.482.209.117.541.38.999.79.473.497.77 1.257.89 2.281-.16 0-.305.263-.433.789zm3.753 1.273l-.24 1.184-.217-.088c-.289-.584-.537-1.418-.746-2.5l-.276-1.36a10.095 10.095 0 0 0-.349-1.228l.349-.614c.313.468.621.921.926 1.36.377.702.565 1.594.565 2.676 0 .175-.004.365-.012.57zm.421-2.939l-.264.263c-.192-.322-.397-.819-.614-1.491a73.46 73.46 0 0 0-.541-1.799 5.063 5.063 0 0 0-.518-1.14l.457-.614c.569.41.931.746 1.083 1.009.369.614.577 1.638.626 3.071l-.229.701zM66.249 36.722c-.192.234-.465.688-.817 1.36l-.156-.131c.008 0-.045.043-.157.131-.521-.936-1.327-1.535-2.418-1.798-.057 0-.188-.044-.396-.132-.169-.087-.301-.131-.397-.131-.586 0-1.252.249-1.997.746l-1.564.614c-.689.38-1.154 1.023-1.395 1.93l-.181-.658c0-.585-.068-1.345-.205-2.281l.168-2.105c.113-.322.214-.482.302-.482.04 0 .075.029.108.087.088-.585.132-1.316.132-2.193 0-.234-.004-.607-.012-1.119s-.012-.899-.012-1.163c0-.059.016-.862.047-2.413.018-1.228.049-3.07.097-5.527 0-.234.021-.643.061-1.228.023-.497.035-.906.035-1.228 0-.029-.088-.512-.264-1.448a6.752 6.752 0 0 1-.084-.79l.661-1.798c.152.351.301.709.445 1.075.145.366.261.855.349 1.47-.08.38-.164 1.345-.253 2.895a90.876 90.876 0 0 0-.144 3.071v2.939c0 .205-.014.497-.043.877-.027.38-.042.658-.042.833 0 1.784-.004 3.451-.012 5 .521-.38 1.228-.673 2.117-.877-.072 0-.185-.073-.337-.219l-.071-.351c.039-.761.167-1.755.385-2.983.289-1.638.452-2.603.493-2.895h-.061c-.682 0-1.123.322-1.323.965-.128-.175-.265-.234-.409-.175l-.216-2.062.107-1.185c.32-.409.794-.731 1.42-.965.674-.234 1.155-.512 1.443-.833v-.263c0-.438-.035-.863-.107-1.272l-.157-.175-.697.087c-.257.088-.453.454-.59 1.097-.168-1.111-.261-1.872-.276-2.281v-2.062a3.69 3.69 0 0 0-.12-.965 10.357 10.357 0 0 1-.024-.658 3.5 3.5 0 0 1 .421-1.667c.353.205.574.41.662.614.151.38.24 1.169.264 2.369.426-.351 1.127-.526 2.105-.526.595 0 1.051.292 1.372.877l-.049.921.049.877c-.257.731-.612 1.082-1.064 1.053-.453-.029-.744.087-.872.351v1.448c.305.351 1.303.526 2.995.526l.277.438-.073.966.061.789c-.033.41-.134.775-.302 1.097a4.987 4.987 0 0 1-.386.614 62.598 62.598 0 0 0-.805-.614c-.313-.263-.582-.395-.806-.395-.018 0-.057.029-.121.088l-.06.043c.047.378.163.971.348 1.773s.297 1.495.338 2.08c.031.378.047 1.167.047 2.363l-.012.088c.017.146.024.292.024.438 0 .059-.004.117-.013.174l-.012.351h-.336c-.281-.496-.577-1.642-.891-3.436-.313-1.795-.574-2.912-.782-3.35-.144.263-.316.848-.517 1.751L61.1 29.3c-.248 1.109-.536 2.087-.865 2.933.32-.087.585-.131.793-.131.763 0 1.38.059 1.854.175.328.207.774.411 1.336.616.016 0 .316.06.901.177.145 0 .361.015.65.044.2.148.517.309.95.484l.012.528c.015 1.176-.144 2.041-.482 2.596zm-1.286-24.783c-.161 0-.41-.059-.746-.175-.338-.117-.59-.176-.759-.176.017 0-.573.103-1.769.307-.553.088-1.082.205-1.588.351-.529.117-.803.175-.818.175l-.048-.044c-.032-.029-.056-.044-.072-.044-.064 0-.164.059-.301.176-.137.117-.244.175-.325.175-.167-.029-.232-.044-.192-.044-.096 0-.32.234-.674.702-.071.087-.144.131-.216.131-.08-.292-.136-.731-.169-1.316a25.969 25.969 0 0 0-.12-1.404c.08-.76.181-1.257.301-1.491.594-.322 1.492-.643 2.694-.965.313 0 .778-.015 1.396-.044.088-.029.369-.103.842-.219.345-.117.625-.176.843-.176 1.059 0 1.921.38 2.587 1.141 0 .936-.085 1.66-.254 2.171-.168.514-.373.769-.612.769z"/><path fill="#B2B2B2" d="M73.635 14.425c.289.263.441.79.457 1.579.064.117.136.183.211.198.076.015.131.051.162.109 1.043-.351 1.601-.526 1.673-.526.433 0 .83.278 1.191.833.152.702.228 1.257.228 1.667-.096.351-.242.665-.438.943s-.363.417-.499.417c-.088 0-.213-.11-.373-.329-.16-.22-.276-.344-.35-.373-.12.059-.3.029-.541-.088-.16.029-.397.103-.71.22.281.818.63 1.433 1.047 1.842l.229-1.404.396.044.241.526c.097.263.145.541.145.833s-.064.702-.193 1.228c.218.351.554.79 1.012 1.316.208.117.537.322.985.614l.277.79-.433 2.237-.565 1.228c-.2-.175-.453-.585-.758-1.228-.346-.731-.594-1.199-.746-1.404.031.468.061 1.155.084 2.062 0 .498-.057 1.126-.169 1.886-.063.41-.155 1.038-.276 1.886a1.811 1.811 0 0 0-.926-.438c-.185 0-.466-.059-.843-.176l-.276 1.535v.22c0-.088.027.716.084 2.412.017.41-.034 1.119-.15 2.127-.116 1.009-.223 1.704-.318 2.083-.257-.672-.385-1.769-.385-3.29v-.636-.636c0-.41-.009-.731-.024-.965l.036-1.623c0-.205-.032-.424-.097-.658-.811 0-1.399.38-1.769 1.141l-.168-.263a35.939 35.939 0 0 1-.133-2.72c0-.584.021-1.331.061-2.237.064-1.287.101-2.032.108-2.237a6.068 6.068 0 0 1-.409.833c-.329-.409-.585-.614-.77-.614a78.57 78.57 0 0 1-.361 3.026c-.12.468-.301 1.199-.542 2.193a84.13 84.13 0 0 1-.493 2.149 7.571 7.571 0 0 1-.554 1.492c-.288.585-.509.877-.661.877-.272 0-.489-.643-.649-1.93l.108-1.36c.136-.468.393-1.009.77-1.623a9.969 9.969 0 0 0 1.053-2.435c.244-.862.479-2.113.704-3.75a4.5 4.5 0 0 0-.759 1.403c-.473 1.55-.833 2.325-1.082 2.325-.088-.292-.145-.716-.169-1.272l-.047-1.403c.104-.644.22-1.17.348-1.579.089-.263.406-.702.95-1.316.522-.585.892-.936 1.107-1.053.128-1.491.209-2.91.24-4.255l-.035-1.053-.169.132c-.112.087-.181.131-.204.131-.097 0-.199-.131-.307-.395-.108-.263-.163-.599-.163-1.009 0-.146.057-.687.169-1.623.104-.263.231-.775.385-1.536.112.322.22.483.324.483.265 0 1.212-.395 2.84-1.185l.049-.702-.169-1.623.072-.965c.079-.41.236-.614.469-.614.578 0 .866.644.866 1.93 0 .292-.048.599-.145.921l-.048.181a1.57 1.57 0 0 0-.084.483c0 .321.084.453.252.395h.145c.056 0 .112.059.169.175.136 0 .324-.015.564-.043h.554c.2 0 .502.037.903.109.4.073.701.11.901.11.53 0 .839.731.927 2.193l-.037.614c-.151.205-.385.512-.697.921-.031.029-.261.131-.686.307-.128-.117-.693-.395-1.696-.833a3.643 3.643 0 0 0-.493-.307 7.103 7.103 0 0 0-1.287-.132c-.329 0-.814.219-1.456.658a.57.57 0 0 1-.264.087c-.018 0-.101-.044-.253-.131a4.39 4.39 0 0 0-.554.219c-.24.117-.409.322-.505.614.096.614.144 1.155.144 1.623 0 .643-.042 1.55-.126 2.719-.085 1.17-.126 2.062-.126 2.676 0 .263.016.57.048.921.272-.263.669-.775 1.191-1.535-.033-.029-.072-.139-.121-.329-.048-.19-.097-.563-.145-1.119l.036-.351c.072-.263.188-.57.35-.921a1.679 1.679 0 0 0-.361.395l-.313-.482a4.981 4.981 0 0 1-.024-.438c0-.263.044-.57.133-.921.072-.263.145-.526.216-.79l.157-.219c.185.117.272.175.265.175l.926-.482c.121-.029.292-.088.518-.175l-.037-1.228c.081-.41.262-.614.542-.614h.072c.023.057.039.101.047.13zm-4.143 4.971c-.136.263-.368.534-.697.812s-.541.563-.638.855c-.08 0-.196-.146-.35-.438.025-.936.177-1.784.458-2.544.16.029.335-.014.523-.131s.326-.175.415-.175c.12 0 .236.19.349.57l-.06 1.051zm2.071 16.361c-.192.497-.39.979-.59 1.447-.232.497-.453.848-.661 1.053-.064-.087-.258-.234-.578-.438-.168-.117-.394-.541-.675-1.272.049-.907.218-1.36.507-1.36.151 0 .608-.438 1.371-1.316.177-.205.373-.541.589-1.009.041.292.117.482.229.57.112.087.196.249.252.482v1.053a5.365 5.365 0 0 0-.444.79zm-.012-16.712h.023c.072 0 .169.161.289.482.16.438.252.687.276.746.151-.351.377-.921.674-1.71-.281.058-.702.219-1.262.482zm3.997 8.998c-.225.029-.487-.044-.788-.216s-.522-.258-.668-.258a.592.592 0 0 0-.276.086c-.056.029-.221.044-.493.044-.497 0-1.002.143-1.516.429a6.149 6.149 0 0 0-.12.903h.192c.177 0 .447-.093.813-.28.364-.187.639-.28.823-.28.265 0 .605.029 1.023.086.577.029.917.059 1.022.086a1.58 1.58 0 0 0 .012-.214 3.51 3.51 0 0 0-.024-.386zm-.281-3.347c-.385-.327-.652-.49-.806-.49-1.323 0-2.165.281-2.525.846l-.037.616c1.308-.292 2.009-.438 2.105-.438.023 0 .489.176 1.396.526l.036-.044a4.393 4.393 0 0 0-.169-1.016zm-.637-2.376c-.241-.526-.569-1.433-.987-2.719-.023-.029-.048-.044-.071-.044-.072 0-.229.351-.469 1.053-.313.906-.474 1.36-.481 1.36a5.948 5.948 0 0 1-.192.438c.762-.205 1.259-.307 1.491-.307l.709.219zm3.488 14.168l-.012.088.037.131-.037 1.185c-.633.409-.994.687-1.082.833-.266-.351-.574-.863-.927-1.536l-.914-1.754h-.157c-.168-.468-.253-1.038-.253-1.71 0-.526.108-.98.326-1.36h.096c.345.556.625.892.843 1.009.071.117.184.278.336.482.329.205.662.424.999.658.457.38.733.892.83 1.535a2.06 2.06 0 0 1-.085.439z"/><path fill="#B2B2B2" d="M88.412 20.844c-.097 0-.377-.307-.843-.921-.28-.38-.633-.965-1.059-1.754-.562-1.053-.909-1.681-1.047-1.886-.344-.585-.913-1.564-1.708-2.938-.16.292-.862 1.637-2.105 4.035-.851 1.638-1.563 2.895-2.141 3.772-.146 0-.354-.044-.626-.132-.152-.088-.321-.424-.506-1.009-.257-.877-.404-1.36-.445-1.447l.085-1.185c.729 0 1.592-.716 2.586-2.149 1.035-1.462 1.785-3.114 2.25-4.957.417-1.608.682-2.413.794-2.413.169 0 .344.249.524.746a4.87 4.87 0 0 1 .271 1.667c0 .205-.009.41-.025.614.538.848 1.352 1.974 2.443 3.377.336.38.773.644 1.312.79.825.263 1.263.409 1.311.438l.192.614v1.36c-.433 2.252-.855 3.378-1.263 3.378zm-5.747 1.184c0 1.287-.023 2.559-.072 3.816-.104 2.69-.404 5.234-.901 7.632-.578 2.778-1.208 4.167-1.89 4.167-.296 0-.521-.424-.674-1.272a7.676 7.676 0 0 1 .409-2.632c.505-1.345 1.007-2.676 1.504-3.992.521-1.696.782-3.685.782-5.965 0-.79-.076-1.93-.229-3.421a10.342 10.342 0 0 1-.049-.57c0-.76.101-1.141.301-1.141.089 0 .22.081.391.241.173.161.308.227.404.198.128.702.192 1.287.192 1.754.001.41-.056.805-.168 1.185zm3.345-.219c-.039.175-.092.439-.156.79-.032.234-.048.804-.048 1.711v1.097c.008.438.012.702.012.789v3.421c0 4.24-.17 7.559-.507 9.957-.362-1.813-.544-4.591-.544-8.334 0-.263.008-.526.023-.79a63.242 63.242 0 0 1-.031-1.974c0-.994.027-2.705.084-5.132a25.37 25.37 0 0 0-.048-1.886c-.048-.789-.12-1.301-.217-1.535a7.871 7.871 0 0 1-.036-.658c0-1.053.16-1.652.481-1.798.04.175.269.614.686 1.316.289.497.433 1.184.433 2.062 0 .203-.043.525-.132.964z"/><path fill="#B2B2B2" d="M92.972 14.922l-1.397-.22c-.892 0-1.654.454-2.288 1.36l-.132-.57.012-1.667c.057-.497.146-.775.271-.833s.246-.117.367-.175c.048-.029.256-.234.625-.614.146-.029.357-.117.639-.263.016-.234.023-.497.023-.79 0-.234-.08-.848-.24-1.842l.132-1.404c.097 0 .221-.059.374-.175.186-.146.31-.219.375-.219.04.351.097.6.169.746s.145.3.217.46c.073.161.132.402.181.724-.168.731-.253 1.389-.253 1.974 0 .087.004.19.012.307l.843.175c.361.088.662.672.903 1.754-.405.877-.681 1.301-.833 1.272zm.236 14.996c0 1.906.036 3.667.108 5.278l-.192 1.584c-.063-.175-.108-.265-.133-.265.024 0-.104.25-.384.748-.168-.263-.336-.395-.505-.395-.625 0-1.078.073-1.358.219-.505.292-.925.892-1.262 1.798a9.662 9.662 0 0 1-.264-2.283c0-.585.027-1.069.083-1.451.049-.263.109-.733.181-1.407.041-.587.061-1.32.061-2.201 0-.263-.03-.601-.09-1.012a6.854 6.854 0 0 1-.091-.923c0-.175.02-.353.061-.528.562-1.203 1.278-1.804 2.151-1.804.352 0 .701.177 1.045.528l.469-.219.361 1.011-.241 1.322zm-.878-4.6c-.056 0-.474-.146-1.251-.438-.161-.059-.385.014-.674.219a1.67 1.67 0 0 0-.626.877c-.192-.322-.289-1.053-.289-2.193.281-.877.77-1.404 1.469-1.579.32-.088.473-.132.457-.132l.854.219c-.008 0 .141-.043.445-.131l.47 1.141c-.074 1.344-.358 2.017-.855 2.017zm.208-5.132c-.096.029-.224.015-.385-.043a3.022 3.022 0 0 0-.373-.044c-.232 0-.567.124-1.004.373-.438.249-.756.373-.957.373l-.144-.045a6.252 6.252 0 0 1-.132-1.316c0-.234.008-.497.023-.79.522-.907 1.132-1.36 1.829-1.36h.987c.521 0 .837.673.95 2.018-.225.526-.489.805-.794.834zm-.1 10.779c-.184-.353-.42-.543-.708-.572a5.843 5.843 0 0 0-.719-.131c-.017 0-.052-.029-.108-.09-.056-.058-.1-.087-.131-.087-.081 0-.181.073-.3.221-.185.234-.28.366-.288.395-.064.265-.096.764-.096 1.499 0 .353.008.91.023 1.672.632-.38 1.407-.57 2.326-.57v-2.337zm7.054-4.478c-.345-.526-.923-.79-1.732-.79-1.388 0-2.31.19-2.767.57l-.108-.175c-.169.087-.449.292-.843.614.024-1.519.049-3.05.072-4.598.032-1.838.093-3.37.181-4.597-.104.117-.2.176-.288.176-.21 0-.394-.103-.554-.307l-.145-.393c.032-.671.076-1.095.133-1.27a.647.647 0 0 1 .348-.393c.072-.029.161-.073.266-.131.562-.41 1.564-1.402 3.008-2.978a5.5 5.5 0 0 1 .456-.393c.192-.205.325-.453.398-.746-.025-.117-.068-.175-.133-.175-.089 0-.613.175-1.576.526l.024 1.051c-.081-.117-.124-.175-.133-.175a9.938 9.938 0 0 1-.373.744c-.176-1.021-.321-1.532-.433-1.532-.145 0-.325.073-.542.22l-.529.395-.145-.482a4.931 4.931 0 0 1-.023-.44c0-.409.044-.777.133-1.1l.913-.574v-.927c.049-.438.157-.66.326-.66.071 0 .169.197.294.592.124.395.219.607.283.636.12-.029.297 0 .528.088.361-.029.899-.131 1.612-.307l-.012-.702c.177-.497.332-.746.47-.746.031 0 .076.029.132.088.031.233.09.46.175.68.084.219.15.504.198.855.241.029.501.146.781.351.386.263.578.6.578 1.009l-.013.351c-.208.322-.356.482-.444.482-.032 0-.445-.117-1.239-.351-.048.292-.137.498-.265.614-.049.029-.112.103-.192.219l.373.57-.181 1.535c-.497 0-.862.132-1.095.395.072.263.184.585.337.965.104.205.417.307.938.307.097 0 .242-.037.438-.11.196-.073.344-.109.439-.109.337 0 .613.426.831 1.279-.395.707-.819 1.045-1.276 1.016l-1.07-.131c-.024.029-.104.043-.241.043-.104 0-.168.086-.192.258v.302c.072.115.317.172.734.172.714 0 1.115.043 1.203.131.136.145.28.495.433 1.049l-.577 1.093a78.912 78.912 0 0 0-1.744-.349c-.064 0-.104.103-.12.305l.047.305c.578-.203.947-.247 1.107-.131.201.087.397.175.59.263.177.175.341.598.493 1.268-.257.554-.466.802-.625.744-.578-.234-.862-.342-.854-.322-.033 0-.298.057-.795.174a.812.812 0 0 0-.023.215c0 .086.004.201.012.344.088.117.341.173.758.173l2.406-.131.012 1.133c-.288 1.05-.681 1.691-1.178 1.925zm-.076 13.159c-.24-.263-.493-.731-.758-1.404-.225-.584-.449-1.184-.674-1.798-.265-.643-.767-1.433-1.503-2.369a78.103 78.103 0 0 0-1.192 1.974c-.577.906-.962 1.36-1.154 1.36-.112 0-.257-.241-.434-.724a5.168 5.168 0 0 1-.313-1.381l.145-.921c.056-.117.181-.205.373-.263.136-.059.272-.102.409-.131.44-.234.813-.833 1.119-1.798-.113-.556-.359-.87-.74-.943s-.636-.548-.764-1.425c.055-1.462.192-2.193.408-2.193.049 0 .116.029.204.088.089.058.153.087.192.087.121 0 .291-.022.513-.065a2.78 2.78 0 0 1 .487-.066.49.49 0 0 1 .167.044.488.488 0 0 0 .157.043c.088 0 .218-.036.391-.109s.295-.11.367-.11c.481-.087.83-.161 1.047-.219.385-.146.726-.38 1.022-.702l.108.131.192-.131c.112-.117.32.497.625 1.842a70.637 70.637 0 0 0-1.202 1.842 45.966 45.966 0 0 1-.986 1.842c.657 1.169 1.271 1.842 1.841 2.018.216 0 .536.103.962.307.089.087.151.219.192.395.008.176.012.322.012.439 0 .848-.152 1.74-.457 2.676-.231.729-.484 1.284-.756 1.664zm-2.727-16.785a.345.345 0 0 0-.037-.087c-.071 0-.641.146-1.708.438l-.084.79.048.044 1.781-.351a1.46 1.46 0 0 0 .023-.263 6.874 6.874 0 0 0-.023-.571zm-.136-2.602h-.794c-.32.029-.577.146-.77.351-.04.146-.061.307-.061.482 0 .088.004.175.012.263h.061c.112 0 .261-.059.445-.175.24-.176.385-.278.433-.307.112 0 .28-.029.506-.088.079-.029.184-.102.313-.219-.032-.205-.081-.307-.145-.307zm.18-2.442l-.024-.175-.023-.044c-.041.029-.569.234-1.589.614a1.941 1.941 0 0 0-.035.526v.131l.047.132c.217-.234.489-.409.819-.526.272-.088.544-.161.817-.219l.012-.263-.024-.176zm0-2.544a2.76 2.76 0 0 0-.024-.351h-.012c-.216.087-.542.395-.975.921a2.705 2.705 0 0 0 1.011-.438v-.132zm-.047 14.373h-.192a.633.633 0 0 0-.542.263c.097.292.305.6.626.921.152-.234.376-.6.674-1.097a9.658 9.658 0 0 0-.566-.087z"/><path d="M7.638 17.87a39.186 39.186 0 0 0-.12 2.018c-.04 1.287-.064 1.974-.072 2.062-.152 3.1-.646 6.053-1.479 8.86-.578 1.93-1.096 2.998-1.552 3.202l-.638-.833a4.322 4.322 0 0 1-.097-1.009c0-.936.229-1.989.686-3.158.337-.76.678-1.535 1.022-2.325.433-1.141.778-2.705 1.035-4.693.248-1.901.373-3.86.373-5.878l-.181-1.71c.016-.38.036-.753.06-1.119.025-.366.093-.666.204-.899.233-.029.357-.043.373-.043.21 0 .365.102.47.307.104.205.2.629.289 1.272l.181 1.315c-.29.993-.474 1.87-.554 2.631zm7.126 13.641c-.112.205-.316.936-.613 2.193-.24.994-.494 1.477-.758 1.447-.28-.175-.581-.848-.902-2.018-.353-1.316-.686-3.1-.998-5.352-.249-1.988-.497-3.962-.746-5.921l-.602-4.211c-.249-1.872-.373-3.348-.373-4.43s.088-1.798.265-2.149h.529c.049.468.156.702.324.702.017.351.064.76.145 1.228.081.468.132.877.157 1.228 0 .351.031.907.096 1.667l-.107.395c.32 3.158.785 5.893 1.395 8.203.697 2.632 1.46 4.152 2.286 4.562l.169 1.184-.267 1.272zm-1.532-13.948c-.273 0-.518-.234-.734-.702-.24-.526-.401-1.257-.481-2.193l.049-1.185.216-.395c.112.994.381 1.491.806 1.491.153 0 .285-.234.398-.704.112-.47.167-.983.167-1.541 0-.616-.055-1.137-.167-1.563-.113-.424-.253-.638-.422-.638-.457 0-.697.746-.722 2.237l-.241.702c-.231 0-.349-.336-.349-1.009.009-.117.024-.278.049-.483l.035-.482c.233-2.281.658-3.421 1.276-3.421.369 0 .667.47.896 1.406.229.938.344 2.08.344 3.427 0 1.171-.101 2.285-.301 3.339-.226 1.142-.498 1.714-.819 1.714zM16.963 22.739l-.145.526c-.048.175-.121.292-.217.351-.144-.263-.256-.658-.337-1.184-.08-.438-.192-1.243-.337-2.413-.16-1.345-.24-2.179-.24-2.5 0-1.082.152-1.842.457-2.281l.156.264h.229c.224.848.352 1.593.385 2.237.008.292.056.804.144 1.535l-.012 1.404c0-.029.023.585.072 1.842a.49.49 0 0 0-.155.219zm6.256-3.861a32.539 32.539 0 0 0-.506 2.149c-.112.585-.25 1.492-.415 2.72a58.182 58.182 0 0 1-.402 2.676c-.354 1.959-.69 3.494-1.011 4.605-.265.936-.689 2.12-1.275 3.553-.441 1.082-.795 1.754-1.059 2.018-.049.029-.265.175-.649.438-.249.146-.462.395-.638.746a5.93 5.93 0 0 0-.481-1.184c-.169-.322-.345-1.009-.529-2.062.185-.907.47-1.521.854-1.842.336-.205.67-.41.998-.614.417-.351.923-1.213 1.516-2.588.771-1.784 1.363-3.772 1.781-5.965.144-1.053.396-2.573.757-4.562l-.144-2.062c-.032-.38.072-.994.313-1.842l.276.175.277-.351.241.307.155-.307.53 1.667c-.104.469-.3 1.244-.589 2.325zm-3.465.132c0 .497-.036 1.126-.108 1.886-.048 0-.08.015-.097.044-.031.263-.12.672-.265 1.228l-.036.132c-.047.087-.084.395-.107.921a10.01 10.01 0 0 1-.289-1.798 45.064 45.064 0 0 1-.072-1.974 18.45 18.45 0 0 0-.229-2.456 14.868 14.868 0 0 1-.181-1.535c.192-.761.421-1.141.686-1.141.128 0 .221.044.277.132l.181-.22c.023.38.204.775.54 1.185-.144.877-.229 1.477-.258 1.798s-.042.921-.042 1.798zM34.951 15.501c-.208 1.14-.332 1.784-.373 1.93-.136.585-.324.994-.564 1.228a48.444 48.444 0 0 1-1.131-1.272c-.458-.468-.843-.702-1.155-.702-.072 0-.129.044-.169.131l.205 1.229c-.297.556-.501 1.389-.613 2.5-.024.176-.137 1.535-.338 4.08a45.288 45.288 0 0 1-.842 5.899c-.409 1.945-.854 3.487-1.336 4.627a8.687 8.687 0 0 1-1.779 2.676c-.21-.205-.466-.614-.771-1.228a18.45 18.45 0 0 1-.024-.877c0-1.082.152-1.915.457-2.5.273-.38.55-.76.831-1.141.4-.556.825-1.506 1.274-2.851.899-2.69 1.48-6.039 1.744-10.045l-.264-1.798a14.51 14.51 0 0 0-1.131.132c-.426.146-.782.585-1.07 1.316l-.241-.307c-.177.292-.505 1.433-.986 3.421-.393 1.55-.786 2.325-1.18 2.325-.24 0-.46-.175-.662-.526-.248-.438-.396-1.067-.444-1.886.12-.906.337-1.608.65-2.105.28-.38.557-.76.829-1.14.393-.614.77-1.652 1.131-3.114s.614-2.939.758-4.431l-.072-.833a2.64 2.64 0 0 0-.144-.614c0-1.316.229-1.974.686-1.974h.312c.192.41.381.819.565 1.229.177.497.301 1.184.373 2.062l-.433.79a9.093 9.093 0 0 0-.109.57c-.079.497-.163.979-.252 1.447l.085.132c.729-.614 1.62-.921 2.671-.921a5.79 5.79 0 0 1 1.636.219c.048 0 .147.059.301.176.128.087.231.131.313.131l1.396-.307.145 1.141a8.192 8.192 0 0 0-.279 1.181zM42.779 25.678c-.264 0-.609-.176-1.035-.526-.521-.439-.862-.688-1.021-.746-.393-.176-1.107-.264-2.143-.264-.119 0-.292.059-.517.176-.224.117-.385.175-.481.175-.649.117-1.051.234-1.203.351-.289.205-.666.775-1.131 1.71-.144-.526-.217-1.418-.217-2.675.104-.965.169-1.536.192-1.711.104-.614.241-.921.41-.921a.42.42 0 0 1 .144.043.396.396 0 0 0 .146.044c.12 0 .288-.073.505-.219.272-.205.445-.322.517-.351.313-.146.603-.219.866-.219h2.143c.746 0 1.315.088 1.708.263.185.059.377.088.577.088-.096 0 .474-.146 1.709-.439.039.029.104.088.192.176l.252.175c-.032 1.521-.217 2.734-.554 3.641-.305.819-.657 1.229-1.059 1.229zM48.569 20.122c-.241.643-.489 1.038-.746 1.184a3.95 3.95 0 0 0-.505.351c-.12.146-.297.307-.53.482a4.055 4.055 0 0 0-.6.219 1.693 1.693 0 0 0-.59.526c-.064-.292-.116-.746-.156-1.36-.032-.409-.085-.687-.156-.833a17.843 17.843 0 0 1-.013-.57c0-.585.055-1.148.163-1.689.107-.541.247-.797.414-.768.49.059 1.148.059 1.974 0 .338-.029.565.015.686.132.218.234.385.79.506 1.667-.162.088-.311.308-.447.659zm4.488 3.947c-2.238 7.369-4.447 11.975-6.628 13.817l-.626-1.711a8.508 8.508 0 0 1-.024-.614c0-.556.136-1.696.409-3.421.385-.292.95-.79 1.696-1.491.642-.731 1.367-1.974 2.178-3.729a42.665 42.665 0 0 0 1.984-5.132l1.011-3.158c.433-1.287.79-2.12 1.07-2.5l.289.307c-.112 2.456-.565 5.001-1.359 7.632zm-3.321-11.975c-.152.585-.277.848-.373.79l-2.057-.965c-.033-.029-.093.022-.181.154-.089.131-.157.197-.204.197l-.085-.044-.204-2.105c-.033-.263-.016-.658.048-1.185.129-.994.413-1.491.854-1.491.104 0 .233.103.386.307.185.263.305.424.36.482.209.117.542.38.999.79.473.497.77 1.257.891 2.281-.161 0-.305.263-.434.789zm3.753 1.273l-.24 1.184-.216-.088c-.289-.584-.538-1.418-.746-2.5l-.277-1.36a9.918 9.918 0 0 0-.349-1.228l.349-.614c.313.468.621.921.927 1.36.377.702.565 1.594.565 2.676 0 .175-.004.365-.013.57zm.422-2.939l-.265.263c-.192-.322-.397-.819-.613-1.491a73.423 73.423 0 0 0-.542-1.799 5.017 5.017 0 0 0-.517-1.14l.456-.614c.569.41.931.746 1.084 1.009.369.614.577 1.638.625 3.071l-.228.701z"/><path fill="#2A4073" d="M65.238 35.722c-.192.234-.464.688-.817 1.36l-.156-.131c.008 0-.044.043-.156.131-.521-.936-1.327-1.535-2.419-1.798-.056 0-.188-.044-.396-.132-.169-.087-.301-.131-.397-.131-.585 0-1.251.249-1.997.746l-1.563.614c-.69.38-1.154 1.023-1.396 1.93l-.181-.658c0-.585-.067-1.345-.205-2.281l.169-2.105c.112-.322.213-.482.301-.482.04 0 .076.029.108.087.088-.585.133-1.316.133-2.193 0-.234-.005-.607-.013-1.119s-.012-.899-.012-1.163c0-.059.016-.862.048-2.413.017-1.228.048-3.07.097-5.527 0-.234.02-.643.06-1.228.024-.497.036-.906.036-1.228 0-.029-.088-.512-.265-1.448a6.975 6.975 0 0 1-.084-.79l.661-1.798c.153.351.301.709.446 1.075.144.366.26.855.348 1.47-.079.38-.163 1.345-.252 2.895a91.446 91.446 0 0 0-.145 3.071v2.939c0 .205-.014.497-.042.877-.028.38-.043.658-.043.833 0 1.784-.004 3.451-.012 5 .522-.38 1.228-.673 2.117-.877-.071 0-.185-.073-.336-.219l-.072-.351c.039-.761.168-1.755.385-2.983.289-1.638.453-2.603.493-2.895h-.06c-.682 0-1.123.322-1.323.965-.129-.175-.266-.234-.409-.175l-.217-2.062.107-1.185c.321-.409.795-.731 1.42-.965.674-.234 1.155-.512 1.443-.833v-.263c0-.438-.035-.863-.107-1.272l-.156-.175-.698.087c-.256.088-.452.454-.59 1.097-.168-1.111-.261-1.872-.276-2.281v-2.062c0-.351-.04-.673-.12-.965a11.049 11.049 0 0 1-.023-.658c0-.585.14-1.141.42-1.667.354.205.574.41.662.614.152.38.241 1.169.265 2.369.425-.351 1.127-.526 2.105-.526.594 0 1.051.292 1.371.877l-.048.921.048.877c-.256.731-.611 1.082-1.064 1.053s-.744.087-.872.351v1.448c.305.351 1.304.526 2.995.526l.277.438-.073.966.061.789a2.82 2.82 0 0 1-.301 1.097 5.114 5.114 0 0 1-.386.614 70.59 70.59 0 0 0-.806-.614c-.313-.263-.582-.395-.806-.395-.017 0-.057.029-.12.088l-.061.043c.048.378.164.971.349 1.773s.297 1.495.337 2.08c.032.378.048 1.167.048 2.363l-.012.088c.017.146.024.292.024.438 0 .059-.004.117-.013.174l-.012.351h-.337c-.281-.496-.577-1.642-.89-3.436-.313-1.795-.574-2.912-.782-3.35-.145.263-.317.848-.518 1.751-.152.731-.301 1.445-.445 2.146a20.718 20.718 0 0 1-.865 2.933c.32-.087.585-.131.793-.131.763 0 1.379.059 1.853.175.329.207.774.411 1.336.616.016 0 .317.06.902.177.144 0 .36.015.649.044.201.148.518.309.95.484l.013.528c.017 1.176-.143 2.041-.481 2.596zm-1.286-24.783c-.161 0-.409-.059-.746-.175-.337-.117-.59-.176-.759-.176.017 0-.573.103-1.768.307-.554.088-1.083.205-1.589.351-.528.117-.802.175-.817.175l-.049-.044c-.031-.029-.056-.044-.072-.044-.063 0-.163.059-.301.176-.136.117-.243.175-.324.175-.168-.029-.233-.044-.192-.044-.096 0-.321.234-.674.702-.072.087-.145.131-.217.131-.079-.292-.136-.731-.168-1.316a25.618 25.618 0 0 0-.121-1.404c.08-.76.181-1.257.302-1.491.594-.322 1.491-.643 2.694-.965.313 0 .778-.015 1.396-.044.088-.029.369-.103.842-.219.346-.117.626-.176.843-.176 1.059 0 1.921.38 2.587 1.141 0 .936-.085 1.66-.254 2.171-.168.514-.373.769-.613.769z"/><path d="M72.625 13.425c.289.263.44.79.457 1.579.063.117.135.183.211.198s.13.051.162.109c1.042-.351 1.6-.526 1.672-.526.434 0 .831.278 1.191.833.152.702.229 1.257.229 1.667-.096.351-.243.665-.439.943s-.363.417-.499.417c-.088 0-.212-.11-.373-.329-.16-.22-.276-.344-.35-.373-.12.059-.3.029-.54-.088a4.618 4.618 0 0 0-.711.22c.281.818.63 1.433 1.047 1.842l.229-1.404.396.044.24.526c.097.263.145.541.145.833s-.064.702-.192 1.228c.217.351.554.79 1.012 1.316.208.117.536.322.985.614l.277.79-.434 2.237-.565 1.228c-.2-.175-.452-.585-.758-1.228-.345-.731-.594-1.199-.745-1.404.031.468.06 1.155.083 2.062 0 .498-.056 1.126-.168 1.886-.064.41-.156 1.038-.276 1.886a1.814 1.814 0 0 0-.927-.438c-.185 0-.466-.059-.843-.176l-.276 1.535v.22c0-.088.028.716.084 2.412.017.41-.033 1.119-.149 2.127-.117 1.009-.224 1.704-.319 2.083-.256-.672-.385-1.769-.385-3.29v-.636-.636c0-.41-.009-.731-.024-.965l.036-1.623c0-.205-.032-.424-.097-.658-.81 0-1.398.38-1.768 1.141l-.169-.263a35.858 35.858 0 0 1-.132-2.72c0-.584.02-1.331.06-2.237.064-1.287.101-2.032.108-2.237a5.954 5.954 0 0 1-.409.833c-.328-.409-.585-.614-.77-.614a78.57 78.57 0 0 1-.361 3.026c-.12.468-.301 1.199-.541 2.193a84.13 84.13 0 0 1-.493 2.149 7.571 7.571 0 0 1-.554 1.492c-.288.585-.51.877-.661.877-.273 0-.489-.643-.65-1.93l.108-1.36c.137-.468.393-1.009.77-1.623a9.93 9.93 0 0 0 1.053-2.435c.245-.862.479-2.113.705-3.75a4.46 4.46 0 0 0-.759 1.403c-.473 1.55-.834 2.325-1.083 2.325-.088-.292-.144-.716-.168-1.272l-.048-1.403c.104-.644.22-1.17.349-1.579.089-.263.405-.702.95-1.316.521-.585.891-.936 1.106-1.053a68.31 68.31 0 0 0 .241-4.255l-.036-1.053-.168.132c-.113.087-.181.131-.205.131-.097 0-.199-.131-.307-.395-.108-.263-.162-.599-.162-1.009 0-.146.056-.687.168-1.623.104-.263.232-.775.385-1.536.113.322.221.483.325.483.265 0 1.211-.395 2.839-1.185l.049-.702-.169-1.623.072-.965c.08-.41.236-.614.47-.614.577 0 .865.644.865 1.93 0 .292-.048.599-.145.921l-.048.175a1.57 1.57 0 0 0-.084.483c0 .321.084.453.253.395h.144c.057 0 .112.059.169.175.136 0 .324-.015.565-.043h.554c.2 0 .501.037.902.109.4.073.701.11.902.11.529 0 .838.731.926 2.193l-.036.614c-.152.205-.385.512-.697.921-.032.029-.261.131-.687.307-.128-.117-.693-.395-1.695-.833a3.665 3.665 0 0 0-.494-.307 7.094 7.094 0 0 0-1.287-.132c-.328 0-.814.219-1.455.658a.57.57 0 0 1-.265.087 1.47 1.47 0 0 1-.253-.131 4.32 4.32 0 0 0-.553.219c-.241.117-.41.322-.506.614.096.614.145 1.155.145 1.623 0 .643-.043 1.55-.127 2.719-.084 1.17-.126 2.062-.126 2.676 0 .263.016.57.049.921.272-.263.669-.775 1.19-1.535-.032-.029-.072-.139-.12-.329-.049-.19-.097-.563-.146-1.119l.037-.351c.072-.263.188-.57.349-.921a1.696 1.696 0 0 0-.36.395l-.313-.482a4.981 4.981 0 0 1-.024-.438c0-.263.045-.57.133-.921l.217-.79.156-.219c.185.117.272.175.265.175l.927-.482a4.55 4.55 0 0 0 .517-.175l-.036-1.228c.081-.41.262-.614.542-.614h.071c.025.063.04.107.048.136zm-4.144 4.971c-.136.263-.367.534-.697.812-.328.278-.541.563-.638.855-.079 0-.196-.146-.349-.438.024-.936.177-1.784.458-2.544.159.029.334-.014.522-.131s.326-.175.415-.175c.121 0 .237.19.349.57l-.06 1.051zm2.071 16.361c-.192.497-.39.979-.59 1.447-.231.497-.453.848-.661 1.053-.064-.087-.258-.234-.578-.438-.168-.117-.393-.541-.674-1.272.048-.907.217-1.36.506-1.36.152 0 .609-.438 1.372-1.316.176-.205.372-.541.589-1.009.04.292.116.482.229.57.112.087.196.249.253.482v1.053a5.356 5.356 0 0 0-.446.79zm-.012-16.712h.023c.072 0 .169.161.289.482.16.438.253.687.276.746.152-.351.377-.921.674-1.71-.281.058-.7.219-1.262.482zm3.998 8.998c-.226.029-.487-.044-.788-.216-.302-.172-.523-.258-.668-.258a.592.592 0 0 0-.276.086c-.057.029-.222.044-.493.044-.498 0-1.003.143-1.516.429a6.173 6.173 0 0 0-.121.903h.192c.177 0 .447-.093.813-.28s.64-.28.824-.28c.264 0 .605.029 1.022.086.577.029.918.059 1.022.086a1.58 1.58 0 0 0 .012-.214 3.261 3.261 0 0 0-.023-.386zm-.281-3.347c-.385-.327-.653-.49-.807-.49-1.322 0-2.164.281-2.525.846l-.036.616c1.307-.292 2.009-.438 2.105-.438.023 0 .489.176 1.395.526l.037-.044a4.448 4.448 0 0 0-.169-1.016zm-.638-2.376c-.24-.526-.569-1.433-.986-2.719-.023-.029-.049-.044-.072-.044-.072 0-.229.351-.469 1.053-.313.906-.474 1.36-.481 1.36-.056.146-.12.292-.192.438.762-.205 1.259-.307 1.492-.307l.708.219zm3.489 14.168l-.012.088.036.131-.036 1.185c-.634.409-.995.687-1.083.833-.266-.351-.574-.863-.926-1.536-.306-.584-.61-1.169-.915-1.754h-.157c-.167-.468-.252-1.038-.252-1.71 0-.526.108-.98.325-1.36h.096c.346.556.626.892.843 1.009.072.117.185.278.336.482.329.205.662.424.999.658.458.38.734.892.831 1.535a2.126 2.126 0 0 1-.085.439z"/><path d="M87.402 19.844c-.098 0-.377-.307-.843-.921-.28-.38-.634-.965-1.059-1.754-.562-1.053-.91-1.681-1.047-1.886-.345-.585-.914-1.564-1.708-2.938a396.04 396.04 0 0 0-2.105 4.035c-.851 1.638-1.564 2.895-2.142 3.772-.145 0-.353-.044-.625-.132-.153-.088-.322-.424-.507-1.009-.256-.877-.404-1.36-.444-1.447l.085-1.185c.729 0 1.591-.716 2.586-2.149 1.035-1.462 1.784-3.114 2.249-4.957.418-1.608.682-2.413.795-2.413.168 0 .343.249.523.746a4.87 4.87 0 0 1 .271 1.667c0 .205-.008.41-.024.614.537.848 1.352 1.974 2.442 3.377.337.38.773.644 1.312.79.826.263 1.263.409 1.312.438l.192.614v1.36c-.434 2.252-.854 3.378-1.263 3.378zm-5.748 1.184c0 1.287-.023 2.559-.071 3.816-.104 2.69-.405 5.234-.902 7.632-.578 2.778-1.208 4.167-1.89 4.167-.296 0-.521-.424-.674-1.272a7.677 7.677 0 0 1 .41-2.632c.505-1.345 1.006-2.676 1.503-3.992.522-1.696.783-3.685.783-5.965 0-.79-.076-1.93-.229-3.421a10.97 10.97 0 0 1-.048-.57c0-.76.101-1.141.301-1.141.089 0 .219.081.391.241.173.161.307.227.403.198.128.702.192 1.287.192 1.754a4.1 4.1 0 0 1-.169 1.185zm3.345-.219c-.039.175-.092.439-.155.79-.033.234-.049.804-.049 1.711v1.097c.008.438.012.702.012.789v3.421c0 4.24-.169 7.559-.507 9.957-.362-1.813-.544-4.591-.544-8.334 0-.263.008-.526.024-.79a63.29 63.29 0 0 1-.032-1.974c0-.994.028-2.705.084-5.132a25.897 25.897 0 0 0-.047-1.886c-.049-.789-.121-1.301-.218-1.535a7.871 7.871 0 0 1-.036-.658c0-1.053.161-1.652.481-1.798.04.175.27.614.686 1.316.289.497.434 1.184.434 2.062 0 .203-.044.525-.133.964z"/><path d="M91.961 13.922l-1.396-.22c-.893 0-1.655.454-2.288 1.36l-.133-.57.012-1.667c.057-.497.146-.775.271-.833a44.1 44.1 0 0 0 .367-.175c.049-.029.257-.234.626-.614.145-.029.356-.117.638-.263.016-.234.024-.497.024-.79 0-.234-.08-.848-.241-1.842l.132-1.404c.097 0 .222-.059.374-.175.186-.146.311-.219.375-.219.041.351.097.6.169.746.073.146.146.3.217.46.073.161.133.402.181.724-.168.731-.252 1.389-.252 1.974 0 .087.004.19.012.307l.842.175c.361.088.662.672.903 1.754-.403.877-.68 1.301-.833 1.272zm.237 14.996c0 1.906.035 3.667.108 5.278l-.192 1.584c-.064-.175-.108-.265-.134-.265.025 0-.104.25-.384.748-.167-.263-.336-.395-.505-.395-.624 0-1.077.073-1.357.219-.505.292-.926.892-1.262 1.798a9.662 9.662 0 0 1-.265-2.283c0-.585.027-1.069.084-1.451.048-.263.108-.733.181-1.407.04-.587.06-1.32.06-2.201 0-.263-.03-.601-.09-1.012a7.025 7.025 0 0 1-.091-.923c0-.175.021-.353.061-.528.562-1.203 1.278-1.804 2.152-1.804.351 0 .7.177 1.045.528l.468-.219.361 1.011c-.047.266-.127.704-.24 1.322zm-.878-4.6c-.057 0-.474-.146-1.252-.438-.16-.059-.385.014-.674.219a1.668 1.668 0 0 0-.625.877c-.192-.322-.289-1.053-.289-2.193.281-.877.77-1.404 1.468-1.579.321-.088.473-.132.457-.132l.854.219c-.008 0 .14-.043.445-.131l.469 1.141c-.071 1.344-.356 2.017-.853 2.017zm.208-5.132c-.096.029-.225.015-.385-.043a3.044 3.044 0 0 0-.373-.044c-.233 0-.567.124-1.005.373-.437.249-.756.373-.957.373l-.143-.045a6.25 6.25 0 0 1-.133-1.316c0-.234.008-.497.024-.79.521-.907 1.131-1.36 1.829-1.36h.986c.521 0 .838.673.95 2.018-.223.526-.488.805-.793.834zm-.099 10.779c-.184-.353-.421-.543-.709-.572a5.828 5.828 0 0 0-.718-.131c-.017 0-.053-.029-.108-.09-.057-.058-.1-.087-.132-.087-.081 0-.181.073-.3.221-.185.234-.28.366-.288.395-.064.265-.096.764-.096 1.499 0 .353.008.91.023 1.672.632-.38 1.407-.57 2.327-.57v-2.337zm7.053-4.478c-.345-.526-.923-.79-1.733-.79-1.387 0-2.31.19-2.767.57l-.108-.175c-.169.087-.448.292-.843.614.025-1.519.049-3.05.072-4.598.033-1.838.093-3.37.181-4.597-.104.117-.2.176-.288.176-.209 0-.394-.103-.554-.307l-.144-.393c.031-.671.076-1.095.132-1.27a.65.65 0 0 1 .349-.393c.072-.029.16-.073.266-.131.561-.41 1.563-1.402 3.007-2.978.152-.146.305-.276.457-.393.192-.205.324-.453.397-.746-.024-.117-.068-.175-.132-.175-.089 0-.614.175-1.577.526l.024 1.051c-.08-.117-.124-.175-.133-.175a9.57 9.57 0 0 1-.373.744c-.176-1.021-.32-1.532-.432-1.532-.146 0-.326.073-.542.22l-.53.395-.144-.482a4.931 4.931 0 0 1-.023-.44c0-.409.043-.777.132-1.1l.914-.574v-.927c.048-.438.156-.66.325-.66.072 0 .17.197.294.592.124.395.219.607.283.636.12-.029.297 0 .529.088.36-.029.898-.131 1.611-.307l-.012-.702c.177-.497.333-.746.47-.746.032 0 .076.029.133.088.031.233.09.46.174.68s.15.504.198.855c.241.029.502.146.782.351.386.263.578.6.578 1.009l-.013.351c-.209.322-.356.482-.445.482-.031 0-.445-.117-1.239-.351-.048.292-.136.498-.265.614a.814.814 0 0 0-.192.219l.373.57-.181 1.535c-.497 0-.862.132-1.094.395.071.263.184.585.336.965.104.205.418.307.938.307.097 0 .243-.037.439-.11.196-.073.343-.109.438-.109.338 0 .614.426.831 1.279-.394.707-.819 1.045-1.275 1.016l-1.071-.131c-.024.029-.104.043-.24.043-.104 0-.169.086-.192.258v.302c.072.115.316.172.734.172.713 0 1.114.043 1.202.131.137.145.28.495.434 1.049l-.577 1.093a76.662 76.662 0 0 0-1.745-.349c-.063 0-.104.103-.12.305l.048.305c.578-.203.947-.247 1.106-.131.201.087.397.175.59.263.177.175.341.598.494 1.268-.257.554-.466.802-.626.744-.578-.234-.862-.342-.854-.322-.032 0-.297.057-.794.174a.807.807 0 0 0-.024.215c0 .086.005.201.013.344.088.117.34.173.758.173l2.406-.131.012 1.133c-.288 1.05-.681 1.691-1.178 1.925zm-.076 13.159c-.241-.263-.493-.731-.758-1.404a99.082 99.082 0 0 1-.674-1.798c-.266-.643-.767-1.433-1.504-2.369a81.156 81.156 0 0 0-1.191 1.974c-.578.906-.963 1.36-1.155 1.36-.112 0-.256-.241-.433-.724a5.092 5.092 0 0 1-.313-1.381l.144-.921c.057-.117.181-.205.373-.263.136-.059.273-.102.409-.131.441-.234.814-.833 1.119-1.798-.112-.556-.359-.87-.74-.943s-.635-.548-.764-1.425c.056-1.462.192-2.193.409-2.193.048 0 .116.029.204.088.089.058.152.087.192.087.12 0 .291-.022.512-.065a2.78 2.78 0 0 1 .487-.066c.04 0 .096.015.168.044a.482.482 0 0 0 .157.043c.087 0 .218-.036.391-.109.172-.073.295-.11.366-.11.482-.087.83-.161 1.047-.219.385-.146.726-.38 1.022-.702l.108.131.192-.131c.112-.117.321.497.626 1.842-.28.409-.682 1.023-1.203 1.842a44.69 44.69 0 0 1-.986 1.842c.658 1.169 1.271 1.842 1.841 2.018.216 0 .537.103.962.307.089.087.152.219.192.395.008.176.012.322.012.439 0 .848-.151 1.74-.456 2.676-.231.729-.483 1.284-.756 1.664zm-2.727-16.785a.381.381 0 0 0-.036-.087c-.072 0-.642.146-1.708.438l-.085.79.049.044 1.78-.351a1.46 1.46 0 0 0 .023-.263c0-.176-.008-.366-.023-.571zm-.136-2.602h-.795c-.32.029-.577.146-.77.351-.04.146-.06.307-.06.482 0 .088.004.175.012.263h.06c.113 0 .261-.059.445-.175a9.12 9.12 0 0 1 .434-.307c.112 0 .28-.029.505-.088.08-.029.185-.102.313-.219-.032-.205-.081-.307-.144-.307zm.181-2.442l-.025-.175-.023-.044c-.04.029-.569.234-1.589.614a1.941 1.941 0 0 0-.035.526v.131l.048.132c.217-.234.489-.409.818-.526a8.18 8.18 0 0 1 .818-.219l.012-.263-.024-.176zm0-2.544a2.59 2.59 0 0 0-.025-.351h-.012c-.216.087-.541.395-.975.921a2.71 2.71 0 0 0 1.012-.438v-.132zm-.049 14.373h-.192a.635.635 0 0 0-.542.263c.097.292.306.6.626.921.153-.234.377-.6.674-1.097a9.516 9.516 0 0 0-.566-.087z"/><linearGradient id="e" gradientUnits="userSpaceOnUse" x1="25.41" y1="19.744" x2="80.59" y2="74.924"><stop offset="0" stop-color="#ead18f"/><stop offset=".076" stop-color="#e1c477"/><stop offset=".221" stop-color="#d1af4e"/><stop offset=".335" stop-color="#c8a235"/><stop offset=".405" stop-color="#c49d2c"/><stop offset=".559" stop-color="#d4b35c"/><stop offset=".766" stop-color="#e7cd97"/><stop offset=".919" stop-color="#f3debb"/><stop offset="1" stop-color="#f8e4c9"/></linearGradient><path opacity=".8" fill="url(#e)" d="M4.319 40.833h97.36v13H4.319z"/><path fill="#B2B2B2" d="M7.544 71.996c-.228-.214-.408-.566-.538-1.055-.217-.887-.339-1.346-.36-1.376-.206-.642-.343-1.07-.408-1.284a5.896 5.896 0 0 1-.211-1.56l-.604-2.569c-.401-.092-.646-.52-.732-1.285l.586-3.395c.098-.03.212-.168.342-.413.131-.245.233-.397.31-.459.326.643.647.963.964.963.195.336.37.826.522 1.468s.229 1.269.229 1.881c-.011.153-.032.428-.064.826l-.066.78c.196 1.621.294 3.762.294 6.423a2.112 2.112 0 0 1-.264 1.055zm9.095-8.029c-.131-.092-.224-.138-.277-.138-.282 0-.537.596-.766 1.789l-1.303 7.432c-.543 2.875-1.074 5.184-1.597 6.927-.673 2.232-1.449 3.899-2.328 5-.13.183-.38.489-.749.917-.891 1.009-1.536 1.514-1.938 1.514-.37 0-.636-.214-.798-.642-.229-.551-.424-.795-.587-.734l-.195-1.147c.195-1.101.569-1.958 1.123-2.569.098-.091.581-.458 1.449-1.101a8.14 8.14 0 0 0 2.59-3.303c.38-.887.814-2.309 1.303-4.267a69.959 69.959 0 0 0 1.775-9.955 50.258 50.258 0 0 0-.261-1.605 10.211 10.211 0 0 1-.163-1.651c0-.367.027-.856.082-1.468.032-.092.168-.291.406-.596l.294.275.424-.413.179.138.293-.138c.326.397.608 1.024.848 1.881.238.948.357 1.896.357 2.844l-.161 1.01zM32.875 64.839c-.293.795-.593 2.019-.896 3.67-.391 2.049-.651 3.349-.781 3.899-.89 3.548-1.64 6.178-2.247 7.891-.662 1.835-1.455 3.441-2.378 4.817-1.053 1.56-1.986 2.34-2.802 2.34-.336 0-.656-.168-.96-.504l-.505-1.514c-.011-.275-.017-.52-.017-.734 0-1.009.125-1.743.375-2.202.304-.55.781-.994 1.434-1.331.868-.489 1.367-.78 1.497-.872.978-.887 1.911-2.416 2.802-4.587.934-2.263 1.585-4.679 1.954-7.249.119-.856.229-1.881.326-3.074-.456-.367-.825-.55-1.108-.55-.098 0-.247.015-.447.046-.201.031-.35.046-.447.046l-1.874.092c-.728.061-1.352.214-1.873.458-.792.367-1.259.673-1.399.917-.424.765-.662 1.147-.717 1.147-.186 0-.435-.565-.75-1.697l.245-2.156a2.166 2.166 0 0 1-.032-.367c0-.52.084-1.001.252-1.445s.345-.619.529-.528l.358.184c.531-.765 2.812-1.085 6.84-.963.195.031.448-.191.757-.665.31-.474.552-.727.726-.757.271.245.634.642 1.091 1.193.217.336.51 1.162.879 2.477.022.184.033.336.033.459 0 .458-.108.841-.326 1.146-.176.244-.354.382-.539.413zM50.615 74.932c-.088.275-.233.688-.439 1.239-.087.214-.419.719-.994 1.514-.531.734-.896 1.193-1.091 1.376-.728-.428-1.768-1.476-3.119-3.143-1.352-1.667-2.396-2.699-3.135-3.097l-.146.229a58.832 58.832 0 0 0-.081 1.514c0 .153.011.398.032.734.022.336.033.581.033.734 0 .214-.024.78-.073 1.697s-.074 1.605-.074 2.064c0 .428.011 1.063.033 1.904.021.841.032 1.46.032 1.858 0 1.407-.13 2.539-.392 3.395-.065.183-.147.55-.246 1.101-.347-.275-.577-.734-.686-1.376-.175-1.07-.262-4.282-.262-9.634 0-2.752.027-5.077.081-6.973 0-.153.017-.489.05-1.009.032-.428.043-.78.032-1.055a67.903 67.903 0 0 0-.017-1.055l.1-4.45a8.845 8.845 0 0 1-.621-3.211c0-.52.204-1.071.612-1.652s.715-.826.923-.734l.065-.092c.065.061.235.26.506.596.174.184.351.383.529.597.18.214.27.581.27 1.101 0 .397-.131.933-.392 1.605s-.391 1.453-.391 2.34c0 .428.006 1.07.017 1.927v1.881c0 1.101.011 1.743.032 1.927.749.245 2.096 1.147 4.038 2.707 1.705 1.346 3.062 2.019 4.072 2.019.087 0 .214-.046.383-.138.168-.092.301-.138.398-.138.142 0 .321.199.538.597-.248.275-.454.642-.617 1.101zM65.483 69.87c-.25 1.468-.63 3.578-1.14 6.331a44.838 44.838 0 0 1-1.026 4.129c-.542 1.835-1.41 3.64-2.605 5.413-1.237 1.866-2.247 2.799-3.029 2.799-.228 0-.505-.153-.83-.459l-.521-2.202c.174-1.438.56-2.37 1.156-2.798.532-.214 1.07-.428 1.612-.642.282-.153.641-.459 1.074-.917 1.738-1.927 3.154-6.805 4.252-14.634-.402-.856-.924-1.27-1.563-1.239h-1.905c-2.443 0-4.029 1.009-4.756 3.028l.293 4.175c-.021.092-.217.841-.586 2.248-.348-.52-.564-1.33-.651-2.431-.076-.948-.158-1.912-.245-2.89 0-.062-.103-.643-.309-1.744-.164-.917-.244-1.422-.244-1.514 0-1.835.298-3.089.896-3.762l.699.917c1.032-.917 2.216-1.468 3.552-1.652.064-.826.098-1.33.098-1.514 0-.336-.074-.765-.221-1.285s-.23-.917-.252-1.193l.455-2.018.636-.184c.412.275.679.504.798.688.239.428.38 1.101.424 2.019a18.73 18.73 0 0 0-.31 3.257c0 .03.006.092.017.184v.045l1.742-.045c.651 0 1.216.168 1.694.504l.862-.734c.098.214.396.627.896 1.239.337.428.597 1.101.781 2.019-.664.855-1.244 2.476-1.744 4.862zM80.293 85.85c-.195.122-.354.321-.473.596-1.824-1.59-3.367-2.385-4.63-2.385-.554 0-1.174.183-1.857.55-.76.367-1.352.856-1.774 1.468-.369.52-.673 1.437-.912 2.752-.206-.459-.342-.91-.407-1.354s-.124-.91-.18-1.399l.212-1.79-.081-.642c.055-.306.114-.627.179-.963.065-.336.158-.458.277-.367l.553.414c1.465-1.438 2.773-2.202 3.925-2.294l.049-.504a61.917 61.917 0 0 1-.033-.963c0-3.548.027-6.056.082-7.524l-.163-1.376-.162-.184c-.293.03-.723.107-1.287.229-.488.153-.771.872-.848 2.156l-.813-2.019.293-3.533c1.064-.581 2.117-.872 3.161-.872.043 0 .116-.031.221-.092.104-.061.182-.092.236-.092.132 0 .324.031.581.092.255.061.447.092.578.092.217 0 .539-.046.969-.138.429-.092.747-.138.953-.138.575 0 .998.428 1.27 1.285 0 .795-.119 1.407-.358 1.835-.238.306-.472.612-.7.917a2.282 2.282 0 0 0-.341.826l-1.825-.688c-.011 0-.032.015-.064.046l-.05.046a24.74 24.74 0 0 1-.162 1.697c-.12.856-.195 1.407-.229 1.652-.054.611-.087 1.3-.098 2.064-.011.582-.016 1.315-.016 2.202.011 1.254.016 1.958.016 2.11v.734c.206.123.787.229 1.742.321.163.031.544.107 1.141.229.478.092.863.138 1.156.138.749 0 1.232.076 1.45.229l.325 1.055a50.735 50.735 0 0 1-.651 1.813c-.283.752-.701 1.341-1.255 1.769zM99.792 62.27c-.151.336-.32.826-.505 1.468-.152.52-.304 1.055-.456 1.605a147.78 147.78 0 0 0-.863 2.799c-.391 1.101-.746 1.781-1.066 2.042-.32.26-.644.512-.969.757-.424.428-.636 1.04-.636 1.835 0 .184.014.451.041.803.027.352.041.62.041.803 0 1.163-.228 2.86-.685 5.092-.478 2.355-1.146 4.221-2.003 5.597a8.035 8.035 0 0 1-2.687 2.661c-.282-.306-.718-.673-1.304-1.101l-.293-1.331c.055-.887.192-1.529.415-1.927.224-.397.54-.703.953-.917.532-.306.862-.52.993-.642 2.334-2.263 3.501-5.062 3.501-8.396 0-.979-.217-1.835-.65-2.569-.435-.734-.651-1.407-.651-2.019 0-.458.076-.864.228-1.216.152-.352.309-.527.472-.527.305 0 .689.581 1.156 1.743 1.26-1.804 2.091-3.976 2.492-6.514-.238-.336-.776-.505-1.612-.505-.206 0-.483.031-.83.092a7.238 7.238 0 0 0-.814.092c-1.151.061-2.025.245-2.622.55-.934.52-1.736 1.468-2.41 2.844-.38-.642-.569-1.453-.569-2.431 0-2.722.521-3.93 1.563-3.624 1.043-1.132 2.519-1.698 4.43-1.698 1.823 0 2.454-.03 1.889-.092.75.062 1.357.352 1.824.872.021-.031.174-.367.456-1.01.185-.428.348-.642.488-.642.065 0 .142.046.229.138.076.245.212.497.407.757.195.26.331.466.407.62.087.245.179.673.276 1.284.043.306.125.811.244 1.514a5.214 5.214 0 0 0-.88 1.193z"/><path d="M6.534 70.996c-.228-.214-.408-.566-.539-1.055-.217-.887-.338-1.346-.36-1.376a148.74 148.74 0 0 1-.408-1.284 5.938 5.938 0 0 1-.211-1.56l-.603-2.569c-.402-.092-.646-.52-.733-1.285l.586-3.395c.098-.03.212-.168.343-.413.13-.245.232-.397.309-.459.326.643.648.963.964.963.195.336.371.826.523 1.468.151.642.229 1.269.229 1.881-.011.153-.032.428-.065.826l-.065.78c.196 1.621.294 3.762.294 6.423a2.112 2.112 0 0 1-.264 1.055zm9.094-8.029c-.13-.092-.223-.138-.277-.138-.282 0-.536.596-.766 1.789l-1.302 7.432c-.543 2.875-1.075 5.184-1.597 6.927-.673 2.232-1.449 3.899-2.329 5-.13.183-.38.489-.748.917-.892 1.009-1.537 1.514-1.938 1.514-.37 0-.635-.214-.798-.642-.228-.551-.423-.795-.586-.734l-.195-1.147c.195-1.101.569-1.958 1.123-2.569.098-.091.581-.458 1.449-1.101a8.14 8.14 0 0 0 2.59-3.303c.38-.887.813-2.309 1.302-4.267a69.959 69.959 0 0 0 1.775-9.955 44.62 44.62 0 0 0-.261-1.605 10.197 10.197 0 0 1-.162-1.651c0-.367.027-.856.081-1.468.033-.092.168-.291.407-.596l.294.275.423-.413.179.138.293-.138c.327.397.609 1.024.848 1.881.239.948.358 1.896.358 2.844l-.163 1.01zM31.864 63.839c-.293.795-.592 2.019-.896 3.67-.391 2.049-.651 3.349-.781 3.899-.891 3.548-1.641 6.178-2.248 7.891-.662 1.835-1.454 3.441-2.378 4.817-1.053 1.56-1.986 2.34-2.801 2.34-.337 0-.656-.168-.96-.504l-.506-1.514c-.011-.275-.017-.52-.017-.734 0-1.009.126-1.743.375-2.202.304-.55.781-.994 1.434-1.331.868-.489 1.368-.78 1.498-.872.977-.887 1.911-2.416 2.801-4.587.934-2.263 1.586-4.679 1.955-7.249.119-.856.228-1.881.325-3.074-.456-.367-.825-.55-1.108-.55-.098 0-.246.015-.446.046a3.243 3.243 0 0 1-.448.046l-1.874.092c-.727.061-1.352.214-1.872.458-.792.367-1.259.673-1.4.917-.423.765-.662 1.147-.716 1.147-.186 0-.436-.565-.75-1.697l.244-2.156a2.166 2.166 0 0 1-.032-.367c0-.52.084-1.001.253-1.445.167-.443.344-.619.528-.528l.358.184c.532-.765 2.812-1.085 6.841-.963.195.031.447-.191.757-.665s.551-.727.725-.757c.271.245.635.642 1.092 1.193.217.336.51 1.162.879 2.477.021.184.032.336.032.459 0 .458-.108.841-.325 1.146-.174.244-.354.382-.539.413zM49.605 73.932c-.088.275-.234.688-.44 1.239-.087.214-.418.719-.993 1.514-.532.734-.896 1.193-1.092 1.376-.727-.428-1.767-1.476-3.118-3.143-1.352-1.667-2.396-2.699-3.135-3.097l-.147.229a61.4 61.4 0 0 0-.08 1.514c0 .153.011.398.032.734.021.336.032.581.032.734 0 .214-.024.78-.073 1.697s-.073 1.605-.073 2.064c0 .428.011 1.063.032 1.904s.032 1.46.032 1.858c0 1.407-.13 2.539-.392 3.395-.064.183-.146.55-.245 1.101-.348-.275-.577-.734-.686-1.376-.175-1.07-.262-4.282-.262-9.634 0-2.752.026-5.077.081-6.973 0-.153.017-.489.049-1.009.032-.428.044-.78.032-1.055a67.903 67.903 0 0 0-.017-1.055l.1-4.45a8.844 8.844 0 0 1-.62-3.211c0-.52.203-1.071.611-1.652s.716-.826.924-.734l.065-.092c.064.061.234.26.506.596.174.184.351.383.528.597.18.214.27.581.27 1.101 0 .397-.13.933-.392 1.605-.261.673-.391 1.453-.391 2.34 0 .428.006 1.07.017 1.927v1.881c0 1.101.011 1.743.033 1.927.748.245 2.096 1.147 4.038 2.707 1.705 1.346 3.062 2.019 4.071 2.019.087 0 .215-.046.383-.138s.302-.138.399-.138c.141 0 .32.199.537.597-.246.275-.453.642-.616 1.101zM64.473 68.87a459.029 459.029 0 0 1-1.139 6.331 45.164 45.164 0 0 1-1.026 4.129c-.543 1.835-1.411 3.64-2.606 5.413-1.236 1.866-2.247 2.799-3.028 2.799-.229 0-.505-.153-.831-.459l-.521-2.202c.173-1.438.56-2.37 1.156-2.798.531-.214 1.069-.428 1.612-.642.282-.153.64-.459 1.074-.917 1.737-1.927 3.154-6.805 4.251-14.634-.402-.856-.923-1.27-1.563-1.239h-1.905c-2.442 0-4.028 1.009-4.756 3.028l.293 4.175c-.021.092-.217.841-.586 2.248-.347-.52-.564-1.33-.651-2.431-.075-.948-.157-1.912-.244-2.89 0-.062-.103-.643-.309-1.744-.164-.917-.245-1.422-.245-1.514 0-1.835.298-3.089.896-3.762l.7.917c1.032-.917 2.215-1.468 3.551-1.652.065-.826.098-1.33.098-1.514 0-.336-.074-.765-.22-1.285-.147-.52-.231-.917-.253-1.193l.456-2.018.635-.184c.413.275.68.504.799.688.238.428.38 1.101.423 2.019a18.73 18.73 0 0 0-.31 3.257c0 .03.006.092.017.184v.045l1.742-.045c.651 0 1.216.168 1.694.504l.862-.734c.098.214.396.627.896 1.239.336.428.597 1.101.781 2.019-.662.855-1.242 2.476-1.743 4.862zM79.283 84.85c-.196.122-.354.321-.473.596-1.825-1.59-3.368-2.385-4.631-2.385-.554 0-1.173.183-1.856.55-.76.367-1.353.856-1.775 1.468-.369.52-.673 1.437-.911 2.752a5.084 5.084 0 0 1-.408-1.354c-.064-.443-.124-.91-.18-1.399l.213-1.79-.081-.642c.054-.306.113-.627.179-.963.064-.336.157-.458.277-.367l.553.413c1.466-1.438 2.773-2.202 3.925-2.294l.049-.504a69.566 69.566 0 0 1-.032-.963c0-3.548.027-6.056.081-7.524l-.162-1.376-.163-.184c-.293.03-.723.107-1.286.229-.489.153-.771.872-.848 2.156l-.814-2.019.293-3.533c1.064-.581 2.117-.872 3.161-.872.044 0 .117-.031.222-.092.104-.061.182-.092.235-.092.132 0 .324.031.581.092.256.061.448.092.578.092.218 0 .54-.046.969-.138.43-.092.747-.138.953-.138.575 0 .999.428 1.271 1.285 0 .795-.12 1.407-.358 1.835a49.67 49.67 0 0 0-.7.917 2.283 2.283 0 0 0-.342.826l-1.824-.688c-.011 0-.032.015-.065.046l-.049.046c-.022.428-.076.994-.163 1.697l-.228 1.652a27.72 27.72 0 0 0-.098 2.064c-.012.582-.017 1.315-.017 2.202.012 1.254.017 1.958.017 2.11v.734c.206.123.787.229 1.742.321.163.031.544.107 1.141.229.478.092.863.138 1.156.138.749 0 1.232.076 1.449.229l.325 1.055a48.5 48.5 0 0 1-.65 1.813c-.284.753-.703 1.342-1.256 1.77zM98.782 61.27c-.152.336-.321.826-.506 1.468-.151.52-.304 1.055-.455 1.605a147.78 147.78 0 0 0-.863 2.799c-.392 1.101-.746 1.781-1.067 2.042-.32.26-.643.512-.969.757-.423.428-.635 1.04-.635 1.835 0 .184.014.451.04.803.027.352.041.62.041.803 0 1.163-.228 2.86-.685 5.092-.478 2.355-1.146 4.221-2.003 5.597a8.025 8.025 0 0 1-2.687 2.661c-.282-.306-.717-.673-1.303-1.101l-.294-1.331c.055-.887.192-1.529.416-1.927.223-.397.539-.703.953-.917.531-.306.862-.52.992-.642 2.335-2.263 3.502-5.062 3.502-8.396 0-.979-.217-1.835-.651-2.569-.434-.734-.651-1.407-.651-2.019 0-.458.076-.864.229-1.216.151-.352.309-.527.472-.527.305 0 .689.581 1.156 1.743 1.26-1.804 2.091-3.976 2.492-6.514-.239-.336-.776-.505-1.612-.505-.206 0-.483.031-.831.092a7.18 7.18 0 0 0-.813.092c-1.151.061-2.026.245-2.623.55-.934.52-1.736 1.468-2.41 2.844-.38-.642-.569-1.453-.569-2.431 0-2.722.521-3.93 1.563-3.624 1.043-1.132 2.52-1.698 4.431-1.698 1.823 0 2.453-.03 1.888-.092.75.062 1.358.352 1.825.872.021-.031.173-.367.455-1.01.185-.428.348-.642.488-.642.065 0 .142.046.229.138.076.245.211.497.406.757.195.26.332.466.407.62.087.245.179.673.276 1.284.044.306.126.811.245 1.514-.38.398-.673.795-.879 1.193zM8.639 43.114v2.75h-.098c-.033-.528-.09-.948-.17-1.261-.082-.313-.199-.561-.35-.745-.152-.184-.309-.275-.471-.275-.184 0-.334.124-.453.372-.121.248-.18.53-.18.846 0 .242.037.462.113.662.109.293.369.683.779 1.17.334.398.563.704.686.917.121.213.217.464.283.753.064.289.098.592.098.908 0 .602-.104 1.12-.314 1.556-.209.436-.479.653-.809.653a.794.794 0 0 1-.293-.054 1.883 1.883 0 0 1-.338-.219c-.172-.125-.279-.188-.326-.188-.043 0-.078.03-.104.09s-.045.184-.057.371h-.096v-2.727h.098c.045.57.107.996.184 1.279.078.283.195.518.354.705.16.188.334.281.523.281.219 0 .393-.129.52-.387s.189-.563.189-.914a2.47 2.47 0 0 0-.072-.592 1.98 1.98 0 0 0-.225-.557c-.068-.117-.256-.365-.563-.745a7.42 7.42 0 0 1-.654-.908c-.129-.227-.227-.477-.293-.75s-.1-.574-.1-.902c0-.569.098-1.061.295-1.472s.447-.618.752-.618c.189 0 .391.104.604.313.098.098.168.147.207.147.047 0 .084-.03.113-.092.029-.061.053-.184.07-.369h.098zM14.211 43.294v.219c-.094 0-.168.037-.227.111s-.113.213-.166.416c-.035.137-.09.462-.166.978l-.992 6.401h-.107l-.814-5.083-.807 5.083h-.096l-1.059-6.597c-.08-.491-.131-.781-.15-.871a.795.795 0 0 0-.145-.33.306.306 0 0 0-.246-.108v-.219h1.32v.219h-.063c-.094 0-.164.046-.215.14a.714.714 0 0 0-.072.337c0 .136.037.448.115.936l.705 4.454.592-3.791-.105-.654-.084-.532a4.54 4.54 0 0 0-.125-.515.69.69 0 0 0-.084-.187.526.526 0 0 0-.131-.152.287.287 0 0 0-.158-.035v-.219h1.391v.219h-.096c-.098 0-.17.047-.217.141a.888.888 0 0 0-.068.38c0 .199.041.546.119 1.042l.686 4.318.678-4.377c.078-.483.117-.819.117-1.006 0-.09-.014-.173-.039-.251s-.057-.133-.096-.164a.397.397 0 0 0-.262-.082v-.219h1.067zM16.711 47.52v2.313c0 .499.025.809.074.93.066.171.166.257.303.257h.137v.219h-1.533v-.219h.135c.152 0 .262-.109.326-.328.035-.121.053-.408.053-.86V44.7c0-.499-.023-.809-.072-.93-.068-.171-.17-.257-.307-.257h-.135v-.219h1.311c.32 0 .572.073.756.22.186.146.34.394.467.742s.189.76.189 1.237c0 .649-.096 1.176-.287 1.583-.193.406-.465.609-.816.609-.086 0-.178-.014-.279-.041a1.9 1.9 0 0 1-.322-.124zm0-.335c.092.039.176.068.246.088.072.02.133.029.184.029.182 0 .34-.157.473-.472.131-.314.197-.721.197-1.221 0-.344-.031-.663-.094-.958-.064-.294-.152-.515-.27-.662-.115-.146-.246-.22-.393-.22-.09 0-.203.037-.344.111v3.305zM20.141 50.464c-.248.426-.402.672-.467.738a.416.416 0 0 1-.303.146c-.166 0-.303-.127-.41-.381-.109-.254-.162-.588-.162-1.003 0-.262.025-.489.078-.68.072-.266.197-.517.375-.751s.475-.52.889-.856v-.211c0-.534-.039-.901-.115-1.1-.074-.199-.186-.298-.33-.298-.109 0-.197.066-.262.199a1.01 1.01 0 0 0-.1.456l.006.339c0 .179-.021.317-.063.415-.043.097-.098.146-.164.146s-.119-.051-.16-.152a1.09 1.09 0 0 1-.064-.416c0-.335.078-.644.232-.925.154-.281.371-.421.65-.421a.66.66 0 0 1 .527.24c.104.121.18.311.229.568.033.168.049.512.049 1.031v1.822c0 .512.004.825.014.94a.636.636 0 0 0 .043.231c.02.039.043.059.07.059s.053-.014.074-.041c.035-.051.107-.193.213-.428v.328c-.197.589-.385.883-.564.883-.086 0-.156-.066-.207-.199s-.076-.36-.078-.679zm0-.381v-2.046a4.837 4.837 0 0 0-.514.499 1.678 1.678 0 0 0-.297.54c-.059.188-.09.393-.09.615 0 .282.039.516.113.701.076.186.162.278.262.278.133-.001.307-.196.526-.587zM23.221 49.196c-.066.711-.193 1.257-.383 1.637-.189.38-.4.57-.629.57-.275 0-.514-.256-.717-.769-.205-.512-.307-1.204-.307-2.076 0-.845.113-1.531.338-2.059.227-.528.496-.792.813-.792.236 0 .432.14.584.419s.23.57.23.871c0 .149-.021.269-.064.361s-.104.138-.182.138c-.102 0-.18-.074-.23-.223-.031-.083-.053-.239-.063-.47-.01-.231-.045-.407-.105-.529-.063-.118-.146-.176-.256-.176-.174 0-.316.145-.422.435-.143.383-.213.89-.213 1.52 0 .642.07 1.208.211 1.7.141.491.332.736.572.736.172 0 .326-.13.463-.39.096-.18.189-.509.281-.985l.079.082zM24.279 42.903v5.338l.611-1.245c.131-.266.205-.435.227-.505a.492.492 0 0 0-.022-.344.176.176 0 0 0-.145-.097v-.188h1.051v.188c-.145.008-.266.057-.361.147s-.199.251-.314.483l-.617 1.27.617 1.745c.174.479.289.784.346.917.084.183.158.301.223.355.043.039.121.058.229.058v.211h-1.172v-.211c.066-.004.113-.026.137-.067s.035-.099.035-.173c0-.09-.035-.235-.105-.434l-.738-2.106v1.781c0 .349.012.579.033.688a.51.51 0 0 0 .094.235c.041.047.129.072.264.076v.211h-1.23v-.211c.123 0 .217-.033.277-.1a.462.462 0 0 0 .084-.2c.027-.129.039-.352.039-.669v-4.891c0-.618-.006-.995-.018-1.133s-.033-.233-.061-.286-.064-.079-.111-.079c-.037 0-.092.033-.166.1l-.045-.211.719-.656h.119zM27.627 50.464c-.246.426-.402.672-.465.738-.096.098-.195.146-.303.146-.166 0-.305-.127-.412-.381-.107-.254-.162-.588-.162-1.003 0-.262.027-.489.08-.68.07-.266.195-.517.375-.751.178-.234.473-.52.887-.856v-.211c0-.534-.037-.901-.113-1.1-.076-.199-.186-.298-.332-.298-.109 0-.197.066-.262.199a1.01 1.01 0 0 0-.1.456l.006.339c0 .179-.02.317-.063.415-.041.097-.096.146-.164.146-.064 0-.119-.051-.16-.152a1.133 1.133 0 0 1-.063-.416c0-.335.078-.644.232-.925.154-.281.371-.421.65-.421.215 0 .389.08.527.24.104.121.18.311.229.568.031.168.047.512.047 1.031v1.822c0 .512.006.825.014.94s.023.192.043.231c.021.039.045.059.07.059.029 0 .053-.014.074-.041a3.42 3.42 0 0 0 .213-.428v.328c-.195.589-.385.883-.564.883-.086 0-.154-.066-.205-.199s-.077-.36-.079-.679zm0-.381v-2.046c-.264.234-.436.401-.512.499a1.64 1.64 0 0 0-.297.54c-.061.188-.09.393-.09.615 0 .282.037.516.113.701.074.186.162.278.26.278.133-.001.309-.196.526-.587zM29.301 49.269c-.148-.16-.262-.383-.34-.669a3.53 3.53 0 0 1-.119-.95c0-.53.09-.986.271-1.368.18-.382.41-.573.691-.573.23 0 .43.125.6.375h.512c.076 0 .119.005.133.015.012.01.02.027.025.05.01.036.016.098.016.189 0 .103-.004.173-.014.212-.006.02-.014.036-.027.047s-.059.018-.135.018h-.316c.1.281.148.64.148 1.077 0 .5-.086.926-.258 1.282-.172.354-.402.532-.693.532a.672.672 0 0 1-.365-.121c-.076.15-.127.281-.154.394s-.039.208-.039.287c0 .067.014.132.043.196.029.063.084.108.17.136.049.015.17.028.367.039.361.019.596.045.701.078.164.051.295.186.391.405.098.22.146.49.146.811 0 .443-.094.858-.279 1.246-.273.572-.633.858-1.072.858-.34 0-.627-.17-.859-.511a1.068 1.068 0 0 1-.199-.61c0-.094.01-.188.029-.281.031-.145.092-.347.186-.604.014-.035.104-.247.271-.634a1.384 1.384 0 0 1-.193-.328.91.91 0 0 1-.057-.328c0-.138.025-.299.074-.483.05-.187.163-.449.345-.787zm-.026 1.97a3.812 3.812 0 0 0-.189.556 1.951 1.951 0 0 0-.064.474c0 .187.051.351.152.491.176.241.43.362.762.362.316 0 .551-.124.701-.372.15-.248.225-.512.225-.793 0-.203-.045-.348-.135-.433-.09-.086-.271-.137-.541-.152-.395-.023-.698-.067-.911-.133zm.485-5.25c-.129 0-.238.115-.326.345s-.131.582-.131 1.057c0 .616.059 1.092.178 1.431.092.257.207.386.348.386.133 0 .242-.111.328-.333.086-.222.129-.57.129-1.046 0-.619-.061-1.104-.182-1.454-.088-.257-.204-.386-.344-.386zM31.762 47.896c-.002.797.084 1.422.26 1.875s.381.68.619.68c.156 0 .295-.096.412-.288.115-.192.213-.523.293-.994l.08.117a4.797 4.797 0 0 1-.32 1.461c-.178.438-.4.656-.666.656-.291 0-.539-.251-.744-.753-.207-.502-.311-1.177-.311-2.024 0-.918.105-1.634.318-2.147.211-.514.477-.771.797-.771.27 0 .492.198.666.595s.26.928.26 1.592h-1.664zm0-.344h1.117c-.01-.344-.027-.586-.057-.727a1.381 1.381 0 0 0-.195-.516c-.088-.125-.178-.188-.273-.188-.146 0-.275.126-.391.378s-.182.604-.201 1.053zM36.045 46.286v3.531c0 .502.025.819.074.952.066.173.152.259.262.259h.219v.211h-1.445v-.211h.107c.07 0 .135-.039.191-.118a.726.726 0 0 0 .121-.317c.021-.133.033-.392.033-.776v-3.531h-.471v-.422h.471v-.351c0-.534.037-.986.115-1.356s.195-.669.355-.897c.16-.228.338-.342.537-.342.186 0 .355.133.51.398.104.176.154.373.154.592a.82.82 0 0 1-.068.331c-.047.104-.096.155-.148.155-.041 0-.082-.032-.127-.097s-.1-.203-.166-.416c-.064-.213-.125-.356-.178-.431-.055-.074-.115-.111-.184-.111-.08 0-.148.048-.205.143-.057.096-.096.244-.121.444-.023.201-.037.718-.037 1.551v.386h.623v.422h-.622zM38.078 45.708c.365 0 .658.309.881.927.188.528.281 1.134.281 1.818 0 .481-.051.968-.156 1.46-.104.493-.246.864-.428 1.114-.182.25-.383.375-.607.375-.363 0-.652-.322-.865-.968-.182-.543-.271-1.153-.271-1.83 0-.493.055-.982.164-1.469s.254-.847.434-1.079c.178-.232.368-.348.567-.348zm-.082.383c-.092 0-.186.062-.279.185-.094.124-.17.34-.227.648a6.558 6.558 0 0 0-.088 1.191c0 .782.07 1.457.209 2.024.141.567.324.851.551.851.17 0 .311-.156.422-.469.109-.313.164-.851.164-1.613 0-.954-.092-1.705-.275-2.252-.125-.378-.284-.565-.477-.565zM40.301 45.708v1.207c.203-.805.41-1.207.621-1.207.098 0 .176.065.24.196.063.131.094.282.094.454a.954.954 0 0 1-.068.387c-.045.105-.1.158-.162.158s-.131-.067-.207-.203c-.076-.135-.133-.203-.17-.203-.031 0-.066.039-.104.118-.078.161-.16.425-.244.793v2.573c0 .298.018.523.051.677a.623.623 0 0 0 .121.265c.059.07.141.105.25.105v.211h-1.24v-.211c.123 0 .215-.043.273-.129a.682.682 0 0 0 .094-.3c.008-.066.012-.257.012-.57V47.95c0-.627-.006-1-.016-1.119-.012-.12-.033-.207-.064-.262s-.068-.082-.115-.082c-.055 0-.115.029-.186.088l-.025-.211.734-.656h.111zM44.777 51.239l-1.379-6.686v5.311c0 .487.023.791.07.911.064.164.168.245.309.245h.127v.219H42.66v-.219h.127c.15 0 .258-.101.32-.304.039-.125.059-.409.059-.853v-5.195c0-.351-.018-.604-.053-.759a.62.62 0 0 0-.137-.283c-.064-.076-.17-.114-.316-.114v-.219h1.012l1.297 6.216 1.275-6.216h1.01v.219h-.123c-.152 0-.262.102-.324.304-.039.125-.059.409-.059.853v5.195c0 .487.025.791.074.911.064.164.168.245.309.245h.123v.219h-1.518v-.219h.127c.152 0 .26-.101.322-.304.037-.125.057-.409.057-.853v-5.311l-1.377 6.686h-.088zM47.941 47.896c-.002.797.086 1.422.262 1.875s.381.68.617.68c.158 0 .297-.096.412-.288.117-.192.215-.523.293-.994l.082.117a4.74 4.74 0 0 1-.322 1.461c-.178.438-.398.656-.666.656-.289 0-.537-.251-.744-.753-.205-.502-.309-1.177-.309-2.024 0-.918.105-1.634.316-2.147.213-.514.479-.771.797-.771.271 0 .492.198.666.595s.262.928.262 1.592h-1.666zm0-.344h1.117a4.818 4.818 0 0 0-.055-.727 1.38 1.38 0 0 0-.197-.516c-.086-.125-.178-.188-.271-.188-.146 0-.277.126-.391.378-.115.253-.183.604-.203 1.053zM51.633 50.628c-.117.277-.232.476-.346.596-.111.12-.232.18-.361.18-.264 0-.494-.245-.691-.735-.195-.49-.295-1.12-.295-1.89s.109-1.474.328-2.112c.217-.639.496-.958.84-.958.211 0 .387.153.525.459v-.998c0-.612-.006-.989-.02-1.129s-.033-.236-.063-.287c-.027-.051-.063-.076-.105-.076-.045 0-.105.031-.182.094l-.035-.211.721-.656h.119v6.211c0 .628.008 1.011.02 1.15.014.138.035.235.064.29s.063.082.102.082c.047 0 .109-.033.189-.1l.029.211-.719.656h-.121v-.777zm0-.409v-2.753a3.674 3.674 0 0 0-.094-.729c-.053-.219-.123-.383-.211-.494-.086-.111-.172-.167-.254-.167-.154 0-.293.154-.414.462-.158.406-.238.999-.238 1.778 0 .788.076 1.392.23 1.811.154.419.328.629.518.629.16-.001.314-.18.463-.537zM53.463 45.708v4.32c0 .335.012.559.033.67a.571.571 0 0 0 .098.248c.043.055.121.082.234.082v.211h-1.172v-.211c.117 0 .195-.025.236-.076s.072-.134.096-.251c.023-.117.035-.341.035-.672V47.95c0-.581-.008-.958-.023-1.129a.709.709 0 0 0-.059-.26c-.025-.049-.063-.073-.107-.073-.049 0-.109.029-.18.088l-.037-.211.73-.656h.116zm-.217-2.805c.074 0 .137.058.189.173.051.115.076.254.076.418s-.025.304-.076.421c-.053.117-.115.175-.189.175-.072 0-.137-.059-.189-.175-.053-.117-.078-.257-.078-.421s.025-.303.078-.418c.05-.115.115-.173.189-.173zM56.178 49.196c-.064.711-.193 1.257-.383 1.637-.189.38-.398.57-.629.57-.273 0-.514-.256-.717-.769-.203-.512-.305-1.204-.305-2.076 0-.845.111-1.531.338-2.059.225-.528.496-.792.813-.792.236 0 .432.14.584.419s.229.57.229.871c0 .149-.021.269-.064.361s-.104.138-.18.138c-.104 0-.182-.074-.232-.223-.031-.083-.051-.239-.061-.47-.01-.231-.045-.407-.107-.529-.061-.118-.146-.176-.254-.176-.176 0-.316.145-.424.435-.143.383-.213.89-.213 1.52 0 .642.07 1.208.211 1.7.143.491.332.736.572.736.172 0 .326-.13.463-.39.098-.18.191-.509.281-.985l.078.082zM57.887 50.464c-.246.426-.402.672-.465.738a.416.416 0 0 1-.303.146c-.166 0-.305-.127-.412-.381-.107-.254-.162-.588-.162-1.003 0-.262.027-.489.08-.68.072-.266.197-.517.375-.751s.473-.52.887-.856v-.211c0-.534-.037-.901-.113-1.1-.076-.199-.186-.298-.33-.298-.111 0-.197.066-.262.199a1.01 1.01 0 0 0-.1.456l.004.339c0 .179-.02.317-.063.415-.041.097-.096.146-.162.146s-.121-.051-.162-.152a1.133 1.133 0 0 1-.063-.416c0-.335.078-.644.232-.925.154-.281.371-.421.65-.421a.66.66 0 0 1 .527.24c.104.121.18.311.229.568.031.168.047.512.047 1.031v1.822c0 .512.006.825.014.94.01.115.023.192.043.231.021.039.045.059.07.059.029 0 .053-.014.074-.041.037-.051.109-.193.215-.428v.328c-.197.589-.387.883-.566.883-.086 0-.154-.066-.205-.199s-.077-.36-.079-.679zm0-.381v-2.046c-.264.234-.436.401-.512.499a1.64 1.64 0 0 0-.297.54c-.061.188-.09.393-.09.615 0 .282.037.516.113.701.074.186.162.278.26.278.133-.001.309-.196.526-.587zM59.752 42.903v7.125c0 .335.012.558.033.667a.544.544 0 0 0 .102.248c.045.057.131.085.256.085v.211h-1.188v-.211c.111 0 .188-.025.229-.076a.606.606 0 0 0 .094-.251c.023-.117.035-.341.035-.672v-4.883c0-.602-.006-.972-.018-1.11-.014-.138-.033-.232-.061-.283s-.061-.076-.104-.076c-.045 0-.104.031-.174.094l-.045-.211.721-.656h.12zM63.131 50.464c-.248.426-.404.672-.467.738a.416.416 0 0 1-.303.146c-.166 0-.303-.127-.412-.381-.107-.254-.16-.588-.16-1.003 0-.262.025-.489.078-.68.072-.266.197-.517.375-.751s.475-.52.889-.856v-.211c0-.534-.039-.901-.115-1.1-.076-.199-.186-.298-.33-.298-.111 0-.197.066-.262.199a1.01 1.01 0 0 0-.1.456l.006.339c0 .179-.021.317-.063.415-.043.097-.098.146-.164.146s-.119-.051-.162-.152a1.133 1.133 0 0 1-.063-.416c0-.335.078-.644.232-.925.154-.281.371-.421.65-.421a.66.66 0 0 1 .527.24c.104.121.18.311.229.568.033.168.049.512.049 1.031v1.822c0 .512.004.825.012.94a.67.67 0 0 0 .045.231c.02.039.043.059.07.059s.053-.014.072-.041c.037-.051.109-.193.215-.428v.328c-.197.589-.387.883-.564.883-.088 0-.156-.066-.207-.199s-.075-.36-.077-.679zm0-.381v-2.046a4.837 4.837 0 0 0-.514.499 1.64 1.64 0 0 0-.297.54c-.061.188-.09.393-.09.615 0 .282.039.516.113.701.076.186.162.278.26.278.135-.001.309-.196.528-.587zM64.867 46.844c.283-.757.553-1.136.809-1.136.131 0 .244.073.338.22.096.147.17.388.227.725.039.234.057.595.057 1.08v2.295c0 .339.014.569.037.69.02.098.051.174.094.228.043.055.123.082.238.082v.211H65.47v-.211h.051c.111 0 .189-.038.234-.114a.887.887 0 0 0 .094-.336c.008-.059.012-.242.012-.55v-2.203c0-.49-.029-.845-.086-1.066s-.152-.332-.285-.332c-.209 0-.414.254-.621.763v2.839c0 .362.01.587.029.672a.609.609 0 0 0 .102.249c.043.053.131.079.264.079v.211h-1.197v-.211h.053c.121 0 .205-.069.248-.208s.064-.403.064-.792v-2c0-.645-.008-1.037-.021-1.178-.012-.141-.033-.236-.061-.287s-.064-.076-.109-.076c-.049 0-.107.029-.178.088l-.039-.211.732-.656h.113v1.135zM68.561 50.628c-.119.277-.234.476-.346.596-.113.12-.232.18-.363.18-.264 0-.494-.245-.689-.735-.197-.49-.295-1.12-.295-1.89s.109-1.474.326-2.112.498-.958.84-.958c.213 0 .389.153.527.459v-.998c0-.612-.008-.989-.02-1.129a.845.845 0 0 0-.063-.287c-.029-.051-.064-.076-.105-.076-.047 0-.107.031-.184.094l-.033-.211.721-.656h.119v6.211c0 .628.006 1.011.02 1.15.014.138.033.235.063.29s.064.082.102.082c.049 0 .111-.033.191-.1l.027.211-.717.656h-.121v-.777zm0-.409v-2.753a3.821 3.821 0 0 0-.096-.729c-.053-.219-.123-.383-.209-.494-.088-.111-.172-.167-.254-.167-.154 0-.293.154-.414.462-.16.406-.24.999-.24 1.778 0 .788.078 1.392.232 1.811.154.419.326.629.516.629.16-.001.314-.18.465-.537zM70.662 43.294h.965l2.188 5.962v-4.587c0-.486-.023-.79-.074-.911-.064-.163-.166-.245-.307-.245h-.125v-.219h1.244v.219h-.127c-.15 0-.258.102-.32.304-.039.125-.059.409-.059.853v6.699h-.096l-2.354-6.397v4.893c0 .487.023.791.072.911.066.164.17.245.309.245h.125v.219h-1.242v-.219h.123c.152 0 .262-.101.324-.304.039-.125.059-.409.059-.853v-5.523a3.992 3.992 0 0 0-.236-.534.894.894 0 0 0-.236-.241.41.41 0 0 0-.232-.053v-.219zM76.918 45.864v3.266c0 .619.006.997.02 1.135a.9.9 0 0 0 .063.289c.029.055.064.082.104.082.053 0 .115-.033.184-.1l.037.211-.723.656h-.119v-1.136c-.207.5-.365.814-.475.942-.109.129-.225.193-.346.193-.135 0-.252-.087-.352-.261a1.882 1.882 0 0 1-.207-.672 8.748 8.748 0 0 1-.059-1.161V46.91c0-.257-.012-.435-.037-.534a.506.506 0 0 0-.109-.228c-.047-.053-.135-.078-.262-.074v-.211h.848v3.599c0 .501.039.83.117.986s.172.235.283.235c.074 0 .16-.053.256-.158.096-.106.209-.308.342-.605v-3.049c0-.307-.025-.515-.076-.623-.051-.108-.156-.167-.314-.174v-.211h.825zM78.207 45.708v1.207c.201-.805.408-1.207.621-1.207.096 0 .176.065.238.196.064.131.096.282.096.454a.99.99 0 0 1-.068.387c-.047.105-.1.158-.164.158-.061 0-.131-.067-.207-.203-.076-.135-.133-.203-.17-.203-.031 0-.064.039-.102.118-.08.161-.16.425-.244.793v2.573c0 .298.016.523.049.677a.635.635 0 0 0 .121.265c.059.07.143.105.252.105v.211h-1.24v-.211c.123 0 .213-.043.273-.129a.712.712 0 0 0 .092-.3 6.04 6.04 0 0 0 .014-.57V47.95c0-.627-.006-1-.018-1.119a.727.727 0 0 0-.063-.262c-.031-.055-.07-.082-.115-.082-.055 0-.117.029-.186.088l-.027-.211.736-.656h.112zM80.854 45.708v1.828h-.088c-.066-.575-.152-.966-.256-1.173-.105-.208-.238-.311-.398-.311-.123 0-.223.072-.297.217a1.019 1.019 0 0 0-.113.481c0 .219.027.407.084.563.053.161.164.331.33.511l.385.417c.357.387.535.897.535 1.531 0 .489-.082.883-.248 1.182s-.352.449-.557.449c-.148 0-.316-.059-.506-.176-.059-.039-.105-.059-.143-.059-.041 0-.072.05-.096.148h-.088v-1.914h.088c.049.548.145.961.283 1.239.139.278.293.417.465.417.121 0 .221-.079.297-.238s.115-.35.115-.573c0-.27-.043-.498-.129-.682-.084-.184-.254-.417-.51-.698-.254-.281-.422-.536-.5-.762-.08-.223-.119-.504-.119-.845 0-.441.068-.811.203-1.108.137-.297.313-.446.529-.446.094 0 .209.046.344.137.09.06.15.089.18.089a.073.073 0 0 0 .066-.042.833.833 0 0 0 .055-.185h.089zM82.229 45.708v4.32c0 .335.012.559.033.67a.597.597 0 0 0 .098.248c.043.055.121.082.236.082v.211h-1.174v-.211c.117 0 .197-.025.236-.076a.603.603 0 0 0 .096-.251c.025-.117.037-.341.037-.672V47.95c0-.581-.008-.958-.023-1.129a.803.803 0 0 0-.059-.26c-.027-.049-.064-.073-.109-.073-.049 0-.109.029-.18.088l-.037-.211.73-.656h.116zm-.215-2.805c.072 0 .137.058.188.173.051.115.078.254.078.418s-.027.304-.078.421c-.051.117-.115.175-.188.175-.074 0-.139-.059-.189-.175-.053-.117-.08-.257-.08-.421s.027-.303.078-.418c.05-.115.115-.173.191-.173zM83.602 46.844c.283-.757.551-1.136.807-1.136.133 0 .244.073.34.22.094.147.17.388.227.725.037.234.057.595.057 1.08v2.295c0 .339.014.569.037.69.02.098.051.174.094.228.043.055.123.082.238.082v.211h-1.197v-.211h.049c.113 0 .191-.038.236-.114a.887.887 0 0 0 .094-.336 7.13 7.13 0 0 0 .01-.55v-2.203c0-.49-.027-.845-.084-1.066s-.152-.332-.287-.332c-.207 0-.414.254-.619.763v2.839c0 .362.01.587.029.672a.609.609 0 0 0 .102.249c.043.053.131.079.264.079v.211H82.8v-.211h.053c.123 0 .207-.069.248-.208.043-.138.064-.403.064-.792v-2c0-.645-.006-1.037-.02-1.178-.012-.141-.033-.236-.061-.287s-.064-.076-.109-.076c-.049 0-.109.029-.178.088l-.039-.211.732-.656h.113v1.135zM86.234 49.269c-.146-.16-.26-.383-.34-.669a3.611 3.611 0 0 1-.119-.95c0-.53.092-.986.271-1.368.18-.382.41-.573.693-.573.23 0 .43.125.598.375h.512c.076 0 .121.005.133.015s.021.027.025.05a.672.672 0 0 1 .018.189c0 .103-.006.173-.014.212-.006.02-.016.036-.029.047s-.059.018-.135.018h-.314c.098.281.146.64.146 1.077 0 .5-.086.926-.258 1.282-.172.354-.402.532-.691.532a.678.678 0 0 1-.367-.121c-.076.15-.127.281-.154.394a1.367 1.367 0 0 0-.039.287c0 .067.014.132.043.196.029.063.086.108.17.136.049.015.172.028.369.039.359.019.594.045.701.078.162.051.293.186.391.405.098.22.146.49.146.811 0 .443-.094.858-.279 1.246-.275.572-.633.858-1.074.858-.34 0-.625-.17-.859-.511a1.08 1.08 0 0 1-.197-.61c0-.094.01-.188.029-.281a4.47 4.47 0 0 1 .186-.604c.012-.035.102-.247.27-.634a1.384 1.384 0 0 1-.193-.328.91.91 0 0 1-.057-.328c0-.138.025-.299.074-.483.049-.187.165-.449.344-.787zm-.023 1.97a3.609 3.609 0 0 0-.191.556 1.951 1.951 0 0 0-.064.474c0 .187.051.351.152.491.178.241.432.362.764.362.316 0 .549-.124.699-.372.15-.248.227-.512.227-.793 0-.203-.045-.348-.135-.433-.092-.086-.271-.137-.543-.152-.393-.023-.698-.067-.909-.133zm.482-5.25c-.129 0-.238.115-.326.345-.086.229-.131.582-.131 1.057 0 .616.061 1.092.18 1.431.09.257.205.386.346.386.135 0 .244-.111.33-.333.086-.222.129-.57.129-1.046 0-.619-.061-1.104-.182-1.454-.09-.257-.205-.386-.346-.386zM92.721 43.114l.08 2.703h-.08c-.109-.812-.264-1.396-.467-1.753-.201-.357-.443-.536-.727-.536-.236 0-.451.134-.643.401-.191.268-.342.695-.451 1.281-.109.586-.164 1.315-.164 2.187 0 .719.051 1.343.154 1.87.104.528.26.932.469 1.214.207.281.443.422.711.422.23 0 .436-.11.613-.332.178-.221.371-.66.584-1.317l.082.117c-.18.708-.389 1.226-.627 1.554-.24.329-.523.493-.852.493-.592 0-1.051-.488-1.375-1.464-.244-.727-.365-1.582-.365-2.565 0-.792.08-1.521.24-2.185.16-.664.381-1.178.662-1.543.279-.365.586-.548.918-.548.26 0 .514.142.766.425.074.087.127.13.158.13.047 0 .088-.037.123-.112.047-.106.078-.253.098-.442h.093zM94.602 50.464c-.246.426-.402.672-.465.738-.096.098-.195.146-.303.146-.166 0-.305-.127-.412-.381-.107-.254-.162-.588-.162-1.003 0-.262.027-.489.08-.68.072-.266.195-.517.375-.751.178-.234.473-.52.887-.856v-.211c0-.534-.037-.901-.113-1.1-.076-.199-.188-.298-.332-.298-.109 0-.195.066-.262.199-.064.132-.1.285-.1.456l.006.339c0 .179-.021.317-.063.415-.041.097-.096.146-.164.146-.064 0-.119-.051-.16-.152a1.133 1.133 0 0 1-.063-.416c0-.335.078-.644.232-.925.154-.281.371-.421.65-.421.215 0 .389.08.527.24.104.121.18.311.229.568.031.168.047.512.047 1.031v1.822c0 .512.004.825.014.94a.683.683 0 0 0 .043.231c.021.039.043.059.07.059.029 0 .053-.014.074-.041a3.42 3.42 0 0 0 .213-.428v.328c-.195.589-.385.883-.564.883-.086 0-.154-.066-.205-.199s-.077-.36-.079-.679zm0-.381v-2.046c-.264.234-.436.401-.512.499a1.64 1.64 0 0 0-.297.54c-.061.188-.09.393-.09.615 0 .282.037.516.113.701.074.186.162.278.26.278.133-.001.309-.196.526-.587zM96.34 45.708v1.207c.201-.805.408-1.207.621-1.207.096 0 .176.065.24.196.063.131.094.282.094.454a.954.954 0 0 1-.068.387c-.045.105-.1.158-.162.158s-.131-.067-.207-.203c-.078-.135-.135-.203-.17-.203-.031 0-.066.039-.104.118-.078.161-.16.425-.244.793v2.573c0 .298.018.523.051.677a.6.6 0 0 0 .121.265c.057.07.141.105.25.105v.211h-1.24v-.211c.123 0 .215-.043.273-.129a.685.685 0 0 0 .092-.3 6.04 6.04 0 0 0 .014-.57V47.95c0-.627-.006-1-.018-1.119-.01-.12-.031-.207-.063-.262s-.07-.082-.115-.082c-.055 0-.117.029-.186.088l-.025-.211.734-.656h.112zM97.834 47.896c-.002.797.086 1.422.262 1.875s.381.68.617.68c.158 0 .295-.096.412-.288s.215-.523.293-.994l.082.117a4.74 4.74 0 0 1-.322 1.461c-.178.438-.398.656-.666.656-.289 0-.537-.251-.744-.753-.205-.502-.309-1.177-.309-2.024 0-.918.105-1.634.316-2.147.213-.514.479-.771.797-.771.271 0 .492.198.666.595s.262.928.262 1.592h-1.666zm0-.344h1.117a4.818 4.818 0 0 0-.055-.727 1.38 1.38 0 0 0-.197-.516c-.086-.125-.178-.188-.271-.188-.146 0-.277.126-.393.378-.113.253-.181.604-.201 1.053z"/><linearGradient id="f" gradientUnits="userSpaceOnUse" x1="21.541" y1="15.034" x2="76.847" y2="70.34"><stop offset="0" stop-color="#ead18f"/><stop offset=".076" stop-color="#e1c477"/><stop offset=".221" stop-color="#d1af4e"/><stop offset=".335" stop-color="#c8a235"/><stop offset=".405" stop-color="#c49d2c"/><stop offset=".559" stop-color="#d4b35c"/><stop offset=".766" stop-color="#e7cd97"/><stop offset=".919" stop-color="#f3debb"/><stop offset="1" stop-color="#f8e4c9"/></linearGradient><linearGradient id="g" gradientUnits="userSpaceOnUse" x1="27.091" y1="61.115" x2="82.152" y2="116.176"><stop offset="0" stop-color="#ead18f"/><stop offset=".076" stop-color="#e1c477"/><stop offset=".221" stop-color="#d1af4e"/><stop offset=".335" stop-color="#c8a235"/><stop offset=".405" stop-color="#c49d2c"/><stop offset=".559" stop-color="#d4b35c"/><stop offset=".766" stop-color="#e7cd97"/><stop offset=".919" stop-color="#f3debb"/><stop offset="1" stop-color="#f8e4c9"/></linearGradient></svg>