<?xml version="1.0" encoding="utf-8"?><svg xmlns="http://www.w3.org/2000/svg" width="99" height="81" viewBox="62.733 30.502 99 81"><linearGradient id="a" gradientUnits="userSpaceOnUse" x1="106.291" y1="34.4" x2="161.8" y2="89.909"><stop offset="0" stop-color="#ead18f"/><stop offset=".076" stop-color="#e1c477"/><stop offset=".221" stop-color="#d1af4e"/><stop offset=".335" stop-color="#c8a235"/><stop offset=".405" stop-color="#c49d2c"/><stop offset=".559" stop-color="#d4b35c"/><stop offset=".766" stop-color="#e7cd97"/><stop offset=".919" stop-color="#f3debb"/><stop offset="1" stop-color="#f8e4c9"/></linearGradient><linearGradient id="b" gradientUnits="userSpaceOnUse" x1="106.04" y1="66.648" x2="161.292" y2="121.9"><stop offset="0" stop-color="#ead18f"/><stop offset=".076" stop-color="#e1c477"/><stop offset=".221" stop-color="#d1af4e"/><stop offset=".335" stop-color="#c8a235"/><stop offset=".405" stop-color="#c49d2c"/><stop offset=".559" stop-color="#d4b35c"/><stop offset=".766" stop-color="#e7cd97"/><stop offset=".919" stop-color="#f3debb"/><stop offset="1" stop-color="#f8e4c9"/></linearGradient><linearGradient id="c" gradientUnits="userSpaceOnUse" x1="106.495" y1="46.519" x2="162.039" y2="102.063"><stop offset="0" stop-color="#ead18f"/><stop offset=".076" stop-color="#e1c477"/><stop offset=".221" stop-color="#d1af4e"/><stop offset=".335" stop-color="#c8a235"/><stop offset=".405" stop-color="#c49d2c"/><stop offset=".559" stop-color="#d4b35c"/><stop offset=".766" stop-color="#e7cd97"/><stop offset=".919" stop-color="#f3debb"/><stop offset="1" stop-color="#f8e4c9"/></linearGradient><linearGradient id="d" gradientUnits="userSpaceOnUse" x1="147.192" y1="50.622" x2="202.498" y2="105.927"><stop offset="0" stop-color="#ead18f"/><stop offset=".076" stop-color="#e1c477"/><stop offset=".221" stop-color="#d1af4e"/><stop offset=".335" stop-color="#c8a235"/><stop offset=".405" stop-color="#c49d2c"/><stop offset=".559" stop-color="#d4b35c"/><stop offset=".766" stop-color="#e7cd97"/><stop offset=".919" stop-color="#f3debb"/><stop offset="1" stop-color="#f8e4c9"/></linearGradient><linearGradient id="e" gradientUnits="userSpaceOnUse" x1="136.472" y1="63.664" x2="191.777" y2="118.969"><stop offset="0" stop-color="#ead18f"/><stop offset=".076" stop-color="#e1c477"/><stop offset=".221" stop-color="#d1af4e"/><stop offset=".335" stop-color="#c8a235"/><stop offset=".405" stop-color="#c49d2c"/><stop offset=".559" stop-color="#d4b35c"/><stop offset=".766" stop-color="#e7cd97"/><stop offset=".919" stop-color="#f3debb"/><stop offset="1" stop-color="#f8e4c9"/></linearGradient><linearGradient id="f" gradientUnits="userSpaceOnUse" x1="150.471" y1="43.997" x2="205.776" y2="99.303"><stop offset="0" stop-color="#ead18f"/><stop offset=".076" stop-color="#e1c477"/><stop offset=".221" stop-color="#d1af4e"/><stop offset=".335" stop-color="#c8a235"/><stop offset=".405" stop-color="#c49d2c"/><stop offset=".559" stop-color="#d4b35c"/><stop offset=".766" stop-color="#e7cd97"/><stop offset=".919" stop-color="#f3debb"/><stop offset="1" stop-color="#f8e4c9"/></linearGradient><path fill="#B2B2B2" d="M81.722 36.43c-.308 1.011-.439 2.2-.397 3.568l.648 16.418c-.028.18-.06.707-.095 1.584-.034.878-.08 1.525-.135 1.941l.188.893c-.334.922-.788 1.441-1.36 1.561-1.185-.654-2.907-1.145-5.167-1.473-1.38-.178-2.036-.268-1.967-.268-2.663 0-4.86.387-6.589 1.16-.628.298-1.234.818-1.82 1.563-.153-.209-.251-.685-.293-1.428-.015-.18-.063-.313-.147-.402.029-3.242.161-7.033.397-11.377.21-3.717.426-7.436.649-11.153-.181-.327-.327-.817-.439-1.472-.182-1.071-.278-1.621-.293-1.651.252-1.427.475-2.142.669-2.142.07 0 .147.045.23.135l.649.223.376.713c2.608-.742 4.721-1.115 6.339-1.115h2.679c1.198 0 2.488.328 3.869.982.266-.238.649-.64 1.15-1.205.098.179.283.335.555.469.272.134.506.514.701 1.138-.083.267-.216.713-.397 1.338zm-1.653 8.61c-.07-2.914-.105-5.13-.105-6.646-1.479-.922-3.953-1.383-7.427-1.383-.46 0-1.331.118-2.615.356-1.38.268-2.164.483-2.354.647a1.004 1.004 0 0 0-.345.602c-.083.416-.266 2.915-.544 7.495-.223 2.736-.488 6.886-.795 12.448 2.761-1.041 5.021-1.563 6.778-1.563.153 0 .38.053.68.156.3.104.513.156.638.156l2.721.09c.097 0 .236-.03.418-.09.182-.059.32-.089.419-.089.236 0 1.227.282 2.971.848l.041-.313c-.167-2.318-.327-6.556-.481-12.714zm-7.587-4.015l-.043-.446-.606-.445c.07-.477.195-1.071.377-1.785.126-.268.405-.402.84-.402.281 0 .762.373 1.447 1.116.027.208.041.401.041.58 0 .208-.027.64-.083 1.294l.252.178.961-.133c.404-.061 1.27.163 2.595.668.153.119.397.238.732.357h.292c.32 0 .516.223.585.67-.223.803-.564 1.353-1.024 1.65l-1.297.535a3.319 3.319 0 0 0-1.527-.535c-.768-.09-1.263-.179-1.486-.268l-.46.223c-.153.327-.23 1.012-.23 2.053.447.059 1.145.133 2.093.223.07 0 .175.029.314.09.14.059.25.088.334.088.363 0 .677-.223.942-.668a8.524 8.524 0 0 1 1.484 2.052c-.153.327-.327.729-.522 1.204-.015.061-.021.551-.021 1.473 0 .327-.014.885-.042 1.674a57.583 57.583 0 0 0-.041 1.852c-.07.029-.279.431-.628 1.204l-.251-.224c-.321.119-.502.179-.544.179-.111 0-.265-.06-.461-.179-.194-.119-.348-.178-.46-.178a.75.75 0 0 0-.293.089.745.745 0 0 1-.271.089c-.67 0-1.669.03-2.998.09-1.047.089-1.667.208-1.863.356-.027 0-.293.269-.794.804-.112.119-.313.207-.607.268-.14.059-.25.178-.335.356l-.648-1.428-.083-.892c.027-.328.063-.662.104-1.004s.118-.588.229-.736l.105-1.695c0-.238-.053-.662-.157-1.271s-.156-1.078-.156-1.406c0-.564.097-.967.292-1.204.015 0 .216-.148.606-.446l.544.402c.852-.625 1.743-.952 2.678-.982 0-.922-.041-1.621-.125-2.097a.35.35 0 0 0-.167-.044c-.293 0-.833.133-1.622.4-.788.268-1.349.506-1.685.715-.11.059-.288.26-.533.602-.244.342-.387.603-.428.781-.489-.596-.733-1.518-.733-2.766 0-.477.077-.818.23-1.027.153-.207.656-.445 1.507-.713.362-.179.899-.402 1.61-.67.446-.091 1.123-.315 2.03-.671zm4.282 8.745c-.6-.387-1.382-.58-2.344-.58-.209 0-.529.014-.962.044-.432.03-.754.045-.962.045-.126 0-.313.022-.565.067a3.583 3.583 0 0 1-.564.066c-.656 0-1.074.252-1.255.758-.126.387-.182 1.26-.168 2.617a.85.85 0 0 0 .229.045c.266 0 .652-.131 1.162-.394.509-.263.896-.394 1.161-.394-.057 0 .934.053 2.971.163a.774.774 0 0 0 .24-.06.775.775 0 0 1 .22-.06c.027 0 .188.054.481.163l.439.224.083-.134-.166-2.57zM99.559 63.793c-.907-1.487-2.106-2.752-3.599-3.793-1.367-.951-2.664-1.516-3.892-1.695-.404 0-1.011-.104-1.82-.313-.097-.059-.167-.088-.209-.088-.153 0-.38.021-.68.066s-.527.066-.681.066c-.445 0-1.028.528-1.746 1.584-.719 1.057-1.196 1.6-1.433 1.629-.126.178-.283.26-.471.245-.189-.015-.311.022-.366.112-.237.118-.572.178-1.004.178h-.523a2.027 2.027 0 0 1-.126-.758v-1.384c0-.298.105-.685.313-1.159.321-.744.796-1.295 1.423-1.651l1.591-.848c.278-.417.711-1.011 1.297-1.784.293-.328.578-.654.857-.982.237-.326.418-.922.544-1.782l-.439-1.382.042-1.023c.084-.09.341-.504.774-1.246.097-.178.223-.356.376-.535.07.209.3.49.69.848.35.355.586.918.711 1.691-.041.385-.125.697-.251.934-.181.297-.293.506-.334.625-.335.98-.552 1.932-.649 2.854.14.089.635.223 1.486.4.181.03.348 0 .502-.088l.021-9.223-.146-.4c-.377 0-1.033.254-1.967.759l-.963.268c-.363.149-.635.521-.816 1.116h-.125c-.195.029-.446-.269-.753-.893a23.79 23.79 0 0 1-.043-1.071c-.014-.446-.083-.759-.208-.937.153-1.695.551-2.543 1.191-2.543.196.535.322.803.377.803-.111 0 .259-.119 1.109-.357 1.324-.356 2.748-.535 4.268-.535 2.622 0 4.219.238 4.79.713.294.237.461.801.503 1.691-.153.416-.342.654-.565.713-.111.03-.3.119-.564.267-.864-.087-2.168-.043-3.912.134-.404.86-.606 1.648-.606 2.359 0 .148.007.356.021.624v.667c.07.061.16.09.272.09.14 0 .352-.035.638-.107.286-.073.478-.123.576-.152 1.031-.145 2.279-.217 3.744-.217.125 0 .349.061.669.18.279.09.503.12.67.09.042.387.063.672.063.85 0 .926-.251 1.688-.753 2.285-.167.208-.6.551-1.297 1.027-.237-.237-.551-.356-.941-.356-.503-.035-.823-.087-.963-.156-.181-.095-.286-.142-.313-.142-.195 0-.478.016-.848.045-.369.029-.645.045-.826.045-.349 0-.6.178-.753.535-.015.148-.042.477-.084.981a9.617 9.617 0 0 0-.063.981v.179c.655.179 2.238.878 4.749 2.097.321.209.795.432 1.422.67.587 0 1.458.059 2.615.178l.545.491.208 1.472c-.851 1.396-1.959 2.75-3.325 4.058zm2.195-21.266l-.48 1.026-.209.089c-.404-.446-.705-1.278-.899-2.498-.069-.506-.209-1.19-.419-2.052-.181.416-.237.892-.167 1.428-.126.059-.32.162-.586.312-.209.149-.377.224-.502.224-.642-.596-1.66-1.086-3.055-1.473-1.199-.327-2.26-.461-3.18-.402-.111-.088-.21-.133-.293-.133-.182 0-.418.045-.711.133a6.538 6.538 0 0 1-.733.269c-.474.06-1.171.282-2.091.669-.182.148-.464.35-.848.603s-.624.424-.722.513c-.195.238-.362.609-.502 1.115l-.461 1.874c-.223.804-.46 1.204-.711 1.204-.404 0-.683-.668-.837-2.007.182-1.101.37-2.767.564-4.997.029-1.309.23-2.022.607-2.142l.565.848h.083c.056 0 .195-.104.418-.312.07-.03.146-.075.23-.135.098.179.21.328.334.446.153.03.35-.015.587-.134a9.66 9.66 0 0 0 .564-.313c.739-.208 1.855-.506 3.347-.893a35.466 35.466 0 0 1-.124-1.293l.063-.179a3.608 3.608 0 0 1 .564-1.919c.14.18.327.313.564.402.293.119.481.208.565.268.474.327.809 1.219 1.004 2.677 2.092.417 3.752 1.056 4.979 1.919.194-1.221.487-2.068.878-2.543.209.416.398.684.565.803l.377.133c.265.18.446 1.079.543 2.699.098 1.621.147 2.373.147 2.254v.713c-.01.358-.018.625-.018.804zM105.344 44.133c-.097.148-.361.476-.794.981-.308.446-.747.952-1.318 1.517l-.46-.49-.021-1.115c0-.061.069-.535.209-1.428l-.104-.759c.277-.654.662-1.13 1.15-1.428.446-.268 1.06-.817 1.841-1.651.878-.951 1.499-1.561 1.861-1.828l.126.044c.14.149.209.356.209.625 0 .535-.39 1.532-1.172 2.989-.627 1.16-1.136 2.008-1.527 2.543zm3.034-8.031c-.823.893-1.381 1.398-1.674 1.518a3.678 3.678 0 0 0-.711.356c-.196-.06-.537.075-1.024.401l-.67-.268-.043-.58c0-.178.021-.469.063-.869.042-.402.056-.707.042-.915.195-.981.516-1.472.962-1.472.028 0 .244.133.649.4l1.841-.713.711.445.23.535c-.097.627-.223 1.014-.376 1.162zm11.36 9.756c-.363 0-.709-.201-1.036-.602a99.098 99.098 0 0 1-.951-1.183c-.21-.238-.848-.751-1.915-1.54-1.066-.787-1.67-1.182-1.81-1.182-.279 0-.773.58-1.485 1.74-.125.208-.719.848-1.778 1.918 1.019.06 1.903.09 2.657.09 1.381 0 2.454.208 3.222.624l.92-.624.754.98c.014.18.021.313.021.402 0 .297-.077.699-.23 1.205-.153.505-.23.861-.23 1.07.237 4.996.356 7.555.356 7.674 0 .981-.171 1.791-.513 2.432-.342.639-.75.959-1.224.959-.098 0-.251-.022-.461-.066a2.474 2.474 0 0 0-.48-.068c-.224 0-.391.075-.503.224a14.6 14.6 0 0 1 .69 3.347c-.167.535-.368.803-.606.803a68.634 68.634 0 0 1-1.442-2.008c-.601-.803-1.005-1.621-1.214-2.453l-2.364-.135a4.815 4.815 0 0 1-.439 1.294c-.334.655-.51.997-.523 1.026a80.67 80.67 0 0 0-.606 1.605c-.251.536-.537.804-.857.804-.111 0-.217-.074-.313-.224a5.804 5.804 0 0 1-.084-.892c0-.446.133-1.011.397-1.695.266-.685.397-1.19.397-1.517-.391.029-.774.059-1.15.089-.461.118-.802.431-1.025.937-.349 0-.558-.476-.627-1.428l.104-.713c0-.03.008-.075.021-.135 0-.268-.014-.676-.042-1.227s-.042-.959-.042-1.227c0-.715.073-1.74.22-3.078.146-1.34.22-2.351.22-3.035-.195-.326-.293-.892-.293-1.695 0-.059.077-.505.23-1.338.78-.416 1.96-.996 3.535-1.74l-.063-.268c.029-1.13.287-1.947.775-2.453.474-.328.941-.654 1.401-.982.517-.356 1.116-1.323 1.8-2.899l-.146-.759c-.043-.059-.077-.089-.105-.089-.084 0-.224.074-.418.224-.279.118-.697.475-1.256 1.07-.041.059-.16.268-.354.625-.363.624-.907 1.322-1.633 2.096-.084.09-.349.209-.795.357a1.198 1.198 0 0 0-.334.223 5.556 5.556 0 0 1-.085-.803c0-1.1.238-1.963.712-2.588.418-.506.844-1.011 1.275-1.517.601-.981 1.006-1.845 1.214-2.587l-.271-1.116.104-1.115c.251-.654.593-.981 1.025-.981.864 0 1.429.342 1.694 1.025-.042.417-.195.893-.46 1.428-.167.357-.259.67-.272.938l.042.045 2.448-.446c.069 0 1.102.253 3.096.759.419-.625.69-.952.816-.982.027.03.334.283.92.759.126.089.265.253.418.491a21.012 21.012 0 0 1-.731 2.008c-.112.416-.3 1.025-.565 1.828-.139.268-.341.685-.605 1.25.334.238.844.401 1.525.49.085 0 .213.045.389.135.174.089.31.133.407.133.084 0 .198-.044.345-.133.146-.09.262-.135.346-.135.098 0 .224.104.377.313-.196 1.07-.548 1.911-1.057 2.521a99.172 99.172 0 0 1-1.48 1.717zm-3.117 4.153c0-.06.034-.372.104-.938l-.125-.313c-1.256-.479-2.643-.716-4.163-.716-.195 0-.495.022-.9.067a9.235 9.235 0 0 1-.92.066c-1.673 0-2.74.253-3.2.758-.168.18-.266.521-.293 1.027l.021.133c2.078-.713 4.31-1.07 6.695-1.07.167 0 .571.082 1.212.245.643.163 1.013.275 1.109.335.195.178.342.551.439 1.115-.362.863-.879 1.294-1.549 1.294-.167 0-.411-.022-.731-.067s-.565-.066-.732-.066c-.362 0-.948.059-1.758.178-.307 0-.76.045-1.358.135-.279.089-.663.17-1.151.245-.488.074-1.276.2-2.364.379a2.018 2.018 0 0 0-.125.669c0 .09.007.164.021.224 1.813-.595 3.961-.893 6.443-.893.112 0 .282.022.513.067s.4.066.513.066c.153 0 .384-.029.69-.089s.53-.089.67-.089c.487 0 .851.554 1.088 1.66-.266.628-.587.986-.963 1.076h-1.108l-5.648.045c-1.074 0-1.862.326-2.364.98-.084.119-.126.328-.126.625v.223l.167.224c1.283-.714 2.971-1.071 5.063-1.071.571 0 2.259.03 5.063.09l.063-.223-.296-6.391zm-.481-12.346c-.168 0-.321.029-.46.088l-.607 1.205c.754.596 1.681 1.07 2.782 1.428.126-.445.266-1.086.419-1.918-.879-.536-1.59-.803-2.134-.803zM126.919 50.573c-.112.743-.293 1.814-.544 3.212-.307 1.517-.938 3.242-1.894 5.175-.956 1.934-1.796 3.123-2.521 3.57l-.21-.045c-.083.089-.167.134-.251.134-.167 0-.509-.401-1.025-1.204v-1.384c0-.06.028-.253.084-.58l-.125-.624c1.617-1.16 2.824-2.336 3.619-3.525 1.157-1.754 1.82-3.971 1.987-6.647l-.21-.491c.153-.98.384-1.472.69-1.472.462 0 .823.224 1.089.669-.251.832-.48 1.903-.689 3.212zm12.594-5.369c-.125.209-.3.372-.522.49-.266.119-.446.238-.545.357-2.565-.862-4.644-1.293-6.233-1.293-3.558 0-6.318.966-8.284 2.899a6.261 6.261 0 0 1-.565-1.472c-.111-.596-.217-1.176-.313-1.74.153-.09.264-.298.334-.625l.084-.045c.028-.059.084-.193.168-.401.014-.06.041-.134.083-.224 2.288-.535 3.905-1.041 4.854-1.516 0-.298-.049-.67-.146-1.115-.125-.566-.195-.938-.209-1.116a1.721 1.721 0 0 0-.544-.089c-.446 0-.92.193-1.423.58l-.293.848a.65.65 0 0 1-.188.045c-.392 0-.643-.402-.753-1.205-.029-.357-.119-.803-.272-1.338v-1.16c.042-.268.118-.447.229-.535l.336-.269c.041-.06.09-.193.146-.401l.69.313c.418-.179 1.848-.432 4.288-.759.014-.298.034-.617.063-.959.028-.343.104-.573.229-.692l-.104-.445.336-1.338h.229c.252 0 .521.186.807.557.286.372.491.811.617 1.316a8.274 8.274 0 0 1-.188.803 1.71 1.71 0 0 0-.105.447l.147.088c0 .03.007.045.021.045h1.967c.097 0 .25-.029.46-.089.209-.06.363-.089.46-.089l1.486.223c.055 0 .14-.015.251-.045.11-.029.188-.045.229-.045.224 0 .571.343 1.047 1.027-.043.119-.07.207-.084.268.041.089.091.215.146.379.057.164.099.395.126.691-.377.564-.83.922-1.36 1.07-.25.09-.731.135-1.443.135-.027 0-.181-.074-.46-.224l-.251.356.042.357a8.431 8.431 0 0 0-.46.938c-.028.089-.092.313-.188.668.879.149 1.771.387 2.678.715.14-.09.223-.135.251-.135 1.27 0 2.246.447 2.929 1.339l.21 1.249c-.341.715-.675 1.102-1.01 1.161zm.328 15.627l-.313 1.074c-.517.208-.907.625-1.172 1.249a4.533 4.533 0 0 0-.544-.313c-.014.03-.028.119-.042.269-1.47-.982-2.607-1.473-3.417-1.473-.237 0-.597.052-1.077.156-.482.104-.841.156-1.077.156a.867.867 0 0 1-.23-.09c-.252-.148-.481-.178-.69-.09-.182.09-.579.224-1.192.402l-.188-.223c-.516.089-1.276.326-2.28.713-.279.148-.643.477-1.088.982-.488.564-.837.922-1.046 1.07-.07-.178-.182-.67-.336-1.473-.124-.595-.264-.951-.418-1.07.098-.951.321-1.562.67-1.829.209 0 .523-.045.941-.134.167-.06.433-.238.795-.535.195-.03.488-.119.879-.268 1.031-.417 2.204-.744 3.515-.982V57.22l-.272-.134c-.278-.06-.684-.016-1.213.134-.279.089-.565.193-.858.312-.348.119-.578.417-.69.893-.083.09-.167.135-.25.135-.279 0-.464-.23-.555-.691a27.1 27.1 0 0 1-.24-1.406c.111-.654.348-1.07.711-1.249.32-.119.638-.268.951-.446.313-.178.785-.401 1.413-.669.251-.03.613-.149 1.087-.356.015-.328.015-.715 0-1.16-1.297.029-2.328.55-3.096 1.561-.279-.119-.475-.476-.586-1.07-.027-.208-.119-.49-.272-.848v-.938c.07-.178.153-.445.252-.803-.015-.416-.032-.848-.053-1.293-.021-.447-.101-.729-.24-.848 0-.298.021-.551.063-.759.111-.269.244-.401.397-.401.057 0 .118.029.188.089l.188-.179c.055.119.313.477.774 1.07.11.149.223.343.334.58l-.21 1.16c.866-.535 1.66-.848 2.386-.937v-.356c0-.744-.091-1.398-.272-1.963.279-.982.621-1.458 1.026-1.428a4.188 4.188 0 0 1 1.171 2.364c-.237.179-.377.64-.419 1.383.307.179.712.253 1.214.224 1.004-.03 1.416-.045 1.234-.045.069-.535.104-.893.104-1.07 0-.119-.038-.343-.115-.67s-.114-.64-.114-.938c.11-.088.265-.342.462-.758l1.279 1.294c.014.03.084.237.211.624.098.238.146.461.146.67l-.042.445c-.238.209-.357.67-.357 1.384 0-.119.021.342.063 1.383-.559.833-1.146 1.249-1.762 1.249-.224 0-.555-.052-.994-.156-.439-.104-.771-.156-.994-.156a.709.709 0 0 0-.271.045l-.042.179.146 1.071c.864.148 1.604.223 2.218.223.979 0 1.47.717 1.47 2.15 0 .181-.021.42-.063.718a38.59 38.59 0 0 1-1.219.493c-.418 0-.689-.03-.815-.09-.069 0-.185-.045-.345-.134s-.29-.134-.388-.134c-.069 0-.39.029-.962.09l-.23.996.021.133c.558-.118.878-.178.962-.178.181 0 .419.045.711.134.392.149.636.224.732.224 1.314.27 2.141.402 2.476.402.069 0 .182-.029.335-.089s.265-.089.335-.089c.125 0 .32.074.586.223a.836.836 0 0 0 .647.09c-.031.567-.044 1.21-.044 1.927zm-6.898-22.051l-.062-.045c-1.507 0-2.561.148-3.16.445a88.753 88.753 0 0 1-.104 2.275l3.515-.312a44.27 44.27 0 0 1 .146-2.187l-.335-.176zM148.551 44.043l-1.381.357c-.028.06-.042.208-.042.445 0-.029.021.269.063.893l1.298 1.295c.181.207.348.416.501.624l.021 2.187c-.236.119-.559.416-.962.892l-.879-.446-.104.67.063.401c.042.237.063.416.063.535 0 .298-.042 1.397-.125 3.302.014.951 0 2.379-.042 4.283-.069.803-.168 2.23-.293 4.283-.167-.477-.3-.804-.397-.982-.39-.743-.586-1.397-.586-1.963 0-.208.021-.416.063-.625l-.126-2.319c-.027-.506-.021-1.294.021-2.364.042-1.339.063-2.156.063-2.454v-1.472a7.695 7.695 0 0 0-.993 1.605c-.258.564-.52 1.145-.784 1.74-.321.654-.621 1.16-.9 1.517-.46.595-.83.892-1.108.892-.083 0-.353-.148-.806-.445s-.7-.49-.743-.58l-.062-.446c.111-1.22.474-2.038 1.088-2.454l.501-.401c.643-.624 1.304-1.606 1.987-2.944.489-.981 1.013-2.572 1.57-4.773-.224-.061-.44-.016-.648.133-.586.357-1.2.967-1.842 1.83a31.027 31.027 0 0 1-.617-.982 2.626 2.626 0 0 1-.408-1.383c0-.178.015-.356.043-.535.041-1.13.341-1.829.898-2.097.279-.119.697-.327 1.256-.624.251-.18.621-.402 1.108-.67h.481l.188-.178-.104-.982c-.099-.922.209-1.561.921-1.918.376.445.711 1.323 1.004 2.633l-.105.223c.837.268 1.34.996 1.507 2.186l-.651 1.111zm.418-7.271l-1.046-.179c.015 0-.308.134-.962.401-.098.06-.537.297-1.318.714-.529.298-.983.446-1.359.446l-.857-.313a11.28 11.28 0 0 1-.126-.669c0-.893.313-1.591.94-2.097.475-.328.956-.64 1.444-.938.14-.119.335-.476.586-1.07.223-.506.432-.759.627-.759.53 0 1.005.282 1.424.848.474.654.773 1.517.898 2.588l-.251 1.028zm.46 25.073c-.501.565-1.15.952-1.944 1.159l-.336-1.561c.14-1.25.551-2.23 1.234-2.945.613-.624 1.235-1.248 1.862-1.873.697-.952 1.144-2.335 1.34-4.149-.112-.624-.168-.997-.168-1.115 0-.387.09-.817.273-1.294l.189-.09c.153.03.345.268.569.715 0 2.082-.295 4.238-.883 6.469s-1.299 3.792-2.136 4.684zm11.074-1.071c-.376 1.22-1.053 1.919-2.029 2.098-.795.119-1.582.223-2.364.313-.516-.328-.913-.641-1.192-.938-.784-.773-1.274-2.23-1.471-4.372-.07-.804-.105-2.677-.105-5.622 0-.922-.014-1.947-.041-3.078l-.167-.178c-.405 0-.894.163-1.466.49-.487.297-.969.58-1.442.848-.335-.625-.475-1.487-.419-2.59l.251-4.87-.355-.535c.042-.238.104-.775.188-1.61.069-.713.181-1.204.335-1.473l.585.224a6.142 6.142 0 0 1 3.037-.805c1.216 0 1.726-.015 1.531-.045.6.06 1.095.238 1.484.538.252-.209.629-.449 1.13-.717l.565.313.23 1.742c-.195.24-.307.656-.335 1.253v1.517c0 .508-.077 1.291-.23 2.346-.153 1.059-.217 1.871-.188 2.436-.224.835-.475 1.252-.754 1.252-.126 0-.436-.098-.931-.291s-.854-.289-1.077-.289a.575.575 0 0 0-.23.044 34.695 34.695 0 0 0-.376 5.175c0 1.785.174 2.886.522 3.303.376.505.781.758 1.213.758.35 0 .879-.09 1.59-.268.711-.179 1.241-.268 1.591-.268.362 0 .725.074 1.087.223.098.416.146.818.146 1.205 0 .623-.103 1.247-.313 1.871zm-8.793-23.557c-.14-.089-.419-.4-.837-.937-.307-.387-.571-.521-.795-.401l.23-1.74-.105-.535.252-1.07c.836.237 1.555 1.234 2.154 2.988-.139.773-.439 1.339-.899 1.695zm5.544 5.881c-.223-.508-.481-.837-.774-.986-.139-.059-.432-.105-.879-.135-.056 0-.149-.016-.282-.045s-.227-.045-.283-.045c-1.478 0-2.739.344-3.786 1.031-.167.538-.25 1.226-.25 2.063 0 .178.007.387.021.625h.063c.822-.417 2.078-.625 3.766-.625.14 0 .349.037.627.111.279.074.489.111.628.111.069 0 .453-.074 1.151-.223l.063-.225-.065-1.657zm.084-6.639l-1.047.357c-.433.178-.746.461-.94.848l-.294-.268-.565.268c.14-1.012.405-1.859.796-2.543.265-.417.628-1.146 1.088-2.188.14-.416.384-.624.732-.624.084.298.178.506.282.624.104.119.213.238.323.357.252.357.377 1.294.377 2.811-.208.149-.46.269-.752.358z"/><path d="M80.709 35.43c-.308 1.011-.44 2.2-.397 3.568l.647 16.418c-.027.18-.059.707-.094 1.584-.034.878-.08 1.525-.136 1.941l.188.893c-.334.922-.788 1.441-1.36 1.561-1.185-.654-2.907-1.145-5.167-1.473-1.381-.178-2.036-.268-1.967-.268-2.663 0-4.86.387-6.589 1.16-.629.298-1.235.818-1.82 1.563-.153-.209-.251-.685-.293-1.428-.015-.18-.063-.313-.147-.402.028-3.242.161-7.033.397-11.377.21-3.717.426-7.436.649-11.153-.182-.327-.328-.817-.439-1.472-.182-1.071-.279-1.621-.293-1.651.251-1.427.474-2.142.669-2.142.07 0 .147.045.23.135l.648.223.376.713c2.608-.742 4.722-1.115 6.34-1.115h2.678c1.199 0 2.489.328 3.87.982.265-.238.648-.64 1.15-1.205.098.179.283.335.555.469.272.134.506.514.7 1.138-.082.267-.213.713-.395 1.338zm-1.652 8.61c-.07-2.914-.105-5.13-.105-6.646-1.479-.922-3.954-1.383-7.427-1.383-.46 0-1.331.118-2.615.356-1.38.268-2.165.483-2.354.647a1.004 1.004 0 0 0-.345.602c-.084.416-.266 2.915-.545 7.495-.223 2.736-.487 6.886-.794 12.448 2.761-1.041 5.021-1.563 6.778-1.563.153 0 .38.053.68.156.299.104.512.156.638.156l2.72.09c.098 0 .237-.03.419-.09.181-.059.32-.089.418-.089.237 0 1.227.282 2.971.848l.042-.313c-.168-2.318-.328-6.556-.481-12.714zm-7.588-4.015l-.042-.446-.606-.445c.07-.477.194-1.071.377-1.785.125-.268.405-.402.84-.402.28 0 .762.373 1.447 1.116.027.208.041.401.041.58 0 .208-.027.64-.083 1.294l.251.178.962-.133c.404-.061 1.27.163 2.595.668.153.119.397.238.732.357h.292c.321 0 .517.223.586.67-.223.803-.564 1.353-1.024 1.65l-1.297.535a3.319 3.319 0 0 0-1.527-.535c-.768-.09-1.263-.179-1.486-.268l-.46.223c-.153.327-.23 1.012-.23 2.053.447.059 1.145.133 2.093.223.069 0 .175.029.314.09.139.059.25.088.334.088.363 0 .677-.223.941-.668a8.527 8.527 0 0 1 1.485 2.052c-.153.327-.328.729-.522 1.204-.015.061-.021.551-.021 1.473 0 .327-.015.885-.042 1.674a57.583 57.583 0 0 0-.041 1.852c-.07.029-.279.431-.629 1.204l-.25-.224c-.321.119-.503.179-.544.179-.111 0-.266-.06-.461-.179s-.349-.178-.46-.178c-.069 0-.167.029-.293.089s-.217.089-.272.089c-.669 0-1.668.03-2.998.09-1.046.089-1.666.208-1.862.356-.027 0-.293.269-.794.804-.112.119-.314.207-.607.268-.14.059-.251.178-.335.356l-.648-1.428-.083-.892c.027-.328.062-.662.104-1.004.042-.342.118-.588.229-.736l.104-1.695c0-.238-.052-.662-.157-1.271-.104-.609-.156-1.078-.156-1.406 0-.564.098-.967.293-1.204.014 0 .216-.148.606-.446l.544.402c.851-.625 1.743-.952 2.678-.982 0-.922-.041-1.621-.125-2.097a.351.351 0 0 0-.168-.044c-.292 0-.833.133-1.621.4s-1.35.506-1.685.715c-.11.059-.289.26-.533.602s-.387.603-.428.781c-.489-.596-.733-1.518-.733-2.766 0-.477.077-.818.23-1.027.153-.207.656-.445 1.507-.713.361-.179.898-.402 1.61-.67.445-.091 1.121-.315 2.028-.671zm4.281 8.745c-.6-.387-1.381-.58-2.343-.58-.209 0-.529.014-.962.044s-.754.045-.963.045c-.125 0-.313.022-.564.067a3.595 3.595 0 0 1-.564.066c-.656 0-1.074.252-1.256.758-.125.387-.181 1.26-.167 2.617.097.03.174.045.229.045.266 0 .652-.131 1.161-.394.51-.263.896-.394 1.161-.394-.056 0 .935.053 2.971.163a.762.762 0 0 0 .24-.06.791.791 0 0 1 .22-.06c.028 0 .189.054.482.163l.438.224.083-.134-.166-2.57zM98.545 62.793c-.906-1.487-2.105-2.752-3.599-3.793-1.366-.951-2.663-1.516-3.892-1.695-.403 0-1.011-.104-1.819-.313-.098-.059-.167-.088-.209-.088-.153 0-.38.021-.68.066s-.527.066-.681.066c-.446 0-1.028.528-1.747 1.584-.718 1.057-1.195 1.6-1.432 1.629-.126.178-.283.26-.472.245s-.311.022-.365.112c-.237.118-.572.178-1.004.178h-.523a2.027 2.027 0 0 1-.126-.758v-1.384c0-.298.104-.685.313-1.159.32-.744.796-1.295 1.423-1.651l1.591-.848c.278-.417.711-1.011 1.297-1.784.292-.328.578-.654.857-.982.237-.326.418-.922.544-1.782l-.439-1.382.042-1.023c.084-.09.341-.504.774-1.246.097-.178.223-.356.376-.535.07.209.3.49.69.848.349.355.585.918.711 1.691-.042.385-.126.697-.251.934-.182.297-.293.506-.335.625a13.11 13.11 0 0 0-.648 2.854c.14.089.635.223 1.485.4a.74.74 0 0 0 .503-.088l.021-9.223-.146-.4c-.377 0-1.032.254-1.967.759l-.962.268c-.363.149-.635.521-.816 1.116h-.125c-.195.029-.446-.269-.753-.893a22.28 22.28 0 0 1-.043-1.071c-.014-.446-.083-.759-.209-.937.153-1.695.552-2.543 1.192-2.543.196.535.321.803.377.803-.111 0 .258-.119 1.108-.357 1.325-.356 2.748-.535 4.268-.535 2.623 0 4.219.238 4.791.713.294.237.461.801.503 1.691-.153.416-.342.654-.565.713-.111.03-.3.119-.564.267-.865-.087-2.169-.043-3.912.134-.405.86-.606 1.648-.606 2.359 0 .148.007.356.021.624v.667c.07.061.16.09.271.09.14 0 .353-.035.639-.107.286-.073.478-.123.575-.152 1.032-.145 2.28-.217 3.744-.217.126 0 .35.061.67.18.279.09.503.12.67.09.041.387.063.672.063.85 0 .926-.252 1.688-.753 2.285-.167.208-.6.551-1.297 1.027-.237-.237-.551-.356-.941-.356-.503-.035-.823-.087-.963-.156-.181-.095-.286-.142-.313-.142-.196 0-.478.016-.848.045-.369.029-.646.045-.826.045-.35 0-.6.178-.753.535-.015.148-.042.477-.084.981a9.617 9.617 0 0 0-.063.981v.179c.655.179 2.238.878 4.748 2.097.322.209.796.432 1.423.67.587 0 1.458.059 2.615.178l.544.491.209 1.472c-.851 1.396-1.961 2.75-3.327 4.058zm2.196-21.266l-.48 1.026-.209.089c-.404-.446-.705-1.278-.9-2.498-.069-.506-.208-1.19-.418-2.052-.181.416-.237.892-.167 1.428-.126.059-.32.162-.586.312-.21.149-.377.224-.502.224-.642-.596-1.66-1.086-3.055-1.473-1.199-.327-2.26-.461-3.18-.402-.111-.088-.21-.133-.293-.133-.182 0-.418.045-.711.133a6.538 6.538 0 0 1-.733.269c-.474.06-1.171.282-2.091.669-.182.148-.464.35-.848.603s-.624.424-.723.513c-.194.238-.361.609-.501 1.115l-.461 1.874c-.223.804-.46 1.204-.712 1.204-.403 0-.682-.668-.836-2.007.182-1.101.369-2.767.564-4.997.028-1.309.23-2.022.607-2.142l.564.848h.083c.057 0 .196-.104.419-.312.07-.03.146-.075.23-.135.098.179.21.328.334.446.153.03.35-.015.587-.134a9.66 9.66 0 0 0 .564-.313 181.47 181.47 0 0 1 3.347-.893 37.105 37.105 0 0 1-.125-1.293l.063-.179a3.61 3.61 0 0 1 .565-1.919c.139.18.327.313.564.402.293.119.48.208.564.268.475.327.81 1.219 1.005 2.677 2.092.417 3.752 1.056 4.979 1.919.194-1.221.487-2.068.878-2.543.209.416.397.684.565.803l.376.133c.266.18.446 1.079.544 2.699.098 1.621.147 2.373.147 2.254v.713c-.011.358-.018.625-.018.804zM104.331 43.133c-.097.148-.362.476-.794.981-.308.446-.747.952-1.318 1.517l-.461-.49-.021-1.115c0-.061.069-.535.209-1.428l-.104-.759c.277-.654.661-1.13 1.15-1.428.446-.268 1.06-.817 1.841-1.651.878-.951 1.498-1.561 1.861-1.828l.126.044c.14.149.208.356.208.625 0 .535-.39 1.532-1.171 2.989-.626 1.16-1.135 2.008-1.526 2.543zm3.034-8.031c-.823.893-1.381 1.398-1.674 1.518a3.678 3.678 0 0 0-.711.356c-.196-.06-.537.075-1.025.401l-.67-.268-.042-.58c0-.178.021-.469.063-.869.041-.402.055-.707.041-.915.196-.981.517-1.472.963-1.472.027 0 .244.133.648.4l1.842-.713.711.445.23.535c-.096.627-.222 1.014-.376 1.162zm11.36 9.756c-.362 0-.708-.201-1.035-.602a99.098 99.098 0 0 1-.951-1.183c-.21-.238-.849-.751-1.916-1.54-1.066-.787-1.669-1.182-1.809-1.182-.279 0-.773.58-1.486 1.74-.124.208-.718.848-1.777 1.918 1.018.06 1.903.09 2.657.09 1.381 0 2.454.208 3.222.624l.92-.624.754.98c.014.18.021.313.021.402 0 .297-.077.699-.23 1.205-.153.505-.23.861-.23 1.07.237 4.996.356 7.555.356 7.674 0 .981-.172 1.791-.513 2.432-.342.639-.75.959-1.224.959-.098 0-.251-.022-.461-.066a2.484 2.484 0 0 0-.48-.068c-.224 0-.391.075-.503.224a14.6 14.6 0 0 1 .69 3.347c-.167.535-.369.803-.606.803a70.585 70.585 0 0 1-1.443-2.008c-.601-.803-1.004-1.621-1.214-2.453l-2.363-.135a4.85 4.85 0 0 1-.439 1.294c-.335.655-.51.997-.523 1.026-.209.535-.411 1.07-.606 1.605-.251.536-.537.804-.857.804-.112 0-.217-.074-.313-.224a5.804 5.804 0 0 1-.084-.892c0-.446.132-1.011.397-1.695.265-.685.397-1.19.397-1.517-.391.029-.774.059-1.15.089-.461.118-.803.431-1.025.937-.349 0-.559-.476-.628-1.428l.104-.713c0-.03.008-.075.021-.135 0-.268-.014-.676-.043-1.227a27.796 27.796 0 0 1-.041-1.227c0-.715.073-1.74.22-3.078.146-1.34.22-2.351.22-3.035-.195-.326-.293-.892-.293-1.695 0-.059.077-.505.23-1.338.78-.416 1.959-.996 3.535-1.74l-.063-.268c.029-1.13.287-1.947.774-2.453.475-.328.942-.654 1.402-.982.516-.356 1.115-1.323 1.799-2.899l-.146-.759c-.042-.059-.077-.089-.104-.089-.084 0-.224.074-.419.224-.278.118-.697.475-1.255 1.07-.041.059-.16.268-.355.625-.362.624-.906 1.322-1.632 2.096-.084.09-.35.209-.795.357a1.213 1.213 0 0 0-.335.223 5.67 5.67 0 0 1-.084-.803c0-1.1.237-1.963.712-2.588.418-.506.844-1.011 1.275-1.517.601-.981 1.005-1.845 1.214-2.587l-.272-1.116.105-1.115c.251-.654.593-.981 1.024-.981.865 0 1.43.342 1.694 1.025-.041.417-.194.893-.46 1.428-.167.357-.258.67-.271.938l.041.045 2.448-.446c.069 0 1.103.253 3.097.759.418-.625.69-.952.816-.982.027.03.334.283.92.759.125.089.265.253.418.491a21.012 21.012 0 0 1-.731 2.008c-.112.416-.3 1.025-.565 1.828-.14.268-.341.685-.606 1.25.335.238.844.401 1.526.49.084 0 .213.045.388.135.175.089.31.133.408.133.084 0 .198-.044.345-.133.146-.09.262-.135.346-.135.098 0 .224.104.377.313-.196 1.07-.549 1.911-1.057 2.521a99.172 99.172 0 0 1-1.48 1.717zm-3.117 4.153c0-.06.034-.372.104-.938l-.126-.313c-1.255-.479-2.642-.716-4.162-.716-.196 0-.496.022-.9.067a9.235 9.235 0 0 1-.92.066c-1.674 0-2.741.253-3.201.758-.167.18-.265.521-.293 1.027l.021.133c2.078-.713 4.31-1.07 6.694-1.07.167 0 .572.082 1.213.245.643.163 1.012.275 1.109.335.195.178.342.551.438 1.115-.361.863-.878 1.294-1.548 1.294a5.68 5.68 0 0 1-.731-.067 5.667 5.667 0 0 0-.732-.066c-.363 0-.948.059-1.758.178-.307 0-.76.045-1.359.135-.278.089-.662.17-1.15.245-.488.074-1.277.2-2.364.379a2.018 2.018 0 0 0-.125.669c0 .09.007.164.021.224 1.813-.595 3.961-.893 6.443-.893.112 0 .282.022.513.067s.4.066.513.066c.153 0 .384-.029.69-.089s.53-.089.669-.089c.488 0 .852.554 1.089 1.66-.266.628-.587.986-.963 1.076h-1.108l-5.648.045c-1.074 0-1.863.326-2.364.98-.084.119-.126.328-.126.625v.223l.167.224c1.283-.714 2.971-1.071 5.063-1.071.571 0 2.259.03 5.063.09l.063-.223-.295-6.391zm-.482-12.346c-.167 0-.32.029-.46.088l-.607 1.205c.754.596 1.681 1.07 2.783 1.428.125-.445.265-1.086.418-1.918-.878-.536-1.59-.803-2.134-.803zM125.905 49.573a116.51 116.51 0 0 1-.544 3.212c-.307 1.517-.938 3.242-1.893 5.175-.956 1.934-1.796 3.123-2.521 3.57l-.21-.045c-.083.089-.167.134-.252.134-.167 0-.508-.401-1.024-1.204v-1.384c0-.06.028-.253.084-.58l-.125-.624c1.617-1.16 2.823-2.336 3.619-3.525 1.157-1.754 1.82-3.971 1.987-6.647l-.21-.491c.153-.98.384-1.472.69-1.472.461 0 .823.224 1.088.669-.249.832-.479 1.903-.689 3.212zm12.595-5.369c-.125.209-.3.372-.523.49-.265.119-.445.238-.544.357-2.565-.862-4.645-1.293-6.233-1.293-3.558 0-6.318.966-8.285 2.899a6.256 6.256 0 0 1-.564-1.472 103.32 103.32 0 0 1-.313-1.74c.153-.09.264-.298.334-.625l.083-.045c.029-.059.084-.193.168-.401.015-.06.042-.134.084-.224 2.287-.535 3.905-1.041 4.854-1.516 0-.298-.05-.67-.146-1.115-.125-.566-.195-.938-.21-1.116a1.712 1.712 0 0 0-.544-.089c-.446 0-.92.193-1.422.58l-.293.848a.65.65 0 0 1-.188.045c-.391 0-.642-.402-.753-1.205-.028-.357-.118-.803-.271-1.338v-1.16c.041-.268.117-.447.229-.535l.335-.269c.042-.06.09-.193.146-.401l.69.313c.419-.179 1.848-.432 4.288-.759.015-.298.035-.617.063-.959.028-.343.104-.573.229-.692l-.104-.445.335-1.338h.229c.251 0 .521.186.807.557.286.372.491.811.617 1.316a8.052 8.052 0 0 1-.189.803 1.72 1.72 0 0 0-.104.447l.147.088c0 .03.007.045.021.045h1.967c.097 0 .25-.029.46-.089.209-.06.363-.089.46-.089l1.485.223c.056 0 .14-.015.252-.045.11-.029.188-.045.229-.045.224 0 .571.343 1.046 1.027-.042.119-.07.207-.084.268a3.047 3.047 0 0 1 .272 1.07c-.377.564-.83.922-1.36 1.07-.25.09-.731.135-1.443.135-.027 0-.181-.074-.46-.224l-.251.356.041.357a8.803 8.803 0 0 0-.46.938c-.027.089-.091.313-.188.668.878.149 1.771.387 2.678.715.14-.09.223-.135.251-.135 1.27 0 2.246.447 2.929 1.339l.209 1.249c-.337.715-.671 1.102-1.006 1.161zm.327 15.627l-.313 1.074c-.516.208-.906.625-1.171 1.249a4.614 4.614 0 0 0-.544-.313c-.014.03-.029.119-.043.269-1.469-.982-2.607-1.473-3.416-1.473-.237 0-.597.052-1.077.156-.482.104-.841.156-1.077.156a.88.88 0 0 1-.231-.09c-.251-.148-.48-.178-.69-.09-.181.09-.578.224-1.191.402l-.189-.223c-.515.089-1.275.326-2.279.713-.279.148-.643.477-1.089.982-.487.564-.837.922-1.045 1.07-.07-.178-.182-.67-.336-1.473-.124-.595-.264-.951-.418-1.07.098-.951.321-1.562.669-1.829.21 0 .523-.045.942-.134.167-.06.433-.238.795-.535.195-.03.488-.119.879-.268 1.031-.417 2.204-.744 3.515-.982V56.22l-.272-.134c-.278-.06-.684-.016-1.214.134-.278.089-.564.193-.857.312-.348.119-.578.417-.69.893-.083.09-.167.135-.25.135-.279 0-.464-.23-.556-.691a28.21 28.21 0 0 1-.24-1.406c.112-.654.349-1.07.712-1.249.32-.119.638-.268.951-.446.313-.178.784-.401 1.413-.669.251-.03.613-.149 1.087-.356.015-.328.015-.715 0-1.16-1.297.029-2.329.55-3.097 1.561-.278-.119-.474-.476-.585-1.07-.028-.208-.119-.49-.272-.848v-.938c.07-.178.153-.445.251-.803a95.733 95.733 0 0 0-.052-1.293c-.021-.447-.102-.729-.24-.848 0-.298.021-.551.062-.759.112-.269.245-.401.398-.401.056 0 .118.029.188.089l.188-.179c.056.119.314.477.775 1.07.11.149.223.343.334.58l-.21 1.16c.866-.535 1.66-.848 2.385-.937v-.356c0-.744-.09-1.398-.271-1.963.278-.982.621-1.458 1.025-1.428a4.183 4.183 0 0 1 1.172 2.364c-.237.179-.377.64-.419 1.383.307.179.711.253 1.214.224 1.004-.03 1.416-.045 1.234-.045.069-.535.104-.893.104-1.07 0-.119-.038-.343-.115-.67s-.114-.64-.114-.938c.11-.088.265-.342.462-.758l1.278 1.294c.015.03.084.237.212.624.097.238.146.461.146.67l-.043.445c-.238.209-.356.67-.356 1.384 0-.119.021.342.063 1.383-.56.833-1.146 1.249-1.762 1.249-.224 0-.556-.052-.995-.156-.438-.104-.771-.156-.994-.156a.716.716 0 0 0-.271.045l-.043.179.146 1.071c.865.148 1.604.223 2.218.223.98 0 1.471.717 1.471 2.15 0 .181-.021.42-.063.718-.799.329-1.204.493-1.219.493-.419 0-.689-.03-.815-.09-.07 0-.185-.045-.345-.134-.161-.089-.29-.134-.388-.134-.069 0-.391.029-.962.09l-.23.996.021.133c.559-.118.879-.178.963-.178.181 0 .418.045.711.134.391.149.635.224.732.224 1.314.27 2.141.402 2.476.402.069 0 .181-.029.334-.089s.266-.089.336-.089c.124 0 .32.074.585.223a.839.839 0 0 0 .648.09 35.71 35.71 0 0 0-.046 1.927zm-6.896-22.051l-.063-.045c-1.506 0-2.56.148-3.159.445a93.694 93.694 0 0 1-.104 2.275l3.515-.312a44.27 44.27 0 0 1 .146-2.187l-.335-.176z"/><path fill="#FCC800" d="M147.537 43.043l-1.381.357c-.027.06-.041.208-.041.445 0-.029.021.269.063.893l1.298 1.295c.181.207.348.416.501.624l.021 2.187c-.236.119-.558.416-.961.892l-.88-.446-.104.67.063.401c.041.237.063.416.063.535 0 .298-.042 1.397-.125 3.302.014.951 0 2.379-.043 4.283-.068.803-.167 2.23-.292 4.283-.168-.477-.3-.804-.398-.982-.39-.743-.585-1.397-.585-1.963 0-.208.021-.416.063-.625l-.126-2.319c-.027-.506-.021-1.294.021-2.364.042-1.339.063-2.156.063-2.454v-1.472a7.653 7.653 0 0 0-.993 1.605c-.258.564-.52 1.145-.784 1.74-.321.654-.621 1.16-.9 1.517-.46.595-.83.892-1.109.892-.083 0-.352-.148-.805-.445s-.7-.49-.743-.58l-.063-.446c.112-1.22.475-2.038 1.089-2.454l.501-.401c.643-.624 1.304-1.606 1.987-2.944.489-.981 1.012-2.572 1.57-4.773-.224-.061-.44-.016-.649.133-.585.357-1.199.967-1.841 1.83-.14-.209-.345-.535-.617-.982a2.617 2.617 0 0 1-.408-1.383c0-.178.015-.356.042-.535.042-1.13.342-1.829.899-2.097.279-.119.697-.327 1.255-.624.252-.18.622-.402 1.109-.67h.48l.189-.178-.105-.982c-.098-.922.21-1.561.921-1.918.376.445.712 1.323 1.005 2.633l-.105.223c.837.268 1.34.996 1.507 2.186l-.652 1.111zm.419-7.271l-1.046-.179c.014 0-.308.134-.962.401-.099.06-.537.297-1.319.714-.529.298-.982.446-1.358.446l-.858-.313a10.723 10.723 0 0 1-.125-.669c0-.893.313-1.591.94-2.097.475-.328.956-.64 1.444-.938.14-.119.334-.476.586-1.07.223-.506.432-.759.627-.759.53 0 1.005.282 1.423.848.475.654.774 1.517.899 2.588l-.251 1.028zm.46 25.073c-.502.565-1.15.952-1.945 1.159l-.335-1.561c.14-1.25.551-2.23 1.234-2.945.613-.624 1.234-1.248 1.862-1.873.697-.952 1.143-2.335 1.34-4.149-.112-.624-.168-.997-.168-1.115 0-.387.09-.817.272-1.294l.19-.09c.153.03.344.268.568.715 0 2.082-.295 4.238-.882 6.469-.586 2.23-1.299 3.792-2.136 4.684zm11.074-1.071c-.376 1.22-1.053 1.919-2.029 2.098-.795.119-1.582.223-2.364.313-.517-.328-.914-.641-1.192-.938-.785-.773-1.274-2.23-1.472-4.372-.069-.804-.104-2.677-.104-5.622 0-.922-.014-1.947-.041-3.078l-.168-.178c-.404 0-.893.163-1.465.49-.487.297-.969.58-1.443.848-.334-.625-.474-1.487-.418-2.59l.251-4.87-.356-.535c.043-.238.105-.775.189-1.61.069-.713.181-1.204.334-1.473l.586.224a6.142 6.142 0 0 1 3.037-.805c1.216 0 1.726-.015 1.531-.045.6.06 1.095.238 1.484.538.251-.209.628-.449 1.13-.717l.564.313.23 1.742c-.194.24-.307.656-.334 1.253v1.517c0 .508-.077 1.291-.23 2.346-.153 1.059-.217 1.871-.188 2.436-.223.835-.475 1.252-.753 1.252-.126 0-.436-.098-.932-.291-.494-.193-.854-.289-1.077-.289a.575.575 0 0 0-.23.044 34.829 34.829 0 0 0-.376 5.175c0 1.785.175 2.886.522 3.303.377.505.781.758 1.214.758.35 0 .879-.09 1.59-.268.711-.179 1.241-.268 1.591-.268.361 0 .725.074 1.087.223.098.416.146.818.146 1.205 0 .623-.105 1.247-.314 1.871zm-8.793-23.557c-.14-.089-.419-.4-.837-.937-.307-.387-.572-.521-.796-.401l.23-1.74-.104-.535.251-1.07c.837.237 1.556 1.234 2.154 2.988-.138.773-.438 1.339-.898 1.695zm5.543 5.881c-.223-.508-.48-.837-.773-.986-.14-.059-.433-.105-.879-.135-.056 0-.149-.016-.282-.045s-.227-.045-.283-.045c-1.478 0-2.74.344-3.786 1.031-.168.538-.251 1.226-.251 2.063 0 .178.007.387.021.625h.062c.823-.417 2.079-.625 3.767-.625.14 0 .348.037.627.111s.488.111.628.111c.069 0 .453-.074 1.15-.223l.063-.225-.064-1.657zm.084-6.639l-1.046.357c-.433.178-.746.461-.941.848l-.294-.268-.564.268c.14-1.012.404-1.859.795-2.543.266-.417.629-1.146 1.089-2.188.14-.416.384-.624.731-.624.084.298.179.506.283.624.104.119.213.238.323.357.252.357.377 1.294.377 2.811a2.58 2.58 0 0 1-.753.358z"/><linearGradient id="g" gradientUnits="userSpaceOnUse" x1="84.542" y1="45.749" x2="139.849" y2="101.056"><stop offset="0" stop-color="#ead18f"/><stop offset=".076" stop-color="#e1c477"/><stop offset=".221" stop-color="#d1af4e"/><stop offset=".335" stop-color="#c8a235"/><stop offset=".405" stop-color="#c49d2c"/><stop offset=".559" stop-color="#d4b35c"/><stop offset=".766" stop-color="#e7cd97"/><stop offset=".919" stop-color="#f3debb"/><stop offset="1" stop-color="#f8e4c9"/></linearGradient><path opacity=".8" fill="url(#g)" d="M63.389 66.902h97.613v13H63.389z"/><path fill="#ABABAB" d="M73.612 94.845c-.475.58-.959.939-1.45 1.07-.222.053-.563.156-1.022.314-.224.133-.563.279-1.024.438-.57.078-.966.143-1.188.197a3.755 3.755 0 0 0-1.167.475c-.127-.264-.229-.672-.309-1.229-.063-.367-.166-.617-.309-.75a5.393 5.393 0 0 1-.024-.473c0-.557.107-1.068.321-1.545.213-.475.486-.713.82-.713.968.053 2.268.053 3.901 0 .665-.025 1.116.029 1.355.16.43.209.762.711.999 1.504-.33.052-.633.237-.903.552zm8.541 2.177c-4.347 7.227-8.564 11.775-12.655 13.649l-1.286-1.464a5.135 5.135 0 0 1-.071-.793c0-.525.247-1.502.737-2.93.715-.34 1.437-.684 2.165-1.025a16.708 16.708 0 0 0 2.116-1.266c1.318-1.004 3.253-3.164 5.805-6.49.303-.393 1.112-1.646 2.428-3.756.968-1.559 1.84-2.664 2.615-3.324l.572.277c-.129 2.269-.935 4.642-2.426 7.122zm-6.21-9.425c-.301.553-.546.803-.736.752l-4.067-.91c-.063 0-.184.059-.358.178s-.309.176-.403.176l-.192-.039-.379-1.936c-.063-.236-.032-.58.095-1.027.253-.919.816-1.382 1.689-1.382.206 0 .451.107.738.316.38.238.625.369.737.396.412.129 1.068.379 1.973.748.92.449 1.508 1.135 1.761 2.057-.318-.001-.603.221-.858.671zM108.771 108.497l-1.046.91c-1.284-.688-2.655-2.084-4.115-4.197a1112.302 1112.302 0 0 1-3.593-5.457c-.237.264-1.546 1.977-3.926 5.143-1.537 2.031-2.979 3.426-4.328 4.191-.063-.156-.198-.289-.403-.395a18.93 18.93 0 0 1-1.095-.514c-.492-.213-.817-.434-.976-.672-.049-.08-.166-.555-.357-1.426.222-.738.65-1.227 1.283-1.461a22.497 22.497 0 0 0 1.595-.457c.524-.17 1.261-.783 2.212-1.84 2.094-2.27 3.625-4.234 4.592-5.895.73-1.24 1.896-3.693 3.498-7.357l-.405-.16c-.572.133-1.261.238-2.069.316-.744.131-1.855.344-3.332.635l-1.402.234a2.3 2.3 0 0 0-1.261.953l-.355-.277c0-1.504-.04-2.453-.121-2.85.034-.818.311-1.439.833-1.859.145-.105.627-.355 1.452-.75.253.633.443.932.571.91l5.779-.99.237-.041c.255 0 .524.105.81.316.031-.027.261-.383.69-1.068.269-.42.522-.633.762-.633.095 0 .205.027.332.082.095.314.376.646.845.986.467.344.812.764 1.035 1.268-.999 1.662-1.65 2.859-1.951 3.598a92.82 92.82 0 0 1-1.142 3.049c-.126.287-.508.988-1.142 2.098-.508.896-.824 1.633-.951 2.213a205.597 205.597 0 0 1 2.639 3.207c.937 1.053 1.959 1.764 3.069 2.135 1.001.211 2.498.672 4.494 1.385-.253.793-.724 1.613-1.414 2.471-.689.859-1.138 1.592-1.344 2.199zM133.914 96.667c-.208.053-.479.305-.821.752-.34.451-.652.674-.939.674-.172 0-.585-.17-1.236-.514-.76-.422-1.223-.66-1.379-.713-.303.025-.746-.014-1.331-.117l-.43.154-.81-.352c-.174.289-.348 1.107-.522 2.449l-.286 1.82c-.127.686-.275 1.252-.451 1.701a16.887 16.887 0 0 1-2.069 3.676c-.92 1.238-1.809 2.059-2.665 2.455-1.458.711-2.528 1.067-3.211 1.067-.237 0-.896-.092-1.975-.28l-.332-1.225c.045-1.582.461-2.584 1.236-3.008.318-.158 1.086-.236 2.309-.236.507 0 1.063-.117 1.664-.355.762-.316 1.585-1.043 2.473-2.178.999-1.291 1.5-2.48 1.5-3.561 0-.08-.008-.199-.026-.355l-.045-.318c-.332-.42-.58-1.029-.738-1.82l-.332-.277c-.475-.027-1.182-.012-2.117.041-.35.051-1.157.287-2.428.711-1.315.449-2.085.768-2.307.949-.222.186-.411.516-.571.99l-.403.238-.549-.08-.215-1.305c.142-1.027.271-1.77.384-2.217.189-.818.45-1.424.783-1.82a272.57 272.57 0 0 1 5.496-1.107c.664-.107 1.634-.158 2.902-.158 1.283 0 3.956.289 8.017.871.031 0 .079-.029.142-.08l.237-.078.238.078c.047.027.103.051.168.08l1.165-.158.619.434c-.097.475-.289 1.039-.573 1.686-.287.646-.477 1.142-.572 1.486zm-2.902-9.971c-.077 1.109-.696 1.662-1.854 1.662-.285 0-.698-.039-1.236-.119-.542-.078-.946-.119-1.215-.119-.127 0-.293-.025-.501-.078a3.85 3.85 0 0 1-.498-.119 10.488 10.488 0 0 0-1.595-.117c-.237 0-.951.09-2.139.275-1.191.184-1.834.316-1.927.396-.016 0-.109.119-.275.355-.166.238-.305.346-.417.316l-.499-.197-.401-1.504c.091-1.396.457-2.229 1.092-2.492.254 0 .633-.068 1.142-.197 1.238-.554 2.681-.779 4.329-.673 1.984.131 3.005.199 3.068.199 1.144.209 2.127.685 2.952 1.423 0 .239-.011.567-.026.989zM156.656 108.329c-.222 0-.517-.08-.881-.236-.411-.16-.698-.266-.854-.318-.366-.053-1.636-.197-3.807-.436-1.46-.156-2.277-.236-2.451-.236-3.425 0-6.271 1.055-8.541 3.165-.601-.87-.903-2.294-.903-4.272 0-.264.136-.582.407-.949.425-.213.758-.305.997-.279.556-.473 1.076-1.387 1.57-2.732.378-1.107.76-2.215 1.14-3.322.337-.818.817-2.057 1.452-3.719.192-.605.483-1.504.881-2.691.364-1.027.617-1.805.76-2.334.271-.869.471-1.688.596-2.453l-.046-.117a1.512 1.512 0 0 1-.239-.791c0-.818.253-1.451.76-1.898.477-.263.943-.527 1.402-.792.416.291.993.66 1.737 1.109.224.342.336.898.336 1.662 0 .422-.199.91-.597 1.463l-.904 1.186c-.997 1.77-2.226 4.844-3.688 9.219-.33.791-.664 1.582-.997 2.373-.411 1.004-.635 1.848-.666 2.533 1.204-.342 2.656-.514 4.354-.514 2.743 0 4.694.213 5.852.633-.269-1.32-.569-2.203-.904-2.652-.38-.5-.627-.83-.737-.988a11.444 11.444 0 0 1-.594-1.305c.158-1.135.586-1.805 1.282-2.02.239.107.581.305 1.024.594.016 0 .253.344.712 1.029.208.238.517.633.929 1.188.318.475.706 1.529 1.165 3.166.382 1.318.675 2.492.882 3.523a4.138 4.138 0 0 1-.523 1.523c-.271.456-.576.688-.906.688z"/><path d="M72.8 93.495c-.476.58-.958.936-1.45 1.068-.222.053-.564.158-1.023.316-.222.131-.562.277-1.022.436-.569.08-.968.146-1.189.197a3.78 3.78 0 0 0-1.165.477c-.129-.264-.231-.674-.311-1.227-.062-.369-.164-.621-.309-.752a6.724 6.724 0 0 1-.023-.475c0-.557.106-1.068.32-1.545.216-.473.488-.711.821-.711.967.051 2.269.051 3.901 0 .666-.025 1.119.025 1.354.158.43.213.762.713 1.002 1.504-.335.052-.636.238-.906.554zm8.54 2.176c-4.344 7.227-8.564 11.777-12.653 13.65l-1.286-1.465a4.856 4.856 0 0 1-.071-.791c0-.529.245-1.504.738-2.926.712-.346 1.435-.686 2.164-1.031a16.731 16.731 0 0 0 2.117-1.264c1.315-1.002 3.25-3.166 5.805-6.49.301-.396 1.109-1.648 2.425-3.758.968-1.555 1.841-2.662 2.618-3.324l.569.277c-.127 2.268-.934 4.641-2.426 7.122zm-6.208-9.426c-.301.555-.546.805-.737.75l-4.068-.908c-.063 0-.182.059-.355.178-.177.119-.311.178-.406.178l-.189-.039-.38-1.935c-.065-.238-.032-.578.095-1.027.253-.922.817-1.381 1.689-1.381.206 0 .451.104.736.314.38.236.627.367.738.395.411.131 1.07.381 1.974.748.92.449 1.508 1.134 1.761 2.056-.32-.001-.604.222-.858.671zM107.96 107.146l-1.047.908c-1.286-.686-2.657-2.082-4.117-4.193a1044.102 1044.102 0 0 1-3.591-5.459c-.237.264-1.547 1.979-3.925 5.141-1.539 2.033-2.981 3.434-4.329 4.197-.065-.16-.197-.291-.405-.396a22.87 22.87 0 0 1-1.094-.514c-.491-.211-.817-.436-.976-.676-.046-.076-.166-.551-.356-1.422.222-.738.649-1.227 1.284-1.463a21.08 21.08 0 0 0 1.595-.457c.522-.17 1.26-.783 2.212-1.84 2.093-2.268 3.624-4.232 4.592-5.895.728-1.238 1.896-3.689 3.496-7.357l-.404-.158c-.571.131-1.262.236-2.069.316-.746.133-1.855.344-3.331.631-.476.082-.944.16-1.403.24a2.282 2.282 0 0 0-1.262.949l-.356-.277c0-1.504-.039-2.453-.119-2.85.032-.816.312-1.436.833-1.859.143-.103.628-.353 1.452-.75.254.633.443.935.57.91l5.778-.99.24-.041c.255 0 .521.107.809.318.032-.025.262-.383.69-1.068.27-.424.522-.635.76-.635.095 0 .208.029.334.082.096.314.376.645.844.988a3.12 3.12 0 0 1 1.036 1.265c-1.001 1.662-1.649 2.863-1.952 3.602a96.548 96.548 0 0 1-1.14 3.045c-.129.291-.509.99-1.144 2.098-.507.895-.825 1.633-.952 2.215a203.585 203.585 0 0 1 2.642 3.205c.936 1.055 1.958 1.768 3.068 2.137.999.211 2.499.672 4.497 1.385-.256.791-.727 1.613-1.417 2.473-.691.855-1.138 1.585-1.343 2.195zM133.102 95.315c-.204.053-.478.303-.819.752-.343.451-.653.676-.94.676-.176 0-.585-.174-1.238-.516-.762-.422-1.221-.658-1.379-.711-.301.025-.743-.012-1.331-.119l-.428.158-.809-.355c-.177.291-.351 1.107-.524 2.453l-.283 1.818c-.129.684-.281 1.252-.453 1.699a16.816 16.816 0 0 1-2.071 3.678c-.92 1.24-1.806 2.057-2.663 2.451-1.46.713-2.528 1.068-3.213 1.068-.237 0-.894-.094-1.973-.275l-.334-1.229c.048-1.58.459-2.584 1.238-3.006.316-.158 1.084-.236 2.307-.236.507 0 1.063-.119 1.666-.357.762-.316 1.587-1.041 2.474-2.176.999-1.293 1.499-2.48 1.499-3.564 0-.076-.01-.193-.025-.352l-.048-.318c-.332-.422-.577-1.027-.735-1.82l-.335-.277c-.475-.025-1.181-.014-2.116.039-.349.053-1.158.291-2.428.711-1.315.451-2.083.768-2.307.953-.222.182-.41.514-.57.988l-.405.238-.548-.078-.214-1.307c.145-1.031.271-1.768.384-2.217.188-.82.449-1.426.783-1.822 1.221-.264 3.051-.633 5.496-1.107.665-.104 1.632-.158 2.9-.158 1.286 0 3.959.291 8.017.871.031 0 .079-.025.143-.08l.237-.078.239.078c.048.027.101.055.168.08l1.163-.158.617.434c-.095.479-.282 1.039-.569 1.686-.287.646-.477 1.142-.573 1.485zm-2.903-9.968c-.075 1.107-.697 1.662-1.854 1.662-.282 0-.698-.041-1.238-.121-.538-.078-.943-.117-1.211-.117-.128 0-.295-.025-.5-.08-.271-.051-.436-.09-.499-.119a10.476 10.476 0 0 0-1.597-.117c-.237 0-.949.092-2.139.275-1.19.188-1.832.318-1.929.396-.014 0-.106.119-.272.359-.167.234-.305.34-.416.313l-.498-.197-.408-1.502c.1-1.398.461-2.228 1.097-2.494.253 0 .635-.066 1.141-.197 1.237-.555 2.682-.777 4.331-.672 1.982.131 3.005.197 3.068.197 1.144.213 2.125.688 2.952 1.426 0 .236-.01.564-.028.988zM155.845 106.978c-.224 0-.519-.08-.88-.236a20.657 20.657 0 0 0-.857-.316c-.365-.051-1.634-.199-3.809-.438-1.458-.156-2.271-.234-2.447-.234-3.424 0-6.273 1.055-8.54 3.164-.604-.871-.904-2.293-.904-4.273 0-.262.135-.582.403-.949.428-.211.762-.305 1.001-.277.555-.475 1.078-1.387 1.569-2.73.38-1.109.762-2.219 1.142-3.322.332-.818.816-2.059 1.45-3.721.191-.607.484-1.502.882-2.691.364-1.027.617-1.805.76-2.334.27-.867.467-1.688.596-2.451l-.048-.119a1.53 1.53 0 0 1-.239-.791c0-.818.256-1.451.762-1.9.479-.262.944-.527 1.403-.789.413.287.991.658 1.736 1.105.224.346.335.896.335 1.662 0 .424-.198.91-.596 1.465l-.904 1.186c-.999 1.77-2.228 4.842-3.686 9.219-.335.791-.667 1.582-1.001 2.373-.41 1.002-.634 1.846-.665 2.535 1.205-.346 2.657-.518 4.353-.518 2.744 0 4.694.213 5.853.633-.27-1.318-.57-2.201-.904-2.65-.38-.5-.625-.83-.736-.99-.174-.314-.374-.75-.596-1.305.158-1.133.586-1.807 1.282-2.016.241.105.582.303 1.025.594.016 0 .253.342.714 1.027.206.238.517.635.928 1.188.316.473.704 1.529 1.165 3.166.382 1.318.675 2.492.879 3.521a4.137 4.137 0 0 1-.522 1.523c-.271.46-.572.689-.904.689zM67.781 73.588v2.313c0 .499.049.81.15.93.135.172.342.258.619.258h.279v.219h-3.135v-.219h.275c.311 0 .533-.109.666-.328.072-.12.109-.407.109-.859v-5.133c0-.499-.049-.81-.146-.93-.141-.172-.35-.258-.629-.258h-.275v-.219h2.682c.652 0 1.168.073 1.547.22.377.146.695.394.955.741.258.349.387.761.387 1.237 0 .648-.195 1.177-.59 1.583-.393.406-.949.609-1.668.609-.176 0-.365-.014-.57-.041s-.423-.068-.656-.123zm0-.335c.189.039.357.068.504.088s.271.029.375.029c.373 0 .693-.157.965-.472.27-.313.404-.721.404-1.221 0-.344-.064-.663-.191-.958-.131-.294-.313-.515-.549-.661s-.506-.22-.805-.22c-.184 0-.418.037-.703.111v3.304zM73.453 71.777v1.207c.412-.805.836-1.207 1.271-1.207.197 0 .361.065.49.196s.193.282.193.454a.563.563 0 0 1-.141.387.432.432 0 0 1-.334.158c-.127 0-.268-.067-.422-.203-.156-.136-.273-.203-.348-.203-.064 0-.135.039-.211.117-.16.161-.328.426-.5.794v2.573c0 .298.035.523.104.677a.592.592 0 0 0 .248.265c.117.07.289.105.512.105v.211h-2.537v-.211c.25 0 .438-.043.561-.129a.504.504 0 0 0 .188-.301c.02-.066.027-.257.027-.57v-2.078c0-.627-.012-1-.035-1.119s-.066-.207-.131-.262a.343.343 0 0 0-.234-.082.99.99 0 0 0-.379.088l-.055-.211 1.504-.656h.229zM78.102 71.777c.748 0 1.348.309 1.801.927.385.528.578 1.134.578 1.818 0 .48-.107.968-.318 1.46-.213.493-.504.864-.877 1.115-.371.25-.785.375-1.242.375-.744 0-1.336-.322-1.773-.968a3.17 3.17 0 0 1-.555-1.83c0-.493.111-.982.336-1.47.225-.486.52-.846.887-1.079a2.137 2.137 0 0 1 1.163-.348zm-.166.383c-.189 0-.381.062-.572.185-.191.124-.348.34-.467.648-.117.31-.176.706-.176 1.19 0 .783.143 1.457.428 2.024s.66.851 1.125.851c.35 0 .635-.156.861-.469.225-.313.338-.852.338-1.613 0-.955-.188-1.705-.564-2.253-.255-.376-.579-.563-.973-.563zM80.84 72.48l1.525-.672h.207v1.248c.254-.473.51-.805.768-.994a1.34 1.34 0 0 1 .811-.285c.496 0 .91.211 1.24.634.406.515.609 1.188.609 2.017 0 .927-.244 1.693-.732 2.299-.402.497-.91.745-1.521.745-.266 0-.496-.041-.689-.123-.145-.059-.305-.176-.484-.352v1.639c0 .369.02.604.061.704s.113.18.215.239c.104.059.289.088.557.088v.211h-2.586v-.211h.135a.91.91 0 0 0 .506-.124.439.439 0 0 0 .158-.21c.037-.097.057-.342.057-.736v-5.07c0-.347-.016-.567-.045-.66a.387.387 0 0 0-.137-.211.427.427 0 0 0-.258-.07.9.9 0 0 0-.33.082l-.067-.188zm1.732.923v2.005c0 .435.016.72.047.856.051.228.174.427.369.599s.443.258.74.258c.359 0 .65-.152.873-.457.289-.399.436-.96.436-1.684 0-.821-.166-1.452-.496-1.895-.229-.305-.502-.457-.818-.457-.172 0-.342.047-.51.141-.131.07-.344.281-.641.634zM87.553 73.964c-.004.797.174 1.422.533 1.875s.781.68 1.266.68c.322 0 .604-.096.842-.287.238-.192.439-.523.602-.994l.164.117c-.074.537-.293 1.023-.656 1.461s-.818.656-1.363.656c-.594 0-1.102-.251-1.521-.753-.424-.502-.635-1.177-.635-2.024 0-.918.217-1.634.65-2.147.432-.514.975-.771 1.629-.771.555 0 1.008.198 1.363.596.355.396.533.928.533 1.592h-3.407zm0-.343h2.285c-.018-.344-.055-.586-.113-.727-.09-.219-.223-.391-.4-.516s-.365-.188-.559-.188c-.299 0-.564.126-.801.378-.235.253-.373.603-.412 1.053zM93.07 71.777v1.207c.414-.805.838-1.207 1.271-1.207.199 0 .361.065.49.196s.195.282.195.454c0 .152-.047.281-.141.387s-.207.158-.336.158c-.125 0-.266-.067-.422-.203s-.271-.203-.348-.203c-.064 0-.135.039-.209.117-.162.161-.328.426-.502.794v2.573c0 .298.035.523.104.677.047.105.129.194.248.265s.289.105.512.105v.211h-2.537v-.211c.252 0 .438-.043.561-.129a.51.51 0 0 0 .189-.301c.018-.066.025-.257.025-.57v-2.078c0-.627-.012-1-.033-1.119-.023-.119-.068-.207-.131-.262s-.141-.082-.236-.082a.999.999 0 0 0-.379.088l-.053-.211 1.504-.656h.228zM96.74 70.167v1.766h1.154v.414H96.74v3.482c0 .348.047.582.139.703s.207.182.352.182c.119 0 .234-.04.344-.121a.78.78 0 0 0 .26-.355h.207c-.125.384-.305.672-.533.865-.232.194-.469.291-.715.291-.166 0-.328-.05-.486-.149s-.275-.242-.352-.428c-.074-.186-.113-.472-.113-.859v-3.61h-.783v-.195c.199-.086.402-.232.609-.438.207-.206.393-.45.557-.731.084-.148.201-.421.352-.815h.162zM98.084 71.933h2.303v.211h-.113c-.162 0-.283.038-.363.115a.373.373 0 0 0-.121.286c0 .153.059.366.178.638l1.207 2.721 1.1-2.979c.061-.162.092-.322.092-.479a.28.28 0 0 0-.037-.16.305.305 0 0 0-.135-.104.968.968 0 0 0-.324-.038v-.211h1.602v.211a.713.713 0 0 0-.307.095.94.94 0 0 0-.236.265 3.81 3.81 0 0 0-.184.455l-2.008 5.365c-.193.52-.449.913-.764 1.179-.314.267-.617.399-.91.399a.722.722 0 0 1-.523-.199.623.623 0 0 1-.205-.458c0-.164.051-.297.148-.396a.55.55 0 0 1 .408-.149c.119 0 .281.043.486.13.145.06.234.089.27.089.109 0 .227-.061.355-.183.127-.121.256-.356.385-.705l.348-.94-1.771-4.049a3.436 3.436 0 0 0-.26-.454 1.271 1.271 0 0 0-.221-.277 1.141 1.141 0 0 0-.398-.165v-.213zM112.689 69.363l.078 1.865h-.205c-.039-.328-.092-.563-.16-.703-.111-.227-.26-.394-.445-.501s-.43-.161-.732-.161h-1.029v6.07c0 .486.049.79.145.911.137.163.346.245.631.245h.252v.219h-3.098v-.219h.258c.311 0 .529-.102.658-.304.08-.124.119-.409.119-.853v-6.07h-.881c-.34 0-.584.027-.727.082-.188.074-.348.217-.48.428s-.213.496-.238.855h-.205l.088-1.865h5.971zM116.184 76.533c-.506.426-.824.672-.953.738a1.343 1.343 0 0 1-.619.146c-.34 0-.621-.127-.842-.381-.221-.255-.332-.589-.332-1.004 0-.262.055-.488.162-.68.146-.266.402-.517.768-.751.363-.234.971-.521 1.816-.856v-.211c0-.534-.078-.901-.232-1.1-.154-.199-.381-.299-.678-.299-.225 0-.402.066-.535.199a.613.613 0 0 0-.203.455l.01.34c0 .179-.041.317-.127.414a.424.424 0 0 1-.336.146.413.413 0 0 1-.33-.152.633.633 0 0 1-.127-.415c0-.336.158-.645.475-.925.316-.281.76-.422 1.332-.422.438 0 .797.08 1.078.24.211.121.367.311.469.568.064.168.098.512.098 1.03v1.821c0 .512.008.825.025.94.02.115.049.192.09.231s.09.059.145.059a.276.276 0 0 0 .15-.041c.076-.051.221-.193.438-.428v.328c-.404.589-.789.883-1.156.883a.511.511 0 0 1-.422-.199c-.106-.128-.16-.355-.164-.674zm0-.381v-2.047c-.541.234-.891.4-1.049.498-.283.173-.486.353-.607.54a1.1 1.1 0 0 0-.184.615c0 .282.078.516.23.701.156.186.334.278.533.278.274.001.633-.195 1.077-.585zM118.094 71.933h2.33v.211c-.148 0-.254.027-.313.083a.285.285 0 0 0-.09.221c0 .095.063.242.189.44.039.061.096.154.174.282l.357.62.395-.605c.266-.39.398-.636.4-.74a.28.28 0 0 0-.092-.214c-.061-.058-.162-.087-.299-.087v-.211h1.664v.211a.856.856 0 0 0-.461.159c-.178.134-.418.424-.723.872l-.674.973 1.23 1.939c.303.475.52.76.648.855.129.097.297.15.502.162v.203h-2.336v-.203c.162 0 .289-.039.379-.117a.27.27 0 0 0 .104-.219c0-.09-.115-.317-.346-.682l-.727-1.152-.791 1.145c-.244.359-.365.573-.365.641 0 .095.041.181.121.258.082.076.205.119.367.127v.203h-1.609v-.203a.694.694 0 0 0 .338-.147c.137-.113.367-.403.689-.87l1.033-1.502-.932-1.482c-.268-.424-.473-.689-.617-.797a.896.896 0 0 0-.549-.162v-.212zM131.291 69.183v2.75h-.201c-.064-.527-.18-.948-.348-1.261s-.406-.562-.715-.745a1.863 1.863 0 0 0-.963-.275 1.25 1.25 0 0 0-.928.372c-.244.247-.367.529-.367.846 0 .241.078.462.232.661.223.293.756.683 1.594 1.171.686.397 1.152.703 1.402.916.252.213.445.464.58.753s.203.592.203.908c0 .602-.215 1.12-.645 1.556s-.982.653-1.658.653c-.211 0-.41-.018-.598-.054a5.775 5.775 0 0 1-.691-.219c-.352-.126-.572-.188-.666-.188-.09 0-.16.03-.213.09s-.092.184-.115.371h-.201v-2.727h.201c.092.57.219.996.375 1.279.158.283.4.518.725.705a2.1 2.1 0 0 0 1.068.281c.449 0 .803-.129 1.064-.387.26-.258.389-.563.389-.914 0-.195-.049-.393-.148-.592a1.711 1.711 0 0 0-.461-.557c-.141-.117-.523-.365-1.15-.745-.627-.379-1.074-.682-1.338-.908s-.463-.477-.6-.749a1.983 1.983 0 0 1-.205-.902c0-.569.201-1.061.605-1.473.402-.411.914-.617 1.537-.617.387 0 .801.104 1.234.313.201.099.344.147.428.147a.3.3 0 0 0 .229-.092c.059-.061.107-.184.143-.369h.202zM132.43 71.933h2.303v.211h-.113c-.162 0-.283.038-.363.115a.38.38 0 0 0-.121.286c0 .153.059.366.178.638l1.207 2.721 1.1-2.979c.063-.162.092-.322.092-.479a.28.28 0 0 0-.037-.16.305.305 0 0 0-.135-.104.96.96 0 0 0-.324-.038v-.211h1.602v.211a.713.713 0 0 0-.307.095.94.94 0 0 0-.236.265 3.81 3.81 0 0 0-.184.455l-2.006 5.365c-.195.52-.449.913-.764 1.179-.316.267-.619.399-.91.399a.724.724 0 0 1-.525-.199.623.623 0 0 1-.205-.458c0-.164.051-.297.148-.396a.55.55 0 0 1 .408-.149c.119 0 .281.043.488.13.143.06.232.089.27.089.107 0 .225-.061.354-.183.127-.121.256-.356.385-.705l.348-.94-1.771-4.049a3.626 3.626 0 0 0-.258-.454 1.265 1.265 0 0 0-.223-.277 1.141 1.141 0 0 0-.398-.165v-.213zM141.422 71.777v1.828h-.18c-.137-.575-.311-.966-.525-1.174-.213-.207-.484-.311-.814-.311-.252 0-.453.072-.607.217-.154.146-.23.306-.23.481 0 .22.057.407.17.563.111.161.336.331.678.512l.787.416c.73.388 1.096.897 1.096 1.531 0 .489-.17.883-.51 1.182-.34.3-.719.449-1.141.449a3.65 3.65 0 0 1-1.035-.176.969.969 0 0 0-.291-.059c-.082 0-.146.05-.193.148h-.18V75.47h.18c.102.548.293.961.576 1.239.285.278.604.417.955.417a.809.809 0 0 0 .605-.238.78.78 0 0 0 .236-.572.955.955 0 0 0-.262-.682c-.176-.185-.523-.417-1.045-.699-.521-.281-.863-.535-1.025-.762-.162-.223-.242-.504-.242-.845 0-.441.139-.811.418-1.108.277-.297.639-.445 1.08-.445.193 0 .43.046.705.137.184.061.305.09.367.09a.202.202 0 0 0 .135-.042.583.583 0 0 0 .113-.185h.179zM143.971 70.167v1.766h1.154v.414h-1.154v3.482c0 .348.047.582.139.703s.207.182.352.182c.119 0 .234-.04.344-.121a.78.78 0 0 0 .26-.355h.207c-.125.384-.305.672-.533.865-.232.194-.469.291-.715.291-.166 0-.328-.05-.486-.149s-.275-.242-.352-.428c-.074-.186-.113-.472-.113-.859v-3.61h-.783v-.195c.199-.086.402-.232.609-.438.207-.206.393-.45.557-.731.084-.148.201-.421.352-.815h.162zM146.428 73.964c-.004.797.174 1.422.533 1.875s.781.68 1.266.68c.322 0 .604-.096.842-.287.238-.192.439-.523.602-.994l.164.117c-.074.537-.293 1.023-.656 1.461s-.818.656-1.363.656c-.594 0-1.102-.251-1.521-.753-.424-.502-.635-1.177-.635-2.024 0-.918.217-1.634.65-2.147.432-.514.975-.771 1.629-.771.555 0 1.008.198 1.363.596.355.396.533.928.533 1.592h-3.407zm0-.343h2.285c-.018-.344-.055-.586-.113-.727-.09-.219-.223-.391-.4-.516s-.365-.188-.559-.188c-.299 0-.564.126-.801.378-.235.253-.373.603-.412 1.053zM151.969 72.927a16.9 16.9 0 0 1 .635-.679c.162-.149.336-.265.521-.348a1.36 1.36 0 0 1 .555-.124c.309 0 .574.099.797.295s.371.481.447.855c.371-.472.684-.781.938-.93.256-.146.518-.221.787-.221.264 0 .496.073.699.221.203.146.363.386.482.719.078.227.117.583.117 1.068v2.313c0 .335.023.565.07.69.037.085.104.158.201.219s.258.091.477.091v.211h-2.443v-.211h.102c.213 0 .379-.045.496-.135a.514.514 0 0 0 .178-.298c.016-.066.021-.255.021-.567v-2.309c0-.438-.047-.746-.145-.926-.139-.25-.363-.375-.674-.375-.189 0-.381.052-.572.155s-.424.296-.697.577l-.01.064.014.252v2.561c0 .366.02.595.057.685.037.089.107.164.211.225s.281.091.531.091v.211h-2.494v-.211c.271 0 .457-.035.559-.105s.174-.175.211-.315c.02-.066.027-.26.027-.579v-2.309c0-.438-.059-.753-.176-.946-.158-.252-.379-.378-.662-.378-.193 0-.383.057-.574.171a2.254 2.254 0 0 0-.686.585v2.877c0 .351.021.579.066.685a.498.498 0 0 0 .197.236c.088.053.266.079.533.079v.211h-2.443v-.211c.225 0 .383-.026.473-.079s.158-.136.205-.251.068-.339.068-.67v-2.055c0-.592-.016-.974-.047-1.146-.025-.13-.066-.219-.121-.268a.314.314 0 0 0-.221-.073.96.96 0 0 0-.363.088l-.08-.211 1.498-.656h.234v1.151z"/><linearGradient id="h" gradientUnits="userSpaceOnUse" x1="154.761" y1="33.843" x2="209.866" y2="88.949"><stop offset="0" stop-color="#ead18f"/><stop offset=".076" stop-color="#e1c477"/><stop offset=".221" stop-color="#d1af4e"/><stop offset=".335" stop-color="#c8a235"/><stop offset=".405" stop-color="#c49d2c"/><stop offset=".559" stop-color="#d4b35c"/><stop offset=".766" stop-color="#e7cd97"/><stop offset=".919" stop-color="#f3debb"/><stop offset="1" stop-color="#f8e4c9"/></linearGradient><linearGradient id="i" gradientUnits="userSpaceOnUse" x1="130.049" y1="42.003" x2="185.356" y2="97.31"><stop offset="0" stop-color="#ead18f"/><stop offset=".076" stop-color="#e1c477"/><stop offset=".221" stop-color="#d1af4e"/><stop offset=".335" stop-color="#c8a235"/><stop offset=".405" stop-color="#c49d2c"/><stop offset=".559" stop-color="#d4b35c"/><stop offset=".766" stop-color="#e7cd97"/><stop offset=".919" stop-color="#f3debb"/><stop offset="1" stop-color="#f8e4c9"/></linearGradient><linearGradient id="j" gradientUnits="userSpaceOnUse" x1="138.948" y1="2.799" x2="194.255" y2="58.106"><stop offset="0" stop-color="#ead18f"/><stop offset=".076" stop-color="#e1c477"/><stop offset=".221" stop-color="#d1af4e"/><stop offset=".335" stop-color="#c8a235"/><stop offset=".405" stop-color="#c49d2c"/><stop offset=".559" stop-color="#d4b35c"/><stop offset=".766" stop-color="#e7cd97"/><stop offset=".919" stop-color="#f3debb"/><stop offset="1" stop-color="#f8e4c9"/></linearGradient><linearGradient id="k" gradientUnits="userSpaceOnUse" x1="158.286" y1="16.018" x2="213.592" y2="71.324"><stop offset="0" stop-color="#ead18f"/><stop offset=".076" stop-color="#e1c477"/><stop offset=".221" stop-color="#d1af4e"/><stop offset=".335" stop-color="#c8a235"/><stop offset=".405" stop-color="#c49d2c"/><stop offset=".559" stop-color="#d4b35c"/><stop offset=".766" stop-color="#e7cd97"/><stop offset=".919" stop-color="#f3debb"/><stop offset="1" stop-color="#f8e4c9"/></linearGradient><linearGradient id="l" gradientUnits="userSpaceOnUse" x1="25.023" y1="13.819" x2="80.202" y2="68.999"><stop offset="0" stop-color="#ead18f"/><stop offset=".076" stop-color="#e1c477"/><stop offset=".221" stop-color="#d1af4e"/><stop offset=".335" stop-color="#c8a235"/><stop offset=".405" stop-color="#c49d2c"/><stop offset=".559" stop-color="#d4b35c"/><stop offset=".766" stop-color="#e7cd97"/><stop offset=".919" stop-color="#f3debb"/><stop offset="1" stop-color="#f8e4c9"/></linearGradient><linearGradient id="m" gradientUnits="userSpaceOnUse" x1="21.153" y1="9.109" x2="76.46" y2="64.416"><stop offset="0" stop-color="#ead18f"/><stop offset=".076" stop-color="#e1c477"/><stop offset=".221" stop-color="#d1af4e"/><stop offset=".335" stop-color="#c8a235"/><stop offset=".405" stop-color="#c49d2c"/><stop offset=".559" stop-color="#d4b35c"/><stop offset=".766" stop-color="#e7cd97"/><stop offset=".919" stop-color="#f3debb"/><stop offset="1" stop-color="#f8e4c9"/></linearGradient><linearGradient id="n" gradientUnits="userSpaceOnUse" x1="26.703" y1="55.19" x2="81.764" y2="110.251"><stop offset="0" stop-color="#ead18f"/><stop offset=".076" stop-color="#e1c477"/><stop offset=".221" stop-color="#d1af4e"/><stop offset=".335" stop-color="#c8a235"/><stop offset=".405" stop-color="#c49d2c"/><stop offset=".559" stop-color="#d4b35c"/><stop offset=".766" stop-color="#e7cd97"/><stop offset=".919" stop-color="#f3debb"/><stop offset="1" stop-color="#f8e4c9"/></linearGradient></svg>