<?xml version="1.0" encoding="utf-8"?><svg xmlns="http://www.w3.org/2000/svg" width="98" height="81" viewBox="79.307 32.258 98 81"><linearGradient id="a" gradientUnits="userSpaceOnUse" x1="100.864" y1="15.156" x2="156.374" y2="70.665"><stop offset="0" stop-color="#ead18f"/><stop offset=".076" stop-color="#e1c477"/><stop offset=".221" stop-color="#d1af4e"/><stop offset=".335" stop-color="#c8a235"/><stop offset=".405" stop-color="#c49d2c"/><stop offset=".559" stop-color="#d4b35c"/><stop offset=".766" stop-color="#e7cd97"/><stop offset=".919" stop-color="#f3debb"/><stop offset="1" stop-color="#f8e4c9"/></linearGradient><path fill="#B2B2B2" d="M92.932 36.691c-.209.444-.442 1.204-.699 2.275 2.435.119 3.953.236 4.558.355 1.71.268 3.177.863 4.401 1.786.174-.148.333-.507.479-1.071.146-.566.272-.862.377-.894.413.21 1.043.521 1.89.937 0 1.398.13 3.213.389 5.444l-.389 2.23-.363.401c-.431-.624-.76-1.486-.982-2.588-.329-1.664-.536-2.632-.622-2.899-.728.446-1.415.669-2.072.669-.741 0-1.86-.17-3.354-.514-1.491-.34-2.618-.512-3.379-.512-.414 0-1.26.06-2.539.177-.171.031-.854.165-2.044.401-.985.211-1.59.285-1.813.225-.569.208-1.278.579-2.123 1.114l-1.425-.49c-.138.239-.269.789-.389 1.651-.138 1.1-.275 1.889-.415 2.364-.241.923-.613 1.608-1.112 2.053a8.556 8.556 0 0 0-.597-.623 8.192 8.192 0 0 1-.024-.624c0-.715.094-1.669.284-2.858.223-1.396.354-2.333.388-2.812-.189-.535-.283-1.011-.283-1.427.155-.268.327-.834.517-1.694l.493-.18c.066.061.266.328.595.804.225.327.448.49.673.49l.233.714c2.072-1.369 4.635-2.244 7.691-2.631a7.046 7.046 0 0 0-.57-2.054c-.482-1.07-.742-1.666-.776-1.785.034-.268.143-.557.324-.87.181-.311.35-.469.504-.469.104 0 .406.208.906.624.45.388.747.672.895.849.143.182.268.658.373 1.432zm6.136 7.433c.293.388.761.911 1.399 1.565l.129 1.298c-.121.148-.241.208-.364.177-.257.299-.369.612-.335.942l.103.849-.232 2.772c-.467.387-1.354.58-2.666.58-.38 0-.934-.088-1.658-.268-.725-.179-1.277-.268-1.658-.268-.259 0-.509.043-.752.134a70.26 70.26 0 0 1-.388 1.788l.025.535c1.693.119 2.815.21 3.367.27 1.658.18 2.781.433 3.367.761.276-.356.709-.88 1.296-1.565.102.028.331.313.685.851.354.535.574.908.662 1.116l.077.896c-.276.416-.354.879-.232 1.386-.07.239-.104.67-.104 1.296 0 .358.034.671.104.939-.053.179-.122.446-.208.805a1 1 0 0 0 .076.402c-.293.566-.637 1.491-1.035 2.772-.276.06-.69.193-1.243.401a9.469 9.469 0 0 1-1.683-.581l-.258.18c-1.97-.299-3.118-.447-3.445-.447-.57 0-1.511.081-2.823.246-1.313.162-2.625.335-3.936.512-1.485.327-2.729.953-3.73 1.874-.155-.178-.327-.505-.517-.98-.191-.476-.355-.803-.493-.982.034-.566.086-1.108.155-1.63.07-.523.312-.858.726-1.006l.234-3.399c.015-.208-.023-.468-.117-.783-.096-.312-.194-.512-.299-.603v-1.298c.086-.268.337-.505.751-.715.122.028.285.187.492.469.207.284.38.425.517.425.155 0 .407-.119.753-.358.412-.268.673-.43.776-.489.467-.18.924-.328 1.374-.447.621-.031 1.553-.165 2.795-.404.227-.894.32-1.565.285-2.012a1.104 1.104 0 0 0-.259-.134c-.966.091-1.691.179-2.176.27-1.121.237-1.813.596-2.07 1.071l-.469-.311-.284.268-.337-.268c0-.151-.068-.397-.206-.739-.138-.344-.207-.573-.207-.692 0-.089.024-.165.078-.226l-.104-.489.233-.404-.027-.672.105-.401h.284l.181-.446c0-.447-.162-.939-.491-1.476-.328-.537-.51-.925-.544-1.163l.259-.806.828-.223.39-.76h.467c.087.179.258.433.517.76 1.71-.745 3.92-1.118 6.63-1.118.675 0 2.099.193 4.274.58.187.03.508-.178.956-.627zm-13.026-8.996l.13.624h.465c.45.327.726.581.83.76.224.327.354.803.389 1.427l-.466.715a1.618 1.618 0 0 1-.362.046c-.156 0-.382-.067-.675-.201-.294-.134-.519-.201-.674-.201-.103 0-.206.074-.311.223l-.621-.401c0-.892-.103-1.473-.312-1.74.14-.327.286-.655.441-.982s.327-.49.517-.49a1 1 0 0 1 .649.22zm6.525 22.234c-3.608 0-6.059.729-7.355 2.188a6.659 6.659 0 0 0-.283 1.828c0 .091.026.208.077.356 3.627-.951 6.769-1.427 9.428-1.427.051 0 .138.021.258.066a.836.836 0 0 0 .26.067c.035 0 .115-.021.246-.067.13-.045.211-.066.246-.066 1.242.208 1.968.327 2.175.355.828.18 1.546.419 2.149.715l.544-.268-.362-3.301c-.172 0-.428.06-.765.177-.336.12-.599.18-.789.18.104 0-.07-.046-.517-.134-2.73-.446-4.498-.669-5.312-.669zm-5.306-9.445l-.287 1.829c2.763-.385 4.619-.579 5.568-.579.347 0 2.263.163 5.749.49.034-.148.053-.296.053-.447 0-.473-.061-.979-.182-1.515-2.815-.388-4.928-.581-6.346-.581-2.726 0-4.245.268-4.555.803zm11.445-14.574l.621.355c.086.151.26.316.517.493.261.179.45.415.57.714.02.117.027.237.027.356 0 .416-.069.832-.209 1.25l-.568.268-.232-.088-2.229 1.694c-.276.06-.69-.119-1.241-.535a1.607 1.607 0 0 1-.026-.313c0-.327.077-.578.232-.758.622-.686 1.07-1.204 1.347-1.563a11.08 11.08 0 0 0 1.191-1.873zM118.259 33.698c.088.211.398.538.936.982.434.358.649.895.649 1.609 0 .057-.078.444-.233 1.159v2.855c.673.058 1.441.208 2.305.444.949.359 2.097.729 3.445 1.116l2.537.046.232 1.159c-.224.715-.594 1.278-1.112 1.694-.794.626-1.243.999-1.347 1.116-.535-.327-1.348-.729-2.436-1.204-1.208-.505-2.02-.758-2.434-.758-.139 0-.277.148-.414.444-.138.299-.207.566-.207.803l.025.225c1.831-.028 3.35.416 4.559 1.339l.362 1.384c-.362.655-.64.982-.83.982l-.128-.046c-.346-.179-.864-.401-1.555-.669-.241 0-.725-.15-1.45-.446l-.466.222-.415-.356-.232.313-1.924-.179-.57.313-.105.18c-.017.205-.052.519-.103.937l.312.268.285-.179c.088.06.191.117.313.179l1.896.401c.484.029.976.074 1.477.134.501.058.958.356 1.371.892l.104 1.071-1.01.937c-.535-.268-1.243-.461-2.124-.581-1.144-.147-1.869-.268-2.184-.355l-.493.401c0 .089-.013.246-.038.469a4.61 4.61 0 0 0-.041.514c0 .208.044.387.132.535.658-.06 2.284.074 4.877.401 1.002.089 1.995.193 2.979.311 1.225.18 2.208.566 2.952 1.162 0 .507.086.908.258 1.204-.189.239-.475.609-.855 1.114-.119.358-.283.58-.491.669-.258.091-.405.165-.439.225l-.233-.18-.362.18c-.139-.06-.689-.416-1.657-1.07-.707-.447-1.262-.67-1.659-.67-.206 0-.403.06-.594.177a411.665 411.665 0 0 1 1.243 2.5c.466 1.043.741 1.994.828 2.856-.018.388-.087.997-.207 1.828-1.329-1.13-2.961-3.79-4.897-7.987a1.304 1.304 0 0 0-.649-.177c.138 0-.278.119-1.248.356l-.052.179c.016.297.052.535.104.713-.209 2.679-.27 4.359-.182 5.043-.037.091-.139.611-.313 1.563-.12.804-.355 1.367-.702 1.695l-.338-.223c-.382-1.965-.572-3.243-.572-3.839 0-.563.017-1.353.052-2.363.034-1.131.053-1.934.053-2.412l-.026-.535c-.278-.117-.502-.177-.678-.177-1.019 0-1.728.089-2.125.268-.155.089-.302.289-.44.603-.138.313-.268.603-.389.87-.171.268-.413.654-.725 1.159-.433.922-.864 1.845-1.295 2.768-.552 1.039-1.114 1.592-1.685 1.651l-.232-.803c.173-.865.406-1.623.699-2.275.689-1.489 1.036-2.321 1.036-2.5a.645.645 0 0 1-.052-.18c-.741 0-2.046.715-3.91 2.142l-.466-.268-.233-1.071c0-.444.086-.965.259-1.561.274-.951.414-1.443.414-1.472l.259.222.984-.58.183.58c.896-.476 2.27-1.054 4.118-1.739.965-.089 2.436-.269 4.407-.536l-.104-1.561-.339-.225c-1.125.12-1.964.254-2.516.401-.967.211-1.787.521-2.461.938a37.479 37.479 0 0 0-.18-1.071l-.105-.134c.07-.831.105-1.278.105-1.338.066-.535.196-.892.388-1.071.017.029.065.158.142.38.079.223.15.335.22.335.052 0 .086-.015.104-.045 1.036-.269 2.583-.61 4.642-1.025l-.234-.892.208-.626c-.243-.208-.59-.313-1.041-.313-.502 0-1.248.172-2.24.514-.994.342-1.74.514-2.241.514-.276.237-.492.356-.647.356-.104 0-.276-.431-.518-1.293.189-.418.414-1.222.674-2.412l.103.046c.088.179.208.433.363.758a20.16 20.16 0 0 1 1.243-.401c.517-.178.948-.269 1.295-.269a2.2 2.2 0 0 1 .44.046l-.285-2.23c-1.916.12-3.472.789-4.661 2.008l-.233-.091c-.604.419-1.537.954-2.796 1.608-.191-.268-.261-.626-.209-1.072l.233-2.23c.587-.771 1.184-1.219 1.786-1.338l.182.088c.069.119.138.225.207.313 1.313-.892 3.125-1.532 5.439-1.92.346-.028.862-.134 1.553-.311 0-2.084-.154-3.346-.465-3.793.104-.834.396-1.561.878-2.187l1.342 1.472c-.207 1.487-.312 2.648-.312 3.48 0 .239.009.492.026.76.139-.031.96.043 2.459.223 0-.031-.026-.772-.077-2.23-.034-.953-.155-1.637-.361-2.053l.31-.894c-.003-.537.196-.998.595-1.386zm-7.004 1.073c.172.385.328.639.467.758.241.18.405.328.491.447v1.204c-.466.505-.743.758-.828.758-.052 0-.104-.028-.155-.088-.448.327-1.057.588-1.825.781-.769.191-1.309.392-1.62.603l-1.293-.581v-.447l.335-.979c.276-.18 1.028-.521 2.254-1.027.913-.388 1.64-.864 2.174-1.429zm4.584 7.852a3.64 3.64 0 0 0-.647.091c-.293.06-.518.089-.673.089a.44.44 0 0 0-.233.088l-.078.18.078 1.919.338.535.361-.134.544.178c1.036 0 1.64-.044 1.813-.135.484-.296.812-1.099.983-2.409a30.007 30.007 0 0 1-1.242-.222c-.537-.117-.95-.18-1.244-.18zm5.49-7.139c1.208.299 3.005.922 5.387 1.876 0 1.248-.482 1.874-1.45 1.874h-1.164l-.829-.268c-1.435-.479-2.236-1.296-2.409-2.455l.465-1.027z"/><path fill="#B2B2B2" d="M139.085 34.552c.104.148.467.313 1.088.49.501.119.847.566 1.036 1.339l-.182 1.161c-.226.06-.367.236-.427.535a9.53 9.53 0 0 0-.142.938l.232.669c.43-.297 1.069-.447 1.916-.447.189 0 1.175.089 2.953.271 1.189.148 2.001.282 2.433.401.882.268 1.642.776 2.28 1.522l.077 1.121c-.172.356-.448.86-.828 1.516l-.855.313c-1.536-.803-3.211-1.324-5.023-1.561a1.35 1.35 0 0 1-.363-.091 1.384 1.384 0 0 0-.388-.089c-.811 0-1.528.089-2.149.269-.139.207-.233.623-.284 1.25-.07.862-.112 1.338-.132 1.427.312.088 1.054.165 2.229.222.931.031 1.647.211 2.148.535a2.2 2.2 0 0 1 .232-.778c.139-.282.268-.426.389-.426.328 0 .932.478 1.813 1.43-.068.862-.389 1.546-.956 2.05-.503.388-.993.774-1.478 1.162-.293.327-.734.951-1.32 1.874-.588.922-.941 1.592-1.062 2.007.948.863 2.407 2.054 4.376 3.571.639.444 1.433.846 2.382 1.204.812.328 1.623.639 2.435.938.14-.029.363-.208.674-.535l.389.355c-.034.804-.053 1.131-.053.982 0 .416.026.715.079.892-.139.327-.338.626-.597.894s-.508.519-.751.758c-.138.18-.509.938-1.113 2.275l-.699.358c-.743-.566-1.579-1.384-2.513-2.454a244.737 244.737 0 0 1-2.383-2.813c-1.312-1.516-2.658-2.748-4.039-3.702-.329.06-.682.313-1.062.758-.311.418-.621.819-.932 1.204-.243.299-.899.863-1.971 1.697-.447.356-.818.641-1.111.846-.104.063-.424.165-.958.313a5.755 5.755 0 0 1-.57.313c-.639.296-1.149.669-1.527 1.116l-.467-.225c-.415.091-.69.238-.829.446l-.336-.045-.726.268c-.364-.236-.716-.617-1.063-1.138-.344-.519-.586-.839-.723-.959l.025-1.115-.259-.269.233-.803.828-.356c.621.445 1.294.67 2.02.67.259 0 1.105-.402 2.539-1.205 1.294-.684 2.183-1.204 2.666-1.563.898-.624 1.58-1.279 2.047-1.963-.275-.684-.881-1.51-1.813-2.476-.933-.968-1.622-1.451-2.072-1.451-.155 0-.318.046-.49.134a9.565 9.565 0 0 0-.312-1.785l.129-.356-.026-.626.597-.846.519.177c.379-.356 1.026-.593 1.94-.712 1.072-.148 1.762-.297 2.073-.447l-.337-2.856c-1.104.06-2.702.461-4.792 1.205-.948.358-1.416.535-1.398.535-.068 0-.18-.021-.336-.067a1.484 1.484 0 0 0-.337-.066c-.139 0-.479.291-1.023.87-.544.58-.919.915-1.127 1.004l-.31-.402-.052-.623c0-.684.086-1.354.258-2.008a4.283 4.283 0 0 1-.052-.669l.052-.089c.088-.358.26-.583.519-.672.258-.088.51-.165.752-.225l.285.225c.586-.27 1.138-.492 1.656-.672.346-.06.854-.179 1.528-.358.811-.329 2.304-.717 4.481-1.164.066-.238.094-.566.076-.981-.018-.419-.001-.701.052-.852l-.492-2.586c.054-.509.322-.836.804-.984zm-.803 14.23c-.881 0-1.458.134-1.736.402 1.243 1.278 2.333 2.261 3.265 2.944 1.209-.743 2.21-1.843 3.003-3.301-.38-.299-.992-.388-1.837-.268-1.021.149-1.917.223-2.695.223z"/><path fill="#B2B2B2" d="M159.276 50.836a2.04 2.04 0 0 1-.543.712 19.64 19.64 0 0 0-.621.581v1.204c0 1.547-.105 2.931-.312 4.149-.259 1.458-.635 2.528-1.126 3.215-.492.684-.988 1.367-1.488 2.051-.64.834-1.191 1.397-1.658 1.696-.121.058-.562.148-1.32.268l-.441-1.429c.07-.535.527-1.262 1.373-2.185 1.122-1.25 1.881-2.218 2.279-2.901a8.665 8.665 0 0 0 1.139-4.551v-.313a16.667 16.667 0 0 0-1.969 1.74c-.258.268-.585.722-.982 1.359-.396.641-.698 1.081-.907 1.317l-.569.045c-.208-.654-.311-1.042-.311-1.161 0-.089.018-.177.052-.268l.027-.401-.261-1.205.466-1.204c.362-.236 1.096-.877 2.202-1.917.897-.862 1.647-1.415 2.252-1.651.081-.239.12-.566.12-.982 0-.177-.034-1.114-.097-2.811-.413.06-.825.119-1.239.177-.501.063-.864.344-1.09.849l-.724-.089c-.155-.208-.241-.507-.259-.894-.018-.535-.044-.86-.078-.98 0-.268.155-.774.467-1.518.119.031.251.046.388.046.052 0 .911-.208 2.579-.627 0-.504.055-1.232.161-2.184-.034-.208-.05-.715-.05-1.519 0-.951-.14-1.531-.416-1.739a1.472 1.472 0 0 1-.052-.402c0-.355.104-.64.313-.848.189-.12.389-.237.597-.356.07.119.33.296.783.535.31.18.5.609.57 1.293-.398 1.606-.598 2.959-.598 4.061 0 .299.018.61.051.938.43 0 .88.268 1.345.803l.258.849-.155.98-.698.401-.232-.177-.389.177c-.085.119-.128.344-.128.669-.017.418-.033.672-.051.76l.128 1.563c.638 0 1.067.223 1.294.669l-.08 1.205zm10.331-17.094c.276.177.707.578 1.293 1.204l-.023.846c-.553.566-.881.88-.985.938l-.284-.177c-.448.088-.898.193-1.347.311-.552.15-.967.464-1.242.937.396.507.595.969.595 1.384-.068.627-.233 1.563-.492 2.812l3.47.313 1.788-.313c.396-.061.751.179 1.061.714l.183.849c-.14.06-.393.328-.764.804-.374.476-.662.684-.868.623a.367.367 0 0 1-.182.046c-.016 0-.155-.031-.414-.089-.172-.062-.303-.045-.389.043-.276-.088-.933-.134-1.969-.134a.657.657 0 0 1-.233-.066.695.695 0 0 0-.232-.067c-.034 0-.215.029-.544.091-.225.058-.404.043-.544-.045l-.596.222.131.581-.208.758-.389.492 1.994-.045c.293 0 .726.03 1.295.091.568.06 1.001.088 1.295.088.275 0 .687-.074 1.23-.225.543-.148.955-.223 1.23-.223.258 0 .715.208 1.371.627l-.024.449.103.629a108.34 108.34 0 0 1-1.993 2.509c-1.951-.743-3.323-1.116-4.119-1.116l-.284.18c-.174-.148-.449-.225-.827-.225-.123 0-.291.023-.506.066a2.573 2.573 0 0 1-.504.067c-.691 0-1.149.091-1.374.268-.295.268-.543.923-.752 1.965.295.177.406.268.337.268.329 0 1.219-.193 2.668-.581.553-.06 1.381-.134 2.485-.222.036-.358.2-.536.493-.536.104.269.307.558.608.87.303.311.505.617.608.913v.134c.017.388-.13.88-.44 1.473-.466 0-.866.32-1.205.961-.337.64-.65 1.285-.944 1.94.226.091.575.38 1.05.87.475.492.858.796 1.151.915.553.268 1.667.566 3.342.892.361.031.715.06 1.062.091.431.028.775.148 1.036.356v.446c0 1.606-.89 3.287-2.668 5.041-1.468-1.518-3.686-3.688-6.656-6.513-.673.654-1.692 1.546-3.055 2.677-.328.236-.825.497-1.489.779-.666.284-1.152.545-1.464.781-.12-.148-.251-.223-.388-.223h-.155a.456.456 0 0 1-.155.043c-.226 0-.467-.489-.727-1.472l.597-.803c1.674-.237 3.442-1.382 5.31-3.435-.519-.715-1.263-1.829-2.229-3.349l-2.951 4.909c-1.192 1.934-2.279 3.303-3.266 4.105l-.698-.134c-.292-.03-.439-.193-.439-.492 0-.741.155-1.353.465-1.828.277-.299.692-.758 1.243-1.384.968-1.159 1.978-2.572 3.032-4.238 1.38-2.172 2.191-3.821 2.433-4.954-1.209.063-2.452.655-3.729 1.785-.139-.147-.208-.595-.208-1.338 0-.476-.008-.817-.025-1.025l.131-.495c1.276-.958 2.952-1.632 5.022-2.021l.182-.715-.13-.626.052-.445a2.33 2.33 0 0 0-.44-.045c-.362 0-.622.148-.776.447l-.414-.18c-.19.06-.578.254-1.165.581-.501.268-.899.401-1.192.401l-.361-1.563.155-.937.311-.715.259-.177.259.356c.312-.089.769-.297 1.373-.624-.052-.06-.251-.609-.597-1.651-.155-.208-.354-.596-.595-1.162l.052-.401c-.104-.268-.272-.416-.505-.444-.233-.028-.357-.148-.376-.358.189-.444.544-.86 1.063-1.248.31-.239.759-.446 1.346-.626.76-.268 1.227-.444 1.397-.535 1.084-.685 2.743-1.593 4.969-2.721zm-5.828 5.446l-.439.49c.139.655.207 1.638.207 2.944a65.58 65.58 0 0 0 2.875-.624 86.528 86.528 0 0 0-.389-1.962c-.138-.239-.303-.626-.492-1.161a.77.77 0 0 1-.026-.356c-1.052.504-1.631.729-1.736.669zm1.97 15.127c.363.327.896.803 1.606 1.427.327-.564.732-1.159 1.216-1.785h-.491a3.685 3.685 0 0 0-.467-.043c-.828 0-1.449.134-1.864.401zm5.257-16.912c.138.148.354.282.647.401.206.091.423.327.647.715l.078.849-.233.624c-.259.06-.613.313-1.063.757-.569.627-.905.982-1.01 1.071-.311-.089-.484-.134-.517-.134a.79.79 0 0 1-.209.134l-.077-.089.933-2.454-.13-.669.13-.624.804-.581z"/><path d="M91.92 35.69c-.209.445-.442 1.204-.699 2.274 2.435.12 3.953.238 4.558.357 1.71.268 3.177.863 4.4 1.785.175-.148.333-.506.48-1.07.146-.566.272-.862.377-.894a196.9 196.9 0 0 0 1.89.937c0 1.398.13 3.214.388 5.444l-.388 2.23-.362.401c-.432-.624-.761-1.487-.984-2.588-.328-1.665-.535-2.632-.621-2.899-.728.446-1.416.669-2.072.669-.742 0-1.86-.171-3.354-.513-1.492-.342-2.619-.513-3.38-.513-.413 0-1.259.06-2.538.178-.172.03-.854.164-2.044.401-.985.208-1.591.283-1.813.224-.57.208-1.277.58-2.124 1.115l-1.425-.491c-.137.239-.267.789-.388 1.651-.138 1.101-.275 1.889-.415 2.364-.241.922-.612 1.606-1.113 2.053a8.062 8.062 0 0 0-.596-.624 7.68 7.68 0 0 1-.024-.625c0-.713.094-1.666.283-2.855.224-1.398.354-2.336.389-2.812-.189-.535-.283-1.012-.283-1.428.155-.268.327-.833.517-1.695l.493-.179c.066.061.266.328.595.804.225.327.447.489.673.489l.232.715c2.072-1.368 4.637-2.245 7.692-2.633a7.082 7.082 0 0 0-.57-2.052c-.482-1.07-.742-1.665-.776-1.785.034-.268.143-.557.324-.87.181-.312.35-.468.505-.468.103 0 .405.208.906.623.449.388.745.671.893.849.144.182.268.658.374 1.431zm6.136 7.435c.295.388.761.909 1.4 1.564l.129 1.298c-.121.148-.241.208-.364.178-.258.298-.369.611-.335.939l.103.85-.233 2.772c-.466.388-1.354.581-2.665.581-.381 0-.934-.089-1.658-.268-.726-.18-1.278-.27-1.658-.27-.259 0-.509.045-.752.136a69.802 69.802 0 0 1-.389 1.787l.026.537c1.693.119 2.815.209 3.367.269 1.657.18 2.78.433 3.367.76a45.07 45.07 0 0 1 1.296-1.565c.102.03.331.313.685.85.354.537.574.91.662 1.117l.077.896c-.276.417-.355.88-.233 1.386-.069.239-.104.671-.104 1.297 0 .358.034.672.104.939-.052.18-.122.447-.207.806 0 .148.024.282.077.401-.294.566-.638 1.491-1.036 2.772-.276.06-.69.193-1.243.401a9.39 9.39 0 0 1-1.683-.581l-.259.18c-1.969-.299-3.117-.447-3.444-.447-.57 0-1.512.081-2.823.246-1.313.163-2.624.335-3.936.512-1.485.327-2.729.954-3.73 1.875-.155-.178-.328-.506-.517-.981-.191-.476-.355-.803-.493-.982.034-.564.086-1.108.155-1.63s.311-.857.727-1.006l.233-3.398c.015-.208-.023-.47-.117-.783-.096-.313-.195-.514-.299-.604V54.66c.087-.268.337-.505.751-.714.122.029.285.187.492.47s.379.424.518.424c.154 0 .406-.118.752-.357.412-.269.673-.432.776-.491.466-.179.923-.328 1.373-.448.622-.029 1.553-.163 2.797-.402.226-.894.319-1.564.285-2.013a1.13 1.13 0 0 0-.26-.134c-.967.091-1.692.18-2.176.27-1.121.237-1.813.596-2.071 1.072l-.468-.313-.284.269-.337-.269c0-.149-.069-.396-.206-.737-.138-.345-.207-.574-.207-.693 0-.09.025-.165.078-.225l-.104-.491.233-.402-.028-.672.104-.402h.285l.181-.447c0-.446-.163-.939-.491-1.476-.327-.537-.51-.924-.544-1.163l.259-.805.827-.223.391-.76h.467c.086.179.258.433.518.76 1.709-.746 3.918-1.118 6.628-1.118.676 0 2.099.193 4.275.58.187.031.508-.178.956-.625zM85.03 34.128l.129.624h.467c.449.327.725.581.829.76.224.327.354.804.389 1.427l-.467.715c-.12.028-.243.044-.361.044-.157 0-.382-.066-.675-.2s-.52-.201-.674-.201c-.103 0-.207.075-.311.224l-.621-.401c0-.893-.104-1.473-.312-1.74.14-.327.287-.654.441-.982.155-.327.328-.489.518-.489a.999.999 0 0 1 .648.219zm6.527 22.234c-3.609 0-6.06.729-7.356 2.187a6.66 6.66 0 0 0-.283 1.829c0 .091.025.209.077.356 3.626-.952 6.769-1.428 9.428-1.428.052 0 .138.022.258.067a.85.85 0 0 0 .26.066c.034 0 .115-.021.246-.066.129-.045.211-.067.246-.067 1.243.208 1.968.327 2.175.357.828.178 1.546.417 2.148.714l.544-.269-.362-3.3c-.171 0-.428.06-.765.178-.336.118-.598.178-.789.178.105 0-.069-.044-.517-.134-2.729-.444-4.499-.668-5.31-.668zm-5.308-9.445l-.286 1.829c2.762-.386 4.618-.579 5.567-.579.346 0 2.262.162 5.749.49.034-.148.053-.297.053-.446 0-.476-.061-.98-.182-1.517-2.814-.387-4.928-.58-6.346-.58-2.727 0-4.245.268-4.555.803zm11.445-14.574l.621.357c.087.149.26.313.518.491.26.179.449.416.57.715.018.118.026.236.026.355 0 .416-.069.833-.209 1.25l-.568.268-.233-.089-2.228 1.695c-.275.06-.691-.119-1.242-.535a1.696 1.696 0 0 1-.026-.313c0-.327.079-.579.233-.758.622-.685 1.069-1.204 1.346-1.563.484-.623.881-1.247 1.192-1.873zM117.246 32.7c.088.209.399.536.937.981.433.358.65.894.65 1.606 0 .061-.079.446-.234 1.161v2.854c.673.06 1.44.209 2.305.445.949.358 2.097.729 3.445 1.116l2.536.046.233 1.159c-.224.715-.595 1.279-1.113 1.695-.794.625-1.243.997-1.346 1.115-.535-.326-1.348-.728-2.436-1.205-1.209-.504-2.02-.757-2.433-.757-.141 0-.278.147-.416.445-.137.298-.205.565-.205.803l.023.224c1.832-.029 3.351.416 4.559 1.339l.363 1.384c-.363.654-.639.98-.829.98l-.129-.044c-.347-.179-.865-.401-1.555-.669-.241 0-.725-.149-1.45-.447l-.466.223-.415-.356-.233.313-1.923-.18-.571.313-.104.178c-.019.208-.053.52-.104.937l.313.269.285-.179c.088.06.19.118.313.179l1.896.401c.484.029.976.075 1.476.134.502.06.959.357 1.372.893l.104 1.07-1.009.938c-.536-.268-1.244-.462-2.125-.581-1.144-.148-1.87-.267-2.183-.356l-.494.401c0 .09-.014.247-.038.469a4.662 4.662 0 0 0-.041.514c0 .208.045.387.131.536.659-.061 2.285.073 4.878.401 1.002.088 1.994.193 2.98.312 1.224.178 2.207.565 2.951 1.16 0 .506.086.907.257 1.205a59.62 59.62 0 0 0-.854 1.114c-.12.357-.283.58-.49.67-.259.089-.406.163-.44.224l-.233-.18-.362.18c-.14-.061-.69-.416-1.657-1.071-.708-.447-1.262-.669-1.658-.669-.207 0-.404.06-.596.178a281.131 281.131 0 0 1 1.243 2.499c.467 1.042.742 1.993.829 2.855-.018.388-.087.997-.207 1.829-1.329-1.131-2.962-3.792-4.897-7.986a1.296 1.296 0 0 0-.65-.178c.139 0-.277.119-1.248.355l-.051.18c.016.296.051.535.104.713-.209 2.679-.269 4.358-.182 5.042-.037.091-.138.61-.313 1.562-.12.805-.355 1.368-.702 1.696l-.338-.223c-.382-1.965-.572-3.243-.572-3.838 0-.564.017-1.354.051-2.364a91.28 91.28 0 0 0 .054-2.41l-.027-.535c-.277-.118-.501-.178-.677-.178-1.019 0-1.728.088-2.125.268-.155.088-.303.289-.44.602-.138.313-.268.603-.389.87-.172.268-.414.655-.725 1.159-.433.923-.864 1.846-1.295 2.768-.553 1.041-1.114 1.592-1.685 1.65l-.232-.803c.173-.863.406-1.622.699-2.275.689-1.488 1.036-2.319 1.036-2.499a.635.635 0 0 1-.052-.179c-.742 0-2.046.714-3.911 2.141l-.465-.268-.233-1.07c0-.444.086-.966.259-1.561.274-.951.414-1.443.414-1.473l.259.223.984-.58.182.58c.897-.476 2.271-1.056 4.119-1.74.965-.088 2.436-.268 4.408-.535l-.104-1.562-.339-.224c-1.125.119-1.965.253-2.517.401-.966.209-1.786.521-2.461.937a35.608 35.608 0 0 0-.179-1.07l-.105-.134c.069-.832.105-1.279.105-1.339.066-.535.197-.892.388-1.07.017.029.064.156.143.38.078.223.149.335.219.335.052 0 .086-.015.104-.046 1.036-.268 2.583-.609 4.642-1.025l-.235-.893.208-.625c-.243-.208-.589-.313-1.04-.313-.501 0-1.248.172-2.241.514s-1.74.514-2.24.514c-.275.236-.492.356-.648.356-.103 0-.276-.431-.518-1.293.19-.418.415-1.221.675-2.411l.103.045c.088.179.209.433.363.759a20.38 20.38 0 0 1 1.243-.401c.518-.179.948-.269 1.294-.269.155 0 .303.016.441.045l-.286-2.23c-1.916.12-3.471.789-4.661 2.008l-.232-.09c-.604.417-1.537.953-2.796 1.607-.192-.268-.261-.626-.209-1.071l.232-2.231c.588-.773 1.184-1.219 1.787-1.339l.182.09c.069.118.138.224.207.313 1.313-.892 3.125-1.532 5.439-1.92.346-.028.862-.134 1.554-.312 0-2.082-.155-3.346-.466-3.792.104-.834.396-1.562.877-2.187l1.343 1.472c-.207 1.488-.313 2.648-.313 3.48 0 .239.01.491.027.759.139-.03.96.045 2.46.224 0-.03-.027-.773-.079-2.231-.034-.952-.155-1.636-.36-2.052l.31-.894c-.004-.536.195-.996.593-1.383zm-7.003 1.072c.173.386.328.638.467.757.24.18.405.328.491.447v1.204c-.467.506-.742.758-.829.758-.051 0-.103-.028-.154-.088-.448.327-1.057.588-1.826.78-.768.193-1.309.395-1.618.603l-1.294-.58v-.447l.336-.98c.275-.179 1.026-.521 2.254-1.026.912-.388 1.639-.864 2.173-1.428zm4.584 7.852c-.14 0-.354.03-.647.09-.293.06-.517.089-.674.089a.417.417 0 0 0-.232.089l-.078.179.078 1.919.338.535.361-.134.544.178c1.036 0 1.641-.044 1.813-.134.484-.297.812-1.101.983-2.409a32.607 32.607 0 0 1-1.242-.223c-.536-.118-.951-.179-1.244-.179zm5.49-7.14c1.208.299 3.005.923 5.386 1.875 0 1.249-.481 1.874-1.449 1.874h-1.165l-.829-.269c-1.434-.476-2.235-1.294-2.408-2.453l.465-1.027z"/><path fill="#522F60" d="M138.074 33.552c.104.148.465.313 1.087.49.5.119.847.566 1.036 1.339l-.182 1.161c-.225.06-.366.236-.427.535a9.524 9.524 0 0 0-.143.938l.233.669c.43-.298 1.07-.447 1.916-.447.189 0 1.175.09 2.953.27 1.189.148 2.001.283 2.433.402.882.269 1.642.776 2.28 1.522l.076 1.119a23.11 23.11 0 0 1-.828 1.517l-.854.313c-1.536-.803-3.211-1.324-5.023-1.562-.069 0-.19-.03-.363-.09a1.353 1.353 0 0 0-.389-.089c-.81 0-1.527.09-2.148.268-.139.208-.233.624-.285 1.25-.069.863-.111 1.339-.13 1.427.311.09 1.054.164 2.228.224.933.03 1.648.208 2.149.535.018-.237.095-.498.232-.78.139-.283.268-.425.388-.425.329 0 .934.477 1.813 1.429-.068.863-.389 1.547-.957 2.052-.502.388-.992.773-1.477 1.161-.294.327-.734.951-1.321 1.873-.587.923-.94 1.592-1.061 2.008.948.863 2.408 2.053 4.375 3.57.639.446 1.434.848 2.384 1.205a85.6 85.6 0 0 0 2.434.937c.139-.029.363-.208.675-.535l.389.356c-.035.803-.054 1.13-.054.982 0 .415.026.714.079.891a2.94 2.94 0 0 1-.597.895c-.26.268-.509.52-.752.758-.137.179-.508.937-1.112 2.274l-.699.357c-.743-.564-1.579-1.382-2.512-2.453a243.072 243.072 0 0 1-2.384-2.812c-1.312-1.517-2.659-2.751-4.039-3.703-.328.06-.682.313-1.062.757-.311.419-.621.82-.933 1.206-.243.298-.898.861-1.968 1.696-.449.355-.82.639-1.113.847-.104.06-.424.164-.958.312a5.555 5.555 0 0 1-.57.313c-.639.298-1.149.669-1.527 1.116l-.468-.225c-.414.091-.689.239-.828.447l-.336-.046-.726.268c-.363-.236-.716-.616-1.063-1.138-.344-.52-.586-.839-.724-.958l.025-1.116-.258-.268.232-.803.829-.356c.621.445 1.294.669 2.02.669.259 0 1.105-.401 2.538-1.204 1.295-.686 2.183-1.205 2.667-1.563.898-.624 1.58-1.278 2.046-1.962-.275-.684-.879-1.511-1.813-2.477-.932-.968-1.622-1.45-2.072-1.45-.154 0-.319.045-.49.134a9.478 9.478 0 0 0-.313-1.785l.13-.356-.026-.625.597-.848.518.179c.38-.357 1.027-.594 1.941-.714 1.071-.148 1.762-.297 2.072-.446l-.337-2.856c-1.104.06-2.702.461-4.791 1.204-.948.359-1.415.536-1.398.536-.069 0-.18-.021-.336-.067a1.484 1.484 0 0 0-.337-.066c-.139 0-.479.291-1.023.871-.544.579-.919.914-1.127 1.004l-.31-.402-.052-.625c0-.684.086-1.353.258-2.007a4.16 4.16 0 0 1-.052-.67l.052-.089c.088-.357.26-.581.52-.671.257-.09.508-.165.75-.225l.286.225a18.815 18.815 0 0 1 1.656-.672c.345-.06.854-.179 1.527-.358.812-.328 2.305-.717 4.482-1.164.066-.238.094-.566.076-.983s-.001-.699.052-.85l-.492-2.587c.054-.508.323-.835.806-.983zm-.803 14.23c-.881 0-1.458.134-1.734.401 1.242 1.278 2.33 2.261 3.263 2.944 1.209-.743 2.21-1.844 3.004-3.302-.381-.297-.993-.386-1.839-.268-1.021.151-1.918.225-2.694.225z"/><path d="M158.266 49.834a2.061 2.061 0 0 1-.544.714c-.328.298-.536.492-.621.58v1.205c0 1.546-.105 2.93-.313 4.148-.258 1.458-.634 2.529-1.126 3.214s-.986 1.368-1.487 2.052c-.641.834-1.192 1.398-1.658 1.695-.121.061-.562.149-1.32.268l-.441-1.428c.069-.535.526-1.263 1.373-2.186 1.122-1.249 1.881-2.217 2.279-2.9a8.665 8.665 0 0 0 1.139-4.551v-.313a16.831 16.831 0 0 0-1.968 1.739c-.26.269-.586.723-.983 1.361-.396.64-.698 1.079-.907 1.315l-.569.046c-.208-.655-.311-1.041-.311-1.16 0-.09.017-.179.052-.268l.026-.401-.26-1.205.466-1.206c.362-.236 1.097-.877 2.202-1.918.897-.861 1.647-1.412 2.252-1.65.08-.238.12-.564.12-.981 0-.179-.034-1.115-.098-2.812-.412.061-.825.12-1.238.179-.501.06-.864.343-1.089.847l-.725-.088c-.155-.208-.241-.506-.26-.893-.017-.535-.043-.862-.077-.981 0-.268.155-.774.466-1.518.12.031.251.046.389.046.052 0 .911-.208 2.579-.625 0-.506.055-1.235.162-2.187-.035-.207-.052-.714-.052-1.518 0-.951-.138-1.531-.415-1.739a1.47 1.47 0 0 1-.052-.401c0-.357.103-.641.312-.849.19-.118.39-.237.598-.356.069.119.33.297.783.535.311.179.501.609.569 1.293-.398 1.606-.596 2.96-.596 4.061 0 .298.016.609.051.938.43 0 .878.268 1.344.803l.259.849-.156.98-.698.402-.233-.179-.388.179c-.085.119-.127.343-.127.669-.018.417-.035.67-.051.759l.127 1.562c.639 0 1.068.224 1.294.67l-.079 1.204zm10.331-17.094c.275.179.706.58 1.293 1.205l-.025.848c-.552.566-.88.878-.984.937l-.283-.177c-.449.088-.899.193-1.349.311-.552.15-.966.463-1.242.938.396.505.596.967.596 1.382-.068.627-.234 1.563-.491 2.811l3.469.313 1.788-.313c.396-.059.75.18 1.062.715l.182.849c-.139.06-.393.327-.765.803-.373.476-.66.684-.867.624a.36.36 0 0 1-.182.046c-.016 0-.155-.03-.415-.09-.171-.06-.302-.044-.388.044-.277-.088-.933-.134-1.968-.134a.656.656 0 0 1-.234-.066.65.65 0 0 0-.232-.067c-.035 0-.216.03-.543.09-.227.06-.406.044-.545-.045l-.595.223.129.581-.207.758-.389.492 1.995-.046c.292 0 .724.031 1.294.091.569.06 1.002.089 1.295.089.276 0 .687-.074 1.23-.224.543-.149.954-.224 1.229-.224.259 0 .716.208 1.372.626l-.024.449.103.63a108.34 108.34 0 0 1-1.993 2.509c-1.951-.743-3.324-1.116-4.119-1.116l-.284.18c-.174-.149-.449-.226-.827-.226a2.79 2.79 0 0 0-.506.067 2.66 2.66 0 0 1-.505.067c-.69 0-1.148.091-1.373.269-.294.268-.544.921-.752 1.963.294.179.406.268.337.268.328 0 1.219-.193 2.667-.58.554-.06 1.383-.134 2.486-.223.035-.357.2-.535.492-.535.104.268.307.557.608.87.303.312.506.616.608.914v.134c.018.387-.129.878-.439 1.473-.467 0-.867.319-1.204.959a34.647 34.647 0 0 0-.945 1.94c.226.09.575.381 1.05.87.474.492.858.796 1.151.916.553.268 1.666.564 3.341.891l1.062.09c.431.03.777.149 1.036.357v.447c0 1.605-.889 3.286-2.667 5.04-1.468-1.517-3.687-3.688-6.656-6.514-.673.655-1.692 1.548-3.056 2.678-.327.237-.824.497-1.489.78-.666.283-1.152.543-1.463.78-.121-.147-.251-.222-.388-.222h-.156a.483.483 0 0 1-.155.044c-.225 0-.466-.491-.727-1.474l.598-.803c1.674-.236 3.442-1.382 5.31-3.435-.519-.715-1.263-1.829-2.229-3.347-.983 1.636-1.968 3.272-2.952 4.907-1.191 1.934-2.279 3.303-3.265 4.106l-.698-.134c-.293-.031-.439-.194-.439-.491 0-.743.155-1.354.466-1.83.276-.297.691-.757 1.242-1.384.967-1.159 1.978-2.571 3.031-4.237 1.381-2.173 2.191-3.822 2.433-4.953-1.207.06-2.45.653-3.728 1.784-.14-.148-.207-.595-.207-1.339 0-.476-.009-.817-.026-1.025l.13-.494c1.276-.959 2.952-1.633 5.023-2.022l.182-.716-.131-.625.053-.445a2.312 2.312 0 0 0-.441-.044c-.361 0-.621.147-.775.445l-.415-.178c-.189.06-.578.253-1.164.579-.501.268-.899.401-1.191.401l-.362-1.562.155-.937.31-.715.26-.177.259.356c.311-.089.769-.297 1.372-.624-.051-.06-.25-.611-.596-1.651-.154-.208-.354-.596-.595-1.161l.052-.401c-.104-.268-.272-.416-.506-.445-.232-.03-.356-.148-.375-.357.189-.445.544-.861 1.063-1.249.31-.239.759-.446 1.346-.626.76-.268 1.226-.444 1.398-.535 1.082-.683 2.74-1.59 4.969-2.721zm-5.829 5.448l-.438.49c.138.655.205 1.637.205 2.945.64-.118 1.599-.327 2.876-.625a87.525 87.525 0 0 0-.389-1.963c-.138-.238-.302-.625-.491-1.16a.755.755 0 0 1-.027-.356c-1.054.506-1.633.729-1.736.669zm1.969 15.127c.363.327.896.803 1.606 1.427.326-.564.732-1.159 1.216-1.785h-.491a3.746 3.746 0 0 0-.467-.044c-.828 0-1.45.135-1.864.402zm5.257-16.912c.139.149.354.283.647.401.207.091.423.328.647.715l.078.848-.232.625c-.26.06-.614.313-1.063.757-.57.627-.906.982-1.01 1.071-.311-.089-.484-.134-.517-.134a.834.834 0 0 1-.209.134l-.077-.089.932-2.454-.129-.669.129-.624.804-.581z"/><path fill="#ABABAB" d="M89.698 96.474c-.474.579-.958.938-1.448 1.069-.222.053-.563.157-1.021.315-.224.132-.563.279-1.024.437-.568.078-.964.143-1.186.197a3.736 3.736 0 0 0-1.166.476c-.126-.265-.229-.673-.308-1.229-.063-.368-.167-.618-.309-.751a5.68 5.68 0 0 1-.023-.473c0-.557.106-1.068.319-1.544.214-.476.486-.714.82-.714.967.054 2.266.054 3.897 0 .664-.025 1.114.029 1.354.16.429.21.761.711.998 1.504-.331.053-.633.238-.903.553zm8.532 2.177c-4.342 7.227-8.556 11.774-12.643 13.648l-1.284-1.464a5.133 5.133 0 0 1-.072-.792c0-.526.248-1.503.738-2.93.713-.341 1.435-.685 2.162-1.026a16.441 16.441 0 0 0 2.114-1.266c1.316-1.003 3.249-3.164 5.798-6.489.303-.394 1.11-1.647 2.426-3.757.966-1.558 1.837-2.664 2.612-3.323l.57.276c-.127 2.269-.932 4.643-2.421 7.123zm-6.203-9.426c-.301.553-.546.804-.735.752l-4.063-.91c-.063 0-.184.06-.358.178-.173.119-.308.177-.402.177l-.191-.039-.38-1.936c-.063-.236-.032-.58.095-1.027.253-.921.816-1.384 1.688-1.384.206 0 .451.107.737.317.379.237.625.368.737.396.411.13 1.066.38 1.97.748.919.449 1.507 1.136 1.76 2.058-.32-.001-.604.221-.858.67zM124.818 110.125l-1.046.91c-1.282-.688-2.651-2.084-4.11-4.196-1.203-1.817-2.399-3.64-3.589-5.458-.236.265-1.543 1.977-3.921 5.144-1.535 2.03-2.976 3.426-4.324 4.19-.063-.156-.197-.289-.402-.394a18.59 18.59 0 0 1-1.093-.515c-.492-.212-.816-.434-.975-.671-.05-.081-.166-.556-.358-1.426.223-.739.651-1.227 1.283-1.462a21.715 21.715 0 0 0 1.593-.457c.523-.17 1.259-.783 2.209-1.84 2.091-2.269 3.621-4.233 4.587-5.895.729-1.239 1.895-3.692 3.494-7.357l-.404-.159c-.571.132-1.26.238-2.067.315-.744.132-1.854.344-3.328.635l-1.401.235a2.289 2.289 0 0 0-1.259.952l-.355-.276c0-1.505-.04-2.454-.121-2.85.033-.818.312-1.44.833-1.859.144-.106.626-.356 1.449-.751.254.633.443.933.571.91l5.773-.99.237-.04c.255 0 .523.105.808.316.031-.027.261-.383.69-1.068.269-.421.521-.633.761-.633a.85.85 0 0 1 .332.081c.095.314.375.646.844.987.466.343.81.764 1.033 1.267-.998 1.662-1.648 2.86-1.948 3.599a95.734 95.734 0 0 1-1.141 3.048c-.126.288-.508.989-1.14 2.098-.509.896-.825 1.634-.951 2.213a211.342 211.342 0 0 1 2.637 3.207c.935 1.054 1.956 1.765 3.065 2.135 1 .212 2.495.672 4.489 1.385-.253.793-.723 1.614-1.413 2.472-.687.859-1.136 1.591-1.342 2.198zM149.935 98.295c-.207.053-.479.306-.819.752-.341.451-.653.674-.939.674-.172 0-.585-.17-1.235-.513-.759-.423-1.221-.66-1.377-.713-.303.025-.746-.015-1.33-.118l-.429.155-.81-.353c-.173.289-.347 1.107-.521 2.45a735.63 735.63 0 0 1-.286 1.819c-.126.686-.274 1.252-.45 1.701a16.861 16.861 0 0 1-2.067 3.677c-.919 1.238-1.806 2.058-2.661 2.454-1.457.711-2.526 1.066-3.208 1.066-.237 0-.896-.092-1.973-.278l-.332-1.225c.046-1.583.461-2.584 1.235-3.008.317-.159 1.085-.236 2.307-.236.505 0 1.062-.118 1.661-.356.761-.316 1.584-1.043 2.471-2.177.999-1.292 1.498-2.48 1.498-3.562 0-.08-.008-.198-.025-.355l-.045-.318c-.333-.419-.579-1.028-.738-1.819l-.332-.277c-.474-.027-1.179-.013-2.114.04-.351.052-1.156.288-2.425.712-1.314.449-2.083.768-2.305.949-.221.185-.411.516-.57.989l-.404.239-.547-.08-.216-1.306c.143-1.027.271-1.769.384-2.216.189-.818.451-1.424.783-1.82 1.219-.264 3.049-.635 5.489-1.108.664-.106 1.633-.158 2.899-.158 1.283 0 3.952.289 8.008.871.032 0 .079-.028.142-.079l.237-.079.237.079c.048.027.103.051.169.079l1.163-.158.619.435c-.097.474-.288 1.038-.573 1.685-.287.647-.477 1.143-.571 1.486zm-2.9-9.97c-.076 1.108-.695 1.661-1.852 1.661a9.18 9.18 0 0 1-1.235-.118c-.541-.079-.944-.119-1.213-.119-.127 0-.293-.026-.501-.078a4.002 4.002 0 0 1-.497-.119 10.342 10.342 0 0 0-1.593-.118c-.237 0-.951.09-2.137.276-1.189.183-1.832.316-1.925.396-.016 0-.108.119-.274.356s-.305.345-.418.316l-.497-.197-.401-1.504c.091-1.397.457-2.229 1.091-2.492.253 0 .633-.068 1.141-.198 1.237-.555 2.678-.778 4.323-.673 1.983.131 3.002.198 3.065.198 1.143.21 2.125.686 2.948 1.424.001.238-.008.566-.025.989zM172.652 109.957c-.223 0-.518-.079-.88-.236a20.404 20.404 0 0 0-.854-.317c-.365-.053-1.634-.198-3.802-.436-1.458-.157-2.274-.237-2.449-.237-3.421 0-6.265 1.056-8.531 3.165-.601-.869-.902-2.294-.902-4.272 0-.264.136-.581.406-.949.425-.213.757-.305.996-.278.556-.474 1.075-1.387 1.569-2.732.378-1.107.76-2.215 1.139-3.322.336-.819.816-2.057 1.45-3.72.191-.604.482-1.503.88-2.69.362-1.027.616-1.806.759-2.334.271-.87.47-1.688.595-2.453l-.045-.118a1.502 1.502 0 0 1-.239-.79c0-.818.252-1.452.759-1.898.476-.265.942-.528 1.401-.793.414.291.991.66 1.734 1.108.224.343.336.898.336 1.662 0 .423-.199.91-.597 1.463-.301.397-.604.793-.902 1.187-.997 1.769-2.225 4.843-3.685 9.218-.329.792-.664 1.583-.996 2.374-.411 1.003-.634 1.848-.666 2.532 1.203-.342 2.654-.514 4.35-.514 2.741 0 4.689.213 5.846.633-.269-1.32-.569-2.203-.903-2.651a42.72 42.72 0 0 1-.736-.989 11.292 11.292 0 0 1-.593-1.305c.158-1.135.585-1.805 1.28-2.019.239.107.581.305 1.023.594.017 0 .254.344.712 1.028.208.238.516.634.927 1.188.318.475.705 1.529 1.163 3.165a43.87 43.87 0 0 1 .882 3.523 4.138 4.138 0 0 1-.523 1.523c-.271.459-.575.69-.904.69z"/><path d="M88.887 95.124c-.475.58-.957.936-1.449 1.068-.221.053-.563.158-1.021.315-.222.132-.561.278-1.021.436-.569.08-.967.146-1.188.198a3.793 3.793 0 0 0-1.165.476c-.128-.264-.23-.674-.31-1.227-.062-.368-.164-.621-.309-.751a6.773 6.773 0 0 1-.023-.476c0-.556.106-1.068.32-1.544.216-.474.488-.711.82-.711.967.051 2.267.051 3.896 0 .667-.026 1.119.025 1.354.158.429.212.761.712 1 1.503-.334.053-.634.238-.904.555zm8.531 2.176c-4.34 7.227-8.555 11.776-12.641 13.65l-1.284-1.465a4.99 4.99 0 0 1-.071-.791c0-.529.245-1.504.737-2.927.711-.345 1.433-.686 2.162-1.03a16.647 16.647 0 0 0 2.115-1.265c1.313-1.002 3.246-3.165 5.797-6.489.301-.396 1.109-1.648 2.424-3.759.967-1.554 1.837-2.662 2.614-3.323l.569.277c-.125 2.268-.932 4.641-2.422 7.122zm-6.202-9.426c-.3.554-.545.804-.736.75l-4.063-.908c-.063 0-.182.058-.355.178-.176.118-.311.177-.405.177l-.189-.038-.379-1.936c-.066-.238-.032-.579.095-1.027.252-.923.815-1.382 1.687-1.382.206 0 .451.104.735.315.38.236.627.366.738.394.41.131 1.068.382 1.971.749.92.449 1.507 1.134 1.76 2.057-.321-.001-.606.222-.859.671zM124.008 108.773l-1.045.908c-1.284-.685-2.653-2.082-4.112-4.192a947.167 947.167 0 0 1-3.587-5.46c-.237.265-1.546 1.979-3.921 5.142-1.538 2.032-2.979 3.433-4.324 4.196-.064-.159-.198-.291-.405-.396a21.052 21.052 0 0 1-1.093-.514c-.49-.211-.815-.436-.975-.675-.045-.076-.166-.552-.355-1.422.222-.739.648-1.227 1.283-1.464a21 21 0 0 0 1.592-.456c.521-.171 1.26-.784 2.21-1.84 2.091-2.268 3.62-4.232 4.587-5.895.728-1.238 1.894-3.69 3.491-7.358l-.402-.158c-.571.131-1.261.237-2.067.316-.745.133-1.854.344-3.328.632l-1.4.239a2.29 2.29 0 0 0-1.262.949l-.355-.277c0-1.503-.04-2.452-.118-2.849.031-.817.31-1.436.832-1.859.143-.104.626-.354 1.45-.751.253.633.442.937.568.91l5.773-.989.239-.041c.255 0 .521.107.809.318.031-.026.26-.383.688-1.069.27-.423.523-.634.76-.634.095 0 .207.028.334.081.095.314.376.645.842.988a3.12 3.12 0 0 1 1.035 1.266c-1 1.662-1.647 2.863-1.95 3.602a92.495 92.495 0 0 1-1.139 3.046c-.128.291-.507.99-1.142 2.097-.507.896-.824 1.634-.95 2.216a194.626 194.626 0 0 1 2.638 3.205c.935 1.055 1.957 1.767 3.064 2.136.999.211 2.496.672 4.493 1.385-.256.791-.726 1.614-1.416 2.473-.689.856-1.136 1.586-1.342 2.194zM149.122 96.943c-.203.054-.477.304-.818.752-.341.451-.651.676-.938.676-.176 0-.585-.174-1.237-.516-.761-.422-1.22-.658-1.377-.711-.301.026-.743-.011-1.33-.118l-.428.158-.808-.356c-.176.291-.35 1.107-.523 2.453l-.283 1.819c-.128.684-.28 1.251-.452 1.699a16.812 16.812 0 0 1-2.069 3.678c-.919 1.239-1.804 2.056-2.66 2.451-1.458.713-2.525 1.068-3.209 1.068-.237 0-.894-.095-1.97-.276l-.334-1.228c.047-1.581.458-2.584 1.236-3.007.316-.158 1.083-.236 2.305-.236.506 0 1.062-.119 1.664-.356.761-.316 1.585-1.041 2.47-2.176.998-1.294 1.498-2.481 1.498-3.564 0-.076-.01-.194-.025-.353l-.047-.318c-.333-.422-.577-1.026-.735-1.819l-.334-.278c-.475-.025-1.18-.013-2.115.04-.348.053-1.156.29-2.425.711-1.314.45-2.081.768-2.304.953-.222.182-.41.514-.569.988l-.405.237-.547-.078-.214-1.306c.144-1.031.271-1.769.383-2.218.188-.819.449-1.426.783-1.821a287.88 287.88 0 0 1 5.49-1.108c.663-.104 1.63-.158 2.897-.158 1.284 0 3.954.292 8.007.871.032 0 .079-.025.143-.079l.237-.079.238.079c.048.027.102.054.169.079l1.161-.158.617.435c-.095.478-.283 1.038-.569 1.686-.287.645-.476 1.142-.573 1.484zm-2.898-9.968c-.075 1.107-.695 1.662-1.852 1.662-.283 0-.698-.04-1.237-.12-.538-.078-.943-.117-1.21-.117-.129 0-.294-.025-.5-.08-.271-.052-.435-.091-.498-.119a10.466 10.466 0 0 0-1.595-.118c-.237 0-.948.093-2.136.276-1.19.187-1.83.317-1.928.396-.014 0-.106.119-.272.359-.166.234-.305.34-.415.313l-.498-.198-.407-1.501c.099-1.399.461-2.229 1.095-2.495.253 0 .635-.066 1.141-.197 1.235-.555 2.678-.777 4.326-.672 1.98.132 3.001.198 3.065.198 1.142.212 2.122.687 2.948 1.425 0 .236-.01.565-.027.988zM171.842 108.605c-.224 0-.519-.079-.88-.235a20.834 20.834 0 0 0-.855-.317c-.365-.051-1.633-.198-3.805-.437-1.456-.156-2.269-.235-2.445-.235-3.42 0-6.267 1.056-8.53 3.164-.604-.87-.903-2.292-.903-4.273 0-.261.135-.581.402-.949.427-.21.761-.304 1-.277.554-.474 1.078-1.387 1.568-2.73.379-1.109.761-2.218 1.14-3.321.332-.819.816-2.059 1.448-3.722.191-.607.484-1.502.882-2.69.363-1.027.616-1.805.759-2.334.27-.868.466-1.688.595-2.451l-.047-.119a1.533 1.533 0 0 1-.239-.791c0-.818.254-1.452.761-1.9.479-.263.942-.528 1.401-.79.413.288.99.658 1.734 1.106.224.345.334.896.334 1.661 0 .424-.197.911-.594 1.465l-.903 1.186c-.999 1.77-2.226 4.842-3.682 9.22-.335.79-.667 1.582-1.001 2.372-.408 1.002-.632 1.847-.664 2.535 1.204-.345 2.654-.517 4.348-.517 2.741 0 4.689.212 5.846.633-.269-1.318-.568-2.202-.902-2.651-.38-.499-.625-.829-.735-.99-.174-.314-.374-.75-.595-1.304.158-1.133.585-1.807 1.28-2.016.241.105.581.302 1.024.593.016 0 .252.342.713 1.028.206.237.516.634.927 1.187.316.474.704 1.529 1.164 3.166.381 1.318.674 2.492.878 3.522a4.162 4.162 0 0 1-.522 1.523c-.27.46-.57.688-.902.688z"/><linearGradient id="b" gradientUnits="userSpaceOnUse" x1="100.613" y1="47.404" x2="155.866" y2="102.656"><stop offset="0" stop-color="#ead18f"/><stop offset=".076" stop-color="#e1c477"/><stop offset=".221" stop-color="#d1af4e"/><stop offset=".335" stop-color="#c8a235"/><stop offset=".405" stop-color="#c49d2c"/><stop offset=".559" stop-color="#d4b35c"/><stop offset=".766" stop-color="#e7cd97"/><stop offset=".919" stop-color="#f3debb"/><stop offset="1" stop-color="#f8e4c9"/></linearGradient><path opacity=".8" fill="url(#b)" d="M79.486 68.53h97.506v12.999H79.486z"/><path d="M84.58 70.776v2.75h-.134c-.042-.527-.119-.949-.229-1.262a1.79 1.79 0 0 0-.472-.744c-.203-.184-.415-.275-.635-.275-.246 0-.45.123-.611.371s-.241.529-.241.846c0 .242.051.463.152.662.147.293.498.682 1.052 1.17.45.398.758.703.923.916.167.213.293.465.382.754s.134.592.134.908c0 .602-.141 1.119-.425 1.555-.283.436-.646.654-1.092.654-.139 0-.271-.018-.393-.055a2.72 2.72 0 0 1-.458-.219c-.229-.125-.376-.188-.438-.188-.061 0-.105.029-.142.09-.034.059-.059.184-.075.371h-.134v-2.727h.134c.061.57.145.996.247 1.279.104.283.265.518.478.705.215.188.449.281.704.281.297 0 .529-.129.702-.387.171-.258.256-.563.256-.914a1.93 1.93 0 0 0-.097-.592 1.76 1.76 0 0 0-.305-.557c-.093-.117-.346-.365-.76-.746-.412-.379-.706-.682-.882-.908a2.578 2.578 0 0 1-.394-.748 2.84 2.84 0 0 1-.135-.902c0-.57.133-1.061.397-1.473.267-.412.604-.617 1.013-.617.258 0 .529.104.815.313.132.1.227.148.28.148.062 0 .112-.031.152-.092.039-.061.069-.184.093-.369h.138zM87.356 78.126c-.333.426-.542.672-.629.738a.652.652 0 0 1-.407.146c-.223 0-.41-.127-.556-.381-.145-.256-.217-.59-.217-1.004 0-.262.034-.488.105-.68.098-.266.266-.518.507-.752.239-.234.639-.52 1.196-.855v-.211c0-.535-.051-.902-.153-1.1-.101-.199-.251-.299-.446-.299a.405.405 0 0 0-.354.199.791.791 0 0 0-.134.455l.007.34c0 .178-.027.316-.083.414-.057.098-.132.146-.222.146-.088 0-.161-.051-.218-.152a.867.867 0 0 1-.083-.416c0-.336.104-.645.313-.924.209-.281.5-.422.877-.422.289 0 .526.08.711.24.141.121.243.311.309.568.043.168.064.512.064 1.029v1.822c0 .512.005.824.018.939.012.115.031.193.059.232s.06.059.095.059a.142.142 0 0 0 .1-.041c.05-.051.146-.193.288-.428v.328c-.266.588-.519.883-.762.883-.115 0-.207-.066-.277-.199-.069-.129-.106-.356-.108-.674zm0-.381v-2.047c-.356.234-.588.4-.691.498-.187.172-.32.352-.4.539s-.12.393-.12.615c0 .283.051.516.151.701.103.186.22.279.353.279.179.001.414-.194.707-.585zM89.871 70.565v7.125c0 .334.015.557.045.666.029.109.075.191.137.248s.175.086.345.086v.211h-1.602v-.211c.149 0 .253-.025.307-.076.056-.051.099-.135.13-.252s.047-.342.047-.672v-4.883c0-.602-.009-.973-.024-1.109-.018-.139-.045-.232-.081-.283s-.083-.076-.141-.076a.456.456 0 0 0-.234.094l-.061-.211.973-.656h.159zM91.313 75.558c-.001.797.116 1.422.353 1.875.235.453.515.68.834.68.213 0 .398-.096.555-.287.158-.193.29-.523.396-.994l.108.117a3.702 3.702 0 0 1-.433 1.461c-.238.438-.539.656-.899.656-.391 0-.725-.252-1.003-.754s-.416-1.176-.416-2.023c0-.918.141-1.635.428-2.148.284-.514.644-.77 1.073-.77.364 0 .665.197.898.596.235.396.352.928.352 1.592h-2.246zm0-.344h1.508c-.012-.344-.037-.586-.075-.727a1.208 1.208 0 0 0-.264-.516c-.117-.125-.24-.188-.369-.188-.195 0-.372.125-.527.377-.154.253-.245.605-.273 1.054zM96.099 73.37v1.828h-.119c-.09-.576-.206-.967-.348-1.174-.141-.207-.318-.311-.535-.311a.468.468 0 0 0-.401.217.815.815 0 0 0-.152.48c0 .221.037.408.113.564.072.16.222.33.447.512l.519.416c.481.387.721.896.721 1.531 0 .488-.111.883-.336 1.182-.224.299-.473.449-.75.449-.2 0-.428-.059-.684-.176a.456.456 0 0 0-.191-.059c-.054 0-.097.049-.127.148h-.119v-1.914h.119c.065.547.192.961.379 1.238.188.279.397.418.629.418.164 0 .297-.08.4-.238.102-.158.154-.35.154-.572 0-.271-.057-.498-.171-.682-.116-.186-.346-.418-.69-.699-.341-.281-.568-.535-.675-.762-.106-.223-.16-.504-.16-.846 0-.441.092-.811.276-1.107.183-.297.419-.445.711-.445.128 0 .283.045.465.137.121.061.201.09.241.09a.106.106 0 0 0 .09-.043.665.665 0 0 0 .075-.184h.119zM99.906 71.394v3.117h.875c.202 0 .349-.074.442-.221.095-.145.157-.438.188-.873h.133v2.695h-.133c-.002-.311-.026-.537-.071-.682a.75.75 0 0 0-.193-.328c-.081-.072-.203-.107-.365-.107h-.875v2.5c0 .4.015.666.045.795a.497.497 0 0 0 .15.252.481.481 0 0 0 .326.141h.173v.219h-2.068v-.219h.171c.199 0 .344-.096.435-.287.058-.125.085-.426.085-.9v-5.133c0-.402-.014-.668-.046-.797a.492.492 0 0 0-.146-.25.48.48 0 0 0-.328-.141h-.171v-.219h3.58l.054 1.75h-.125c-.06-.371-.133-.645-.214-.818-.083-.174-.183-.299-.303-.377s-.305-.117-.556-.117h-1.063zM104.289 73.37c.493 0 .889.309 1.188.926.253.529.379 1.135.379 1.818 0 .48-.069.969-.209 1.461s-.333.863-.577 1.115c-.245.25-.518.375-.819.375-.49 0-.878-.322-1.168-.969-.244-.543-.366-1.152-.366-1.83 0-.492.074-.982.222-1.469s.344-.846.584-1.08c.24-.232.497-.347.766-.347zm-.109.383c-.126 0-.251.061-.376.184-.128.125-.23.34-.308.648-.078.311-.118.707-.118 1.191 0 .783.094 1.457.282 2.023.188.568.436.852.742.852.229 0 .419-.156.567-.469.148-.314.223-.852.223-1.613 0-.955-.124-1.705-.371-2.254-.168-.375-.381-.562-.641-.562zM107.286 73.37v1.207c.272-.805.552-1.207.839-1.207.13 0 .237.064.321.195.087.131.13.283.13.455 0 .152-.031.281-.093.387s-.135.158-.222.158c-.082 0-.175-.068-.277-.203-.104-.137-.18-.203-.229-.203-.042 0-.088.039-.138.117-.106.16-.218.426-.331.793v2.574c0 .297.022.523.069.676a.556.556 0 0 0 .163.266c.076.07.19.105.336.105v.211h-1.671v-.211c.165 0 .288-.043.369-.129.06-.064.1-.164.123-.301.013-.066.02-.258.02-.57v-2.078c0-.627-.008-1-.022-1.119a.563.563 0 0 0-.088-.262.187.187 0 0 0-.153-.082.479.479 0 0 0-.25.088l-.036-.211.99-.656h.15zM111.52 76.858c-.087.711-.258 1.256-.516 1.637-.256.379-.538.57-.848.57-.371 0-.692-.256-.967-.77-.274-.512-.413-1.203-.413-2.076 0-.844.151-1.531.456-2.059s.669-.791 1.096-.791c.319 0 .582.139.788.42.205.279.309.568.309.871a.66.66 0 0 1-.087.359.272.272 0 0 1-.243.139c-.139 0-.242-.074-.313-.225-.041-.082-.068-.238-.083-.469-.012-.232-.061-.408-.143-.529a.4.4 0 0 0-.344-.176c-.236 0-.428.145-.571.434-.191.385-.287.891-.287 1.521 0 .641.096 1.207.287 1.699.19.49.445.736.77.736.233 0 .441-.131.625-.391.131-.18.256-.508.379-.984l.105.084zM112.533 75.558c-.003.797.115 1.422.351 1.875.236.453.514.68.835.68.212 0 .396-.096.555-.287.156-.193.288-.523.395-.994l.109.117a3.736 3.736 0 0 1-.434 1.461c-.24.438-.537.656-.897.656-.392 0-.726-.252-1.003-.754s-.418-1.176-.418-2.023c0-.918.144-1.635.428-2.148.285-.514.643-.77 1.074-.77.365 0 .664.197.899.596.234.396.351.928.351 1.592h-2.245zm0-.344h1.505c-.011-.344-.036-.586-.074-.727a1.198 1.198 0 0 0-.265-.516c-.118-.125-.239-.188-.368-.188-.196 0-.372.125-.526.377s-.245.605-.272 1.054zM120.139 76.245h-1.873l-.324 1.25c-.081.309-.12.537-.12.689 0 .121.033.229.103.318.07.092.222.152.454.18v.219h-1.521v-.219c.201-.059.332-.135.392-.229.121-.188.253-.568.401-1.143l1.699-6.535h.123l1.681 6.607c.135.529.258.875.367 1.031a.615.615 0 0 0 .461.268v.219h-1.9v-.219c.19-.016.32-.068.389-.158a.533.533 0 0 0 .101-.328c0-.172-.047-.441-.142-.813l-.291-1.137zm-.111-.437l-.811-3.211-.837 3.211h1.648zM125.143 73.526v3.266c0 .617.009.996.027 1.135.018.139.046.234.085.289.038.055.085.082.138.082a.445.445 0 0 0 .25-.1l.049.211-.976.656h-.16v-1.137c-.279.5-.493.814-.641.943a.698.698 0 0 1-.465.193c-.183 0-.342-.088-.476-.262s-.227-.398-.278-.672c-.053-.273-.079-.66-.079-1.16v-2.398c0-.258-.016-.436-.05-.533a.471.471 0 0 0-.146-.229c-.064-.055-.184-.078-.353-.074v-.211h1.142v3.6c0 .5.054.828.158.986.104.156.232.234.382.234.102 0 .217-.053.346-.158.128-.105.281-.309.46-.605v-3.049c0-.307-.034-.516-.103-.623-.069-.107-.21-.166-.424-.174v-.211h1.114zM126.876 71.761v1.766h.76v.414h-.76v3.482c0 .348.03.582.09.703.061.121.139.182.233.182.078 0 .153-.041.227-.121a.828.828 0 0 0 .17-.355h.139c-.084.383-.2.672-.354.865-.152.193-.309.291-.47.291a.472.472 0 0 1-.321-.15c-.104-.1-.182-.242-.231-.428s-.074-.471-.074-.859V73.94h-.518v-.195c.132-.086.267-.232.403-.438a3.62 3.62 0 0 0 .365-.732c.056-.148.134-.42.232-.814h.109zM129.544 73.37c.49 0 .888.309 1.187.926.253.529.379 1.135.379 1.818 0 .48-.07.969-.209 1.461-.14.492-.332.863-.577 1.115-.245.25-.518.375-.819.375-.49 0-.879-.322-1.169-.969-.244-.543-.366-1.152-.366-1.83 0-.492.074-.982.224-1.469.147-.486.343-.846.584-1.08.24-.232.494-.347.766-.347zm-.11.383c-.126 0-.252.061-.378.184-.126.125-.229.34-.307.648-.077.311-.116.707-.116 1.191 0 .783.094 1.457.281 2.023.188.568.437.852.742.852.229 0 .419-.156.566-.469.149-.314.225-.852.225-1.613 0-.955-.125-1.705-.372-2.254-.168-.375-.383-.562-.641-.562zM132.556 74.521c.236-.395.375-.619.418-.68.107-.148.221-.264.344-.348a.66.66 0 0 1 .365-.123c.204 0 .38.098.525.295.146.195.245.48.295.855.244-.473.45-.781.618-.93.168-.146.342-.221.519-.221.173 0 .326.072.462.221.132.146.238.385.316.719.052.227.078.582.078 1.068v2.313c0 .334.016.564.046.689a.471.471 0 0 0 .132.219c.064.061.17.092.315.092v.211h-1.611v-.211h.067c.14 0 .249-.045.326-.135a.615.615 0 0 0 .119-.299c.009-.066.014-.254.014-.566v-2.309c0-.438-.033-.746-.096-.926-.092-.25-.24-.375-.443-.375a.593.593 0 0 0-.377.154c-.129.104-.279.297-.46.578l-.007.064.009.252v2.561c0 .365.012.594.036.684s.072.164.142.225c.066.061.185.092.348.092v.211h-1.644v-.211c.179 0 .302-.035.368-.105a.595.595 0 0 0 .14-.316c.012-.066.018-.26.018-.578v-2.309c0-.438-.039-.754-.116-.947-.104-.252-.249-.377-.436-.377-.126 0-.253.057-.378.17a1.86 1.86 0 0 0-.452.586v2.877c0 .35.014.578.043.684s.073.184.131.236.175.08.352.08v.211h-1.612v-.212c.15 0 .254-.027.313-.08s.104-.135.135-.25c.029-.115.046-.34.046-.67v-2.055c0-.592-.012-.975-.032-1.146a.622.622 0 0 0-.079-.268.17.17 0 0 0-.146-.072.48.48 0 0 0-.24.088l-.052-.211.987-.656h.155v1.151zM139.086 78.126c-.333.426-.542.672-.628.738a.657.657 0 0 1-.408.146c-.225 0-.41-.127-.557-.381-.144-.256-.217-.59-.217-1.004 0-.262.034-.488.107-.68.097-.266.266-.518.505-.752s.64-.52 1.197-.855v-.211c0-.535-.051-.902-.153-1.1-.102-.199-.252-.299-.446-.299a.403.403 0 0 0-.354.199.784.784 0 0 0-.134.455l.007.34c0 .178-.028.316-.085.414-.055.098-.13.146-.22.146-.088 0-.162-.051-.217-.152a.853.853 0 0 1-.086-.416c0-.336.105-.645.315-.924.206-.281.499-.422.876-.422.289 0 .526.08.711.24.14.121.243.311.309.568.042.168.063.512.063 1.029v1.822c0 .512.006.824.02.939.011.115.03.193.058.232.026.039.059.059.095.059a.142.142 0 0 0 .1-.041c.05-.051.146-.193.287-.428v.328c-.265.588-.519.883-.762.883-.115 0-.207-.066-.277-.199-.068-.129-.103-.356-.106-.674zm0-.381v-2.047c-.356.234-.589.4-.691.498-.187.172-.32.352-.4.539s-.12.393-.12.615c0 .283.05.516.152.701.1.186.219.279.35.279.179.001.416-.194.709-.585zM141.425 71.761v1.766h.761v.414h-.761v3.482c0 .348.031.582.091.703.061.121.138.182.232.182.078 0 .153-.041.228-.121a.852.852 0 0 0 .169-.355h.138c-.083.383-.2.672-.353.865s-.309.291-.469.291c-.11 0-.217-.051-.322-.15a.886.886 0 0 1-.23-.428c-.051-.186-.075-.471-.075-.859V73.94h-.518v-.195c.133-.086.266-.232.402-.438.137-.207.261-.451.366-.732.056-.148.134-.42.232-.814h.109zM143.622 73.37v4.32c0 .334.015.559.044.67s.074.193.132.248c.057.055.162.082.316.082v.211h-1.581v-.211c.157 0 .266-.025.318-.076a.54.54 0 0 0 .131-.252c.031-.117.047-.342.047-.672v-2.078c0-.582-.011-.959-.032-1.129a.613.613 0 0 0-.077-.262.171.171 0 0 0-.147-.072.485.485 0 0 0-.242.088l-.051-.211.986-.656h.156zm-.293-2.805c.101 0 .185.057.254.172.07.115.104.254.104.418s-.034.305-.104.422c-.069.117-.153.176-.254.176-.099 0-.185-.059-.254-.176a.8.8 0 0 1-.107-.422.78.78 0 0 1 .106-.418c.068-.115.155-.172.255-.172zM146.113 73.37c.493 0 .889.309 1.187.926.254.529.38 1.135.38 1.818 0 .48-.069.969-.21 1.461-.139.492-.332.863-.576 1.115-.245.25-.518.375-.818.375-.492 0-.881-.322-1.169-.969-.244-.543-.367-1.152-.367-1.83 0-.492.076-.982.223-1.469.147-.486.343-.846.585-1.08.239-.232.496-.347.765-.347zm-.109.383c-.126 0-.251.061-.378.184-.126.125-.229.34-.306.648-.078.311-.118.707-.118 1.191 0 .783.094 1.457.282 2.023.188.568.435.852.743.852.229 0 .418-.156.566-.469.148-.314.222-.852.222-1.613 0-.955-.123-1.705-.37-2.254-.167-.375-.381-.562-.641-.562zM149.11 74.505c.381-.756.743-1.135 1.089-1.135.177 0 .33.072.456.221.129.146.231.387.305.725.053.234.078.594.078 1.08v2.295c0 .338.018.568.05.689a.468.468 0 0 0 .128.229c.057.055.164.082.32.082v.211h-1.614v-.212h.066c.151 0 .259-.039.318-.115a.71.71 0 0 0 .127-.336 5.96 5.96 0 0 0 .013-.549v-2.203c0-.49-.037-.846-.115-1.066-.074-.223-.205-.332-.386-.332-.278 0-.558.254-.835.762v2.84c0 .361.014.586.04.672.033.113.078.195.137.248s.177.08.355.08v.211h-1.616v-.212h.071c.164 0 .276-.07.335-.207.058-.139.087-.404.087-.793v-2c0-.645-.01-1.037-.027-1.178-.019-.141-.045-.236-.083-.287a.173.173 0 0 0-.148-.076.467.467 0 0 0-.238.088l-.053-.211.986-.656h.154v1.135zM156.725 70.776v2.75h-.135c-.041-.527-.118-.949-.229-1.262s-.268-.561-.472-.744-.414-.275-.634-.275c-.246 0-.449.123-.611.371s-.243.529-.243.846c0 .242.052.463.154.662.147.293.496.682 1.051 1.17.451.398.759.703.925.916.165.213.292.465.381.754.09.289.133.592.133.908 0 .602-.141 1.119-.423 1.555-.283.436-.647.654-1.092.654-.142 0-.272-.018-.396-.055a2.887 2.887 0 0 1-.457-.219c-.229-.125-.375-.188-.438-.188-.058 0-.105.029-.14.09-.034.059-.061.184-.076.371h-.133v-2.727h.133c.062.57.146.996.248 1.279.104.283.264.518.478.705s.447.281.704.281a.798.798 0 0 0 .7-.387 1.61 1.61 0 0 0 .257-.914c0-.195-.032-.393-.098-.592a1.7 1.7 0 0 0-.304-.557c-.092-.117-.345-.365-.759-.746-.413-.379-.707-.682-.881-.908a2.49 2.49 0 0 1-.396-.748 2.87 2.87 0 0 1-.135-.902c0-.57.132-1.061.398-1.473.266-.412.603-.617 1.013-.617.256 0 .527.104.814.313.133.1.227.148.281.148.061 0 .112-.031.15-.092s.07-.184.094-.369h.138zM157.474 73.526h1.518v.211h-.073c-.108 0-.187.037-.241.115a.489.489 0 0 0-.08.285c0 .154.039.367.118.639l.794 2.721.726-2.979c.04-.162.061-.322.061-.48a.396.396 0 0 0-.025-.16.234.234 0 0 0-.089-.104c-.04-.025-.109-.037-.212-.037v-.211h1.056v.211a.377.377 0 0 0-.203.094.915.915 0 0 0-.156.266c-.02.055-.061.207-.12.455l-1.323 5.365c-.127.52-.295.912-.503 1.178-.208.268-.408.4-.601.4-.139 0-.255-.066-.345-.199a.799.799 0 0 1-.135-.459c0-.164.032-.297.097-.396a.309.309 0 0 1 .271-.148c.078 0 .185.043.32.129.095.061.154.09.177.09.073 0 .149-.061.234-.184.085-.121.169-.355.254-.705l.229-.939-1.167-4.049a4.161 4.161 0 0 0-.17-.455 1.307 1.307 0 0 0-.147-.277.656.656 0 0 0-.262-.164v-.213zM163.398 73.37v1.828h-.117c-.092-.576-.205-.967-.346-1.174s-.32-.311-.538-.311a.466.466 0 0 0-.4.217.82.82 0 0 0-.151.48c0 .221.037.408.112.564.073.16.223.33.446.512l.519.416c.481.387.722.896.722 1.531 0 .488-.11.883-.335 1.182-.223.299-.474.449-.752.449-.198 0-.426-.059-.682-.176a.452.452 0 0 0-.191-.059c-.055 0-.097.049-.128.148h-.117v-1.914h.117c.067.547.193.961.381 1.238.187.279.396.418.628.418.163 0 .296-.08.399-.238s.155-.35.155-.572c0-.271-.058-.498-.174-.682-.113-.186-.343-.418-.686-.699-.345-.281-.57-.535-.678-.762-.106-.223-.159-.504-.159-.846 0-.441.092-.811.275-1.107s.421-.445.712-.445c.128 0 .283.045.465.137.121.061.202.09.241.09a.103.103 0 0 0 .089-.043.634.634 0 0 0 .075-.184h.118zM165.08 71.761v1.766h.76v.414h-.76v3.482c0 .348.029.582.09.703.06.121.137.182.231.182.08 0 .154-.041.227-.121a.807.807 0 0 0 .173-.355h.137c-.083.383-.202.672-.354.865-.149.193-.307.291-.469.291-.109 0-.216-.051-.32-.15s-.182-.242-.232-.428c-.049-.186-.074-.471-.074-.859V73.94h-.516v-.195c.131-.086.265-.232.4-.438.138-.207.26-.451.367-.732.057-.148.134-.42.231-.814h.109zM166.699 75.558c-.004.797.114 1.422.351 1.875.237.453.515.68.835.68.213 0 .398-.096.556-.287.155-.193.288-.523.395-.994l.107.117c-.048.537-.193 1.023-.433 1.461s-.538.656-.896.656c-.393 0-.726-.252-1.003-.754-.278-.502-.418-1.176-.418-2.023 0-.918.143-1.635.429-2.148.283-.514.642-.77 1.072-.77.365 0 .664.197.899.596.234.396.35.928.35 1.592h-2.244zm0-.344h1.506c-.011-.344-.036-.586-.075-.727a1.186 1.186 0 0 0-.264-.516c-.118-.125-.24-.188-.369-.188-.195 0-.372.125-.526.377-.156.253-.246.605-.272 1.054zM170.351 74.521c.235-.395.375-.619.417-.68.107-.148.223-.264.345-.348a.66.66 0 0 1 .366-.123c.202 0 .377.098.524.295.147.195.245.48.295.855.244-.473.45-.781.618-.93.169-.146.342-.221.519-.221.174 0 .326.072.461.221.134.146.239.385.318.719.051.227.076.582.076 1.068v2.313c0 .334.016.564.047.689a.471.471 0 0 0 .132.219c.065.061.17.092.314.092v.211h-1.61v-.211h.067c.14 0 .248-.045.327-.135a.606.606 0 0 0 .117-.299 5.79 5.79 0 0 0 .015-.566v-2.309c0-.438-.032-.746-.096-.926-.092-.25-.239-.375-.443-.375a.6.6 0 0 0-.378.154c-.127.104-.28.297-.459.578l-.008.064.01.252v2.561c0 .365.013.594.037.684s.071.164.139.225c.068.061.185.092.351.092v.211h-1.645v-.211c.179 0 .303-.035.369-.105a.62.62 0 0 0 .14-.316c.012-.066.018-.26.018-.578v-2.309c0-.438-.039-.754-.117-.947-.104-.252-.248-.377-.436-.377-.127 0-.253.057-.377.17a1.863 1.863 0 0 0-.453.586v2.877c0 .35.014.578.043.684s.072.184.131.236c.057.053.176.08.352.08v.211h-1.611v-.212c.148 0 .253-.027.313-.08.059-.053.104-.135.135-.25s.046-.34.046-.67v-2.055c0-.592-.012-.975-.032-1.146a.624.624 0 0 0-.078-.268.172.172 0 0 0-.146-.072.467.467 0 0 0-.238.088l-.055-.211.988-.656h.154v1.151z"/><linearGradient id="c" gradientUnits="userSpaceOnUse" x1="101.068" y1="27.275" x2="156.612" y2="82.819"><stop offset="0" stop-color="#ead18f"/><stop offset=".076" stop-color="#e1c477"/><stop offset=".221" stop-color="#d1af4e"/><stop offset=".335" stop-color="#c8a235"/><stop offset=".405" stop-color="#c49d2c"/><stop offset=".559" stop-color="#d4b35c"/><stop offset=".766" stop-color="#e7cd97"/><stop offset=".919" stop-color="#f3debb"/><stop offset="1" stop-color="#f8e4c9"/></linearGradient><linearGradient id="d" gradientUnits="userSpaceOnUse" x1="141.766" y1="31.377" x2="197.071" y2="86.683"><stop offset="0" stop-color="#ead18f"/><stop offset=".076" stop-color="#e1c477"/><stop offset=".221" stop-color="#d1af4e"/><stop offset=".335" stop-color="#c8a235"/><stop offset=".405" stop-color="#c49d2c"/><stop offset=".559" stop-color="#d4b35c"/><stop offset=".766" stop-color="#e7cd97"/><stop offset=".919" stop-color="#f3debb"/><stop offset="1" stop-color="#f8e4c9"/></linearGradient><linearGradient id="e" gradientUnits="userSpaceOnUse" x1="131.045" y1="44.419" x2="186.351" y2="99.725"><stop offset="0" stop-color="#ead18f"/><stop offset=".076" stop-color="#e1c477"/><stop offset=".221" stop-color="#d1af4e"/><stop offset=".335" stop-color="#c8a235"/><stop offset=".405" stop-color="#c49d2c"/><stop offset=".559" stop-color="#d4b35c"/><stop offset=".766" stop-color="#e7cd97"/><stop offset=".919" stop-color="#f3debb"/><stop offset="1" stop-color="#f8e4c9"/></linearGradient><linearGradient id="f" gradientUnits="userSpaceOnUse" x1="145.044" y1="24.753" x2="200.35" y2="80.058"><stop offset="0" stop-color="#ead18f"/><stop offset=".076" stop-color="#e1c477"/><stop offset=".221" stop-color="#d1af4e"/><stop offset=".335" stop-color="#c8a235"/><stop offset=".405" stop-color="#c49d2c"/><stop offset=".559" stop-color="#d4b35c"/><stop offset=".766" stop-color="#e7cd97"/><stop offset=".919" stop-color="#f3debb"/><stop offset="1" stop-color="#f8e4c9"/></linearGradient><linearGradient id="g" gradientUnits="userSpaceOnUse" x1="79.115" y1="26.505" x2="134.422" y2="81.812"><stop offset="0" stop-color="#ead18f"/><stop offset=".076" stop-color="#e1c477"/><stop offset=".221" stop-color="#d1af4e"/><stop offset=".335" stop-color="#c8a235"/><stop offset=".405" stop-color="#c49d2c"/><stop offset=".559" stop-color="#d4b35c"/><stop offset=".766" stop-color="#e7cd97"/><stop offset=".919" stop-color="#f3debb"/><stop offset="1" stop-color="#f8e4c9"/></linearGradient><linearGradient id="h" gradientUnits="userSpaceOnUse" x1="149.334" y1="14.599" x2="204.439" y2="69.704"><stop offset="0" stop-color="#ead18f"/><stop offset=".076" stop-color="#e1c477"/><stop offset=".221" stop-color="#d1af4e"/><stop offset=".335" stop-color="#c8a235"/><stop offset=".405" stop-color="#c49d2c"/><stop offset=".559" stop-color="#d4b35c"/><stop offset=".766" stop-color="#e7cd97"/><stop offset=".919" stop-color="#f3debb"/><stop offset="1" stop-color="#f8e4c9"/></linearGradient><linearGradient id="i" gradientUnits="userSpaceOnUse" x1="124.622" y1="22.759" x2="179.929" y2="78.066"><stop offset="0" stop-color="#ead18f"/><stop offset=".076" stop-color="#e1c477"/><stop offset=".221" stop-color="#d1af4e"/><stop offset=".335" stop-color="#c8a235"/><stop offset=".405" stop-color="#c49d2c"/><stop offset=".559" stop-color="#d4b35c"/><stop offset=".766" stop-color="#e7cd97"/><stop offset=".919" stop-color="#f3debb"/><stop offset="1" stop-color="#f8e4c9"/></linearGradient><linearGradient id="j" gradientUnits="userSpaceOnUse" x1="21.276" y1="35.946" x2="76.338" y2="91.007"><stop offset="0" stop-color="#ead18f"/><stop offset=".076" stop-color="#e1c477"/><stop offset=".221" stop-color="#d1af4e"/><stop offset=".335" stop-color="#c8a235"/><stop offset=".405" stop-color="#c49d2c"/><stop offset=".559" stop-color="#d4b35c"/><stop offset=".766" stop-color="#e7cd97"/><stop offset=".919" stop-color="#f3debb"/><stop offset="1" stop-color="#f8e4c9"/></linearGradient></svg>