<?xml version="1.0" encoding="utf-8"?>
<!-- Generator: Adobe Illustrator 12.0.0, SVG Export Plug-In  -->
<!DOCTYPE svg PUBLIC "-//W3C//DTD SVG 1.1//EN" "http://www.w3.org/Graphics/SVG/1.1/DTD/svg11.dtd" [
	<!ENTITY ns_flows "http://ns.adobe.com/Flows/1.0/">
	<!ENTITY ns_svg "http://www.w3.org/2000/svg">
	<!ENTITY ns_xlink "http://www.w3.org/1999/xlink">
]>
<svg  version="1.1" xmlns="&ns_svg;" xmlns:xlink="&ns_xlink;" xmlns:a="http://ns.adobe.com/AdobeSVGViewerExtensions/3.0/"
	 width="42" height="29" viewBox="856.102 249.732 42 29" enable-background="new 856.102 249.732 42 29" xml:space="preserve">
<defs>
</defs>
<rect x="853.366" y="235.015" display="none" fill="none" stroke="#000000" width="45" height="45"/>
<path fill="#FFFFFF" stroke="#FFBF00" d="M857.706,263.764c2.588,8.048,10.128,13.876,19.037,13.876c11.046,0,20-8.954,20-20
	c0-2.258-0.392-4.421-1.082-6.446L857.706,263.764z"/>
<line fill="none" stroke="#FFFFFF" stroke-width="1.2" x1="858.148" y1="263.607" x2="895.148" y2="251.389"/>
<path fill="#FFBF00" d="M859.029,262.778c2.367,7.363,9.266,12.696,17.417,12.696c10.105,0,18.298-8.192,18.298-18.298
	c0-2.066-0.358-4.045-0.989-5.897L859.029,262.778z"/>
<path fill="#FFFFFF" d="M865.429,263.538c-0.301,0.218-0.736,0.168-0.971-0.113c-0.235-0.28-0.18-0.683,0.123-0.9
	c0.302-0.218,2.074-1.155,2.309-0.874C867.125,261.93,865.732,263.32,865.429,263.538z"/>
<path fill="#FFFFFF" d="M868.347,266.473c-0.203,0.3-0.63,0.391-0.955,0.201c-0.325-0.188-0.421-0.585-0.217-0.885
	c0.203-0.3,1.522-1.742,1.847-1.552C869.346,264.424,868.552,266.172,868.347,266.473z"/>
<path fill="#FFFFFF" d="M872.237,268.644c-0.122,0.334-0.516,0.514-0.878,0.399c-0.362-0.114-0.556-0.48-0.43-0.815
	c0.123-0.335,1.048-2.02,1.412-1.905C872.702,266.437,872.362,268.307,872.237,268.644z"/>
<path fill="#FFFFFF" d="M876.842,269.195c-0.001,0.354-0.312,0.641-0.695,0.64c-0.384,0-0.692-0.289-0.69-0.644
	c0-0.354,0.294-2.225,0.679-2.224C876.518,266.966,876.843,268.839,876.842,269.195z"/>
<path fill="#FFFFFF" d="M881.423,268.569c0.113,0.336-0.09,0.697-0.457,0.802c-0.365,0.107-0.753-0.084-0.866-0.422
	c-0.113-0.338-0.438-2.204-0.071-2.311C880.393,266.533,881.31,268.229,881.423,268.569z"/>
<path fill="#FFFFFF" d="M885.935,266.581c0.252,0.263,0.226,0.67-0.062,0.905c-0.287,0.235-0.725,0.208-0.978-0.058
	c-0.253-0.266-1.373-1.845-1.087-2.081C884.095,265.114,885.681,266.313,885.935,266.581z"/>
<path fill="#FFFFFF" d="M888.512,262.687c0.315,0.197,0.398,0.597,0.181,0.891c-0.215,0.294-0.645,0.368-0.962,0.167
	c-0.316-0.198-1.823-1.472-1.607-1.767C886.338,261.686,888.195,262.485,888.512,262.687z"/>
<path fill="#FFFFFF" d="M889.114,258.152c0.381,0.012,0.681,0.31,0.665,0.666c-0.014,0.354-0.335,0.63-0.719,0.615
	c-0.381-0.012-2.388-0.35-2.375-0.706C886.699,258.374,888.731,258.137,889.114,258.152z"/>
<path fill="#FFFFFF" d="M888.271,254.012c0.368-0.093,0.749,0.11,0.847,0.455c0.1,0.342-0.12,0.694-0.491,0.785
	c-0.369,0.092-2.394,0.317-2.494-0.026C886.034,254.883,887.899,254.102,888.271,254.012z"/>
<rect x="0.801" y="5.527" display="none" fill="none" stroke="#B2B2B2" width="1920.301" height="1077.205"/>
<rect x="1.102" y="0.5" display="none" fill="none" stroke="#B2B2B2" width="1920.301" height="1077.205"/>
<rect x="1.102" y="2.732" display="none" fill="none" stroke="#B2B2B2" width="1920.301" height="1077.205"/>
<rect x="1.102" y="2.732" display="none" fill="none" stroke="#B2B2B2" width="1920.301" height="1077.205"/>
<rect x="1.102" y="2.732" display="none" fill="none" stroke="#B2B2B2" width="1920.301" height="1077.205"/>
<rect x="0.5" y="0.5" display="none" fill="none" stroke="#B2B2B2" width="1920.301" height="1077.205"/>
<rect x="1.102" y="2.732" display="none" fill="none" stroke="#B2B2B2" width="1920.301" height="1077.205"/>
<rect x="0.5" y="2.732" display="none" fill="none" stroke="#B2B2B2" width="1920.301" height="1077.205"/>
<rect x="4.102" y="5.732" display="none" fill="none" stroke="#B2B2B2" width="1920.301" height="1077.205"/>
<rect x="1.102" y="2.732" display="none" fill="none" stroke="#B2B2B2" width="1920" height="1080"/>
<rect x="1.102" y="4.732" display="none" fill="none" stroke="#B2B2B2" width="1920" height="1080"/>
</svg>
