<?xml version="1.0" encoding="utf-8"?>
<!-- Generator: Adobe Illustrator 12.0.0, SVG Export Plug-In  -->
<!DOCTYPE svg PUBLIC "-//W3C//DTD SVG 1.1//EN" "http://www.w3.org/Graphics/SVG/1.1/DTD/svg11.dtd" [
	<!ENTITY ns_flows "http://ns.adobe.com/Flows/1.0/">
	<!ENTITY ns_svg "http://www.w3.org/2000/svg">
	<!ENTITY ns_xlink "http://www.w3.org/1999/xlink">
]>
<svg  version="1.1" xmlns="&ns_svg;" xmlns:xlink="&ns_xlink;" xmlns:a="http://ns.adobe.com/AdobeSVGViewerExtensions/3.0/"
	 width="25" height="42" viewBox="913.102 251.732 25 42" enable-background="new 913.102 251.732 25 42" xml:space="preserve">
<defs>
</defs>
<path fill="#BB5535" stroke="#BB5535" d="M937.102,274.566c0,8.284-5.646,17.667-11.583,17.667s-11.583-9.883-11.583-18.167
	s6.063-14.833,12-14.833S937.102,266.282,937.102,274.566z"/>
<g>
	<g>
		<path fill="#FFFFFF" d="M925.947,256.576l0.904-3.844h-2.667v3.916c-5.276,0.513-9.583,3.603-9.583,5.917
			c0,0.965,0.751,1.653,2.006,2.137c1.906-1.282,5.254-2.136,9.078-2.136c3.765,0,7.072,0.826,8.992,2.076
			c1.108-0.48,1.757-1.151,1.757-2.077C936.435,260.072,931.762,256.677,925.947,256.576z"/>
	</g>
	<g>
		<path fill="none" stroke="#BB5535" d="M925.947,256.576l0.904-3.844h-2.667v3.916c-5.276,0.513-9.583,3.603-9.583,5.917
			c0,0.965,0.751,1.653,2.006,2.137c1.906-1.282,5.254-2.136,9.078-2.136c3.765,0,7.072,0.826,8.992,2.076
			c1.108-0.48,1.757-1.151,1.757-2.077C936.435,260.072,931.762,256.677,925.947,256.576z"/>
	</g>
</g>
<rect x="1.102" y="286.63" display="none" fill="none" stroke="#B2B2B2" width="1920.301" height="800"/>
<rect x="0.801" y="5.527" display="none" fill="none" stroke="#B2B2B2" width="1920.301" height="1077.205"/>
<rect x="1.102" y="0.5" display="none" fill="none" stroke="#B2B2B2" width="1920.301" height="1077.205"/>
<rect x="1.102" y="2.777" display="none" fill="none" stroke="#B2B2B2" width="1920.301" height="1079.955"/>
<rect x="1.102" y="2.732" display="none" fill="none" stroke="#B2B2B2" width="1920" height="1080"/>
<rect x="1.102" y="2.732" display="none" fill="none" stroke="#B2B2B2" width="1920.301" height="1077.205"/>
<rect x="1.102" y="2.732" display="none" fill="none" stroke="#B2B2B2" width="1920.301" height="1079.955"/>
<rect x="1.102" y="2.732" display="none" fill="none" stroke="#B2B2B2" width="1920.301" height="1077.205"/>
<rect x="0.501" y="2.732" display="none" fill="none" stroke="#B2B2B2" width="1920.301" height="1079.955"/>
<rect x="1.102" y="2.732" display="none" fill="none" stroke="#B2B2B2" width="1920.301" height="1077.205"/>
<rect x="1.102" y="2.777" display="none" fill="none" stroke="#B2B2B2" width="1920.301" height="1079.955"/>
<rect x="0.5" y="0.5" display="none" fill="none" stroke="#B2B2B2" width="1920.301" height="1077.205"/>
<rect x="1.102" y="2.732" display="none" fill="none" stroke="#B2B2B2" width="1920.301" height="1079.955"/>
<rect x="1.102" y="2.732" display="none" fill="none" stroke="#B2B2B2" width="1920.301" height="1077.205"/>
<rect x="0.501" y="2.732" display="none" fill="none" stroke="#B2B2B2" width="1920.301" height="1079.955"/>
<rect x="0.5" y="2.732" display="none" fill="none" stroke="#B2B2B2" width="1920.301" height="1077.205"/>
<rect x="1.102" y="2.777" display="none" fill="none" stroke="#B2B2B2" width="1920.301" height="1079.955"/>
<rect x="4.102" y="5.732" display="none" fill="none" stroke="#B2B2B2" width="1920.301" height="1077.205"/>
<rect x="1.102" y="2.732" display="none" fill="none" stroke="#B2B2B2" width="1920.301" height="1079.955"/>
<rect x="1.102" y="2.732" display="none" fill="none" stroke="#B2B2B2" width="1920" height="1080"/>
<rect x="1.102" y="4.732" display="none" fill="none" stroke="#B2B2B2" width="1920" height="1080"/>
</svg>
