<?xml version="1.0" encoding="utf-8"?>
<!-- Generator: Adobe Illustrator 12.0.0, SVG Export Plug-In  -->
<!DOCTYPE svg PUBLIC "-//W3C//DTD SVG 1.1//EN" "http://www.w3.org/Graphics/SVG/1.1/DTD/svg11.dtd" [
	<!ENTITY ns_flows "http://ns.adobe.com/Flows/1.0/">
	<!ENTITY ns_svg "http://www.w3.org/2000/svg">
	<!ENTITY ns_xlink "http://www.w3.org/1999/xlink">
]>
<svg  version="1.1" xmlns="&ns_svg;" xmlns:xlink="&ns_xlink;" xmlns:a="http://ns.adobe.com/AdobeSVGViewerExtensions/3.0/"
	 width="46" height="46" viewBox="946.102 250.732 46 46" enable-background="new 946.102 250.732 46 46" xml:space="preserve">
<defs>
</defs>
<rect x="946.733" y="251.015" display="none" fill="none" stroke="#000000" width="45" height="45"/>
<line fill="none" stroke="#C1E4E9" stroke-width="2" stroke-linecap="round" x1="969.253" y1="252.178" x2="969.253" y2="273.048"/>
<line fill="none" stroke="#C1E4E9" stroke-width="2" stroke-linecap="round" x1="965.438" y1="264.503" x2="968.741" y2="267.638"/>
<line fill="none" stroke="#C1E4E9" stroke-width="2" stroke-linecap="round" x1="973.214" y1="264.503" x2="969.842" y2="267.638"/>
<line fill="none" stroke="#C1E4E9" stroke-width="2" stroke-linecap="round" x1="968.929" y1="295.178" x2="968.929" y2="273.51"/>
<line fill="none" stroke="#C1E4E9" stroke-width="2" stroke-linecap="round" x1="972.742" y1="282.846" x2="969.44" y2="279.711"/>
<line fill="none" stroke="#C1E4E9" stroke-width="2" stroke-linecap="round" x1="964.968" y1="282.846" x2="968.339" y2="279.711"/>
<line fill="none" stroke="#C1E4E9" stroke-width="2" stroke-linecap="round" x1="984.445" y1="258.589" x2="969.501" y2="273.496"/>
<line fill="none" stroke="#C1E4E9" stroke-width="2" stroke-linecap="round" x1="973.01" y1="264.615" x2="973.121" y2="269.164"/>
<line fill="none" stroke="#C1E4E9" stroke-width="2" stroke-linecap="round" x1="978.507" y1="270.095" x2="973.899" y2="269.94"/>
<line fill="none" stroke="#C1E4E9" stroke-width="2" stroke-linecap="round" x1="954.917" y1="287.977" x2="969.701" y2="273.23"/>
<line fill="none" stroke="#C1E4E9" stroke-width="2" stroke-linecap="round" x1="965.251" y1="283.049" x2="965.14" y2="278.5"/>
<line fill="none" stroke="#C1E4E9" stroke-width="2" stroke-linecap="round" x1="959.754" y1="277.563" x2="964.361" y2="277.723"/>
<line fill="none" stroke="#C1E4E9" stroke-width="2" stroke-linecap="round" x1="990.539" y1="273.307" x2="969.107" y2="273.307"/>
<line fill="none" stroke="#C1E4E9" stroke-width="2" stroke-linecap="round" x1="978.18" y1="269.5" x2="975.034" y2="272.796"/>
<line fill="none" stroke="#C1E4E9" stroke-width="2" stroke-linecap="round" x1="978.18" y1="277.254" x2="975.034" y2="273.895"/>
<line fill="none" stroke="#C1E4E9" stroke-width="2" stroke-linecap="round" x1="984.412" y1="288.011" x2="969.345" y2="272.978"/>
<line fill="none" stroke="#C1E4E9" stroke-width="2" stroke-linecap="round" x1="978.37" y1="276.604" x2="973.812" y2="276.715"/>
<line fill="none" stroke="#C1E4E9" stroke-width="2" stroke-linecap="round" x1="972.873" y1="282.083" x2="973.033" y2="277.492"/>
<line fill="none" stroke="#C1E4E9" stroke-width="2" stroke-linecap="round" x1="953.965" y1="258.358" x2="969.038" y2="273.391"/>
<line fill="none" stroke="#C1E4E9" stroke-width="2" stroke-linecap="round" x1="960.007" y1="269.766" x2="964.567" y2="269.654"/>
<line fill="none" stroke="#C1E4E9" stroke-width="2" stroke-linecap="round" x1="965.505" y1="264.279" x2="965.346" y2="268.877"/>
<line fill="none" stroke="#C1E4E9" stroke-width="2" stroke-linecap="round" x1="947.539" y1="273.51" x2="969.521" y2="273.51"/>
<line fill="none" stroke="#C1E4E9" stroke-width="2" stroke-linecap="round" x1="977.756" y1="259.296" x2="978.053" y2="264.601"/>
<line fill="none" stroke="#C1E4E9" stroke-width="2" stroke-linecap="round" x1="978.088" y1="264.93" x2="983.688" y2="264.901"/>
<line fill="none" stroke="#C1E4E9" stroke-width="2" stroke-linecap="round" x1="964.994" y1="257.406" x2="968.978" y2="260.954"/>
<line fill="none" stroke="#C1E4E9" stroke-width="2" stroke-linecap="round" x1="969.234" y1="261.157" x2="973.178" y2="257.203"/>
<line fill="none" stroke="#C1E4E9" stroke-width="2" stroke-linecap="round" x1="973.177" y1="289.943" x2="969.193" y2="286.395"/>
<line fill="none" stroke="#C1E4E9" stroke-width="2" stroke-linecap="round" x1="968.936" y1="286.191" x2="964.993" y2="290.146"/>
<line fill="none" stroke="#C1E4E9" stroke-width="2" stroke-linecap="round" x1="961.473" y1="287.354" x2="961.174" y2="282.048"/>
<line fill="none" stroke="#C1E4E9" stroke-width="2" stroke-linecap="round" x1="961.14" y1="281.72" x2="955.539" y2="281.74"/>
<line fill="none" stroke="#C1E4E9" stroke-width="2" stroke-linecap="round" x1="985.343" y1="269.129" x2="981.781" y2="273.09"/>
<line fill="none" stroke="#C1E4E9" stroke-width="2" stroke-linecap="round" x1="981.574" y1="273.349" x2="985.551" y2="277.269"/>
<line fill="none" stroke="#C1E4E9" stroke-width="2" stroke-linecap="round" x1="983.718" y1="281.418" x2="978.382" y2="281.72"/>
<line fill="none" stroke="#C1E4E9" stroke-width="2" stroke-linecap="round" x1="978.052" y1="281.754" x2="978.077" y2="287.325"/>
<line fill="none" stroke="#C1E4E9" stroke-width="2" stroke-linecap="round" x1="954.629" y1="265.049" x2="959.965" y2="264.755"/>
<line fill="none" stroke="#C1E4E9" stroke-width="2" stroke-linecap="round" x1="960.293" y1="264.72" x2="960.27" y2="259.148"/>
<line fill="none" stroke="#C1E4E9" stroke-width="2" stroke-linecap="round" x1="952.733" y1="277.744" x2="956.295" y2="273.783"/>
<line fill="none" stroke="#C1E4E9" stroke-width="2" stroke-linecap="round" x1="956.503" y1="273.524" x2="952.525" y2="269.604"/>
<line fill="none" stroke="#C1E4E9" stroke-width="2" stroke-linecap="round" x1="959.897" y1="277.317" x2="963.043" y2="274.021"/>
<line fill="none" stroke="#C1E4E9" stroke-width="2" stroke-linecap="round" x1="959.897" y1="269.563" x2="963.043" y2="272.922"/>
<rect x="1.102" y="286.63" display="none" fill="none" stroke="#B2B2B2" width="1920.301" height="800"/>
<rect x="0.801" y="5.527" display="none" fill="none" stroke="#B2B2B2" width="1920.301" height="1077.205"/>
<rect x="1.102" y="0.5" display="none" fill="none" stroke="#B2B2B2" width="1920.301" height="1077.205"/>
<rect x="1.102" y="2.777" display="none" fill="none" stroke="#B2B2B2" width="1920.301" height="1079.955"/>
<rect x="1.102" y="2.732" display="none" fill="none" stroke="#B2B2B2" width="1920" height="1080"/>
<rect x="1.102" y="2.732" display="none" fill="none" stroke="#B2B2B2" width="1920.301" height="1077.205"/>
<rect x="1.102" y="2.732" display="none" fill="none" stroke="#B2B2B2" width="1920.301" height="1079.955"/>
<rect x="1.102" y="2.732" display="none" fill="none" stroke="#B2B2B2" width="1920.301" height="1077.205"/>
<rect x="0.501" y="2.732" display="none" fill="none" stroke="#B2B2B2" width="1920.301" height="1079.955"/>
<rect x="1.102" y="2.732" display="none" fill="none" stroke="#B2B2B2" width="1920.301" height="1077.205"/>
<rect x="1.102" y="2.777" display="none" fill="none" stroke="#B2B2B2" width="1920.301" height="1079.955"/>
<rect x="0.5" y="0.5" display="none" fill="none" stroke="#B2B2B2" width="1920.301" height="1077.205"/>
<rect x="1.102" y="2.732" display="none" fill="none" stroke="#B2B2B2" width="1920.301" height="1079.955"/>
<rect x="1.102" y="2.732" display="none" fill="none" stroke="#B2B2B2" width="1920.301" height="1077.205"/>
<rect x="0.501" y="2.732" display="none" fill="none" stroke="#B2B2B2" width="1920.301" height="1079.955"/>
<rect x="0.5" y="2.732" display="none" fill="none" stroke="#B2B2B2" width="1920.301" height="1077.205"/>
<rect x="1.102" y="2.777" display="none" fill="none" stroke="#B2B2B2" width="1920.301" height="1079.955"/>
<rect x="4.102" y="5.732" display="none" fill="none" stroke="#B2B2B2" width="1920.301" height="1077.205"/>
<rect x="1.102" y="2.732" display="none" fill="none" stroke="#B2B2B2" width="1920.301" height="1079.955"/>
<rect x="1.102" y="2.732" display="none" fill="none" stroke="#B2B2B2" width="1920" height="1080"/>
<rect x="1.102" y="4.732" display="none" fill="none" stroke="#B2B2B2" width="1920" height="1080"/>
</svg>
