<?xml version="1.0" encoding="utf-8"?>
<!-- Generator: Adobe Illustrator 12.0.0, SVG Export Plug-In  -->
<!DOCTYPE svg PUBLIC "-//W3C//DTD SVG 1.1//EN" "http://www.w3.org/Graphics/SVG/1.1/DTD/svg11.dtd" [
	<!ENTITY ns_flows "http://ns.adobe.com/Flows/1.0/">
	<!ENTITY ns_svg "http://www.w3.org/2000/svg">
	<!ENTITY ns_xlink "http://www.w3.org/1999/xlink">
]>
<svg  version="1.1" xmlns="&ns_svg;" xmlns:xlink="&ns_xlink;" xmlns:a="http://ns.adobe.com/AdobeSVGViewerExtensions/3.0/"
	 width="44" height="44" viewBox="1577.801 676.732 44 44" enable-background="new 1577.801 676.732 44 44" xml:space="preserve">
<defs>
</defs>
<rect x="1577.064" y="676.016" display="none" fill="none" stroke="#000000" width="45" height="45"/>
<line display="none" fill="none" stroke="#3F3F3F" x1="1599.564" y1="698.516" x2="1599.564" y2="676.107"/>
<line display="none" fill="none" stroke="#3F3F3F" x1="1599.564" y1="698.516" x2="1588.361" y2="679.109"/>
<line display="none" fill="none" stroke="#3F3F3F" x1="1599.564" y1="698.516" x2="1580.16" y2="687.312"/>
<line display="none" fill="none" stroke="#3F3F3F" x1="1599.564" y1="698.516" x2="1577.158" y2="698.516"/>
<line display="none" fill="none" stroke="#3F3F3F" x1="1599.564" y1="698.516" x2="1580.16" y2="709.719"/>
<line display="none" fill="none" stroke="#3F3F3F" x1="1599.564" y1="698.516" x2="1588.361" y2="717.92"/>
<line display="none" fill="none" stroke="#3F3F3F" x1="1599.564" y1="698.516" x2="1599.564" y2="720.922"/>
<line display="none" fill="none" stroke="#3F3F3F" x1="1599.564" y1="698.516" x2="1610.769" y2="717.92"/>
<line display="none" fill="none" stroke="#3F3F3F" x1="1599.564" y1="698.516" x2="1618.971" y2="709.719"/>
<line display="none" fill="none" stroke="#3F3F3F" x1="1599.564" y1="698.516" x2="1621.973" y2="698.516"/>
<line display="none" fill="none" stroke="#3F3F3F" x1="1599.564" y1="698.516" x2="1618.971" y2="687.312"/>
<line display="none" fill="none" stroke="#3F3F3F" x1="1599.564" y1="698.516" x2="1610.769" y2="679.109"/>
<circle display="none" fill="none" stroke="#000000" stroke-width="0.3" cx="1599.564" cy="698.516" r="20"/>
<g>
	<g>
		<path fill="#A22041" d="M1599.564,681.016c-9.664,0-17.5,7.834-17.5,17.5c0,9.664,7.836,17.5,17.5,17.5
			c9.666,0,17.5-7.836,17.5-17.5C1617.064,688.85,1609.23,681.016,1599.564,681.016z M1599.564,714.516c-8.836,0-16-7.164-16-16
			c0-8.837,7.164-16,16-16c8.837,0,16,7.163,16,16C1615.564,707.352,1608.401,714.516,1599.564,714.516z"/>
	</g>
</g>
<circle fill="#A22041" cx="1599.564" cy="698.516" r="12.5"/>
<circle fill="#A22041" cx="1599.635" cy="678.316" r="1.5"/>
<circle fill="#A22041" cx="1617.051" cy="708.816" r="1.5"/>
<circle fill="#A22041" cx="1619.635" cy="698.482" r="1.5"/>
<circle fill="#A22041" cx="1616.968" cy="688.732" r="1.5"/>
<circle fill="#A22041" cx="1609.968" cy="680.816" r="1.5"/>
<circle fill="#A22041" cx="1599.635" cy="718.482" r="1.5"/>
<circle fill="#A22041" cx="1589.217" cy="716.232" r="1.5"/>
<circle fill="#A22041" cx="1581.968" cy="708.566" r="1.5"/>
<circle fill="#A22041" cx="1579.301" cy="698.732" r="1.5"/>
<circle fill="#A22041" cx="1582.135" cy="688.482" r="1.5"/>
<circle fill="#A22041" cx="1589.385" cy="681.316" r="1.5"/>
<circle fill="#A22041" cx="1609.635" cy="715.982" r="1.5"/>
<rect x="0.801" y="286.63" display="none" fill="none" stroke="#B2B2B2" width="1920.301" height="800"/>
<rect x="0.801" y="683.567" display="none" fill="#283455" fill-opacity="0.7" width="1920.301" height="399.165"/>
<linearGradient id="XMLID_1_" gradientUnits="userSpaceOnUse" x1="0.9512" y1="688.3262" x2="1920.9512" y2="688.3262">
	<stop  offset="0" style="stop-color:#EAD18F"/>
	<stop  offset="0.0765" style="stop-color:#E1C477"/>
	<stop  offset="0.2209" style="stop-color:#D1AF4E"/>
	<stop  offset="0.3352" style="stop-color:#C8A235"/>
	<stop  offset="0.4045" style="stop-color:#C49D2C"/>
	<stop  offset="0.559" style="stop-color:#D4B35C"/>
	<stop  offset="0.7658" style="stop-color:#E7CD97"/>
	<stop  offset="0.9188" style="stop-color:#F3DEBB"/>
	<stop  offset="1" style="stop-color:#F8E4C9"/>
</linearGradient>
<rect x="0.951" y="683.326" display="none" fill="url(#XMLID_1_)" width="1920" height="10"/>
<defs>
	<filter id="Adobe_OpacityMaskFilter" filterUnits="userSpaceOnUse" x="0.5" y="610.872" width="1920.301" height="471.86">
		<feColorMatrix  type="matrix" values="1 0 0 0 0  0 1 0 0 0  0 0 1 0 0  0 0 0 1 0"/>
	</filter>
</defs>
<mask maskUnits="userSpaceOnUse" x="0.5" y="610.872" width="1920.301" height="471.86" id="XMLID_2_">
	<g filter="url(#Adobe_OpacityMaskFilter)">
		<linearGradient id="XMLID_3_" gradientUnits="userSpaceOnUse" x1="960.6509" y1="1082.7324" x2="960.6509" y2="610.8721">
			<stop  offset="0" style="stop-color:#FFFFFF"/>
			<stop  offset="1" style="stop-color:#000000"/>
		</linearGradient>
		<polygon fill="url(#XMLID_3_)" fill-opacity="0.8" points="0.5,1082.732 0.5,610.872 1920.801,1082.732 		"/>
	</g>
</mask>
<polygon display="none" mask="url(#XMLID_2_)" fill="#283455" fill-opacity="0.8" points="0.5,1082.732 0.5,610.872 
	1920.801,1082.732 "/>
<defs>
	<filter id="Adobe_OpacityMaskFilter_1_" filterUnits="userSpaceOnUse" x="0.8" y="502.574" width="1920.3" height="585.186">
		<feColorMatrix  type="matrix" values="1 0 0 0 0  0 1 0 0 0  0 0 1 0 0  0 0 0 1 0"/>
	</filter>
</defs>
<mask maskUnits="userSpaceOnUse" x="0.8" y="502.574" width="1920.3" height="585.186" id="XMLID_4_">
	<g filter="url(#Adobe_OpacityMaskFilter_1_)">
		<linearGradient id="XMLID_5_" gradientUnits="userSpaceOnUse" x1="960.9507" y1="1087.7598" x2="960.9507" y2="502.5737">
			<stop  offset="0" style="stop-color:#FFFFFF"/>
			<stop  offset="1" style="stop-color:#000000"/>
		</linearGradient>
		<polygon fill="url(#XMLID_5_)" fill-opacity="0.8" points="1921.101,1087.76 1920.8,502.573 0.8,1087.76 		"/>
	</g>
</mask>
<linearGradient id="XMLID_6_" gradientUnits="userSpaceOnUse" x1="846.8008" y1="795.168" x2="2767.1006" y2="795.1682" gradientTransform="matrix(-1 0 0 1 2767.9023 0)">
	<stop  offset="0" style="stop-color:#EAD18F"/>
	<stop  offset="0.0765" style="stop-color:#E1C477"/>
	<stop  offset="0.2209" style="stop-color:#D1AF4E"/>
	<stop  offset="0.3352" style="stop-color:#C8A235"/>
	<stop  offset="0.4045" style="stop-color:#C49D2C"/>
	<stop  offset="0.559" style="stop-color:#D4B35C"/>
	<stop  offset="0.7658" style="stop-color:#E7CD97"/>
	<stop  offset="0.9188" style="stop-color:#F3DEBB"/>
	<stop  offset="1" style="stop-color:#F8E4C9"/>
</linearGradient>
<polygon display="none" mask="url(#XMLID_4_)" fill="url(#XMLID_6_)" fill-opacity="0.8" points="1921.101,1087.76 1920.8,502.574 
	0.8,1087.76 "/>
<rect x="0.5" y="5.527" display="none" fill="none" stroke="#B2B2B2" width="1920.301" height="1077.205"/>
<defs>
	<filter id="Adobe_OpacityMaskFilter_2_" filterUnits="userSpaceOnUse" x="0.801" y="605.845" width="1920.301" height="471.86">
		<feColorMatrix  type="matrix" values="1 0 0 0 0  0 1 0 0 0  0 0 1 0 0  0 0 0 1 0"/>
	</filter>
</defs>
<mask maskUnits="userSpaceOnUse" x="0.801" y="605.845" width="1920.301" height="471.86" id="XMLID_7_">
	<g filter="url(#Adobe_OpacityMaskFilter_2_)">
		<linearGradient id="XMLID_8_" gradientUnits="userSpaceOnUse" x1="960.9512" y1="1077.7051" x2="960.9512" y2="605.8447">
			<stop  offset="0" style="stop-color:#FFFFFF"/>
			<stop  offset="1" style="stop-color:#000000"/>
		</linearGradient>
		<polygon fill="url(#XMLID_8_)" fill-opacity="0.8" points="0.801,1077.705 0.801,605.845 1921.102,1077.705 		"/>
	</g>
</mask>
<polygon display="none" mask="url(#XMLID_7_)" fill="#A22041" fill-opacity="0.8" points="0.801,1077.705 0.801,605.845 
	1921.102,1077.705 "/>
<defs>
	<filter id="Adobe_OpacityMaskFilter_3_" filterUnits="userSpaceOnUse" x="1.101" y="497.547" width="1920.3" height="585.186">
		<feColorMatrix  type="matrix" values="1 0 0 0 0  0 1 0 0 0  0 0 1 0 0  0 0 0 1 0"/>
	</filter>
</defs>
<mask maskUnits="userSpaceOnUse" x="1.101" y="497.547" width="1920.3" height="585.186" id="XMLID_9_">
	<g filter="url(#Adobe_OpacityMaskFilter_3_)">
		<linearGradient id="XMLID_10_" gradientUnits="userSpaceOnUse" x1="961.252" y1="1082.7324" x2="961.252" y2="497.5464">
			<stop  offset="0" style="stop-color:#FFFFFF"/>
			<stop  offset="1" style="stop-color:#000000"/>
		</linearGradient>
		<polygon fill="url(#XMLID_10_)" fill-opacity="0.8" points="1921.401,1082.732 1921.101,497.546 1.101,1082.732 		"/>
	</g>
</mask>
<linearGradient id="XMLID_11_" gradientUnits="userSpaceOnUse" x1="846.5" y1="790.1406" x2="2766.7998" y2="790.1408" gradientTransform="matrix(-1 0 0 1 2767.9023 0)">
	<stop  offset="0" style="stop-color:#EAD18F"/>
	<stop  offset="0.0765" style="stop-color:#E1C477"/>
	<stop  offset="0.2209" style="stop-color:#D1AF4E"/>
	<stop  offset="0.3352" style="stop-color:#C8A235"/>
	<stop  offset="0.4045" style="stop-color:#C49D2C"/>
	<stop  offset="0.559" style="stop-color:#D4B35C"/>
	<stop  offset="0.7658" style="stop-color:#E7CD97"/>
	<stop  offset="0.9188" style="stop-color:#F3DEBB"/>
	<stop  offset="1" style="stop-color:#F8E4C9"/>
</linearGradient>
<polygon display="none" mask="url(#XMLID_9_)" fill="url(#XMLID_11_)" fill-opacity="0.8" points="1921.401,1082.732 
	1921.101,497.547 1.101,1082.732 "/>
<rect x="0.801" y="0.5" display="none" fill="none" stroke="#B2B2B2" width="1920.301" height="1077.205"/>
<rect x="0.801" y="2.732" display="none" fill="none" stroke="#B2B2B2" width="1920" height="1080"/>
<path display="none" fill="#66CCCC" stroke="#66CCCC" d="M1718.655,599.558c-142.553-78.008-162.917-15.002-192.009-12.001
	c-29.093,3.001-133.826,87.009-261.831,15.001c-128.006-72.008-238.557-15.001-250.193-9.001c-11.639,6-154.19,69.007-328.744,3.001
	s-244.375-18.002-346.198,12.001s-142.552,18.002-203.646-24.003c-56.06-38.544-124.358,21.429-135.234,31.575v467.602h1920V598.45
	C1894.754,631.337,1858.507,676.087,1718.655,599.558z"/>
<path display="none" opacity="0.5" fill="#283455" stroke="#283455" d="M1718.655,598.558
	c-142.553-78.008-162.917-15.002-192.009-12.001c-29.093,3.001-133.826,87.009-261.831,15.001
	c-128.006-72.008-238.557-15.001-250.193-9.001c-11.639,6-154.19,69.007-328.744,3.001s-244.375-18.002-346.198,12.001
	s-142.552,18.002-203.646-24.003c-56.06-38.544-124.358,21.429-135.234,31.575v467.602h1920V597.45
	C1894.754,630.337,1858.507,675.087,1718.655,598.558z"/>
<rect x="0.801" y="4.732" display="none" fill="none" stroke="#B2B2B2" width="1920" height="1080"/>
</svg>
