<?xml version="1.0" encoding="utf-8"?>
<!-- Generator: Adobe Illustrator 12.0.0, SVG Export Plug-In  -->
<!DOCTYPE svg PUBLIC "-//W3C//DTD SVG 1.1//EN" "http://www.w3.org/Graphics/SVG/1.1/DTD/svg11.dtd" [
	<!ENTITY ns_flows "http://ns.adobe.com/Flows/1.0/">
	<!ENTITY ns_svg "http://www.w3.org/2000/svg">
	<!ENTITY ns_xlink "http://www.w3.org/1999/xlink">
]>
<svg  version="1.1" xmlns="&ns_svg;" xmlns:xlink="&ns_xlink;" xmlns:a="http://ns.adobe.com/AdobeSVGViewerExtensions/3.0/"
	 width="32" height="31" viewBox="866.102 252.732 32 31" enable-background="new 866.102 252.732 32 31" xml:space="preserve">
<defs>
</defs>
<path fill="#EA9A7C" d="M882.71,252.909c-1.289,0-2.533,0.179-3.728,0.483c3.136,2.797,5.131,6.952,5.131,11.6
	c0,2.831-0.751,5.473-2.036,7.744c5.623-2.152,9.619-7.561,9.619-13.911c0-1.104-0.139-2.173-0.37-3.207
	C888.883,253.913,885.915,252.909,882.71,252.909z"/>
<linearGradient id="XMLID_1_" gradientUnits="userSpaceOnUse" x1="867.0283" y1="263.8228" x2="883.2646" y2="263.8228">
	<stop  offset="0" style="stop-color:#EA9A7C"/>
	<stop  offset="1" style="stop-color:#F2A0A1"/>
</linearGradient>
<path fill="url(#XMLID_1_)" d="M878.212,253.742c-6.425,1.646-11.184,7.489-11.184,14.465c0,0.993,0.187,2.116,0.602,2.859
	c2.14,1.858,5.102,2.838,8.329,2.838c1.871,0,3.653-0.362,5.3-0.997c1.267-2.25,2.006-4.868,2.006-7.673
	C883.265,260.629,881.3,256.513,878.212,253.742z"/>
<path fill="#E18E76" d="M891.763,256.322c0.273,1.125,0.434,2.294,0.434,3.502c0,8.239-6.716,14.917-15.001,14.917
	c-3.715,0-7.107-1.351-9.728-3.575c1.459,6.804,7.502,11.908,14.742,11.908c8.33,0,15.083-6.752,15.083-15.083
	C897.293,263.288,895.138,259.088,891.763,256.322z"/>
<rect x="853.366" y="235.015" display="none" fill="none" stroke="#000000" width="45" height="45"/>
<path display="none" fill="#FFFFFF" stroke="#FFBF00" d="M858.725,269.861c2.851,10.954,11.156,18.889,20.97,18.889
	c12.167,0,22.03-12.189,22.03-27.225c0-3.074-0.431-6.02-1.192-8.775L858.725,269.861z"/>
<line display="none" fill="none" stroke="#FFFFFF" stroke-width="1.2" x1="859.212" y1="269.649" x2="899.968" y2="253.015"/>
<path display="none" fill="#FFBF00" d="M860.182,268.52c2.607,10.024,10.206,17.283,19.185,17.283
	c11.131,0,20.155-11.154,20.155-24.91c0-2.813-0.395-5.507-1.089-8.027L860.182,268.52z"/>
<path display="none" fill="#FFFFFF" d="M867.232,269.552c-0.332,0.296-0.811,0.229-1.07-0.153c-0.259-0.381-0.198-0.929,0.135-1.225
	s2.284-1.572,2.543-1.191C869.099,267.365,867.566,269.257,867.232,269.552z"/>
<path display="none" fill="#FFFFFF" d="M870.446,273.549c-0.224,0.408-0.694,0.531-1.051,0.272
	c-0.358-0.255-0.464-0.796-0.239-1.204c0.224-0.409,1.677-2.371,2.035-2.114C871.546,270.76,870.672,273.138,870.446,273.549z"/>
<path display="none" fill="#FFFFFF" d="M874.73,276.504c-0.134,0.454-0.568,0.699-0.968,0.542c-0.399-0.155-0.612-0.654-0.474-1.109
	c0.136-0.457,1.154-2.751,1.556-2.596C875.243,273.5,874.869,276.046,874.73,276.504z"/>
<path display="none" fill="#FFFFFF" d="M879.804,277.254c-0.001,0.482-0.343,0.871-0.766,0.869c-0.423,0-0.763-0.392-0.76-0.876
	c0-0.48,0.324-3.026,0.748-3.026C879.446,274.221,879.805,276.771,879.804,277.254z"/>
<path display="none" fill="#FFFFFF" d="M884.849,276.4c0.125,0.458-0.099,0.949-0.503,1.092c-0.402,0.146-0.83-0.113-0.954-0.575
	c-0.125-0.461-0.482-2.999-0.079-3.145C883.715,273.629,884.725,275.94,884.849,276.4z"/>
<path display="none" fill="#FFFFFF" d="M889.819,273.694c0.277,0.359,0.249,0.913-0.068,1.232c-0.316,0.321-0.799,0.285-1.077-0.077
	c-0.279-0.363-1.513-2.511-1.197-2.833C887.793,271.698,889.539,273.33,889.819,273.694z"/>
<path display="none" fill="#FFFFFF" d="M892.658,268.395c0.347,0.27,0.439,0.813,0.199,1.212c-0.237,0.399-0.71,0.5-1.06,0.228
	c-0.348-0.27-2.008-2.004-1.771-2.404C890.263,267.034,892.309,268.121,892.658,268.395z"/>
<path display="none" fill="#FFFFFF" d="M893.321,262.221c0.419,0.017,0.75,0.421,0.732,0.908c-0.015,0.481-0.369,0.856-0.792,0.836
	c-0.42-0.017-2.631-0.477-2.616-0.959C890.661,262.523,892.899,262.199,893.321,262.221z"/>
<path display="none" fill="#FFFFFF" d="M892.393,256.586c0.405-0.127,0.824,0.148,0.933,0.619c0.11,0.464-0.132,0.944-0.541,1.068
	c-0.406,0.126-2.637,0.43-2.748-0.035C889.928,257.771,891.983,256.709,892.393,256.586z"/>
<rect x="0.801" y="5.527" display="none" fill="none" stroke="#B2B2B2" width="1920.301" height="1077.205"/>
<rect x="1.102" y="2.732" display="none" fill="none" stroke="#B2B2B2" width="1920.301" height="1077.205"/>
<rect x="1.102" y="2.732" display="none" fill="none" stroke="#B2B2B2" width="1920.301" height="1079.955"/>
<rect x="0.801" y="2.777" display="none" fill="none" stroke="#B2B2B2" width="1920.301" height="1079.955"/>
<rect x="1.102" y="2.732" display="none" fill="none" stroke="#ABCED8" width="1920.301" height="1079.955"/>
<rect x="1.102" y="0.5" display="none" fill="none" stroke="#B2B2B2" width="1920.301" height="1077.205"/>
<rect x="1.102" y="2.777" display="none" fill="none" stroke="#B2B2B2" width="1920.301" height="1079.955"/>
<rect x="1.102" y="2.777" display="none" fill="none" stroke="#B2B2B2" width="1920.301" height="1079.955"/>
<rect x="1.102" y="2.777" display="none" fill="none" stroke="#ABCED8" width="1920.301" height="1079.955"/>
<rect x="1.102" y="2.732" display="none" fill="none" stroke="#B2B2B2" width="1920.301" height="1077.205"/>
<rect x="0.501" y="2.732" display="none" fill="none" stroke="#B2B2B2" width="1920.301" height="1079.955"/>
<rect x="1.102" y="2.777" display="none" fill="none" stroke="#B2B2B2" width="1920.301" height="1079.955"/>
<rect x="0.801" y="3.777" display="none" fill="none" stroke="#ABCED8" width="1920.301" height="1079.955"/>
<rect x="1.102" y="2.732" display="none" fill="none" stroke="#B2B2B2" width="1920.301" height="1077.205"/>
<rect x="1.102" y="2.777" display="none" fill="none" stroke="#B2B2B2" width="1920.301" height="1079.955"/>
<rect x="1.102" y="2.777" display="none" fill="none" stroke="#B2B2B2" width="1920.301" height="1079.955"/>
<rect x="1.102" y="2.777" display="none" fill="none" stroke="#ABCED8" width="1920.301" height="1079.955"/>
<rect x="0.5" y="0.5" display="none" fill="none" stroke="#B2B2B2" width="1920.301" height="1077.205"/>
<rect x="1.102" y="2.732" display="none" fill="none" stroke="#B2B2B2" width="1920.301" height="1079.955"/>
<rect x="0.801" y="2.732" display="none" fill="none" stroke="#B2B2B2" width="1920.301" height="1079.955"/>
<rect x="0.801" y="2.777" display="none" fill="none" stroke="#ABCED8" width="1920.301" height="1079.955"/>
<rect x="1.102" y="2.732" display="none" fill="none" stroke="#B2B2B2" width="1920.301" height="1077.205"/>
<rect x="0.501" y="2.732" display="none" fill="none" stroke="#B2B2B2" width="1920.301" height="1079.955"/>
<rect x="1.102" y="2.777" display="none" fill="none" stroke="#B2B2B2" width="1920.301" height="1079.955"/>
<rect x="0.801" y="2.732" display="none" fill="none" stroke="#ABCED8" width="1920.301" height="1079.955"/>
<rect x="0.5" y="2.732" display="none" fill="none" stroke="#B2B2B2" width="1920.301" height="1077.205"/>
<rect x="1.102" y="2.777" display="none" fill="none" stroke="#B2B2B2" width="1920.301" height="1079.955"/>
<rect x="1.102" y="2.777" display="none" fill="none" stroke="#B2B2B2" width="1920.301" height="1079.955"/>
<rect x="1.102" y="2.777" display="none" fill="none" stroke="#ABCED8" width="1920.301" height="1079.955"/>
<rect x="4.102" y="5.732" display="none" fill="none" stroke="#B2B2B2" width="1920.301" height="1077.205"/>
<rect x="1.102" y="2.732" display="none" fill="none" stroke="#B2B2B2" width="1920.301" height="1079.955"/>
<rect x="1.102" y="2.777" display="none" fill="none" stroke="#B2B2B2" width="1920.301" height="1079.955"/>
<rect x="1.102" y="2.777" display="none" fill="none" stroke="#B2B2B2" width="1920.301" height="1079.955"/>
<rect x="1.102" y="4.732" display="none" fill="none" stroke="#B2B2B2" width="1920" height="1080"/>
</svg>
