<!--?xml version="1.0" encoding="utf-8"?-->
<!-- Generator: Adobe Illustrator 19.1.1, SVG Export Plug-In . SVG Version: 6.00 Build 0)  -->
<svg version="1.1" id="_x31_0" xmlns="http://www.w3.org/2000/svg" xmlns:xlink="http://www.w3.org/1999/xlink" x="0px" y="0px" viewBox="0 0 512 512" style="width: 48px; height: 48px; opacity: 1;" xml:space="preserve">
<style type="text/css">
	.st0{fill:#374149;}
</style>
<g>
	<polygon class="st0" points="187.803,396.246 187.803,396.086 171.147,396.086 171.147,429.402 187.803,429.402 187.803,396.344 
		187.807,396.246 	" style="fill: rgb(82, 47, 96);"></polygon>
	<rect x="222.166" y="396.086" class="st0" width="16.657" height="33.317" style="fill: rgb(82, 47, 96);"></rect>
	<polygon class="st0" points="273.178,429.039 273.178,429.242 273.178,429.242 273.178,429.402 289.838,429.402 289.838,396.086 
		273.178,396.086 	" style="fill: rgb(82, 47, 96);"></polygon>
	<polygon class="st0" points="324.197,429.141 324.197,429.242 324.197,429.242 324.197,429.402 340.858,429.402 340.858,396.086 
		324.197,396.086 	" style="fill: rgb(82, 47, 96);"></polygon>
	<path class="st0" d="M429.525,477.453L429.525,477.453v-0.156h-26.718v-164.5c0-3.449-2.801-6.246-6.25-6.246h-28.008
		l-16.094-157.894h-55.477L280.885,306.55h-15.512v-26.605l0.074-12.126l-0.074,0.039v-0.179l-50.527,25.262l-22.355,11.098v-24.856
		l0.074-11.363l-0.074,0.039v-0.179l-77.738,38.87h0.691c-3.45,0-6.246,2.798-6.246,6.246v164.5h-26.48h-0.082l0,0h-0.16V512h347.05
		v-34.336V477.453z M306.396,286.285l4.566-44.808h27.508l4.18,40.984l0.374,3.84H309.69L306.396,286.285z M337.608,233.145h-23.519
		l-2.278-0.016l4.562-44.746h16.687l4.133,40.523L337.608,233.145z M377.819,468.969H134.768h-0.582V337.782
		c0-3.446,2.797-6.242,6.242-6.242h231.145c3.446,0,6.246,2.797,6.246,6.242v130.945V468.969z" style="fill: rgb(82, 47, 96);"></path>
	<path class="st0" d="M252.284,31.301c22.098,1.313,39.289,19.488,39.289,41.738v8.074v0.05l0,0v0.16h8.289
		c22.18,0,40.426,17.418,41.738,39.293v6.836h16.59v-0.105v-0.02v-6.711c-1.157-27.527-21.29-50.492-48.672-55.062l-1.906-0.324
		l-0.286-2.012c-0.202-1.226-0.64-2.355-0.918-3.554c-0.211-0.902-0.446-1.797-0.695-2.683c-0.707-2.465-1.555-4.84-2.562-7.153
		c-0.258-0.594-0.524-1.176-0.805-1.758c-1.215-2.554-2.598-4.985-4.156-7.317c-0.165-0.238-0.325-0.476-0.489-0.714
		c-10.152-14.68-26.683-24.531-45.418-25.336v0.102l-0.004-0.004l0.004,0.629V31.301z" style="fill: rgb(82, 47, 96);"></path>
	<path class="st0" d="M221.604,74.672l1.594,0.344l0.438,1.671c4.418,21.5,23.523,37.07,45.442,37.07h18.422
		c4.27,0,9.039,3.902,9.039,8.641v4.867l-0.004,0.027h0.004v0.16h16.797v-0.105v-0.02v-6.711
		c-1.27-13.121-12.394-23.434-25.836-23.434h-18.305c-16.5,0-29.926-13.426-29.926-29.93v-8.168h-7.426
		c-8.035,0-15.824-3.328-21.371-9.125c-5.371-5.61-8.148-12.89-7.816-20.504c0.293-6.539,2.714-12.546,7.019-17.426L198.217,0
		c-0.024,0.023-0.043,0.05-0.066,0.078l-0.008-0.008c-0.258,0.278-0.485,0.586-0.734,0.875
		c-7.309,8.203-11.351,18.695-11.351,29.793C186.057,51.809,201.006,70.289,221.604,74.672z" style="fill: rgb(82, 47, 96);"></path>
</g>
</svg>
