<?xml version="1.0" encoding="utf-8"?><svg xmlns="http://www.w3.org/2000/svg" width="99" height="81" viewBox="84.733 31.721 99 81"><linearGradient id="a" gradientUnits="userSpaceOnUse" x1="106.291" y1="46.619" x2="161.8" y2="102.128"><stop offset="0" stop-color="#ead18f"/><stop offset=".076" stop-color="#e1c477"/><stop offset=".221" stop-color="#d1af4e"/><stop offset=".335" stop-color="#c8a235"/><stop offset=".405" stop-color="#c49d2c"/><stop offset=".559" stop-color="#d4b35c"/><stop offset=".766" stop-color="#e7cd97"/><stop offset=".919" stop-color="#f3debb"/><stop offset="1" stop-color="#f8e4c9"/></linearGradient><path opacity=".8" fill="url(#a)" d="M85.156 67.753h97.778v13.241H85.156z"/><path fill="#ABABAB" d="M94.99 96.216c-.476.59-.961.956-1.452 1.089-.222.054-.563.16-1.024.321-.225.134-.565.284-1.025.444a13.3 13.3 0 0 0-1.19.201 3.723 3.723 0 0 0-1.168.484c-.128-.27-.231-.686-.311-1.252-.063-.375-.166-.629-.31-.765a6.398 6.398 0 0 1-.023-.481c0-.567.107-1.088.321-1.572.214-.485.488-.728.822-.728.969.055 2.271.055 3.908 0 .666-.026 1.118.03 1.357.163.43.214.763.725 1.001 1.532-.333.055-.636.244-.906.564zm8.556 2.218c-4.353 7.36-8.579 11.993-12.678 13.902l-1.287-1.491a5.327 5.327 0 0 1-.072-.807c0-.536.248-1.531.739-2.984.716-.348 1.438-.697 2.169-1.046.826-.429 1.533-.86 2.121-1.289 1.318-1.021 3.257-3.223 5.813-6.609.303-.401 1.113-1.678 2.432-3.827.969-1.586 1.843-2.713 2.62-3.385l.572.281c-.127 2.31-.937 4.728-2.429 7.255zm-6.22-9.602c-.303.563-.548.818-.738.766l-4.074-.927c-.063 0-.184.061-.359.181-.174.122-.309.18-.404.18l-.19-.04-.382-1.972c-.063-.241-.031-.591.096-1.046.254-.938.817-1.41 1.691-1.41.206 0 .453.109.739.323.381.242.627.375.739.403.412.132 1.071.387 1.977.762.922.458 1.51 1.157 1.765 2.096-.32 0-.605.227-.86.684zM130.21 110.121l-1.05.928c-1.286-.701-2.659-2.123-4.122-4.274a1243.848 1243.848 0 0 1-3.598-5.56c-.239.27-1.549 2.013-3.932 5.239-1.541 2.067-2.985 3.489-4.337 4.268-.063-.159-.198-.294-.404-.4-.367-.16-.731-.336-1.097-.524-.493-.216-.818-.441-.977-.684-.049-.082-.167-.565-.358-1.452.223-.753.651-1.249 1.287-1.489.54-.136 1.073-.289 1.597-.465.524-.174 1.263-.798 2.216-1.874 2.097-2.312 3.63-4.313 4.599-6.005.731-1.262 1.898-3.761 3.504-7.494l-.406-.162a15.87 15.87 0 0 1-2.073.321c-.745.134-1.858.35-3.336.646l-1.405.24a2.293 2.293 0 0 0-1.264.97l-.356-.281c0-1.533-.039-2.5-.12-2.903.033-.833.311-1.467.835-1.894.144-.108.627-.363 1.453-.765.254.645.444.95.573.927l5.789-1.008.237-.041c.256 0 .525.107.811.322.031-.028.263-.39.691-1.088.27-.429.524-.645.763-.645.096 0 .207.027.333.083.096.32.377.658.847 1.005a3.16 3.16 0 0 1 1.036 1.29c-1.001 1.693-1.652 2.914-1.954 3.666a92.922 92.922 0 0 1-1.144 3.104c-.126.293-.508 1.008-1.143 2.137-.51.913-.827 1.664-.954 2.254.89 1.076 1.771 2.163 2.646 3.267.937 1.073 1.962 1.798 3.072 2.175 1.003.216 2.503.685 4.504 1.41-.254.808-.727 1.645-1.417 2.518-.691.874-1.14 1.619-1.346 2.238zM155.396 98.071c-.208.054-.48.312-.822.766-.341.46-.655.687-.941.687-.174 0-.588-.173-1.239-.522-.762-.431-1.225-.672-1.382-.726-.304.025-.747-.015-1.334-.12l-.43.158-.811-.359c-.175.294-.348 1.128-.522 2.495l-.287 1.854c-.128.698-.276 1.275-.453 1.732a17.24 17.24 0 0 1-2.072 3.746c-.922 1.261-1.813 2.096-2.67 2.499-1.46.725-2.533 1.087-3.217 1.087-.236 0-.897-.094-1.977-.284l-.334-1.247c.047-1.612.462-2.632 1.239-3.063.318-.162 1.087-.241 2.313-.241.508 0 1.063-.12 1.667-.363.763-.322 1.587-1.063 2.478-2.217 1.001-1.316 1.502-2.526 1.502-3.628a3.71 3.71 0 0 0-.025-.362l-.047-.324c-.333-.427-.581-1.047-.739-1.853l-.333-.286c-.477-.027-1.184-.013-2.12.041-.351.053-1.16.294-2.433.726-1.318.457-2.089.781-2.311.967-.223.188-.412.525-.572 1.008l-.404.243-.549-.081-.216-1.33c.143-1.047.271-1.802.384-2.257.189-.833.451-1.45.785-1.854a281.13 281.13 0 0 1 5.506-1.129c.666-.108 1.636-.161 2.906-.161 1.287 0 3.963.294 8.03.887.031 0 .079-.029.143-.081l.238-.081.238.081c.047.028.103.052.168.081l1.167-.161.62.442c-.097.482-.289 1.058-.574 1.716-.285.659-.476 1.165-.57 1.514zm-2.907-10.155c-.078 1.129-.698 1.692-1.858 1.692-.285 0-.699-.04-1.238-.121-.542-.081-.947-.121-1.217-.121-.127 0-.294-.027-.501-.08a3.796 3.796 0 0 1-.5-.122c-.508-.081-1.04-.12-1.597-.12-.237 0-.954.091-2.143.281-1.193.186-1.838.322-1.931.403-.016 0-.109.122-.274.363-.166.242-.307.351-.418.322l-.5-.201-.403-1.532c.093-1.423.459-2.271 1.096-2.539.252 0 .634-.069 1.143-.202 1.24-.565 2.685-.793 4.336-.686 1.987.133 3.011.202 3.073.202 1.146.214 2.131.699 2.957 1.451 0 .245-.009.579-.025 1.01zM178.176 109.95c-.222 0-.518-.08-.881-.24a20.526 20.526 0 0 0-.856-.323c-.367-.055-1.64-.202-3.813-.444-1.463-.16-2.281-.241-2.456-.241-3.43 0-6.281 1.075-8.555 3.224-.603-.886-.906-2.337-.906-4.352 0-.269.137-.592.408-.967.427-.218.761-.311.999-.284.558-.482 1.078-1.412 1.575-2.783.378-1.128.761-2.256 1.141-3.384.336-.835.819-2.095 1.455-3.789.191-.616.483-1.531.882-2.74.363-1.046.617-1.839.761-2.377a18.74 18.74 0 0 0 .597-2.499l-.047-.121a1.57 1.57 0 0 1-.238-.805c0-.833.253-1.479.761-1.934.478-.27.945-.538 1.405-.808.415.297.995.673 1.74 1.129.223.349.336.915.336 1.693 0 .431-.199.927-.598 1.49-.303.405-.604.808-.905 1.208-.999 1.801-2.231 4.933-3.694 9.389-.331.807-.667 1.612-.999 2.418-.413 1.021-.636 1.882-.669 2.579 1.208-.348 2.661-.522 4.363-.522 2.747 0 4.701.217 5.86.645-.27-1.346-.57-2.244-.905-2.701-.381-.51-.627-.847-.739-1.008a12.332 12.332 0 0 1-.595-1.329c.159-1.155.588-1.838 1.285-2.056.24.109.582.311 1.026.604.016 0 .254.351.713 1.048.209.242.518.646.931 1.211.318.483.707 1.558 1.167 3.224a45.83 45.83 0 0 1 .883 3.589 4.29 4.29 0 0 1-.524 1.552c-.272.468-.576.704-.908.704z"/><path d="M94.176 94.841c-.476.591-.959.953-1.452 1.088-.222.054-.564.161-1.023.321-.224.134-.564.284-1.026.444-.57.082-.969.149-1.19.202a3.79 3.79 0 0 0-1.167.484c-.128-.269-.232-.686-.311-1.249-.063-.375-.165-.633-.311-.765a7.75 7.75 0 0 1-.023-.484c0-.566.107-1.088.322-1.573.215-.482.488-.724.822-.724.969.052 2.272.052 3.907 0 .668-.027 1.121.026 1.358.161.429.216.762.725 1.002 1.531-.334.053-.637.241-.908.564zm8.556 2.216c-4.353 7.361-8.579 11.995-12.677 13.904l-1.287-1.492a5.04 5.04 0 0 1-.071-.806c0-.539.245-1.532.738-2.981.715-.351 1.438-.698 2.168-1.049a16.62 16.62 0 0 0 2.121-1.288c1.318-1.021 3.257-3.225 5.814-6.61.301-.404 1.111-1.679 2.431-3.829.968-1.583 1.843-2.711 2.621-3.385l.571.283c-.127 2.309-.935 4.727-2.429 7.253zm-6.219-9.601c-.302.564-.547.819-.738.764l-4.075-.925c-.064 0-.184.059-.358.181-.176.12-.31.18-.405.18l-.19-.039-.381-1.971c-.064-.243-.032-.59.095-1.047.254-.94.818-1.407 1.692-1.407.206 0 .452.105.738.321.381.241.628.373.739.401.412.133 1.071.389 1.977.763.922.458 1.511 1.155 1.765 2.095-.32 0-.605.227-.859.684zM129.396 108.745l-1.049.925c-1.287-.697-2.661-2.121-4.123-4.271a1028.347 1028.347 0 0 1-3.598-5.562c-.238.27-1.549 2.017-3.932 5.237-1.541 2.07-2.986 3.496-4.336 4.274-.064-.162-.198-.297-.406-.404a22.2 22.2 0 0 1-1.097-.523c-.491-.215-.818-.443-.976-.687-.047-.078-.168-.563-.357-1.448.223-.754.65-1.25 1.287-1.491.54-.135 1.07-.289 1.596-.465.524-.174 1.263-.799 2.216-1.874 2.097-2.31 3.631-4.312 4.6-6.004.73-1.262 1.898-3.759 3.502-7.496l-.404-.161c-.571.133-1.265.242-2.073.322-.747.135-1.858.35-3.336.644l-1.405.244a2.299 2.299 0 0 0-1.265.967l-.357-.283c0-1.531-.038-2.498-.119-2.901.032-.833.312-1.462.835-1.894.143-.106.628-.361 1.454-.765.254.645.444.954.571.927l5.789-1.008.239-.042c.256 0 .524.109.811.324.031-.027.263-.39.691-1.089.27-.431.523-.646.762-.646.096 0 .208.029.334.083.096.32.377.657.846 1.007s.815.779 1.037 1.289c-1.002 1.693-1.652 2.917-1.956 3.668a95.182 95.182 0 0 1-1.142 3.103c-.128.296-.509 1.009-1.146 2.136-.507.912-.825 1.664-.952 2.257a191.836 191.836 0 0 1 2.646 3.265c.937 1.074 1.962 1.799 3.073 2.175 1.001.215 2.503.685 4.505 1.411-.255.806-.728 1.644-1.419 2.519-.69.872-1.139 1.617-1.346 2.237zM154.581 96.694c-.203.055-.478.309-.819.766-.344.459-.654.688-.942.688-.176 0-.587-.177-1.24-.524-.763-.43-1.223-.671-1.382-.725-.302.027-.745-.011-1.334-.12l-.428.161-.811-.363c-.176.297-.351 1.128-.525 2.499l-.283 1.853c-.129.696-.28 1.274-.454 1.731a17.268 17.268 0 0 1-2.074 3.746c-.921 1.262-1.811 2.094-2.668 2.496-1.463.727-2.532 1.089-3.218 1.089-.237 0-.896-.097-1.976-.281l-.335-1.251c.048-1.61.459-2.632 1.24-3.063.317-.161 1.086-.241 2.31-.241.509 0 1.065-.121 1.67-.362.762-.322 1.589-1.061 2.478-2.217 1.001-1.317 1.501-2.527 1.501-3.631 0-.077-.009-.197-.024-.358l-.048-.324c-.334-.43-.58-1.046-.738-1.854l-.334-.284c-.476-.026-1.184-.013-2.121.041-.349.054-1.158.295-2.431.724-1.319.459-2.088.782-2.311.971-.223.186-.412.523-.571 1.007l-.406.241-.549-.079-.214-1.33c.144-1.05.271-1.801.383-2.259.188-.835.451-1.453.786-1.855 1.222-.269 3.056-.645 5.505-1.129.665-.105 1.636-.161 2.905-.161 1.288 0 3.965.297 8.031.887.031 0 .079-.026.143-.081l.237-.081.239.081c.047.028.102.055.168.081l1.166-.161.619.443c-.096.486-.285 1.057-.571 1.717-.287.657-.477 1.163-.574 1.512zm-2.906-10.154c-.076 1.128-.699 1.693-1.858 1.693-.283 0-.698-.041-1.239-.122-.539-.08-.945-.12-1.214-.12-.129 0-.295-.026-.502-.082-.271-.053-.436-.092-.499-.121a10.252 10.252 0 0 0-1.599-.121c-.238 0-.952.095-2.142.282-1.193.19-1.837.323-1.933.403-.015 0-.107.121-.273.366-.167.239-.306.346-.416.319l-.501-.202-.407-1.529c.099-1.426.462-2.271 1.099-2.542.253 0 .636-.068 1.144-.201 1.238-.565 2.684-.792 4.337-.684 1.985.134 3.01.202 3.073.202 1.146.216 2.129.699 2.957 1.451-.001.242-.01.577-.027 1.008zM177.363 108.573c-.224 0-.519-.08-.881-.239a20.16 20.16 0 0 0-.859-.323 212.23 212.23 0 0 0-3.813-.445c-1.461-.159-2.276-.239-2.453-.239-3.43 0-6.284 1.075-8.555 3.223-.604-.886-.906-2.334-.906-4.353 0-.266.135-.592.405-.967.429-.214.764-.31 1.002-.282.555-.482 1.081-1.413 1.573-2.781.379-1.131.763-2.26 1.142-3.384.333-.834.82-2.097 1.454-3.791.192-.619.485-1.53.883-2.741.364-1.046.618-1.838.762-2.377.27-.885.468-1.719.596-2.497l-.048-.121a1.582 1.582 0 0 1-.238-.806c0-.834.255-1.479.763-1.936.479-.268.944-.538 1.405-.805.414.293.993.67 1.739 1.127.224.351.335.913.335 1.692 0 .432-.198.928-.596 1.492l-.907 1.208c-1 1.803-2.231 4.932-3.691 9.391-.334.805-.667 1.611-1.002 2.416-.411 1.021-.634 1.882-.667 2.583 1.207-.352 2.661-.526 4.36-.526 2.748 0 4.703.216 5.862.645-.27-1.343-.571-2.243-.906-2.701a32.436 32.436 0 0 1-.737-1.008c-.174-.32-.373-.765-.597-1.328.16-1.154.587-1.841 1.285-2.053.241.107.582.307 1.025.604.018 0 .255.348.717 1.047.205.242.517.646.93 1.209.317.482.705 1.558 1.167 3.225.382 1.343.676 2.539.88 3.588a4.253 4.253 0 0 1-.524 1.552c-.271.468-.571.701-.905.701zM90.429 73.971h3.741v-2.316c0-.41-.025-.68-.077-.812a.524.524 0 0 0-.251-.254 1.093 1.093 0 0 0-.543-.144h-.286v-.223h3.456v.223h-.286c-.191 0-.371.046-.543.137a.505.505 0 0 0-.26.287c-.046.129-.068.392-.068.786v5.229c0 .41.025.68.077.812.04.098.122.183.245.255.176.095.357.143.549.143h.286v.223h-3.456v-.223h.286c.33 0 .571-.097.723-.292.099-.125.148-.432.148-.917v-2.467h-3.741v2.467c0 .41.025.68.077.812.04.098.123.183.249.255.17.095.351.143.54.143h.291v.223H88.13v-.223h.286c.334 0 .577-.097.729-.292.095-.125.143-.432.143-.917v-5.229c0-.41-.025-.68-.077-.812a.532.532 0 0 0-.245-.254 1.123 1.123 0 0 0-.549-.144h-.287v-.223h3.456v.223h-.291c-.189 0-.37.046-.54.137a.52.52 0 0 0-.255.287c-.048.129-.071.392-.071.786v2.314zM104.83 78.316h-2.158l-2.734-3.788c-.199.008-.361.012-.485.012-.05 0-.105 0-.163-.002-.059-.002-.119-.006-.182-.01v2.355c0 .509.056.826.167.947.149.175.375.263.677.263h.313v.223h-3.456v-.223h.303c.341 0 .584-.111.73-.334.083-.122.124-.414.124-.875v-5.229c0-.507-.055-.823-.166-.947-.153-.175-.384-.263-.688-.263h-.303v-.223h2.936c.855 0 1.486.063 1.893.189s.75.354 1.033.69c.283.336.425.736.425 1.202 0 .497-.161.929-.485 1.295-.323.366-.823.623-1.502.774l1.672 2.322c.38.533.707.889.98 1.064.273.175.631.286 1.07.334v.224zm-5.723-4.162c.074 0 .139.002.193.004.056.002.101.002.136.002.759 0 1.331-.167 1.718-.501.384-.332.577-.758.577-1.275 0-.505-.155-.915-.467-1.231-.311-.316-.723-.476-1.235-.476a5.31 5.31 0 0 0-.922.111v3.366zM110.014 74.528v2.355c0 .509.056.826.166.947.149.175.378.263.683.263h.309v.223h-3.456v-.223h.304c.342 0 .587-.111.734-.334.079-.122.119-.414.119-.875v-5.229c0-.507-.054-.823-.161-.947-.155-.175-.386-.263-.692-.263h-.304v-.223h2.956c.721 0 1.29.076 1.706.225.417.149.768.4 1.053.754.286.356.429.776.429 1.261 0 .66-.217 1.198-.651 1.611-.434.414-1.046.621-1.839.621-.194 0-.404-.014-.629-.042a7.973 7.973 0 0 1-.727-.124zm0-.342c.209.04.395.07.557.089.161.02.3.03.414.03.41 0 .765-.159 1.063-.479.297-.32.447-.734.447-1.244 0-.35-.072-.676-.214-.977a1.492 1.492 0 0 0-.604-.672 1.757 1.757 0 0 0-.888-.225c-.201 0-.46.038-.775.113v3.365zM117.631 77.526c-.559.434-.909.685-1.052.752-.213.1-.441.149-.683.149-.376 0-.686-.129-.93-.388-.242-.258-.364-.599-.364-1.022 0-.267.06-.498.178-.692.163-.271.444-.525.847-.764.401-.238 1.069-.531 2.004-.873v-.215c0-.543-.086-.917-.257-1.12-.172-.203-.421-.304-.747-.304-.249 0-.445.067-.591.203a.616.616 0 0 0-.225.464l.012.346c0 .183-.048.325-.141.422a.488.488 0 0 1-.37.149.47.47 0 0 1-.363-.155c-.095-.104-.141-.245-.141-.422 0-.342.174-.656.523-.943.349-.287.838-.43 1.468-.43.483 0 .88.082 1.189.245.233.124.406.316.518.579.071.171.106.521.106 1.05v1.854c0 .521.01.842.03.959.02.117.052.195.098.235.046.04.098.06.158.06a.326.326 0 0 0 .167-.042c.083-.052.244-.197.482-.436v.334c-.445.601-.87.899-1.275.899a.58.58 0 0 1-.465-.203c-.113-.134-.172-.365-.176-.691zm0-.388v-2.085c-.598.238-.983.408-1.158.507-.312.177-.536.36-.669.551-.135.191-.202.4-.202.627 0 .286.085.525.255.714s.366.283.587.283c.3 0 .696-.199 1.187-.597zM119.522 72.841h2.539v.215h-.125c-.178 0-.312.04-.401.117a.372.372 0 0 0-.134.292c0 .155.065.372.196.648l1.331 2.771 1.214-3.034a1.3 1.3 0 0 0 .101-.488.27.27 0 0 0-.041-.163c-.032-.043-.081-.08-.148-.105s-.187-.04-.357-.04v-.215h1.768v.215a.82.82 0 0 0-.339.097.986.986 0 0 0-.262.269 3.66 3.66 0 0 0-.202.463l-2.213 5.466c-.214.529-.495.929-.843 1.2-.348.272-.682.408-1.003.408a.83.83 0 0 1-.578-.203.62.62 0 0 1-.226-.468c0-.167.054-.302.163-.404.11-.102.26-.151.45-.151.132 0 .31.044.537.131.158.062.258.092.297.092.119 0 .249-.062.39-.187.142-.124.283-.362.426-.718l.384-.958-1.954-4.124a3.291 3.291 0 0 0-.285-.461 1.35 1.35 0 0 0-.244-.283 1.346 1.346 0 0 0-.439-.169v-.213zM127.397 72.682v1.229c.455-.82.923-1.229 1.402-1.229.218 0 .397.067.54.201s.214.287.214.462a.553.553 0 0 1-.154.394.5.5 0 0 1-.37.161c-.139 0-.294-.067-.466-.207-.172-.137-.3-.207-.382-.207-.071 0-.148.04-.232.119-.178.166-.361.434-.552.81v2.62c0 .304.038.533.113.69a.627.627 0 0 0 .273.269c.131.072.319.108.564.108v.215h-2.798v-.215c.277 0 .483-.044.618-.131a.514.514 0 0 0 .208-.307c.02-.067.03-.261.03-.581v-2.117c0-.639-.014-1.019-.039-1.14-.025-.122-.074-.211-.144-.267s-.155-.083-.26-.083c-.124 0-.263.03-.418.089l-.06-.215 1.658-.668h.255zM132.402 72.682c.825 0 1.486.314 1.986.945.424.537.636 1.154.636 1.852 0 .49-.117.985-.351 1.486-.234.503-.556.881-.966 1.136-.41.254-.867.382-1.371.382-.82 0-1.472-.328-1.956-.985a3.07 3.07 0 0 1-.612-1.864c0-.503.124-1 .372-1.498.247-.495.573-.861.978-1.098s.833-.356 1.284-.356zm-.183.39c-.21 0-.421.063-.632.189-.211.125-.382.346-.512.66-.131.314-.196.718-.196 1.211 0 .798.156 1.484.472 2.063.313.577.729.865 1.242.865.383 0 .699-.159.948-.478s.374-.867.374-1.643c0-.973-.208-1.737-.623-2.294-.281-.382-.639-.573-1.073-.573zM137.582 69.825v7.257c0 .342.024.569.074.681.05.109.126.195.229.252.104.058.296.086.577.086v.215h-2.68v-.215c.252 0 .424-.026.516-.078a.524.524 0 0 0 .215-.255c.053-.119.078-.348.078-.687v-4.973c0-.613-.014-.989-.041-1.13-.028-.141-.072-.237-.134-.289s-.14-.077-.235-.077c-.103 0-.233.032-.393.095l-.101-.215 1.626-.668h.269zM140.843 69.825v7.257c0 .342.025.569.074.681.05.109.126.195.229.252.103.058.295.086.576.086v.215h-2.679v-.215c.251 0 .423-.026.515-.078a.519.519 0 0 0 .215-.255c.053-.119.079-.348.079-.687v-4.973c0-.613-.015-.989-.042-1.13s-.072-.237-.134-.289-.14-.077-.234-.077a1.12 1.12 0 0 0-.393.095l-.102-.215 1.626-.668h.27zM150.348 70.04v2.801h-.222c-.071-.537-.199-.965-.385-1.283a2.012 2.012 0 0 0-.789-.76 2.175 2.175 0 0 0-1.06-.28c-.412 0-.755.127-1.024.38-.27.251-.404.539-.404.861 0 .245.085.47.256.673.246.298.832.696 1.758 1.193.754.404 1.271.716 1.547.933s.489.472.639.766.224.603.224.925c0 .613-.237 1.142-.711 1.586-.474.443-1.082.664-1.827.664a3.83 3.83 0 0 1-.659-.054 6.822 6.822 0 0 1-.765-.223c-.385-.129-.63-.193-.733-.193a.312.312 0 0 0-.234.091c-.058.062-.101.187-.128.378h-.222v-2.777h.222c.104.581.242 1.014.415 1.303.175.289.441.527.799.718.358.191.751.287 1.179.287.495 0 .886-.131 1.173-.394.286-.263.43-.573.43-.931 0-.199-.055-.4-.163-.603a1.782 1.782 0 0 0-.509-.567c-.154-.12-.578-.372-1.271-.758-.691-.386-1.183-.694-1.474-.925-.292-.231-.512-.486-.662-.764s-.226-.585-.226-.919c0-.579.222-1.081.665-1.5.445-.418 1.01-.629 1.696-.629.429 0 .884.107 1.363.32.222.1.379.149.471.149.103 0 .187-.03.252-.094.065-.062.118-.187.158-.376h.221zM151.481 72.841h2.539v.215h-.124c-.179 0-.313.04-.401.117a.37.37 0 0 0-.134.292c0 .155.065.372.196.648l1.33 2.771 1.214-3.034c.067-.166.102-.329.102-.488a.27.27 0 0 0-.042-.163c-.031-.043-.081-.08-.148-.105s-.187-.04-.356-.04v-.215h1.767v.215a.824.824 0 0 0-.339.097 1 1 0 0 0-.262.269 3.66 3.66 0 0 0-.202.463l-2.213 5.466c-.214.529-.495.929-.842 1.2-.348.272-.682.408-1.004.408a.83.83 0 0 1-.578-.203.62.62 0 0 1-.226-.468c0-.167.055-.302.163-.404.11-.102.26-.151.45-.151.132 0 .311.044.537.131.158.062.258.092.297.092.119 0 .249-.062.391-.187.141-.124.282-.362.425-.718l.384-.958-1.954-4.124a3.291 3.291 0 0 0-.285-.461 1.35 1.35 0 0 0-.244-.283 1.346 1.346 0 0 0-.439-.169v-.213zM161.276 72.682v1.862h-.198c-.15-.584-.343-.982-.578-1.195-.235-.211-.535-.316-.898-.316-.277 0-.5.074-.671.221-.169.149-.255.313-.255.492a.9.9 0 0 0 .188.573c.122.165.372.338.748.521l.868.423c.806.396 1.208.916 1.208 1.56 0 .499-.188.899-.562 1.204a1.938 1.938 0 0 1-1.258.458c-.333 0-.714-.06-1.142-.179a1.147 1.147 0 0 0-.321-.06c-.091 0-.162.052-.214.151h-.198v-1.949h.198c.111.559.323.979.637 1.263.313.282.663.424 1.052.424.273 0 .497-.08.669-.243a.768.768 0 0 0 .259-.583.936.936 0 0 0-.288-.694c-.192-.187-.576-.424-1.151-.712-.575-.287-.953-.545-1.131-.776-.179-.227-.268-.513-.268-.859 0-.45.153-.826.461-1.13.306-.302.703-.454 1.19-.454.215 0 .474.048.778.139.202.062.337.092.404.092.063 0 .112-.014.148-.042s.077-.091.125-.189h.2zM163.967 71.042v1.798h1.272v.422h-1.272v3.547c0 .354.05.593.151.716.1.124.229.185.389.185.131 0 .257-.04.379-.124a.772.772 0 0 0 .285-.362h.23c-.139.392-.336.684-.591.881-.254.199-.517.296-.786.296-.183 0-.361-.05-.536-.151s-.305-.247-.388-.436-.125-.481-.125-.875v-3.678h-.864v-.199c.219-.087.443-.237.672-.446.229-.208.435-.458.614-.744.094-.151.223-.43.387-.832h.183zM166.554 74.91c-.004.812.192 1.448.588 1.91.396.461.86.692 1.396.692.356 0 .666-.097.93-.292.263-.195.483-.533.662-1.013l.183.119a2.836 2.836 0 0 1-.726 1.488 1.935 1.935 0 0 1-1.503.668c-.654 0-1.214-.255-1.679-.766-.466-.511-.699-1.2-.699-2.063 0-.935.239-1.663.717-2.187.477-.523 1.076-.786 1.798-.786.61 0 1.11.203 1.503.607.393.404.589.945.589 1.621h-3.759zm0-.35h2.521c-.02-.35-.062-.597-.125-.74-.099-.223-.246-.397-.442-.525s-.401-.191-.615-.191c-.329 0-.623.129-.883.386-.261.256-.412.612-.456 1.07zM172.542 73.854c.396-.4.629-.631.7-.69.179-.153.37-.271.575-.354.207-.086.411-.127.613-.127.34 0 .633.102.878.3.245.201.41.491.493.872.408-.479.753-.796 1.034-.947.281-.149.571-.225.868-.225.289 0 .546.076.77.225.225.149.401.394.532.732.088.23.131.595.131 1.088v2.355c0 .342.026.577.077.705.04.085.114.161.222.223s.283.092.525.092v.215h-2.694v-.215h.112c.234 0 .416-.046.547-.138a.517.517 0 0 0 .196-.302c.016-.068.024-.261.024-.579v-2.351c0-.446-.054-.76-.161-.943-.154-.254-.401-.382-.741-.382-.21 0-.421.054-.632.159-.212.105-.468.3-.77.587l-.012.065.017.257v2.608c0 .374.021.607.061.699.042.089.12.167.234.229s.31.092.585.092v.215h-2.751v-.215c.299 0 .505-.036.617-.108a.549.549 0 0 0 .232-.32c.021-.068.03-.265.03-.591v-2.351c0-.446-.065-.766-.195-.963a.831.831 0 0 0-.729-.386c-.213 0-.424.058-.633.175-.328.177-.581.374-.758.595v2.93c0 .358.024.591.073.699a.512.512 0 0 0 .219.24c.096.054.292.08.588.08v.215h-2.695v-.215c.248 0 .423-.026.521-.08s.174-.139.226-.256c.052-.118.077-.344.077-.683v-2.093c0-.603-.018-.991-.054-1.166-.027-.133-.072-.223-.132-.273a.376.376 0 0 0-.244-.075c-.111 0-.245.03-.4.089l-.09-.215 1.653-.668h.258v1.17z"/><path fill="#B2B2B2" d="M110.151 60.875c-.521 1.454-.944 2.471-1.273 3.045-.259.425-.588.637-.986.637-1.056 0-2.717-1.621-4.984-4.865-2.061-2.971-4.267-5.517-6.62-7.639-.555 2.304-1.532 4.585-2.934 6.844-1.403 2.258-2.796 3.812-4.181 4.66-.259 0-.861-.433-1.804-1.296-.943-.863-1.415-1.447-1.415-1.75 0-.394.217-.758.648-1.091.313-.212.623-.409.935-.592 3.358-2.121 5.912-5.88 7.659-11.276.242-.728.9-3.107 1.974-7.139l-.183-.637c-.225-.243-.338-.576-.338-1 0-.636.16-1.167.48-1.591.321-.425.662-.637 1.025-.637.261 0 .615.136 1.065.409.363.212.718.425 1.064.637.38.697.57 1.244.57 1.637 0 .364-.111.637-.337.819-.173.515-.459.788-.855.818-.451.485-1.126 2.562-2.026 6.229l.416.318c.12.697.164 1.258.13 1.683 3.08 4.487 5.538 7.246 7.373 8.276.483.243 1.264.53 2.336.863 1.022.303 1.8.607 2.337.909.052.334.077.592.077.774.002.333-.05.652-.153.955zM133.707 56.51c-.536.394-.892.637-1.064.727-.313.152-.692.229-1.143.229-.416-.426-.952-.637-1.61-.637-.173 0-.347.014-.521.045-.033.031-.276.667-.726 1.91-.398 1.031-.944 1.546-1.638 1.546-.328 0-.813-.053-1.453-.159-.642-.106-1.117-.159-1.429-.159-.069 0-.32.046-.753.136-.069.577-.192 1.44-.366 2.592-.175 1.152-.678 2.167-1.513 3.046-.761.789-1.507 1.183-2.233 1.183-1.558 0-2.675-.333-3.351-1-.207-.182-.492-.773-.856-1.772.156-.637.476-1.107.961-1.41.087.03.294.046.623.046 1.074 0 1.818.09 2.233.272.728-.151 1.246-.394 1.559-.728.381-.394.649-1.091.805-2.091a35.62 35.62 0 0 0-1.351-.045c-2.77 0-4.752.485-5.946 1.454l-.416-.318-.234-2.137c.104-.121.227-.318.364-.591l.078-.137c.086-.181.181-.318.285-.408.347-.364 2.806-.834 7.376-1.411l.026-.455c-1.646 0-2.927.061-3.844.182l-2.26.545c-.814.183-1.636.364-2.467.546a6.582 6.582 0 0 0-2.39 1.183c-.069-.698-.182-1.744-.338-3.137l.494-1.274.44-.227.753.227 2.884-.545c1.367-.243 3.592-.425 6.674-.546.069-.273.113-.622.13-1.046h-.52c-.64 0-1.593.061-2.856.182-1.488.152-2.371.318-2.648.5l-.806.545-.39-.091c-.155-.242-.26-.606-.312-1.091l-.104-1.228c.242-.425.484-.667.728-.728.467-.091.727-.152.778-.182.813-.455 1.844-.743 3.091-.864l3.142-.091a42.98 42.98 0 0 0 .026-1.5c-1.696.03-2.848.076-3.453.136-1.3.152-2.442.47-3.429.955-.208-.515-.476-1.485-.805-2.91.276-.333.45-.773.52-1.318.017-.303.086-.789.207-1.456l-.052-.091a8.681 8.681 0 0 1-.364-.773v-.409c.19-.394.503-.591.936-.591.035 0 .182.061.441.182.797-.364 1.792-.606 2.986-.728l3.013-.273.026-.909c-1.438.121-2.884.228-4.337.318-1.923.242-3.299.697-4.129 1.364l-.702-.227a1.153 1.153 0 0 1-.208-.637c0-.091.009-.235.026-.432.018-.198.026-.341.026-.433 0-.182-.062-.379-.183-.591.364-.788.728-1.303 1.091-1.546.26-.182.615-.288 1.065-.318.605-.03.97-.076 1.09-.136 1.489-.395 3.445-.591 5.87-.591-.034-.243-.156-.788-.363-1.637l.39-.818.963-.364c.157-.061.442.152.861.637.365.455.616.818.755 1.091s.242.682.313 1.228c.604-.03 1.193-.045 1.766-.045 2.146 0 4.189.273 6.128.818l.546 1.091c-.347.849-.623 1.395-.831 1.637-.277.333-.676.5-1.195.5-.623 0-1.583-.159-2.882-.478-1.298-.318-2.285-.478-2.961-.478h-.57a6.13 6.13 0 0 1-.598.046l-.053.945c.139-.03.363.03.676.18.415 0 1.047.069 1.896.203.849.136 1.489.203 1.922.203.018-.03.069-.061.156-.091l.831-.364c.589.7.908 1.079.96 1.139.364.545.546 1.108.546 1.684-.156.366-.269 1.071-.338 2.118-.069 1.048-.233 1.906-.493 2.575a2.562 2.562 0 0 1-1.038.228c-.348 0-.65-.076-.91-.228l-.57.137c-1.126-.455-2.044-.684-2.753-.684-.347 0-.658.046-.936.136v1.732a75.9 75.9 0 0 0 1.48.045c-.018 0 .174-.045.571-.136l.363.182c.329-.03.806-.091 1.429-.182.26-.061.675-.151 1.246-.273.278.182.728.637 1.351 1.364l.079 1.455c-.313.364-.477.803-.494 1.319.226.182.909.303 2.052.363 1.298.061 2.242.349 2.831.864a81.727 81.727 0 0 0-.673 2.184zm-17.045-12.414c.068.364.096.789.077 1.273 1.005-.394 2.632-.652 4.883-.773l.026-1.137c-1.108.091-2.77.304-4.986.637zm10.596 12.08c-.382.03-.883-.015-1.506-.136-.313-.061-.702-.061-1.169 0-.658.09-1.057.136-1.194.136l-.053.863c.294-.06.606-.09.936-.09.623 0 1.575.198 2.856.592l.13-.318v-1.047zm.13-3.653c-.243-.121-.459-.182-.649-.182-.087 0-.221.023-.403.068a1.837 1.837 0 0 1-.428.068c-.121 0-.32-.022-.598-.068a4.264 4.264 0 0 0-.623-.068h-.805c-.139 0-.286.031-.441.091l-.026.909c.226-.091.45-.136.675-.136.554 0 1.68.091 3.376.273l-.078-.955zm-2.182-8.669c-.121 0-.684.015-1.688.045a3.857 3.857 0 0 0-.027.455v.318c1.092-.03 2.72.091 4.884.364.069-.273.095-.561.077-.864-.295-.213-1.377-.318-3.246-.318zM136.752 58.89c-.069.394-.199.97-.39 1.727-.139.456-.493 1.107-1.064 1.956-.641.971-1.091 1.411-1.351 1.319-.329-.091-.632-.621-.909-1.591l.182-.955c.468-.607.943-1.212 1.429-1.818.571-.788.884-1.607.935-2.456-.155-.303-.242-.697-.259-1.183.034-.211.276-.575.727-1.09.502.243.788.394.857.454.276.213.484.577.623 1.092-.417 1.09-.677 1.938-.78 2.545zm4.068-5.533c-.017.031-.19.212-.52.546-.225.212-.319.409-.285.59l.13.955c-.19.213-.285.547-.285 1 0 .394.008.788.025 1.183-.052 3.123-.078 4.744-.078 4.865-.157 2.274-.549 3.607-1.175 4.002-.138-.364-.266-.879-.379-1.547-.112-.667-.151-1.182-.117-1.546.139-1.97.199-3.289.183-3.955a69.733 69.733 0 0 1-.053-1.637c0-1.577-.095-2.576-.285-3.002a3.684 3.684 0 0 0-.52-.818c-1.074-1.243-1.705-1.864-1.896-1.864-.053 0-.242.091-.571.273l-.208-.091c-.19-.487-.286-1.338-.286-2.556 0-.455.121-.881.364-1.277.241-.395.493-.593.753-.593.034 0 .146.046.338.137.276-.212.605-.622.987-1.228.432-.758.744-1.228.934-1.41-.38-.91-.995-1.333-1.844-1.273-.121 0-.272-.114-.454-.341-.182-.227-.342-.295-.48-.205l-.571-2.319c.121-.758.347-1.197.676-1.319l.908-.409c.208-.212.434-.591.675-1.137.26-.667.451-1.091.572-1.273.311-.485.727-1.258 1.248-2.319v-.5l.522-.728c.262.243.53.478.807.705.279.227.556.341.833.341l.26 1.091c.9.819 1.489 1.44 1.766 1.865.521.818.831 1.879.936 3.183-1.385 1.395-2.312 2.698-2.778 3.911.121.152.285.379.493.682.657 1.303 1.125 1.895 1.402 1.773.034.03.061.076.077.136a4.07 4.07 0 0 1-.39-1.046c.537-.515 1.325-1.288 2.363-2.319 1.126-1.152 2.199-2.729 3.221-4.729.313-.636.493-1.41.546-2.319.329-.728.658-1.092.987-1.092.362.455.883.819 1.558 1.092l.208 1.41-.026.682c1.454 1.728 2.952 3.017 4.493 3.866l1.662.727c.762.364 1.264.712 1.506 1.046l-.26 1.773c-.675 1.548-1.298 2.291-1.87 2.229a95.514 95.514 0 0 1-2.597-2.366c-.434-.333-1.064-.864-1.896-1.592a84.002 84.002 0 0 0-1.455-1.682c-.588-.697-1.107-1.183-1.558-1.456-1.888 3.274-3.35 5.168-4.39 5.684-.086.061-.319.243-.7.546-.208.151-.521.228-.936.228a5.09 5.09 0 0 1-.312-.41c.26.457.528 1.169.805 2.143-1.279 1.127-2.301 2.358-3.063 3.694zm-1.289-5.881c-.537.121-1.169.894-1.896 2.319.276.485.675 1.198 1.193 2.137a10.1 10.1 0 0 0 1.767-3.092c-.415-.636-.77-1.091-1.064-1.364zm.26-9.867c-.19.151-.382.409-.572.773-.241.455-.415.742-.519.864-.19.212-.386.439-.585.682s-.342.53-.428.864c.12.333.363.818.727 1.455.45.758.753 1.152.909 1.183.242-.576.571-1.213.986-1.91l.832-1.729-1.35-2.182zm2.414 22.144c-.139 1.486-.484 2.274-1.038 2.365a5.213 5.213 0 0 1-.233-1.502c0-.272.009-.667.025-1.182.018-.516.025-.895.025-1.136 0-1.122-.189-1.91-.57-2.365l.077-.5c.087-.121.295-.243.624-.364l1.377.455.155 1.409c-.155.274-.302 1.214-.442 2.82zm13.661-2.871a2.113 2.113 0 0 0-.364 1.187c0 .335.019.86.053 1.575.035.714.052 1.237.052 1.571l-.026 1.369c-.139 0-.338.29-.597.866-.104.215-.406.471-.909.776l-2.831-.318a3.452 3.452 0 0 0-.805 0c-.45.03-.736.045-.856.045-2.407 0-4.198.651-5.377 1.955-.242-.575-.467-1.562-.675-2.957l.13-1.277c.346-.548.545-1.613.598-3.193.017-.151.042-.396.077-.729.035-.335.053-.578.053-.729 0-.153-.139-.639-.416-1.461a2.875 2.875 0 0 1-.182-.682c.225-.517.554-.853.987-1.004l.908.775c1.489-.973 3.178-1.459 5.064-1.459.398 0 .9.106 1.506.32l1.507.546.701-.866c.848.457 1.42 1.52 1.714 3.193a7.706 7.706 0 0 1-.312.497zm-2.26-5.632c-.155 0-.38-.03-.675-.091a3.603 3.603 0 0 0-.676-.091c.019 0-.943.076-2.882.227a.357.357 0 0 1-.144-.045.404.404 0 0 0-.116-.046c-1.091 0-2.233.455-3.429 1.364l-.39-.318c-.052-1-.216-1.971-.493-2.91.243-.637.537-.955.883-.955.087 0 .183.015.286.045.207.273.329.41.364.41a.288.288 0 0 0 .103-.045l.987-.409c1.351-.606 2.727-.91 4.13-.91 1.73 0 3.082.439 4.051 1.319l.285 1.682c-.777.516-1.539.773-2.284.773zm0 6.775c-.277-.363-.614-.599-1.013-.705a45.496 45.496 0 0 0-1.169-.294c-.362.121-.856.166-1.479.135-.78 0-1.273.016-1.48.045-.952.092-1.853.273-2.701.546-.086.212-.13.394-.13.546 0 .122.044.408.13.864l-.155 1.273.103.091c1.23-.485 3.118-.728 5.662-.728.676 0 .971-.016.883-.045l1.61.41.025-.183-.286-1.955zM181.845 56.268c-.623.818-1.489 1.561-2.597 2.229-.415-.213-.935-.577-1.558-1.092-.78-.667-1.281-1.076-1.508-1.228-.346-.243-.952-.47-1.816-.683-.19 3.669-1.031 6.307-2.52 7.912-.849.94-2.513 1.895-4.991 2.865-.504-.364-1.361-.545-2.575-.545l-1.324-1.273c.018-1.03.312-1.834.883-2.41.71-.758 1.454-1.167 2.236-1.228 1.545-.152 2.621-.379 3.227-.682 1.194-.516 2.06-1.531 2.597-3.047a7.28 7.28 0 0 0 .441-2.363 18.163 18.163 0 0 0-1.299-.046c-2.754 0-5.536.788-8.345 2.363-.952.728-2.44 1.744-4.467 3.048-.173-.426-.26-1.017-.26-1.774v-1.818c.121-.455.338-1.091.648-1.91l.598.41c.484-.394 1.108-.743 1.87-1.046.642-.243 1.281-.47 1.922-.682 3.157-1.364 6.345-2.062 9.565-2.092-.017-1.394-.164-2.258-.44-2.592-.088-.122-.494-.182-1.222-.182-.692 0-1.151.046-1.376.137l-1.976.637c-.973.364-1.571.712-1.797 1.045-.296-.212-.53-.606-.703-1.182a5.686 5.686 0 0 1-.26-1.635c0-1.062.104-2.603.313-4.632.207-2.029.311-3.572.311-4.633 0-.999-.216-1.574-.648-1.726 0-1.304.513-1.955 1.533-1.955.21 0 .384.03.522.091a.16.16 0 0 1 .106-.045c.276 0 .502.394.677 1.182a8.75 8.75 0 0 1 .233 2c1.455-.333 2.589-.5 3.402-.5.277 0 .641.015 1.091.045.555.091.926.136 1.116.136.78.061 1.334.151 1.663.273.64.303 1.091.849 1.351 1.637v.273c.017.333-.065.773-.247 1.319-.183.545-.386.788-.61.728a19.9 19.9 0 0 0-3.479-.318c-.589 0-1.369.091-2.338.271-1.247.212-2.034.333-2.365.364-.294 1.266-.433 2.474-.416 3.625l.131.228c1.283-.789 3.058-1.183 5.326-1.183.588 0 .96.076 1.116.228l.649 1.136c.19.273.476.849.856 1.728-.104.364-.328.879-.676 1.546v2.364c.313.03 1.524.379 3.636 1.046.174.03 1.603.258 4.286.682.017.606-.01 1.092-.078 1.455-.016.088-.155.589-.414 1.499z"/><path d="M109.14 59.856c-.52 1.455-.943 2.471-1.272 3.046-.26.425-.589.637-.987.637-1.056 0-2.718-1.622-4.985-4.865-2.062-2.971-4.269-5.517-6.623-7.639-.555 2.304-1.532 4.585-2.935 6.844-1.403 2.258-2.796 3.812-4.182 4.66-.26 0-.861-.433-1.805-1.296s-1.416-1.447-1.416-1.75c0-.394.218-.758.649-1.091.313-.212.623-.409.936-.592 3.359-2.121 5.913-5.88 7.661-11.276.242-.728.9-3.107 1.975-7.139l-.183-.636c-.225-.243-.338-.576-.338-1 0-.637.16-1.167.48-1.591.32-.425.662-.637 1.025-.637.261 0 .615.136 1.065.409.363.212.719.425 1.065.637.38.697.57 1.244.57 1.637 0 .364-.111.637-.338.819-.172.515-.459.788-.855.818-.451.485-1.126 2.562-2.026 6.229l.416.318c.12.697.164 1.258.13 1.683 3.081 4.487 5.54 7.246 7.375 8.276.484.243 1.263.53 2.337.863 1.022.303 1.801.607 2.338.909.052.334.077.592.077.774.001.332-.051.65-.154.953zM132.692 55.492c-.536.394-.892.637-1.064.726-.313.152-.692.229-1.143.229-.416-.426-.952-.637-1.61-.637-.173 0-.347.014-.521.045-.033.031-.276.667-.726 1.91-.398 1.031-.944 1.546-1.638 1.546-.328 0-.813-.053-1.453-.159-.642-.106-1.117-.159-1.429-.159-.069 0-.32.046-.753.136-.069.577-.192 1.44-.366 2.592-.175 1.152-.678 2.167-1.513 3.046-.762.789-1.507 1.183-2.233 1.183-1.558 0-2.675-.333-3.351-1-.207-.183-.492-.774-.856-1.773.156-.637.476-1.107.961-1.41.087.03.294.046.623.046 1.074 0 1.818.09 2.233.272.728-.151 1.246-.394 1.559-.728.381-.394.649-1.091.805-2.091a35.62 35.62 0 0 0-1.351-.045c-2.77 0-4.752.485-5.946 1.454l-.416-.318-.234-2.137c.104-.121.227-.318.364-.591l.078-.137c.086-.181.181-.318.285-.408.347-.364 2.806-.834 7.376-1.411l.026-.455c-1.646 0-2.927.061-3.844.182l-2.26.545c-.814.183-1.636.364-2.467.546a6.567 6.567 0 0 0-2.39 1.183c-.069-.698-.182-1.744-.338-3.137l.494-1.274.44-.228.753.228 2.884-.545c1.367-.243 3.592-.425 6.674-.546.069-.273.112-.622.13-1.046h-.52c-.64 0-1.593.061-2.856.182-1.488.152-2.371.318-2.648.5l-.806.545-.39-.091c-.155-.243-.26-.606-.312-1.091l-.104-1.228c.242-.425.484-.667.727-.728.468-.091.728-.152.779-.182.813-.455 1.844-.743 3.091-.864l3.142-.091a42.98 42.98 0 0 0 .026-1.5c-1.696.03-2.849.076-3.453.136-1.3.152-2.442.47-3.429.955-.208-.515-.476-1.485-.805-2.91.276-.333.449-.773.52-1.318.017-.304.086-.789.207-1.456l-.052-.091a8.681 8.681 0 0 1-.364-.773v-.409c.19-.394.503-.591.936-.591.035 0 .182.061.441.181.797-.363 1.792-.606 2.986-.727l3.013-.273.026-.909c-1.438.121-2.884.228-4.337.318-1.923.242-3.299.697-4.129 1.364l-.702-.227a1.153 1.153 0 0 1-.208-.637c0-.091.009-.235.026-.432.018-.198.026-.341.026-.433 0-.182-.062-.379-.183-.591.364-.788.728-1.303 1.091-1.546.26-.182.615-.288 1.065-.318.605-.03.97-.076 1.09-.137 1.489-.394 3.445-.591 5.87-.591-.034-.242-.156-.788-.363-1.637l.39-.818.963-.364c.157-.061.443.152.861.637.365.455.616.818.755 1.091s.242.682.312 1.227c.605-.03 1.194-.045 1.767-.045 2.146 0 4.189.273 6.128.818l.546 1.091c-.347.849-.623 1.395-.831 1.637-.277.334-.676.5-1.195.5-.623 0-1.583-.159-2.882-.478-1.298-.318-2.285-.478-2.961-.478h-.571a6.094 6.094 0 0 1-.597.046l-.053.945c.139-.03.363.031.676.18.415 0 1.047.069 1.896.203.848.136 1.489.203 1.922.203.018-.03.069-.061.156-.091l.831-.364c.589.7.908 1.079.96 1.139.364.545.546 1.108.546 1.684-.156.366-.269 1.071-.338 2.118-.069 1.048-.233 1.906-.493 2.575a2.562 2.562 0 0 1-1.038.228c-.348 0-.65-.076-.91-.228l-.57.137c-1.126-.455-2.044-.684-2.753-.684-.347 0-.658.046-.936.136v1.732a75.9 75.9 0 0 0 1.48.045c-.018 0 .174-.045.571-.136l.363.182c.329-.03.806-.091 1.429-.182.26-.061.675-.151 1.246-.273.278.182.728.637 1.351 1.364l.079 1.455c-.313.364-.477.803-.494 1.319.226.182.909.303 2.052.363 1.298.061 2.242.349 2.831.864-.187.58-.414 1.308-.673 2.188zm-17.045-12.415c.068.364.096.789.077 1.273 1.005-.394 2.632-.652 4.883-.773l.026-1.137c-1.108.092-2.77.304-4.986.637zm10.596 12.081c-.382.03-.883-.015-1.506-.136-.313-.061-.702-.061-1.17 0-.657.09-1.056.136-1.193.136l-.053.863c.294-.06.606-.09.936-.09.623 0 1.575.198 2.856.592l.13-.318v-1.047zm.13-3.653c-.243-.121-.459-.182-.649-.182-.087 0-.221.023-.403.068a1.837 1.837 0 0 1-.428.068c-.121 0-.32-.022-.598-.068a4.264 4.264 0 0 0-.623-.068h-.805c-.139 0-.286.031-.441.091l-.026.909c.226-.091.45-.136.675-.136.554 0 1.68.091 3.376.273a435.94 435.94 0 0 0-.078-.955zm-2.182-8.67c-.121 0-.684.015-1.688.045a3.643 3.643 0 0 0-.027.455v.318c1.091-.03 2.72.091 4.884.364.069-.273.095-.561.077-.864-.294-.212-1.376-.318-3.246-.318z"/><path fill="#522F60" d="M135.737 57.871c-.069.394-.199.97-.39 1.727-.139.456-.493 1.107-1.064 1.956-.641.971-1.091 1.411-1.351 1.319-.329-.091-.632-.621-.909-1.591l.182-.955c.468-.607.943-1.212 1.429-1.818.571-.788.884-1.607.935-2.456-.155-.303-.242-.697-.259-1.183.034-.211.276-.576.727-1.091.502.243.788.394.857.455.276.212.484.577.623 1.092-.416 1.09-.676 1.939-.78 2.545zm4.069-5.533c-.017.031-.19.212-.52.546-.225.212-.32.409-.285.591l.13.955c-.19.212-.285.547-.285 1 0 .394.008.788.025 1.183-.052 3.123-.078 4.744-.078 4.865-.157 2.274-.549 3.607-1.175 4.002-.139-.364-.266-.879-.379-1.547-.112-.667-.151-1.182-.117-1.546.139-1.97.199-3.289.183-3.955a69.733 69.733 0 0 1-.053-1.637c0-1.577-.095-2.577-.285-3.001a3.661 3.661 0 0 0-.52-.818c-1.074-1.243-1.705-1.864-1.896-1.864-.053 0-.242.091-.571.273l-.208-.091c-.19-.487-.286-1.338-.286-2.556 0-.455.121-.881.364-1.277.241-.395.493-.593.753-.593.034 0 .146.046.338.137.276-.212.605-.622.987-1.228.432-.758.744-1.228.934-1.41-.38-.91-.995-1.334-1.844-1.273-.121 0-.272-.114-.454-.341s-.342-.295-.48-.205l-.571-2.319c.121-.758.347-1.197.676-1.319l.908-.409c.208-.212.434-.591.675-1.137.26-.667.451-1.091.572-1.273.311-.485.727-1.258 1.248-2.319v-.5l.522-.728c.262.243.53.478.807.705.279.227.556.341.833.341l.26 1.091c.9.819 1.489 1.44 1.766 1.865.521.818.831 1.879.936 3.183-1.386 1.395-2.312 2.698-2.778 3.911.121.152.285.379.493.682.657 1.303 1.125 1.895 1.402 1.773.034.03.061.076.077.136a4.084 4.084 0 0 1-.39-1.046c.537-.515 1.325-1.288 2.363-2.319 1.126-1.152 2.199-2.729 3.221-4.729.313-.636.493-1.409.546-2.318.329-.728.658-1.092.987-1.092.362.455.883.819 1.558 1.092l.208 1.41-.026.682c1.454 1.728 2.952 3.017 4.493 3.865l1.662.728c.762.364 1.264.712 1.506 1.046l-.26 1.773c-.675 1.548-1.298 2.291-1.87 2.229a95.514 95.514 0 0 1-2.597-2.366c-.434-.333-1.064-.864-1.896-1.592a84.002 84.002 0 0 0-1.455-1.682c-.588-.697-1.107-1.183-1.558-1.456-1.888 3.274-3.35 5.168-4.39 5.684-.086.061-.32.243-.7.546-.208.151-.521.228-.936.228a5.09 5.09 0 0 1-.312-.41c.26.457.528 1.169.805 2.143-1.28 1.124-2.302 2.355-3.063 3.691zm-1.289-5.88c-.537.121-1.17.894-1.896 2.319.276.485.675 1.198 1.193 2.137a10.1 10.1 0 0 0 1.767-3.092c-.416-.637-.77-1.092-1.064-1.364zm.259-9.868c-.19.151-.382.409-.572.773-.241.455-.415.742-.519.864-.19.212-.386.439-.585.682-.199.242-.342.53-.428.864.12.333.363.818.727 1.455.45.758.753 1.152.909 1.183.242-.576.571-1.213.986-1.91l.832-1.729-1.35-2.182zm2.414 22.145c-.139 1.486-.484 2.273-1.038 2.365a5.213 5.213 0 0 1-.233-1.502c0-.272.009-.667.025-1.182.018-.516.025-.895.025-1.136 0-1.122-.189-1.91-.57-2.365l.077-.5c.087-.122.295-.243.624-.365l1.377.455.155 1.41c-.154.273-.303 1.213-.442 2.82zm13.662-2.871a2.113 2.113 0 0 0-.364 1.187c0 .335.019.86.053 1.574.035.714.052 1.238.052 1.572l-.026 1.369c-.139 0-.338.29-.597.866-.104.215-.406.471-.909.776l-2.831-.318a3.452 3.452 0 0 0-.805 0c-.45.03-.736.044-.856.044-2.407 0-4.199.652-5.377 1.955-.242-.575-.467-1.562-.675-2.957l.13-1.277c.346-.548.545-1.613.598-3.193.017-.151.042-.396.077-.729.034-.335.053-.578.053-.729 0-.153-.139-.638-.416-1.461a2.875 2.875 0 0 1-.182-.682c.225-.517.554-.853.987-1.004l.908.775c1.489-.973 3.178-1.459 5.064-1.459.398 0 .9.106 1.506.32l1.507.546.701-.866c.848.457 1.42 1.52 1.714 3.193a8.207 8.207 0 0 1-.312.498zm-2.26-5.632c-.155 0-.38-.03-.675-.091a3.603 3.603 0 0 0-.676-.091c.018 0-.943.076-2.882.227a.357.357 0 0 1-.144-.045.404.404 0 0 0-.116-.046c-1.091 0-2.233.455-3.429 1.364l-.39-.318c-.052-1-.216-1.971-.493-2.91.242-.637.537-.955.883-.955.087 0 .183.015.286.045.207.273.329.41.364.41a.288.288 0 0 0 .103-.045l.987-.409c1.351-.606 2.727-.91 4.13-.91 1.731 0 3.081.439 4.051 1.319l.285 1.682c-.777.515-1.54.773-2.284.773zm0 6.775c-.277-.363-.614-.599-1.013-.705a45.496 45.496 0 0 0-1.169-.294c-.362.121-.856.166-1.479.135-.78 0-1.273.016-1.48.045-.952.092-1.853.272-2.701.546-.086.212-.13.394-.13.546 0 .122.044.408.13.863l-.155 1.273.103.091c1.23-.485 3.117-.728 5.662-.728.676 0 .971-.016.883-.045l1.61.41.025-.183-.286-1.954z"/><path d="M180.83 55.249c-.623.818-1.489 1.561-2.597 2.228-.415-.212-.935-.577-1.558-1.092-.78-.667-1.281-1.077-1.507-1.228-.347-.243-.953-.47-1.817-.683-.19 3.668-1.031 6.307-2.52 7.912-.849.94-2.513 1.895-4.991 2.865-.504-.364-1.361-.545-2.575-.545l-1.324-1.273c.018-1.03.312-1.834.883-2.41.71-.758 1.454-1.167 2.236-1.228 1.545-.152 2.621-.379 3.227-.682 1.194-.516 2.06-1.531 2.597-3.047a7.28 7.28 0 0 0 .441-2.364c-.433-.03-.865-.045-1.299-.045-2.754 0-5.536.788-8.345 2.364-.952.728-2.44 1.744-4.467 3.048-.173-.426-.26-1.017-.26-1.774v-1.818c.121-.455.338-1.091.648-1.91l.598.41c.484-.394 1.108-.743 1.87-1.046a50.732 50.732 0 0 1 1.922-.682c3.157-1.364 6.345-2.062 9.565-2.092-.017-1.394-.164-2.258-.44-2.592-.088-.122-.494-.182-1.222-.182-.692 0-1.151.046-1.376.137l-1.976.637c-.973.364-1.571.712-1.797 1.045-.296-.212-.53-.606-.703-1.182a5.686 5.686 0 0 1-.26-1.635c0-1.062.104-2.603.313-4.632.207-2.029.311-3.572.311-4.633 0-.999-.216-1.574-.648-1.726 0-1.304.513-1.955 1.533-1.955.21 0 .384.03.522.091a.16.16 0 0 1 .106-.045c.276 0 .502.394.677 1.183a8.75 8.75 0 0 1 .233 2c1.455-.333 2.589-.5 3.402-.5.277 0 .641.015 1.091.045.555.091.926.136 1.116.136.78.061 1.334.151 1.663.273.64.303 1.091.849 1.351 1.637v.273c.017.333-.065.773-.247 1.319-.183.545-.386.788-.61.728a19.9 19.9 0 0 0-3.479-.318c-.589 0-1.369.091-2.338.271-1.247.212-2.034.333-2.365.364-.294 1.266-.434 2.474-.416 3.625l.131.227c1.283-.788 3.058-1.182 5.326-1.182.588 0 .96.076 1.116.228l.649 1.136c.189.273.476.849.856 1.728-.104.364-.329.879-.676 1.546v2.364c.313.03 1.524.379 3.636 1.046.174.03 1.603.258 4.286.682.017.606-.009 1.091-.079 1.455-.014.088-.153.589-.413 1.498z"/><linearGradient id="b" gradientUnits="userSpaceOnUse" x1="106.04" y1="78.867" x2="161.292" y2="134.12"><stop offset="0" stop-color="#ead18f"/><stop offset=".076" stop-color="#e1c477"/><stop offset=".221" stop-color="#d1af4e"/><stop offset=".335" stop-color="#c8a235"/><stop offset=".405" stop-color="#c49d2c"/><stop offset=".559" stop-color="#d4b35c"/><stop offset=".766" stop-color="#e7cd97"/><stop offset=".919" stop-color="#f3debb"/><stop offset="1" stop-color="#f8e4c9"/></linearGradient><linearGradient id="c" gradientUnits="userSpaceOnUse" x1="106.495" y1="58.738" x2="162.039" y2="114.282"><stop offset="0" stop-color="#ead18f"/><stop offset=".076" stop-color="#e1c477"/><stop offset=".221" stop-color="#d1af4e"/><stop offset=".335" stop-color="#c8a235"/><stop offset=".405" stop-color="#c49d2c"/><stop offset=".559" stop-color="#d4b35c"/><stop offset=".766" stop-color="#e7cd97"/><stop offset=".919" stop-color="#f3debb"/><stop offset="1" stop-color="#f8e4c9"/></linearGradient><linearGradient id="d" gradientUnits="userSpaceOnUse" x1="147.192" y1="62.841" x2="202.498" y2="118.146"><stop offset="0" stop-color="#ead18f"/><stop offset=".076" stop-color="#e1c477"/><stop offset=".221" stop-color="#d1af4e"/><stop offset=".335" stop-color="#c8a235"/><stop offset=".405" stop-color="#c49d2c"/><stop offset=".559" stop-color="#d4b35c"/><stop offset=".766" stop-color="#e7cd97"/><stop offset=".919" stop-color="#f3debb"/><stop offset="1" stop-color="#f8e4c9"/></linearGradient><linearGradient id="e" gradientUnits="userSpaceOnUse" x1="136.472" y1="75.883" x2="191.777" y2="131.188"><stop offset="0" stop-color="#ead18f"/><stop offset=".076" stop-color="#e1c477"/><stop offset=".221" stop-color="#d1af4e"/><stop offset=".335" stop-color="#c8a235"/><stop offset=".405" stop-color="#c49d2c"/><stop offset=".559" stop-color="#d4b35c"/><stop offset=".766" stop-color="#e7cd97"/><stop offset=".919" stop-color="#f3debb"/><stop offset="1" stop-color="#f8e4c9"/></linearGradient><linearGradient id="f" gradientUnits="userSpaceOnUse" x1="150.471" y1="56.216" x2="205.776" y2="111.522"><stop offset="0" stop-color="#ead18f"/><stop offset=".076" stop-color="#e1c477"/><stop offset=".221" stop-color="#d1af4e"/><stop offset=".335" stop-color="#c8a235"/><stop offset=".405" stop-color="#c49d2c"/><stop offset=".559" stop-color="#d4b35c"/><stop offset=".766" stop-color="#e7cd97"/><stop offset=".919" stop-color="#f3debb"/><stop offset="1" stop-color="#f8e4c9"/></linearGradient><linearGradient id="g" gradientUnits="userSpaceOnUse" x1="84.542" y1="57.968" x2="139.849" y2="113.275"><stop offset="0" stop-color="#ead18f"/><stop offset=".076" stop-color="#e1c477"/><stop offset=".221" stop-color="#d1af4e"/><stop offset=".335" stop-color="#c8a235"/><stop offset=".405" stop-color="#c49d2c"/><stop offset=".559" stop-color="#d4b35c"/><stop offset=".766" stop-color="#e7cd97"/><stop offset=".919" stop-color="#f3debb"/><stop offset="1" stop-color="#f8e4c9"/></linearGradient><linearGradient id="h" gradientUnits="userSpaceOnUse" x1="154.761" y1="46.063" x2="209.866" y2="101.168"><stop offset="0" stop-color="#ead18f"/><stop offset=".076" stop-color="#e1c477"/><stop offset=".221" stop-color="#d1af4e"/><stop offset=".335" stop-color="#c8a235"/><stop offset=".405" stop-color="#c49d2c"/><stop offset=".559" stop-color="#d4b35c"/><stop offset=".766" stop-color="#e7cd97"/><stop offset=".919" stop-color="#f3debb"/><stop offset="1" stop-color="#f8e4c9"/></linearGradient><linearGradient id="i" gradientUnits="userSpaceOnUse" x1="130.049" y1="54.223" x2="185.356" y2="109.53"><stop offset="0" stop-color="#ead18f"/><stop offset=".076" stop-color="#e1c477"/><stop offset=".221" stop-color="#d1af4e"/><stop offset=".335" stop-color="#c8a235"/><stop offset=".405" stop-color="#c49d2c"/><stop offset=".559" stop-color="#d4b35c"/><stop offset=".766" stop-color="#e7cd97"/><stop offset=".919" stop-color="#f3debb"/><stop offset="1" stop-color="#f8e4c9"/></linearGradient><linearGradient id="j" gradientUnits="userSpaceOnUse" x1="138.948" y1="15.019" x2="194.255" y2="70.325"><stop offset="0" stop-color="#ead18f"/><stop offset=".076" stop-color="#e1c477"/><stop offset=".221" stop-color="#d1af4e"/><stop offset=".335" stop-color="#c8a235"/><stop offset=".405" stop-color="#c49d2c"/><stop offset=".559" stop-color="#d4b35c"/><stop offset=".766" stop-color="#e7cd97"/><stop offset=".919" stop-color="#f3debb"/><stop offset="1" stop-color="#f8e4c9"/></linearGradient><linearGradient id="k" gradientUnits="userSpaceOnUse" x1="158.286" y1="28.237" x2="213.592" y2="83.543"><stop offset="0" stop-color="#ead18f"/><stop offset=".076" stop-color="#e1c477"/><stop offset=".221" stop-color="#d1af4e"/><stop offset=".335" stop-color="#c8a235"/><stop offset=".405" stop-color="#c49d2c"/><stop offset=".559" stop-color="#d4b35c"/><stop offset=".766" stop-color="#e7cd97"/><stop offset=".919" stop-color="#f3debb"/><stop offset="1" stop-color="#f8e4c9"/></linearGradient><linearGradient id="l" gradientUnits="userSpaceOnUse" x1="25.023" y1="26.039" x2="80.202" y2="81.219"><stop offset="0" stop-color="#ead18f"/><stop offset=".076" stop-color="#e1c477"/><stop offset=".221" stop-color="#d1af4e"/><stop offset=".335" stop-color="#c8a235"/><stop offset=".405" stop-color="#c49d2c"/><stop offset=".559" stop-color="#d4b35c"/><stop offset=".766" stop-color="#e7cd97"/><stop offset=".919" stop-color="#f3debb"/><stop offset="1" stop-color="#f8e4c9"/></linearGradient><linearGradient id="m" gradientUnits="userSpaceOnUse" x1="21.153" y1="21.329" x2="76.46" y2="76.635"><stop offset="0" stop-color="#ead18f"/><stop offset=".076" stop-color="#e1c477"/><stop offset=".221" stop-color="#d1af4e"/><stop offset=".335" stop-color="#c8a235"/><stop offset=".405" stop-color="#c49d2c"/><stop offset=".559" stop-color="#d4b35c"/><stop offset=".766" stop-color="#e7cd97"/><stop offset=".919" stop-color="#f3debb"/><stop offset="1" stop-color="#f8e4c9"/></linearGradient><linearGradient id="n" gradientUnits="userSpaceOnUse" x1="26.703" y1="67.41" x2="81.764" y2="122.471"><stop offset="0" stop-color="#ead18f"/><stop offset=".076" stop-color="#e1c477"/><stop offset=".221" stop-color="#d1af4e"/><stop offset=".335" stop-color="#c8a235"/><stop offset=".405" stop-color="#c49d2c"/><stop offset=".559" stop-color="#d4b35c"/><stop offset=".766" stop-color="#e7cd97"/><stop offset=".919" stop-color="#f3debb"/><stop offset="1" stop-color="#f8e4c9"/></linearGradient></svg>