<?xml version="1.0" encoding="utf-8"?><svg xmlns="http://www.w3.org/2000/svg" width="99" height="81" viewBox="61.345 25.166 99 81"><linearGradient id="a" gradientUnits="userSpaceOnUse" x1="42.902" y1="24.064" x2="98.412" y2="79.573"><stop offset="0" stop-color="#ead18f"/><stop offset=".076" stop-color="#e1c477"/><stop offset=".221" stop-color="#d1af4e"/><stop offset=".335" stop-color="#c8a235"/><stop offset=".405" stop-color="#c49d2c"/><stop offset=".559" stop-color="#d4b35c"/><stop offset=".766" stop-color="#e7cd97"/><stop offset=".919" stop-color="#f3debb"/><stop offset="1" stop-color="#f8e4c9"/></linearGradient><linearGradient id="b" gradientUnits="userSpaceOnUse" x1="42.651" y1="56.312" x2="97.904" y2="111.564"><stop offset="0" stop-color="#ead18f"/><stop offset=".076" stop-color="#e1c477"/><stop offset=".221" stop-color="#d1af4e"/><stop offset=".335" stop-color="#c8a235"/><stop offset=".405" stop-color="#c49d2c"/><stop offset=".559" stop-color="#d4b35c"/><stop offset=".766" stop-color="#e7cd97"/><stop offset=".919" stop-color="#f3debb"/><stop offset="1" stop-color="#f8e4c9"/></linearGradient><linearGradient id="c" gradientUnits="userSpaceOnUse" x1="43.106" y1="36.183" x2="98.65" y2="91.726"><stop offset="0" stop-color="#ead18f"/><stop offset=".076" stop-color="#e1c477"/><stop offset=".221" stop-color="#d1af4e"/><stop offset=".335" stop-color="#c8a235"/><stop offset=".405" stop-color="#c49d2c"/><stop offset=".559" stop-color="#d4b35c"/><stop offset=".766" stop-color="#e7cd97"/><stop offset=".919" stop-color="#f3debb"/><stop offset="1" stop-color="#f8e4c9"/></linearGradient><path fill="#B2B2B2" d="M75.682 26.969c.103.029.385.264.846.703.153.088.385.264.691.527.154.205.265.585.333 1.142.102.703.179 1.128.23 1.274.341.117.82.161 1.435.132.7 0 1.178.015 1.435.044.769.146 2.279.557 4.534 1.23l.256.879c-.495.527-1.229 1.362-2.203 2.505-.904-.322-2.279-.688-4.124-1.099-.273.176-.605.264-.999.264-.136 0-.342-.022-.615-.066a4.182 4.182 0 0 0-.588-.065c-.548 0-1.043.249-1.486.747-.495.527-.956 1.362-1.384 2.505a194.6 194.6 0 0 0-1.101 2.899c-.035.088-.496.923-1.384 2.505a10.775 10.775 0 0 0-1.051 2.988c-.222 1.201-.332 2.563-.332 4.087v1.185c0 2.285-.398 4.395-1.189 6.328h-.44c-.274-.469-.386-1.333-.335-2.593l.103-2.505c0-.088-.044-.308-.137-.659-.092-.352-.136-.571-.136-.659 0-.059.017-.146.05-.264.12-.352.241-1.127.361-2.328-.275.264-.677.674-1.206 1.23a14.85 14.85 0 0 1-.615.834c-.188.176-.393.264-.614.264-.513 0-1.051-.271-1.614-.813a3.997 3.997 0 0 1-1.127-1.911c0-1.113.171-1.67.513-1.67.085.234.315.352.691.352.256 0 .47.088.641.264.734-.557 1.469-1.099 2.203-1.626.992-.85 1.488-1.758 1.488-2.725 0-.205-.009-.41-.026-.615l-.821-1.099.025-.396-.129-1.143c.257-1.024.712-1.566 1.362-1.625.14.322.459.651.964.988s.834.651.988.944c.393-.731 1.135-2.299 2.229-4.701l-.257-.22c-1.878.205-2.886.322-3.022.352-1.148.205-2.144.542-2.98 1.011a1.468 1.468 0 0 1-.192-.527 2.632 2.632 0 0 0-.114-.483l.179-2.065c.171-.381.444-.645.82-.791.324-.059.821-.161 1.489-.308 1.231-.176 3.087-.483 5.563-.923.102-.469.153-.806.153-1.011-.102-.293-.171-.674-.205-1.143-.051-.731-.085-1.127-.103-1.186l.947-.964zm2.979 9.008c.137.264.487.703 1.051 1.318a3.41 3.41 0 0 1 .871 1.67c-.137.264-.315.673-.537 1.229v.571c.187 0 .461.059.818.176 1.503-.117 2.28-.176 2.332-.176.769 0 1.357.498 1.768 1.494-.137.996-.521 1.494-1.153 1.494a.789.789 0 0 1-.295-.088.78.78 0 0 0-.294-.088c-.205 0-.752.029-1.64.088-.666.059-1.229.059-1.69 0-.24.527-.358 1.553-.358 3.076v2.109c1.417.088 2.535.234 3.355.439.956.234 1.563.352 1.819.352 1.86 0 3.082.146 3.663.439l.051.79-.051 1.318-.513.659-.104.659c-.374.469-.563.908-.563 1.318l-.59.176c-.272-.117-1.255-.645-2.945-1.582-.239-.117-.99-.381-2.255-.791-.427-.117-.684-.176-.769-.176-.051 0-.136.022-.256.066s-.205.065-.256.065l-.538-.132c-.495-.117-1.409 0-2.741.352-1.4.352-2.305.732-2.716 1.143-.324.469-.819 1.113-1.485 1.934-.103 0-.265-.059-.487-.176l-.076-.132v-.747l-.589-2.769.103-1.011c.068-.176.205-.278.409-.308.153-.029.316-.059.487-.088 1.435-.644 2.527-.966 3.279-.966.119 0 .312-.015.575-.044.266-.029.479-.052.642-.066.162-.015.431-.183.807-.505v-1.274c0-1.523-.034-2.813-.103-3.867-.614.029-1.229.073-1.845.132-.768.088-1.298.483-1.588 1.187l-.409-.483-.282-2.021c-.018.176-.026-.029-.026-.615l.026-.132a.333.333 0 0 1 .128-.132l.385.088c.442-.234 1.075-.425 1.895-.571.94-.146 1.589-.293 1.947-.439a9.49 9.49 0 0 0 .179-1.889c0-.234-.063-.527-.191-.879s-.201-.601-.218-.747c.222-.759.547-1.243.973-1.448z"/><path fill="#B2B2B2" d="M93.304 36.841c.068-.117.146-.176.23-.176.188 0 .419.293.691.879-.102 1.318-.282 3.061-.537 5.229-.359 1.934-.726 3.413-1.102 4.438-.633 1.67-1.315 3.091-2.05 4.262-.99 1.553-1.904 2.329-2.741 2.329-.238 0-.478-.059-.717-.176l-.41-.923.18-1.318c.068-.498.623-1.229 1.664-2.196 1.248-1.143 2.195-2.388 2.845-3.735 1.077-2.198 1.725-5.069 1.947-8.613zm6.89-10.033c.137.176.428.337.872.483.443.146.776.41.999.791v.176c0 .059-.048.264-.142.614a3.535 3.535 0 0 0-.141.879l.332.176c.7-.088 1.085-.132 1.153-.132.922 0 2.169.059 3.74.176 1.998.146 3.193.322 3.586.527.342.176.59.601.743 1.274-.324.615-.691 1.084-1.101 1.406a66.81 66.81 0 0 0-1.204.967c-2.938-1.143-5.32-1.714-7.148-1.714-.461 0-1.148.132-2.062.396-.914.264-1.602.396-2.063.396-.648 0-1.72.315-3.215.944-1.494.63-2.497 1.209-3.01 1.736l-.436-1.802.026-.571c-.086-.381-.129-.615-.129-.703 0-.791.308-1.216.923-1.274l.666.571c.939-.527 2.117-.967 3.535-1.318 1.212-.264 2.417-.527 3.611-.791l.025-.791c.018-.381-.085-.761-.307-1.142v-.088c0-.088.009-.19.025-.308l.103-.22c.085-.088.214-.117.384-.088l.235-.57zm1.726 6.913c.051.117.162.308.333.571l.281.791c.103.322.281.483.538.483.137 0 .337-.029.603-.088.264-.059.465-.088.602-.088h.999a17 17 0 0 0 1.024.044c.939 0 1.443.015 1.512.044.513.146.931.601 1.255 1.362-.103.996-.538 1.494-1.307 1.494a.652.652 0 0 1-.332-.088l-.308.176c-1.179-.439-2.682-.659-4.509-.659-.171 0-.257.264-.257.791 0 .176.035.352.104.527l.127.132c.188.029.419.073.691.132.94.059 1.555.029 1.846-.088.171.117.529.176 1.076.176h.332c.171-.381.367-.571.59-.571.239.146.474.3.704.461s.405.476.525.943l-.23 1.185.128 2.151c0 .146-.009.38-.026.701-.017.322-.024.54-.024.657 0 1.551-.129 2.765-.385 3.644-.222 0-.334.19-.334.569-.05.029-.195.117-.435.264-.17.117-.315.176-.436.176-.137 0-.351-.059-.64-.176a5.648 5.648 0 0 0-.615-.22c-.649 0-1.605-.015-2.869-.044l-.129 1.464c.188.029.804.044 1.846.044.58 0 1.447.119 2.6.354 1.153.236 2.02.354 2.601.354.17 0 .426-.021.769-.065.341-.044.598-.066.768-.066.223 0 .486.222.794.661v1.369c-.188.029-.559.456-1.113 1.276-.556.82-1.013 1.289-1.371 1.406-1.811-1.67-4.091-2.505-6.84-2.505a.291.291 0 0 0-.103.044c-.068.791-.128 1.567-.18 2.329-.119 1.465-.47 2.445-1.05 2.943-.41-1.084-.581-2.841-.513-5.272-.119-.205-.238-.308-.358-.308-.051 0-.103.044-.154.132a4.361 4.361 0 0 0-.614-.044c-.769 0-1.357.161-1.768.483-.461.117-1.041.264-1.742.439-1.417.586-2.544 1.304-3.381 2.153l-.538.527c-.222-.205-.346-.623-.371-1.252-.025-.631-.09-1.033-.192-1.209.171-.146.256-.527.256-1.143.223-.498.804-.881 1.742-1.145l.461.176c1.504-.731 3.664-1.273 6.481-1.625l.051-1.452c-.597.059-1.502.22-2.715.483-.684.207-1.452.529-2.306.969-.205-.322-.376-.82-.513-1.496.103-.645.129-1.084.077-1.32.171-.732.376-1.157.614-1.274.239-1.847.359-2.916.359-3.211l-.384-.571v-.615l-.206-.923c.256-.381.359-.852.308-1.408.052-.146.11-.278.179-.396l.129-.132c.068.029.124.052.166.066.043.015.253.227.628.637.307-.029.863-.161 1.665-.396.7-.176 1.256-.264 1.665-.264.188 0 .367.015.538.044l.205-1.188-.153-.395c-.889.117-1.785.22-2.689.308-1.077.146-1.931.541-2.563 1.188-.153-.117-.23-.412-.23-.881 0-1.61.129-2.55.384-2.813.103 0 .291.205.563.615.957-.205 2.384-.454 4.278-.747v-.176c0-.117-.013-.286-.038-.506s-.03-.388-.013-.505c.034-.146.11-.205.23-.176.034 0 .146-.176.333-.527l.589-.044.385.134zm-4.928 12.172l-.357 1.582 3.971-.703.024-1.494c-.819.146-2.032.351-3.638.615zm.18-2.109c1.384-.322 2.57-.513 3.561-.571l-.103-1.538c-.819.088-1.921.264-3.304.527l-.154 1.582zm9.384-1.877a13.37 13.37 0 0 0-2.433-.218c-.529 0-1.077.029-1.64.086l.102 1.525c.24-.059.496-.088.77-.088.904 0 1.87.134 2.894.397l.077.575c-.393.915-1.194 1.371-2.407 1.371h-.743a9.113 9.113 0 0 0-.666-.044l-.103.13a1.186 1.186 0 0 0-.052.341c0 .229.052.458.154.687a33.047 33.047 0 0 1 2.639-.088h1.793c.018-.291.026-.582.026-.873 0-1.37-.138-2.636-.411-3.801zM118.936 27.218v.176c.018.381-.188.813-.615 1.296-.426.483-.64 1.018-.64 1.604-.205 0 .119-.015.974-.044a14.804 14.804 0 0 1 1.613 0c.632.059 1.041.19 1.229.396v.923c-.444.059-.896.117-1.357.176-.615.146-1.024.352-1.229.615v.088c0 .176.06.381.179.615.12.234.18.454.18.659 0 .059-.068.396-.205 1.011-.171-.088-.376-.117-.614-.088l-.846-1.187-.461-.132-.23-.615c-.598.059-1.435.366-2.511.923-1.145.586-1.981.923-2.511 1.011l-.102-.396c.118-1.318.375-2.212.768-2.681.154-.146.709-.483 1.666-1.011.393-.205.857-.615 1.396-1.23s.909-1.317 1.115-2.108l-.052-.396.23-.483a.61.61 0 0 1 .308-.088c.323-.001.895.322 1.715.966zm8.889-.263c-.052.176-.223.513-.513 1.011-.205.41-.308.79-.308 1.142.393.117 1.016.146 1.869.088l1.922-.088c1.708-.029 2.904.132 3.586.483l.104.747-.205.703c-.939.469-1.647.894-2.127 1.274-1.69-.791-3.057-1.187-4.098-1.187-.188 0-.479.073-.872.22-.272.029-.665.146-1.178.352-.153.117-.396.491-.73 1.119-.333.628-.729.999-1.19 1.116l-.205 1.18a.662.662 0 0 0 .5.218c.195 0 .337.029.422.088 1.588 0 2.673.044 3.254.132 1.399.234 2.442.776 3.125 1.626l.051.483-.103.483-.409.483c-.12.059-.257.103-.41.132l-3.996-.703c-1.008-.176-1.589-.264-1.742-.264l-1.358.28c-.597.126-1.664.188-3.202.188-.307 0-1.016.176-2.125.527-.564.059-1.136.117-1.717.176-.785.117-1.277.396-1.473.834-.197.439-.38 1.362-.551 2.769-.153 1.201-.479 2.109-.974 2.725-.222-.615-.333-1.479-.333-2.593 0-.322.068-1.421.204-3.295.019-.234-.05-.542-.204-.923v-.22c-.034-1.352.512-2.027 1.64-2.027.102.059.213.117.332.176l.257 1.19c2.015-.941 4.235-1.764 6.66-2.468-.137-.234-.29-.661-.461-1.278l.308-.749h.896c.136-.586.589-1.26 1.357-2.021l1.69-1.494.026-.308c.052-.146.11-.396.179-.746l-.486-.923c.223-.879.572-1.318 1.051-1.318.153 0 .422.08.807.241.384.162.627.301.73.419zm1.056 12.596a19.9 19.9 0 0 1 1.36.572c.563.322.828.85.794 1.584v.308c-.205.383-.351.881-.436 1.498-.12.909-.196 1.422-.23 1.539-.188.822-.752 1.601-1.692 2.333-.188.207-.513.427-.974.661h-4.715c-3.417 0-5.29.348-5.614 1.043 0 .848.052 1.374.153 1.578 2.563-.79 4.829-1.186 6.793-1.186.272 0 .696.021 1.27.065s1.005.066 1.294.066c.905 0 1.7-.264 2.382-.791l1.438.879c.563.382.896.968.999 1.761l-.461 1.408c0 .178.018.456.051.839.034.381.052.674.052.879 0 .558-.282 1.248-.845 2.068-.564.822-1.027 1.246-1.386 1.275-1.11-.557-2.477-.834-4.102-.834h-2.023c-1.146 0-2.599.277-4.357.834a23.57 23.57 0 0 1-1.386.309 2.178 2.178 0 0 0-1.254 1.01c-.376-.439-.658-1.143-.846-2.109.153-.498.308-1.261.461-2.286 0-.205.077-2.257.23-6.157.103-2.462.154-4.5.154-6.113 0-.146-.048-.329-.142-.549s-.141-.389-.141-.506c0-.732.376-1.101 1.127-1.101l.691.178c1.591-.588 3.742-.881 6.46-.881.086 0 .419-.029.999-.088.443-.029.771-.029.976 0l1.947.396.973-.482zm-11.508 13.717l-.23 2.072c.752-.234 1.896-.571 3.433-1.011.717-.146 2.015-.22 3.894-.22.103 0 .358-.029.769-.09.308-.029.555-.029.742 0l2.664.441.23-.044c.019-.176.026-.352.026-.529 0-.53-.051-.813-.153-.842l-2.768-.621c-.289-.059-.682-.073-1.178-.044-.752.059-1.145.088-1.178.088-1.726.029-2.776.061-3.152.09-1.195.118-2.229.355-3.099.71zm.009-7.39l.23.176c3.159-.82 5.276-1.23 6.353-1.23.29 0 1.545.146 3.766.439.205.029.513-.029.923-.176 0-.814-.078-1.354-.231-1.616-.769-.437-2.287-.656-4.56-.656-.153 0-.375-.02-.666-.063a4.772 4.772 0 0 0-.64-.066c-.479 0-1.119.073-1.922.218-.923.205-1.546.306-1.87.306a4.56 4.56 0 0 0-.769.088c-.256.116-.427.27-.513.458-.085.188-.127.604-.127 1.245 0-.205.008.088.026.877zm10.93-13.885c.12.119.47.31 1.05.573.462.207.769.502.923.885-.889 1.06-1.683 1.589-2.383 1.589l-.513-.088v-.134c0-.146.061-.366.18-.661.188-.441.282-.677.282-.706-.018-.324.043-.766.179-1.326.051-.088.145-.132.282-.132zm3.585 5.771c.615-1.318 1.136-1.978 1.563-1.978.325 0 .538.044.641.132.119.176.214.352.281.527l-.153 1.758.257 4.218c.017.146-.03.396-.142.747-.11.352-.175.586-.192.703l-.691 1.011c-.272-.41-.461-1.333-.563-2.769-.102-1.611-.205-2.563-.308-2.855a18.19 18.19 0 0 1-.768-.923l.075-.571zM136.228 30.147c.119.381.341.571.665.571.035 0 1.189-.19 3.468-.571-.052 0 .238.029.87.088s1.06.117 1.281.176c.393.146.769.469 1.126.967-.102.938-.4 1.494-.896 1.67-.376.088-.752.19-1.127.308-.342-.059-.854.029-1.537.264-.205.352-.308.923-.308 1.714.017.059.025.388.025.988s.094 1.092.282 1.473c1.076 0 1.836.337 2.28 1.011.017.117.025.249.025.396 0 .673-.188 1.098-.563 1.273-.171.088-.521.132-1.051.132-.711 0-1.067.879-1.067 2.637 0 .322.017.688.052 1.099.769.205 1.528.396 2.28.571 1.109.322 1.664.938 1.664 1.846 0 .527-.137.923-.409 1.187-.274.264-.563.366-.871.308-1.691-.293-2.647-.439-2.869-.439-1.315 0-2.929.688-4.842 2.065l-.282-.396v-.703c.12-.557.333-1.23.641-2.021.342-.117.932-.439 1.768-.967.734-.469 1.341-.732 1.818-.791.086-.293.129-.952.129-1.978s-.05-1.626-.146-1.802h-.23c-.82-.029-1.69.308-2.613 1.011-.393-.059-.589-.498-.589-1.318 0-.469.196-1.245.589-2.328.342 0 .833-.125 1.474-.374s1.098-.388 1.37-.417c.052-.234.094-.483.128-.747 0-1.406-.196-2.52-.589-3.34-.085 0-.21-.015-.372-.044s-.276-.044-.345-.044c-.308 0-.606.198-.897.593-.29.396-.529.594-.717.594h-.103c-.256-.703-.385-1.216-.385-1.538 0-.146.018-.293.052-.439a2.332 2.332 0 0 1-.077-.571c0-.234.086-.563.256-.988.171-.425.274-.726.308-.901l.334-.225zm16.103-1.581c.461 0 .88.029 1.256.087.153.029.452.117.896.264.376.146.658.22.846.22l1.051-.22.718.791.204.659c-.324 1.406-.486 2.373-.486 2.9 0 .557.008 1.274.025 2.153.052 1.172.076 1.89.076 2.153.018.732-.008 1.729-.076 2.987-.086 1.406-.196 2.373-.333 2.9l-.461.132c-.257 0-.641-.015-1.152-.044-.513-.029-.889-.044-1.128-.044s-.581-.021-1.024-.065a11.094 11.094 0 0 0-1-.066c-.221 0-.435.059-.64.176l-.052 1.538c.086.293.847.41 2.28.352 1.127-.029 2.008.439 2.639 1.406l-.052 1.406c-.614.469-1.399.688-2.356.659l-1.972-.088c-.086-.059-.154-.088-.205-.088-.308 0-.461.542-.461 1.626 0 .351.017.702.05 1.054.138.117.266.176.386.176.171 0 .422-.021.755-.065.334-.044.585-.066.756-.066 1.827 0 4.039.722 6.635 2.164l-1.024 2.333-1.332 1.143a523.954 523.954 0 0 0-3.151-1.758c-1.11-.586-2.22-.879-3.33-.879-1.28 0-2.442.176-3.483.527-.359.059-.88.146-1.563.264-.376.117-1.024.498-1.946 1.143-.854.615-1.495 1.127-1.921 1.537-.137-.205-.239-.622-.308-1.252-.068-.629-.137-.988-.205-1.076.068-.879.299-1.655.691-2.329h.128c.223.029.504-.132.846-.485l.538.352c.683-.498 1.69-.791 3.023-.879 1.519-.146 2.561-.336 3.124-.57l.129-.483-.129-1.978c-.171-.264-.384-.397-.64-.397-.308-.029-.505-.073-.59-.132-.529.146-1.059.278-1.588.396-.615.207-1.093.603-1.435 1.188l-.54-.398c-.103-.234-.153-.63-.153-1.188v-.396l.615-1.672c.99-.557 2.45-1.011 4.38-1.362.017-.527.025-.923.025-1.187 0-.673-.239-1.01-.717-1.01.068 0-.316.103-1.153.308-.495.117-.999.249-1.512.395-.513.146-.981.439-1.408.879a2.603 2.603 0 0 1-.358-.966c-.103-.645-.171-1.013-.206-1.101.12-.645.214-1.465.282-2.463.103-1.523.162-2.358.18-2.505a31.91 31.91 0 0 1-.103-.791l.23-3.431c-.017-.117-.11-.483-.282-1.099-.119-.527-.179-.879-.179-1.055s.064-.542.192-1.099.234-.837.32-.837c.409 0 1.699-.19 3.867-.571.685-.115 1.855-.173 3.511-.173zm-6.763 11.79l.154.439c.324 0 .806-.095 1.447-.285.64-.19 1.097-.286 1.37-.286l.692.22.307-.264.051-.746-.051-1.582c-.103-.176-.427-.264-.974-.264-.188 0-.461.015-.819.044s-.624.044-.794.044c-.581 0-.957.197-1.128.593-.169.396-.255 1.092-.255 2.087zm.231-5.536c.034.088.077.146.128.176a.556.556 0 0 0 .257.044c.769 0 1.827-.176 3.176-.527l.104-.703-.257-.791c-.136-.352-.205-.63-.205-.835a.75.75 0 0 1 .051-.264l-.563-.352a6.372 6.372 0 0 1-.819.176c-.717.088-1.153.176-1.307.264-.461.264-.691.835-.691 1.714a5.8 5.8 0 0 0 .126 1.098zm5.2 5.184c.512.117 1.323.205 2.435.264 1.058.059 1.869.161 2.433.308l.103-.615-.103-1.933c-.308-.527-.939-.791-1.896-.791h-.614c-.104 0-.24.021-.411.065-.17.044-.299.066-.384.066-.648.059-1.032.146-1.152.264-.291.205-.437.762-.437 1.67 0 .205.009.439.026.702zm.333-8.275c-.103.088-.162.352-.179.791-.018.586-.025.894-.025.923l.076.791c.273.059 1.017.161 2.229.308.905.117 1.639.308 2.202.571l-.025-2.373c-.41-.615-1.332-.923-2.767-.923-.103 0-.261-.021-.474-.065a2.628 2.628 0 0 0-.474-.066l-.563.043z"/><path d="M74.668 25.968c.104.029.385.264.846.703.153.088.385.264.691.527.154.205.266.586.334 1.143.102.703.179 1.128.23 1.274.341.117.819.161 1.435.132.7 0 1.178.015 1.434.044.769.146 2.28.557 4.535 1.23l.256.879c-.496.527-1.229 1.362-2.203 2.504-.905-.322-2.28-.688-4.124-1.098-.273.175-.606.263-.999.263-.137 0-.342-.021-.615-.065s-.47-.065-.589-.065c-.547 0-1.042.248-1.485.746-.496.527-.957 1.362-1.384 2.505-.376.967-.743 1.934-1.102 2.9-.034.088-.495.923-1.384 2.505a10.778 10.778 0 0 0-1.05 2.987c-.222 1.201-.333 2.563-.333 4.087v1.186c0 2.285-.397 4.395-1.188 6.327h-.44c-.275-.469-.386-1.332-.335-2.592l.103-2.505c0-.088-.045-.308-.137-.659s-.137-.571-.137-.659c0-.059.018-.146.051-.264.12-.352.241-1.128.361-2.329-.275.264-.677.674-1.206 1.23-.137.205-.342.483-.615.835-.188.176-.393.264-.614.264-.513 0-1.051-.271-1.614-.813s-.939-1.18-1.127-1.912c0-1.113.171-1.67.513-1.67.085.234.315.352.691.352.256 0 .47.088.641.264a101.05 101.05 0 0 1 2.203-1.626c.992-.849 1.487-1.757 1.487-2.724 0-.205-.009-.41-.025-.615l-.822-1.099.026-.396-.129-1.143c.256-1.025.711-1.567 1.362-1.626.14.322.459.652.963.989.506.337.834.651.988.944.393-.732 1.136-2.3 2.229-4.702l-.256-.22c-1.878.205-2.887.322-3.022.352-1.148.205-2.144.542-2.98 1.011-.103-.176-.167-.352-.192-.527s-.064-.337-.114-.483l.179-2.064c.171-.381.444-.645.82-.791.324-.059.82-.161 1.489-.308 1.231-.176 3.086-.483 5.563-.923.102-.469.153-.806.153-1.011-.102-.293-.171-.674-.205-1.143-.051-.732-.085-1.128-.103-1.187l.946-.964zm2.98 9.008c.137.264.487.703 1.051 1.318a3.4 3.4 0 0 1 .87 1.67c-.136.264-.315.674-.537 1.23v.571c.188 0 .461.059.819.176 1.503-.117 2.28-.176 2.332-.176.769 0 1.356.498 1.768 1.494-.137.996-.521 1.494-1.153 1.494-.068 0-.167-.029-.295-.088s-.226-.088-.294-.088c-.205 0-.752.029-1.641.088-.665.059-1.229.059-1.69 0-.239.527-.357 1.553-.357 3.075v2.109c1.417.088 2.535.234 3.355.439.956.234 1.563.352 1.818.352 1.861 0 3.083.146 3.663.439l.052.791-.052 1.318-.512.659-.104.659c-.375.469-.563.908-.563 1.318l-.59.176c-.272-.117-1.255-.645-2.945-1.582-.24-.117-.99-.381-2.255-.791-.427-.117-.684-.176-.769-.176a.853.853 0 0 0-.256.065.875.875 0 0 1-.257.066l-.538-.132c-.494-.117-1.408 0-2.741.352-1.399.352-2.305.732-2.715 1.143-.324.469-.819 1.113-1.486 1.934-.102 0-.264-.059-.486-.176l-.076-.132v-.747l-.59-2.769.104-1.011c.068-.176.204-.278.409-.308.153-.029.315-.059.487-.088 1.434-.645 2.527-.967 3.278-.967.12 0 .312-.015.576-.044s.479-.051.641-.065.432-.184.808-.506v-1.274c0-1.523-.035-2.812-.103-3.866-.614.029-1.23.073-1.846.132-.768.088-1.298.483-1.587 1.187l-.41-.483-.281-2.021c-.019.176-.026-.029-.026-.615l.026-.132a.337.337 0 0 1 .127-.132l.385.088c.443-.234 1.075-.425 1.896-.571.939-.146 1.589-.293 1.947-.439a9.492 9.492 0 0 0 .179-1.89c0-.234-.063-.527-.192-.879-.127-.352-.2-.601-.217-.747.221-.759.548-1.243.973-1.448z"/><path d="M92.291 35.84c.068-.117.146-.176.23-.176.188 0 .418.293.691.879a138.58 138.58 0 0 1-.537 5.229c-.359 1.934-.727 3.412-1.103 4.438-.632 1.67-1.314 3.091-2.049 4.263-.99 1.553-1.904 2.329-2.741 2.329a1.63 1.63 0 0 1-.718-.176l-.409-.923.179-1.318c.068-.498.623-1.23 1.665-2.197 1.247-1.143 2.195-2.388 2.844-3.735 1.077-2.197 1.726-5.068 1.948-8.613zm6.891-10.033c.137.176.428.337.871.483.444.146.776.41.999.791v.176c0 .059-.047.264-.141.615a3.488 3.488 0 0 0-.141.879l.332.176c.7-.088 1.085-.132 1.153-.132.922 0 2.169.059 3.74.176 1.998.146 3.193.322 3.586.527.341.176.59.601.743 1.274-.324.615-.691 1.084-1.102 1.406s-.811.645-1.203.967c-2.938-1.143-5.32-1.714-7.148-1.714-.461 0-1.148.132-2.062.396-.914.264-1.602.396-2.063.396-.648 0-1.72.314-3.215.944s-2.498 1.208-3.01 1.735l-.436-1.801.025-.571c-.085-.381-.128-.615-.128-.703 0-.791.308-1.216.923-1.274l.665.571c.94-.527 2.118-.967 3.536-1.318 1.212-.264 2.416-.527 3.611-.791l.025-.791c.017-.381-.085-.762-.308-1.143v-.088c0-.088.009-.19.026-.308l.103-.22c.085-.088.214-.117.384-.088l.235-.57zm1.725 6.914c.051.117.162.308.333.571l.281.79c.103.322.281.483.538.483.136 0 .337-.029.602-.088s.466-.088.602-.088h.999c.444.029.787.044 1.025.044.939 0 1.443.015 1.512.044.512.146.931.601 1.255 1.362-.103.996-.538 1.494-1.307 1.494a.65.65 0 0 1-.332-.088l-.308.176c-1.179-.439-2.683-.659-4.509-.659-.172 0-.257.264-.257.791 0 .176.035.352.104.527l.127.132c.188.029.419.073.691.132.94.059 1.555.029 1.845-.088.172.117.529.176 1.076.176h.333c.171-.381.367-.571.59-.571.239.146.474.301.704.462s.405.476.525.942l-.23 1.185.127 2.151c0 .146-.008.381-.025.701-.017.322-.024.54-.024.657 0 1.551-.129 2.765-.385 3.644-.222 0-.334.19-.334.569-.05.029-.195.117-.435.264-.171.117-.316.176-.436.176-.137 0-.351-.059-.641-.176s-.495-.19-.615-.22c-.648 0-1.605-.015-2.868-.044l-.129 1.465c.188.029.804.044 1.845.044.581 0 1.447.119 2.6.354 1.153.236 2.021.354 2.601.354.171 0 .427-.022.769-.066s.598-.065.768-.065c.223 0 .487.222.795.661v1.369c-.188.029-.559.456-1.114 1.276-.555.82-1.012 1.289-1.371 1.406-1.81-1.67-4.09-2.505-6.839-2.505a.291.291 0 0 0-.103.044c-.068.791-.128 1.567-.18 2.329-.119 1.464-.47 2.445-1.051 2.943-.409-1.084-.58-2.841-.512-5.272-.119-.205-.238-.308-.358-.308-.052 0-.103.044-.154.132a4.372 4.372 0 0 0-.614-.044c-.769 0-1.358.161-1.768.483a492.2 492.2 0 0 1-1.742.439c-1.417.586-2.544 1.304-3.381 2.153l-.538.526c-.222-.205-.347-.622-.371-1.252-.025-.63-.09-1.032-.193-1.208.172-.146.257-.527.257-1.143.223-.498.803-.881 1.742-1.145l.461.176c1.503-.732 3.664-1.274 6.48-1.626l.052-1.452c-.598.059-1.503.22-2.715.483-.684.207-1.452.529-2.307.969-.204-.322-.376-.82-.512-1.496.103-.645.128-1.083.077-1.319.171-.732.376-1.157.614-1.274.239-1.848.358-2.917.358-3.212l-.384-.571v-.615l-.205-.922c.256-.381.358-.852.308-1.408.051-.146.11-.278.179-.396l.129-.132c.068.029.123.051.166.065s.252.228.628.638c.307-.029.862-.161 1.665-.396.7-.176 1.255-.264 1.665-.264.188 0 .366.015.538.044l.204-1.188-.153-.396c-.888.117-1.784.22-2.689.308-1.076.146-1.93.542-2.562 1.188-.153-.117-.23-.412-.23-.881 0-1.611.128-2.551.384-2.814.103 0 .291.205.563.615.957-.205 2.383-.454 4.278-.747v-.176c0-.117-.013-.285-.038-.505a2.13 2.13 0 0 1-.014-.505c.035-.146.111-.205.23-.176.035 0 .146-.176.334-.527l.589-.044.385.135zm-4.928 12.171l-.358 1.582 3.971-.703.025-1.493c-.819.146-2.032.35-3.638.614zm.179-2.108c1.384-.322 2.571-.513 3.562-.571l-.103-1.538c-.819.088-1.921.264-3.305.527l-.154 1.582zm9.385-1.877a13.38 13.38 0 0 0-2.434-.218c-.529 0-1.076.029-1.639.086l.102 1.525c.239-.059.496-.088.769-.088.905 0 1.871.134 2.895.397l.077.574c-.393.916-1.194 1.371-2.407 1.371h-.743a9.113 9.113 0 0 0-.666-.044l-.103.131a1.146 1.146 0 0 0-.052.34c0 .229.052.458.154.687a33.047 33.047 0 0 1 2.639-.088h1.793c.017-.291.026-.582.026-.873 0-1.369-.138-2.636-.411-3.8z"/><path fill="#A22041" d="M117.923 26.217v.176c.017.381-.188.813-.615 1.297-.426.482-.64 1.018-.64 1.604-.205 0 .119-.015.973-.044a14.822 14.822 0 0 1 1.614 0c.632.059 1.041.19 1.229.396v.923c-.444.059-.896.117-1.357.176-.615.146-1.025.352-1.229.615v.088c0 .176.06.381.179.615.12.234.179.454.179.659 0 .059-.067.396-.204 1.01-.171-.088-.376-.117-.614-.088l-.846-1.186-.461-.132-.23-.615c-.598.059-1.435.366-2.511.923-1.145.586-1.981.922-2.511 1.01l-.102-.395c.118-1.318.375-2.212.768-2.681.154-.146.709-.483 1.665-1.011.394-.205.858-.615 1.396-1.23s.909-1.318 1.114-2.109l-.051-.396.23-.483a.607.607 0 0 1 .308-.088c.324-.001.896.322 1.716.966zm8.889-.263c-.051.176-.223.513-.512 1.011-.205.41-.308.791-.308 1.143.393.117 1.016.146 1.869.088l1.922-.088c1.708-.029 2.903.132 3.586.483l.103.747-.204.703c-.939.469-1.648.894-2.127 1.274-1.69-.791-3.057-1.187-4.099-1.187-.188 0-.479.073-.871.22-.273.029-.666.146-1.178.352-.153.117-.397.49-.73 1.118s-.73 1-1.191 1.117l-.204 1.179c.137.145.303.218.499.218s.338.029.423.088c1.588 0 2.673.044 3.253.132 1.4.234 2.442.776 3.125 1.626l.052.483-.103.483-.41.483a1.584 1.584 0 0 1-.409.132l-3.996-.703c-1.009-.176-1.589-.264-1.742-.264l-1.358.28c-.598.126-1.665.188-3.202.188-.307 0-1.016.176-2.126.527-.563.059-1.135.117-1.716.176-.785.117-1.277.396-1.473.835-.197.439-.38 1.362-.552 2.769-.153 1.201-.478 2.109-.973 2.725-.222-.615-.334-1.479-.334-2.593 0-.322.068-1.421.205-3.296.018-.234-.051-.542-.205-.923v-.22c-.033-1.351.513-2.026 1.641-2.026.102.059.213.117.332.176l.256 1.189c2.016-.94 4.236-1.763 6.661-2.468-.137-.234-.29-.661-.461-1.278l.308-.748h.896c.137-.586.59-1.26 1.358-2.021l1.69-1.494.026-.308c.051-.146.11-.396.179-.747l-.486-.923c.222-.879.572-1.318 1.05-1.318.153 0 .423.081.808.242.382.162.625.3.728.418zm1.056 12.596c.461.176.916.366 1.36.573.563.322.828.85.793 1.584v.308c-.204.382-.35.88-.435 1.497-.12.91-.196 1.423-.23 1.54-.188.822-.752 1.601-1.692 2.332-.188.207-.513.427-.974.661h-4.715c-3.418 0-5.29.348-5.614 1.044 0 .848.051 1.373.153 1.578 2.563-.791 4.829-1.187 6.793-1.187.272 0 .696.022 1.27.066s1.004.065 1.294.065c.905 0 1.699-.264 2.382-.791l1.438.879c.563.383.896.969.999 1.762l-.461 1.407c0 .178.017.456.051.839.034.381.051.674.051.879 0 .559-.281 1.249-.845 2.069-.563.821-1.026 1.246-1.386 1.275-1.109-.557-2.476-.835-4.101-.835h-2.023c-1.146 0-2.599.278-4.357.835-.461.117-.924.22-1.386.308a2.177 2.177 0 0 0-1.254 1.011c-.376-.439-.658-1.143-.846-2.109.152-.498.308-1.261.461-2.286 0-.205.077-2.258.23-6.157.103-2.463.154-4.501.154-6.113 0-.146-.048-.33-.142-.55-.095-.22-.141-.388-.141-.505 0-.732.376-1.101 1.127-1.101l.691.178c1.591-.588 3.742-.881 6.46-.881.085 0 .419-.029.998-.088.444-.029.771-.029.977 0l1.947.396.973-.483zM116.36 52.267l-.23 2.073c.752-.234 1.895-.571 3.433-1.011.717-.146 2.015-.22 3.894-.22.103 0 .358-.029.769-.09.308-.029.555-.029.742 0l2.664.441.23-.044a5.19 5.19 0 0 0 .025-.529c0-.531-.05-.813-.153-.843l-2.767-.62c-.29-.059-.683-.073-1.178-.044-.752.059-1.145.088-1.179.088-1.725.029-2.775.061-3.151.09-1.194.118-2.229.355-3.099.709zm.009-7.39l.23.176c3.159-.819 5.276-1.229 6.353-1.229.29 0 1.545.146 3.766.439.205.029.513-.029.922-.176 0-.815-.077-1.355-.23-1.617-.769-.436-2.288-.655-4.56-.655a4.92 4.92 0 0 1-.666-.064 4.73 4.73 0 0 0-.64-.065c-.479 0-1.119.073-1.923.218-.922.205-1.545.306-1.869.306a4.56 4.56 0 0 0-.769.088c-.256.115-.427.27-.513.458-.085.188-.128.604-.128 1.245.001-.206.01.087.027.876zm10.93-13.884c.119.119.47.31 1.05.573.462.206.769.501.923.884-.889 1.061-1.683 1.589-2.384 1.589l-.512-.088v-.133c0-.146.061-.366.18-.661.188-.441.282-.678.282-.707-.019-.324.042-.766.179-1.325.051-.088.145-.132.282-.132zm3.586 5.77c.615-1.318 1.136-1.978 1.563-1.978.324 0 .538.044.64.132.12.176.214.352.282.527l-.153 1.758.256 4.219c.018.146-.029.396-.141.747s-.176.586-.192.703l-.691 1.011c-.272-.41-.461-1.333-.563-2.769-.103-1.611-.205-2.563-.308-2.856a18.19 18.19 0 0 1-.768-.923l.075-.571z"/><path d="M135.214 29.147c.12.381.342.571.666.571.035 0 1.189-.19 3.467-.571-.051 0 .238.029.871.088.632.059 1.06.117 1.281.176.393.146.769.469 1.126.967-.102.938-.4 1.494-.896 1.67-.376.088-.752.19-1.127.308-.343-.059-.854.029-1.537.264-.205.352-.308.922-.308 1.713.017.059.025.389.025.989s.094 1.091.282 1.472c1.076 0 1.836.337 2.279 1.011.018.117.026.249.026.396 0 .674-.188 1.099-.563 1.274-.172.088-.521.132-1.051.132-.712 0-1.067.879-1.067 2.637 0 .322.017.688.051 1.099.769.205 1.528.396 2.28.571 1.11.322 1.665.937 1.665 1.845 0 .527-.137.923-.409 1.187-.274.264-.564.366-.872.308-1.69-.293-2.646-.439-2.868-.439-1.315 0-2.93.688-4.843 2.065l-.281-.396v-.703c.119-.557.333-1.23.641-2.021.342-.117.931-.439 1.768-.967.734-.468 1.341-.731 1.818-.79.086-.293.129-.952.129-1.978s-.05-1.626-.146-1.802h-.23c-.82-.029-1.69.308-2.613 1.011-.394-.059-.589-.498-.589-1.318 0-.469.195-1.245.589-2.329.342 0 .832-.124 1.474-.373.64-.249 1.097-.389 1.37-.418.051-.234.094-.483.127-.747 0-1.406-.195-2.52-.588-3.339-.085 0-.21-.015-.372-.044s-.277-.044-.346-.044c-.308 0-.606.197-.896.593s-.529.593-.718.593h-.102c-.256-.702-.385-1.215-.385-1.537 0-.146.018-.293.052-.439a2.332 2.332 0 0 1-.077-.571c0-.234.086-.564.256-.989.171-.425.273-.725.308-.9l.333-.225zm16.104-1.582c.461 0 .88.029 1.255.088.153.029.452.117.896.264.376.146.658.22.846.22l1.051-.22.717.791.205.659c-.324 1.406-.486 2.373-.486 2.9 0 .557.008 1.273.025 2.152.052 1.172.076 1.89.076 2.153.018.732-.008 1.729-.076 2.988-.086 1.406-.197 2.373-.333 2.9l-.461.132c-.257 0-.641-.015-1.153-.044-.512-.029-.888-.044-1.127-.044s-.581-.022-1.025-.066a10.97 10.97 0 0 0-.999-.065c-.222 0-.435.059-.64.176l-.052 1.538c.085.293.846.409 2.28.352 1.127-.029 2.007.438 2.639 1.405l-.052 1.406c-.614.469-1.399.688-2.356.659l-1.973-.088c-.085-.059-.153-.088-.204-.088-.308 0-.461.542-.461 1.626 0 .352.017.703.05 1.055.138.117.266.176.385.176.172 0 .423-.022.756-.066.334-.044.585-.065.756-.065 1.827 0 4.039.722 6.635 2.164l-1.025 2.333-1.331 1.142a556.792 556.792 0 0 0-3.151-1.757c-1.11-.586-2.22-.879-3.33-.879-1.281 0-2.442.176-3.483.527-.359.059-.88.146-1.563.264-.376.117-1.024.498-1.946 1.143-.854.614-1.495 1.127-1.921 1.537-.137-.205-.24-.622-.308-1.252s-.137-.988-.205-1.076c.068-.879.299-1.655.691-2.329h.128c.223.029.504-.132.846-.485l.538.352c.683-.498 1.69-.791 3.022-.879 1.52-.146 2.562-.337 3.125-.571l.129-.483-.129-1.978c-.171-.264-.384-.397-.64-.397-.308-.029-.505-.073-.59-.132-.529.146-1.059.278-1.589.396-.614.207-1.092.603-1.434 1.188l-.539-.396c-.102-.234-.153-.63-.153-1.188v-.396l.616-1.671c.989-.557 2.45-1.011 4.38-1.362.017-.527.025-.923.025-1.187 0-.674-.239-1.011-.717-1.011.068 0-.316.103-1.153.308-.495.117-.999.249-1.512.396s-.981.439-1.409.879a2.6 2.6 0 0 1-.357-.967c-.104-.645-.171-1.013-.206-1.101.12-.645.214-1.465.282-2.462.103-1.523.162-2.358.18-2.505a27.757 27.757 0 0 1-.103-.791l.23-3.432c-.017-.117-.111-.482-.282-1.098-.119-.527-.179-.879-.179-1.055s.064-.542.191-1.099c.129-.557.234-.837.32-.837.41 0 1.7-.19 3.868-.571.684-.117 1.853-.176 3.51-.176zm-6.762 11.791l.154.439c.324 0 .806-.096 1.446-.286s1.098-.285 1.37-.285l.692.22.307-.264.052-.747-.052-1.582c-.102-.176-.426-.264-.973-.264-.188 0-.461.015-.819.044-.359.029-.624.044-.794.044-.581 0-.957.198-1.128.594-.169.396-.255 1.091-.255 2.087zm.23-5.537c.034.088.076.146.128.176s.137.044.257.044c.769 0 1.826-.176 3.176-.527l.103-.702a89.049 89.049 0 0 0-.256-.791c-.137-.352-.206-.63-.206-.835 0-.088.019-.176.052-.264l-.563-.352a6.411 6.411 0 0 1-.819.176c-.717.088-1.153.176-1.307.264-.461.264-.691.835-.691 1.714-.002.292.04.658.126 1.097zm5.2 5.185c.512.117 1.323.205 2.434.264 1.059.059 1.87.161 2.434.308l.103-.615-.103-1.934c-.308-.527-.939-.791-1.896-.791h-.614c-.103 0-.239.022-.41.066-.17.044-.299.065-.384.065-.649.059-1.032.146-1.152.264-.291.205-.437.762-.437 1.67-.001.205.008.44.025.703zm.333-8.275c-.103.088-.162.352-.179.791-.019.586-.026.894-.026.923l.077.791c.273.059 1.017.161 2.229.307.905.117 1.64.308 2.203.571l-.025-2.372c-.411-.615-1.333-.923-2.767-.923-.104 0-.261-.022-.475-.066a2.583 2.583 0 0 0-.474-.065l-.563.043z"/><path fill="#ABABAB" d="M72.3 89.381c-.475.579-.959.938-1.45 1.069-.222.053-.563.157-1.022.315-.224.132-.563.279-1.024.437-.57.078-.966.143-1.188.197a3.733 3.733 0 0 0-1.167.476c-.127-.265-.229-.673-.309-1.229-.063-.368-.166-.618-.309-.751a5.358 5.358 0 0 1-.024-.473c0-.557.107-1.068.321-1.544.213-.476.486-.714.82-.714.968.054 2.268.054 3.901 0 .665-.025 1.116.029 1.355.16.43.21.762.711.999 1.504-.331.053-.634.239-.903.553zm8.541 2.178c-4.347 7.227-8.564 11.774-12.656 13.648l-1.285-1.464a5.123 5.123 0 0 1-.071-.792c0-.526.247-1.503.737-2.93.715-.341 1.437-.685 2.165-1.026a16.476 16.476 0 0 0 2.116-1.266c1.318-1.003 3.253-3.164 5.805-6.489.303-.394 1.112-1.647 2.428-3.757.968-1.558 1.84-2.664 2.615-3.323l.572.276c-.129 2.269-.936 4.643-2.426 7.123zm-6.21-9.427c-.301.553-.546.804-.736.752l-4.067-.91c-.063 0-.184.06-.358.178-.174.119-.309.177-.403.177l-.192-.039-.38-1.936c-.063-.236-.031-.58.096-1.027.253-.921.816-1.384 1.689-1.384.206 0 .451.107.738.317.379.237.625.368.737.396.412.13 1.068.38 1.973.748.92.449 1.508 1.136 1.761 2.058-.318-.001-.603.222-.858.67zM107.458 103.033l-1.047.91c-1.283-.688-2.654-2.084-4.114-4.196-1.205-1.817-2.402-3.64-3.593-5.458-.237.265-1.545 1.977-3.926 5.144-1.537 2.03-2.979 3.426-4.328 4.19-.063-.156-.198-.289-.404-.394-.365-.157-.729-.33-1.094-.515-.492-.212-.817-.434-.976-.671-.049-.081-.166-.556-.357-1.426.222-.739.65-1.227 1.284-1.462a21.6 21.6 0 0 0 1.594-.457c.524-.17 1.261-.783 2.212-1.84 2.094-2.269 3.625-4.233 4.592-5.895.73-1.239 1.896-3.692 3.498-7.357l-.405-.159c-.572.132-1.261.238-2.069.315-.744.132-1.856.344-3.332.635l-1.402.235a2.29 2.29 0 0 0-1.261.952l-.355-.276c0-1.505-.04-2.454-.121-2.85.033-.818.311-1.44.833-1.859.145-.106.627-.356 1.452-.751.253.633.443.933.571.91l5.779-.99.237-.04c.256 0 .524.105.81.316.031-.027.261-.383.69-1.068.269-.421.522-.633.762-.633a.85.85 0 0 1 .332.081c.095.314.376.646.845.987.467.343.812.764 1.035 1.267-.999 1.662-1.65 2.86-1.951 3.599a93.843 93.843 0 0 1-1.142 3.048c-.126.288-.508.989-1.142 2.098-.508.896-.825 1.634-.951 2.213a205.597 205.597 0 0 1 2.639 3.207c.937 1.054 1.959 1.765 3.069 2.135 1.001.212 2.498.672 4.494 1.385-.253.793-.724 1.614-1.414 2.472-.689.859-1.138 1.59-1.344 2.198zM132.602 91.203c-.208.053-.479.306-.821.752-.34.451-.652.674-.939.674-.172 0-.586-.17-1.236-.513-.76-.423-1.223-.66-1.379-.713-.303.025-.746-.015-1.332-.118l-.429.155-.81-.353c-.174.289-.348 1.107-.522 2.45l-.286 1.819c-.127.686-.275 1.252-.451 1.701a16.87 16.87 0 0 1-2.069 3.677c-.92 1.238-1.809 2.058-2.665 2.454-1.458.711-2.528 1.066-3.211 1.066-.237 0-.896-.092-1.975-.278l-.332-1.225c.045-1.583.461-2.584 1.236-3.008.318-.159 1.086-.236 2.309-.236.507 0 1.063-.118 1.664-.356.762-.316 1.585-1.043 2.473-2.177.999-1.292 1.5-2.48 1.5-3.562 0-.08-.008-.198-.026-.355l-.045-.318c-.333-.419-.58-1.028-.738-1.819l-.332-.277c-.475-.027-1.182-.013-2.117.04-.35.052-1.157.288-2.428.712-1.315.449-2.085.768-2.307.949-.222.185-.411.516-.571.989l-.404.239-.548-.08-.216-1.306c.143-1.027.271-1.769.385-2.216.189-.818.45-1.424.783-1.82a278.27 278.27 0 0 1 5.496-1.108c.664-.106 1.634-.158 2.902-.158 1.283 0 3.956.289 8.016.871.032 0 .08-.028.143-.079l.237-.079.238.079c.047.027.103.051.168.079l1.165-.158.619.435c-.097.474-.289 1.038-.573 1.685-.287.647-.478 1.143-.572 1.486zm-2.903-9.97c-.077 1.108-.696 1.661-1.854 1.661-.285 0-.698-.039-1.236-.118-.542-.079-.946-.119-1.215-.119-.127 0-.293-.026-.501-.078a4.038 4.038 0 0 1-.498-.119 10.359 10.359 0 0 0-1.595-.118c-.237 0-.952.09-2.139.276-1.191.183-1.834.316-1.927.396-.016 0-.109.119-.275.356s-.305.345-.417.316l-.499-.197-.401-1.504c.091-1.397.457-2.229 1.092-2.492.253 0 .634-.068 1.142-.198 1.238-.555 2.681-.778 4.329-.673 1.984.131 3.005.198 3.068.198 1.144.21 2.127.686 2.952 1.424.001.238-.01.566-.026.989zM155.344 102.865c-.222 0-.517-.079-.881-.236a20.964 20.964 0 0 0-.854-.317c-.366-.053-1.636-.198-3.807-.436-1.46-.157-2.277-.237-2.451-.237-3.425 0-6.271 1.056-8.541 3.165-.602-.869-.904-2.294-.904-4.272 0-.264.137-.581.408-.949.425-.213.758-.305.997-.278.556-.474 1.076-1.387 1.57-2.732.378-1.107.76-2.215 1.14-3.322.337-.819.817-2.057 1.452-3.72.192-.604.483-1.503.881-2.69.364-1.027.617-1.806.76-2.334.271-.87.471-1.688.596-2.453l-.046-.118a1.512 1.512 0 0 1-.239-.79c0-.818.253-1.452.76-1.898.477-.265.943-.528 1.402-.793.416.291.993.66 1.737 1.108.224.343.336.898.336 1.662 0 .423-.199.91-.598 1.463l-.903 1.187c-.997 1.769-2.226 4.843-3.688 9.218-.33.792-.664 1.583-.997 2.374-.411 1.003-.635 1.848-.666 2.532 1.204-.342 2.656-.514 4.354-.514 2.744 0 4.694.213 5.852.633-.269-1.32-.569-2.203-.904-2.651-.38-.501-.627-.831-.737-.989a11.444 11.444 0 0 1-.594-1.305c.158-1.135.586-1.805 1.282-2.019.239.107.581.305 1.024.594.016 0 .253.344.712 1.028.208.238.517.634.929 1.188.318.475.706 1.529 1.165 3.165a43.87 43.87 0 0 1 .882 3.523 4.122 4.122 0 0 1-.524 1.523c-.27.458-.575.69-.905.69z"/><path d="M71.487 88.032c-.476.58-.958.936-1.45 1.068-.222.053-.564.158-1.023.315-.222.132-.562.278-1.022.436-.57.08-.968.146-1.189.198a3.804 3.804 0 0 0-1.165.476c-.129-.264-.231-.674-.311-1.227-.062-.368-.164-.621-.309-.751a6.773 6.773 0 0 1-.023-.476c0-.556.106-1.068.32-1.544.216-.474.488-.711.821-.711.967.051 2.269.051 3.901 0 .666-.026 1.119.025 1.354.158.43.212.762.712 1.002 1.503-.334.053-.635.237-.906.555zm8.54 2.176c-4.344 7.227-8.564 11.776-12.653 13.65l-1.286-1.465a4.875 4.875 0 0 1-.071-.791c0-.529.245-1.504.738-2.927.712-.345 1.434-.686 2.164-1.03a16.611 16.611 0 0 0 2.117-1.265c1.315-1.002 3.25-3.165 5.805-6.489.301-.396 1.109-1.648 2.425-3.759.968-1.554 1.841-2.662 2.618-3.323l.569.277c-.127 2.268-.933 4.641-2.426 7.122zm-6.208-9.426c-.301.554-.546.804-.737.75l-4.068-.908c-.063 0-.182.058-.355.178-.177.118-.311.177-.406.177l-.189-.038-.38-1.936c-.065-.238-.032-.579.095-1.027.253-.923.817-1.382 1.689-1.382.206 0 .451.104.736.315.38.236.627.366.737.394.412.131 1.071.382 1.975.749.92.449 1.508 1.134 1.761 2.057-.32-.001-.604.222-.858.671zM106.647 101.681l-1.047.908c-1.286-.685-2.657-2.082-4.117-4.192a1003.86 1003.86 0 0 1-3.591-5.46c-.237.265-1.547 1.979-3.925 5.142-1.539 2.032-2.981 3.433-4.329 4.196-.065-.159-.197-.291-.405-.396a21.08 21.08 0 0 1-1.094-.514c-.491-.211-.817-.436-.976-.675-.046-.076-.166-.552-.356-1.422.222-.739.649-1.227 1.284-1.464.54-.132 1.07-.283 1.595-.456.522-.171 1.26-.784 2.212-1.84 2.093-2.268 3.624-4.232 4.592-5.895.728-1.238 1.896-3.69 3.495-7.358l-.403-.158c-.571.131-1.262.237-2.069.316-.746.133-1.855.344-3.331.632l-1.403.239a2.286 2.286 0 0 0-1.262.949l-.356-.277c0-1.503-.04-2.452-.119-2.849.032-.817.312-1.436.833-1.859.143-.104.628-.354 1.452-.751.254.633.443.937.57.91l5.778-.989.24-.041c.255 0 .521.107.809.318.032-.026.262-.383.69-1.069.27-.423.522-.634.76-.634.095 0 .208.028.334.081.096.314.376.645.843.988.47.344.815.765 1.037 1.266-1.001 1.662-1.65 2.863-1.953 3.602a94.895 94.895 0 0 1-1.139 3.046c-.129.291-.509.99-1.144 2.097-.507.896-.825 1.634-.952 2.216a194.812 194.812 0 0 1 2.642 3.205c.936 1.055 1.958 1.767 3.068 2.136.999.211 2.499.672 4.497 1.385-.256.791-.727 1.614-1.417 2.473-.69.855-1.137 1.586-1.343 2.194zM131.788 89.851c-.203.054-.477.304-.818.752-.343.451-.653.676-.939.676-.177 0-.586-.174-1.239-.516-.762-.422-1.221-.658-1.379-.711-.301.026-.743-.011-1.331-.118l-.428.158-.809-.356c-.177.291-.351 1.107-.524 2.453l-.283 1.819c-.129.684-.281 1.251-.453 1.699a16.862 16.862 0 0 1-2.071 3.678c-.92 1.239-1.807 2.056-2.663 2.451-1.46.713-2.528 1.068-3.213 1.068-.237 0-.894-.095-1.973-.276l-.334-1.228c.048-1.581.459-2.584 1.238-3.007.316-.158 1.084-.236 2.307-.236.507 0 1.063-.119 1.666-.356.762-.316 1.587-1.041 2.474-2.176.999-1.294 1.499-2.481 1.499-3.564 0-.076-.01-.194-.025-.353l-.048-.318c-.332-.422-.577-1.026-.735-1.819l-.335-.278c-.475-.025-1.181-.013-2.117.04-.348.053-1.157.29-2.427.711-1.315.45-2.083.768-2.307.953-.222.182-.41.514-.57.988l-.405.237-.548-.078-.214-1.306c.145-1.031.271-1.769.384-2.218.188-.819.449-1.426.783-1.821 1.221-.264 3.051-.633 5.496-1.108.665-.104 1.632-.158 2.9-.158 1.286 0 3.959.292 8.017.871.031 0 .079-.025.143-.079l.237-.079.239.079c.048.027.101.054.168.079l1.163-.158.617.435c-.095.478-.282 1.038-.569 1.686-.287.644-.476 1.141-.574 1.484zm-2.901-9.969c-.075 1.107-.697 1.662-1.854 1.662-.282 0-.698-.04-1.238-.12-.538-.078-.943-.117-1.211-.117-.128 0-.295-.025-.5-.08-.271-.052-.436-.091-.499-.119a10.473 10.473 0 0 0-1.597-.118c-.237 0-.949.093-2.139.276-1.19.187-1.832.317-1.929.396-.014 0-.106.119-.272.359-.167.234-.305.34-.416.313l-.498-.198-.408-1.501c.1-1.399.461-2.229 1.097-2.495.253 0 .635-.066 1.142-.197 1.236-.555 2.681-.777 4.33-.672 1.982.132 3.005.198 3.068.198 1.144.212 2.125.687 2.952 1.425-.001.236-.011.565-.028.988zM154.532 101.513c-.224 0-.519-.079-.881-.235a20.706 20.706 0 0 0-.856-.317 221.01 221.01 0 0 0-3.808-.437c-1.459-.156-2.271-.235-2.448-.235-3.424 0-6.273 1.056-8.54 3.164-.604-.87-.904-2.292-.904-4.273 0-.261.135-.581.403-.949.428-.21.762-.304 1.001-.277.555-.474 1.078-1.387 1.569-2.73.38-1.109.762-2.218 1.142-3.321.332-.819.816-2.059 1.45-3.722.191-.607.484-1.502.882-2.69.364-1.027.617-1.805.76-2.334.27-.868.467-1.688.596-2.451l-.048-.119a1.533 1.533 0 0 1-.239-.791c0-.818.256-1.452.762-1.9.479-.263.944-.528 1.403-.79.413.288.991.658 1.736 1.106.224.345.335.896.335 1.661 0 .424-.198.911-.596 1.465l-.904 1.186c-.999 1.77-2.228 4.842-3.686 9.22-.335.79-.667 1.582-1.001 2.372-.41 1.002-.634 1.847-.665 2.535 1.205-.345 2.657-.517 4.353-.517 2.744 0 4.694.212 5.853.633-.27-1.318-.57-2.202-.904-2.651-.38-.499-.625-.829-.736-.99-.174-.314-.374-.75-.596-1.304.158-1.133.586-1.807 1.282-2.016.241.105.582.302 1.024.593.017 0 .254.342.715 1.028.205.237.517.634.928 1.187.316.474.704 1.529 1.165 3.166a42.49 42.49 0 0 1 .879 3.522 4.143 4.143 0 0 1-.522 1.523c-.271.46-.572.688-.904.688z"/><linearGradient id="d" gradientUnits="userSpaceOnUse" x1="83.804" y1="40.285" x2="139.109" y2="95.591"><stop offset="0" stop-color="#ead18f"/><stop offset=".076" stop-color="#e1c477"/><stop offset=".221" stop-color="#d1af4e"/><stop offset=".335" stop-color="#c8a235"/><stop offset=".405" stop-color="#c49d2c"/><stop offset=".559" stop-color="#d4b35c"/><stop offset=".766" stop-color="#e7cd97"/><stop offset=".919" stop-color="#f3debb"/><stop offset="1" stop-color="#f8e4c9"/></linearGradient><path opacity=".8" fill="url(#d)" d="M62.649 61.438h97.612v12.999H62.649z"/><path d="M67.063 71.484v.219h-2.107v-.219h.174a.461.461 0 0 0 .443-.287c.059-.124.088-.425.088-.9v-5.133c0-.401-.016-.667-.047-.796a.517.517 0 0 0-.148-.251.504.504 0 0 0-.336-.141h-.174v-.219h2.107v.219h-.178c-.199 0-.346.096-.438.287-.061.124-.09.425-.09.9v5.133c0 .401.016.667.047.796a.491.491 0 0 0 .15.251.49.49 0 0 0 .33.141h.179zM68.454 67.308c.387-.757.758-1.136 1.109-1.136a.6.6 0 0 1 .467.221c.131.146.234.388.311.725.053.234.08.595.08 1.08v2.295c0 .339.018.569.051.69.027.097.07.173.129.228s.168.082.328.082v.211H69.28v-.211h.068c.154 0 .264-.038.324-.114a.693.693 0 0 0 .129-.336c.01-.059.016-.241.016-.55V68.29c0-.489-.041-.845-.117-1.066-.078-.222-.209-.332-.395-.332-.285 0-.57.254-.852.763v2.839c0 .362.012.587.039.673.033.112.08.195.141.248.059.053.18.079.361.079v.211h-1.648v-.211h.072c.168 0 .283-.069.342-.207.059-.139.088-.403.088-.793v-2c0-.645-.008-1.037-.027-1.178-.018-.141-.047-.236-.084-.287s-.088-.076-.15-.076a.482.482 0 0 0-.244.088l-.055-.211 1.008-.656h.158v1.134zM71.03 66.328h1.557v.211h-.102c-.094 0-.166.037-.215.111s-.072.174-.072.299c0 .137.023.299.074.486l.771 2.965.771-3.076c.055-.219.082-.385.082-.498 0-.055-.01-.1-.029-.135-.025-.059-.061-.099-.102-.12s-.123-.032-.25-.032v-.211h1.088v.211c-.125.016-.213.058-.262.125-.084.12-.16.319-.229.598l-1.17 4.605h-.152l-1.18-4.533a2.294 2.294 0 0 0-.152-.459.734.734 0 0 0-.186-.235.66.66 0 0 0-.242-.101v-.211zM75.464 68.359c-.004.797.117 1.422.357 1.875.242.453.525.68.852.68.217 0 .406-.096.566-.287.16-.192.295-.523.404-.994l.111.117a3.679 3.679 0 0 1-.443 1.461c-.242.438-.549.656-.916.656-.398 0-.74-.251-1.023-.753-.285-.502-.426-1.177-.426-2.024 0-.918.145-1.634.436-2.147s.656-.771 1.098-.771c.371 0 .678.198.916.596.24.396.359.928.359 1.592h-2.291zm0-.343h1.537c-.012-.344-.037-.586-.076-.727a1.182 1.182 0 0 0-.271-.516c-.119-.125-.244-.188-.375-.188-.199 0-.379.126-.537.378s-.253.603-.278 1.053zM79.175 67.308c.389-.757.758-1.136 1.109-1.136.182 0 .338.073.467.221.131.146.234.388.313.725.053.234.078.595.078 1.08v2.295c0 .339.018.569.051.69.027.097.07.173.129.228.061.055.17.082.328.082v.211h-1.648v-.211h.068c.156 0 .264-.038.326-.114a.724.724 0 0 0 .129-.336c.008-.059.014-.241.014-.55V68.29c0-.489-.039-.845-.117-1.066s-.209-.332-.393-.332c-.287 0-.57.254-.854.763v2.839c0 .362.014.587.039.673.035.112.082.195.141.248s.18.079.361.079v.211h-1.648v-.211h.072c.17 0 .283-.069.342-.207.059-.139.09-.403.09-.793v-2c0-.645-.01-1.037-.027-1.178-.02-.141-.047-.236-.084-.287a.18.18 0 0 0-.152-.076.494.494 0 0 0-.244.088l-.055-.211 1.008-.656h.158v1.134zM82.882 64.563v1.766h.777v.414h-.777v3.482c0 .348.031.582.094.703.061.121.141.182.236.182.08 0 .156-.04.232-.121a.824.824 0 0 0 .174-.355h.139c-.084.384-.203.672-.359.865-.154.194-.314.291-.479.291a.482.482 0 0 1-.328-.149c-.105-.1-.186-.242-.236-.428s-.076-.472-.076-.859v-3.61h-.527v-.195c.135-.086.271-.232.41-.438.139-.206.264-.45.375-.731.057-.148.135-.421.234-.815h.111zM85.604 66.172c.502 0 .906.309 1.211.927.258.528.389 1.134.389 1.818 0 .48-.072.968-.215 1.46-.143.493-.338.864-.59 1.115-.25.25-.527.375-.834.375-.502 0-.898-.322-1.193-.968-.25-.544-.373-1.153-.373-1.83 0-.493.074-.982.227-1.47.15-.486.35-.846.596-1.079.245-.232.507-.348.782-.348zm-.111.383c-.129 0-.256.062-.387.185-.129.124-.232.34-.313.648-.078.31-.119.706-.119 1.19 0 .783.096 1.457.287 2.024s.445.851.758.851c.234 0 .428-.156.578-.469.152-.313.229-.852.229-1.613 0-.955-.127-1.705-.379-2.253-.171-.376-.39-.563-.654-.563zM88.663 66.172v1.207c.277-.805.563-1.207.855-1.207.133 0 .242.065.33.196a.808.808 0 0 1 .129.454c0 .152-.031.281-.094.387s-.139.158-.225.158-.18-.067-.285-.203-.182-.203-.232-.203c-.043 0-.092.039-.143.117-.107.161-.219.426-.336.794v2.573c0 .298.023.523.068.677.031.105.088.194.168.265s.193.105.344.105v.211h-1.707v-.211c.17 0 .295-.043.377-.129a.558.558 0 0 0 .127-.301c.014-.066.02-.257.02-.57v-2.078c0-.627-.008-1-.023-1.119s-.047-.207-.088-.262a.194.194 0 0 0-.158-.082.5.5 0 0 0-.256.088l-.035-.211 1.012-.656h.152z"/><path d="M89.972 66.328h1.549v.211h-.076c-.109 0-.189.038-.244.115a.476.476 0 0 0-.082.286c0 .153.039.366.119.638l.813 2.721.74-2.979c.041-.162.061-.322.061-.479a.39.39 0 0 0-.025-.16.244.244 0 0 0-.09-.104.45.45 0 0 0-.219-.038v-.211h1.078v.211a.38.38 0 0 0-.207.095.902.902 0 0 0-.158.265 4.988 4.988 0 0 0-.123.455l-1.35 5.365c-.131.52-.303.913-.514 1.179-.213.267-.416.4-.613.4-.143 0-.26-.067-.352-.2a.79.79 0 0 1-.139-.458c0-.164.033-.297.1-.396a.314.314 0 0 1 .275-.149c.08 0 .189.043.328.13.096.06.156.089.18.089.072 0 .152-.061.238-.183.086-.121.172-.356.26-.705l.234-.94-1.191-4.049a4.165 4.165 0 0 0-.176-.454 1.273 1.273 0 0 0-.148-.277.67.67 0 0 0-.268-.165v-.213zM98.538 71.703l-1.9-6.686v5.311c0 .486.033.79.098.911a.45.45 0 0 0 .424.245h.174v.219h-1.711v-.219h.174c.209 0 .355-.102.443-.304.053-.124.08-.409.08-.853v-5.195c0-.351-.025-.604-.074-.759a.57.57 0 0 0-.186-.283c-.092-.076-.236-.114-.438-.114v-.219h1.395l1.781 6.216 1.758-6.216h1.391v.219h-.172c-.209 0-.357.102-.445.304-.053.124-.08.409-.08.853v5.195c0 .486.035.79.102.911a.45.45 0 0 0 .424.245h.172v.219h-2.09v-.219h.176c.209 0 .357-.102.441-.304.053-.124.08-.409.08-.853v-5.311l-1.895 6.686h-.122zM104.212 70.928c-.34.426-.555.672-.641.738a.683.683 0 0 1-.416.146c-.23 0-.42-.127-.566-.381-.148-.255-.225-.589-.225-1.004 0-.262.037-.488.109-.68.1-.266.271-.517.516-.751.246-.234.652-.521 1.223-.856v-.21c0-.534-.053-.901-.156-1.1-.105-.199-.258-.299-.455-.299a.414.414 0 0 0-.361.199.776.776 0 0 0-.137.455l.008.34c0 .179-.029.317-.086.414-.059.098-.133.146-.227.146-.09 0-.164-.051-.221-.152-.059-.102-.086-.24-.086-.415 0-.336.105-.645.318-.925.213-.281.512-.422.896-.422.295 0 .535.08.725.24.143.121.248.311.314.568.045.168.066.512.066 1.03v1.821c0 .512.006.825.018.94s.033.192.061.231.059.059.096.059a.147.147 0 0 0 .102-.041c.051-.051.148-.193.295-.428v.328c-.271.589-.531.883-.777.883-.119 0-.213-.066-.283-.199-.071-.129-.108-.356-.11-.675zm0-.381V68.5c-.365.234-.6.4-.705.498-.191.173-.328.353-.41.54s-.123.393-.123.615c0 .282.053.516.156.701s.223.278.357.278c.184.001.426-.194.725-.585zM106.604 67.308c.387-.757.758-1.136 1.109-1.136a.6.6 0 0 1 .467.221c.131.146.234.388.311.725.053.234.08.595.08 1.08v2.295c0 .339.018.569.051.69.027.097.07.173.129.228s.168.082.328.082v.211h-1.648v-.211h.068c.154 0 .264-.038.324-.114a.693.693 0 0 0 .129-.336c.01-.059.016-.241.016-.55V68.29c0-.489-.041-.845-.117-1.066-.078-.222-.209-.332-.395-.332-.285 0-.57.254-.852.763v2.839c0 .362.012.587.039.673.033.112.08.195.141.248.059.053.18.079.361.079v.211h-1.648v-.211h.072c.168 0 .283-.069.342-.207.059-.139.088-.403.088-.793v-2c0-.645-.008-1.037-.027-1.178-.018-.141-.047-.236-.084-.287s-.088-.076-.15-.076a.482.482 0 0 0-.244.088l-.055-.211 1.008-.656h.158v1.134zM111.22 70.928c-.34.426-.553.672-.641.738a.678.678 0 0 1-.416.146c-.229 0-.418-.127-.566-.381-.148-.255-.223-.589-.223-1.004 0-.262.035-.488.109-.68.098-.266.27-.517.516-.751.244-.234.652-.521 1.221-.856v-.21c0-.534-.053-.901-.156-1.1-.104-.199-.256-.299-.455-.299a.409.409 0 0 0-.359.199.778.778 0 0 0-.139.455l.008.34c0 .179-.027.317-.086.414-.057.098-.133.146-.225.146s-.164-.051-.223-.152a.852.852 0 0 1-.086-.415c0-.336.107-.645.32-.925.213-.281.51-.422.895-.422.295 0 .537.08.725.24.143.121.248.311.316.568.043.168.064.512.064 1.03v1.821c0 .512.006.825.02.94.012.115.031.192.059.231s.061.059.098.059a.147.147 0 0 0 .102-.041c.051-.051.148-.193.293-.428v.328c-.271.589-.529.883-.777.883-.117 0-.213-.066-.283-.199-.072-.129-.107-.356-.111-.675zm0-.381V68.5c-.363.234-.6.4-.705.498-.189.173-.326.353-.408.54s-.123.393-.123.615c0 .282.051.516.154.701s.225.278.359.278c.184.001.424-.194.723-.585zM113.522 69.732a1.502 1.502 0 0 1-.467-.67 2.648 2.648 0 0 1-.164-.949c0-.53.125-.986.373-1.368s.564-.573.953-.573c.316 0 .592.125.824.375h.705c.104 0 .164.005.182.015.016.01.027.026.035.05a.533.533 0 0 1 .021.189.844.844 0 0 1-.018.213.094.094 0 0 1-.039.047.506.506 0 0 1-.186.018h-.434c.135.281.203.64.203 1.076 0 .5-.119.927-.355 1.282-.236.354-.555.532-.953.532-.164 0-.332-.04-.504-.121a1.51 1.51 0 0 0-.211.394.952.952 0 0 0-.057.287c0 .066.021.132.061.195.039.063.117.108.232.136.068.015.236.028.508.039.496.019.818.045.965.078a.837.837 0 0 1 .539.405c.133.22.201.49.201.812 0 .442-.129.857-.387 1.245-.377.572-.867.859-1.475.859-.469 0-.861-.17-1.184-.511-.182-.195-.271-.399-.271-.61 0-.094.012-.188.039-.281.041-.145.127-.347.256-.604.018-.035.141-.247.371-.634a1.489 1.489 0 0 1-.266-.327.694.694 0 0 1-.078-.328c0-.138.035-.299.104-.483.071-.188.229-.45.477-.788zm-.033 1.971a3.213 3.213 0 0 0-.262.556c-.059.171-.09.329-.09.474 0 .187.07.351.211.491.242.241.592.362 1.049.362.436 0 .758-.124.965-.371.207-.248.309-.513.309-.794 0-.202-.061-.347-.184-.433-.125-.086-.375-.137-.746-.152-.543-.023-.961-.067-1.252-.133zm.666-5.25c-.178 0-.328.115-.449.345s-.182.582-.182 1.058c0 .615.084 1.092.246 1.431.127.257.285.386.479.386.184 0 .334-.111.453-.333.117-.222.178-.57.178-1.046 0-.619-.084-1.104-.25-1.454-.123-.258-.281-.387-.475-.387zM116.909 68.359c-.002.797.117 1.422.359 1.875.24.453.523.68.852.68.217 0 .404-.096.566-.287.16-.192.295-.523.402-.994l.111.117c-.051.537-.197 1.023-.441 1.461s-.549.656-.916.656c-.4 0-.742-.251-1.025-.753s-.426-1.177-.426-2.024c0-.918.146-1.634.438-2.147s.656-.771 1.096-.771c.373 0 .678.198.918.596.238.396.357.928.357 1.592h-2.291zm0-.343h1.537c-.012-.344-.037-.586-.076-.727-.061-.219-.15-.391-.27-.516s-.244-.188-.375-.188c-.201 0-.381.126-.539.378s-.249.603-.277 1.053zM120.636 67.322c.24-.394.383-.619.428-.679.107-.149.225-.265.35-.348a.678.678 0 0 1 .375-.124c.207 0 .385.099.535.295.148.196.25.481.301.855.248-.472.459-.781.631-.93.172-.146.348-.221.529-.221.176 0 .332.073.469.221.137.146.246.386.324.719.055.227.08.583.08 1.068v2.313c0 .335.016.565.047.69.025.085.07.158.135.219.066.061.174.091.322.091v.211h-1.645v-.211h.068a.423.423 0 0 0 .334-.135.583.583 0 0 0 .119-.298c.01-.066.016-.255.016-.567v-2.309c0-.438-.033-.746-.098-.926-.094-.25-.246-.375-.453-.375-.127 0-.256.052-.385.155s-.285.296-.469.577l-.008.064.01.252v2.561c0 .366.014.595.039.685a.447.447 0 0 0 .141.225c.07.061.189.091.357.091v.211h-1.678v-.211c.182 0 .307-.035.377-.105a.6.6 0 0 0 .141-.315c.014-.066.02-.26.02-.579v-2.309c0-.438-.041-.753-.119-.946-.105-.252-.254-.378-.445-.378-.129 0-.258.057-.385.171a1.88 1.88 0 0 0-.463.585v2.877c0 .351.016.579.045.685.029.104.074.184.133.236s.178.079.359.079v.211h-1.645v-.211c.152 0 .258-.026.318-.079s.105-.136.137-.251.047-.339.047-.67v-2.055c0-.592-.01-.974-.031-1.146a.644.644 0 0 0-.08-.268.176.176 0 0 0-.15-.073.494.494 0 0 0-.244.088l-.055-.211 1.008-.656h.158v1.151zM125.981 68.359c-.002.797.117 1.422.357 1.875.242.453.525.68.852.68.217 0 .406-.096.566-.287.16-.192.295-.523.404-.994l.111.117c-.051.537-.197 1.023-.441 1.461s-.551.656-.918.656c-.398 0-.74-.251-1.023-.753s-.426-1.177-.426-2.024c0-.918.146-1.634.438-2.147.289-.514.656-.771 1.096-.771.373 0 .678.198.916.596.24.396.359.928.359 1.592h-2.291zm0-.343h1.537c-.012-.344-.037-.586-.076-.727a1.191 1.191 0 0 0-.27-.516c-.121-.125-.246-.188-.375-.188-.201 0-.381.126-.539.378s-.251.603-.277 1.053zM129.692 67.308c.389-.757.758-1.136 1.111-1.136.18 0 .336.073.465.221.131.146.234.388.313.725.053.234.08.595.08 1.08v2.295c0 .339.016.569.051.69a.46.46 0 0 0 .127.228c.061.055.17.082.328.082v.211h-1.648v-.211h.07c.154 0 .262-.038.324-.114a.724.724 0 0 0 .129-.336c.01-.059.014-.241.014-.55V68.29c0-.489-.039-.845-.117-1.066s-.209-.332-.393-.332c-.285 0-.57.254-.854.763v2.839c0 .362.014.587.041.673.033.112.08.195.139.248.061.053.18.079.361.079v.211h-1.648v-.211h.072c.17 0 .283-.069.342-.207.061-.139.09-.403.09-.793v-2c0-.645-.01-1.037-.027-1.178s-.047-.236-.084-.287-.088-.076-.152-.076a.494.494 0 0 0-.244.088l-.053-.211 1.008-.656h.156v1.134zM133.401 64.563v1.766h.775v.414h-.775v3.482c0 .348.029.582.092.703s.141.182.236.182c.08 0 .158-.04.232-.121a.824.824 0 0 0 .174-.355h.141c-.086.384-.205.672-.359.865-.156.194-.316.291-.48.291a.486.486 0 0 1-.328-.149.917.917 0 0 1-.236-.428c-.051-.186-.076-.472-.076-.859v-3.61h-.527v-.195c.135-.086.271-.232.41-.438.141-.206.264-.45.375-.731.057-.148.135-.421.236-.815h.11zM139.524 63.578v2.75h-.135c-.045-.527-.121-.948-.234-1.261s-.273-.562-.482-.745c-.207-.184-.422-.275-.646-.275-.25 0-.459.124-.623.372a1.48 1.48 0 0 0-.248.846c0 .241.053.462.156.661.15.293.508.683 1.072 1.171.461.397.775.703.943.916.17.213.299.464.389.753.092.289.137.592.137.908 0 .602-.145 1.12-.432 1.556-.289.436-.66.653-1.115.653-.143 0-.277-.018-.402-.054a3.085 3.085 0 0 1-.465-.219c-.236-.126-.385-.188-.449-.188-.059 0-.107.03-.143.09s-.061.184-.078.371h-.135v-2.727h.135c.063.57.148.996.254 1.279s.27.518.486.705c.219.188.459.281.719.281a.818.818 0 0 0 .715-.387c.176-.258.264-.563.264-.914 0-.195-.033-.393-.1-.592s-.17-.385-.311-.557c-.096-.117-.354-.365-.775-.745-.422-.379-.721-.682-.898-.908s-.313-.477-.404-.749a2.812 2.812 0 0 1-.137-.902c0-.569.135-1.061.406-1.473.271-.411.615-.617 1.033-.617.262 0 .539.104.832.313.135.099.23.147.287.147.063 0 .113-.03.154-.092.039-.061.07-.184.096-.369h.134zM140.29 66.328h1.549v.211h-.076c-.109 0-.189.038-.244.115a.476.476 0 0 0-.082.286c0 .153.039.366.119.638l.813 2.721.74-2.979c.041-.162.061-.322.061-.479a.39.39 0 0 0-.025-.16.244.244 0 0 0-.09-.104.445.445 0 0 0-.217-.038v-.211h1.076v.211a.38.38 0 0 0-.207.095.902.902 0 0 0-.158.265 5.372 5.372 0 0 0-.123.455l-1.35 5.365c-.131.52-.303.913-.514 1.179-.213.267-.416.4-.613.4-.143 0-.26-.067-.352-.2a.79.79 0 0 1-.139-.458c0-.164.033-.297.1-.396.068-.1.16-.149.275-.149.08 0 .189.043.328.13.096.06.156.089.18.089.074 0 .152-.061.238-.183.086-.121.174-.356.26-.705l.234-.94-1.191-4.049a4.54 4.54 0 0 0-.174-.454 1.348 1.348 0 0 0-.15-.277.67.67 0 0 0-.268-.165v-.213zM146.337 66.172V68h-.121c-.092-.575-.209-.966-.352-1.174-.145-.207-.326-.311-.549-.311a.479.479 0 0 0-.408.217.81.81 0 0 0-.156.481c0 .22.039.407.115.563.074.161.227.331.457.512l.529.416c.49.388.736.897.736 1.531 0 .489-.115.883-.342 1.182-.229.3-.484.449-.768.449-.203 0-.436-.059-.697-.176a.47.47 0 0 0-.195-.059c-.055 0-.1.05-.131.148h-.119v-1.914h.119c.068.548.197.961.389 1.239s.404.417.643.417c.166 0 .303-.079.406-.238.105-.158.158-.35.158-.572 0-.271-.059-.498-.176-.682-.117-.185-.352-.417-.701-.699-.352-.281-.582-.535-.689-.762-.109-.223-.164-.504-.164-.845 0-.441.094-.811.281-1.108.188-.297.43-.445.727-.445.131 0 .289.046.475.137.123.061.205.09.246.09a.107.107 0 0 0 .09-.042.561.561 0 0 0 .076-.185h.121zM148.052 64.563v1.766h.777v.414h-.777v3.482c0 .348.031.582.094.703.061.121.139.182.236.182.08 0 .156-.04.23-.121a.803.803 0 0 0 .176-.355h.139c-.084.384-.205.672-.359.865-.154.194-.314.291-.479.291-.113 0-.221-.05-.328-.149s-.186-.242-.236-.428-.076-.472-.076-.859v-3.61h-.527v-.195c.135-.086.27-.232.41-.438.139-.206.264-.45.375-.731.057-.148.135-.421.234-.815h.111zM149.704 68.359c-.002.797.117 1.422.359 1.875.24.453.525.68.852.68.217 0 .406-.096.566-.287.16-.192.295-.523.404-.994l.109.117c-.051.537-.197 1.023-.441 1.461s-.549.656-.916.656c-.4 0-.74-.251-1.023-.753-.285-.502-.428-1.177-.428-2.024 0-.918.146-1.634.438-2.147s.656-.771 1.096-.771c.373 0 .678.198.918.596.238.396.357.928.357 1.592h-2.291zm0-.343h1.537c-.012-.344-.037-.586-.076-.727-.061-.219-.15-.391-.27-.516s-.244-.188-.375-.188c-.201 0-.381.126-.539.378s-.25.603-.277 1.053zM153.431 67.322c.24-.394.383-.619.428-.679.107-.149.225-.265.35-.348a.683.683 0 0 1 .375-.124c.207 0 .385.099.535.295s.25.481.301.855c.248-.472.459-.781.631-.93.172-.146.348-.221.529-.221.176 0 .332.073.469.221.137.146.246.386.326.719.053.227.078.583.078 1.068v2.313c0 .335.016.565.047.69.025.085.07.158.135.219.066.061.174.091.322.091v.211h-1.645v-.211h.068a.423.423 0 0 0 .334-.135.6.6 0 0 0 .121-.298 6.82 6.82 0 0 0 .014-.567v-2.309c0-.438-.033-.746-.098-.926-.094-.25-.244-.375-.453-.375-.127 0-.256.052-.385.155s-.285.296-.469.577l-.008.064.01.252v2.561c0 .366.014.595.039.685a.447.447 0 0 0 .141.225c.07.061.189.091.357.091v.211h-1.678v-.211c.182 0 .307-.035.377-.105a.6.6 0 0 0 .141-.315c.014-.066.02-.26.02-.579v-2.309c0-.438-.041-.753-.119-.946-.105-.252-.254-.378-.445-.378-.129 0-.258.057-.385.171a1.88 1.88 0 0 0-.463.585v2.877c0 .351.016.579.045.685.029.104.074.184.133.236s.18.079.359.079v.211h-1.645v-.211c.152 0 .258-.026.318-.079s.105-.136.137-.251c.033-.115.049-.339.049-.67v-2.055c0-.592-.012-.974-.033-1.146a.644.644 0 0 0-.08-.268.176.176 0 0 0-.15-.073.494.494 0 0 0-.244.088l-.055-.211 1.01-.656h.156v1.151z"/><linearGradient id="e" gradientUnits="userSpaceOnUse" x1="73.083" y1="53.327" x2="128.389" y2="108.633"><stop offset="0" stop-color="#ead18f"/><stop offset=".076" stop-color="#e1c477"/><stop offset=".221" stop-color="#d1af4e"/><stop offset=".335" stop-color="#c8a235"/><stop offset=".405" stop-color="#c49d2c"/><stop offset=".559" stop-color="#d4b35c"/><stop offset=".766" stop-color="#e7cd97"/><stop offset=".919" stop-color="#f3debb"/><stop offset="1" stop-color="#f8e4c9"/></linearGradient><linearGradient id="f" gradientUnits="userSpaceOnUse" x1="87.082" y1="33.661" x2="142.388" y2="88.966"><stop offset="0" stop-color="#ead18f"/><stop offset=".076" stop-color="#e1c477"/><stop offset=".221" stop-color="#d1af4e"/><stop offset=".335" stop-color="#c8a235"/><stop offset=".405" stop-color="#c49d2c"/><stop offset=".559" stop-color="#d4b35c"/><stop offset=".766" stop-color="#e7cd97"/><stop offset=".919" stop-color="#f3debb"/><stop offset="1" stop-color="#f8e4c9"/></linearGradient><linearGradient id="g" gradientUnits="userSpaceOnUse" x1="21.153" y1="35.413" x2="76.46" y2="90.719"><stop offset="0" stop-color="#ead18f"/><stop offset=".076" stop-color="#e1c477"/><stop offset=".221" stop-color="#d1af4e"/><stop offset=".335" stop-color="#c8a235"/><stop offset=".405" stop-color="#c49d2c"/><stop offset=".559" stop-color="#d4b35c"/><stop offset=".766" stop-color="#e7cd97"/><stop offset=".919" stop-color="#f3debb"/><stop offset="1" stop-color="#f8e4c9"/></linearGradient><linearGradient id="h" gradientUnits="userSpaceOnUse" x1="91.372" y1="23.507" x2="146.477" y2="78.612"><stop offset="0" stop-color="#ead18f"/><stop offset=".076" stop-color="#e1c477"/><stop offset=".221" stop-color="#d1af4e"/><stop offset=".335" stop-color="#c8a235"/><stop offset=".405" stop-color="#c49d2c"/><stop offset=".559" stop-color="#d4b35c"/><stop offset=".766" stop-color="#e7cd97"/><stop offset=".919" stop-color="#f3debb"/><stop offset="1" stop-color="#f8e4c9"/></linearGradient><linearGradient id="i" gradientUnits="userSpaceOnUse" x1="66.66" y1="31.667" x2="121.967" y2="86.974"><stop offset="0" stop-color="#ead18f"/><stop offset=".076" stop-color="#e1c477"/><stop offset=".221" stop-color="#d1af4e"/><stop offset=".335" stop-color="#c8a235"/><stop offset=".405" stop-color="#c49d2c"/><stop offset=".559" stop-color="#d4b35c"/><stop offset=".766" stop-color="#e7cd97"/><stop offset=".919" stop-color="#f3debb"/><stop offset="1" stop-color="#f8e4c9"/></linearGradient><linearGradient id="j" gradientUnits="userSpaceOnUse" x1="75.56" y1="-7.537" x2="130.866" y2="47.769"><stop offset="0" stop-color="#ead18f"/><stop offset=".076" stop-color="#e1c477"/><stop offset=".221" stop-color="#d1af4e"/><stop offset=".335" stop-color="#c8a235"/><stop offset=".405" stop-color="#c49d2c"/><stop offset=".559" stop-color="#d4b35c"/><stop offset=".766" stop-color="#e7cd97"/><stop offset=".919" stop-color="#f3debb"/><stop offset="1" stop-color="#f8e4c9"/></linearGradient><linearGradient id="k" gradientUnits="userSpaceOnUse" x1="94.897" y1="5.682" x2="150.203" y2="60.987"><stop offset="0" stop-color="#ead18f"/><stop offset=".076" stop-color="#e1c477"/><stop offset=".221" stop-color="#d1af4e"/><stop offset=".335" stop-color="#c8a235"/><stop offset=".405" stop-color="#c49d2c"/><stop offset=".559" stop-color="#d4b35c"/><stop offset=".766" stop-color="#e7cd97"/><stop offset=".919" stop-color="#f3debb"/><stop offset="1" stop-color="#f8e4c9"/></linearGradient></svg>