<?xml version="1.0" encoding="utf-8"?><svg xmlns="http://www.w3.org/2000/svg" width="99" height="81" viewBox="84.733 30.917 99 81"><linearGradient id="a" gradientUnits="userSpaceOnUse" x1="106.291" y1="33.815" x2="161.8" y2="89.324"><stop offset="0" stop-color="#ead18f"/><stop offset=".076" stop-color="#e1c477"/><stop offset=".221" stop-color="#d1af4e"/><stop offset=".335" stop-color="#c8a235"/><stop offset=".405" stop-color="#c49d2c"/><stop offset=".559" stop-color="#d4b35c"/><stop offset=".766" stop-color="#e7cd97"/><stop offset=".919" stop-color="#f3debb"/><stop offset="1" stop-color="#f8e4c9"/></linearGradient><linearGradient id="b" gradientUnits="userSpaceOnUse" x1="106.04" y1="66.063" x2="161.292" y2="121.315"><stop offset="0" stop-color="#ead18f"/><stop offset=".076" stop-color="#e1c477"/><stop offset=".221" stop-color="#d1af4e"/><stop offset=".335" stop-color="#c8a235"/><stop offset=".405" stop-color="#c49d2c"/><stop offset=".559" stop-color="#d4b35c"/><stop offset=".766" stop-color="#e7cd97"/><stop offset=".919" stop-color="#f3debb"/><stop offset="1" stop-color="#f8e4c9"/></linearGradient><path fill="#B2B2B2" d="M106.217 50.3c-.306.83-1.305 1.245-2.993 1.245-.528 0-1.185-.286-1.971-.859-.72-.485-1.175-1.058-1.362-1.716-.121-.43-.198-1.333-.232-2.707 0-.601-.06-1.087-.179-1.459l-2.175-.129c-.495 2.233-.905 3.735-1.228 4.508-.615 1.403-1.442 2.169-2.483 2.299-1.04.127-1.808.421-2.302.88-.172 1.145-.23 1.832-.18 2.061-.119.287-.273 1.217-.461 2.791-.222 1.804-.426 3.092-.613 3.865-.325 1.346-.733 2.104-1.228 2.276-.138-.286-.206-.543-.206-.772 0-.401.095-1.545.282-3.435.647-6.442.973-10.692.973-12.753-.257-.429-.385-.817-.385-1.159a1.4 1.4 0 0 1 .051-.387l-.127-2.104h.818l.332-.043.23.43.691-.387c.188.487.417.73.69.73.052 0 1.117-.314 3.198-.944-.085-.172-.247-.773-.485-1.804-.153-.744-.418-1.244-.793-1.502-.648 0-1.987.229-4.019.687-.289.086-.716.386-1.278.902-.563.515-.921.944-1.075 1.288-.494-.286-.742-.816-.742-1.589 0-.487.099-1.094.294-1.824.197-.73.414-1.095.652-1.095.103 0 .249.071.437.214.442-.057.938-.2 1.483-.43a52.465 52.465 0 0 1 1.434-.557c.716-.201 1.765-.373 3.146-.516 1.451-.172 2.509-.343 3.175-.516 0-.372-.061-.801-.18-1.288-.154-.601-.248-1.017-.281-1.246l.768-.944c.409.085.81.157 1.202.214.46.144.779.53.949 1.16l-.336 1.717c.173.143.399.222.684.236.282.015.478.065.579.151l1.151-.171c.358-.058 1.792.106 4.299.493 2.508.387 3.872.637 4.094.751.376.229.64.716.793 1.46-1.144 1.374-2.081 2.061-2.814 2.061-.597 0-1.483-.221-2.661-.665-1.177-.444-2.056-.665-2.636-.665-.152 0-.306.013-.46.042-.068.201-.308.63-.717 1.289-.357.544-.537.931-.537 1.16.955.172 2.175.472 3.66.902.306.143.768.3 1.38.472.358-.372.547-.558.563-.558.205 0 .452.072.742.215.102.028.272.072.512.128.563.201.878.859.947 1.976-.17.458-.316 1.109-.436 1.954s-.171 1.539-.154 2.083l.231 6.011c-.052 1.031-.043 2.563.025 4.595a90.483 90.483 0 0 1-.127 2.189c-.052.887-.249 1.503-.589 1.846a4.354 4.354 0 0 1-.666-1.761c-.223-1.346-.341-3.42-.358-6.226-.017-2.949-.103-5.023-.256-6.226 0-.773-.034-1.689-.103-2.749-2.217-1.059-3.974-1.589-5.271-1.589l-.563.086c-.102.257-.152.615-.152 1.074 0 .201.008.458.025.773.256.83 1.083 1.33 2.481 1.502 1.484.172 2.396.588 2.737 1.247l.106.812zm-14.986-.601l.025.387c1.024-.258 1.818-.674 2.38-1.246.666-.63 1.229-1.646 1.689-3.049-.171-.601-.358-.901-.563-.901-.051 0-.41.143-1.074.43-.512.17-1.023.358-1.536.558-.443.287-.707.973-.793 2.061a138.418 138.418 0 0 1-.128 1.76zm6.499 2.776c.137 0 .338-.028.602-.085.265-.058.465-.086.602-.086.392 0 .98.086 1.766.258.784.173 1.364.259 1.739.259.495 0 .913-.129 1.254-.388l1.279 1.811c-.016.085-.118 1.149-.306 3.189a24.348 24.348 0 0 1-.539 3.273c-.784.257-1.193.387-1.229.387-.033 0-1.278-.13-3.734-.387.17.028-.145.043-.947.043-1.483 0-2.337.014-2.559.042-.988.086-1.824.387-2.507.901-.273-.143-.529-.493-.768-1.053-.239-.558-.358-1.068-.358-1.528 0-.402.094-.746.281-1.034.256-.431.4-.718.435-.863v-.946c0-.144.018-.352.052-.626a5.61 5.61 0 0 0 .051-.581c0-.143-.046-.366-.141-.667-.093-.3-.141-.509-.141-.624 0-.145.23-.417.691-.82l.383.174c1.433-.491 2.499-.734 3.199-.734.103 0 .251.014.446.043.198.028.347.042.449.042zm-3.299 3.193l-.128 2.146c.085.115.212.172.384.172.153 0 .516-.071 1.087-.214s.968-.229 1.189-.258a30.785 30.785 0 0 1 2.227-.086c1.621 0 2.798.186 3.53.558l.333-.558-.128-1.76c-1.363-.372-2.865-.559-4.503-.559-1.928 0-3.259.187-3.991.559zm1.944-16.446c.103.287.175.809.218 1.567.042.757.089 1.209.141 1.353l2.968-.215c.375-.573.563-1.546.563-2.92-.085-.201-.204-.3-.358-.3a.883.883 0 0 0-.307.086.895.895 0 0 1-.307.086c-.103 0-.257-.015-.46-.044a3.566 3.566 0 0 0-.462-.042c-.649-.001-1.313.143-1.996.429zM120.739 49.742c-.016.115-.08.35-.191.708-.11.358-.158.665-.141.923l-.23.473.103 3.006c.018.516-.025 2.663-.128 6.441a4.763 4.763 0 0 0-.512.3c-.256 0-.622-.071-1.1-.214-.479-.143-.836-.215-1.075-.215-.205 0-.524.022-.96.065-.435.043-.755.064-.96.064-1.057 0-1.798.058-2.226.171a3.094 3.094 0 0 0-1.97 1.503c-.342-.172-.571-.458-.691-.859-.067-.287-.103-.773-.103-1.46 0-.315.076-.901.231-1.76.17-1.03.272-1.631.307-1.804.017-.944.118-2.433.307-4.466-.204-.744-.307-1.575-.307-2.491 0-.716.179-1.102.538-1.158.307.257.485.385.536.385.461 0 1.147-.128 2.06-.385.914-.258 1.599-.388 2.061-.388.136 0 .337.044.601.13.265.086.465.128.603.128a.878.878 0 0 0 .255-.064.885.885 0 0 1 .255-.064l.385.128c.172 0 .418-.172.742-.516.613.115 1.15.589 1.61 1.419zm-7.881 2.104c-.239 1.518-.348 3.149-.332 4.896v.687c.137-.028.622-.158 1.459-.387.597-.143 1.091-.214 1.483-.214 1.638 0 2.704.143 3.198.43.137-.315.196-.703.18-1.16l-.23-4.509a3.96 3.96 0 0 0-1.202-.344c-.512-.057-.853-.114-1.024-.171-.256.114-.869.186-1.842.215-.785.027-1.348.213-1.69.557zm15.378-17.448c.257 0 .602.243 1.037.73.434.489.737.918.907 1.292a2.27 2.27 0 0 0-.665 1.633V39.6c.052 1.146.077 1.763.077 1.849 0 .804-.06 1.389-.18 1.764-.118.458-.375.89-.767 1.29a1.609 1.609 0 0 1-.41.429c-.271 0-.699.101-1.279.301-.682-.229-2.106-.344-4.272-.344-.921 0-1.305-.014-1.151-.043l-3.071.558a4.966 4.966 0 0 1-.435-.129c-.511.143-1.015.271-1.51.386-.631.2-1.1.531-1.407.989-.357-.2-.571-.616-.639-1.246-.053-.544-.104-1.102-.155-1.676.172-1.577.334-3.499.487-5.763a21.613 21.613 0 0 1-.537-2.106c.188-.315.443-.775.768-1.375l.818-.086.665.944c2.524-.487 4.777-.729 6.755-.729h2.737c.137.028.385.085.743.171.358.086.605.128.742.128.033 0 .141-.086.319-.256.18-.172.321-.258.423-.258zm-12.229 7.529l.357.042c3.445-.515 5.561-.773 6.346-.773.171 0 1.544.144 4.12.43.135-.029.349-.086.639-.172l.537-.386c.018-.144.026-.272.026-.387 0-.687-.086-1.545-.256-2.576-.802-.516-2.371-.773-4.708-.773-3.685 0-5.826.257-6.422.773-.137.114-.257.35-.358.708-.103.358-.171.866-.204 1.524a41.442 41.442 0 0 0-.077 1.59zm16.17 6.397c.188.172.479.343.87.516l.332.515c0 .257-.076.645-.229 1.16-.154.515-.23.916-.23 1.202 0 1.689.076 3.536.23 5.54-.035.114-.052.235-.052.364s-.016.372-.051.73c-.034.358-.042.608-.025.751l.076 1.203c-.136.515-.426.831-.869.945-.546.115-.837.186-.87.214-1.996-.371-3.139-.558-3.429-.558-1.16 0-1.979.129-2.456.386-.103.058-.47.315-1.101.773-.409.315-.803.472-1.177.472-.393-.487-.588-1.616-.588-3.392 0 .315.059-.229.179-1.632.034-1.231.162-3.049.384-5.454a4.046 4.046 0 0 0-.154-.559 2.167 2.167 0 0 1-.127-.644c0-.085.016-.172.051-.258l-.103-.686c0-.773.103-1.16.307-1.16.068 0 .146.028.23.086 1.024.085 1.562.13 1.612.13.119 0 .75-.058 1.894-.172.239-.028.545-.028.921 0 .478.029.776.042.896.042h1.74c.153-.115.426-.164.819-.15.391.016.698-.106.92-.364zm-7.599 3.751c-.171.802-.257 2.219-.257 4.25v1.246l.052.042c.223 0 .366.015.436.043.443-.229 1.159-.408 2.148-.537s1.715-.15 2.175-.064l2.354.515.332-.902c-.084-.486-.136-1.302-.152-2.447-.018-1.146-.087-1.99-.205-2.534l-1.767-.128c-2.745.001-4.451.172-5.116.516zM141.045 33.153v.171c.018.372-.188.794-.614 1.267-.427.472-.64.995-.64 1.567-.204 0 .12-.015.973-.043a14.787 14.787 0 0 1 1.612 0c.63.057 1.04.187 1.229.387v.901c-.444.057-.896.114-1.357.171-.613.143-1.023.344-1.228.601v.086c0 .171.061.372.18.601.119.229.18.444.18.645 0 .057-.07.385-.206.987-.17-.086-.375-.115-.614-.086l-.845-1.159-.46-.129-.23-.602c-.597.057-1.433.359-2.507.903-1.144.572-1.979.901-2.508.987l-.103-.387c.12-1.288.375-2.162.768-2.619.154-.144.708-.472 1.664-.987.392-.2.856-.601 1.394-1.203a4.926 4.926 0 0 0 1.112-2.061l-.05-.387.229-.472a.629.629 0 0 1 .308-.085c.323.001.895.315 1.713.946zm8.879-.258c-.051.172-.222.501-.512.988-.205.4-.307.773-.307 1.115.392.115 1.015.143 1.868.086l1.918-.086c1.706-.028 2.9.13 3.583.474l.102.729-.204.687c-.938.458-1.646.874-2.125 1.246-1.688-.773-3.053-1.16-4.092-1.16-.188 0-.479.073-.871.216-.272.028-.665.143-1.177.344-.153.114-.397.479-.729 1.092-.333.613-.729.978-1.189 1.091l-.205 1.153a.67.67 0 0 0 .499.213c.195 0 .337.028.422.086 1.586 0 2.67.043 3.251.129 1.397.229 2.438.758 3.12 1.589l.052.472-.103.472-.41.473c-.118.058-.255.1-.408.129l-3.992-.687c-1.006-.172-1.586-.258-1.74-.258l-1.355.276c-.597.121-1.663.182-3.198.182-.308 0-1.015.172-2.124.516-.563.057-1.135.115-1.715.171-.784.115-1.274.387-1.471.816-.196.429-.38 1.33-.55 2.704-.154 1.174-.478 2.062-.973 2.663-.221-.601-.332-1.445-.332-2.533 0-.315.067-1.389.204-3.221.017-.229-.051-.53-.204-.902v-.215c-.035-1.321.511-1.98 1.637-1.98.103.058.214.115.333.172l.256 1.162c2.013-.918 4.229-1.724 6.653-2.412-.138-.229-.29-.646-.462-1.249l.308-.731h.896c.137-.573.588-1.231 1.355-1.976l1.688-1.46.026-.302a5.62 5.62 0 0 0 .179-.729l-.486-.902c.222-.859.571-1.289 1.049-1.289.154 0 .424.079.807.236.383.16.625.295.728.41zm1.055 12.31c.463.172.914.358 1.357.558.563.317.828.833.793 1.55v.3c-.204.374-.349.861-.434 1.464-.12.889-.196 1.389-.231 1.504-.187.804-.75 1.564-1.69 2.28-.188.202-.513.417-.972.646h-4.711c-3.413 0-5.283.339-5.607 1.019 0 .828.051 1.342.153 1.543 2.562-.772 4.823-1.16 6.785-1.16.273 0 .695.021 1.267.065a19.46 19.46 0 0 0 1.295.064c.902 0 1.697-.258 2.381-.773l1.434.859c.563.373.895.946.997 1.721l-.46 1.378c0 .172.017.444.051.816.033.375.052.661.052.861 0 .544-.282 1.22-.845 2.022-.563.803-1.023 1.217-1.382 1.246-1.111-.544-2.476-.815-4.098-.815h-2.022c-1.143 0-2.594.271-4.352.815-.463.115-.924.215-1.384.301a2.165 2.165 0 0 0-1.254.988c-.376-.43-.656-1.117-.845-2.062.154-.487.308-1.231.461-2.235 0-.201.077-2.206.23-6.016.103-2.407.153-4.398.153-5.974 0-.143-.047-.322-.141-.537s-.141-.379-.141-.494c0-.717.375-1.076 1.125-1.076l.691.172c1.589-.573 3.738-.858 6.452-.858.086 0 .418-.029.998-.086.443-.028.768-.028.975 0l1.944.387.975-.473zm-11.495 13.404l-.23 2.026c.75-.229 1.894-.56 3.429-.989.716-.143 2.012-.213 3.89-.213.102 0 .358-.029.767-.086.308-.029.556-.029.743 0l2.66.429.231-.044c.017-.171.025-.344.025-.517 0-.52-.052-.794-.154-.822l-2.763-.607c-.29-.057-.682-.07-1.178-.042-.751.057-1.143.086-1.177.086-1.722.029-2.771.058-3.147.086-1.193.115-2.226.347-3.096.693zm.009-7.221l.229.172c3.156-.802 5.271-1.203 6.347-1.203.29 0 1.543.143 3.761.43.205.028.513-.029.921-.172 0-.798-.077-1.323-.229-1.579-.768-.426-2.286-.638-4.555-.638-.154 0-.375-.022-.665-.065a4.902 4.902 0 0 0-.64-.065c-.478 0-1.117.072-1.92.214-.921.198-1.543.297-1.867.297-.188 0-.444.029-.768.086-.256.114-.426.264-.512.448-.086.186-.128.59-.128 1.216.001-.201.009.085.026.859zm10.917-13.569c.119.114.469.301 1.049.561.461.201.768.489.922.863-.889 1.037-1.681 1.553-2.381 1.553l-.511-.085v-.129c0-.145.059-.361.179-.647.188-.432.281-.663.281-.691-.017-.316.043-.748.18-1.296.051-.087.144-.129.281-.129zm3.582 5.639c.614-1.288 1.134-1.933 1.561-1.933.324 0 .538.043.641.129.118.171.212.343.281.515l-.154 1.718.256 4.122c.018.143-.029.388-.141.731-.111.344-.175.572-.191.687l-.691.987c-.273-.401-.461-1.302-.563-2.705-.103-1.575-.204-2.505-.306-2.792-.188-.2-.444-.501-.768-.901l.075-.558zM159.322 36.016c.119.372.342.557.666.557.033 0 1.188-.185 3.463-.557-.052 0 .238.028.869.086.632.057 1.058.114 1.279.171.393.143.769.458 1.127.945-.104.916-.401 1.46-.897 1.632-.374.086-.75.185-1.125.3-.341-.058-.853.028-1.534.258-.206.343-.308.901-.308 1.675.018.057.025.378.025.966 0 .586.095 1.066.282 1.438 1.073 0 1.833.329 2.277.988.016.115.024.243.024.386 0 .658-.188 1.074-.563 1.246-.17.086-.52.128-1.049.128-.71 0-1.066.858-1.066 2.576 0 .315.017.674.051 1.075.768.201 1.526.386 2.277.558 1.108.314 1.663.916 1.663 1.804 0 .515-.136.902-.408 1.159-.273.258-.563.358-.87.301-1.689-.287-2.645-.43-2.866-.43-1.314 0-2.926.673-4.837 2.019l-.28-.387v-.687c.118-.544.332-1.203.64-1.976.341-.115.93-.43 1.766-.945.732-.458 1.338-.716 1.816-.773.085-.286.128-.929.128-1.931s-.049-1.59-.146-1.762h-.23c-.818-.029-1.689.302-2.609.989-.393-.057-.589-.487-.589-1.288 0-.458.196-1.217.589-2.276.341 0 .831-.122 1.471-.366.641-.242 1.097-.378 1.369-.407.051-.229.095-.472.128-.73 0-1.375-.195-2.462-.589-3.264-.084 0-.208-.013-.37-.042a2.397 2.397 0 0 0-.346-.043c-.307 0-.605.193-.896.58-.29.385-.528.58-.717.58h-.102c-.256-.688-.384-1.188-.384-1.503 0-.143.017-.286.051-.429a2.271 2.271 0 0 1-.076-.558c0-.229.084-.551.255-.966.17-.416.273-.709.307-.881l.334-.216zm16.086-1.547c.461 0 .879.029 1.254.086.153.029.452.115.896.258.375.143.656.214.844.214l1.05-.214.716.773.205.644c-.324 1.374-.487 2.319-.487 2.834 0 .544.01 1.245.026 2.104.052 1.145.076 1.847.076 2.104.018.716-.008 1.689-.076 2.92-.085 1.374-.195 2.319-.332 2.834l-.461.128c-.256 0-.641-.013-1.15-.042a22.456 22.456 0 0 0-1.127-.044c-.239 0-.58-.021-1.022-.064a11.308 11.308 0 0 0-.999-.064c-.222 0-.434.058-.639.172l-.052 1.501c.086.287.845.401 2.277.344 1.125-.028 2.004.43 2.635 1.374l-.051 1.375c-.614.458-1.398.673-2.354.644l-1.971-.086c-.085-.057-.153-.085-.204-.085-.309 0-.461.529-.461 1.589 0 .343.018.687.051 1.03.137.115.264.172.384.172.17 0 .423-.022.755-.065.333-.043.584-.065.755-.065 1.825 0 4.034.707 6.627 2.115l-1.022 2.281-1.331 1.116a475.266 475.266 0 0 0-3.148-1.717c-1.108-.573-2.216-.859-3.324-.859-1.28 0-2.44.172-3.481.516a247.8 247.8 0 0 0-1.561.257c-.375.115-1.022.487-1.944 1.116-.852.601-1.492 1.102-1.919 1.503-.137-.2-.239-.609-.308-1.223-.067-.616-.136-.966-.204-1.052.068-.859.299-1.619.691-2.277h.128c.222.028.502-.128.844-.472l.537.344c.683-.487 1.688-.775 3.02-.861 1.519-.143 2.56-.33 3.121-.559l.129-.472-.129-1.934c-.17-.258-.383-.387-.639-.387-.308-.029-.503-.072-.589-.129-.528.144-1.058.272-1.586.387-.614.2-1.093.588-1.433 1.161l-.538-.388c-.102-.229-.153-.616-.153-1.16v-.386l.614-1.632c.988-.544 2.447-.988 4.375-1.332.017-.515.025-.903.025-1.16 0-.658-.238-.989-.716-.989.067 0-.316.1-1.151.301-.495.117-.997.246-1.51.389s-.981.43-1.407.859a2.509 2.509 0 0 1-.358-.945c-.103-.631-.171-.989-.205-1.075.12-.63.214-1.432.282-2.405.103-1.49.162-2.307.179-2.45a26.483 26.483 0 0 1-.103-.774l.23-3.35c-.017-.115-.111-.473-.281-1.076-.12-.515-.181-.859-.181-1.031s.064-.529.193-1.074c.128-.544.234-.817.319-.817.41 0 1.697-.185 3.863-.557.684-.115 1.852-.173 3.506-.173zm-6.755 11.523l.153.43c.324 0 .806-.094 1.446-.28.64-.186 1.096-.28 1.368-.28l.691.216.307-.257.051-.73-.051-1.546c-.102-.171-.427-.257-.972-.257-.188 0-.461.014-.819.042-.358.029-.623.043-.793.043-.58 0-.955.193-1.126.579-.169.387-.255 1.067-.255 2.04zm.231-5.411c.034.085.076.143.128.171a.55.55 0 0 0 .256.043c.768 0 1.825-.171 3.172-.515l.103-.687c-.016-.057-.103-.314-.255-.772-.138-.344-.205-.617-.205-.817 0-.085.017-.171.052-.257l-.563-.343c-.188.057-.46.114-.819.171-.716.086-1.15.172-1.305.258-.461.257-.691.817-.691 1.676-.002.284.041.642.127 1.072zm5.193 5.067c.513.115 1.322.201 2.432.258 1.058.058 1.867.157 2.431.3l.102-.601-.102-1.889c-.307-.516-.939-.773-1.894-.773h-.614c-.103 0-.238.022-.41.064a1.745 1.745 0 0 1-.383.065c-.648.057-1.033.143-1.151.257-.29.201-.436.744-.436 1.632 0 .201.009.43.025.687zm.334-8.086c-.103.085-.163.344-.18.773-.017.573-.025.872-.025.901l.077.773c.271.057 1.014.157 2.226.3.904.115 1.638.301 2.2.559l-.025-2.319c-.409-.602-1.331-.901-2.763-.901a2.59 2.59 0 0 1-.475-.065 2.778 2.778 0 0 0-.473-.065l-.562.044z"/><path d="M105.211 49.323c-.307.83-1.305 1.245-2.993 1.245-.529 0-1.187-.286-1.971-.859-.721-.486-1.175-1.059-1.362-1.717-.122-.43-.199-1.332-.233-2.706 0-.601-.059-1.087-.179-1.459l-2.175-.129c-.494 2.232-.904 3.735-1.228 4.509-.614 1.402-1.441 2.168-2.482 2.297s-1.809.422-2.303.88c-.171 1.145-.229 1.833-.179 2.062-.12.286-.273 1.217-.461 2.791-.223 1.803-.427 3.092-.615 3.864-.323 1.346-.732 2.104-1.227 2.276-.137-.286-.205-.544-.205-.773 0-.4.095-1.545.282-3.435.647-6.441.971-10.692.971-12.753-.255-.43-.384-.816-.384-1.159 0-.143.018-.272.052-.386l-.128-2.104h.819l.332-.043.23.43.69-.387c.188.487.418.73.691.73.051 0 1.117-.315 3.197-.945-.084-.172-.246-.772-.485-1.804-.153-.744-.417-1.245-.792-1.502-.65 0-1.987.229-4.019.687-.29.086-.716.387-1.278.902-.563.515-.922.945-1.075 1.288-.495-.286-.742-.815-.742-1.589 0-.486.099-1.094.294-1.824.196-.73.413-1.095.652-1.095.103 0 .247.072.436.215.443-.057.938-.201 1.484-.43a55.997 55.997 0 0 1 1.432-.558c.718-.201 1.767-.372 3.147-.515 1.451-.172 2.508-.344 3.173-.516 0-.372-.06-.801-.18-1.288-.152-.602-.246-1.016-.28-1.246l.768-.945c.41.086.81.158 1.202.215.461.143.779.53.948 1.16l-.334 1.717c.173.143.399.222.683.237.283.014.479.064.58.15l1.15-.172c.359-.057 1.792.107 4.299.494 2.508.387 3.873.637 4.094.751.376.229.641.716.794 1.46-1.144 1.375-2.081 2.061-2.814 2.061-.597 0-1.484-.222-2.661-.666-1.177-.443-2.056-.666-2.636-.666-.152 0-.307.014-.461.043-.067.2-.307.629-.717 1.288-.357.544-.536.931-.536 1.16.955.171 2.175.472 3.658.901.308.143.769.301 1.382.473.358-.372.546-.559.563-.559.205 0 .451.072.741.215.103.029.273.072.512.129.563.201.879.859.946 1.976-.17.458-.314 1.109-.434 1.953-.12.845-.171 1.539-.154 2.083l.23 6.012c-.051 1.031-.043 2.562.026 4.595a85.814 85.814 0 0 1-.129 2.189c-.05.888-.247 1.503-.588 1.847a4.353 4.353 0 0 1-.665-1.761c-.223-1.345-.342-3.42-.359-6.226-.016-2.949-.103-5.024-.255-6.227 0-.772-.035-1.689-.103-2.748-2.217-1.059-3.975-1.588-5.271-1.588l-.563.085c-.103.258-.152.615-.152 1.073 0 .201.008.458.024.773.256.83 1.083 1.331 2.481 1.503 1.484.171 2.397.587 2.738 1.245l.107.816zm-14.985-.601l.025.387c1.024-.258 1.816-.673 2.379-1.246.665-.63 1.229-1.646 1.689-3.049-.171-.601-.358-.902-.563-.902-.051 0-.409.144-1.073.43-.513.171-1.024.357-1.536.558-.443.287-.707.974-.794 2.062a161.278 161.278 0 0 1-.127 1.76zm6.499 2.777c.136 0 .337-.029.602-.086.265-.057.465-.086.601-.086.393 0 .981.086 1.766.258.785.174 1.365.26 1.74.26.495 0 .912-.129 1.254-.389l1.279 1.811c-.018.085-.119 1.148-.308 3.188a24.33 24.33 0 0 1-.537 3.274c-.785.258-1.193.387-1.229.387-.033 0-1.279-.129-3.735-.387.171.029-.145.043-.946.043-1.484 0-2.337.014-2.56.042-.988.086-1.825.387-2.507.902-.273-.144-.528-.494-.767-1.054-.24-.559-.36-1.069-.36-1.528 0-.403.095-.746.282-1.035.257-.431.401-.717.436-.862v-.947c0-.145.018-.352.051-.626a5.37 5.37 0 0 0 .051-.582c0-.143-.046-.366-.141-.667-.094-.3-.14-.51-.14-.624 0-.145.229-.417.689-.819l.384.174c1.433-.491 2.5-.734 3.199-.734.102 0 .252.015.447.043.198.029.346.044.449.044zm-3.3 3.191l-.13 2.147c.086.115.214.171.385.171.154 0 .517-.072 1.087-.215.572-.143.968-.229 1.19-.257a30.78 30.78 0 0 1 2.226-.086c1.621 0 2.799.186 3.531.558l.332-.558-.127-1.76c-1.365-.372-2.866-.559-4.503-.559-1.928.001-3.259.187-3.991.559zm1.943-16.446c.102.286.175.809.218 1.567.043.759.09 1.21.141 1.353l2.969-.215c.375-.573.563-1.546.563-2.92-.085-.2-.205-.301-.358-.301a.907.907 0 0 0-.307.086.876.876 0 0 1-.308.086c-.103 0-.256-.014-.46-.043a3.792 3.792 0 0 0-.461-.043c-.649 0-1.314.144-1.997.43z"/><path fill="#A22041" d="M119.733 48.765c-.017.114-.08.351-.191.709s-.158.665-.141.922l-.231.473.104 3.006c.017.515-.026 2.662-.129 6.44-.17.086-.341.187-.511.301-.257 0-.623-.072-1.102-.215-.478-.142-.835-.214-1.073-.214-.206 0-.525.022-.96.064-.435.043-.755.064-.96.064-1.058 0-1.8.058-2.226.172-.87.229-1.526.73-1.97 1.503-.342-.172-.571-.458-.691-.859-.067-.286-.103-.773-.103-1.46 0-.315.076-.901.231-1.761.17-1.031.272-1.632.306-1.803.017-.944.119-2.433.307-4.466-.204-.745-.307-1.575-.307-2.491 0-.716.179-1.102.538-1.159.307.258.485.386.536.386.461 0 1.148-.128 2.061-.386s1.599-.386 2.06-.386c.137 0 .338.042.602.128.265.086.465.129.601.129.052 0 .138-.021.257-.064s.204-.064.255-.064l.385.129c.171 0 .418-.172.741-.515.614.114 1.151.586 1.611 1.417zm-7.88 2.104a29.53 29.53 0 0 0-.332 4.895v.687a48.56 48.56 0 0 0 1.459-.387c.596-.143 1.091-.214 1.483-.214 1.638 0 2.703.143 3.198.429.137-.315.196-.702.18-1.159l-.23-4.51a3.937 3.937 0 0 0-1.203-.343c-.512-.058-.853-.115-1.023-.172-.256.115-.87.187-1.842.215-.786.029-1.349.215-1.69.559zM127.23 33.42c.256 0 .601.244 1.037.73.434.488.737.917.907 1.292a2.27 2.27 0 0 0-.665 1.633v1.548c.051 1.147.076 1.762.076 1.848 0 .804-.059 1.391-.179 1.765-.119.458-.375.889-.768 1.29a1.604 1.604 0 0 1-.409.43c-.273 0-.699.1-1.279.3-.684-.229-2.107-.344-4.273-.344-.921 0-1.305-.014-1.151-.042l-3.07.558a5.64 5.64 0 0 1-.435-.129c-.512.144-1.015.271-1.51.386-.632.2-1.101.529-1.407.988-.357-.201-.571-.616-.64-1.245-.052-.544-.103-1.103-.154-1.677.171-1.576.334-3.498.487-5.763a21.802 21.802 0 0 1-.538-2.105c.188-.315.444-.775.767-1.375l.819-.086.666.945c2.524-.487 4.775-.73 6.755-.73h2.737c.137.029.385.086.742.171.359.086.606.129.741.129.035 0 .143-.086.321-.257s.321-.26.423-.26zM115 40.949l.357.043c3.446-.516 5.561-.773 6.347-.773.17 0 1.544.143 4.119.43a9.38 9.38 0 0 0 .64-.172l.537-.386c.017-.143.026-.272.026-.386 0-.688-.086-1.546-.257-2.576-.802-.516-2.37-.773-4.708-.773-3.685 0-5.825.258-6.422.773-.136.114-.256.351-.358.708s-.17.866-.205 1.524a48.37 48.37 0 0 0-.076 1.588zm16.171 6.399c.188.171.478.343.87.515l.332.515c0 .258-.076.644-.229 1.16-.154.515-.23.916-.23 1.202 0 1.689.076 3.536.23 5.539-.035.115-.052.236-.052.365s-.017.372-.051.73c-.034.357-.043.608-.025.751l.076 1.203c-.137.515-.426.83-.87.945-.545.114-.836.185-.87.214-1.995-.372-3.138-.558-3.428-.558-1.16 0-1.979.129-2.456.386-.103.058-.47.315-1.101.773-.409.314-.803.472-1.177.472-.394-.487-.589-1.617-.589-3.392 0 .315.06-.229.179-1.632.035-1.231.163-3.049.383-5.454a3.821 3.821 0 0 0-.152-.558 2.136 2.136 0 0 1-.128-.645c0-.085.017-.171.052-.257l-.103-.687c0-.773.103-1.16.307-1.16.068 0 .146.028.23.086a96.38 96.38 0 0 0 1.612.129c.119 0 .75-.058 1.894-.172.238-.029.545-.029.921 0 .478.029.776.043.896.043h1.739c.154-.114.427-.165.82-.15.391.016.697-.106.92-.363zm-7.601 3.749c-.169.802-.255 2.219-.255 4.251v1.246l.052.042c.222 0 .366.014.435.043.443-.229 1.16-.408 2.149-.537s1.714-.15 2.175-.064l2.354.516.333-.902c-.085-.486-.136-1.302-.153-2.447s-.086-1.99-.205-2.534l-1.766-.129c-2.747 0-4.453.172-5.119.515z"/><path d="M140.039 32.175v.171c.018.373-.188.795-.615 1.267-.426.473-.64.995-.64 1.568-.204 0 .12-.015.974-.043a15.316 15.316 0 0 1 1.612 0c.63.058 1.04.187 1.229.387v.902c-.445.057-.897.115-1.357.172-.613.143-1.023.343-1.229.601v.086c0 .172.06.372.179.602.12.229.18.443.18.644 0 .058-.068.386-.205.987-.17-.086-.375-.114-.614-.086l-.844-1.159-.46-.129-.231-.601c-.596.057-1.433.358-2.507.901-1.143.572-1.978.902-2.508.987l-.103-.386c.12-1.288.376-2.161.768-2.619.155-.143.709-.472 1.664-.988.393-.2.857-.601 1.395-1.202a4.96 4.96 0 0 0 1.112-2.061l-.051-.386.229-.473a.626.626 0 0 1 .309-.086c.323-.001.895.314 1.713.944zm8.878-.257c-.051.171-.221.501-.511.987-.206.401-.309.773-.309 1.116.393.114 1.017.143 1.869.086.631-.029 1.271-.058 1.918-.086 1.706-.029 2.9.129 3.582.472l.103.73-.204.687c-.938.458-1.646.874-2.124 1.246-1.688-.773-3.054-1.16-4.094-1.16-.188 0-.478.072-.869.215-.273.029-.665.143-1.178.344-.152.115-.396.479-.729 1.093-.334.614-.73.979-1.19 1.091l-.205 1.152a.671.671 0 0 0 .5.213c.195 0 .336.029.422.086 1.586 0 2.668.042 3.249.128 1.398.229 2.439.759 3.122 1.589l.052.473-.103.473-.41.472a1.583 1.583 0 0 1-.409.129l-3.991-.688c-1.008-.171-1.586-.257-1.74-.257l-1.355.275c-.597.121-1.664.183-3.199.183-.307 0-1.015.172-2.123.515-.563.057-1.136.115-1.715.172-.785.114-1.274.386-1.472.816-.195.429-.379 1.331-.549 2.705-.155 1.174-.478 2.061-.974 2.662-.221-.601-.332-1.445-.332-2.534 0-.314.068-1.388.204-3.22.018-.229-.051-.53-.204-.902v-.214c-.034-1.321.511-1.98 1.638-1.98.102.057.213.114.331.171l.258 1.163c2.012-.917 4.229-1.723 6.651-2.411-.136-.229-.29-.646-.46-1.25l.308-.731h.895c.137-.573.589-1.231 1.356-1.975l1.688-1.46.026-.301c.05-.143.11-.386.179-.729l-.486-.902c.222-.858.571-1.288 1.049-1.288.153 0 .423.079.806.236.384.157.627.293.729.408zm1.056 12.31c.463.171.915.357 1.358.558.563.317.827.832.793 1.55v.3c-.204.374-.35.86-.435 1.463-.119.889-.197 1.391-.23 1.504-.187.804-.75 1.564-1.69 2.28-.188.203-.513.417-.973.646h-4.71c-3.413 0-5.283.34-5.608 1.02 0 .829.052 1.343.154 1.543 2.561-.773 4.823-1.159 6.785-1.159.272 0 .693.021 1.266.064a18.79 18.79 0 0 0 1.295.064c.903 0 1.697-.257 2.381-.773a679 679 0 0 0 1.434.859c.563.374.896.946.998 1.721l-.46 1.378c0 .172.016.444.051.816.033.374.05.661.05.861 0 .545-.281 1.22-.844 2.022-.563.803-1.023 1.218-1.382 1.247-1.111-.544-2.476-.816-4.099-.816h-2.021c-1.144 0-2.595.272-4.352.816-.463.115-.924.214-1.384.301-.546.172-.965.5-1.254.987-.376-.429-.657-1.116-.845-2.061.153-.487.307-1.231.461-2.235 0-.2.076-2.206.23-6.017.103-2.407.153-4.398.153-5.974 0-.143-.047-.322-.141-.537-.096-.215-.141-.379-.141-.494 0-.717.375-1.075 1.125-1.075l.691.171c1.589-.572 3.738-.858 6.451-.858.085 0 .419-.028.999-.085.443-.029.768-.029.974 0l1.945.386.975-.473zm-11.495 13.404l-.229 2.025c.75-.229 1.894-.559 3.428-.988.717-.144 2.013-.215 3.89-.215.103 0 .357-.028.768-.086.308-.028.555-.028.742 0l2.66.43.231-.043c.017-.172.025-.343.025-.518 0-.521-.051-.794-.153-.823l-2.764-.606c-.29-.057-.683-.071-1.177-.043-.751.058-1.144.086-1.177.086-1.724.028-2.772.057-3.147.085-1.195.118-2.227.349-3.097.696zm.008-7.221l.23.171c3.155-.801 5.271-1.202 6.347-1.202.289 0 1.542.143 3.761.429.204.029.512-.028.921-.172 0-.797-.077-1.324-.23-1.579-.768-.426-2.285-.639-4.554-.639-.155 0-.376-.021-.665-.064a4.853 4.853 0 0 0-.641-.064c-.478 0-1.118.072-1.919.213-.921.199-1.545.299-1.867.299-.188 0-.445.029-.768.086-.258.113-.428.263-.513.448-.085.186-.127.59-.127 1.216.001-.201.008.084.025.858zm10.918-13.57c.118.115.469.302 1.048.562.462.2.768.488.922.862-.888 1.036-1.681 1.553-2.38 1.553l-.512-.086v-.129c0-.145.06-.361.179-.647.188-.432.281-.662.281-.69-.016-.317.044-.749.181-1.295.051-.087.144-.13.281-.13zm3.582 5.64c.613-1.289 1.134-1.932 1.561-1.932.324 0 .537.042.64.128.119.172.213.344.28.515l-.152 1.718.255 4.123c.018.143-.029.386-.14.73a5.533 5.533 0 0 0-.192.687l-.69.988c-.273-.401-.461-1.303-.563-2.706-.103-1.574-.205-2.504-.307-2.791a18.032 18.032 0 0 1-.768-.902l.076-.558zM158.316 35.038c.119.372.341.559.665.559.034 0 1.188-.187 3.463-.559-.051 0 .239.029.869.086.632.058 1.058.115 1.28.171.392.144.767.458 1.126.945-.103.916-.4 1.46-.896 1.632-.374.086-.75.186-1.125.301-.341-.057-.854.028-1.535.257-.206.344-.308.902-.308 1.674.018.058.025.38.025.966 0 .587.095 1.067.282 1.439 1.074 0 1.834.329 2.277.987.017.115.025.244.025.387 0 .658-.188 1.073-.563 1.245-.169.086-.521.129-1.048.129-.711 0-1.067.859-1.067 2.577 0 .314.018.672.052 1.073.768.201 1.526.387 2.277.558 1.108.315 1.662.916 1.662 1.804 0 .515-.136.901-.408 1.159-.273.258-.563.358-.869.301-1.69-.287-2.646-.43-2.866-.43-1.314 0-2.926.673-4.837 2.019l-.281-.386v-.688c.119-.544.333-1.203.64-1.975.342-.115.931-.43 1.766-.945.733-.458 1.338-.716 1.815-.772.086-.286.13-.93.13-1.932s-.049-1.589-.146-1.761h-.23c-.818-.028-1.689.301-2.609.988-.393-.057-.59-.487-.59-1.288 0-.458.197-1.216.59-2.276.34 0 .831-.121 1.471-.365.64-.243 1.095-.379 1.369-.408.051-.229.095-.473.127-.73 0-1.375-.195-2.462-.589-3.264-.084 0-.207-.014-.37-.042a2.25 2.25 0 0 0-.345-.043c-.308 0-.606.193-.896.58-.29.387-.529.58-.718.58h-.102c-.256-.687-.384-1.188-.384-1.503 0-.143.017-.286.052-.429a2.218 2.218 0 0 1-.076-.558c0-.229.084-.551.255-.966.17-.416.273-.709.307-.88l.333-.217zm16.086-1.546c.461 0 .878.029 1.253.086.154.029.452.114.896.257.375.144.656.215.844.215l1.05-.215.716.773.205.644c-.325 1.374-.487 2.319-.487 2.834 0 .544.009 1.246.026 2.104.051 1.145.076 1.846.076 2.104.018.716-.008 1.689-.076 2.919-.085 1.374-.196 2.319-.333 2.834l-.461.129c-.255 0-.64-.015-1.151-.043a23.258 23.258 0 0 0-1.126-.043c-.238 0-.579-.021-1.022-.064a11.269 11.269 0 0 0-.998-.064 1.29 1.29 0 0 0-.639.171l-.053 1.502c.085.287.845.401 2.278.344 1.125-.029 2.004.43 2.635 1.375l-.051 1.374c-.615.458-1.399.672-2.354.644l-1.972-.086c-.085-.057-.153-.086-.203-.086-.309 0-.461.53-.461 1.589 0 .343.017.686.051 1.03.136.114.264.172.384.172.17 0 .421-.021.755-.064.332-.043.584-.064.755-.064 1.825 0 4.034.705 6.627 2.115l-1.023 2.28-1.33 1.116a475.266 475.266 0 0 0-3.148-1.717c-1.108-.573-2.218-.859-3.326-.859-1.278 0-2.438.172-3.479.515-.357.057-.879.143-1.561.258-.375.114-1.023.487-1.945 1.116-.853.602-1.491 1.103-1.918 1.503-.137-.2-.239-.608-.308-1.224-.067-.615-.137-.965-.204-1.051.067-.859.299-1.618.69-2.276h.128c.222.028.503-.129.844-.473l.538.344c.682-.486 1.688-.774 3.02-.861 1.519-.143 2.559-.328 3.121-.557l.128-.473-.128-1.935c-.171-.258-.384-.386-.64-.386-.307-.029-.502-.072-.588-.129a31.56 31.56 0 0 1-1.587.386 2.55 2.55 0 0 0-1.433 1.161l-.538-.388c-.103-.229-.152-.616-.152-1.159v-.386l.613-1.632c.989-.544 2.447-.99 4.376-1.333.017-.515.025-.901.025-1.159 0-.658-.239-.989-.717-.989.068 0-.315.1-1.151.3-.494.116-.998.245-1.509.388-.513.143-.981.429-1.407.858a2.522 2.522 0 0 1-.36-.944c-.102-.632-.169-.99-.204-1.076.12-.63.214-1.432.282-2.405.102-1.49.163-2.306.18-2.449a23.091 23.091 0 0 1-.103-.774l.229-3.35c-.017-.114-.111-.472-.281-1.075-.119-.515-.18-.859-.18-1.03 0-.172.063-.529.192-1.076.129-.544.234-.815.32-.815.409 0 1.697-.187 3.863-.558.684-.115 1.852-.172 3.507-.172zm-6.756 11.522l.154.43c.324 0 .806-.093 1.445-.279s1.096-.279 1.369-.279l.69.215.307-.258.052-.729-.052-1.546c-.103-.172-.426-.258-.973-.258-.188 0-.46.014-.818.043s-.622.043-.792.043c-.58 0-.955.193-1.127.58-.169.385-.255 1.065-.255 2.038zm.231-5.41c.034.086.077.143.128.172s.137.043.257.043c.768 0 1.824-.172 3.172-.516l.103-.686a78.141 78.141 0 0 0-.256-.773c-.137-.343-.204-.616-.204-.815 0-.086.017-.172.051-.258l-.563-.344a6.557 6.557 0 0 1-.818.172c-.716.086-1.151.172-1.305.257-.461.258-.691.816-.691 1.675-.002.285.041.643.126 1.073zm5.194 5.067c.512.114 1.322.2 2.432.257 1.058.057 1.866.158 2.43.301l.103-.602-.103-1.889c-.307-.516-.938-.773-1.894-.773h-.613c-.103 0-.239.022-.41.064a1.738 1.738 0 0 1-.383.064c-.648.058-1.033.144-1.152.258-.29.2-.435.745-.435 1.632 0 .202.009.43.025.688zm.333-8.088c-.103.086-.162.344-.179.773-.019.573-.026.874-.026.902l.078.772c.271.058 1.014.158 2.226.301.903.114 1.638.3 2.2.558l-.025-2.318c-.41-.601-1.331-.901-2.765-.901-.102 0-.26-.022-.474-.064a2.643 2.643 0 0 0-.473-.064l-.562.041z"/><path fill="#ABABAB" d="M95.53 95.296c-.477.583-.963.945-1.455 1.077-.223.053-.566.158-1.027.317-.225.133-.566.281-1.028.439-.572.079-.97.144-1.192.198a3.775 3.775 0 0 0-1.172.479c-.127-.267-.23-.678-.31-1.237-.063-.37-.167-.622-.31-.756a5.45 5.45 0 0 1-.024-.476c0-.561.107-1.076.322-1.555.214-.479.488-.719.824-.719.971.054 2.276.054 3.917 0 .667-.025 1.12.029 1.36.161.431.211.765.716 1.003 1.514-.334.055-.637.241-.908.558zm8.575 2.192c-4.364 7.276-8.599 11.855-12.706 13.742l-1.291-1.474a5.196 5.196 0 0 1-.071-.798c0-.529.248-1.513.74-2.949a345.73 345.73 0 0 1 2.173-1.033 16.602 16.602 0 0 0 2.126-1.274c1.322-1.01 3.266-3.186 5.827-6.534.304-.396 1.116-1.658 2.438-3.782.971-1.568 1.847-2.683 2.626-3.346l.574.278c-.13 2.284-.939 4.673-2.436 7.17zm-6.235-9.49c-.302.556-.548.809-.738.757l-4.084-.917c-.063 0-.185.061-.359.18s-.31.178-.405.178l-.192-.039-.382-1.949c-.063-.238-.031-.584.096-1.034.254-.928.82-1.394 1.696-1.394.206 0 .453.108.74.319.382.239.628.371.741.398.413.131 1.072.383 1.98.753.924.453 1.514 1.144 1.768 2.072-.318 0-.604.224-.861.676zM130.828 109.041l-1.05.916c-1.289-.692-2.666-2.098-4.132-4.225-1.21-1.83-2.411-3.665-3.607-5.495-.238.266-1.551 1.989-3.94 5.179-1.543 2.044-2.991 3.449-4.346 4.219-.063-.157-.199-.291-.405-.396a19.11 19.11 0 0 1-1.099-.518c-.494-.214-.82-.438-.979-.676-.05-.082-.167-.56-.359-1.436.223-.744.653-1.235 1.289-1.472a21.48 21.48 0 0 0 1.602-.461c.526-.171 1.265-.788 2.22-1.852 2.102-2.284 3.64-4.263 4.61-5.936.733-1.247 1.903-3.718 3.512-7.407l-.407-.16a16.21 16.21 0 0 1-2.077.317c-.747.133-1.863.346-3.345.639l-1.408.237c-.524.16-.948.48-1.266.959l-.357-.278c0-1.516-.04-2.471-.121-2.869.033-.824.312-1.45.836-1.872.146-.107.63-.359 1.458-.756.254.637.445.938.574.916l5.802-.997.238-.04c.256 0 .526.105.813.318.031-.027.262-.386.693-1.076.27-.424.524-.637.765-.637a.84.84 0 0 1 .333.082c.096.316.378.65.849.994.469.345.814.769 1.039 1.274-1.003 1.674-1.657 2.88-1.959 3.624-.238.69-.621 1.713-1.146 3.068-.127.29-.511.996-1.146 2.112-.511.902-.828 1.645-.955 2.228.89 1.063 1.773 2.138 2.649 3.229.939 1.062 1.967 1.777 3.081 2.149 1.005.214 2.509.677 4.513 1.395-.255.799-.728 1.625-1.421 2.488-.693.867-1.144 1.605-1.351 2.216zM156.072 97.13c-.209.053-.481.308-.824.757-.342.454-.656.679-.944.679-.172 0-.588-.171-1.241-.517-.763-.426-1.228-.664-1.384-.718-.305.026-.749-.015-1.337-.118l-.432.156-.812-.355c-.175.291-.35 1.115-.524 2.467l-.288 1.832c-.128.69-.276 1.261-.453 1.713a16.97 16.97 0 0 1-2.078 3.702c-.923 1.246-1.815 2.071-2.675 2.471-1.464.716-2.539 1.073-3.224 1.073-.238 0-.9-.092-1.982-.28l-.334-1.232c.046-1.594.463-2.602 1.241-3.028.32-.16 1.091-.238 2.318-.238.509 0 1.066-.119 1.67-.358.765-.319 1.592-1.051 2.483-2.192 1.003-1.301 1.506-2.497 1.506-3.586 0-.08-.009-.199-.026-.357l-.046-.32c-.333-.422-.582-1.035-.74-1.832l-.334-.279c-.477-.027-1.186-.013-2.125.04-.352.053-1.162.29-2.438.717-1.32.452-2.094.773-2.316.956-.222.186-.413.52-.573.996l-.405.241-.551-.081-.216-1.314c.143-1.034.271-1.781.385-2.231.19-.823.453-1.434.787-1.832a273.26 273.26 0 0 1 5.518-1.116c.667-.107 1.641-.159 2.914-.159 1.289 0 3.973.291 8.048.877.032 0 .08-.028.144-.08l.238-.079.238.079c.048.028.104.052.169.08l1.17-.159.621.438c-.097.477-.29 1.045-.576 1.696-.286.646-.477 1.146-.572 1.491zm-2.914-10.038c-.077 1.116-.699 1.673-1.861 1.673-.286 0-.701-.039-1.241-.119-.544-.08-.949-.12-1.22-.12-.127 0-.294-.026-.503-.078a4.185 4.185 0 0 1-.5-.12 10.311 10.311 0 0 0-1.601-.119c-.239 0-.956.091-2.147.278-1.196.184-1.842.318-1.935.398-.016 0-.109.12-.276.358-.167.239-.306.348-.419.318l-.501-.198-.402-1.514c.091-1.407.458-2.245 1.096-2.51.255 0 .636-.068 1.146-.199 1.243-.559 2.691-.784 4.346-.678 1.992.132 3.018.199 3.081.199 1.147.212 2.135.69 2.963 1.434 0 .241-.01.571-.026.997zM178.904 108.872c-.223 0-.519-.08-.884-.238-.414-.16-.701-.268-.858-.319-.367-.054-1.643-.2-3.821-.438-1.466-.158-2.286-.239-2.461-.239-3.438 0-6.297 1.063-8.575 3.187-.604-.875-.907-2.31-.907-4.302 0-.266.137-.585.409-.955.427-.215.761-.307 1.001-.28.558-.478 1.08-1.396 1.577-2.751.379-1.115.763-2.23 1.144-3.346.338-.824.82-2.07 1.458-3.745.192-.608.484-1.513.884-2.709.365-1.034.62-1.817.763-2.35.272-.876.473-1.699.598-2.47l-.045-.119a1.523 1.523 0 0 1-.24-.795c0-.824.254-1.463.763-1.912.479-.267.947-.531 1.408-.798.417.293.997.664 1.743 1.116.225.345.338.904.338 1.673 0 .426-.2.917-.6 1.473-.302.4-.605.799-.908 1.195-1.001 1.78-2.234 4.876-3.702 9.28-.332.798-.667 1.594-1.001 2.391-.413 1.01-.638 1.86-.669 2.55 1.209-.345 2.667-.518 4.371-.518 2.755 0 4.714.214 5.876.637-.271-1.329-.572-2.218-.908-2.669-.381-.505-.63-.837-.74-.996a11.697 11.697 0 0 1-.597-1.313c.159-1.143.588-1.817 1.287-2.032.24.107.584.307 1.029.598.016 0 .254.346.715 1.035.209.24.519.638.932 1.196.32.479.709 1.54 1.17 3.187.384 1.328.678 2.511.886 3.548a4.16 4.16 0 0 1-.526 1.534c-.272.461-.579.694-.91.694z"/><path d="M94.715 93.938c-.478.584-.962.941-1.456 1.075-.223.054-.566.159-1.027.317-.223.133-.563.28-1.026.439-.572.08-.972.147-1.194.199a3.837 3.837 0 0 0-1.17.479c-.129-.266-.232-.678-.312-1.234-.062-.371-.165-.626-.31-.757a6.387 6.387 0 0 1-.024-.479c0-.56.107-1.075.322-1.555.216-.477.49-.716.824-.716.971.052 2.278.052 3.917 0 .669-.026 1.124.025 1.36.159.431.214.765.717 1.005 1.514-.336.053-.638.239-.909.559zm8.574 2.19c-4.361 7.276-8.599 11.856-12.704 13.744l-1.291-1.476a4.943 4.943 0 0 1-.071-.796c0-.533.246-1.515.74-2.947.716-.347 1.44-.69 2.174-1.037.828-.425 1.537-.85 2.125-1.273 1.32-1.009 3.264-3.187 5.827-6.533.303-.399 1.114-1.66 2.436-3.784.972-1.564 1.848-2.681 2.628-3.347l.572.279c-.128 2.283-.938 4.673-2.436 7.17zm-6.232-9.49c-.303.558-.549.81-.741.755l-4.084-.914c-.063 0-.183.058-.357.179-.177.119-.312.178-.407.178l-.19-.038-.382-1.948c-.065-.24-.031-.583.096-1.035.254-.929.82-1.391 1.696-1.391.206 0 .453.104.739.317.381.238.629.369.74.396.413.131 1.075.384 1.982.754.924.452 1.514 1.142 1.768 2.07-.32 0-.606.225-.86.677zM130.015 107.68l-1.051.915c-1.291-.689-2.668-2.097-4.134-4.222a924.956 924.956 0 0 1-3.605-5.497c-.238.267-1.553 1.993-3.94 5.177-1.545 2.046-2.993 3.456-4.346 4.225-.065-.16-.199-.293-.407-.398-.365-.16-.731-.332-1.099-.518-.492-.212-.82-.438-.979-.68-.045-.076-.166-.555-.357-1.432.223-.744.651-1.234 1.289-1.474a21.133 21.133 0 0 0 1.602-.459c.524-.172 1.265-.79 2.221-1.853 2.101-2.283 3.639-4.262 4.609-5.935.731-1.247 1.903-3.716 3.51-7.409l-.405-.159c-.573.132-1.267.239-2.077.319-.749.133-1.863.346-3.345.636-.477.081-.947.161-1.408.241a2.3 2.3 0 0 0-1.268.955l-.357-.279c0-1.513-.04-2.469-.119-2.868.031-.822.312-1.445.836-1.872.144-.104.63-.356 1.458-.756.254.637.445.943.572.916l5.802-.995.24-.042c.256 0 .524.108.813.32.031-.026.262-.385.693-1.076.27-.426.524-.638.763-.638.095 0 .208.029.336.082.095.317.377.649.846.995.471.346.818.77 1.041 1.274-1.005 1.674-1.657 2.883-1.961 3.626a93.548 93.548 0 0 1-1.144 3.066c-.129.293-.511.997-1.148 2.111-.509.901-.828 1.646-.955 2.231a192.917 192.917 0 0 1 2.651 3.227c.939 1.062 1.967 1.778 3.081 2.15 1.003.212 2.509.677 4.515 1.395-.257.796-.729 1.625-1.422 2.489-.696.864-1.145 1.599-1.351 2.212zM155.256 95.77c-.205.054-.479.306-.822.757-.344.454-.656.681-.943.681-.177 0-.589-.176-1.244-.52-.765-.425-1.226-.663-1.384-.716-.303.026-.747-.011-1.337-.119l-.429.159-.813-.358c-.177.293-.352 1.114-.526 2.47-.128.821-.223 1.431-.284 1.832-.129.688-.282 1.259-.455 1.711a16.956 16.956 0 0 1-2.08 3.702c-.923 1.248-1.813 2.07-2.673 2.468-1.466.718-2.539 1.076-3.226 1.076-.238 0-.898-.096-1.98-.278l-.336-1.236c.048-1.592.461-2.602 1.243-3.027.318-.159 1.089-.237 2.316-.237.509 0 1.066-.12 1.673-.359.765-.318 1.593-1.048 2.482-2.19 1.003-1.303 1.506-2.498 1.506-3.589 0-.077-.011-.195-.026-.354l-.048-.321c-.333-.425-.58-1.033-.738-1.831l-.336-.28c-.477-.026-1.186-.013-2.125.04-.35.053-1.162.292-2.438.716-1.32.453-2.092.772-2.315.96-.223.183-.411.517-.572.994l-.407.239-.551-.078-.214-1.315c.145-1.038.271-1.78.385-2.232.189-.825.451-1.436.787-1.834 1.226-.266 3.063-.637 5.518-1.116.667-.104 1.639-.159 2.912-.159 1.291 0 3.975.294 8.048.877.032 0 .08-.025.144-.079l.238-.08.24.08c.048.027.102.054.169.079l1.168-.159.619.438c-.095.481-.284 1.046-.572 1.697-.286.645-.477 1.145-.574 1.491zm-2.914-10.038c-.075 1.115-.699 1.673-1.861 1.673-.284 0-.701-.04-1.243-.12-.54-.079-.947-.118-1.216-.118a1.98 1.98 0 0 1-.502-.081c-.272-.052-.438-.091-.501-.12a10.573 10.573 0 0 0-1.603-.118c-.238 0-.954.093-2.147.277-1.195.188-1.839.32-1.937.398-.014 0-.107.12-.274.362-.167.235-.306.342-.417.315l-.501-.199-.408-1.512c.099-1.409.462-2.245 1.1-2.512.255 0 .638-.067 1.146-.199 1.241-.558 2.691-.782 4.348-.676 1.99.133 3.018.2 3.081.2 1.147.213 2.133.691 2.963 1.435-.001.238-.011.57-.028.995zM178.09 107.511c-.225 0-.521-.079-.884-.237-.415-.16-.701-.267-.86-.319-.367-.051-1.641-.199-3.823-.439-1.464-.157-2.28-.236-2.457-.236-3.438 0-6.299 1.063-8.575 3.186-.605-.876-.907-2.308-.907-4.303 0-.263.135-.585.405-.956.429-.211.765-.306 1.005-.279.556-.477 1.082-1.396 1.575-2.749.381-1.117.765-2.232 1.146-3.344.334-.825.82-2.073 1.456-3.747.192-.611.486-1.513.886-2.709.365-1.034.62-1.817.763-2.35.271-.874.469-1.699.599-2.468l-.048-.12a1.546 1.546 0 0 1-.24-.797c0-.824.256-1.462.765-1.913.48-.265.947-.532 1.408-.795.415.29.995.663 1.744 1.114.224.347.335.902.335 1.673 0 .427-.198.917-.598 1.475l-.907 1.193c-1.004 1.782-2.237 4.875-3.701 9.283-.335.795-.669 1.593-1.005 2.388-.411 1.009-.636 1.859-.667 2.553 1.209-.347 2.667-.521 4.369-.521 2.755 0 4.714.214 5.876.638-.271-1.327-.572-2.218-.908-2.67a29.618 29.618 0 0 1-.738-.997 12.05 12.05 0 0 1-.599-1.313c.159-1.141.588-1.818 1.287-2.029.243.106.584.304 1.029.597.016 0 .254.345.717 1.036.207.238.519.638.932 1.194.318.477.707 1.54 1.17 3.188.384 1.327.678 2.509.882 3.547a4.165 4.165 0 0 1-.524 1.533c-.272.463-.575.693-.908.693z"/><linearGradient id="c" gradientUnits="userSpaceOnUse" x1="106.495" y1="45.934" x2="162.039" y2="101.478"><stop offset="0" stop-color="#ead18f"/><stop offset=".076" stop-color="#e1c477"/><stop offset=".221" stop-color="#d1af4e"/><stop offset=".335" stop-color="#c8a235"/><stop offset=".405" stop-color="#c49d2c"/><stop offset=".559" stop-color="#d4b35c"/><stop offset=".766" stop-color="#e7cd97"/><stop offset=".919" stop-color="#f3debb"/><stop offset="1" stop-color="#f8e4c9"/></linearGradient><path opacity=".8" fill="url(#c)" d="M85.267 67.162h98V80.25h-98z"/><path d="M90.41 77.577l-1.723-6.686v5.311c0 .486.029.79.089.911a.404.404 0 0 0 .385.245h.156v.219h-1.551v-.219h.157c.19 0 .324-.102.401-.304.048-.124.073-.409.073-.853v-5.195c0-.351-.022-.604-.067-.759a.56.56 0 0 0-.168-.283c-.083-.076-.215-.114-.396-.114v-.219h1.265l1.616 6.216 1.592-6.216h1.262v.219h-.154c-.189 0-.325.102-.404.304-.049.124-.073.409-.073.853v5.195c0 .486.032.79.092.911a.409.409 0 0 0 .386.245h.154v.219h-1.894v-.219h.157c.191 0 .325-.102.401-.304.049-.124.071-.409.071-.853V70.89l-1.717 6.686h-.11zM94.36 74.233c-.002.797.107 1.422.324 1.875.22.453.477.68.771.68.198 0 .369-.096.516-.287.146-.192.269-.523.366-.994l.1.117a3.902 3.902 0 0 1-.401 1.461c-.221.438-.497.656-.83.656-.361 0-.671-.251-.93-.753-.256-.502-.386-1.177-.386-2.024 0-.918.133-1.634.397-2.147.263-.514.595-.771.994-.771.336 0 .614.198.831.596.217.396.324.928.324 1.592H94.36zm0-.344h1.395c-.011-.344-.034-.586-.07-.727a1.23 1.23 0 0 0-.245-.516c-.106-.125-.222-.188-.339-.188-.182 0-.345.126-.488.378s-.228.604-.253 1.053zM97.726 72.045v1.207c.252-.805.511-1.207.775-1.207.121 0 .221.065.299.196.08.131.12.282.12.454a.82.82 0 0 1-.086.387c-.059.105-.126.158-.204.158s-.163-.067-.257-.203c-.098-.136-.167-.203-.214-.203-.039 0-.081.039-.128.117-.098.161-.199.426-.306.794v2.573c0 .298.022.523.063.677a.555.555 0 0 0 .15.265c.074.07.178.105.313.105v.211h-1.548v-.211c.154 0 .269-.043.342-.129.057-.063.093-.163.115-.301.012-.066.017-.257.017-.57v-2.078c0-.627-.006-1-.021-1.119a.625.625 0 0 0-.079-.262c-.04-.055-.087-.082-.144-.082a.422.422 0 0 0-.232.088l-.033-.211.918-.656h.14zM101.645 75.534c-.081.711-.241 1.257-.477 1.637-.237.38-.5.57-.787.57-.342 0-.64-.256-.895-.769-.256-.512-.381-1.204-.381-2.076 0-.845.141-1.531.421-2.059.282-.528.621-.792 1.015-.792.297 0 .539.14.729.42.192.279.287.569.287.871 0 .148-.026.269-.08.36s-.129.138-.227.138c-.128 0-.225-.074-.289-.224-.038-.082-.063-.238-.076-.47-.011-.231-.055-.407-.133-.529a.36.36 0 0 0-.318-.176c-.219 0-.395.145-.528.435-.177.384-.266.89-.266 1.521 0 .642.089 1.208.265 1.699.177.491.413.736.715.736.214 0 .406-.13.577-.39.119-.181.236-.509.351-.985l.097.083zM102.959 69.241v3.926c.242-.478.435-.783.577-.918.142-.136.286-.203.428-.203.169 0 .317.084.438.252.124.169.215.433.272.793.042.25.063.708.063 1.373v1.902c0 .339.015.571.046.696.021.093.06.167.112.222.052.055.149.082.29.082v.211h-1.483v-.211h.068c.143 0 .239-.038.293-.114a.765.765 0 0 0 .115-.336c.008-.063.012-.245.012-.55v-1.901c0-.587-.019-.973-.052-1.156s-.087-.321-.163-.414a.335.335 0 0 0-.268-.138c-.106 0-.22.051-.334.152-.116.102-.256.307-.416.616v2.841c0 .366.011.595.033.685a.485.485 0 0 0 .128.225c.063.061.172.091.324.091v.211h-1.495v-.211a.43.43 0 0 0 .315-.111c.044-.039.081-.113.107-.222.024-.109.037-.332.037-.667v-4.859c0-.612-.008-.988-.023-1.129s-.041-.236-.077-.287a.158.158 0 0 0-.137-.076c-.046 0-.119.031-.225.094l-.046-.211.905-.656h.156zM107.146 76.801c-.309.426-.502.672-.581.738a.582.582 0 0 1-.377.146c-.208 0-.381-.127-.516-.381-.135-.255-.2-.589-.2-1.004 0-.262.033-.488.098-.68.09-.266.245-.517.467-.751.223-.234.592-.521 1.109-.856v-.211c0-.534-.047-.901-.141-1.1-.095-.199-.234-.299-.414-.299-.139 0-.246.066-.328.199a.845.845 0 0 0-.122.455l.006.34a.919.919 0 0 1-.077.414c-.053.098-.123.146-.205.146s-.15-.051-.202-.152a.908.908 0 0 1-.078-.415c0-.336.097-.645.29-.925a.93.93 0 0 1 .813-.422c.267 0 .484.08.657.24.129.121.224.311.285.568.039.168.06.512.06 1.03v1.821c0 .512.005.825.017.94.01.115.029.192.054.231.025.039.054.059.088.059s.066-.014.092-.041c.046-.051.136-.193.267-.428v.328c-.245.589-.479.883-.704.883-.108 0-.194-.066-.259-.199-.063-.128-.098-.354-.099-.674zm0-.381v-2.047c-.331.234-.544.4-.64.498a1.565 1.565 0 0 0-.37.54 1.625 1.625 0 0 0-.113.615c0 .282.049.516.143.701.093.186.202.278.323.278.166.001.385-.194.657-.585zM109.315 73.181c.351-.757.688-1.136 1.007-1.136.163 0 .305.073.423.221.119.146.213.388.282.725.048.234.073.595.073 1.08v2.295c0 .339.014.569.045.69a.483.483 0 0 0 .116.228c.056.055.153.082.298.082v.211h-1.494v-.211h.061c.141 0 .24-.038.295-.114a.752.752 0 0 0 .117-.336c.01-.059.014-.241.014-.55v-2.203c0-.489-.036-.845-.106-1.066s-.19-.332-.355-.332c-.26 0-.52.254-.774.763v2.839c0 .362.012.587.035.673a.539.539 0 0 0 .127.248c.054.053.164.079.328.079v.211h-1.496v-.211h.067c.152 0 .258-.069.31-.207.054-.139.079-.403.079-.793v-2c0-.645-.008-1.037-.023-1.178s-.043-.236-.076-.287a.159.159 0 0 0-.138-.076.42.42 0 0 0-.222.088l-.049-.211.914-.656h.144v1.134zM113.923 76.965c-.146.277-.289.477-.432.596-.14.12-.29.18-.452.18-.329 0-.616-.245-.86-.735-.247-.49-.369-1.12-.369-1.89s.135-1.474.406-2.112.622-.958 1.052-.958c.263 0 .481.153.655.459v-.998c0-.612-.007-.988-.024-1.129-.016-.141-.042-.236-.077-.287-.036-.051-.08-.076-.133-.076-.056 0-.132.031-.227.094l-.044-.211.9-.656h.148v6.211c0 .628.008 1.012.025 1.149a.713.713 0 0 0 .078.29c.037.055.079.082.128.082.058 0 .137-.033.236-.1l.037.211-.897.656h-.151v-.776zm0-.409v-2.753a3.053 3.053 0 0 0-.118-.729c-.065-.219-.153-.384-.261-.494-.109-.111-.216-.167-.317-.167-.194 0-.365.154-.518.462-.199.405-.298.999-.298 1.778 0 .788.096 1.392.289 1.811.192.419.407.629.644.629.201-.001.393-.179.579-.537zM116.207 72.045v4.32c0 .335.015.559.041.67.028.111.068.193.122.248s.15.082.293.082v.211h-1.465v-.211c.146 0 .246-.025.298-.076a.539.539 0 0 0 .118-.251c.03-.117.045-.342.045-.673v-2.078c0-.581-.01-.958-.028-1.129-.017-.125-.041-.212-.074-.261s-.078-.073-.134-.073a.436.436 0 0 0-.227.088l-.045-.211.911-.656h.145zm-.27-2.804c.092 0 .171.058.234.173.064.114.099.254.099.418s-.034.305-.099.421c-.063.117-.143.176-.234.176s-.169-.059-.235-.176c-.065-.116-.1-.257-.1-.421s.033-.304.099-.418c.063-.116.142-.173.236-.173zM118.98 72.045v1.828h-.109c-.082-.575-.188-.966-.318-1.174-.13-.207-.296-.311-.496-.311-.153 0-.278.072-.372.217a.87.87 0 0 0-.141.481c0 .22.035.407.104.563.069.161.206.331.414.512l.48.416c.446.388.667.897.667 1.531 0 .489-.104.883-.309 1.182-.208.3-.44.449-.697.449-.184 0-.394-.059-.632-.176a.396.396 0 0 0-.178-.059c-.05 0-.09.05-.116.148h-.111v-1.914h.111c.061.548.178.961.352 1.239.172.278.367.417.58.417.152 0 .274-.079.371-.238.096-.158.144-.35.144-.572 0-.271-.054-.498-.161-.682-.104-.185-.317-.417-.637-.699-.316-.281-.525-.535-.625-.762-.099-.223-.147-.504-.147-.845 0-.441.086-.811.255-1.108.168-.297.389-.445.658-.445.12 0 .264.046.432.137.111.061.186.09.224.09a.093.093 0 0 0 .081-.042.638.638 0 0 0 .068-.185h.108zM120.164 74.233c-.002.797.107 1.422.326 1.875s.477.68.772.68c.196 0 .368-.096.513-.287.146-.192.268-.523.365-.994l.103.117a3.96 3.96 0 0 1-.402 1.461c-.221.438-.497.656-.831.656-.361 0-.671-.251-.927-.753-.259-.502-.387-1.177-.387-2.024 0-.918.131-1.634.396-2.147.264-.514.595-.771.993-.771.338 0 .614.198.831.596.217.396.326.928.326 1.592h-2.078zm0-.344h1.394a4.106 4.106 0 0 0-.067-.727c-.056-.219-.136-.391-.245-.516s-.223-.188-.341-.188c-.182 0-.346.126-.489.378-.143.253-.228.604-.252 1.053zM126.876 77.577l-1.724-6.686v5.311c0 .486.03.79.089.911a.408.408 0 0 0 .386.245h.157v.219h-1.551v-.219h.156c.189 0 .324-.102.401-.304.048-.124.072-.409.072-.853v-5.195c0-.351-.022-.604-.065-.759a.57.57 0 0 0-.169-.283c-.082-.076-.214-.114-.396-.114v-.219h1.263l1.615 6.216 1.596-6.216h1.26v.219h-.153c-.19 0-.326.102-.404.304-.049.124-.073.409-.073.853v5.195c0 .486.03.79.092.911.081.163.21.245.386.245h.153v.219h-1.893v-.219h.157c.19 0 .324-.102.401-.304.047-.124.071-.409.071-.853V70.89l-1.718 6.686h-.109zM132.023 76.801c-.309.426-.502.672-.582.738a.583.583 0 0 1-.378.146c-.208 0-.379-.127-.515-.381-.134-.255-.2-.589-.2-1.004 0-.262.031-.488.099-.68.09-.266.244-.517.467-.751s.592-.521 1.109-.856v-.211c0-.534-.047-.901-.143-1.1-.096-.199-.233-.299-.414-.299-.138 0-.246.066-.326.199a.838.838 0 0 0-.125.455l.008.34c0 .179-.026.317-.078.414-.052.098-.122.146-.205.146-.081 0-.147-.051-.2-.152s-.078-.24-.078-.415c0-.336.096-.645.29-.925a.927.927 0 0 1 .811-.422c.268 0 .487.08.659.24.13.121.225.311.285.568.039.168.06.512.06 1.03v1.821c0 .512.006.825.016.94a.616.616 0 0 0 .055.231c.026.039.054.059.088.059a.126.126 0 0 0 .092-.041c.047-.051.137-.193.268-.428v.328c-.246.589-.482.883-.707.883-.106 0-.192-.066-.255-.199-.067-.128-.099-.354-.101-.674zm0-.381v-2.047c-.332.234-.544.4-.643.498-.17.173-.295.353-.369.54-.073.188-.11.393-.11.615 0 .282.046.516.14.701.095.186.203.278.324.278.169.001.387-.194.658-.585zM134.191 73.181c.352-.757.688-1.136 1.008-1.136a.53.53 0 0 1 .424.221c.116.146.212.388.281.725.049.234.073.595.073 1.08v2.295c0 .339.015.569.046.69a.474.474 0 0 0 .116.228c.053.055.153.082.299.082v.211h-1.497v-.211h.063c.14 0 .239-.038.295-.114a.74.74 0 0 0 .116-.336c.01-.059.015-.241.015-.55v-2.203c0-.489-.036-.845-.107-1.066-.069-.222-.189-.332-.357-.332-.258 0-.517.254-.773.763v2.839c0 .362.014.587.037.673.031.112.073.195.127.248s.164.079.328.079v.211h-1.496v-.211h.066c.153 0 .256-.069.31-.207.054-.139.08-.403.08-.793v-2c0-.645-.008-1.037-.024-1.178-.018-.141-.042-.236-.076-.287s-.08-.076-.136-.076a.422.422 0 0 0-.224.088l-.048-.211.914-.656h.142v1.134zM138.381 76.801c-.309.426-.505.672-.583.738a.58.58 0 0 1-.378.146c-.208 0-.379-.127-.515-.381-.133-.255-.2-.589-.2-1.004 0-.262.031-.488.099-.68a2.03 2.03 0 0 1 .467-.751c.224-.234.592-.521 1.11-.856v-.211c0-.534-.047-.901-.144-1.1-.096-.199-.233-.299-.414-.299-.137 0-.246.066-.325.199a.83.83 0 0 0-.126.455l.008.34c0 .179-.026.317-.078.414-.052.098-.121.146-.205.146-.081 0-.147-.051-.2-.152a.92.92 0 0 1-.079-.415c0-.336.097-.645.292-.925a.925.925 0 0 1 .81-.422c.268 0 .488.08.658.24.13.121.226.311.286.568.04.168.061.512.061 1.03v1.821c0 .512.006.825.016.94a.62.62 0 0 0 .054.231c.026.039.055.059.088.059a.126.126 0 0 0 .092-.041c.047-.051.137-.193.268-.428v.328c-.246.589-.481.883-.706.883-.106 0-.193-.066-.256-.199-.067-.128-.098-.354-.1-.674zm0-.381v-2.047c-.332.234-.544.4-.643.498a1.652 1.652 0 0 0-.37.54c-.073.188-.11.393-.11.615 0 .282.046.516.141.701s.202.278.324.278c.168.001.386-.194.658-.585zM140.468 75.606a1.514 1.514 0 0 1-.425-.67 2.916 2.916 0 0 1-.147-.949c0-.53.111-.986.337-1.368.225-.382.514-.573.864-.573.289 0 .537.125.748.375h.64c.095 0 .148.005.166.015.014.01.025.026.031.05a.557.557 0 0 1 .021.189.799.799 0 0 1-.018.213.108.108 0 0 1-.033.047c-.019.012-.073.018-.17.018h-.394c.122.281.184.64.184 1.076 0 .5-.106.927-.322 1.282-.216.354-.503.532-.864.532a.99.99 0 0 1-.457-.121 1.66 1.66 0 0 0-.191.394c-.033.112-.05.208-.05.287a.39.39 0 0 0 .054.195c.037.063.106.108.213.136.061.015.213.028.459.039.451.019.743.045.875.078.205.051.366.187.488.405.121.22.183.49.183.812 0 .442-.117.857-.349 1.245-.342.572-.789.858-1.339.858-.425 0-.783-.17-1.074-.511-.165-.195-.246-.399-.246-.61 0-.094.012-.188.035-.281a4.15 4.15 0 0 1 .231-.604c.017-.035.128-.247.339-.634a1.353 1.353 0 0 1-.24-.327.742.742 0 0 1-.071-.328c0-.138.031-.299.093-.483.059-.187.204-.449.429-.787zm-.03 1.971a3.348 3.348 0 0 0-.237.556 1.555 1.555 0 0 0-.082.474c0 .187.064.351.192.491.22.241.535.362.95.362.396 0 .687-.124.874-.371.187-.248.281-.513.281-.794 0-.202-.056-.347-.166-.433-.115-.086-.341-.137-.678-.152-.492-.024-.87-.068-1.134-.133zm.603-5.25c-.161 0-.297.115-.407.345-.108.229-.163.582-.163 1.058 0 .615.073 1.092.222 1.431.114.257.259.386.435.386.166 0 .303-.111.409-.333s.162-.57.162-1.046c0-.619-.076-1.104-.227-1.454-.114-.258-.255-.387-.431-.387zM143.538 74.233c-.002.797.107 1.422.325 1.875.219.453.478.68.772.68.198 0 .367-.096.516-.287.144-.192.268-.523.365-.994l.101.117a3.997 3.997 0 0 1-.4 1.461c-.223.438-.5.656-.832.656-.362 0-.672-.251-.93-.753-.256-.502-.385-1.177-.385-2.024 0-.918.132-1.634.396-2.147.262-.514.595-.771.992-.771.339 0 .615.198.833.596.218.396.325.928.325 1.592h-2.078zm0-.344h1.395c-.01-.344-.034-.586-.069-.727-.055-.219-.137-.391-.244-.516s-.222-.188-.342-.188c-.182 0-.344.126-.486.378s-.229.604-.254 1.053zM146.919 73.196c.219-.394.347-.619.388-.679.098-.149.205-.265.317-.348a.58.58 0 0 1 .34-.124c.188 0 .349.099.484.295s.227.481.272.855c.227-.472.417-.781.572-.93.156-.146.317-.221.481-.221.16 0 .301.073.425.221.125.146.223.386.294.719.048.227.072.583.072 1.068v2.313c0 .335.015.565.044.69a.468.468 0 0 0 .123.219c.06.061.155.091.289.091v.211h-1.49v-.211h.064a.363.363 0 0 0 .3-.135.645.645 0 0 0 .11-.298c.008-.066.012-.255.012-.567v-2.309c0-.438-.029-.746-.089-.926-.084-.25-.222-.375-.408-.375-.118 0-.233.052-.352.155-.115.104-.258.296-.425.577l-.006.064.008.252v2.561c0 .366.013.595.035.685a.46.46 0 0 0 .128.225c.064.061.172.091.325.091v.211h-1.522v-.211c.166 0 .279-.035.343-.105a.621.621 0 0 0 .126-.315c.013-.066.018-.26.018-.579v-2.309c0-.438-.036-.753-.108-.946-.096-.252-.23-.378-.4-.378-.119 0-.237.057-.351.171a1.87 1.87 0 0 0-.42.585v2.877c0 .351.013.579.039.685.028.104.07.184.121.236.054.053.163.079.325.079v.211h-1.489v-.211c.138 0 .234-.026.288-.079s.096-.136.125-.251c.027-.115.043-.339.043-.67v-2.055c0-.592-.012-.974-.03-1.146a.632.632 0 0 0-.073-.268.152.152 0 0 0-.136-.073.417.417 0 0 0-.222.088l-.049-.211.914-.656h.144v1.151zM151.766 74.233c-.002.797.107 1.422.326 1.875s.478.68.773.68c.196 0 .368-.096.513-.287.146-.192.268-.523.365-.994l.103.117a3.998 3.998 0 0 1-.402 1.461c-.221.438-.498.656-.831.656-.361 0-.672-.251-.927-.753-.259-.502-.388-1.177-.388-2.024 0-.918.132-1.634.397-2.147.264-.514.594-.771.993-.771.338 0 .614.198.831.596.217.396.326.928.326 1.592h-2.079zm0-.344h1.395c-.01-.344-.034-.586-.068-.727a1.23 1.23 0 0 0-.245-.516c-.108-.125-.222-.188-.34-.188-.182 0-.346.126-.489.378-.144.253-.228.604-.253 1.053zM155.135 73.181c.35-.757.687-1.136 1.006-1.136.163 0 .304.073.424.221.118.146.212.388.28.725.048.234.073.595.073 1.08v2.295c0 .339.016.569.047.69a.481.481 0 0 0 .114.228c.056.055.154.082.298.082v.211h-1.494v-.211h.062c.14 0 .24-.038.296-.114a.729.729 0 0 0 .115-.336c.011-.059.015-.241.015-.55v-2.203c0-.489-.035-.845-.108-1.066-.069-.222-.188-.332-.356-.332-.258 0-.516.254-.771.763v2.839c0 .362.012.587.034.673a.53.53 0 0 0 .128.248c.053.053.163.079.326.079v.211h-1.495v-.211h.066c.153 0 .258-.069.311-.207.053-.139.08-.403.08-.793v-2c0-.645-.009-1.037-.025-1.178-.016-.141-.041-.236-.075-.287a.16.16 0 0 0-.139-.076.417.417 0 0 0-.221.088l-.049-.211.913-.656h.146v1.134zM158.497 70.436v1.766h.703v.414h-.703v3.482c0 .348.026.582.083.703.056.121.127.182.214.182.073 0 .143-.04.211-.121a.858.858 0 0 0 .157-.355h.128c-.078.384-.186.672-.326.865-.141.194-.285.291-.436.291-.102 0-.199-.05-.297-.149a.917.917 0 0 1-.214-.428c-.047-.186-.069-.472-.069-.859v-3.61h-.479v-.197c.122-.086.244-.232.372-.438.127-.206.238-.45.341-.731.052-.148.121-.421.212-.815h.103zM164.051 69.452v2.75h-.123c-.04-.527-.11-.948-.214-1.261-.102-.313-.247-.562-.436-.745-.188-.184-.385-.275-.586-.275-.228 0-.417.124-.566.372a1.606 1.606 0 0 0-.224.846c0 .241.048.462.142.661.137.293.461.683.973 1.171.416.397.702.703.855.916.152.213.271.464.353.753.084.289.123.592.123.908 0 .602-.129 1.12-.393 1.556-.262.436-.598.653-1.009.653-.13 0-.253-.018-.367-.054a2.72 2.72 0 0 1-.423-.219c-.212-.126-.349-.188-.405-.188-.055 0-.097.03-.13.09-.03.06-.055.184-.07.371h-.123V75.03h.123c.057.57.135.996.23 1.279s.243.518.442.705c.197.188.414.281.65.281.274 0 .49-.129.648-.387.159-.258.238-.563.238-.914a1.89 1.89 0 0 0-.372-1.149c-.085-.117-.32-.365-.701-.745-.384-.379-.655-.682-.815-.908a2.545 2.545 0 0 1-.366-.749 3.059 3.059 0 0 1-.125-.902c0-.569.123-1.061.367-1.473.247-.411.56-.617.939-.617.236 0 .488.104.752.313.124.099.211.147.262.147.057 0 .102-.03.139-.092.036-.061.066-.184.088-.369h.124zM164.745 72.202h1.403v.211h-.068c-.1 0-.172.038-.222.115a.52.52 0 0 0-.074.286c0 .153.036.366.107.638l.738 2.721.67-2.979c.037-.162.057-.322.057-.479a.41.41 0 0 0-.024-.16.22.22 0 0 0-.082-.104c-.035-.025-.103-.038-.196-.038v-.211h.979v.211a.324.324 0 0 0-.188.095.935.935 0 0 0-.146.265 6.511 6.511 0 0 0-.11.455l-1.224 5.365c-.119.52-.274.913-.466 1.179-.193.267-.378.399-.556.399-.13 0-.235-.066-.319-.199a.85.85 0 0 1-.125-.458c0-.164.03-.297.09-.396.063-.1.145-.149.249-.149.074 0 .172.043.298.13.088.06.143.089.163.089.067 0 .139-.061.216-.183.08-.121.156-.356.235-.705l.213-.94-1.081-4.049a3.942 3.942 0 0 0-.158-.454 1.41 1.41 0 0 0-.135-.277.596.596 0 0 0-.242-.165v-.213zM170.229 72.045v1.828h-.108c-.084-.575-.192-.966-.321-1.174-.129-.207-.296-.311-.495-.311-.156 0-.278.072-.374.217a.877.877 0 0 0-.14.481c0 .22.034.407.105.563.065.161.205.331.413.512l.479.416c.445.388.668.897.668 1.531 0 .489-.103.883-.312 1.182-.205.3-.439.449-.694.449-.185 0-.396-.059-.632-.176a.399.399 0 0 0-.179-.059c-.049 0-.088.05-.118.148h-.108v-1.914h.108c.063.548.18.961.353 1.239.174.278.367.417.583.417.15 0 .275-.079.37-.238.095-.158.143-.35.143-.572 0-.271-.053-.498-.159-.682-.107-.185-.318-.417-.637-.699-.318-.281-.527-.535-.627-.762-.098-.223-.146-.504-.146-.845 0-.441.086-.811.254-1.108.17-.297.391-.445.66-.445.116 0 .262.046.429.137.112.061.188.09.225.09a.095.095 0 0 0 .082-.042.723.723 0 0 0 .07-.185h.108zM171.785 70.436v1.766h.704v.414h-.704v3.482c0 .348.027.582.083.703s.127.182.215.182c.072 0 .144-.04.21-.121a.858.858 0 0 0 .158-.355h.128c-.077.384-.186.672-.328.865-.14.194-.286.291-.435.291-.101 0-.2-.05-.297-.149s-.167-.242-.213-.428-.07-.472-.07-.859v-3.61h-.477v-.197c.12-.086.245-.232.371-.438a3.8 3.8 0 0 0 .339-.731 9.47 9.47 0 0 0 .214-.815h.102zM173.283 74.233c-.002.797.107 1.422.324 1.875.22.453.477.68.772.68.198 0 .368-.096.516-.287.145-.192.267-.523.365-.994l.101.117a3.94 3.94 0 0 1-.401 1.461c-.222.438-.498.656-.83.656-.362 0-.673-.251-.931-.753-.256-.502-.386-1.177-.386-2.024 0-.918.134-1.634.397-2.147.262-.514.595-.771.993-.771.337 0 .615.198.833.596.217.396.324.928.324 1.592h-2.077zm0-.344h1.395c-.011-.344-.034-.586-.07-.727a1.23 1.23 0 0 0-.245-.516c-.106-.125-.222-.188-.34-.188-.182 0-.344.126-.487.378-.143.253-.228.604-.253 1.053zM176.663 73.196c.218-.394.347-.619.387-.679.099-.149.206-.265.318-.348a.577.577 0 0 1 .34-.124c.188 0 .349.099.484.295s.227.481.272.855c.227-.472.417-.781.573-.93.154-.146.315-.221.48-.221.159 0 .302.073.426.221.124.146.222.386.293.719.049.227.073.583.073 1.068v2.313c0 .335.014.565.042.69a.461.461 0 0 0 .124.219c.059.061.155.091.29.091v.211h-1.49v-.211h.063c.128 0 .23-.045.302-.135a.646.646 0 0 0 .109-.298c.008-.066.013-.255.013-.567v-2.309c0-.438-.03-.746-.089-.926-.086-.25-.223-.375-.41-.375-.117 0-.232.052-.35.155-.116.104-.259.296-.425.577l-.007.064.009.252v2.561c0 .366.011.595.034.685a.449.449 0 0 0 .13.225c.062.061.17.091.323.091v.211h-1.521v-.211c.165 0 .278-.035.342-.105a.64.64 0 0 0 .127-.315c.012-.066.018-.26.018-.579v-2.309c0-.438-.036-.753-.108-.946-.097-.252-.231-.378-.401-.378-.119 0-.236.057-.352.171-.182.174-.32.368-.419.585v2.877c0 .351.014.579.039.685.029.104.069.184.122.236s.162.079.324.079v.211h-1.488v-.211c.137 0 .233-.026.288-.079a.526.526 0 0 0 .124-.251c.028-.115.043-.339.043-.67v-2.055c0-.592-.011-.974-.031-1.146a.65.65 0 0 0-.072-.268.151.151 0 0 0-.136-.073.412.412 0 0 0-.221.088l-.05-.211.915-.656h.143v1.151z"/><linearGradient id="d" gradientUnits="userSpaceOnUse" x1="147.192" y1="50.037" x2="202.498" y2="105.342"><stop offset="0" stop-color="#ead18f"/><stop offset=".076" stop-color="#e1c477"/><stop offset=".221" stop-color="#d1af4e"/><stop offset=".335" stop-color="#c8a235"/><stop offset=".405" stop-color="#c49d2c"/><stop offset=".559" stop-color="#d4b35c"/><stop offset=".766" stop-color="#e7cd97"/><stop offset=".919" stop-color="#f3debb"/><stop offset="1" stop-color="#f8e4c9"/></linearGradient><linearGradient id="e" gradientUnits="userSpaceOnUse" x1="136.472" y1="63.079" x2="191.777" y2="118.384"><stop offset="0" stop-color="#ead18f"/><stop offset=".076" stop-color="#e1c477"/><stop offset=".221" stop-color="#d1af4e"/><stop offset=".335" stop-color="#c8a235"/><stop offset=".405" stop-color="#c49d2c"/><stop offset=".559" stop-color="#d4b35c"/><stop offset=".766" stop-color="#e7cd97"/><stop offset=".919" stop-color="#f3debb"/><stop offset="1" stop-color="#f8e4c9"/></linearGradient><linearGradient id="f" gradientUnits="userSpaceOnUse" x1="150.471" y1="43.412" x2="205.776" y2="98.718"><stop offset="0" stop-color="#ead18f"/><stop offset=".076" stop-color="#e1c477"/><stop offset=".221" stop-color="#d1af4e"/><stop offset=".335" stop-color="#c8a235"/><stop offset=".405" stop-color="#c49d2c"/><stop offset=".559" stop-color="#d4b35c"/><stop offset=".766" stop-color="#e7cd97"/><stop offset=".919" stop-color="#f3debb"/><stop offset="1" stop-color="#f8e4c9"/></linearGradient><linearGradient id="g" gradientUnits="userSpaceOnUse" x1="84.542" y1="45.164" x2="139.849" y2="100.471"><stop offset="0" stop-color="#ead18f"/><stop offset=".076" stop-color="#e1c477"/><stop offset=".221" stop-color="#d1af4e"/><stop offset=".335" stop-color="#c8a235"/><stop offset=".405" stop-color="#c49d2c"/><stop offset=".559" stop-color="#d4b35c"/><stop offset=".766" stop-color="#e7cd97"/><stop offset=".919" stop-color="#f3debb"/><stop offset="1" stop-color="#f8e4c9"/></linearGradient><linearGradient id="h" gradientUnits="userSpaceOnUse" x1="154.761" y1="33.258" x2="209.866" y2="88.364"><stop offset="0" stop-color="#ead18f"/><stop offset=".076" stop-color="#e1c477"/><stop offset=".221" stop-color="#d1af4e"/><stop offset=".335" stop-color="#c8a235"/><stop offset=".405" stop-color="#c49d2c"/><stop offset=".559" stop-color="#d4b35c"/><stop offset=".766" stop-color="#e7cd97"/><stop offset=".919" stop-color="#f3debb"/><stop offset="1" stop-color="#f8e4c9"/></linearGradient><linearGradient id="i" gradientUnits="userSpaceOnUse" x1="130.049" y1="41.419" x2="185.356" y2="96.725"><stop offset="0" stop-color="#ead18f"/><stop offset=".076" stop-color="#e1c477"/><stop offset=".221" stop-color="#d1af4e"/><stop offset=".335" stop-color="#c8a235"/><stop offset=".405" stop-color="#c49d2c"/><stop offset=".559" stop-color="#d4b35c"/><stop offset=".766" stop-color="#e7cd97"/><stop offset=".919" stop-color="#f3debb"/><stop offset="1" stop-color="#f8e4c9"/></linearGradient><linearGradient id="j" gradientUnits="userSpaceOnUse" x1="138.948" y1="2.214" x2="194.255" y2="57.521"><stop offset="0" stop-color="#ead18f"/><stop offset=".076" stop-color="#e1c477"/><stop offset=".221" stop-color="#d1af4e"/><stop offset=".335" stop-color="#c8a235"/><stop offset=".405" stop-color="#c49d2c"/><stop offset=".559" stop-color="#d4b35c"/><stop offset=".766" stop-color="#e7cd97"/><stop offset=".919" stop-color="#f3debb"/><stop offset="1" stop-color="#f8e4c9"/></linearGradient><linearGradient id="k" gradientUnits="userSpaceOnUse" x1="158.286" y1="15.433" x2="213.592" y2="70.739"><stop offset="0" stop-color="#ead18f"/><stop offset=".076" stop-color="#e1c477"/><stop offset=".221" stop-color="#d1af4e"/><stop offset=".335" stop-color="#c8a235"/><stop offset=".405" stop-color="#c49d2c"/><stop offset=".559" stop-color="#d4b35c"/><stop offset=".766" stop-color="#e7cd97"/><stop offset=".919" stop-color="#f3debb"/><stop offset="1" stop-color="#f8e4c9"/></linearGradient><linearGradient id="l" gradientUnits="userSpaceOnUse" x1="25.023" y1="13.234" x2="80.202" y2="68.414"><stop offset="0" stop-color="#ead18f"/><stop offset=".076" stop-color="#e1c477"/><stop offset=".221" stop-color="#d1af4e"/><stop offset=".335" stop-color="#c8a235"/><stop offset=".405" stop-color="#c49d2c"/><stop offset=".559" stop-color="#d4b35c"/><stop offset=".766" stop-color="#e7cd97"/><stop offset=".919" stop-color="#f3debb"/><stop offset="1" stop-color="#f8e4c9"/></linearGradient><linearGradient id="m" gradientUnits="userSpaceOnUse" x1="21.153" y1="8.524" x2="76.46" y2="63.831"><stop offset="0" stop-color="#ead18f"/><stop offset=".076" stop-color="#e1c477"/><stop offset=".221" stop-color="#d1af4e"/><stop offset=".335" stop-color="#c8a235"/><stop offset=".405" stop-color="#c49d2c"/><stop offset=".559" stop-color="#d4b35c"/><stop offset=".766" stop-color="#e7cd97"/><stop offset=".919" stop-color="#f3debb"/><stop offset="1" stop-color="#f8e4c9"/></linearGradient><linearGradient id="n" gradientUnits="userSpaceOnUse" x1="26.703" y1="54.605" x2="81.764" y2="109.667"><stop offset="0" stop-color="#ead18f"/><stop offset=".076" stop-color="#e1c477"/><stop offset=".221" stop-color="#d1af4e"/><stop offset=".335" stop-color="#c8a235"/><stop offset=".405" stop-color="#c49d2c"/><stop offset=".559" stop-color="#d4b35c"/><stop offset=".766" stop-color="#e7cd97"/><stop offset=".919" stop-color="#f3debb"/><stop offset="1" stop-color="#f8e4c9"/></linearGradient></svg>