<?xml version="1.0" encoding="utf-8"?><svg xmlns="http://www.w3.org/2000/svg" width="99" height="81" viewBox="52.602 -0.027 99 81"><linearGradient id="a" gradientUnits="userSpaceOnUse" x1="66.816" y1="44.27" x2="122.123" y2="99.576"><stop offset="0" stop-color="#ead18f"/><stop offset=".076" stop-color="#e1c477"/><stop offset=".221" stop-color="#d1af4e"/><stop offset=".335" stop-color="#c8a235"/><stop offset=".405" stop-color="#c49d2c"/><stop offset=".559" stop-color="#d4b35c"/><stop offset=".766" stop-color="#e7cd97"/><stop offset=".919" stop-color="#f3debb"/><stop offset="1" stop-color="#f8e4c9"/></linearGradient><linearGradient id="b" gradientUnits="userSpaceOnUse" x1="86.154" y1="57.489" x2="141.46" y2="112.794"><stop offset="0" stop-color="#ead18f"/><stop offset=".076" stop-color="#e1c477"/><stop offset=".221" stop-color="#d1af4e"/><stop offset=".335" stop-color="#c8a235"/><stop offset=".405" stop-color="#c49d2c"/><stop offset=".559" stop-color="#d4b35c"/><stop offset=".766" stop-color="#e7cd97"/><stop offset=".919" stop-color="#f3debb"/><stop offset="1" stop-color="#f8e4c9"/></linearGradient><linearGradient id="c" gradientUnits="userSpaceOnUse" x1="21.153" y1="14.988" x2="76.46" y2="70.294"><stop offset="0" stop-color="#ead18f"/><stop offset=".076" stop-color="#e1c477"/><stop offset=".221" stop-color="#d1af4e"/><stop offset=".335" stop-color="#c8a235"/><stop offset=".405" stop-color="#c49d2c"/><stop offset=".559" stop-color="#d4b35c"/><stop offset=".766" stop-color="#e7cd97"/><stop offset=".919" stop-color="#f3debb"/><stop offset="1" stop-color="#f8e4c9"/></linearGradient><path fill="#B2B2B2" d="M67.181 27.016c-.113.353-.229.721-.343 1.104-.147.412-.288.618-.419.618-.218 0-.567-.449-1.05-1.347-.481-.898-.856-1.361-1.128-1.391.184.765.366 1.531.551 2.296.184.912.275 1.839.275 2.781 0 .087-.061.574-.184 1.457-.315-.413-.774-1.884-1.379-4.415a31.876 31.876 0 0 0-.354-1.37c-.184-.676-.319-1.015-.407-1.015l-.997-.132c.018.294.026.559.026.794 0 .294-.014.736-.044 1.325a31.303 31.303 0 0 0-.044 1.325c0 2.148-.118 4.047-.354 5.695-.387-.618-.58-1.751-.58-3.4v-5.475a.369.369 0 0 0-.04-.132c-.027-.029-.084-.029-.172 0-.463 0-.717.015-.761.045-.349.059-.587.206-.708.441-.097.971-.343 2.208-.735 3.709-.419 1.619-.77 2.59-1.05 2.914-.017-.5-.025-.766-.025-.795 0-.825.074-1.81.222-2.958.229-1.854.347-2.826.356-2.914h-.093c-.123 0-.392.176-.807.529-.417.354-.694.633-.834.839a171 171 0 0 1-.919 1.589l-.066-1.987c0-.824.084-1.567.25-2.229s.377-1.037.63-1.125l.197.529a4.87 4.87 0 0 1 2.205-1.413c.236-.088.983-.25 2.243-.486v-1.147l-.118-.133c-.541.088-.896.176-1.063.265-.419.176-.752.529-.996 1.06l-.263-1.899c.192-1.207.323-3.121.394-5.74-.097-.264-.176-.956-.235-2.075l.131-1.589.234-.397.276.353c.212-.294.779-.544 1.707-.751 0-.177-.019-.323-.053-.441l-.026-.176a4.992 4.992 0 0 1-.119-.927c0-.678.154-1.104.46-1.281.079-.059.154-.132.224-.221.132.471.315.707.551.707l.302 2.34c.368.089.941.265 1.72.53l.222-.707.054-.044c.062 0 .162.243.302.729.141.486.271.816.393.993l-.289 1.06c-.087 1.413-.12 3.606-.104 6.579 0 .118-.064.442-.19.972a9.49 9.49 0 0 0-.242 1.588c-.166-.441-.351-.676-.552-.706-.114.029-.293-.015-.537-.132-.132.117-.311.162-.539.132-.263-.029-.441-.029-.538 0v.441c0 .294.018.5.054.618l1.836.442c.726.294 1.816.633 3.268 1.016.699.059 1.05.456 1.05 1.192a5.91 5.91 0 0 1-.394 1.016 6.384 6.384 0 0 0-.382.927zm-9.466-8.64a33.085 33.085 0 0 1-.657 1.818c-.149.238-.362.649-.643 1.242a2.757 2.757 0 0 0-.184.576h-.184a5.325 5.325 0 0 1-.236-1.506c0-1.153.083-1.876.249-2.173h.236c.332-.382.84-.986 1.522-1.81.105.588.157 1 .157 1.236-.085.205-.173.411-.26.617zm-.079-4.105c-.332.47-.647.676-.945.617l-.104.751-.328-.529c-.069-.706-.105-1.192-.105-1.457 0-1.266.127-1.899.381-1.899.053 0 .196.118.434.353l.865-.441c.097.264.145.824.145 1.678-.177.116-.291.426-.343.927zm2.899-8.125c-.009.089-.026.398-.052.928l-.906.22-.366 2.826c-.157-.146-.271-.514-.342-1.103-.087-.765-.154-1.222-.196-1.369a1.222 1.222 0 0 0-.46-.089c-.535 0-1.024.31-1.47.928a8.85 8.85 0 0 1-.132-1.413c0-.441.049-.89.145-1.347.097-.457.215-.684.355-.684.516 0 .901-.176 1.154-.53l-.078-.397.313-1.501c.07-.147.137-.221.196-.221.063 0 .163.147.302.441.184.353.285.544.303.574v.883c.045.207.119.294.225.266.409-.148.606-.222.589-.222.298 0 .486.427.564 1.28a1.435 1.435 0 0 0-.144.53zm2.979 11.391l-.014-.22c-.007-.177-.024-.265-.051-.265l-.538.22c-.184 0-.46-.043-.826-.132-.369-.088-.645-.133-.828-.133-.226 0-.566.059-1.018.177-.449.117-.793.176-1.028.176a3.738 3.738 0 0 0-.132 1.061c0 .353.053.53.158.53.069 0 .166-.03.289-.088.156-.088.257-.133.301-.133a4.18 4.18 0 0 1 1.364-.221c.691 0 1.465.074 2.322.221l.04-.309c-.008-.207-.021-.501-.039-.884zm-.052-3.856c-.263-.471-1.155-.707-2.678-.707-.603 0-1.079.192-1.43.575-.026.412-.044.927-.053 1.545l.053.044c.401-.442 1.172-.662 2.31-.662h1.037c.026 0 .267.074.722.22l.065-.087-.026-.928zm1.758-9.124c.683 0 1.229.412 1.641 1.235l-.472 2.252a.795.795 0 0 1-.341.088c-.167 0-.409-.081-.729-.243-.319-.161-.559-.242-.715-.242l-.459 2.134-.263.485c-.079 0-.14-.14-.185-.419a2.805 2.805 0 0 1-.038-.684l.105-1.286c-.072-.213-.232-.318-.486-.318-.122 0-.306.083-.551.25-.246.167-.434.25-.565.25-.191 0-.302-.267-.327-.797a51.952 51.952 0 0 0-.026-.534l.434-2.614c.061-.118.112-.177.157-.177.087 0 .194.162.321.486.127.324.221.5.282.53.096-.206.275-.279.537-.221.237.029.395-.088.473-.354a7.24 7.24 0 0 1-.118-1.104c.036-.206.271-.603.709-1.191.167 0 .372.544.616 1.633-.061.088-.147.221-.261.397-.027.059-.041.191-.041.397.018.032.118.047.302.047zm-.222 10.949c-.054-.324-.08-.633-.08-.927s.022-.5.066-.618c.061-.324.192-.736.395-1.237a6.53 6.53 0 0 0 .354-1.368l.276-.266c.131-.118.209-.177.234-.177.28 0 .553.56.815 1.679-.221.912-.535 1.589-.945 2.031-.367.294-.739.589-1.115.883zm1.18 5.652c-.611-1.295-1.001-2.546-1.168-3.753.089-.971.233-1.457.435-1.457.402 0 1.041.853 1.916 2.561-.527 1.766-.921 2.649-1.183 2.649zM80.543 16.787c-.375.088-.563.972-.563 2.649 0 2.944.057 5.181.17 6.712-.044.265-.069.706-.079 1.324a25.781 25.781 0 0 1-.063 1.457c-.055.559-.498 1.869-1.33 3.93-.229.56-.469.971-.724 1.236-.192.088-.477.28-.854.574-.156-.236-.488-.353-.996-.353-.017 0-.101-.052-.249-.155-.149-.104-.367-.332-.655-.684-.115-.235-.231-.479-.35-.729-.117-.25-.246-.419-.387-.508.009-.177.071-.677.184-1.501.018-.118.035-.279.053-.485.307-.383.739-.677 1.3-.884.63-.206 1.071-.412 1.325-.618.252-.206.508-.412.762-.618.314-.324.519-.839.615-1.546.063-.471.093-1.044.093-1.722 0-.207-.006-.515-.014-.927v-.883c0-2.325.048-3.958.144-4.901l-.051-.353c-.989-1.294-2.306-1.942-3.95-1.942-1.066 0-2.333.692-3.792 2.075a28.742 28.742 0 0 0-.264 1.81 637.427 637.427 0 0 1-.354 4.812c-.203 2.061-.513 3.136-.933 3.224l-.117-1.458c.227-5.445.507-9.436.839-11.97l.25-.623h.105c.078 0 .162.118.249.355.122.355.192.562.21.62 1.583-1.507 3.062-2.261 4.436-2.261.918 0 1.973.341 3.162 1.021l.896-.622c.368.383.657.945.867 1.685l.092 1.019-.027 1.24zM79.8 5.298c-.062.324-.123.884-.183 1.68-.124 1.563-.229 2.625-.316 3.184-.192 1.121-.458 1.68-.799 1.68-.114 0-.256-.088-.421-.265-.22-.176-.359-.279-.421-.309-.401-.235-.909-.354-1.521-.354-.438 0-.688-.015-.748-.044-.201-.088-.328-.132-.38-.132-.481 0-1.19.265-2.127.794-1.042.559-1.701 1.133-1.981 1.722-.307 0-.459-.662-.459-1.987l.34-1.595.264.132c2.029-1.359 4.12-2.041 6.273-2.041.235 0 .651.236 1.246.707a2.28 2.28 0 0 0 .014-.177c0-.148-.009-.516-.026-1.104a2.007 2.007 0 0 0-1.339-.795c-.718-.118-1.173-.235-1.365-.353-.131.147-.327.221-.591.221-.532 0-1.206.132-2.021.398-1.032.324-1.631.721-1.798 1.191-.358 0-.538-.794-.538-2.384.07-.207.105-.618.105-1.237h.46c-.062 0 .174-.146.709-.441 1.188-.647 2.33-.971 3.424-.971.954 0 1.834.205 2.638.619.412-.473.668-.708.773-.708.019.03.097.146.238.353a3.27 3.27 0 0 1 .55 1.902v.314zm-1.851 17.39v.088l.013.177.027.486c-.045.118-.085.354-.126.707-.038.353-.07.588-.098.706-.105.471-.445.707-1.023.707-.105 0-.196.074-.275.221-.962-.177-1.526-.266-1.693-.266-.359 0-.886.25-1.581.751-.695.5-1.205.75-1.528.75-.157 0-.312-.56-.46-1.678l.289-3.355c-.053-.206-.082-.522-.092-.949-.009-.427-.03-.729-.066-.905.026-.589.044-.927.053-1.016.044-.324.127-.53.249-.618l.276.177.196-.177.184.177c1.427-.913 2.516-1.37 3.269-1.37.14 0 .345.096.616.288.271.19.477.287.617.287a.454.454 0 0 0 .189-.066.46.46 0 0 1 .191-.066c.184 0 .362.147.537.441.228.354.342.854.342 1.501 0 .059-.035 1.06-.106 3.002zm-.945-1.368c-.393-.5-1.141-.75-2.243-.75-.157 0-.534.147-1.129.442-.629.265-.987.5-1.075.706-.088.207-.132.56-.132 1.06v.31c.762-.5 1.335-.75 1.72-.75.018 0 .975.133 2.874.397.009-.118.013-.294.013-.53a11.26 11.26 0 0 0-.028-.885zM93.814 14.579c-.097.382-.144 1.001-.144 1.855 0 .177-.007.434-.021.772-.013.339-.02.596-.02.773.045 4.621.065 7.094.065 7.417 0 2.325-.057 4.562-.171 6.711l-.104-.044c-.035-.029-.141.235-.315.795a6.233 6.233 0 0 1-.224.53c-.219-2.384-.371-5.166-.458-8.345-.019-.825-.063-3.65-.133-8.477-.506-.825-1.355-1.295-2.545-1.413-.078 0-.235-.029-.473-.089a3.256 3.256 0 0 0-.459-.044c-.07 0-.157.03-.263.089a2.045 2.045 0 0 0-.262.132c.061-.029-.412-.044-1.417-.044-1.147 0-2.004.56-2.573 1.677-.044.295-.123 1.546-.236 3.753-.07 1.178-.171 2.944-.302 5.298-.035 1.03-.117 2.547-.25 4.548-.087.971-.231 1.781-.432 2.428-.246-.206-.368-1.001-.368-2.384 0-1.589.066-3.547.197-5.873l.341-5.828c.069-1.648.105-2.708.105-3.179 0-.059-.049-.287-.145-.684-.097-.398-.145-.714-.145-.949 0-.324.037-.596.112-.817.073-.221.15-.435.229-.641l.066.045c.069-.119.171-.25.302-.398.07-.029.18-.074.328-.132.21.442.42.78.629 1.016.298-.206.674-.632 1.128-1.28.036-.147.097-.397.186-.751.235-.795.595-1.987 1.075-3.576.142-.354.342-.942.604-1.766l.064-1.545c.202-.735.5-1.104.893-1.104.157 0 .387.619.684 1.855.061.265.13.5.209.706-.105.736-.228 1.281-.367 1.634-.157.235-.381.692-.67 1.369l-.091.353c-.202.472-.474 1.295-.813 2.473l.117.132c.201-.117.919-.264 2.152-.441.489-.059.714-.104.67-.133l1.718.663c.054-.265.154-.516.302-.751.184-.323.305-.537.361-.64a.87.87 0 0 1 .282-.287c.063.088.109.22.146.397.033.736.126 1.222.274 1.457.079.088.159.199.243.331a2.2 2.2 0 0 1 .229.597 10.677 10.677 0 0 1-.31 1.809zm-2.23 5.873c0 .059.018.176.053.353l-.249 1.06c-.009.146-.021.404-.033.772-.014.368-.019.64-.019.816l.039 1.854c-.062.266-.097.56-.105.884-.019.5-.031.809-.039.927-.053.53-.205.913-.461 1.148-.19.118-.389.235-.59.354-.07.059-.122.088-.158.088l-.59-.133h-2.048c-.864.177-1.518.706-1.954 1.59-.148-.294-.249-.942-.302-1.942-.019-.383-.065-.648-.144-.795 0-1.56.117-2.398.354-2.517l.077-2.561c.009-.707.02-1.413.028-2.119.026-.942.135-1.472.327-1.589.026.03.062.088.104.176l.105.221c.097.206.158.294.184.265h.041c.829-.706 1.53-1.06 2.1-1.06.147 0 .523.073 1.127.221l.59.177c.238.03.413-.088.525-.354.044-.118.131-.265.263-.441.088.294.232.566.433.817.201.25.355.596.46 1.038a2.612 2.612 0 0 0-.118.75zm-1.221 2.737c-.263-.707-.559-1.12-.893-1.237-.332-.117-.66-.235-.983-.353l-.196.133-.118-.133c-.255 0-.569.133-.946.397-.595.383-.909.574-.944.574-.077.472-.114 1.311-.105 2.517.167-.029.538-.147 1.116-.354.473-.147.849-.221 1.128-.221.177 0 .827.162 1.956.486.025-.383.04-.619.04-.707a58.28 58.28 0 0 0-.055-1.102zM98.545 14.094c-.045.97-.106 2.443-.185 4.415-.019.589-.027 2.311-.027 5.166 0 .147-.005.375-.013.684-.008.31-.013.538-.013.685 0 .235.021.412.065.53.22-.266.354-.383.407-.353.061.147.166.368.313.663-.068.47-.2 1.707-.393 3.708-.131 1.354-.359 2.473-.684 3.356-.193-.148-.324-.413-.395-.795-.046-.235-.121-.795-.231-1.678-.111-.883-.164-1.398-.164-1.545l.039-1.236a1924.32 1924.32 0 0 1-.052-6.138c0-2.737.197-7.358.593-13.864l-.133-1.987c.036-.648.25-.971.646-.971.464 0 .744.706.841 2.12-.312 1.5-.518 3.914-.614 7.24zm8.851-2.002c-.209.648-.551 1.545-1.023 2.693-.444-.853-.844-1.28-1.192-1.28a.5.5 0 0 0-.198.045c-.044.5-.078 2.369-.104 5.607-.037 7.182-.832 11.862-2.39 14.041-.517.735-.998 1.089-1.443 1.059l-.25-.044c-.192-.824-.288-1.501-.288-2.031 0-1.177.219-2.09.656-2.738.359-.412.718-.81 1.076-1.192.48-.677.892-2.061 1.233-4.15.331-1.973.499-3.886.499-5.74 0-.207-.014-1.825-.04-4.857-.113-.206-.249-.308-.406-.308-.438 0-1.532.604-3.281 1.81-.114-.236-.171-.662-.171-1.28 0-2.179.215-3.327.644-3.444l.315.309c.655-.677 1.539-1.133 2.65-1.369.025-.354.039-.663.039-.927 0-.472-.034-.986-.105-1.545a26.817 26.817 0 0 1-.183-1.458c.068-1.236.266-1.854.591-1.854.541 0 .913.383 1.114 1.148-.21.942-.315 1.487-.315 1.634 0 .235.045 1.177.133 2.826.306.324.773.486 1.402.486.631 0 1.101.147 1.405.441v1.236c-.121.264-.244.558-.368.882zM113.313 20.322c-.655.762-1.482 1.167-2.479 1.217.008 1.869-.009 4.661-.054 8.375a54.847 54.847 0 0 1-.197 3.431l-.327.185a29.366 29.366 0 0 1-.473-5.128c0 .024.018-.332.052-1.07.036-.689.063-1.648.08-2.878 0-.097.008-.27.026-.516a8.72 8.72 0 0 0 .025-.553V11.799c0-.418.007-1.034.02-1.844.014-.813.021-1.415.021-1.809 0-.959-.089-2.238-.263-3.837l.014-.332.064-.222.119-.11.104.11.132.037c.166.05.28.074.341.074.052 0 .174-.062.366-.185a7.05 7.05 0 0 1 1.195-.664c.245-.098.594.147 1.05.737.552.713.976 2.03 1.272 3.948.237 1.599.354 3.357.354 5.276 0 1.5-.117 2.927-.354 4.28-.269 1.501-.63 2.523-1.088 3.064zm-1.027-13.725c-.489 0-.953.16-1.391.479.019 4.919 0 8.474-.053 10.663.271.098.434.147.485.147.919 0 1.61-.627 2.074-1.881.28-.788.428-1.439.445-1.956.036-1.131.053-1.894.053-2.287 0-1.378-.155-2.583-.466-3.616-.308-1.033-.691-1.549-1.147-1.549zM120.268 31.585c-.404 1.205-.845 1.809-1.327 1.809-.895 0-1.6-1.453-2.116-4.356-.422-2.363-.631-4.913-.631-7.646 0-3.962.034-6.718.104-8.27.157-3.2.508-5.724 1.052-7.57.395-1.328.863-1.993 1.407-1.993.516 0 .835.703.959 2.104h.144c.605 0 1.092 1.367 1.459 4.098.28 2.119.421 4.173.421 6.167-.001 7.534-.492 12.751-1.472 15.657zm-.778-24.25l-.052.037h-.104c-.063 0-.154-.013-.275-.037a1.528 1.528 0 0 0-.289-.037c-.264 0-.521.394-.774 1.182-.43 1.23-.687 3.037-.774 5.424-.027.666-.039 2.646-.039 5.945 0 2.165.104 4.158.314 5.98.289 2.485.718 3.727 1.287 3.727.234 0 .497-.356.786-1.071.735-1.821 1.104-6.176 1.104-13.066 0-1.254-.114-2.707-.343-4.357-.245-1.844-.524-3.087-.841-3.727zM125.733 33.308c-.237 0-.56-.295-.973-.885-.532-.713-.962-1.697-1.284-2.951-.359-1.353-.54-2.829-.54-4.428 0-1.008.037-1.795.106-2.362l.314-.443c.149.074.289.591.421 1.55.184 1.229.288 1.894.313 1.992.308 1.181.585 1.943.833 2.288.251.344.639.515 1.162.515.28 0 .535-.479.761-1.438.192-.91.289-1.819.289-2.729 0-2.632-.389-4.563-1.167-5.792-.435-.615-.863-1.23-1.283-1.845a6.449 6.449 0 0 1-.984-2.177c-.252-1.058-.38-2.472-.38-4.243 0-1.992.21-3.764.631-5.317.464-1.726 1.041-2.59 1.731-2.59.552 0 1.045.433 1.483 1.297.499.986.747 2.269.747 3.844l-.077.664-.119.922c-.262-.467-.633-1.119-1.114-1.955-.352-.542-.736-.813-1.155-.813-.395 0-.694.369-.9 1.107-.204.738-.307 1.684-.307 2.84 0 .615.078 1.205.234 1.771l.446 1.402c.952.983 1.583 1.759 1.888 2.324.533 1.058.928 2.632 1.18 4.722.132 1.132.196 2.41.196 3.837 0 .123.007.313.02.571.015.258.021.449.021.571 0 1.501-.127 2.866-.381 4.096-.28 1.304-.643 2.238-1.089 2.804-.444.568-.787.851-1.023.851zM137.973 18.421c-.245 1.177-.688 2.737-1.326 4.68-.848 2.59-1.99 5.181-3.424 7.771-.43.765-.736 1.28-.92 1.545-.37.589-.686.986-.949 1.192-.034-.265-.102-.596-.197-.994s-.151-.729-.17-.994l.091-.706-.118-1.679a26.8 26.8 0 0 0 .289-3.311c.019-.441.027-1.604.027-3.488v-6.755c.026-2.649.109-4.857.25-6.623-.017-.441-.102-1.111-.257-2.008-.152-.898-.229-1.465-.229-1.7 0-.559.157-1.03.474-1.413.236-.294.461-.441.671-.441.377 0 .709.485.998 1.457.01.677-.062 1.516-.216 2.517-.152 1.001-.247 1.722-.282 2.163a96.777 96.777 0 0 0-.073 2.517l-.137 6.403v1.81c0 .118-.009.324-.026.618-.017.295-.025.529-.025.707 0 .323.021 1.781.064 4.371.622-.766 1.459-2.251 2.514-4.46 1.054-2.207 1.826-4.091 2.316-5.651.341-1.148.909-2.929 1.705-5.343l.065 1.722c-.069.294-.213 1.111-.432 2.451a74.331 74.331 0 0 1-.683 3.642zM144.348 16.139c-.263.647-.533 1.045-.813 1.192a4.134 4.134 0 0 0-.552.354 3.417 3.417 0 0 1-.577.486 4.528 4.528 0 0 0-.656.221 1.806 1.806 0 0 0-.643.53c-.069-.294-.127-.75-.171-1.369-.035-.412-.092-.691-.169-.838-.01-.235-.015-.427-.015-.574 0-.589.06-1.155.178-1.7.118-.544.268-.802.452-.772.533.059 1.251.059 2.152 0 .366-.03.617.014.747.133.237.235.422.794.552 1.677-.176.086-.337.307-.485.66zm4.895 3.974c-2.44 7.418-4.851 12.054-7.231 13.908l-.682-1.722a7.717 7.717 0 0 1-.027-.618c0-.56.149-1.708.446-3.444.421-.294 1.037-.795 1.851-1.501.7-.736 1.492-1.987 2.375-3.753a40.953 40.953 0 0 0 2.165-5.166l1.104-3.18c.472-1.294.86-2.134 1.166-2.517l.316.31c-.123 2.473-.617 5.034-1.483 7.683zM145.62 8.06c-.165.589-.302.854-.407.795l-2.243-.972c-.035-.03-.1.021-.196.154s-.171.199-.224.199l-.092-.044-.224-2.119c-.034-.265-.017-.662.054-1.192.14-1.001.45-1.502.932-1.502.112 0 .254.104.42.309.201.266.332.427.394.486.227.117.591.383 1.088.794.518.5.841 1.266.972 2.296-.176.001-.332.265-.474.796zm4.095 1.28l-.264 1.192-.234-.089c-.316-.588-.587-1.427-.814-2.517a178.77 178.77 0 0 0-.302-1.368 9.535 9.535 0 0 0-.38-1.237l.38-.618c.341.471.679.927 1.011 1.369.411.707.617 1.604.617 2.693 0 .177-.005.369-.014.575zm.46-2.958l-.289.265c-.21-.324-.435-.824-.669-1.501a72.767 72.767 0 0 0-.591-1.81 4.856 4.856 0 0 0-.564-1.147l.498-.619c.621.413 1.016.751 1.181 1.016.404.618.631 1.648.684 3.091l-.25.705z"/><path fill="#2A4073" d="M66.174 25.856c-.114.354-.228.721-.341 1.104-.149.412-.288.618-.421.618-.218 0-.568-.449-1.05-1.347-.481-.897-.857-1.361-1.128-1.391l.55 2.296c.185.912.277 1.839.277 2.781 0 .089-.062.574-.184 1.458-.316-.413-.775-1.883-1.379-4.415a31.325 31.325 0 0 0-.354-1.369c-.184-.677-.319-1.015-.407-1.015l-.995-.133c.017.294.025.56.025.794 0 .295-.014.736-.044 1.325-.03.588-.045 1.031-.045 1.324 0 2.148-.116 4.048-.355 5.696-.387-.618-.58-1.751-.58-3.4v-5.475a.388.388 0 0 0-.038-.132c-.027-.029-.084-.029-.171 0-.465 0-.719.015-.761.044-.352.059-.587.207-.709.441-.097.972-.342 2.208-.735 3.709-.421 1.618-.77 2.59-1.05 2.914-.018-.5-.026-.766-.026-.795 0-.824.075-1.81.223-2.958.228-1.854.347-2.825.355-2.914h-.093c-.123 0-.391.176-.807.53-.416.353-.694.633-.833.839-.184.324-.491.854-.92 1.589l-.065-1.987c0-.825.083-1.567.249-2.229.168-.662.377-1.037.631-1.126l.196.529a4.881 4.881 0 0 1 2.206-1.413c.235-.088.983-.25 2.242-.486v-1.147l-.116-.132c-.544.088-.898.176-1.063.265-.421.176-.752.529-.998 1.059l-.264-1.898c.194-1.207.325-3.121.396-5.74-.097-.265-.175-.957-.236-2.076l.131-1.589.236-.398.276.354c.21-.294.778-.544 1.706-.751 0-.176-.018-.324-.054-.441l-.025-.176a4.803 4.803 0 0 1-.118-.926c0-.677.152-1.104.459-1.281.078-.059.153-.133.224-.222.13.472.313.707.552.707l.302 2.34c.366.089.94.266 1.718.53l.224-.707.052-.044c.062 0 .162.243.302.729.141.486.271.817.395.993l-.289 1.06c-.088 1.413-.123 3.606-.105 6.578 0 .118-.063.442-.189.972-.127.53-.21 1.06-.243 1.59-.166-.442-.35-.677-.552-.706-.113.029-.292-.015-.537-.133-.132.118-.31.162-.539.133-.262-.03-.44-.03-.536 0v.44c0 .294.017.5.051.618l1.837.442c.727.294 1.815.633 3.268 1.016.701.059 1.05.455 1.05 1.191a5.829 5.829 0 0 1-.394 1.016 6.15 6.15 0 0 0-.384.928zm-9.467-8.639c-.14.443-.357 1.051-.656 1.817-.147.237-.362.649-.643 1.242a2.818 2.818 0 0 0-.184.576h-.184a5.332 5.332 0 0 1-.236-1.507c0-1.153.083-1.877.249-2.173h.238c.331-.382.838-.986 1.521-1.81.105.588.158 1 .158 1.236a67.56 67.56 0 0 1-.263.619zm-.078-4.106c-.332.47-.647.676-.945.618l-.104.75-.329-.529c-.069-.706-.104-1.192-.104-1.456 0-1.267.126-1.899.38-1.899.054 0 .196.118.434.353l.866-.44c.096.264.145.823.145 1.677-.176.116-.29.425-.343.926zm2.901-8.125c-.009.089-.026.397-.055.928l-.904.22-.367 2.826c-.158-.147-.271-.514-.342-1.104-.087-.765-.152-1.222-.197-1.369a1.228 1.228 0 0 0-.459-.088c-.533 0-1.022.309-1.469.927-.088-.53-.132-1-.132-1.412 0-.442.048-.891.145-1.347.096-.456.214-.684.354-.684.515 0 .9-.177 1.155-.53l-.08-.397.315-1.501c.069-.147.136-.221.197-.221s.161.147.302.441c.184.353.284.545.303.574v.883c.042.207.116.294.222.265.412-.147.608-.221.59-.221.299 0 .487.427.565 1.28a1.385 1.385 0 0 0-.143.53zm2.979 11.392l-.015-.221c-.008-.177-.025-.266-.052-.266l-.537.222c-.185 0-.461-.045-.828-.133-.367-.089-.643-.133-.826-.133-.228 0-.566.059-1.017.177-.451.118-.795.177-1.03.177a3.729 3.729 0 0 0-.131 1.06c0 .354.052.531.156.531.071 0 .167-.03.289-.089.158-.088.259-.133.302-.133a4.19 4.19 0 0 1 1.365-.221c.691 0 1.465.074 2.323.221l.039-.309-.038-.883zm-.054-3.856c-.263-.471-1.155-.707-2.678-.707-.604 0-1.08.191-1.43.574-.026.412-.043.927-.051 1.545l.051.044c.403-.442 1.174-.662 2.311-.662h1.036c.026 0 .267.074.722.22l.065-.088-.026-.926zm1.76-9.125c.682 0 1.229.412 1.641 1.235l-.473 2.252a.793.793 0 0 1-.343.088c-.165 0-.407-.081-.728-.243s-.558-.243-.715-.243l-.459 2.134-.263.485c-.079 0-.141-.14-.184-.419a2.789 2.789 0 0 1-.041-.685l.106-1.287c-.07-.212-.231-.317-.486-.317-.122 0-.306.083-.551.25-.245.167-.434.25-.564.25-.192 0-.301-.267-.328-.796a48.972 48.972 0 0 0-.026-.533l.435-2.614c.06-.118.112-.177.156-.177.088 0 .194.162.321.486.127.323.222.5.282.53.097-.207.275-.28.538-.221.236.029.394-.089.473-.354a7.125 7.125 0 0 1-.118-1.104c.035-.206.271-.604.709-1.192.166 0 .371.543.617 1.633-.063.089-.149.221-.263.397-.026.059-.039.192-.039.397.018.033.119.048.303.048zm-.225 10.95a5.85 5.85 0 0 1-.077-.927c0-.294.021-.5.063-.619.063-.324.193-.735.395-1.236.175-.471.293-.927.354-1.368l.276-.265c.13-.118.208-.176.236-.176.278 0 .55.559.813 1.677-.218.913-.534 1.59-.943 2.031-.369.294-.741.589-1.117.883zm1.182 5.652c-.613-1.295-1.002-2.546-1.168-3.753.088-.971.232-1.457.434-1.457.401 0 1.041.854 1.915 2.561-.525 1.765-.918 2.649-1.181 2.649z"/><path d="M79.537 15.627c-.376.088-.563.971-.563 2.649 0 2.943.057 5.181.171 6.711-.045.265-.072.706-.08 1.325A23.492 23.492 0 0 1 79 27.77c-.052.559-.496 1.869-1.33 3.929-.227.56-.468.972-.722 1.236-.192.088-.477.28-.853.574-.157-.235-.49-.353-.997-.353-.018 0-.102-.051-.25-.155-.149-.103-.367-.331-.656-.684-.114-.235-.229-.478-.348-.729-.118-.251-.247-.42-.388-.508.009-.177.071-.677.184-1.5a7.31 7.31 0 0 0 .054-.486c.306-.383.74-.677 1.299-.883.63-.206 1.071-.412 1.325-.617l.762-.619c.313-.323.521-.838.616-1.545.062-.471.093-1.045.093-1.722 0-.206-.005-.515-.015-.927v-.884c0-2.325.049-3.958.146-4.9l-.054-.353c-.987-1.295-2.305-1.943-3.949-1.943-1.067 0-2.331.691-3.792 2.075a27.986 27.986 0 0 0-.263 1.81c-.114 1.62-.231 3.224-.354 4.813-.201 2.06-.512 3.135-.932 3.223l-.118-1.458c.227-5.445.507-9.435.841-11.97l.247-.622h.106c.077 0 .162.118.25.354.12.355.192.562.208.621 1.585-1.507 3.063-2.262 4.437-2.262.918 0 1.973.341 3.163 1.021l.895-.622c.37.384.658.946.867 1.686l.093 1.019-.028 1.238zm-.745-11.489c-.06.324-.12.883-.183 1.68-.122 1.564-.227 2.625-.314 3.185-.192 1.121-.459 1.68-.8 1.68-.115 0-.255-.089-.421-.265a3.292 3.292 0 0 0-.42-.31c-.401-.235-.91-.353-1.522-.353-.438 0-.687-.015-.748-.044-.201-.088-.327-.132-.38-.132-.481 0-1.189.265-2.125.795-1.042.559-1.703 1.133-1.982 1.721-.307 0-.46-.662-.46-1.987l.342-1.595.262.133c2.03-1.36 4.122-2.041 6.273-2.041.236 0 .651.235 1.245.707a2.23 2.23 0 0 0 .014-.176c0-.147-.009-.516-.025-1.104a2 2 0 0 0-1.339-.794c-.717-.118-1.172-.235-1.365-.353-.13.147-.327.221-.59.221-.534 0-1.208.132-2.021.397-1.032.324-1.632.721-1.798 1.191-.358 0-.538-.794-.538-2.384.07-.206.104-.617.104-1.236h.46c-.063 0 .175-.147.708-.442 1.19-.647 2.332-.971 3.426-.971.953 0 1.832.206 2.638.62.411-.472.669-.708.773-.708.018.029.097.147.236.354.384.59.568 1.225.55 1.902v.309zm-1.849 17.391v.088l.013.176.026.486c-.044.118-.085.353-.124.707-.04.353-.072.589-.099.706-.105.471-.446.707-1.024.707-.104 0-.196.074-.275.221-.962-.177-1.526-.265-1.692-.265-.359 0-.887.25-1.582.75-.694.5-1.205.75-1.527.75-.158 0-.312-.56-.46-1.677l.287-3.356c-.051-.206-.082-.522-.091-.949-.008-.427-.029-.729-.065-.905.027-.589.044-.927.053-1.016.044-.324.127-.53.249-.618l.276.177.197-.177.184.177c1.426-.913 2.514-1.369 3.267-1.369.14 0 .346.095.616.287.271.191.478.288.618.288a.459.459 0 0 0 .189-.066.457.457 0 0 1 .19-.066c.184 0 .362.147.538.441.228.354.342.854.342 1.5 0 .059-.035 1.06-.106 3.003zm-.945-1.369c-.394-.5-1.142-.75-2.244-.75-.157 0-.532.147-1.127.442-.632.265-.99.5-1.078.706-.086.206-.13.559-.13 1.06v.309c.762-.5 1.333-.75 1.718-.75.018 0 .976.132 2.875.397.009-.118.013-.294.013-.53a11.367 11.367 0 0 0-.027-.884zM92.809 13.42c-.096.383-.145 1.001-.145 1.854 0 .177-.007.435-.02.773s-.02.596-.02.772c.044 4.622.065 7.094.065 7.418 0 2.325-.057 4.563-.17 6.71l-.105-.044c-.035-.03-.14.236-.315.795a5.878 5.878 0 0 1-.223.53c-.218-2.384-.371-5.166-.459-8.345-.018-.825-.063-3.65-.132-8.477-.508-.824-1.356-1.295-2.545-1.413-.079 0-.235-.03-.474-.089a3.243 3.243 0 0 0-.459-.044.57.57 0 0 0-.261.088 2.188 2.188 0 0 0-.264.132c.062-.029-.411-.044-1.418-.044-1.146 0-2.003.56-2.572 1.678-.043.294-.121 1.545-.235 3.753-.07 1.177-.17 2.943-.302 5.298-.035 1.03-.118 2.546-.25 4.547-.087.971-.23 1.781-.433 2.428-.245-.206-.366-1-.366-2.384 0-1.589.064-3.547.195-5.873.114-1.943.229-3.885.341-5.828.07-1.649.105-2.708.105-3.18 0-.058-.048-.287-.145-.684-.096-.397-.145-.713-.145-.949 0-.324.037-.597.112-.817.073-.221.15-.435.229-.64l.066.044c.069-.118.171-.25.302-.397.07-.03.18-.074.328-.133.21.441.42.78.63 1.016.298-.206.675-.633 1.128-1.281.036-.146.096-.397.184-.75.237-.795.597-1.987 1.077-3.577.14-.353.34-.942.604-1.766L86.786 3c.201-.736.498-1.104.891-1.104.158 0 .386.619.684 1.855.061.264.131.5.209.706-.104.736-.227 1.281-.367 1.633-.157.236-.381.692-.67 1.369l-.091.354c-.201.471-.472 1.295-.814 2.473l.118.132c.202-.118.919-.265 2.152-.442.491-.059.714-.103.67-.132l1.719.663a2.17 2.17 0 0 1 .302-.751c.185-.325.305-.538.362-.641a.825.825 0 0 1 .282-.288c.06.089.108.222.144.398.034.735.126 1.222.275 1.457.079.087.159.199.242.331.084.132.159.331.23.596a11.705 11.705 0 0 1-.315 1.811zm-2.232 5.872c0 .059.018.177.054.354l-.25 1.059c-.009.147-.02.405-.032.773-.014.368-.02.641-.02.817l.039 1.854a4.286 4.286 0 0 0-.104.883c-.019.5-.031.809-.04.927-.053.53-.206.913-.46 1.148-.191.118-.389.236-.591.354-.069.059-.121.088-.157.088l-.591-.132h-2.047c-.866.177-1.517.706-1.954 1.588-.15-.294-.251-.941-.302-1.942-.018-.383-.066-.647-.146-.795 0-1.56.119-2.398.354-2.516l.079-2.562.026-2.119c.025-.942.136-1.472.328-1.589.026.029.06.088.105.177l.104.22c.097.207.157.294.185.266h.039c.83-.707 1.529-1.061 2.099-1.061.149 0 .524.074 1.128.221l.591.177c.237.029.412-.088.524-.353.045-.118.133-.265.263-.442.088.294.232.567.434.816.202.25.354.596.459 1.038a2.698 2.698 0 0 0-.117.751zm-1.22 2.737c-.263-.707-.56-1.118-.893-1.236a84.258 84.258 0 0 1-.984-.354l-.196.133-.117-.133c-.256 0-.569.133-.945.398-.595.382-.911.574-.945.574-.078.471-.113 1.31-.104 2.516.166-.029.536-.147 1.114-.353.473-.148.849-.222 1.129-.222.175 0 .826.163 1.956.486.025-.382.039-.618.039-.707a46.477 46.477 0 0 0-.054-1.102zM97.538 12.934c-.044.971-.105 2.443-.184 4.415-.018.589-.027 2.311-.027 5.166 0 .147-.005.375-.013.685-.009.309-.014.537-.014.684 0 .236.021.413.066.53.219-.265.354-.383.405-.353.063.147.168.368.316.663-.07.47-.201 1.707-.394 3.708-.133 1.354-.358 2.473-.686 3.356-.193-.147-.323-.412-.393-.795-.046-.235-.122-.794-.231-1.678-.111-.883-.165-1.398-.165-1.545l.039-1.236c-.035-3.797-.052-5.844-.052-6.138 0-2.736.197-7.357.593-13.863l-.132-1.987c.035-.647.249-.971.646-.971.463 0 .742.706.839 2.119-.311 1.5-.517 3.913-.613 7.24zm8.853-2.002c-.21.648-.551 1.545-1.022 2.693-.446-.854-.845-1.28-1.195-1.28a.51.51 0 0 0-.196.044c-.044.5-.08 2.369-.104 5.607-.035 7.182-.833 11.862-2.39 14.041-.516.735-.998 1.088-1.444 1.059l-.247-.044c-.193-.824-.289-1.5-.289-2.031 0-1.177.219-2.09.655-2.737.359-.412.718-.809 1.077-1.192.479-.677.892-2.06 1.232-4.15.333-1.973.499-3.886.499-5.741 0-.206-.013-1.824-.039-4.856-.114-.207-.25-.31-.407-.31-.438 0-1.531.604-3.28 1.81-.114-.235-.171-.662-.171-1.28 0-2.178.213-3.327.644-3.444l.313.309c.657-.677 1.541-1.132 2.651-1.368.026-.353.039-.663.039-.927 0-.472-.034-.987-.104-1.546a28.332 28.332 0 0 1-.184-1.458c.07-1.235.267-1.854.591-1.854.543 0 .914.383 1.116 1.148-.211.941-.315 1.486-.315 1.633 0 .235.044 1.177.131 2.826.306.324.774.486 1.404.486.629 0 1.098.147 1.403.441v1.236c-.124.267-.245.562-.368.885zM112.308 19.353c-.656.762-1.482 1.167-2.48 1.217.009 1.869-.008 4.661-.052 8.375a56.361 56.361 0 0 1-.196 3.431l-.328.186a29.3 29.3 0 0 1-.474-5.128 85.573 85.573 0 0 0 .132-3.948c0-.099.009-.27.026-.516.018-.246.026-.43.026-.553V10.83c0-.418.007-1.033.02-1.845.014-.812.02-1.415.02-1.808 0-.959-.088-2.238-.263-3.836l.014-.333.065-.221.118-.111.104.111.132.037c.166.049.279.075.341.075.053 0 .175-.062.368-.185a6.942 6.942 0 0 1 1.193-.665c.245-.098.596.147 1.05.738.551.713.977 2.029 1.273 3.948.236 1.597.354 3.356.354 5.275 0 1.5-.117 2.927-.354 4.28-.272 1.501-.634 2.521-1.089 3.063zM111.28 5.628c-.49 0-.953.16-1.391.48.018 4.918 0 8.473-.054 10.662.271.099.434.148.486.148.918 0 1.608-.627 2.072-1.882.28-.787.43-1.439.447-1.955.035-1.132.053-1.894.053-2.288 0-1.377-.154-2.583-.465-3.616-.31-1.033-.694-1.549-1.148-1.549zM119.261 30.616c-.403 1.206-.846 1.809-1.327 1.809-.894 0-1.599-1.453-2.116-4.355-.422-2.363-.631-4.913-.631-7.645 0-3.963.034-6.72.106-8.271.156-3.201.507-5.723 1.051-7.569.394-1.328.861-1.993 1.405-1.993.518 0 .837.702.959 2.104h.146c.604 0 1.09 1.367 1.458 4.098.281 2.119.422 4.174.422 6.167-.001 7.533-.493 12.749-1.473 15.655zm-.776-24.25l-.055.038h-.104c-.062 0-.152-.013-.276-.038a1.595 1.595 0 0 0-.289-.037c-.262 0-.519.394-.772 1.183-.43 1.229-.688 3.037-.774 5.425-.027.665-.04 2.645-.04 5.944 0 2.165.105 4.159.314 5.98.289 2.485.718 3.728 1.286 3.728.237 0 .499-.357.788-1.072.734-1.82 1.103-6.176 1.103-13.066 0-1.254-.114-2.708-.342-4.357-.245-1.844-.525-3.089-.839-3.728zM124.727 32.339c-.235 0-.561-.295-.971-.885-.535-.714-.963-1.698-1.285-2.952-.359-1.353-.539-2.829-.539-4.427 0-1.009.035-1.795.104-2.361l.314-.443c.149.074.289.59.421 1.549.184 1.23.288 1.895.314 1.992.307 1.181.584 1.943.834 2.288.248.345.636.517 1.161.517.28 0 .533-.479.762-1.439.192-.91.288-1.82.288-2.729 0-2.633-.389-4.563-1.166-5.793-.437-.614-.865-1.229-1.285-1.845a6.42 6.42 0 0 1-.982-2.176c-.254-1.058-.381-2.472-.381-4.243 0-1.992.21-3.765.629-5.317.464-1.726 1.041-2.59 1.733-2.59.55 0 1.046.433 1.482 1.297.499.986.748 2.269.748 3.843l-.079.666-.117.921c-.263-.467-.635-1.119-1.116-1.955-.349-.542-.735-.813-1.154-.813-.394 0-.692.37-.899 1.107-.205.739-.309 1.685-.309 2.84 0 .615.08 1.206.237 1.771.147.467.296.934.445 1.402.952.984 1.581 1.759 1.886 2.324.535 1.057.928 2.632 1.182 4.723.13 1.132.196 2.41.196 3.837 0 .123.008.313.02.572.014.258.02.448.02.571 0 1.5-.127 2.866-.381 4.096-.28 1.303-.643 2.238-1.088 2.803-.447.567-.787.849-1.024.849zM136.966 17.261c-.245 1.177-.687 2.738-1.325 4.68-.849 2.59-1.991 5.181-3.426 7.771-.428.765-.734 1.28-.917 1.545-.371.588-.687.986-.95 1.192a10.252 10.252 0 0 0-.197-.993 6.258 6.258 0 0 1-.17-.994l.092-.706-.118-1.678c.157-1.03.253-2.134.289-3.311.018-.442.026-1.605.026-3.488v-6.755c.025-2.649.109-4.856.25-6.623-.019-.441-.103-1.111-.257-2.009-.153-.898-.231-1.464-.231-1.7 0-.559.158-1.03.474-1.413.238-.294.462-.441.673-.441.376 0 .71.486.999 1.458.009.677-.064 1.516-.217 2.516-.154 1-.247 1.722-.282 2.164a85.508 85.508 0 0 0-.072 2.516l-.139 6.403v1.81c0 .118-.009.325-.026.619-.016.294-.025.53-.025.706 0 .324.021 1.782.065 4.372.62-.766 1.46-2.252 2.514-4.46 1.054-2.207 1.826-4.091 2.315-5.651.341-1.147.91-2.928 1.706-5.342l.066 1.722c-.07.294-.216 1.111-.434 2.45a74.223 74.223 0 0 1-.683 3.64zM143.342 14.98c-.263.647-.534 1.044-.814 1.192a4.282 4.282 0 0 0-.551.353 3.377 3.377 0 0 1-.577.486 4.583 4.583 0 0 0-.657.22 1.811 1.811 0 0 0-.642.53c-.07-.294-.128-.75-.172-1.37-.033-.412-.092-.691-.17-.838a15.879 15.879 0 0 1-.014-.574c0-.589.061-1.156.179-1.701.117-.543.269-.802.452-.772.532.059 1.25.059 2.151 0 .368-.029.617.015.748.133.236.235.42.795.552 1.678-.175.089-.337.309-.485.663zm4.894 3.973c-2.441 7.417-4.851 12.054-7.231 13.908l-.682-1.722a7.695 7.695 0 0 1-.026-.619c0-.559.148-1.707.445-3.443.421-.294 1.037-.794 1.852-1.501.699-.735 1.491-1.986 2.375-3.753a40.806 40.806 0 0 0 2.165-5.166l1.103-3.179c.472-1.294.861-2.134 1.168-2.517l.314.309c-.122 2.474-.616 5.034-1.483 7.683zm-3.622-12.054c-.166.589-.302.854-.407.795l-2.243-.972c-.036-.029-.101.022-.197.155-.096.132-.171.199-.223.199l-.093-.044-.223-2.12c-.035-.264-.017-.662.053-1.191.141-1.001.45-1.501.932-1.501.113 0 .254.103.42.309.201.265.332.427.395.486.227.118.589.383 1.089.795.516.5.839 1.266.971 2.295-.176-.001-.334.265-.474.794zm4.094 1.281l-.262 1.192-.236-.088c-.315-.588-.587-1.427-.813-2.517l-.302-1.368a9.728 9.728 0 0 0-.38-1.236l.38-.618c.341.47.678.927 1.01 1.368.411.707.617 1.604.617 2.694 0 .176-.005.368-.014.573zm.459-2.958l-.288.265c-.21-.324-.433-.825-.669-1.501a68.913 68.913 0 0 0-.591-1.811 4.856 4.856 0 0 0-.564-1.147l.5-.619c.62.412 1.014.751 1.18 1.015.403.618.631 1.649.683 3.091l-.251.707z"/><linearGradient id="d" gradientUnits="userSpaceOnUse" x1="74.736" y1="16.21" x2="130.105" y2="71.579"><stop offset="0" stop-color="#ead18f"/><stop offset=".076" stop-color="#e1c477"/><stop offset=".221" stop-color="#d1af4e"/><stop offset=".335" stop-color="#c8a235"/><stop offset=".405" stop-color="#c49d2c"/><stop offset=".559" stop-color="#d4b35c"/><stop offset=".766" stop-color="#e7cd97"/><stop offset=".919" stop-color="#f3debb"/><stop offset="1" stop-color="#f8e4c9"/></linearGradient><path opacity=".8" fill="url(#d)" d="M53.42 37.526h98v12.737h-98z"/><path fill="#ABABAB" d="M63.683 64.905c-.477.568-.963.92-1.455 1.048-.223.052-.566.153-1.027.308-.225.13-.566.274-1.028.429-.572.077-.97.14-1.192.193a3.825 3.825 0 0 0-1.172.465c-.127-.258-.23-.658-.31-1.204-.063-.359-.167-.604-.311-.735a5.485 5.485 0 0 1-.023-.463c0-.545.107-1.047.322-1.514.215-.465.488-.698.824-.698.971.051 2.276.051 3.917 0 .667-.025 1.12.028 1.36.157.431.205.765.696 1.003 1.474-.334.05-.638.232-.908.54zm8.575 2.134c-4.364 7.078-8.599 11.537-12.706 13.37l-1.291-1.431a4.923 4.923 0 0 1-.071-.777c0-.515.248-1.472.741-2.871.717-.333 1.441-.669 2.172-1.004a17.261 17.261 0 0 0 2.126-1.242c1.322-.983 3.266-3.098 5.827-6.357.305-.385 1.116-1.613 2.438-3.68.972-1.527 1.847-2.611 2.626-3.258l.573.271c-.13 2.224-.94 4.548-2.435 6.979zm-6.235-9.236c-.302.542-.549.787-.739.737l-4.084-.893c-.063 0-.185.058-.359.174s-.311.172-.405.172l-.193-.038-.381-1.896c-.063-.232-.031-.568.096-1.007.254-.901.82-1.355 1.696-1.355.206 0 .453.105.741.31.381.233.627.362.741.389.412.126 1.072.371 1.979.733.924.44 1.514 1.112 1.769 2.015-.32.001-.605.219-.861.659zM98.98 78.281l-1.051.892c-1.288-.674-2.665-2.042-4.131-4.112-1.21-1.782-2.411-3.567-3.607-5.347-.238.258-1.551 1.935-3.94 5.039-1.543 1.99-2.991 3.356-4.346 4.106-.063-.153-.198-.283-.406-.387a20.152 20.152 0 0 1-1.098-.503c-.494-.209-.82-.425-.979-.659-.051-.078-.167-.543-.36-1.397.223-.723.654-1.202 1.289-1.431a21.743 21.743 0 0 0 1.601-.45c.527-.167 1.266-.768 2.221-1.803 2.102-2.222 3.639-4.147 4.61-5.773.733-1.215 1.902-3.619 3.512-7.209l-.407-.157c-.573.13-1.265.233-2.077.31-.747.128-1.863.337-3.346.622-.477.079-.945.155-1.407.229a2.299 2.299 0 0 0-1.266.935l-.357-.272c0-1.474-.04-2.404-.122-2.793.035-.802.313-1.41.837-1.822.146-.103.63-.348 1.458-.735.254.62.445.913.574.892l5.802-.97.238-.04c.256 0 .526.103.813.31.031-.026.263-.375.693-1.046.27-.412.524-.62.765-.62.095 0 .206.027.334.08.096.308.377.634.848.967.469.336.814.748 1.038 1.242-1.002 1.628-1.656 2.802-1.958 3.525-.238.674-.622 1.67-1.146 2.988-.127.281-.511.968-1.146 2.055-.51.878-.828 1.6-.955 2.168.89 1.036 1.774 2.08 2.649 3.143.939 1.029 1.966 1.726 3.081 2.089 1.005.207 2.509.658 4.513 1.357-.255.779-.728 1.583-1.421 2.423-.691.842-1.142 1.56-1.35 2.154zM124.225 66.69c-.209.052-.48.299-.825.737-.341.442-.655.66-.943.66-.172 0-.588-.167-1.241-.503-.763-.414-1.227-.647-1.384-.699-.304.025-.749-.013-1.337-.115l-.432.151-.812-.345c-.176.283-.351 1.085-.524 2.4-.13.802-.225 1.395-.289 1.781-.127.672-.275 1.227-.452 1.667a16.44 16.44 0 0 1-2.078 3.604c-.924 1.213-1.815 2.017-2.675 2.405-1.464.697-2.538 1.045-3.225 1.045-.237 0-.899-.09-1.981-.274l-.334-1.2c.046-1.55.463-2.532 1.241-2.947.32-.155 1.091-.232 2.317-.232.51 0 1.068-.115 1.672-.348.765-.31 1.59-1.024 2.482-2.136 1.003-1.265 1.505-2.428 1.505-3.486 0-.079-.008-.195-.025-.348l-.045-.312c-.335-.412-.582-1.009-.741-1.784l-.334-.271c-.477-.027-1.186-.012-2.126.04-.351.05-1.161.281-2.437.696-1.321.44-2.094.752-2.315.93-.224.182-.414.505-.574.97l-.406.233-.549-.078-.218-1.278c.144-1.007.272-1.734.386-2.172.19-.802.453-1.395.787-1.783 1.225-.258 3.064-.622 5.518-1.085.667-.105 1.64-.155 2.914-.155 1.289 0 3.972.283 8.048.854.032 0 .08-.029.143-.079l.239-.076.237.076c.049.027.104.05.17.079l1.169-.155.622.425c-.097.465-.289 1.018-.575 1.651s-.479 1.121-.573 1.457zm-2.915-9.77c-.076 1.087-.698 1.628-1.86 1.628-.286 0-.7-.038-1.241-.117-.545-.076-.949-.117-1.22-.117-.127 0-.294-.025-.503-.076-.27-.054-.437-.09-.5-.117a10.838 10.838 0 0 0-1.601-.115c-.238 0-.956.088-2.147.27-1.196.18-1.842.31-1.935.389-.017 0-.109.117-.275.348-.167.233-.307.338-.42.31l-.5-.193-.403-1.474c.092-1.368.458-2.184 1.096-2.442.255 0 .636-.067 1.146-.193 1.243-.543 2.691-.763 4.347-.66 1.991.128 3.017.195 3.08.195 1.148.205 2.135.672 2.964 1.395-.001.235-.011.556-.028.969zM147.056 78.117c-.222 0-.518-.078-.884-.231-.412-.157-.7-.26-.857-.312-.368-.051-1.643-.193-3.822-.427-1.465-.153-2.286-.231-2.46-.231-3.438 0-6.297 1.034-8.575 3.1-.604-.852-.908-2.247-.908-4.185 0-.258.138-.57.41-.93.427-.208.761-.298 1-.273.559-.463 1.082-1.361 1.578-2.679.38-1.085.763-2.168 1.145-3.253.337-.802.819-2.015 1.457-3.644.193-.593.484-1.474.884-2.637.365-1.006.62-1.769.763-2.288a17.29 17.29 0 0 0 .598-2.404l-.045-.115a1.454 1.454 0 0 1-.241-.775c0-.802.255-1.422.763-1.86.479-.259.948-.517 1.409-.777.416.285.996.647 1.743 1.087.226.335.338.88.338 1.629 0 .413-.2.892-.6 1.433l-.908 1.162c-1 1.735-2.233 4.747-3.702 9.033-.331.775-.668 1.55-1.001 2.323-.412.983-.638 1.811-.669 2.482 1.21-.335 2.668-.503 4.372-.503 2.754 0 4.713.209 5.875.62-.271-1.293-.572-2.159-.908-2.599a40.893 40.893 0 0 1-.74-.966c-.177-.31-.376-.737-.596-1.278.158-1.112.588-1.768 1.286-1.979.24.105.584.299 1.029.582.016 0 .254.337.715 1.008.208.233.519.62.932 1.164.319.465.709 1.497 1.17 3.1.383 1.292.677 2.444.886 3.454a3.986 3.986 0 0 1-.526 1.493c-.273.448-.579.676-.911.676z"/><path d="M62.867 63.583c-.477.568-.962.917-1.457 1.046-.222.052-.565.155-1.026.31-.223.128-.563.272-1.026.427-.572.079-.972.144-1.193.193-.447.104-.837.26-1.171.467-.129-.258-.232-.66-.312-1.202-.063-.362-.165-.608-.31-.737a6.45 6.45 0 0 1-.023-.465c0-.545.106-1.047.321-1.514.216-.463.49-.697.824-.697.972.05 2.277.05 3.916 0 .67-.025 1.125.025 1.361.155.431.208.765.698 1.005 1.474-.335.051-.636.233-.909.543zm8.574 2.132c-4.361 7.078-8.599 11.539-12.704 13.374l-1.291-1.435a4.773 4.773 0 0 1-.072-.775c0-.519.247-1.474.741-2.869.716-.339 1.44-.672 2.174-1.01a17.08 17.08 0 0 0 2.125-1.238c1.321-.981 3.264-3.1 5.828-6.357.302-.389 1.114-1.615 2.435-3.682.971-1.524 1.848-2.609 2.628-3.258l.572.271c-.128 2.223-.938 4.548-2.436 6.979zm-6.233-9.236c-.302.543-.548.789-.74.735l-4.084-.89c-.063 0-.183.058-.357.174-.177.117-.312.174-.407.174l-.19-.039-.381-1.896c-.066-.234-.033-.567.095-1.007.254-.903.82-1.353 1.696-1.353.207 0 .452.102.738.308.382.231.63.36.741.387.413.128 1.074.373 1.982.733.923.44 1.514 1.112 1.768 2.015-.32 0-.606.218-.861.659zM98.167 76.957l-1.051.89c-1.292-.672-2.668-2.04-4.134-4.11a963.46 963.46 0 0 1-3.604-5.347c-.239.259-1.554 1.939-3.94 5.035-1.547 1.994-2.994 3.366-4.347 4.114-.066-.157-.199-.285-.407-.389a24.764 24.764 0 0 1-1.099-.503c-.493-.207-.82-.427-.979-.662-.045-.075-.167-.54-.357-1.394.223-.725.651-1.204 1.289-1.435a21.07 21.07 0 0 0 1.602-.448c.524-.167 1.265-.768 2.221-1.803 2.102-2.22 3.639-4.145 4.609-5.773.731-1.213 1.903-3.615 3.511-7.209l-.406-.155c-.574.128-1.267.232-2.077.31-.749.13-1.863.337-3.345.618-.477.081-.947.157-1.408.235a2.286 2.286 0 0 0-1.268.93l-.357-.272c0-1.473-.039-2.403-.119-2.792.031-.8.312-1.406.837-1.822.143-.101.629-.346 1.457-.735.254.62.444.917.572.892l5.802-.97.24-.04c.257 0 .524.105.813.312.032-.025.262-.375.693-1.047.271-.415.524-.622.763-.622.096 0 .209.029.335.08.096.308.378.632.847.968.471.337.818.749 1.041 1.24-1.006 1.628-1.656 2.806-1.961 3.529a89.26 89.26 0 0 1-1.145 2.984c-.129.285-.51.97-1.147 2.055-.509.876-.828 1.6-.956 2.17a193.463 193.463 0 0 1 2.652 3.141c.939 1.033 1.967 1.729 3.08 2.091 1.004.207 2.51.658 4.516 1.357-.256.775-.729 1.581-1.422 2.424-.697.841-1.145 1.556-1.351 2.153zM123.407 65.366c-.204.052-.479.297-.821.737-.344.442-.655.662-.943.662-.177 0-.588-.17-1.244-.505-.765-.413-1.226-.645-1.385-.696-.302.025-.746-.012-1.337-.117l-.428.155-.813-.348c-.176.285-.351 1.085-.525 2.404-.127.798-.223 1.391-.284 1.781-.129.67-.282 1.225-.455 1.663a16.422 16.422 0 0 1-2.079 3.605c-.924 1.215-1.813 2.015-2.674 2.401-1.466.698-2.539 1.047-3.226 1.047-.239 0-.897-.092-1.98-.27l-.335-1.204c.047-1.548.461-2.532 1.243-2.947.317-.155 1.088-.232 2.315-.232.508 0 1.066-.117 1.672-.35.765-.31 1.594-1.02 2.483-2.132 1.003-1.265 1.506-2.428 1.506-3.49 0-.075-.01-.189-.026-.345l-.048-.312c-.333-.414-.58-1.007-.739-1.784l-.335-.272c-.477-.025-1.186-.013-2.125.039-.35.052-1.162.285-2.438.696-1.32.442-2.091.752-2.316.934-.222.178-.41.503-.571.968l-.407.233-.551-.077-.214-1.28c.145-1.01.272-1.731.385-2.172.189-.804.451-1.397.787-1.785 1.226-.258 3.063-.62 5.518-1.085.668-.102 1.639-.155 2.912-.155 1.291 0 3.975.285 8.048.854.032 0 .079-.025.144-.079l.237-.076.241.076c.047.027.102.054.169.079l1.168-.155.619.425c-.096.469-.284 1.018-.572 1.651-.288.635-.478 1.121-.576 1.458zm-2.913-9.768c-.075 1.085-.699 1.628-1.861 1.628-.284 0-.701-.04-1.244-.119-.539-.076-.947-.115-1.215-.115a2.11 2.11 0 0 1-.503-.078c-.271-.05-.437-.088-.5-.117a10.846 10.846 0 0 0-1.603-.115c-.238 0-.953.09-2.147.27-1.195.184-1.839.312-1.937.388-.014 0-.107.117-.274.353-.167.229-.306.333-.416.306l-.502-.193-.409-1.472c.1-1.37.463-2.184 1.102-2.444.253 0 .637-.065 1.146-.193 1.242-.543 2.691-.761 4.348-.658 1.99.128 3.017.193 3.081.193 1.147.208 2.133.674 2.963 1.397-.002.232-.011.554-.029.969zM146.242 76.792c-.225 0-.521-.078-.884-.231-.416-.155-.702-.26-.86-.31a220.44 220.44 0 0 0-3.823-.429c-1.465-.153-2.28-.229-2.457-.229-3.438 0-6.299 1.033-8.575 3.1-.605-.854-.907-2.247-.907-4.187 0-.256.135-.572.404-.932.43-.207.766-.298 1.006-.271.556-.465 1.082-1.359 1.575-2.675.381-1.085.765-2.172 1.146-3.253.334-.802.821-2.017 1.456-3.645.192-.595.486-1.472.887-2.637.364-1.007.619-1.769.763-2.288.27-.85.468-1.653.598-2.402l-.049-.117a1.478 1.478 0 0 1-.239-.775c0-.802.256-1.422.765-1.862.48-.257.947-.517 1.407-.773.416.281.996.645 1.745 1.083.224.339.335.878.335 1.629 0 .415-.198.892-.598 1.435l-.908 1.162c-1.003 1.734-2.236 4.745-3.699 9.033-.337.775-.67 1.55-1.006 2.325-.411.981-.635 1.807-.668 2.482 1.21-.339 2.668-.507 4.37-.507 2.756 0 4.714.209 5.875.62-.269-1.292-.571-2.155-.907-2.595-.381-.49-.628-.813-.739-.97a11.654 11.654 0 0 1-.598-1.278c.159-1.11.588-1.77 1.287-1.975.243.104.585.297 1.029.582.016 0 .254.335.718 1.006.206.233.518.622.931 1.164.318.463.707 1.499 1.171 3.1.383 1.292.677 2.442.881 3.452a3.977 3.977 0 0 1-.524 1.493c-.272.452-.575.675-.908.675zM57.564 43.95v2.313c0 .5.041.809.119.93a.54.54 0 0 0 .49.257h.221v.219H55.92v-.219h.217c.246 0 .42-.109.527-.328.057-.121.084-.407.084-.86V41.13c0-.499-.037-.809-.115-.93a.552.552 0 0 0-.496-.257h-.217v-.219h2.115c.518 0 .924.073 1.221.22.299.147.551.394.754.742.205.348.307.76.307 1.237 0 .649-.154 1.176-.465 1.583-.311.407-.75.61-1.316.61-.139 0-.289-.014-.451-.042a4.562 4.562 0 0 1-.521-.124zm0-.335c.15.039.283.068.4.088.115.02.215.029.295.029.295 0 .549-.157.762-.471.213-.314.32-.722.32-1.221 0-.343-.051-.663-.152-.958-.104-.295-.246-.515-.434-.662a1.002 1.002 0 0 0-.635-.22c-.145 0-.33.037-.557.111v3.304zM63.813 39.544c.748 0 1.396.392 1.947 1.174.549.783.822 1.76.822 2.931 0 1.207-.275 2.208-.83 3.004-.553.797-1.223 1.195-2.008 1.195-.795 0-1.461-.388-2.002-1.166-.541-.777-.811-1.782-.811-3.016 0-1.261.313-2.29.936-3.086.543-.69 1.19-1.036 1.946-1.036zm-.083.43c-.516 0-.93.264-1.24.791-.389.656-.584 1.616-.584 2.881 0 1.296.203 2.294.604 2.993.311.531.719.796 1.227.796.541 0 .988-.291 1.34-.873.354-.582.529-1.499.529-2.752 0-1.359-.193-2.372-.582-3.04-.311-.53-.743-.796-1.294-.796zM70.918 39.544v2.75h-.158c-.051-.528-.143-.948-.275-1.261a1.78 1.78 0 0 0-.564-.745 1.248 1.248 0 0 0-.76-.276.89.89 0 0 0-.732.372 1.34 1.34 0 0 0-.289.846c0 .242.061.463.184.662.176.292.596.683 1.258 1.17.541.398.91.704 1.107.917s.35.464.457.753.16.592.16.908c0 .602-.17 1.12-.51 1.556-.338.436-.773.653-1.307.653-.168 0-.324-.018-.473-.054-.088-.02-.27-.093-.547-.219-.275-.125-.451-.188-.525-.188-.07 0-.127.03-.168.09s-.07.184-.092.371h-.158v-2.727h.158c.074.57.174.996.299 1.279.123.283.314.518.57.706.258.187.537.281.844.281.355 0 .635-.129.84-.387s.307-.563.307-.914c0-.195-.037-.393-.115-.592s-.199-.385-.365-.557c-.111-.117-.414-.366-.908-.745-.496-.38-.848-.683-1.057-.909-.207-.227-.365-.476-.473-.75s-.162-.574-.162-.901c0-.57.158-1.061.477-1.473.318-.412.723-.618 1.215-.618.307 0 .631.104.975.313.158.099.271.148.338.148a.221.221 0 0 0 .18-.091c.047-.062.084-.185.113-.37h.156zM77.943 39.544v2.75h-.158c-.051-.528-.143-.948-.275-1.261a1.78 1.78 0 0 0-.564-.745 1.248 1.248 0 0 0-.76-.276.89.89 0 0 0-.732.372 1.34 1.34 0 0 0-.289.846c0 .242.061.463.184.662.176.292.596.683 1.258 1.17.541.398.91.704 1.107.917s.35.464.457.753.16.592.16.908c0 .602-.17 1.12-.51 1.556-.338.436-.773.653-1.307.653-.168 0-.324-.018-.473-.054-.088-.02-.27-.093-.547-.219-.275-.125-.451-.188-.525-.188-.07 0-.127.03-.168.09s-.07.184-.092.371h-.158v-2.727h.158c.074.57.174.996.299 1.279.125.283.314.518.57.706.258.187.539.281.844.281.355 0 .635-.129.84-.387s.309-.563.309-.914c0-.195-.039-.393-.117-.592s-.199-.385-.365-.557c-.111-.117-.414-.366-.908-.745-.496-.38-.848-.683-1.055-.909-.209-.227-.367-.476-.475-.75s-.162-.574-.162-.901c0-.57.158-1.061.479-1.473.316-.412.721-.618 1.213-.618.307 0 .631.104.975.313.158.099.271.148.338.148a.221.221 0 0 0 .18-.091c.047-.062.084-.185.113-.37h.156zM78.842 42.294h1.818v.211h-.09c-.127 0-.223.039-.287.115a.437.437 0 0 0-.096.286c0 .154.047.366.141.638l.953 2.72.869-2.979c.047-.162.072-.321.072-.479a.321.321 0 0 0-.031-.16.24.24 0 0 0-.105-.104.59.59 0 0 0-.256-.039v-.211h1.266v.211a.494.494 0 0 0-.244.094.874.874 0 0 0-.186.266 4.305 4.305 0 0 0-.146.454l-1.582 5.365c-.154.521-.355.914-.604 1.18-.248.266-.488.399-.719.399a.509.509 0 0 1-.414-.2.71.71 0 0 1-.16-.458c0-.165.039-.296.117-.396.078-.1.186-.15.32-.15.096 0 .223.043.385.13a.731.731 0 0 0 .213.088c.086 0 .178-.061.279-.182.102-.122.203-.357.305-.706l.275-.94-1.4-4.049a3.353 3.353 0 0 0-.203-.454 1.259 1.259 0 0 0-.174-.277.838.838 0 0 0-.316-.165v-.208zM85.939 42.138v1.828h-.143c-.107-.575-.244-.966-.412-1.173a.797.797 0 0 0-.645-.311.599.599 0 0 0-.479.217.725.725 0 0 0-.184.481c0 .219.045.407.135.563.088.161.266.331.535.511l.621.417c.578.387.865.897.865 1.531 0 .489-.135.883-.402 1.182s-.568.449-.9.449c-.238 0-.51-.059-.816-.176a.635.635 0 0 0-.23-.059c-.064 0-.115.049-.152.148h-.142v-1.914h.143c.08.548.23.961.455 1.239s.475.417.754.417c.195 0 .355-.079.479-.238s.186-.35.186-.573c0-.27-.07-.498-.207-.682s-.412-.417-.824-.698-.682-.535-.809-.762c-.129-.223-.191-.504-.191-.844 0-.442.109-.812.33-1.108.219-.297.502-.446.852-.446.152 0 .34.046.557.137.145.06.242.089.289.089a.138.138 0 0 0 .107-.042.618.618 0 0 0 .088-.185h.14zM87.953 40.529v1.766h.91v.414h-.91v3.482c0 .348.035.583.107.704s.164.182.277.182a.4.4 0 0 0 .273-.121.785.785 0 0 0 .203-.356h.164c-.098.383-.24.672-.422.866-.182.194-.369.291-.563.291-.131 0-.26-.05-.385-.149s-.217-.242-.277-.428c-.059-.186-.09-.472-.09-.858v-3.611h-.617v-.195c.156-.086.316-.232.48-.438s.311-.449.439-.731c.066-.149.158-.42.277-.815h.134zM89.891 44.326c-.002.797.139 1.422.422 1.875s.615.68.998.68a.903.903 0 0 0 .666-.288c.188-.192.346-.523.473-.994l.131.117a3.262 3.262 0 0 1-.52 1.461c-.285.437-.645.656-1.074.656-.469 0-.869-.251-1.201-.753-.334-.502-.5-1.177-.5-2.024 0-.918.17-1.634.512-2.147s.77-.771 1.287-.771c.436 0 .795.199 1.076.595.279.397.42.928.42 1.592h-2.69zm0-.344h1.805c-.014-.344-.043-.586-.09-.727-.07-.219-.176-.391-.316-.516s-.287-.188-.439-.188c-.236 0-.447.126-.633.378s-.296.604-.327 1.053zM94.264 43.289c.283-.393.451-.62.502-.678.127-.149.266-.266.412-.348a.822.822 0 0 1 1.069.171c.174.197.291.482.352.855.293-.472.539-.782.74-.929s.408-.221.621-.221c.207 0 .391.074.551.22s.287.387.381.719c.063.228.094.583.094 1.068v2.313c0 .335.02.565.057.69.027.086.08.159.158.22.076.06.201.09.375.09v.211h-1.928v-.211h.08a.55.55 0 0 0 .393-.134.572.572 0 0 0 .139-.298c.012-.066.018-.255.018-.567v-2.31c0-.438-.037-.746-.115-.926-.109-.25-.287-.375-.531-.375a.8.8 0 0 0-.451.155c-.152.104-.336.296-.551.577l-.008.064.012.252v2.561c0 .367.014.595.045.684.027.09.084.165.166.226.082.06.221.09.418.09v.211h-1.969v-.211c.215 0 .361-.035.441-.105a.572.572 0 0 0 .168-.316c.014-.066.021-.259.021-.579v-2.309c0-.438-.047-.752-.141-.945-.125-.252-.297-.378-.521-.378a.746.746 0 0 0-.453.171 1.986 1.986 0 0 0-.543.584v2.877c0 .351.018.579.055.684a.466.466 0 0 0 .154.237c.07.052.211.079.422.079v.211h-1.93v-.211c.178 0 .303-.026.373-.079a.484.484 0 0 0 .162-.252c.037-.115.055-.338.055-.669v-2.055c0-.591-.012-.973-.037-1.146-.021-.129-.053-.218-.096-.267a.215.215 0 0 0-.174-.073.635.635 0 0 0-.287.088l-.064-.211 1.184-.656h.184v1.151zM103.59 42.716v3.531c0 .501.041.819.121.952.104.172.246.259.422.259h.354v.211h-2.338v-.211h.176a.472.472 0 0 0 .311-.118c.094-.078.158-.184.193-.317s.053-.392.053-.776v-3.531h-.76v-.422h.76v-.351c0-.534.063-.986.188-1.356s.316-.669.574-.897.547-.342.869-.342c.299 0 .572.133.822.398a.84.84 0 0 1 .248.592.558.558 0 0 1-.111.331c-.072.104-.152.155-.238.155-.064 0-.133-.032-.205-.097s-.162-.203-.268-.416c-.104-.213-.201-.356-.289-.431s-.186-.111-.293-.111a.443.443 0 0 0-.332.143c-.09.096-.156.244-.195.444-.041.201-.061.718-.061 1.551v.385h1.006v.422h-1.007zM106.875 42.138c.59 0 1.063.309 1.42.927.305.528.455 1.134.455 1.818 0 .481-.082.968-.25 1.46s-.398.864-.691 1.114a1.48 1.48 0 0 1-.98.375c-.588 0-1.055-.323-1.4-.968-.293-.543-.439-1.154-.439-1.83 0-.493.09-.982.268-1.469.176-.487.41-.847.699-1.079.287-.232.594-.348.918-.348zm-.133.383c-.15 0-.301.062-.451.185-.152.123-.273.339-.367.648s-.141.706-.141 1.191c0 .782.113 1.457.338 2.024s.521.851.889.851c.275 0 .502-.156.68-.469s.268-.851.268-1.613c0-.954-.148-1.705-.445-2.253-.202-.376-.46-.564-.771-.564zM110.465 42.138v1.207c.324-.805.66-1.207 1.002-1.207a.47.47 0 0 1 .387.196.707.707 0 0 1 .154.454c0 .152-.037.281-.111.387s-.162.158-.264.158c-.1 0-.211-.068-.334-.203s-.215-.203-.273-.203c-.051 0-.107.039-.166.118-.127.161-.26.425-.395.793v2.574c0 .298.025.523.08.676a.56.56 0 0 0 .195.265c.094.071.229.106.404.106v.211h-2.002v-.211c.197 0 .346-.043.441-.129a.532.532 0 0 0 .15-.3c.014-.067.021-.257.021-.571V44.38c0-.626-.01-1-.029-1.12a.503.503 0 0 0-.102-.261.24.24 0 0 0-.186-.082.654.654 0 0 0-.301.088l-.041-.211 1.186-.656h.184zM115.914 43.95v2.313c0 .5.039.809.119.93.107.171.27.257.488.257h.221v.219h-2.475v-.219h.219c.244 0 .42-.109.525-.328.057-.121.086-.407.086-.86V41.13c0-.499-.039-.809-.117-.93a.548.548 0 0 0-.494-.257h-.219v-.219h2.117c.516 0 .922.073 1.221.22.299.147.549.394.754.742.203.348.307.76.307 1.237 0 .649-.156 1.176-.467 1.583-.311.407-.748.61-1.316.61-.139 0-.289-.014-.449-.042a4.45 4.45 0 0 1-.52-.124zm0-.335c.148.039.281.068.398.088.115.02.215.029.297.029.293 0 .547-.157.76-.471.213-.314.32-.722.32-1.221 0-.343-.051-.663-.152-.958s-.246-.515-.432-.662c-.188-.146-.4-.22-.637-.22-.145 0-.328.037-.555.111v3.304zM120.393 39.333v3.926c.313-.478.563-.784.748-.919a.929.929 0 0 1 .553-.203c.219 0 .41.084.568.252s.275.433.354.792c.053.25.08.708.08 1.374v1.902c0 .339.02.571.059.696a.448.448 0 0 0 .146.223c.066.054.191.082.373.082v.211h-1.918v-.211h.09c.182 0 .309-.038.379-.114a.664.664 0 0 0 .148-.336c.01-.063.014-.246.014-.55v-1.901c0-.587-.021-.972-.066-1.156a.817.817 0 0 0-.209-.414.486.486 0 0 0-.348-.138.785.785 0 0 0-.434.152c-.148.102-.328.307-.537.616v2.841c0 .367.014.595.043.684.031.09.086.165.166.226.082.06.221.09.42.09v.211h-1.936v-.211c.174 0 .311-.037.41-.111.057-.039.102-.113.135-.223.035-.109.051-.331.051-.667v-4.859c0-.612-.01-.989-.031-1.129-.021-.14-.055-.236-.098-.287a.225.225 0 0 0-.178-.076c-.061 0-.156.031-.291.094l-.061-.211 1.172-.656h.198zM125.811 46.894c-.4.426-.65.672-.752.738a.893.893 0 0 1-.49.146c-.268 0-.49-.127-.664-.381-.174-.254-.262-.588-.262-1.003 0-.262.043-.489.127-.681.117-.266.318-.516.607-.75.287-.235.764-.52 1.434-.856v-.21c0-.535-.063-.901-.184-1.101a.594.594 0 0 0-.535-.298.506.506 0 0 0-.422.199.698.698 0 0 0-.162.456l.008.339c0 .179-.033.317-.1.415a.311.311 0 0 1-.266.146c-.105 0-.191-.051-.26-.152a.757.757 0 0 1-.1-.416c0-.335.125-.644.373-.925.25-.281.602-.421 1.053-.421.346 0 .629.08.85.24.168.121.291.311.371.568.051.168.076.512.076 1.031v1.821c0 .512.008.825.021.94.014.115.037.192.07.231s.07.059.113.059a.185.185 0 0 0 .119-.041c.059-.051.174-.193.346-.428v.328c-.318.588-.623.883-.914.883-.139 0-.248-.066-.332-.199-.081-.133-.123-.358-.125-.678zm0-.381v-2.046c-.428.235-.703.401-.828.499a1.625 1.625 0 0 0-.48.54 1.334 1.334 0 0 0-.145.616c0 .281.061.515.182.701.123.186.264.278.422.278.214-.002.497-.197.849-.588zM128.617 42.138v1.207c.326-.805.66-1.207 1.004-1.207.156 0 .283.065.387.196a.717.717 0 0 1 .152.454.673.673 0 0 1-.109.387c-.074.105-.164.158-.266.158-.1 0-.211-.068-.334-.203s-.215-.203-.273-.203c-.051 0-.105.039-.166.118-.127.161-.258.425-.395.793v2.574c0 .298.027.523.08.676a.564.564 0 0 0 .197.265c.094.071.229.106.404.106v.211h-2.004v-.211c.199 0 .346-.043.443-.129a.544.544 0 0 0 .148-.3c.014-.067.021-.257.021-.571V44.38c0-.626-.01-1-.027-1.12a.503.503 0 0 0-.104-.261.238.238 0 0 0-.186-.082.65.65 0 0 0-.299.088l-.043-.211 1.188-.656h.182zM131.537 43.289c.283-.393.449-.62.5-.678.129-.149.266-.266.412-.348a.894.894 0 0 1 .439-.124c.242 0 .453.098.629.295s.293.482.352.855c.293-.472.539-.782.74-.929a1.05 1.05 0 0 1 .621-.221c.207 0 .393.074.553.22s.287.387.381.719c.063.228.094.583.094 1.068v2.313c0 .335.018.565.055.69a.473.473 0 0 0 .158.22c.076.06.203.09.377.09v.211h-1.93v-.211h.08a.55.55 0 0 0 .393-.134.589.589 0 0 0 .141-.298c.012-.066.016-.255.016-.567v-2.31c0-.438-.037-.746-.113-.926-.111-.25-.287-.375-.531-.375a.805.805 0 0 0-.453.155c-.15.104-.334.296-.549.577l-.01.064.012.252v2.561c0 .367.016.595.045.684.029.09.084.165.166.226.082.06.221.09.418.09v.211h-1.969v-.211c.215 0 .361-.035.443-.105a.57.57 0 0 0 .166-.316c.014-.066.021-.259.021-.579v-2.309c0-.438-.047-.752-.141-.945-.123-.252-.297-.378-.521-.378a.746.746 0 0 0-.453.171 1.978 1.978 0 0 0-.541.584v2.877c0 .351.018.579.053.684a.482.482 0 0 0 .156.237c.068.052.209.079.42.079v.211h-1.93v-.211c.18 0 .303-.026.375-.079a.494.494 0 0 0 .16-.252c.037-.115.057-.338.057-.669v-2.055c0-.591-.014-.973-.039-1.146a.566.566 0 0 0-.094-.267.222.222 0 0 0-.176-.073.635.635 0 0 0-.287.088l-.063-.211 1.182-.656h.186v1.151zM139.359 46.894c-.4.426-.65.672-.752.738a.893.893 0 0 1-.49.146c-.268 0-.49-.127-.664-.381-.174-.254-.262-.588-.262-1.003 0-.262.043-.489.127-.681.117-.266.318-.516.607-.75.287-.235.764-.52 1.434-.856v-.21c0-.535-.063-.901-.184-1.101a.594.594 0 0 0-.535-.298.506.506 0 0 0-.422.199.698.698 0 0 0-.162.456l.008.339c0 .179-.033.317-.1.415a.311.311 0 0 1-.266.146c-.105 0-.191-.051-.26-.152a.757.757 0 0 1-.1-.416c0-.335.125-.644.373-.925.25-.281.602-.421 1.053-.421.346 0 .629.08.85.24.168.121.291.311.371.568.051.168.076.512.076 1.031v1.821c0 .512.008.825.021.94.014.115.037.192.07.231s.07.059.113.059a.185.185 0 0 0 .119-.041c.059-.051.174-.193.346-.428v.328c-.318.588-.623.883-.914.883-.139 0-.248-.066-.332-.199-.08-.133-.123-.358-.125-.678zm0-.381v-2.046c-.428.235-.703.401-.828.499a1.625 1.625 0 0 0-.48.54 1.334 1.334 0 0 0-.145.616c0 .281.061.515.182.701.123.186.264.278.422.278.215-.002.498-.197.849-.588zM144.334 45.627c-.105.71-.311 1.256-.617 1.636s-.646.57-1.018.57c-.441 0-.828-.256-1.158-.768-.328-.513-.492-1.205-.492-2.077 0-.845.182-1.531.545-2.059.365-.528.803-.792 1.313-.792.383 0 .697.14.943.419.246.28.371.57.371.871a.582.582 0 0 1-.105.361.341.341 0 0 1-.291.138.4.4 0 0 1-.373-.223c-.051-.083-.084-.239-.1-.47s-.072-.407-.172-.529a.512.512 0 0 0-.412-.176c-.283 0-.51.145-.684.434-.229.384-.344.891-.344 1.521 0 .642.115 1.208.342 1.699.229.491.537.737.924.737.277 0 .527-.13.748-.39.156-.18.307-.509.455-.985l.125.083zM144.668 42.294h1.816v.211h-.088c-.129 0-.225.039-.287.115a.432.432 0 0 0-.096.286c0 .154.047.366.139.638l.953 2.72.869-2.979c.049-.162.072-.321.072-.479a.348.348 0 0 0-.029-.16.256.256 0 0 0-.107-.104.58.58 0 0 0-.254-.039v-.211h1.264v.211a.486.486 0 0 0-.242.094.908.908 0 0 0-.188.266 4.693 4.693 0 0 0-.145.454l-1.584 5.365c-.152.521-.355.914-.604 1.18-.248.266-.486.399-.717.399a.506.506 0 0 1-.414-.2.712.712 0 0 1-.162-.458c0-.165.039-.296.117-.396.078-.1.186-.15.322-.15.094 0 .221.043.385.13a.71.71 0 0 0 .213.088c.084 0 .178-.061.279-.182.1-.122.201-.357.303-.706l.275-.94-1.398-4.049a3.683 3.683 0 0 0-.205-.454 1.259 1.259 0 0 0-.174-.277.812.812 0 0 0-.314-.165v-.208z"/></svg>