<?xml version="1.0" encoding="utf-8"?><svg xmlns="http://www.w3.org/2000/svg" width="99" height="81" viewBox="73.345 12.736 99 81"><linearGradient id="a" gradientUnits="userSpaceOnUse" x1="42.902" y1="46.634" x2="98.412" y2="102.144"><stop offset="0" stop-color="#ead18f"/><stop offset=".076" stop-color="#e1c477"/><stop offset=".221" stop-color="#d1af4e"/><stop offset=".335" stop-color="#c8a235"/><stop offset=".405" stop-color="#c49d2c"/><stop offset=".559" stop-color="#d4b35c"/><stop offset=".766" stop-color="#e7cd97"/><stop offset=".919" stop-color="#f3debb"/><stop offset="1" stop-color="#f8e4c9"/></linearGradient><linearGradient id="b" gradientUnits="userSpaceOnUse" x1="43.106" y1="58.753" x2="98.65" y2="114.297"><stop offset="0" stop-color="#ead18f"/><stop offset=".076" stop-color="#e1c477"/><stop offset=".221" stop-color="#d1af4e"/><stop offset=".335" stop-color="#c8a235"/><stop offset=".405" stop-color="#c49d2c"/><stop offset=".559" stop-color="#d4b35c"/><stop offset=".766" stop-color="#e7cd97"/><stop offset=".919" stop-color="#f3debb"/><stop offset="1" stop-color="#f8e4c9"/></linearGradient><linearGradient id="c" gradientUnits="userSpaceOnUse" x1="83.804" y1="62.856" x2="139.109" y2="118.162"><stop offset="0" stop-color="#ead18f"/><stop offset=".076" stop-color="#e1c477"/><stop offset=".221" stop-color="#d1af4e"/><stop offset=".335" stop-color="#c8a235"/><stop offset=".405" stop-color="#c49d2c"/><stop offset=".559" stop-color="#d4b35c"/><stop offset=".766" stop-color="#e7cd97"/><stop offset=".919" stop-color="#f3debb"/><stop offset="1" stop-color="#f8e4c9"/></linearGradient><linearGradient id="d" gradientUnits="userSpaceOnUse" x1="87.082" y1="56.231" x2="142.388" y2="111.537"><stop offset="0" stop-color="#ead18f"/><stop offset=".076" stop-color="#e1c477"/><stop offset=".221" stop-color="#d1af4e"/><stop offset=".335" stop-color="#c8a235"/><stop offset=".405" stop-color="#c49d2c"/><stop offset=".559" stop-color="#d4b35c"/><stop offset=".766" stop-color="#e7cd97"/><stop offset=".919" stop-color="#f3debb"/><stop offset="1" stop-color="#f8e4c9"/></linearGradient><linearGradient id="e" gradientUnits="userSpaceOnUse" x1="21.153" y1="57.983" x2="76.46" y2="113.29"><stop offset="0" stop-color="#ead18f"/><stop offset=".076" stop-color="#e1c477"/><stop offset=".221" stop-color="#d1af4e"/><stop offset=".335" stop-color="#c8a235"/><stop offset=".405" stop-color="#c49d2c"/><stop offset=".559" stop-color="#d4b35c"/><stop offset=".766" stop-color="#e7cd97"/><stop offset=".919" stop-color="#f3debb"/><stop offset="1" stop-color="#f8e4c9"/></linearGradient><linearGradient id="f" gradientUnits="userSpaceOnUse" x1="91.372" y1="46.078" x2="146.477" y2="101.183"><stop offset="0" stop-color="#ead18f"/><stop offset=".076" stop-color="#e1c477"/><stop offset=".221" stop-color="#d1af4e"/><stop offset=".335" stop-color="#c8a235"/><stop offset=".405" stop-color="#c49d2c"/><stop offset=".559" stop-color="#d4b35c"/><stop offset=".766" stop-color="#e7cd97"/><stop offset=".919" stop-color="#f3debb"/><stop offset="1" stop-color="#f8e4c9"/></linearGradient><linearGradient id="g" gradientUnits="userSpaceOnUse" x1="66.66" y1="54.238" x2="121.967" y2="109.545"><stop offset="0" stop-color="#ead18f"/><stop offset=".076" stop-color="#e1c477"/><stop offset=".221" stop-color="#d1af4e"/><stop offset=".335" stop-color="#c8a235"/><stop offset=".405" stop-color="#c49d2c"/><stop offset=".559" stop-color="#d4b35c"/><stop offset=".766" stop-color="#e7cd97"/><stop offset=".919" stop-color="#f3debb"/><stop offset="1" stop-color="#f8e4c9"/></linearGradient><linearGradient id="h" gradientUnits="userSpaceOnUse" x1="75.56" y1="15.034" x2="130.866" y2="70.34"><stop offset="0" stop-color="#ead18f"/><stop offset=".076" stop-color="#e1c477"/><stop offset=".221" stop-color="#d1af4e"/><stop offset=".335" stop-color="#c8a235"/><stop offset=".405" stop-color="#c49d2c"/><stop offset=".559" stop-color="#d4b35c"/><stop offset=".766" stop-color="#e7cd97"/><stop offset=".919" stop-color="#f3debb"/><stop offset="1" stop-color="#f8e4c9"/></linearGradient><path fill="#B2B2B2" d="M89.178 33.88c.014.03.049.119.103.268.014.029.035.104.062.222l-.082.532c.138.148.324.223.558.223s.405.044.515.133c.192-.029.386-.044.578-.044.782 0 1.921.207 3.416.622l-.122 1.733a53.105 53.105 0 0 1-.988 1.334c-.385.444-.748.771-1.092.979-.822-.623-1.848-1.156-3.07-1.602l-.021.045v.089c.027.326.056.801.083 1.423.013.297.02 1.038.02 2.224 0 .119.012.289.032.512.02.223.03.393.03.512 0 .533-.179 1.186-.537 1.957-.151.326-.24.652-.267.979-.757.799-1.354 1.199-1.795 1.199-.261 0-.631-.104-1.113-.311-.522-.207-.887-.438-1.093-.689a87.689 87.689 0 0 0-.948-1.135l-.617-.621c-.206-.209-.364-.52-.474-.936-.056-.328-.214-.816-.476-1.468l.68-.578c.535.119 1.34.445 2.412.979.056-.029.515-.223 1.381-.578a3.18 3.18 0 0 0 1.342-1.023l-.021-2.668c-.11-.118-.33-.178-.659-.178-.069 0-.171-.015-.301-.044a1.448 1.448 0 0 0-.298-.045c-.357 0-.895.037-1.609.111-.714.074-1.244.111-1.587.111-.315.296-.762 1.008-1.339 2.135-.507 1.036-.891 1.911-1.152 2.624-.136.504-.369 1.199-.699 2.09l-.803-.178c-.15-.326-.258-.83-.318-1.512-.063-.684-.183-1.127-.36-1.336l-.021-.311c0-.385.112-.704.339-.956s.354-.437.381-.556c.329-.148.933-.712 1.812-1.69-.59.03-1.414.223-2.471.579-1.138.385-1.865.741-2.181 1.067-.179.178-.329.548-.453 1.11l-.927.223c-.439-.385-.658-1.704-.658-3.957l.947-.979.391.133c3.101-1.305 6.197-1.957 9.286-1.957.659 0 1.36.03 2.104.09a28.32 28.32 0 0 1-.247-1.246c-.208-.178-.482-.222-.825-.133l-.867.178c-.082 0-.199-.029-.351-.089s-.262-.089-.33-.089c-.123 0-.309.037-.558.111-.246.073-.431.11-.555.11-1.469 0-2.82.223-4.056.668-.013 0-.302.296-.863.889a1.998 1.998 0 0 1-.433.312l-.516-2.624c.151-1.452.405-3.603.762-6.448l-.391-2.847c.109-.682.315-1.022.617-1.022l.535.444a8.485 8.485 0 0 1 3.87-.934c.082 0 .28.059.598.178.013-.208.02-.549.02-1.023v-.178c-.132-.207-.315-.281-.549-.223l-.474.134a.6.6 0 0 1-.227-.066.577.577 0 0 0-.227-.067c-.205 0-.706.045-1.502.134-.631.06-1.139.089-1.523.089-.206 0-.473.148-.803.445l-.782.711c-.22-.296-.404-1.053-.556-2.268l.247-.801c.549-.712 1.571-1.142 3.066-1.29a117.89 117.89 0 0 0 3.294-.312c.015-.89.021-1.23.021-1.022 0-.06-.097-.4-.288-1.023v-.355c.22-.444.631-.741 1.235-.89.178.623.452.993.823 1.112.247.533.371.904.371 1.111 0 .386-.044.771-.126 1.156h.041l.041.045a.8.8 0 0 0 .104.089c2.429-.148 3.712-.223 3.85-.223.631 0 1.07.089 1.317.269.411.297.72.953.926 1.965-.22.091-.473.306-.762.648-.288.343-.528.514-.72.514a1.43 1.43 0 0 1-.36-.067 1.472 1.472 0 0 0-.36-.066.445.445 0 0 0-.392.223l-1.05-.178c-.576 0-1.511.089-2.804.267-.043.06-.063.237-.063.531 0 .208.007.445.021.712h1.833c.069 0 .175.022.321.066.144.045.251.067.319.067l1.112-.089c.316-.65.632-.977.947-.977.027.059.261.459.702 1.198.302.505.453 1.009.453 1.513 0 .237-.049.479-.145.731-.097.252-.145.438-.145.557 0 .504.039 1.272.116 2.311.077 1.036.117 1.807.117 2.311 0 .267-.052.547-.154.844-.103.296-.161.519-.175.667l.062.622c-.589.771-1.083 1.347-1.482 1.732zm-5.609-4.421c-.042-.119-.082-.178-.124-.178a4.11 4.11 0 0 0-.617.066 4.13 4.13 0 0 1-.598.066c-1.701.06-2.716.534-3.046 1.424-.041.118-.103.311-.186.578l.083.044c.562-.267 1.31-.504 2.243-.711a183.76 183.76 0 0 0 2.265-.578l-.02-.711zm-.062-4.153l-.041-.087h-.123c-1.716 0-2.326-.015-1.832-.044-.783.029-1.365.217-1.75.562-.068.174-.104.405-.104.698 0 .118.008.208.021.267 1.111-.355 2.381-.533 3.809-.533a4.33 4.33 0 0 0 .02-.388v-.475zm5.893 3.945l-.062-.089a1.15 1.15 0 0 0-.515-.133c-1.537 0-2.703.192-3.499.578-.041.029-.062.118-.062.267 0 .06.007.134.021.223l2.758.444c.329.029.804-.163 1.421-.578a6.204 6.204 0 0 0-.062-.712zm-.253-3.246a2.26 2.26 0 0 0-.042-.4c-.178-.06-.446-.134-.802-.223a3.677 3.677 0 0 0-.804 0c-.453.03-.728.045-.823.045-.069 0-.213-.045-.432-.134-.206-.06-.488-.029-.844.089l-.084.534.063.4h1.854c.768 0 1.371.133 1.811.399l.104-.578v-.132z"/><path fill="#B2B2B2" d="M100.438 33.549l-.906.892c-1.084 0-1.893.192-2.428.578-1.565 1.126-2.347 2.416-2.347 3.869l-.495.4-.329-.4c-.055-.237-.115-.801-.185-1.69-.055-.712-.157-1.23-.309-1.557 0-.207.021-.386.062-.533.041-.06.116-.148.226-.268a1.505 1.505 0 0 1-.103-.533c0-.386.488-1.099 1.462-2.137.905-.921 1.599-1.499 2.078-1.736l-.123-6.232-.144-.178c-.604.297-1.037.771-1.297 1.424l-.329-.312c-.082-.208-.164-.652-.248-1.336-.067-.594-.178-.979-.329-1.156l.289-1.025.02-.667.577-.489.205.223c1.03-.714 2.196-1.069 3.5-1.069.521 0 .933.326 1.234.979l.145.979a5.865 5.865 0 0 0-.021 1.468c-.178.267-.364.385-.556.355l-.206.223c-.563-.237-.804-.356-.72-.356-.084 0-.296.179-.639.534l.062 1.245-.185.4c-.028.623-.042.979-.042 1.067 0 .207.075 1.364.227 3.469.082.03.165.045.247.045.11 0 .278-.045.505-.134.226-.089.4-.134.524-.134.453 0 .803.832 1.049 2.498-.271.297-.43.726-.471 1.294zm12.433 10.794l-.782 1.023c-.274.117-.446.369-.515.756l-.411.311c-.234-.178-.79-.992-1.668-2.445-.356-.445-.892-1.127-1.605-2.047-.823-1.156-1.818-2.771-2.984-4.847-.274.563-.673 1.423-1.194 2.579-.384 1.008-.987 2.416-1.812 4.225-.191.385-.514.801-.967 1.246-.453.443-.796.666-1.029.666l-.946-.223-.927-1.512a4.738 4.738 0 0 1-.104-.801c0-.592.227-1.037.68-1.334.028-.029.357-.162.988-.4.233-.117.569-.385 1.008-.8.166-.148.393-.415.68-.8a416.801 416.801 0 0 1 2.326-5.159l-.781-1.602-.311.045c-.191-.237-.362-.683-.514-1.335-.11-.533-.22-1.082-.33-1.646 0-.355.069-.859.206-1.512.096-.029.233-.089.413-.178l.267.178.433-.223c.137.741.384 1.424.74 2.046.617 1.009.94 1.542.968 1.602a44.363 44.363 0 0 1 1.358-3.78c0-.652.014-1.053.041-1.201.028-.148.166-.444.412-.89h.617c.027.356.069.593.123.712l.269.223c.082.089.157.207.227.355l.246 1.379-.103.846c-.343.652-.686 1.29-1.029 1.912a9.775 9.775 0 0 0-.782 2.402c2.127 3.231 4.501 5.484 7.122 6.76l.145 1.912-.475 1.557zm-2.072-19.746c-.837-.475-1.564-.712-2.182-.712-1.276 0-2.154.045-2.635.134-.935.236-1.773.756-2.518 1.557l-.289-.312c-.672 1.601-1.413 2.831-2.223 3.691-.192-.297-.419-.815-.68-1.557a5.325 5.325 0 0 1-.062-.935c.233-.711.844-2.061 1.832-4.047.714-1.453 1.201-3.099 1.461-4.937a5.431 5.431 0 0 1-.205-1.512c.082-.297.175-.601.277-.912.105-.312.246-.526.424-.645.111.385.331.652.66.8.4.148.669.594.807 1.335v1.601c-.345.355-.585 1.067-.722 2.135.633-.089 1.593-.134 2.883-.134.344 0 .868-.081 1.575-.244.706-.163 1.238-.244 1.595-.244.123 0 .501.385 1.133 1.156l.04 1.245-1.171 2.537zM130.297 44.55c-.329.238-.797.697-1.399 1.379l-.269-.133c.014 0-.075.043-.267.133-.893-.949-2.271-1.557-4.139-1.824-.096 0-.322-.043-.678-.133-.289-.088-.515-.133-.68-.133-1.002 0-2.141.252-3.417.756-.893.207-1.783.414-2.676.623-1.181.385-1.977 1.037-2.388 1.957l-.309-.668c0-.594-.117-1.363-.351-2.313l.289-2.135c.191-.326.363-.49.515-.49a.25.25 0 0 1 .185.09c.151-.593.227-1.334.227-2.224 0-.236-.007-.615-.021-1.134s-.021-.912-.021-1.179c0-.059.028-.874.084-2.446.026-1.245.082-3.112.164-5.604 0-.237.034-.652.103-1.245.042-.504.062-.919.062-1.245 0-.03-.15-.519-.452-1.468a4.328 4.328 0 0 1-.145-.801l1.132-1.823c.261.355.516.719.762 1.09.247.37.446.867.598 1.489-.138.386-.282 1.364-.433 2.936-.138 1.364-.22 2.401-.247 3.113v2.979c0 .208-.024.505-.072.89a7.67 7.67 0 0 0-.072.846c0 1.809-.006 3.498-.02 5.069.891-.385 2.099-.682 3.622-.89-.124 0-.315-.073-.577-.222l-.123-.356c.069-.771.289-1.778.658-3.023.495-1.661.776-2.64.844-2.936h-.103c-1.166 0-1.921.326-2.265.979-.218-.178-.451-.237-.699-.178l-.371-2.091.187-1.201c.549-.415 1.358-.741 2.429-.978 1.152-.237 1.977-.52 2.47-.846v-.267a4.52 4.52 0 0 0-.185-1.29l-.269-.178-1.194.089c-.438.089-.774.46-1.008 1.112-.287-1.127-.446-1.897-.474-2.313v-2.091c0-.355-.068-.682-.206-.979a6.816 6.816 0 0 1-.04-.667c0-.593.239-1.156.72-1.69.604.208.981.416 1.132.623.261.386.411 1.187.453 2.401.728-.355 1.928-.533 3.603-.533 1.015 0 1.798.296 2.347.89l-.083.934.083.89c-.439.741-1.047 1.097-1.822 1.067s-1.273.089-1.491.355v1.468c.521.355 2.229.534 5.125.534l.473.444-.124.979.104.801a2.048 2.048 0 0 1-.515 1.111 5.842 5.842 0 0 1-.659.623c-.452-.208-.912-.415-1.379-.623-.535-.267-.994-.4-1.379-.4a.708.708 0 0 0-.206.089l-.103.045c.082.384.281.984.597 1.798.316.813.508 1.516.576 2.108.056.384.082 1.185.082 2.396l-.02.089c.027.148.041.296.041.444 0 .06-.007.119-.021.176l-.02.356h-.576c-.481-.503-.988-1.664-1.523-3.484-.535-1.819-.981-2.952-1.338-3.396-.247.267-.542.86-.885 1.775-.262.741-.515 1.466-.762 2.176-.426 1.124-.92 2.116-1.482 2.974a8.79 8.79 0 0 1 1.358-.133c1.304 0 2.36.059 3.171.178.562.209 1.323.416 2.283.624.028 0 .542.062 1.545.18.247 0 .617.015 1.11.044.344.15.886.314 1.626.492l.021.535c.027 1.194-.248 2.071-.823 2.634zm-2.203-25.127c-.274 0-.699-.06-1.276-.179-.575-.118-1.008-.178-1.297-.178.028 0-.98.104-3.024.312-.948.089-1.853.208-2.718.355a79.56 79.56 0 0 1-1.399.179l-.082-.045a.317.317 0 0 0-.124-.045c-.109 0-.281.06-.514.179-.234.118-.419.178-.557.178-.289-.03-.398-.045-.329-.045-.165 0-.549.237-1.152.712a.633.633 0 0 1-.371.134c-.138-.297-.233-.741-.288-1.335-.082-.711-.151-1.186-.205-1.423.136-.771.309-1.275.514-1.512 1.016-.326 2.553-.652 4.611-.979.535 0 1.33-.016 2.388-.045.15-.029.631-.104 1.44-.223.59-.118 1.07-.178 1.441-.178 1.811 0 3.286.386 4.425 1.156 0 .949-.144 1.683-.432 2.202-.29.52-.64.78-1.051.78zM150.688 31.89l-.988.8c-1.208-1.008-2.635-3.068-4.281-6.182-.453.741-.823 1.111-1.112 1.111-.109 0-.253-.044-.433-.133-.233-.089-.384-.134-.451-.134-1.099-.237-1.874-.326-2.327-.267l-1.255.134c-.439.029-.879.044-1.318.044-.507.119-.919.46-1.234 1.023-.247 0-.418-.356-.515-1.067l-2.264 3.202c-.893 1.245-1.723 1.972-2.491 2.179l-.762-2.001.165-1.868c.728-.178 1.249-.37 1.564-.578.397-.267.851-.801 1.358-1.602.165-.296.46-.756.885-1.378-.178-.297-.343-.475-.494-.534l-.555.267c-.124-.147-.196-.496-.217-1.045-.021-.548-.059-.911-.113-1.09l.206-1.156.493-1.111c.192.355.512.793.958 1.312.446.52.765.972.957 1.356.096-.207.24-.489.432-.845.275-.504.556-1.008.844-1.512.385-.712.611-1.261.68-1.646-.576-.06-.795-.09-.659-.09-.535 0-.96.193-1.275.579l-.247-.134-.206-1.84.412-1.481c.055-.029.104-.059.144-.089.056 0 .128.089.217.268.089.178.141.267.154.267.082 0 .202-.035.36-.104.157-.069.277-.104.359-.104h.659c.673 0 1.221-.267 1.647-.8h.287l.762 1.606-.165 1.295a10.397 10.397 0 0 0-.968 1.916c-.109.326-.287.786-.535 1.379-.329.593-.788 1.571-1.379 2.936h.042c.014.029.033.044.062.044.027 0 .35-.089.967-.267 1.318-.326 2.367-.489 3.15-.489.864 0 1.563.119 2.099.355l.021-.044a11.153 11.153 0 0 0-.782-1.823 44.661 44.661 0 0 0-.884-1.646c-.755-1.515-1.133-2.911-1.133-4.194l.474-.891.844.711c.247-.118.775-.281 1.585-.489.81-.207 1.283-.296 1.42-.267l.803.223.289 1.204-.187.939.083.402c-.22.625-.487 1.071-.803 1.338l-.433-.222h-.062c-.041 0-.281.059-.721.178l-.082.178c.123.652.46 1.408 1.009 2.268.138-.089.549-.593 1.234-1.512.165-.237.364-.46.598-.667.026.297.206.741.535 1.334.082.148.171.371.267.667-.233.268-.349.667-.349 1.201a3.948 3.948 0 0 0-.556.312.995.995 0 0 0-.475.622c.92 1.305 2.436 2.713 4.55 4.226-.164 1.454-.452 2.596-.864 3.426zm-1.393 10.838c-.151.266-.302.525-.453.777s-.247.6-.287 1.045l-.906 1.289a27.95 27.95 0 0 0-1.07-.844c-.535-.416-.919-.623-1.152-.623a.28.28 0 0 0-.165.045c-.467-.387-1.132-.779-1.996-1.18-.865-.4-1.523-.6-1.977-.6-.672 0-1.387.09-2.141.268-.521.146-1.42.592-2.697 1.334-1.33.77-2.188 1.363-2.572 1.779-.206.207-.412.563-.617 1.066-.37-.92-.557-2.238-.557-3.959.069-.088.173-.43.31-1.021.123-.445.261-.668.412-.668.068 0 .233.061.493.178 1.605-1.037 3.088-1.63 4.446-1.778l.062-.4a42.563 42.563 0 0 0-.205-2.224c-.783.03-1.407.475-1.874 1.335-.342 0-.568-.179-.679-.534-.069-.178-.138-.652-.206-1.423a1.13 1.13 0 0 0-.205-.534c.26-.682.411-1.482.452-2.401 0-.444.048-1.082.145-1.912 0-.178-.052-.423-.154-.734a3 3 0 0 1-.154-.956c.041-.207.109-.386.205-.533.096 0 .288.073.577.222l.226-.311c.055.118.145.267.268.444a30.607 30.607 0 0 1 2.079-.801h2.306a43.498 43.498 0 0 1 1.605-.044c.549 0 .995.089 1.338.267.068-.504.246-.756.535-.756h.186c.096 0 .171.015.226.044.124.148.316.386.577.712.178.237.335.638.473 1.201l-.247 1.467c.083.86.124 1.394.124 1.602 0 .593-.079 1.171-.236 1.734-.159.563-.374.904-.648 1.022l-.186.801c-.344.06-.521.089-.535.089-.192 0-.463-.096-.813-.289-.35-.192-.613-.289-.792-.289a9.96 9.96 0 0 0-.309 2.491c.411.029 1.028.104 1.853.222.178.03.658.148 1.44.356.576.178 1.057.267 1.44.267.508 0 .94.104 1.297.312l.659-.134c0 .475.124.979.37 1.512-.072.473-.161.828-.271 1.067zm-4.789-10.147c-.137-.205-.356-.354-.658-.44a5.752 5.752 0 0 1-.7-.134c-.178.118-.274.178-.288.178-1.907-.237-2.889-.354-2.943-.354-.344 0-.83.131-1.461.396-.715.265-1.146.56-1.297.882-.124.206-.186.591-.186 1.152l.123.179c.961-.534 2.696-.801 5.208-.801.191 0 .483.022.874.066.392.045.689.066.896.066h.453l.063-.22-.084-.97zm-4.563 6.943c.11 0 .474-.104 1.091-.311.055-.268.082-.652.082-1.156 0-.505.015-.86.042-1.067l-.083-.356c-.206 0-.494.074-.864.223-.233.178-.35.667-.35 1.468 0-.03.027.369.082 1.199z"/><path fill="#B2B2B2" d="M157.973 43.261l-1.914-.223c-.178 0-.446.029-.804.088a5.21 5.21 0 0 1-.822.09c-.823 0-1.771.52-2.841 1.557-.356.355-.665.594-.927.711a152.56 152.56 0 0 0-.227-1.066c-.082-.387-.178-.639-.287-.756.041-1.188.302-1.928.782-2.225.397-.266.994-.652 1.79-1.155.494-.326.968-.549 1.421-.667v-6.938l-.247-.267c-.632.148-.981.237-1.05.267-.411.178-.706.534-.886 1.067l-.493-.533c0-.505-.124-1.127-.371-1.868.069-.919.269-1.379.598-1.379.014 0 .15.089.411.267.549-.444 1.228-.696 2.038-.756.055-.237.082-.475.082-.712 0-.533-.062-.979-.185-1.334l-2.018.4-.021-2.001c0-.208.047-.423.144-.646.097-.222.192-.304.289-.244l.432.178c.508-.415 1.407-.623 2.696-.623.137 0 .34-.021.606-.066.269-.044.464-.066.587-.066.22 0 .509.312.864.934v1.468l-1.935.444c-.109.297-.185.935-.226 1.913l1.316.267c.549.178.961.504 1.235.979l.124 1.512c-.631.03-1.537.148-2.717.356-.11.889-.166 2.061-.166 3.513v3.559c.92.118 1.455.207 1.606.267.549.178 1.063.519 1.544 1.022l-.428 2.666zm.364-19.525c-.701 0-1.771-1.319-3.211-3.958-.138.029-.591.756-1.359 2.179-.178.356-.322.594-.433.712-.164.119-.411.326-.74.623-.398.444-.734.667-1.009.667-.123 0-.233.133-.329.4-.275-.119-.487-.163-.638-.134l-.433-.444v-.801c.356-.623.885-1.364 1.585-2.224.699-.86 1.193-1.557 1.481-2.091.521-.889.92-1.972 1.194-3.246l.638-.312c.042.386.165.712.371.979.479.563.713 1.275.699 2.135.247.326.762.786 1.544 1.379a5.034 5.034 0 0 1 1.503 1.734l.103 1.245c-.26.772-.582 1.157-.966 1.157zm-5.496 16.189c-.288-.385-.467-.979-.535-1.778a10.83 10.83 0 0 0-.145-1.023c-.014-.059-.11-.385-.288-.979-.151-.444-.227-.771-.227-.979 0-.385.103-.696.309-.934.028-.029.076-.089.145-.178.59.326 1.077.83 1.461 1.512-.151.979-.391 2.432-.72 4.359zm4.178-3.069c-.164.355-.377.979-.638 1.868l-.206.044c-.178-.178-.287-.489-.329-.934l.247-2.401-.247-1.201c.027-.415.103-.712.227-.89.068-.029.185-.089.351-.178.246.237.589.667 1.028 1.29a6.826 6.826 0 0 1-.433 2.402zm7.198-8.615c0 .415-.021.993-.062 1.734a32.515 32.515 0 0 0-.063 1.692c0-.148.041.919.124 3.202.205.267.672.979 1.399 2.135.864 1.363 1.626 2.283 2.285 2.757.59.445 1.488.83 2.696 1.156v1.378c-.233.891-.46 1.453-.68 1.691a4.008 4.008 0 0 0-.411.488c-.069.238-.187.594-.351 1.068-.109.117-.28.326-.515.621a4.75 4.75 0 0 0-.041.535c-.59-.713-1.208-1.676-1.853-2.891-.563-1.127-1.44-2.713-2.635-4.759-.143 2.253-.213 3.765-.213 4.536 0 .414-.13 1.156-.391 2.223-.645-1.066-.967-2.668-.967-4.803 0-.089.026-2.179.082-6.271 0-.118-.011-.296-.031-.533s-.031-.4-.031-.489c0-.297.011-.727.031-1.29s.031-.993.031-1.29c0-1.039-.069-1.943-.206-2.715-.906.326-1.469.549-1.688.667-.728.445-1.2 1.053-1.42 1.826-.288 0-.487-.223-.597-.669-.015-.03-.09-.506-.227-1.429a.965.965 0 0 0-.186-.491c.056-1.101.262-1.651.617-1.651l.433.4c1.482-1.54 3.539-2.205 6.169-1.998 0-.385.021-.962.061-1.73-.397.207-1.282.368-2.654.487-1.112.118-1.956.475-2.531 1.065-.193-.354-.289-.858-.289-1.509l.021-.709.227-.977.411.131c.577-.591 1.358-.886 2.347-.886.124 0 .309.015.556.045h.557c.837 0 1.344.368 1.524 1.108a21.47 21.47 0 0 0 .123-2.087c-.054-.087-.109-.132-.164-.132a.516.516 0 0 0-.177.045.521.521 0 0 1-.176.042c-.26 0-.664-.057-1.213-.176-.55-.118-.961-.178-1.236-.178-.699 0-1.371.267-2.017.801-.343.326-.535.489-.577.489-.26 0-.438-.386-.535-1.156a69.666 69.666 0 0 1-.143-1.831c.096-.863.295-1.266.596-1.207l.145.045.247.312c.934-.415 2.257-.625 3.972-.625.688 0 1.313-.207 1.879-.622.812.891 1.278 2.003 1.401 3.337-.151.328-.37.817-.658 1.47-.055.477-.131 1.099-.227 1.87-.082.387-.186.995-.309 1.825a8.85 8.85 0 0 0-.021.669c.59.178 1.187.341 1.791.489.686.237 1.262.533 1.729.89l-.041 1.558-1.133 2.048c-1.998-1.212-3.596-1.79-4.785-1.731zm-2.382 11.863c-.301.325-.565.778-.792 1.356l-.669 1.711c-.082.178-.198.445-.35.801-.055.238-.062.637-.021 1.201l-.658.889-.885-3.156-.021-.4c-.027-.684.124-1.217.453-1.602l.309.133c.288-.651.713-1.452 1.276-2.4.645-1.098 1.077-1.868 1.297-2.313.233 0 .369.208.411.623-.233 1.54-.35 2.593-.35 3.157zm-2.182-3.648l-.391-.444-.186-1.379c.082-1.305.351-1.957.803-1.957l.329.444.722-.222c.096-.03.26.015.493.133.288.119.48.312.577.578a8.226 8.226 0 0 1-1.133 1.602c-.396.415-.802.83-1.214 1.245zm8.44-2.624c-.261.771-.474 1.112-.638 1.023l-.392-.223-.226.267-.392-.312-1.029.268c-.082-.06-.261-.074-.535-.045-.191.029-.371-.134-.535-.489.576-.771 1.44-1.957 2.594-3.558.068.326.199.638.391.934.192.297.377.578.557.845.136.237.26.505.369.801-.04.119-.096.282-.164.489z"/><path d="M88.165 32.88c.014.029.048.118.103.267.014.03.034.104.062.223l-.082.532c.138.147.324.222.558.222s.404.045.515.134c.191-.03.386-.045.577-.045.783 0 1.921.208 3.417.623l-.123 1.732a49.618 49.618 0 0 1-.987 1.334c-.386.445-.748.771-1.092.979-.823-.622-1.848-1.156-3.07-1.601l-.021.044v.089c.027.326.056.801.083 1.424.013.296.02 1.037.02 2.224 0 .118.011.289.032.512.02.222.03.393.03.511 0 .534-.179 1.187-.537 1.957a2.91 2.91 0 0 0-.268.979c-.756.8-1.354 1.2-1.794 1.2-.261 0-.631-.104-1.114-.311-.521-.208-.886-.438-1.092-.689s-.523-.631-.948-1.135l-.617-.622c-.206-.208-.364-.519-.475-.935-.054-.326-.212-.814-.474-1.467l.68-.578c.535.118 1.34.444 2.412.979.055-.03.514-.223 1.381-.578a3.185 3.185 0 0 0 1.341-1.023l-.022-2.671c-.11-.119-.33-.178-.66-.178-.069 0-.17-.016-.301-.045a1.514 1.514 0 0 0-.297-.045c-.357 0-.895.037-1.61.111-.713.074-1.243.111-1.586.111-.315.297-.762 1.008-1.339 2.135-.507 1.037-.891 1.912-1.152 2.624-.137.504-.37 1.2-.699 2.091l-.803-.179c-.15-.326-.258-.83-.319-1.512-.062-.683-.182-1.127-.359-1.335l-.021-.311c0-.386.113-.704.34-.956s.353-.438.381-.556c.329-.148.933-.712 1.811-1.69-.589.029-1.413.223-2.47.578-1.139.386-1.865.741-2.181 1.067-.18.178-.33.549-.453 1.111l-.927.223c-.439-.385-.658-1.705-.658-3.958l.946-.979.391.134c3.102-1.305 6.198-1.957 9.287-1.957.659 0 1.36.029 2.103.089a30.121 30.121 0 0 1-.247-1.245c-.207-.178-.481-.223-.825-.134l-.866.178c-.082 0-.199-.029-.352-.089a1.05 1.05 0 0 0-.329-.089c-.123 0-.309.037-.558.111-.246.074-.432.111-.555.111-1.47 0-2.82.223-4.056.667-.014 0-.302.297-.864.89a2 2 0 0 1-.432.312l-.516-2.624c.151-1.453.405-3.603.762-6.449l-.391-2.847c.109-.682.315-1.022.617-1.022l.535.444a8.497 8.497 0 0 1 3.869-.934c.083 0 .281.06.598.178.013-.207.021-.548.021-1.022v-.178c-.132-.208-.316-.282-.55-.223l-.473.134a.577.577 0 0 1-.227-.067.59.59 0 0 0-.227-.066c-.205 0-.706.044-1.502.134-.632.059-1.139.089-1.523.089-.206 0-.474.147-.803.444l-.782.712c-.22-.297-.404-1.053-.556-2.269l.248-.799c.549-.711 1.57-1.142 3.066-1.289 1.098-.09 2.196-.193 3.294-.312.014-.89.02-1.23.02-1.023 0-.059-.096-.4-.287-1.022v-.355c.219-.445.631-.742 1.235-.89.178.622.452.993.823 1.111.247.534.37.904.37 1.112 0 .385-.043.771-.125 1.156h.041l.041.044a.73.73 0 0 0 .104.089c2.429-.147 3.712-.222 3.85-.222.631 0 1.07.089 1.317.269.411.297.72.952.926 1.964-.22.091-.473.306-.762.649-.288.343-.528.513-.721.513-.082 0-.202-.022-.359-.066a1.425 1.425 0 0 0-.36-.066.444.444 0 0 0-.392.222l-1.05-.178c-.576 0-1.512.089-2.805.267-.042.06-.063.237-.063.532 0 .207.007.444.021.712h1.833c.069 0 .175.021.321.066.144.044.25.066.318.066l1.113-.089c.316-.65.632-.977.947-.977.027.06.261.46.701 1.199.302.504.453 1.008.453 1.512 0 .237-.048.48-.145.732-.096.252-.144.438-.144.556 0 .504.039 1.273.116 2.311.077 1.036.117 1.807.117 2.312 0 .267-.052.546-.154.843a3.203 3.203 0 0 0-.176.667l.063.623c-.589.77-1.083 1.346-1.482 1.732zm-5.609-4.422c-.041-.118-.082-.178-.123-.178a4.25 4.25 0 0 0-.617.066 4.184 4.184 0 0 1-.598.067c-1.701.06-2.717.533-3.046 1.423-.042.119-.103.312-.186.578l.083.045c.562-.268 1.31-.504 2.243-.712a194.36 194.36 0 0 0 2.265-.578l-.021-.711zm-.062-4.152l-.041-.087h-.124c-1.715 0-2.325-.015-1.832-.045-.782.03-1.364.217-1.749.562-.068.174-.104.406-.104.699 0 .118.007.207.021.267 1.112-.356 2.382-.534 3.809-.534.013-.143.021-.272.021-.387v-.475zm5.894 3.945l-.062-.089a1.159 1.159 0 0 0-.515-.134c-1.537 0-2.703.192-3.5.578-.04.03-.061.119-.061.267 0 .06.007.134.021.223l2.758.445c.329.029.803-.163 1.42-.579 0-.148-.02-.385-.061-.711zm-.254-3.247a2.26 2.26 0 0 0-.041-.4 12.173 12.173 0 0 0-.803-.222 3.546 3.546 0 0 0-.803 0c-.453.029-.728.044-.823.044-.069 0-.213-.044-.433-.133-.205-.06-.487-.03-.844.089l-.083.533.063.4h1.853c.768 0 1.372.134 1.812.4l.103-.578v-.133z"/><path d="M99.426 32.548l-.906.892c-1.084 0-1.894.192-2.429.578-1.564 1.127-2.346 2.417-2.346 3.869l-.495.4-.329-.4c-.055-.237-.116-.801-.186-1.689-.054-.712-.157-1.23-.309-1.557 0-.208.021-.386.062-.534.042-.06.117-.148.227-.267a1.485 1.485 0 0 1-.103-.534c0-.385.487-1.099 1.462-2.137.905-.921 1.599-1.499 2.078-1.736l-.123-6.231-.144-.178c-.604.296-1.037.771-1.297 1.423l-.33-.312c-.082-.207-.164-.652-.247-1.336-.068-.593-.178-.979-.329-1.156l.289-1.024.02-.667.576-.489.206.222c1.03-.713 2.196-1.069 3.5-1.069.521 0 .933.326 1.234.979l.145.979a5.865 5.865 0 0 0-.021 1.468c-.179.267-.364.386-.557.355l-.205.223c-.563-.237-.804-.355-.721-.355-.083 0-.296.178-.638.533l.062 1.246-.186.399c-.027.623-.041.979-.041 1.067 0 .208.075 1.364.227 3.47a.74.74 0 0 0 .247.044c.109 0 .278-.044.505-.133.226-.09.4-.134.523-.134.453 0 .804.832 1.05 2.498-.272.296-.43.726-.471 1.293zm12.432 10.795l-.783 1.022c-.273.118-.445.37-.514.756l-.412.312c-.233-.178-.789-.993-1.668-2.446-.355-.444-.891-1.126-1.605-2.046-.822-1.156-1.817-2.771-2.984-4.848-.273.563-.672 1.424-1.193 2.58-.384 1.008-.987 2.416-1.812 4.225-.191.385-.515.801-.968 1.245-.452.444-.795.667-1.028.667l-.946-.223-.928-1.512a4.819 4.819 0 0 1-.103-.801c0-.593.227-1.037.68-1.334.027-.029.357-.163.988-.4.233-.118.568-.385 1.008-.8.165-.148.392-.415.68-.801a436.378 436.378 0 0 1 2.325-5.159l-.781-1.601-.31.044c-.191-.237-.363-.682-.515-1.334a191.66 191.66 0 0 1-.329-1.646c0-.355.069-.86.206-1.513a2.95 2.95 0 0 0 .412-.178l.268.178.432-.222c.138.741.384 1.423.741 2.046.617 1.008.939 1.541.968 1.601a44.495 44.495 0 0 1 1.357-3.78c0-.652.015-1.053.042-1.2.027-.148.165-.445.411-.89h.617c.028.355.069.593.124.711l.269.223c.082.089.157.208.227.355l.246 1.379-.104.845c-.342.652-.686 1.29-1.028 1.913a9.74 9.74 0 0 0-.782 2.401c2.127 3.231 4.501 5.485 7.122 6.76l.145 1.913-.475 1.558zm-2.072-19.747c-.837-.475-1.564-.712-2.182-.712-1.277 0-2.154.045-2.635.134-.936.237-1.774.756-2.518 1.557l-.289-.312c-.672 1.602-1.414 2.832-2.223 3.691-.192-.296-.419-.815-.68-1.557-.041-.207-.062-.519-.062-.934.233-.712.844-2.061 1.832-4.047.713-1.453 1.201-3.099 1.461-4.938a5.384 5.384 0 0 1-.206-1.512c.082-.297.176-.601.278-.912.104-.311.245-.526.424-.645.111.386.331.652.66.801.399.148.669.593.807 1.334v1.602c-.346.355-.585 1.067-.723 2.135.634-.09 1.594-.134 2.884-.134.344 0 .867-.082 1.575-.245.706-.163 1.238-.244 1.595-.244.123 0 .501.386 1.132 1.156l.041 1.245-1.171 2.537z"/><path fill="#316745" d="M129.284 43.55c-.33.237-.797.697-1.4 1.379l-.268-.134c.014 0-.075.044-.268.134-.892-.949-2.271-1.557-4.138-1.824-.096 0-.322-.044-.679-.133-.289-.089-.514-.133-.68-.133-1.002 0-2.141.252-3.416.756l-2.676.622c-1.181.386-1.977 1.038-2.389 1.957l-.309-.667c0-.594-.116-1.364-.35-2.313l.289-2.135c.191-.326.362-.49.514-.49a.25.25 0 0 1 .186.09c.151-.593.227-1.334.227-2.224 0-.237-.007-.615-.021-1.134-.014-.52-.021-.912-.021-1.179 0-.06.028-.875.083-2.446.027-1.245.082-3.113.164-5.604 0-.237.035-.652.104-1.246.041-.504.062-.919.062-1.245 0-.029-.15-.519-.452-1.468a4.317 4.317 0 0 1-.145-.8l1.132-1.824c.261.356.515.72.762 1.09.247.371.445.867.597 1.49-.137.386-.281 1.364-.432 2.936-.138 1.363-.22 2.401-.248 3.113v2.979c0 .207-.023.504-.072.89a7.85 7.85 0 0 0-.071.845c0 1.809-.007 3.499-.021 5.07.892-.386 2.1-.683 3.623-.89-.124 0-.315-.074-.577-.223l-.123-.355c.068-.771.288-1.779.658-3.024.495-1.66.775-2.639.844-2.936h-.103c-1.166 0-1.921.326-2.265.979-.219-.178-.452-.237-.699-.178l-.371-2.09.187-1.201c.549-.415 1.357-.741 2.428-.979 1.152-.237 1.977-.519 2.471-.845v-.268a4.48 4.48 0 0 0-.186-1.289l-.268-.178-1.194.089c-.438.089-.774.459-1.008 1.111-.288-1.126-.446-1.897-.474-2.313v-2.09a2.29 2.29 0 0 0-.206-.979 6.833 6.833 0 0 1-.04-.667c0-.594.239-1.157.72-1.69.604.207.981.415 1.132.623.261.385.411 1.186.453 2.401.727-.356 1.928-.534 3.603-.534 1.015 0 1.797.297 2.347.89l-.084.935.084.889c-.439.741-1.047 1.098-1.822 1.067-.775-.029-1.273.089-1.492.356v1.468c.521.355 2.229.533 5.125.533l.473.444-.123.979.104.801a2.06 2.06 0 0 1-.516 1.112c-.123.148-.342.355-.658.622-.452-.207-.912-.415-1.379-.622-.535-.268-.994-.4-1.379-.4-.028 0-.096.029-.206.089l-.103.044c.082.384.28.984.596 1.798.317.813.509 1.516.577 2.109.056.383.082 1.184.082 2.396l-.02.089c.026.148.04.297.04.445a.75.75 0 0 1-.021.176l-.02.355h-.577c-.48-.502-.988-1.664-1.523-3.483-.535-1.82-.98-2.952-1.337-3.396-.247.267-.542.859-.886 1.774-.261.741-.514 1.466-.762 2.176-.425 1.125-.92 2.116-1.481 2.975a8.81 8.81 0 0 1 1.358-.134c1.304 0 2.36.06 3.17.178.563.21 1.324.417 2.284.625.027 0 .542.061 1.544.18.248 0 .617.015 1.111.044.343.15.885.313 1.626.491l.021.536c.029 1.193-.247 2.069-.822 2.633zm-2.203-25.128c-.274 0-.699-.06-1.276-.178-.575-.119-1.008-.178-1.297-.178.028 0-.981.104-3.024.312-.948.089-1.854.207-2.718.355-.906.118-1.372.178-1.399.178l-.082-.045a.316.316 0 0 0-.124-.044c-.109 0-.282.06-.515.178-.233.119-.418.178-.556.178-.289-.029-.398-.044-.329-.044-.165 0-.549.237-1.152.711a.629.629 0 0 1-.371.134c-.138-.297-.233-.741-.288-1.334-.082-.712-.151-1.187-.206-1.424.137-.771.309-1.274.515-1.512 1.015-.326 2.552-.652 4.61-.979.535 0 1.331-.015 2.389-.044.15-.03.631-.104 1.439-.223.591-.119 1.07-.178 1.441-.178 1.812 0 3.286.385 4.426 1.156 0 .948-.145 1.683-.432 2.201-.289.52-.64.78-1.051.78z"/><path d="M149.675 30.89l-.988.801c-1.207-1.009-2.634-3.069-4.281-6.183-.453.741-.822 1.112-1.111 1.112-.11 0-.253-.045-.433-.134-.233-.089-.384-.133-.452-.133-1.098-.237-1.873-.326-2.326-.268l-1.256.134c-.438.029-.878.045-1.317.045-.507.118-.919.459-1.234 1.022-.247 0-.418-.355-.516-1.067l-2.263 3.202c-.893 1.245-1.723 1.972-2.491 2.18l-.762-2.002.164-1.868c.729-.178 1.25-.37 1.565-.578.397-.267.851-.8 1.358-1.601.165-.297.46-.756.885-1.379-.178-.296-.343-.475-.494-.533l-.556.267c-.123-.148-.195-.497-.216-1.045-.021-.549-.059-.912-.113-1.09l.206-1.156.493-1.112c.192.356.512.793.958 1.313.446.519.765.971.956 1.356.097-.208.24-.489.433-.846.275-.504.556-1.008.844-1.512.385-.712.611-1.26.68-1.646-.577-.06-.795-.089-.659-.089-.535 0-.96.192-1.275.578l-.248-.134-.205-1.84.412-1.48c.055-.029.103-.06.144-.089.056 0 .128.089.217.267s.141.267.154.267c.082 0 .201-.035.359-.104s.278-.104.36-.104h.659c.673 0 1.221-.267 1.646-.801h.288l.762 1.606-.165 1.296a10.366 10.366 0 0 0-.968 1.916c-.109.326-.288.785-.535 1.379-.329.593-.788 1.571-1.379 2.935h.042c.014.03.033.045.062.045.027 0 .35-.089.967-.267 1.317-.326 2.367-.489 3.149-.489.865 0 1.564.118 2.1.355l.021-.045a11.24 11.24 0 0 0-.782-1.823 45.495 45.495 0 0 0-.885-1.646c-.754-1.514-1.132-2.911-1.132-4.193l.474-.892.844.712c.247-.119.775-.282 1.584-.489.811-.208 1.283-.297 1.421-.267l.803.222.288 1.205-.186.939.083.402c-.22.624-.487 1.07-.804 1.338l-.432-.223h-.062c-.042 0-.282.06-.721.178l-.082.178c.123.652.46 1.408 1.009 2.269.138-.089.549-.593 1.234-1.512.165-.237.364-.46.598-.668.026.297.205.741.535 1.335.082.147.171.37.267.667-.233.267-.349.667-.349 1.2a4.121 4.121 0 0 0-.557.312 1 1 0 0 0-.474.623c.92 1.305 2.436 2.713 4.55 4.225-.166 1.455-.453 2.597-.865 3.427zm-1.393 10.837c-.151.267-.302.526-.453.778s-.247.6-.288 1.045l-.905 1.289a26.994 26.994 0 0 0-1.07-.844c-.535-.416-.919-.623-1.152-.623a.279.279 0 0 0-.166.045c-.466-.387-1.131-.779-1.996-1.18-.864-.4-1.523-.6-1.977-.6-.671 0-1.386.089-2.141.267-.521.147-1.419.593-2.696 1.334-1.33.771-2.188 1.364-2.573 1.779-.205.208-.411.563-.617 1.067-.369-.92-.556-2.238-.556-3.959.069-.088.172-.43.31-1.022.123-.444.261-.667.412-.667.067 0 .233.06.493.178 1.605-1.037 3.087-1.63 4.446-1.778l.062-.4a41.71 41.71 0 0 0-.206-2.224c-.782.029-1.406.475-1.873 1.334-.343 0-.569-.178-.679-.533-.069-.179-.138-.652-.206-1.424a1.13 1.13 0 0 0-.205-.533c.26-.683.411-1.482.451-2.402 0-.444.049-1.082.145-1.912 0-.178-.051-.422-.154-.733a3.027 3.027 0 0 1-.154-.956c.042-.208.11-.386.206-.534.096 0 .288.074.577.223l.225-.312c.056.118.145.267.269.444a31.264 31.264 0 0 1 2.079-.8H140.195c.714-.03 1.25-.045 1.605-.045.549 0 .995.089 1.339.267.068-.504.246-.756.535-.756h.185c.096 0 .172.015.227.045.124.147.315.385.577.711.178.237.335.638.473 1.201l-.247 1.468c.083.859.123 1.394.123 1.601 0 .594-.079 1.172-.236 1.734-.158.563-.374.905-.647 1.023l-.187.801a18.31 18.31 0 0 1-.535.089c-.191 0-.463-.097-.813-.289-.35-.193-.613-.289-.793-.289a10.004 10.004 0 0 0-.309 2.49c.412.029 1.029.104 1.854.223.178.029.658.148 1.439.355.577.178 1.058.267 1.441.267.508 0 .939.104 1.297.312l.659-.133c0 .474.123.978.37 1.512-.071.473-.159.828-.27 1.066zm-4.789-10.146c-.137-.206-.356-.354-.658-.441a5.747 5.747 0 0 1-.7-.133c-.179.118-.274.178-.288.178-1.907-.237-2.889-.354-2.944-.354-.343 0-.829.132-1.461.396-.714.266-1.146.56-1.297.883-.123.205-.185.591-.185 1.152l.123.178c.961-.533 2.696-.801 5.208-.801.191 0 .483.022.874.067.392.044.689.066.896.066h.453l.063-.221-.084-.97zm-4.562 6.943c.109 0 .474-.104 1.091-.312.055-.267.082-.652.082-1.156s.014-.859.042-1.067l-.083-.355c-.206 0-.494.074-.865.222-.232.179-.349.668-.349 1.468 0-.03.026.37.082 1.2z"/><path d="M156.96 42.26l-1.914-.222c-.179 0-.446.029-.804.088a5.22 5.22 0 0 1-.823.09c-.822 0-1.77.519-2.84 1.557-.357.355-.666.593-.927.711a152.56 152.56 0 0 0-.227-1.066c-.082-.387-.178-.639-.288-.757.042-1.187.302-1.927.783-2.224a84.81 84.81 0 0 1 1.79-1.156c.493-.326.968-.549 1.421-.667v-6.938l-.248-.268c-.631.148-.98.237-1.049.268-.412.178-.707.533-.886 1.067l-.493-.534c0-.504-.124-1.127-.371-1.868.069-.919.268-1.379.598-1.379.014 0 .15.09.411.268.549-.445 1.228-.697 2.038-.756.054-.237.082-.475.082-.712 0-.534-.062-.979-.186-1.334l-2.017.399-.021-2.001c0-.207.047-.423.143-.645.098-.223.193-.304.289-.245l.433.178c.507-.415 1.406-.622 2.696-.622.137 0 .34-.022.606-.066.269-.045.464-.067.587-.067.22 0 .508.312.864.935v1.467l-1.935.445c-.11.297-.186.934-.226 1.912l1.316.267c.549.179.961.505 1.235.979l.124 1.513c-.631.029-1.537.148-2.718.355-.109.89-.165 2.061-.165 3.514v3.558c.92.119 1.455.208 1.606.268.548.178 1.063.519 1.543 1.022l-.427 2.666zm.363-19.524c-.7 0-1.771-1.319-3.211-3.959-.137.03-.59.757-1.358 2.18-.179.355-.323.593-.433.712-.164.118-.411.326-.741.622-.397.445-.733.667-1.008.667-.124 0-.233.134-.329.4-.275-.118-.488-.163-.639-.133l-.432-.445v-.801c.355-.622.884-1.363 1.584-2.224.7-.859 1.194-1.557 1.482-2.09.521-.89.92-1.972 1.193-3.247l.639-.311c.041.385.165.711.371.978.479.563.713 1.275.699 2.135.247.326.762.786 1.544 1.379a5.034 5.034 0 0 1 1.503 1.734l.103 1.246c-.26.772-.583 1.157-.967 1.157zm-5.496 16.189c-.287-.386-.467-.979-.535-1.779a10.56 10.56 0 0 0-.144-1.022c-.015-.06-.11-.386-.288-.979-.151-.445-.227-.771-.227-.979 0-.386.103-.697.309-.935.027-.029.076-.089.145-.178.59.326 1.077.83 1.461 1.513-.151.979-.391 2.431-.721 4.359zm4.179-3.07c-.164.356-.377.979-.638 1.868l-.206.045c-.178-.178-.288-.489-.329-.935l.247-2.401-.247-1.201c.027-.415.103-.711.227-.889.068-.03.185-.089.35-.179.247.237.59.668 1.029 1.29a6.826 6.826 0 0 1-.433 2.402zm7.197-8.614c0 .415-.021.993-.062 1.734a33.44 33.44 0 0 0-.062 1.691c0-.148.041.919.123 3.202.206.268.673.979 1.4 2.135.864 1.364 1.626 2.283 2.285 2.758.589.444 1.488.83 2.696 1.156v1.378c-.233.891-.46 1.453-.68 1.69a4.038 4.038 0 0 0-.411.489c-.069.237-.187.594-.351 1.067-.109.118-.281.326-.515.622a4.747 4.747 0 0 0-.041.534c-.59-.712-1.208-1.675-1.854-2.891-.562-1.127-1.439-2.713-2.634-4.759-.143 2.254-.213 3.766-.213 4.536 0 .415-.131 1.157-.391 2.224-.645-1.066-.968-2.668-.968-4.803 0-.089.027-2.18.083-6.271 0-.119-.012-.297-.031-.534a6.546 6.546 0 0 1-.031-.489c0-.296.011-.727.031-1.29.02-.563.031-.993.031-1.289 0-1.04-.069-1.944-.206-2.715-.906.326-1.469.548-1.688.667-.728.444-1.2 1.053-1.42 1.825-.289 0-.487-.223-.598-.669-.014-.029-.089-.506-.227-1.429a.959.959 0 0 0-.185-.491c.056-1.101.261-1.651.617-1.651l.433.4c1.482-1.54 3.539-2.205 6.168-1.997 0-.386.021-.962.062-1.731-.397.208-1.283.369-2.655.487-1.111.119-1.955.475-2.531 1.066-.192-.354-.288-.858-.288-1.509l.021-.71.227-.977.411.132c.577-.592 1.358-.886 2.347-.886.123 0 .309.015.556.044h.556c.837 0 1.345.369 1.524 1.108.083-.828.124-1.523.124-2.087-.055-.087-.109-.131-.164-.131a.538.538 0 0 0-.178.044.495.495 0 0 1-.175.043c-.26 0-.665-.058-1.214-.176-.549-.119-.96-.179-1.235-.179-.699 0-1.372.268-2.017.801-.344.326-.535.489-.577.489-.26 0-.438-.386-.535-1.156a73.427 73.427 0 0 1-.144-1.831c.097-.863.295-1.266.597-1.206l.145.044.246.312c.935-.415 2.258-.624 3.973-.624.687 0 1.313-.208 1.879-.623.811.892 1.278 2.003 1.401 3.338-.151.328-.371.817-.658 1.47-.055.476-.131 1.099-.227 1.869-.082.388-.186.995-.309 1.825a8.35 8.35 0 0 0-.021.669c.591.178 1.188.341 1.792.489.686.237 1.262.534 1.728.89l-.04 1.559-1.133 2.048c-1.999-1.212-3.596-1.79-4.787-1.731zm-2.381 11.862c-.302.326-.565.778-.792 1.356s-.449 1.149-.669 1.712a38.69 38.69 0 0 0-.351.801c-.054.237-.061.637-.021 1.201l-.658.889-.885-3.157-.021-.4c-.028-.683.123-1.216.453-1.601l.309.133c.287-.652.713-1.452 1.275-2.401.646-1.097 1.078-1.868 1.297-2.313.233 0 .37.207.412.623-.232 1.54-.349 2.593-.349 3.157zm-2.181-3.647l-.392-.445-.185-1.379c.082-1.305.351-1.956.803-1.956l.329.444.721-.223c.097-.029.261.015.494.134.288.118.48.312.576.578a8.22 8.22 0 0 1-1.133 1.601c-.397.415-.801.831-1.213 1.246zm8.439-2.624c-.261.771-.474 1.111-.638 1.022l-.392-.223-.226.268-.393-.312-1.028.267c-.082-.06-.261-.074-.535-.044-.192.029-.371-.134-.535-.489.576-.771 1.44-1.957 2.594-3.559.068.326.199.638.391.935.192.296.377.578.556.845.137.237.261.504.37.801-.04.118-.096.281-.164.489z"/><linearGradient id="i" gradientUnits="userSpaceOnUse" x1="94.897" y1="28.252" x2="150.203" y2="83.558"><stop offset="0" stop-color="#ead18f"/><stop offset=".076" stop-color="#e1c477"/><stop offset=".221" stop-color="#d1af4e"/><stop offset=".335" stop-color="#c8a235"/><stop offset=".405" stop-color="#c49d2c"/><stop offset=".559" stop-color="#d4b35c"/><stop offset=".766" stop-color="#e7cd97"/><stop offset=".919" stop-color="#f3debb"/><stop offset="1" stop-color="#f8e4c9"/></linearGradient><path opacity=".8" fill="url(#i)" d="M73.743 49.405h97.612v13H73.743z"/><path fill="#ABABAB" d="M83.394 77.349c-.475.58-.959.939-1.45 1.07-.222.053-.563.156-1.022.314-.224.133-.563.279-1.024.438-.57.078-.966.143-1.188.197a3.755 3.755 0 0 0-1.167.475c-.127-.264-.229-.672-.309-1.229-.063-.367-.166-.617-.309-.75a5.393 5.393 0 0 1-.024-.473c0-.557.107-1.068.321-1.545.213-.475.486-.713.82-.713.968.053 2.268.053 3.901 0 .665-.025 1.116.029 1.355.16.43.209.762.711.999 1.504-.331.052-.634.238-.903.552zm8.541 2.178c-4.347 7.225-8.564 11.775-12.656 13.646l-1.285-1.461a5.135 5.135 0 0 1-.071-.793c0-.525.247-1.502.737-2.93.715-.34 1.437-.684 2.165-1.025a16.941 16.941 0 0 0 2.116-1.268c1.318-1.004 3.253-3.162 5.805-6.488.303-.393 1.112-1.646 2.428-3.756.968-1.559 1.84-2.665 2.615-3.325l.572.277c-.13 2.269-.936 4.642-2.426 7.123zm-6.21-9.427c-.301.553-.546.803-.736.752l-4.067-.91c-.063 0-.184.059-.358.178s-.309.176-.403.176l-.192-.039-.38-1.936c-.063-.236-.031-.58.096-1.027.253-.92.816-1.383 1.689-1.383.206 0 .451.107.738.316.379.238.625.369.737.396.412.129 1.068.379 1.973.748.92.449 1.508 1.135 1.761 2.057-.318 0-.604.223-.858.672zM118.552 91.001l-1.047.91c-1.283-.688-2.654-2.084-4.114-4.197a1343.271 1343.271 0 0 1-3.593-5.457c-.237.264-1.545 1.975-3.926 5.143-1.537 2.031-2.979 3.426-4.328 4.191-.063-.156-.198-.289-.404-.395-.365-.156-.729-.33-1.094-.514-.492-.213-.817-.434-.976-.672-.049-.08-.166-.555-.357-1.426.222-.738.65-1.227 1.284-1.461a21.61 21.61 0 0 0 1.594-.459c.524-.17 1.261-.783 2.212-1.84 2.094-2.268 3.625-4.232 4.592-5.893.73-1.24 1.896-3.693 3.498-7.358l-.405-.16c-.572.133-1.261.238-2.069.316-.744.131-1.856.344-3.332.635l-1.402.234c-.522.16-.944.479-1.261.954l-.355-.277c0-1.505-.04-2.454-.121-2.851.033-.818.311-1.439.833-1.859.145-.105.627-.355 1.452-.75.253.633.443.932.571.91l5.779-.99.237-.041c.256 0 .524.105.81.316.031-.027.261-.383.69-1.068.269-.42.522-.633.762-.633.095 0 .205.027.332.082.095.314.376.646.845.986.467.344.812.764 1.035 1.268-.999 1.662-1.65 2.859-1.951 3.598a92.682 92.682 0 0 1-1.142 3.05c-.126.287-.508.988-1.142 2.098-.508.896-.825 1.633-.951 2.213a205.597 205.597 0 0 1 2.639 3.207c.937 1.051 1.959 1.762 3.069 2.133 1.001.211 2.498.672 4.494 1.385-.253.795-.724 1.615-1.414 2.473-.689.86-1.138 1.592-1.344 2.199zM143.695 79.171c-.208.053-.479.305-.821.752-.34.451-.652.674-.939.674-.172 0-.586-.17-1.236-.514-.76-.422-1.223-.66-1.379-.713-.303.025-.746-.014-1.332-.117l-.429.154-.81-.352c-.174.289-.348 1.107-.522 2.449l-.286 1.818c-.127.686-.275 1.252-.451 1.701a16.9 16.9 0 0 1-2.069 3.678c-.92 1.238-1.809 2.059-2.665 2.455-1.458.711-2.528 1.066-3.211 1.066-.237 0-.896-.092-1.975-.279l-.332-1.225c.045-1.582.461-2.584 1.236-3.008.318-.158 1.086-.236 2.309-.236.507 0 1.063-.117 1.664-.355.762-.316 1.585-1.045 2.473-2.18.999-1.291 1.5-2.479 1.5-3.559 0-.08-.008-.199-.026-.355l-.045-.318c-.333-.42-.58-1.029-.738-1.82l-.332-.277c-.475-.027-1.182-.012-2.117.041-.35.051-1.157.287-2.428.711-1.315.449-2.085.768-2.307.949-.222.186-.411.516-.571.99l-.404.238-.548-.08-.216-1.305c.143-1.027.271-1.77.385-2.217.189-.818.45-1.424.783-1.82a272.57 272.57 0 0 1 5.496-1.107c.664-.107 1.634-.158 2.902-.158 1.283 0 3.956.289 8.016.871.032 0 .08-.029.143-.08l.237-.078.238.078c.047.027.103.051.168.08l1.165-.158.618.435c-.097.475-.289 1.039-.573 1.686-.286.646-.476 1.142-.571 1.485zm-2.902-9.971c-.077 1.109-.696 1.662-1.854 1.662-.285 0-.698-.039-1.236-.119-.542-.078-.946-.119-1.215-.119-.127 0-.293-.025-.501-.078a3.85 3.85 0 0 1-.498-.119 10.488 10.488 0 0 0-1.595-.117c-.237 0-.952.09-2.139.275-1.191.184-1.834.316-1.927.396-.016 0-.109.119-.275.355-.166.238-.305.346-.417.316l-.499-.197-.401-1.504c.091-1.396.457-2.229 1.092-2.492.253 0 .634-.068 1.142-.197 1.238-.555 2.681-.779 4.329-.674 1.984.131 3.005.199 3.068.199 1.144.209 2.127.686 2.952 1.424 0 .239-.01.567-.026.989zM166.438 90.833c-.222 0-.517-.08-.881-.236-.411-.16-.698-.266-.854-.318-.366-.053-1.636-.197-3.807-.436-1.46-.156-2.277-.236-2.451-.236-3.425 0-6.271 1.055-8.541 3.164-.602-.869-.904-2.293-.904-4.271 0-.264.137-.582.408-.949.425-.213.758-.305.997-.279.556-.473 1.076-1.389 1.57-2.734.378-1.107.76-2.213 1.14-3.32.337-.818.817-2.057 1.452-3.719.192-.605.483-1.504.881-2.691.364-1.027.617-1.806.76-2.335.271-.869.471-1.688.596-2.453l-.046-.117a1.512 1.512 0 0 1-.239-.791c0-.818.253-1.451.76-1.898.477-.264.943-.527 1.402-.793.416.291.993.66 1.737 1.109.224.342.336.898.336 1.662 0 .422-.199.91-.598 1.463l-.903 1.186c-.997 1.771-2.226 4.845-3.688 9.22-.33.791-.664 1.582-.997 2.371-.411 1.004-.635 1.848-.666 2.533 1.204-.342 2.656-.514 4.354-.514 2.744 0 4.694.213 5.852.633-.269-1.32-.569-2.203-.904-2.652a36.98 36.98 0 0 1-.737-.986 11.444 11.444 0 0 1-.594-1.305c.158-1.135.586-1.805 1.282-2.02.239.107.581.305 1.024.594.016 0 .253.344.712 1.029.208.238.517.633.929 1.188.318.475.706 1.527 1.165 3.164.382 1.318.675 2.494.882 3.525a4.122 4.122 0 0 1-.524 1.523c-.271.457-.575.689-.905.689z"/><path d="M82.581 76c-.476.58-.958.936-1.45 1.068-.222.053-.564.158-1.023.316-.222.131-.562.277-1.022.436-.57.08-.968.146-1.189.197a3.78 3.78 0 0 0-1.165.477c-.129-.264-.231-.674-.311-1.227-.062-.369-.164-.621-.309-.752a6.724 6.724 0 0 1-.023-.475c0-.557.106-1.068.32-1.545.216-.473.488-.711.821-.711.967.051 2.269.051 3.901 0 .666-.025 1.119.025 1.354.158.43.213.762.713 1.002 1.504-.335.052-.635.237-.906.554zm8.54 2.175c-4.344 7.225-8.564 11.777-12.653 13.65l-1.286-1.465a4.856 4.856 0 0 1-.071-.791c0-.529.245-1.504.738-2.928.712-.346 1.435-.686 2.164-1.031a16.731 16.731 0 0 0 2.117-1.264c1.315-1.002 3.25-3.164 5.805-6.488.301-.396 1.109-1.648 2.425-3.758.968-1.556 1.841-2.663 2.618-3.325l.569.277c-.127 2.27-.934 4.643-2.426 7.123zm-6.208-9.426c-.301.555-.546.805-.737.75l-4.068-.908c-.063 0-.182.059-.355.178-.177.119-.311.178-.406.178l-.189-.039-.38-1.936c-.065-.238-.032-.578.095-1.027.253-.922.817-1.381 1.689-1.381.206 0 .451.104.736.314.38.236.627.367.738.395.411.131 1.07.381 1.974.748.92.449 1.508 1.135 1.761 2.057-.32-.001-.604.221-.858.671zM117.741 89.65l-1.047.908c-1.286-.686-2.657-2.082-4.117-4.195a1043.653 1043.653 0 0 1-3.591-5.457c-.237.264-1.547 1.979-3.925 5.139-1.539 2.035-2.981 3.436-4.329 4.199-.065-.16-.198-.291-.405-.396a22.87 22.87 0 0 1-1.094-.514c-.491-.211-.817-.436-.976-.676-.046-.076-.166-.551-.356-1.422.222-.74.649-1.229 1.284-1.465a21.08 21.08 0 0 0 1.595-.457c.522-.17 1.26-.783 2.212-1.84 2.093-2.266 3.624-4.23 4.592-5.893.728-1.238 1.896-3.689 3.495-7.358l-.403-.158c-.571.131-1.262.236-2.069.316-.746.133-1.855.344-3.331.631-.476.082-.944.16-1.403.24a2.282 2.282 0 0 0-1.262.949l-.356-.277c0-1.504-.04-2.453-.119-2.85.032-.816.312-1.436.833-1.859.143-.104.628-.354 1.452-.75.254.633.443.936.57.91l5.778-.99.24-.041c.255 0 .521.107.809.318.032-.025.262-.383.69-1.068.27-.424.522-.635.76-.635.095 0 .208.029.334.082.096.314.376.645.843.988.47.344.815.764 1.037 1.266-1.001 1.662-1.65 2.863-1.953 3.602a96.757 96.757 0 0 1-1.139 3.046c-.129.291-.509.99-1.144 2.098-.507.895-.825 1.633-.952 2.215a203.585 203.585 0 0 1 2.642 3.205c.936 1.055 1.958 1.766 3.068 2.135.999.211 2.499.672 4.497 1.385-.256.791-.727 1.613-1.417 2.475-.69.854-1.138 1.585-1.343 2.194zM142.882 77.82c-.203.053-.477.303-.818.752-.343.451-.653.676-.939.676-.177 0-.586-.174-1.239-.516-.762-.422-1.221-.658-1.379-.711-.301.025-.743-.012-1.331-.119l-.428.158-.809-.355c-.177.291-.351 1.107-.524 2.453l-.283 1.818c-.129.684-.281 1.25-.453 1.697a16.876 16.876 0 0 1-2.071 3.68c-.92 1.24-1.807 2.057-2.663 2.451-1.46.713-2.528 1.068-3.213 1.068-.237 0-.894-.094-1.973-.275l-.334-1.229c.048-1.58.459-2.584 1.238-3.008.316-.158 1.084-.236 2.307-.236.507 0 1.063-.119 1.666-.357.762-.316 1.587-1.041 2.474-2.176.999-1.291 1.499-2.479 1.499-3.563 0-.076-.01-.193-.025-.352l-.048-.318c-.332-.422-.577-1.027-.735-1.82l-.335-.277c-.475-.025-1.181-.014-2.117.039-.348.053-1.157.291-2.427.711-1.315.451-2.083.768-2.307.953-.222.182-.41.514-.57.988l-.405.238-.548-.078-.214-1.307c.145-1.031.271-1.768.384-2.217.188-.82.449-1.426.783-1.822 1.221-.264 3.051-.633 5.496-1.107.665-.104 1.632-.158 2.9-.158 1.286 0 3.959.291 8.017.871.031 0 .079-.025.143-.08l.237-.078.239.078c.048.027.101.055.168.08l1.163-.158.617.434c-.095.479-.282 1.039-.569 1.686-.287.646-.477 1.142-.574 1.486zm-2.902-9.97c-.075 1.107-.697 1.662-1.854 1.662-.282 0-.698-.041-1.238-.121-.538-.078-.943-.117-1.211-.117-.128 0-.295-.025-.5-.08-.271-.051-.436-.09-.499-.119a10.476 10.476 0 0 0-1.597-.117c-.237 0-.949.092-2.139.275-1.19.188-1.832.318-1.929.396-.014 0-.106.119-.272.359-.167.234-.305.34-.416.313l-.498-.197-.408-1.502c.1-1.398.461-2.229 1.097-2.494.253 0 .635-.066 1.142-.197 1.236-.555 2.681-.777 4.33-.672 1.982.131 3.005.197 3.068.197 1.144.213 2.125.688 2.952 1.426 0 .236-.01.564-.028.988zM165.626 89.482c-.224 0-.519-.08-.881-.236a20.237 20.237 0 0 0-.856-.316c-.366-.051-1.634-.199-3.808-.438-1.459-.156-2.271-.234-2.448-.234-3.424 0-6.273 1.055-8.54 3.164-.604-.871-.904-2.293-.904-4.273 0-.262.135-.584.403-.951.428-.211.762-.305 1.001-.277.555-.475 1.078-1.387 1.569-2.73l1.142-3.32c.332-.818.816-2.059 1.45-3.721.191-.607.484-1.502.882-2.691.364-1.028.617-1.806.76-2.335.27-.867.467-1.688.596-2.451l-.048-.119a1.53 1.53 0 0 1-.239-.791c0-.818.256-1.451.762-1.9.479-.262.944-.527 1.403-.789.413.287.991.658 1.736 1.105.224.346.335.896.335 1.662 0 .424-.198.91-.596 1.465l-.904 1.186c-.999 1.77-2.228 4.843-3.686 9.22-.335.791-.667 1.582-1.001 2.373-.41 1.002-.634 1.844-.665 2.533 1.205-.346 2.657-.518 4.353-.518 2.744 0 4.694.213 5.853.633-.27-1.318-.57-2.199-.904-2.648-.38-.5-.625-.83-.736-.99-.174-.314-.374-.75-.596-1.305.158-1.133.586-1.807 1.282-2.016.241.105.582.303 1.024.594.017 0 .254.342.715 1.027.205.238.517.635.928 1.188.316.473.704 1.529 1.165 3.164.382 1.318.675 2.492.879 3.523a4.137 4.137 0 0 1-.522 1.523c-.271.46-.572.689-.904.689zM80.063 59.811h-1.08l-1.369-3.719c-.1.008-.18.012-.242.012a1.21 1.21 0 0 1-.172-.012v2.313c0 .499.027.809.084.93.074.171.188.257.338.257h.156v.219H76.05v-.219h.15c.172 0 .293-.109.365-.328.043-.121.063-.408.063-.86v-5.133c0-.499-.027-.809-.082-.93-.078-.171-.193-.257-.346-.257h-.15v-.219h1.469c.428 0 .744.062.947.185s.375.349.518.679c.141.33.213.723.213 1.18 0 .488-.082.911-.244 1.271-.16.359-.412.613-.752.761l.838 2.278c.189.524.354.873.49 1.045s.316.282.535.329v.218zM77.2 55.725c.037 0 .068.001.096.003l.068.003a.935.935 0 0 0 .859-.492c.193-.328.289-.746.289-1.253 0-.496-.078-.899-.232-1.209-.156-.311-.363-.466-.619-.466-.113 0-.268.037-.461.109v3.305zM80.657 56.467c-.002.797.098 1.422.295 1.875s.432.68.699.68c.178 0 .332-.096.465-.288.131-.192.242-.523.33-.994l.092.117a4.241 4.241 0 0 1-.363 1.461c-.199.438-.449.656-.752.656-.326 0-.607-.251-.84-.753s-.35-1.177-.35-2.024c0-.918.119-1.634.359-2.147.238-.514.537-.771.898-.771.307 0 .557.198.752.595.197.397.295.928.295 1.592h-1.88zm0-.343h1.262c-.01-.344-.029-.586-.063-.727-.049-.219-.123-.391-.221-.516s-.201-.188-.309-.188c-.164 0-.313.126-.441.378-.13.253-.206.603-.228 1.053zM83.63 57.84c-.166-.16-.293-.383-.383-.669s-.135-.603-.135-.95c0-.53.102-.986.307-1.368.203-.382.463-.573.781-.573.26 0 .486.125.678.375h.578c.086 0 .135.005.148.015s.023.027.029.05a.672.672 0 0 1 .018.189c0 .103-.004.173-.014.212a.117.117 0 0 1-.031.047c-.016.012-.066.018-.152.018h-.357c.111.281.166.64.166 1.077 0 .5-.096.926-.291 1.282-.195.354-.455.532-.781.532a.832.832 0 0 1-.414-.121c-.086.15-.145.281-.174.394a1.097 1.097 0 0 0-.045.287c0 .067.016.132.049.196.033.063.096.108.191.136.055.015.193.028.416.039.408.019.672.045.793.078.184.051.33.186.441.405.109.22.164.49.164.811 0 .443-.105.858-.316 1.246-.309.572-.713.858-1.211.858-.383 0-.707-.17-.971-.511a.999.999 0 0 1-.223-.61c0-.094.01-.188.031-.281.035-.145.105-.347.211-.604.014-.035.115-.247.305-.634a1.399 1.399 0 0 1-.219-.328.83.83 0 0 1-.063-.328c0-.138.027-.299.084-.483.058-.187.187-.448.39-.787zm-.027 1.971a3.671 3.671 0 0 0-.215.556 1.724 1.724 0 0 0-.072.474.75.75 0 0 0 .172.491c.199.241.486.362.861.362.357 0 .621-.124.791-.372.17-.248.254-.512.254-.793 0-.203-.051-.348-.15-.433-.104-.086-.309-.137-.611-.152-.448-.024-.79-.068-1.03-.133zm.546-5.25c-.146 0-.27.115-.369.345-.098.229-.148.582-.148 1.057 0 .616.068 1.092.203 1.431.104.257.232.386.393.386.15 0 .273-.111.371-.333.096-.222.145-.57.145-1.046 0-.619-.068-1.104-.205-1.454-.101-.258-.231-.386-.39-.386zM86.894 54.28v4.32c0 .335.014.559.037.67a.58.58 0 0 0 .109.248c.049.055.139.082.268.082v.211h-1.326V59.6c.133 0 .223-.025.268-.076a.556.556 0 0 0 .109-.251c.025-.117.039-.341.039-.672v-2.078c0-.581-.008-.958-.025-1.129-.014-.125-.037-.211-.066-.26s-.07-.073-.123-.073c-.055 0-.123.029-.203.088l-.041-.211.824-.656h.13zm-.245-2.805c.084 0 .154.058.213.173.059.115.088.254.088.418s-.029.304-.088.421c-.059.117-.129.175-.213.175s-.154-.059-.213-.175a.9.9 0 0 1-.09-.421c0-.164.029-.303.088-.418.059-.115.129-.173.215-.173zM89.405 54.28v1.828h-.1c-.076-.575-.172-.966-.289-1.173-.119-.208-.268-.311-.449-.311-.141 0-.252.072-.336.217a.924.924 0 0 0-.129.481c0 .219.031.407.096.563.061.161.186.331.373.511l.436.417c.402.387.604.897.604 1.531 0 .489-.094.883-.281 1.182s-.396.449-.629.449c-.166 0-.357-.059-.57-.176a.342.342 0 0 0-.162-.059c-.045 0-.08.05-.107.148h-.098v-1.914h.098c.057.548.162.961.318 1.239.158.278.334.417.527.417.137 0 .248-.079.336-.238.086-.159.129-.35.129-.573 0-.27-.049-.498-.145-.682s-.289-.417-.576-.698c-.287-.281-.477-.536-.566-.762-.09-.223-.133-.504-.133-.845 0-.441.076-.811.23-1.108.152-.297.352-.446.596-.446.107 0 .236.046.389.137.102.06.17.089.203.089a.083.083 0 0 0 .074-.042.721.721 0 0 0 .063-.185h.098zM90.812 52.67v1.766h.637v.414h-.637v3.482c0 .348.025.583.076.704s.115.182.195.182c.064 0 .129-.04.189-.121s.109-.199.143-.356h.115c-.07.384-.168.672-.295.866s-.26.291-.395.291c-.092 0-.18-.05-.268-.149s-.152-.242-.195-.428c-.041-.186-.063-.472-.063-.859V54.85h-.432v-.195c.109-.086.221-.232.336-.438s.217-.45.309-.731c.045-.148.109-.42.193-.815h.092zM92.509 54.28v1.207c.229-.805.463-1.207.703-1.207.107 0 .197.065.27.196s.107.282.107.454a.859.859 0 0 1-.078.387c-.051.105-.113.158-.184.158s-.148-.067-.234-.203c-.086-.135-.15-.203-.191-.203-.035 0-.074.039-.115.118-.09.161-.182.425-.277.793v2.573c0 .298.02.523.057.677a.59.59 0 0 0 .137.265c.066.07.16.105.283.105v.211h-1.4V59.6c.139 0 .242-.043.309-.129a.615.615 0 0 0 .105-.3 6.04 6.04 0 0 0 .014-.57v-2.078c0-.627-.006-1-.02-1.119a.652.652 0 0 0-.07-.262c-.035-.055-.078-.082-.131-.082-.063 0-.131.029-.209.088l-.029-.211.83-.656h.123zM95.28 59.036c-.279.426-.455.672-.525.738a.499.499 0 0 1-.342.146c-.188 0-.344-.127-.465-.381-.123-.254-.184-.588-.184-1.003 0-.262.029-.489.09-.68.08-.266.223-.517.424-.751s.535-.52 1.002-.856v-.211c0-.534-.043-.901-.127-1.1-.086-.199-.211-.298-.375-.298-.125 0-.223.066-.295.199a.9.9 0 0 0-.113.456l.006.339a.982.982 0 0 1-.07.415c-.047.097-.109.146-.186.146-.074 0-.135-.051-.182-.152a1.006 1.006 0 0 1-.07-.416c0-.335.088-.644.262-.925.176-.281.42-.421.734-.421.242 0 .441.08.596.24.117.121.203.311.26.568.035.168.053.512.053 1.031v1.822c0 .512.006.825.016.94s.025.192.049.231.049.059.08.059.059-.014.082-.041c.043-.051.123-.193.242-.428v.328c-.223.589-.436.883-.639.883-.098 0-.174-.066-.232-.199-.058-.133-.089-.36-.091-.679zm0-.382v-2.046c-.299.234-.492.401-.578.499a1.602 1.602 0 0 0-.438 1.155c0 .282.043.516.127.701.086.186.184.278.295.278.151 0 .35-.196.594-.587zM97.239 52.67v1.766h.637v.414h-.637v3.482c0 .348.025.583.076.704s.115.182.195.182c.064 0 .129-.04.189-.121s.109-.199.143-.356h.115c-.07.384-.168.672-.295.866s-.26.291-.395.291c-.092 0-.18-.05-.268-.149s-.152-.242-.195-.428c-.041-.186-.063-.472-.063-.859V54.85h-.432v-.195c.109-.086.221-.232.336-.438s.217-.45.309-.731c.045-.148.109-.42.193-.815h.092zM99.079 54.28v4.32c0 .335.014.559.037.67a.557.557 0 0 0 .111.248c.047.055.137.082.266.082v.211h-1.326V59.6c.133 0 .223-.025.268-.076a.556.556 0 0 0 .109-.251c.027-.117.039-.341.039-.672v-2.078c0-.581-.008-.958-.025-1.129-.014-.125-.037-.211-.066-.26s-.07-.073-.123-.073c-.055 0-.123.029-.203.088l-.041-.211.824-.656h.13zm-.244-2.805c.084 0 .154.058.213.173.059.115.088.254.088.418s-.029.304-.088.421c-.059.117-.129.175-.213.175-.082 0-.154-.059-.213-.175a.9.9 0 0 1-.09-.421c0-.164.029-.303.088-.418.059-.115.131-.173.215-.173zM101.167 54.28c.412 0 .744.309.994.927.213.528.318 1.134.318 1.818 0 .481-.059.968-.176 1.46s-.277.864-.484 1.114c-.205.25-.434.375-.686.375-.41 0-.736-.322-.979-.968-.205-.543-.307-1.153-.307-1.83 0-.493.063-.982.186-1.469.125-.487.287-.847.49-1.079.203-.232.417-.348.644-.348zm-.092.383c-.105 0-.211.062-.316.185-.105.124-.191.34-.258.648a6.032 6.032 0 0 0-.098 1.191c0 .782.08 1.457.236 2.024.158.567.365.851.621.851.193 0 .352-.156.477-.469.123-.313.186-.851.186-1.613 0-.954-.104-1.705-.311-2.252-.14-.378-.32-.565-.537-.565zM103.677 55.416c.318-.757.623-1.136.912-1.136.148 0 .275.073.383.22s.191.388.256.725c.043.234.064.595.064 1.08V58.6c0 .339.014.569.041.69a.516.516 0 0 0 .107.228c.047.055.137.082.268.082v.211h-1.352V59.6h.057c.127 0 .215-.038.266-.114a.792.792 0 0 0 .105-.336c.008-.059.012-.242.012-.55v-2.203c0-.49-.031-.845-.096-1.066s-.172-.332-.322-.332c-.234 0-.469.254-.701.763V58.6c0 .362.012.587.033.672a.556.556 0 0 0 .115.249c.049.053.146.079.297.079v.211h-1.354V59.6h.061c.137 0 .23-.069.279-.208s.072-.403.072-.792v-2c0-.645-.006-1.037-.021-1.178s-.039-.236-.068-.287c-.031-.051-.072-.076-.125-.076-.055 0-.123.029-.199.088l-.045-.211.826-.656h.129v1.136zM110.054 51.686v2.75h-.111c-.035-.528-.1-.948-.191-1.261-.094-.313-.225-.561-.396-.745-.17-.184-.348-.275-.529-.275-.207 0-.379.124-.514.372a1.74 1.74 0 0 0-.201.846c0 .242.041.462.127.662.123.293.418.683.881 1.17.377.398.635.704.773.917s.246.464.32.753.111.592.111.908c0 .602-.119 1.12-.355 1.556s-.541.653-.914.653a.985.985 0 0 1-.33-.054c-.063-.02-.189-.093-.383-.219-.193-.125-.316-.188-.367-.188-.049 0-.09.03-.117.09-.029.06-.051.184-.064.371h-.111v-2.727h.111c.051.57.121.996.207 1.279.088.283.221.518.4.705.18.188.377.281.59.281.248 0 .443-.129.588-.387.143-.258.215-.563.215-.914 0-.195-.027-.393-.082-.592s-.139-.385-.254-.557c-.078-.117-.291-.365-.637-.745-.346-.379-.592-.682-.738-.908a2.695 2.695 0 0 1-.33-.75 3.36 3.36 0 0 1-.113-.902c0-.569.111-1.061.334-1.472.221-.412.504-.618.848-.618.215 0 .441.104.682.313.111.098.189.147.236.147.051 0 .094-.03.127-.092.031-.061.059-.184.078-.369h.109zM110.683 54.436h1.27v.211h-.063a.216.216 0 0 0-.199.115.558.558 0 0 0-.068.286c0 .153.033.366.1.638l.666 2.72.607-2.979c.033-.162.051-.321.051-.479a.49.49 0 0 0-.021-.16.233.233 0 0 0-.074-.104c-.033-.026-.094-.039-.18-.039v-.211h.885v.211a.306.306 0 0 0-.17.094 1.022 1.022 0 0 0-.131.266 5.895 5.895 0 0 0-.1.454l-1.107 5.365c-.107.52-.248.914-.422 1.18s-.342.399-.504.399c-.115 0-.213-.066-.289-.199a.928.928 0 0 1-.113-.458c0-.165.027-.296.082-.396.057-.1.131-.149.227-.149.064 0 .154.043.268.13.08.06.129.089.148.089.061 0 .125-.061.197-.182.07-.122.141-.357.211-.706l.193-.94-.979-4.049a4.499 4.499 0 0 0-.143-.454 1.424 1.424 0 0 0-.123-.277.55.55 0 0 0-.219-.165v-.211zM115.646 54.28v1.828h-.1c-.076-.575-.172-.966-.289-1.173-.119-.208-.268-.311-.449-.311-.139 0-.252.072-.336.217a.924.924 0 0 0-.129.481c0 .219.031.407.096.563.061.161.186.331.373.511l.436.417c.402.387.604.897.604 1.531 0 .489-.094.883-.281 1.182s-.396.449-.629.449c-.166 0-.357-.059-.57-.176a.342.342 0 0 0-.162-.059c-.045 0-.08.05-.105.148h-.1v-1.914h.1c.055.548.16.961.318 1.239.156.278.332.417.525.417.137 0 .248-.079.336-.238.086-.159.129-.35.129-.573 0-.27-.049-.498-.145-.682s-.289-.417-.576-.698c-.287-.281-.477-.536-.566-.762-.09-.223-.133-.504-.133-.845 0-.441.076-.811.23-1.108.152-.297.352-.446.596-.446.107 0 .236.046.389.137.102.06.17.089.203.089a.083.083 0 0 0 .074-.042.721.721 0 0 0 .063-.185h.098zM117.052 52.67v1.766h.637v.414h-.637v3.482c0 .348.025.583.076.704s.115.182.195.182c.064 0 .129-.04.189-.121a.887.887 0 0 0 .143-.356h.115c-.068.384-.168.672-.295.866s-.26.291-.395.291c-.092 0-.18-.05-.268-.149s-.152-.242-.195-.428c-.041-.186-.063-.472-.063-.859V54.85h-.432v-.195c.109-.086.223-.232.336-.438.115-.206.217-.45.309-.731.047-.148.109-.42.193-.815h.092zM118.409 56.467c-.002.797.096 1.422.293 1.875.199.453.432.68.699.68.178 0 .334-.096.465-.288.133-.192.242-.523.332-.994l.092.117a4.333 4.333 0 0 1-.363 1.461c-.201.438-.451.656-.754.656-.326 0-.607-.251-.84-.753s-.35-1.177-.35-2.024c0-.918.121-1.634.359-2.147s.539-.771.9-.771c.305 0 .555.198.752.595.195.397.295.928.295 1.592h-1.88zm0-.343h1.262c-.01-.344-.031-.586-.063-.727-.051-.219-.125-.391-.223-.516s-.201-.188-.309-.188c-.164 0-.311.126-.441.378-.128.253-.204.603-.226 1.053zM121.466 55.43c.199-.394.316-.619.352-.679.09-.149.186-.265.287-.348a.496.496 0 0 1 .307-.124c.172 0 .318.099.441.295.121.197.205.482.246.855.203-.472.377-.782.518-.929s.285-.221.434-.221c.146 0 .273.073.387.22.111.147.201.386.266.719.043.227.066.583.066 1.068V58.6c0 .335.012.565.037.69a.517.517 0 0 0 .111.219c.055.061.143.091.264.091v.211h-1.35V59.6h.057a.316.316 0 0 0 .273-.135.691.691 0 0 0 .1-.298c.008-.066.012-.255.012-.567v-2.309c0-.438-.027-.746-.08-.926-.078-.25-.201-.375-.373-.375-.104 0-.209.052-.314.155-.107.104-.236.296-.385.577l-.008.064.01.252V58.6c0 .366.01.595.031.684.02.09.059.165.115.225.057.061.154.091.293.091v.211h-1.377V59.6c.15 0 .252-.035.309-.105a.65.65 0 0 0 .117-.315c.01-.066.016-.259.016-.579v-2.309c0-.438-.033-.753-.098-.946-.088-.252-.209-.378-.365-.378-.107 0-.213.057-.316.171a1.905 1.905 0 0 0-.381.585V58.6c0 .351.014.579.037.685a.546.546 0 0 0 .109.236c.049.053.146.079.295.079v.211h-1.35V59.6c.125 0 .213-.026.262-.079a.55.55 0 0 0 .113-.251c.025-.115.039-.338.039-.67v-2.055c0-.591-.01-.974-.027-1.146-.014-.129-.037-.219-.066-.268s-.07-.073-.123-.073c-.055 0-.121.029-.199.088l-.045-.211.826-.656h.129v1.151zM128.255 54.28c.414 0 .744.309.994.927.213.528.318 1.134.318 1.818 0 .481-.059.968-.176 1.46s-.277.864-.482 1.114c-.205.25-.434.375-.686.375-.412 0-.738-.322-.98-.968a5.195 5.195 0 0 1-.307-1.83c0-.493.063-.982.188-1.469.123-.487.287-.847.488-1.079.203-.232.416-.348.643-.348zm-.092.383c-.105 0-.209.062-.316.185-.105.124-.191.34-.256.648-.066.309-.098.706-.098 1.191 0 .782.078 1.457.236 2.024.156.567.363.851.621.851.191 0 .35-.156.475-.469s.188-.851.188-1.613c0-.954-.104-1.705-.313-2.252-.14-.378-.318-.565-.537-.565zM131.036 54.858v3.531c0 .502.027.819.084.952.072.173.172.259.295.259h.248v.211h-1.635V59.6h.121c.08 0 .152-.039.219-.118.064-.078.109-.184.135-.317s.037-.392.037-.776v-3.531h-.531v-.422h.531v-.351c0-.534.043-.986.131-1.356s.221-.669.402-.897c.18-.228.381-.342.605-.342.209 0 .402.133.576.398.115.176.174.373.174.592a.714.714 0 0 1-.078.331c-.051.104-.107.155-.166.155-.045 0-.094-.032-.145-.097s-.113-.203-.186-.416c-.074-.213-.141-.356-.203-.431-.061-.074-.129-.111-.205-.111-.092 0-.168.048-.232.143-.063.096-.109.244-.137.444-.027.201-.041.718-.041 1.551v.386h.701v.422h-.7zM135.278 54.28v1.828h-.098c-.076-.575-.172-.966-.289-1.173-.119-.208-.268-.311-.451-.311-.139 0-.25.072-.336.217a.942.942 0 0 0-.127.481c0 .219.031.407.094.563.063.161.188.331.375.511l.436.417c.402.387.604.897.604 1.531 0 .489-.094.883-.281 1.182s-.396.449-.629.449c-.166 0-.357-.059-.572-.176a.336.336 0 0 0-.16-.059c-.045 0-.082.05-.107.148h-.1v-1.914h.1c.057.548.162.961.318 1.239.156.278.332.417.527.417.137 0 .248-.079.334-.238.088-.159.131-.35.131-.573 0-.27-.049-.498-.145-.682-.098-.184-.289-.417-.576-.698-.289-.281-.477-.536-.566-.762-.09-.223-.135-.504-.135-.845 0-.441.078-.811.23-1.108.154-.297.354-.446.598-.446.107 0 .236.046.389.137.102.06.168.089.203.089a.083.083 0 0 0 .074-.042.812.812 0 0 0 .063-.185h.096zM136.349 56.467c-.002.797.098 1.422.295 1.875.199.453.432.68.699.68.178 0 .332-.096.465-.288.131-.192.242-.523.332-.994l.09.117a4.241 4.241 0 0 1-.363 1.461c-.199.438-.449.656-.752.656-.326 0-.607-.251-.84-.753s-.35-1.177-.35-2.024c0-.918.119-1.634.359-2.147.238-.514.537-.771.898-.771.307 0 .557.198.754.595.195.397.293.928.293 1.592h-1.88zm0-.343h1.262c-.01-.344-.029-.586-.063-.727-.049-.219-.123-.391-.221-.516s-.201-.188-.309-.188c-.164 0-.311.126-.441.378s-.205.603-.228 1.053zM139.396 55.416c.318-.757.623-1.136.912-1.136.148 0 .275.073.383.22.105.147.191.388.254.725.045.234.066.595.066 1.08V58.6c0 .339.014.569.041.69a.494.494 0 0 0 .105.228c.049.055.139.082.27.082v.211h-1.354V59.6h.057c.127 0 .217-.038.268-.114a.792.792 0 0 0 .105-.336c.008-.059.012-.242.012-.55v-2.203c0-.49-.033-.845-.096-1.066-.064-.221-.172-.332-.324-.332-.232 0-.467.254-.699.763V58.6c0 .362.012.587.033.672a.556.556 0 0 0 .115.249c.049.053.146.079.297.079v.211h-1.354V59.6h.059c.139 0 .232-.069.281-.208s.072-.403.072-.792v-2c0-.645-.008-1.037-.021-1.178a.78.78 0 0 0-.07-.287c-.029-.051-.07-.076-.123-.076-.055 0-.123.029-.201.088l-.043-.211.826-.656h.129v1.136zM142.585 54.28v4.32c0 .335.014.559.037.67a.557.557 0 0 0 .111.248c.047.055.137.082.266.082v.211h-1.326V59.6c.133 0 .223-.025.268-.076a.556.556 0 0 0 .109-.251c.027-.117.039-.341.039-.672v-2.078c0-.581-.008-.958-.025-1.129-.014-.125-.037-.211-.066-.26s-.07-.073-.123-.073c-.055 0-.123.029-.203.088l-.041-.211.824-.656h.13zm-.244-2.805c.084 0 .154.058.213.173.059.115.088.254.088.418s-.029.304-.088.421c-.059.117-.129.175-.213.175-.082 0-.154-.059-.213-.175a.9.9 0 0 1-.09-.421c0-.164.029-.303.088-.418.059-.115.131-.173.215-.173zM144.673 54.28c.412 0 .744.309.994.927.213.528.318 1.134.318 1.818 0 .481-.059.968-.176 1.46s-.277.864-.484 1.114c-.205.25-.434.375-.686.375-.41 0-.736-.322-.979-.968-.205-.543-.307-1.153-.307-1.83 0-.493.063-.982.186-1.469.125-.487.287-.847.49-1.079.202-.232.417-.348.644-.348zm-.092.383c-.105 0-.211.062-.316.185-.105.124-.191.34-.258.648a6.032 6.032 0 0 0-.098 1.191c0 .782.08 1.457.236 2.024.158.567.365.851.621.851.193 0 .352-.156.477-.469.123-.313.186-.851.186-1.613 0-.954-.104-1.705-.311-2.252-.14-.378-.32-.565-.537-.565zM147.183 54.28v1.207c.229-.805.463-1.207.703-1.207.109 0 .199.065.27.196a.926.926 0 0 1 .107.454.859.859 0 0 1-.078.387c-.051.105-.113.158-.184.158s-.148-.067-.234-.203c-.086-.135-.15-.203-.191-.203-.035 0-.074.039-.115.118-.09.161-.182.425-.277.793v2.573c0 .298.02.523.057.677a.61.61 0 0 0 .137.265c.066.07.16.105.283.105v.211h-1.4V59.6c.139 0 .242-.043.309-.129a.615.615 0 0 0 .105-.3 6.04 6.04 0 0 0 .014-.57v-2.078c0-.627-.006-1-.018-1.119a.682.682 0 0 0-.072-.262c-.035-.055-.078-.082-.131-.082-.063 0-.131.029-.209.088l-.029-.211.83-.656h.123zM150.737 54.28v1.207c.227-.805.461-1.207.701-1.207.109 0 .199.065.27.196a.926.926 0 0 1 .107.454.859.859 0 0 1-.078.387c-.051.105-.113.158-.184.158s-.148-.067-.234-.203c-.086-.135-.15-.203-.191-.203-.035 0-.074.039-.115.118-.09.161-.182.425-.275.793v2.573c0 .298.018.523.055.677a.592.592 0 0 0 .139.265c.064.07.158.105.281.105v.211h-1.4V59.6c.139 0 .242-.043.311-.129a.648.648 0 0 0 .104-.3c.01-.066.016-.257.016-.57v-2.078c0-.627-.008-1-.02-1.119-.014-.12-.037-.207-.072-.262s-.078-.082-.131-.082a.362.362 0 0 0-.209.088l-.029-.211.83-.656h.124zM152.425 56.467c-.002.797.096 1.422.295 1.875.197.453.43.68.697.68.178 0 .334-.096.465-.288.133-.192.242-.523.332-.994l.092.117a4.241 4.241 0 0 1-.363 1.461c-.199.438-.451.656-.752.656-.328 0-.607-.251-.84-.753-.234-.502-.35-1.177-.35-2.024 0-.918.119-1.634.357-2.147s.539-.771.9-.771c.305 0 .555.198.752.595s.295.928.295 1.592h-1.88zm0-.343h1.262c-.01-.344-.031-.586-.063-.727a1.259 1.259 0 0 0-.223-.516c-.098-.125-.199-.188-.307-.188-.166 0-.313.126-.443.378-.129.253-.205.603-.226 1.053zM156.431 54.28v1.828h-.1c-.074-.575-.17-.966-.289-1.173-.117-.208-.268-.311-.449-.311-.139 0-.25.072-.336.217a.942.942 0 0 0-.127.481c0 .219.031.407.094.563.061.161.186.331.375.511l.434.417c.404.387.605.897.605 1.531 0 .489-.094.883-.281 1.182s-.398.449-.629.449c-.168 0-.357-.059-.572-.176a.336.336 0 0 0-.16-.059c-.047 0-.082.05-.107.148h-.1v-1.914h.1c.055.548.162.961.318 1.239.156.278.332.417.527.417.137 0 .248-.079.334-.238s.129-.35.129-.573c0-.27-.047-.498-.145-.682-.096-.184-.287-.417-.576-.698-.287-.281-.477-.536-.564-.762-.09-.223-.135-.504-.135-.845 0-.441.076-.811.23-1.108.154-.297.352-.446.596-.446.107 0 .238.046.391.137.102.06.168.089.201.089s.057-.014.074-.042a.649.649 0 0 0 .063-.185h.099zM157.985 54.28v4.32c0 .335.012.559.037.67a.58.58 0 0 0 .109.248c.049.055.139.082.266.082v.211h-1.324V59.6c.133 0 .223-.025.268-.076s.082-.134.109-.251c.025-.117.039-.341.039-.672v-2.078c0-.581-.008-.958-.027-1.129a.709.709 0 0 0-.064-.26c-.031-.049-.07-.073-.123-.073-.057 0-.123.029-.203.088l-.043-.211.826-.656h.13zm-.244-2.805c.084 0 .154.058.213.173.057.115.086.254.086.418s-.029.304-.086.421c-.059.117-.129.175-.213.175s-.154-.059-.215-.175c-.059-.117-.088-.257-.088-.421s.029-.303.088-.418c.057-.115.129-.173.215-.173zM160.659 59.2c-.133.277-.264.476-.391.596s-.264.18-.41.18c-.297 0-.557-.245-.779-.735s-.332-1.12-.332-1.89.123-1.474.367-2.112c.246-.639.563-.958.949-.958.24 0 .438.153.596.459v-.998c0-.612-.008-.989-.023-1.129-.014-.14-.037-.236-.07-.287-.031-.051-.07-.076-.119-.076-.051 0-.119.031-.205.094l-.039-.211.814-.656h.135v6.211c0 .628.006 1.011.021 1.15a.793.793 0 0 0 .072.29c.031.055.07.082.115.082.053 0 .125-.033.213-.1l.033.211-.811.656h-.137V59.2zm0-.409v-2.753a3.432 3.432 0 0 0-.107-.729c-.061-.219-.139-.383-.236-.494-.1-.111-.195-.167-.287-.167-.176 0-.33.154-.467.462-.182.406-.271.999-.271 1.778 0 .788.088 1.392.262 1.811.174.419.369.629.584.629.178-.001.352-.18.522-.537zM162.241 56.467c-.002.797.098 1.422.295 1.875s.432.68.699.68c.178 0 .332-.096.465-.288.131-.192.242-.523.33-.994l.092.117a4.241 4.241 0 0 1-.363 1.461c-.199.438-.451.656-.752.656-.326 0-.607-.251-.84-.753s-.35-1.177-.35-2.024c0-.918.119-1.634.359-2.147.238-.514.537-.771.898-.771.307 0 .557.198.752.595.197.397.295.928.295 1.592h-1.88zm0-.343h1.262c-.01-.344-.029-.586-.063-.727-.049-.219-.123-.391-.221-.516s-.201-.188-.309-.188c-.164 0-.313.126-.441.378-.13.253-.206.603-.228 1.053zM165.288 55.416c.318-.757.623-1.136.91-1.136.15 0 .277.073.383.22.107.147.193.388.256.725.045.234.066.595.066 1.08V58.6c0 .339.014.569.041.69a.494.494 0 0 0 .105.228c.049.055.139.082.27.082v.211h-1.354V59.6h.057c.127 0 .217-.038.268-.114a.792.792 0 0 0 .105-.336c.008-.059.012-.242.012-.55v-2.203c0-.49-.033-.845-.096-1.066-.064-.221-.172-.332-.324-.332-.234 0-.467.254-.699.763V58.6c0 .362.012.587.033.672a.535.535 0 0 0 .115.249c.047.053.146.079.295.079v.211h-1.352V59.6h.059c.139 0 .232-.069.281-.208s.072-.403.072-.792v-2c0-.645-.008-1.037-.021-1.178a.78.78 0 0 0-.07-.287.137.137 0 0 0-.123-.076c-.057 0-.123.029-.201.088l-.045-.211.828-.656h.129v1.136zM168.331 52.67v1.766h.637v.414h-.637v3.482c0 .348.025.583.076.704s.115.182.193.182c.066 0 .129-.04.191-.121a.917.917 0 0 0 .143-.356h.115c-.07.384-.168.672-.295.866-.129.194-.26.291-.395.291-.092 0-.182-.05-.27-.149a.99.99 0 0 1-.193-.428c-.041-.186-.063-.472-.063-.859V54.85h-.432v-.195c.109-.086.221-.232.336-.438s.217-.45.307-.731c.047-.148.111-.42.193-.815h.094z"/><linearGradient id="j" gradientUnits="userSpaceOnUse" x1="29.896" y1="-14.248" x2="85.203" y2="41.058"><stop offset="0" stop-color="#ead18f"/><stop offset=".076" stop-color="#e1c477"/><stop offset=".221" stop-color="#d1af4e"/><stop offset=".335" stop-color="#c8a235"/><stop offset=".405" stop-color="#c49d2c"/><stop offset=".559" stop-color="#d4b35c"/><stop offset=".766" stop-color="#e7cd97"/><stop offset=".919" stop-color="#f3debb"/><stop offset="1" stop-color="#f8e4c9"/></linearGradient><linearGradient id="k" gradientUnits="userSpaceOnUse" x1="83.48" y1="-13.026" x2="138.848" y2="42.343"><stop offset="0" stop-color="#ead18f"/><stop offset=".076" stop-color="#e1c477"/><stop offset=".221" stop-color="#d1af4e"/><stop offset=".335" stop-color="#c8a235"/><stop offset=".405" stop-color="#c49d2c"/><stop offset=".559" stop-color="#d4b35c"/><stop offset=".766" stop-color="#e7cd97"/><stop offset=".919" stop-color="#f3debb"/><stop offset="1" stop-color="#f8e4c9"/></linearGradient></svg>