<?xml version="1.0" encoding="utf-8"?><svg xmlns="http://www.w3.org/2000/svg" width="99" height="81" viewBox="4.733 18.192 99 81"><linearGradient id="a" gradientUnits="userSpaceOnUse" x1="106.291" y1="11.09" x2="161.8" y2="66.599"><stop offset="0" stop-color="#ead18f"/><stop offset=".076" stop-color="#e1c477"/><stop offset=".221" stop-color="#d1af4e"/><stop offset=".335" stop-color="#c8a235"/><stop offset=".405" stop-color="#c49d2c"/><stop offset=".559" stop-color="#d4b35c"/><stop offset=".766" stop-color="#e7cd97"/><stop offset=".919" stop-color="#f3debb"/><stop offset="1" stop-color="#f8e4c9"/></linearGradient><linearGradient id="b" gradientUnits="userSpaceOnUse" x1="106.04" y1="43.338" x2="161.292" y2="98.59"><stop offset="0" stop-color="#ead18f"/><stop offset=".076" stop-color="#e1c477"/><stop offset=".221" stop-color="#d1af4e"/><stop offset=".335" stop-color="#c8a235"/><stop offset=".405" stop-color="#c49d2c"/><stop offset=".559" stop-color="#d4b35c"/><stop offset=".766" stop-color="#e7cd97"/><stop offset=".919" stop-color="#f3debb"/><stop offset="1" stop-color="#f8e4c9"/></linearGradient><linearGradient id="c" gradientUnits="userSpaceOnUse" x1="106.495" y1="23.209" x2="162.039" y2="78.753"><stop offset="0" stop-color="#ead18f"/><stop offset=".076" stop-color="#e1c477"/><stop offset=".221" stop-color="#d1af4e"/><stop offset=".335" stop-color="#c8a235"/><stop offset=".405" stop-color="#c49d2c"/><stop offset=".559" stop-color="#d4b35c"/><stop offset=".766" stop-color="#e7cd97"/><stop offset=".919" stop-color="#f3debb"/><stop offset="1" stop-color="#f8e4c9"/></linearGradient><linearGradient id="d" gradientUnits="userSpaceOnUse" x1="84.542" y1="22.439" x2="139.849" y2="77.746"><stop offset="0" stop-color="#ead18f"/><stop offset=".076" stop-color="#e1c477"/><stop offset=".221" stop-color="#d1af4e"/><stop offset=".335" stop-color="#c8a235"/><stop offset=".405" stop-color="#c49d2c"/><stop offset=".559" stop-color="#d4b35c"/><stop offset=".766" stop-color="#e7cd97"/><stop offset=".919" stop-color="#f3debb"/><stop offset="1" stop-color="#f8e4c9"/></linearGradient><linearGradient id="e" gradientUnits="userSpaceOnUse" x1="25.023" y1="-9.491" x2="80.202" y2="45.689"><stop offset="0" stop-color="#ead18f"/><stop offset=".076" stop-color="#e1c477"/><stop offset=".221" stop-color="#d1af4e"/><stop offset=".335" stop-color="#c8a235"/><stop offset=".405" stop-color="#c49d2c"/><stop offset=".559" stop-color="#d4b35c"/><stop offset=".766" stop-color="#e7cd97"/><stop offset=".919" stop-color="#f3debb"/><stop offset="1" stop-color="#f8e4c9"/></linearGradient><linearGradient id="f" gradientUnits="userSpaceOnUse" x1="21.153" y1="-14.201" x2="76.46" y2="41.106"><stop offset="0" stop-color="#ead18f"/><stop offset=".076" stop-color="#e1c477"/><stop offset=".221" stop-color="#d1af4e"/><stop offset=".335" stop-color="#c8a235"/><stop offset=".405" stop-color="#c49d2c"/><stop offset=".559" stop-color="#d4b35c"/><stop offset=".766" stop-color="#e7cd97"/><stop offset=".919" stop-color="#f3debb"/><stop offset="1" stop-color="#f8e4c9"/></linearGradient><linearGradient id="g" gradientUnits="userSpaceOnUse" x1="26.703" y1="31.88" x2="81.764" y2="86.942"><stop offset="0" stop-color="#ead18f"/><stop offset=".076" stop-color="#e1c477"/><stop offset=".221" stop-color="#d1af4e"/><stop offset=".335" stop-color="#c8a235"/><stop offset=".405" stop-color="#c49d2c"/><stop offset=".559" stop-color="#d4b35c"/><stop offset=".766" stop-color="#e7cd97"/><stop offset=".919" stop-color="#f3debb"/><stop offset="1" stop-color="#f8e4c9"/></linearGradient><path opacity=".8" fill="url(#g)" d="M5.427 53.156h97.613v12.508H5.427z"/><path fill="#B2B2B2" d="M18.458 47.831l-.624 1.034c-.767-.779-1.585-2.368-2.454-4.765-.72-2.067-1.434-4.135-2.143-6.203-.142.3-.922 2.248-2.341 5.844-.918 2.307-1.778 3.896-2.583 4.765a.847.847 0 0 0-.241-.45c-.217-.18-.435-.375-.651-.584-.294-.239-.488-.494-.582-.764-.028-.09-.1-.629-.214-1.618.133-.839.389-1.394.767-1.663.321-.15.639-.322.951-.517.312-.195.752-.892 1.319-2.09 1.248-2.577 2.161-4.81 2.738-6.697.435-1.409 1.13-4.196 2.085-8.361l-.241-.179c-.341.15-.752.27-1.233.359-.445.15-1.107.389-1.986.719-.284.09-.563.18-.838.27-.312.18-.563.539-.752 1.079l-.213-.315c0-1.708-.023-2.787-.071-3.236.021-.929.186-1.633.497-2.112.085-.121.374-.405.865-.854.151.719.266 1.063.341 1.033l3.448-1.124.141-.045c.152 0 .313.12.483.359.019-.03.155-.435.411-1.213.16-.479.312-.719.454-.719.057 0 .123.03.198.09.057.36.225.734.504 1.124.279.39.485.869.616 1.438-.595 1.888-.982 3.251-1.163 4.091-.142.779-.369 1.933-.681 3.461-.076.33-.303 1.124-.682 2.382-.302 1.019-.491 1.858-.566 2.517a265.29 265.29 0 0 1 1.575 3.641c.558 1.199 1.168 2.008 1.83 2.427.595.24 1.489.764 2.682 1.573-.151.899-.434 1.835-.845 2.81-.411.973-.678 1.804-.801 2.493zM33.233 28.607c-.188.27-.454.764-.794 1.483-.284.989-.733 2.397-1.348 4.225-.597 1.588-1.145 2.862-1.646 3.821-.17.3-.431.779-.78 1.438l-.043.584c.331 3.117.497 5.334.497 6.653 0 .419-.01.869-.029 1.348l-.213.81c-.358-.54-.704-1.604-1.035-3.192a439.127 439.127 0 0 0-.779-4c-.228-1.079-.454-1.798-.682-2.157-.009 0-.303-.3-.88-.899l-.113-1.079c.019-1.798.188-3.102.51-3.911h.143c.227-.06.529.27.908.989.284.54.572 1.094.865 1.664.983-1.289 2.086-4.226 3.306-8.811-.368-.479-.912-.719-1.632-.719-.993 0-2.015.225-3.064.674-1.475.659-2.397 1.603-2.767 2.832-.227 0-.468.27-.723.809-.284-.3-.426-1.244-.426-2.832 0 .12.03-.419.092-1.618s.165-1.963.312-2.292c.147-.33.41-.465.788-.405.293-.3.682-.495 1.163-.584.682-.149 1.074-.24 1.178-.27 1.145-.51 1.778-.764 1.901-.764.057 0 .137.022.241.067s.18.067.227.067c1.854 0 3.032.225 3.532.674l.853-.674c.075.03.184.075.326.135.255.15.435.562.539 1.236.104.674.208 1.341.312 2-.16 1.2-.407 2.099-.739 2.698zM45.301 37.987c-.313 0-.719-.179-1.221-.539-.614-.45-1.017-.704-1.206-.765-.464-.179-1.305-.27-2.525-.27-.141 0-.345.06-.61.18-.264.12-.454.18-.566.18-.767.12-1.239.24-1.42.359-.34.21-.784.794-1.333 1.753-.17-.54-.255-1.454-.255-2.742.122-.989.198-1.573.228-1.753.122-.629.282-.944.481-.944a.52.52 0 0 1 .17.045c.076.03.133.045.17.045.143 0 .342-.075.597-.225.321-.209.524-.329.61-.359.368-.15.709-.225 1.021-.225h2.525c.879 0 1.551.09 2.015.27.218.06.444.09.681.09-.114 0 .558-.15 2.015-.449.048.03.123.089.227.18l.298.18c-.037 1.558-.255 2.802-.651 3.731-.363.838-.779 1.258-1.251 1.258zM60.552 37.058c-.075.27-.203.674-.383 1.213-.075.21-.364.705-.866 1.484-.463.719-.78 1.168-.95 1.348-.633-.419-1.539-1.446-2.717-3.079-1.178-1.633-2.088-2.645-2.73-3.034l-.128.225a65.764 65.764 0 0 0-.071 1.483c0 .15.01.39.028.719.02.33.029.569.029.719 0 .21-.021.764-.064 1.663a46.132 46.132 0 0 0-.064 2.023c0 .419.01 1.042.028 1.865.02.824.029 1.431.029 1.821 0 1.378-.114 2.487-.343 3.326-.056.18-.127.54-.212 1.079-.305-.27-.504-.719-.598-1.348-.153-1.049-.229-4.195-.229-9.44 0-2.697.023-4.974.071-6.833 0-.15.014-.479.042-.989.028-.419.038-.764.028-1.034a59.584 59.584 0 0 0-.015-1.034l.087-4.36a9.637 9.637 0 0 1-.54-3.146c0-.51.177-1.049.533-1.618.355-.569.624-.809.804-.719l.057-.09c.056.06.204.254.441.584.151.18.305.375.461.584.156.209.234.569.234 1.079 0 .389-.114.914-.342 1.573-.227.659-.34 1.423-.34 2.292 0 .419.005 1.049.015 1.888v1.843c0 1.079.009 1.708.027 1.888.653.24 1.826 1.124 3.519 2.652 1.485 1.319 2.668 1.978 3.548 1.978.075 0 .187-.045.333-.135s.263-.135.348-.135c.122 0 .278.195.468.584-.216.272-.396.631-.538 1.081zM74.153 27.169c-.256.779-.516 1.978-.781 3.596-.34 2.008-.567 3.281-.68 3.82-.776 3.477-1.429 6.054-1.959 7.732-.577 1.798-1.268 3.371-2.071 4.719-.917 1.529-1.73 2.293-2.439 2.293-.294 0-.573-.165-.838-.495l-.439-1.483c-.01-.27-.015-.509-.015-.719 0-.989.108-1.708.326-2.158.266-.539.682-.974 1.249-1.303.756-.479 1.191-.764 1.306-.854.851-.869 1.664-2.368 2.44-4.495.813-2.218 1.381-4.585 1.702-7.102.104-.839.198-1.843.284-3.012-.398-.36-.72-.54-.966-.54-.085 0-.215.015-.39.045-.175.03-.305.045-.39.045l-1.633.09c-.633.06-1.177.21-1.631.45-.69.36-1.097.659-1.221.899-.368.749-.576 1.124-.624 1.124-.16 0-.378-.555-.652-1.663l.213-2.113a2.295 2.295 0 0 1-.028-.359c0-.509.073-.981.22-1.416.147-.435.301-.607.461-.517l.313.18c.464-.749 2.449-1.064 5.959-.944.17.03.39-.188.659-.652s.48-.711.632-.742c.236.24.553.629.95 1.169.189.329.444 1.139.766 2.427.019.18.028.33.028.45 0 .45-.095.824-.283 1.124-.151.239-.308.374-.468.404zM87.617 32.039h-.128c-.104-.03-.244.27-.418.899-.176.629-.33.914-.462.854l-1.646-.809c-.255.27-.384.659-.384 1.168 0 2.368.218 6.563.653 12.586-.02.749-.043 1.506-.071 2.27s-.142 1.446-.341 2.045c-.378-.989-.676-3.072-.893-6.249l-.398-7.192c-.227.42-.478 1.064-.752 1.933-.217.719-.439 1.438-.666 2.158a38.59 38.59 0 0 1-1.504 3.91c-.682 1.499-1.249 2.458-1.702 2.877-.275-.12-.554-.254-.838-.404-.283-.15-.524-.584-.724-1.304v-.989c.151-1.049.407-1.723.766-2.023.332-.15.667-.299 1.009-.449.539-.33 1.257-1.656 2.156-3.978.898-2.323 1.442-4.308 1.631-5.956a.314.314 0 0 0-.128-.045c-.122 0-.292.045-.51.135-.275.09-.445.135-.512.135-.775.15-1.22.255-1.333.315-.474.27-.88.809-1.22 1.618-.096-.09-.228-.27-.398-.539l-.099-.405.17-.674a3.81 3.81 0 0 1-.014-.315c0-.12.047-.539.142-1.259l-.014-.857c.112-.542.383-.948.808-1.219l.355.179c.293-.451.766-.752 1.419-.904.832-.18 1.328-.314 1.489-.404v-.135c0-.18-.047-.525-.143-1.034-.112-.629-.179-1.004-.197-1.124l.085-.719-.043-.404c.066-.689.194-1.139.383-1.349.199-.12.393-.239.582-.359.075.27.223.569.44.899.188.27.33.645.425 1.124-.01.09-.113.54-.313 1.349l.029 1.663c.056.12.172.203.347.248s.291.098.349.157l.212-.18c.69.271 1.031.406 1.021.406.161 0 .407-.052.737-.159.332-.104.578-.157.738-.157l.143-.045.312.543c-.281.238-.465.962-.55 2.168zM102.5 27.154c-.019.12-.255 1.153-.709 3.102-.313 1.318-.823 2.997-1.532 5.034-.236.689-.587 1.723-1.05 3.102-1.797 4.974-3.817 8.735-6.059 11.283-.142-.3-.225-.689-.248-1.169-.022-.479-.045-.944-.063-1.394 0-.389.009-.958.028-1.708.01-.569.1-1.064.27-1.483.057-.12.142-.33.255-.629.151-.54.303-1.094.454-1.664.189-.629.383-.974.582-1.034l.411.674c1.939-3.536 3.5-6.743 4.682-9.62.483-1.168 1.079-2.757 1.788-4.765.188-.57.391-1.146.604-1.73s.423-1.057.631-1.416l.312.27-.356 3.147zm-6.001-1.933l-1.419.36c-.104 0-.26-.045-.468-.135s-.363-.135-.469-.135l-.651.27-.284-.27a4.097 4.097 0 0 1-.058-.629c0-.24.021-.509.064-.809.043-.299.068-.495.078-.584l-.071-.765c.01-.869.133-1.468.369-1.798.236-.33.464-.645.681-.944.511.54 1.017 1.063 1.519 1.573.549.569 1.025 1.333 1.433 2.292l-.724 1.574z"/><path d="M17.445 46.869l-.624 1.034c-.767-.78-1.585-2.368-2.454-4.765-.72-2.067-1.434-4.136-2.144-6.203-.141.3-.922 2.248-2.34 5.844-.918 2.307-1.778 3.896-2.583 4.765a.847.847 0 0 0-.241-.45c-.217-.18-.435-.375-.652-.584-.293-.24-.487-.494-.581-.764-.029-.09-.101-.63-.214-1.619.133-.839.389-1.393.767-1.663.321-.15.638-.322.95-.517.313-.195.752-.892 1.32-2.091 1.248-2.577 2.161-4.81 2.738-6.697.435-1.409 1.129-4.196 2.085-8.361l-.241-.18c-.341.15-.752.27-1.233.359-.445.15-1.107.39-1.986.719-.284.09-.563.18-.838.27-.312.18-.563.539-.752 1.079l-.213-.315c0-1.708-.023-2.787-.071-3.236.02-.929.185-1.633.497-2.113.085-.12.373-.405.865-.854.151.719.265 1.063.34 1.034l3.448-1.124.142-.044c.151 0 .313.12.483.359.019-.03.155-.435.411-1.213.16-.479.312-.719.454-.719.057 0 .123.029.197.09.058.36.225.734.505 1.124.279.39.484.869.616 1.438-.596 1.888-.983 3.251-1.163 4.09-.142.779-.369 1.933-.681 3.461-.076.329-.303 1.124-.682 2.382-.302 1.019-.491 1.858-.566 2.517a248.765 248.765 0 0 1 1.574 3.641c.559 1.199 1.169 2.008 1.83 2.428.596.24 1.49.764 2.682 1.573-.151.899-.433 1.835-.845 2.809-.41.976-.678 1.807-.8 2.496zM32.221 27.645c-.188.27-.454.765-.794 1.484-.284.989-.733 2.397-1.348 4.225-.597 1.588-1.145 2.862-1.646 3.821-.171.3-.431.779-.781 1.438l-.042.584c.331 3.116.496 5.334.496 6.652 0 .419-.009.869-.028 1.348l-.213.81c-.359-.54-.704-1.604-1.035-3.191a401.587 401.587 0 0 0-.78-4c-.228-1.079-.454-1.798-.682-2.158-.009 0-.303-.3-.879-.899l-.114-1.079c.02-1.798.189-3.102.511-3.911h.143c.227-.06.529.27.908.989.284.54.571 1.094.865 1.664.983-1.289 2.085-4.226 3.305-8.81-.367-.48-.912-.72-1.631-.72-.993 0-2.015.225-3.064.674-1.475.659-2.397 1.604-2.767 2.832-.227 0-.468.27-.724.809-.283-.3-.425-1.244-.425-2.832 0 .12.03-.419.092-1.618s.165-1.962.312-2.292c.147-.33.409-.464.787-.404.294-.3.682-.495 1.164-.584a34.66 34.66 0 0 0 1.178-.27c1.145-.51 1.777-.765 1.901-.765a.67.67 0 0 1 .241.068.683.683 0 0 0 .227.067c1.854 0 3.032.225 3.532.674l.852-.674c.075.03.185.075.327.135.255.15.434.562.539 1.236.104.674.207 1.341.312 2-.161 1.199-.408 2.098-.739 2.697zM44.288 37.025c-.313 0-.719-.18-1.221-.54-.614-.449-1.017-.704-1.206-.764-.464-.18-1.305-.27-2.525-.27-.142 0-.345.06-.61.18-.264.12-.454.18-.566.18-.767.12-1.239.239-1.42.359-.34.21-.784.794-1.333 1.753-.17-.539-.256-1.454-.256-2.742a80.94 80.94 0 0 1 .228-1.752c.123-.629.283-.944.482-.944a.52.52 0 0 1 .17.045c.076.03.133.045.17.045.143 0 .342-.075.597-.225.321-.209.524-.33.61-.359.368-.15.709-.225 1.021-.225h2.525c.88 0 1.552.09 2.016.27.218.06.443.09.681.09-.114 0 .558-.15 2.015-.45.048.03.123.09.227.18l.298.179c-.038 1.558-.256 2.802-.652 3.731-.362.839-.778 1.259-1.251 1.259zM59.538 36.096c-.075.27-.202.674-.383 1.213-.075.21-.363.704-.865 1.483-.463.719-.78 1.169-.95 1.348-.634-.419-1.539-1.446-2.717-3.079-1.178-1.633-2.088-2.645-2.731-3.035l-.127.225a66.38 66.38 0 0 0-.071 1.483c0 .15.01.389.028.719.019.33.029.569.029.719 0 .21-.022.764-.064 1.663a46.132 46.132 0 0 0-.064 2.023c0 .419.01 1.041.028 1.865s.029 1.431.029 1.82c0 1.378-.114 2.488-.343 3.327-.057.18-.128.54-.213 1.079-.305-.27-.503-.719-.597-1.348-.153-1.049-.229-4.196-.229-9.44 0-2.697.023-4.975.071-6.833 0-.15.014-.479.042-.989.027-.42.038-.764.027-1.034a77.683 77.683 0 0 0-.014-1.034l.086-4.36a9.668 9.668 0 0 1-.54-3.146c0-.51.178-1.049.533-1.619.356-.569.624-.809.805-.719l.057-.09c.056.061.204.255.44.584.151.18.305.375.461.584.156.209.234.569.234 1.079 0 .39-.113.915-.341 1.573-.227.659-.341 1.424-.341 2.292 0 .42.006 1.049.016 1.888v1.843c0 1.079.009 1.708.027 1.887.653.24 1.826 1.124 3.519 2.652 1.484 1.318 2.668 1.978 3.547 1.978.075 0 .188-.045.334-.135.146-.09.262-.135.347-.135.123 0 .279.195.468.584-.215.276-.395.635-.538 1.085z"/><path fill="#ABCED8" d="M73.14 26.207c-.255.779-.515 1.979-.78 3.596-.34 2.008-.567 3.282-.681 3.821-.775 3.477-1.428 6.054-1.958 7.732-.577 1.798-1.268 3.371-2.071 4.719-.917 1.529-1.73 2.292-2.439 2.292-.294 0-.573-.165-.838-.494l-.439-1.483c-.01-.27-.015-.509-.015-.719 0-.989.108-1.708.326-2.158.265-.54.682-.974 1.248-1.303.757-.48 1.192-.765 1.306-.854.852-.869 1.665-2.368 2.44-4.496.813-2.217 1.381-4.584 1.703-7.102.104-.84.198-1.844.283-3.012-.397-.36-.719-.54-.965-.54-.085 0-.215.015-.39.045-.176.03-.305.045-.391.045l-1.632.09c-.633.06-1.177.21-1.631.449-.69.36-1.098.659-1.221.899-.368.749-.577 1.124-.624 1.124-.16 0-.378-.554-.652-1.663l.213-2.113a2.295 2.295 0 0 1-.028-.359c0-.509.073-.981.219-1.416.147-.435.301-.607.461-.517l.313.179c.464-.749 2.449-1.063 5.959-.944.17.03.39-.188.659-.651.27-.465.479-.712.631-.742.236.239.554.629.951 1.168.188.33.444 1.139.766 2.427.019.18.028.33.028.449 0 .45-.095.825-.283 1.124-.152.242-.308.377-.468.407z"/><path d="M86.604 31.077h-.128c-.105-.03-.244.27-.419.899s-.329.914-.462.854l-1.645-.809c-.256.27-.384.659-.384 1.168 0 2.368.218 6.563.652 12.586-.019.75-.042 1.506-.071 2.27-.027.765-.141 1.446-.34 2.045-.378-.989-.676-3.071-.894-6.248l-.397-7.192c-.227.419-.478 1.063-.752 1.933-.218.719-.44 1.438-.667 2.158a38.508 38.508 0 0 1-1.503 3.911c-.682 1.499-1.25 2.458-1.702 2.877-.275-.12-.555-.255-.838-.405-.283-.149-.524-.584-.724-1.303v-.989c.151-1.049.406-1.723.766-2.023.331-.149.667-.299 1.008-.449.539-.33 1.258-1.656 2.157-3.979.897-2.322 1.441-4.308 1.631-5.956a.314.314 0 0 0-.128-.045c-.122 0-.293.045-.51.135-.275.089-.445.135-.512.135-.775.15-1.22.254-1.334.314-.473.27-.879.809-1.22 1.618-.095-.09-.228-.27-.397-.54l-.099-.404.17-.674a3.805 3.805 0 0 1-.014-.314c0-.12.047-.54.142-1.259l-.014-.858c.112-.541.383-.947.808-1.219l.355.179c.293-.451.766-.752 1.418-.904.832-.18 1.329-.315 1.49-.404v-.135c0-.18-.048-.525-.143-1.034-.112-.629-.179-1.004-.198-1.124l.086-.719-.043-.405c.066-.689.194-1.139.383-1.349.199-.12.393-.24.582-.359.075.27.223.569.439.898.189.27.331.645.426 1.124-.01.09-.114.54-.313 1.349l.028 1.663c.057.12.172.203.348.248.175.044.291.097.348.157l.213-.179c.69.271 1.031.406 1.021.406.162 0 .408-.053.738-.159.331-.105.578-.157.738-.157l.143-.045.312.543c-.282.239-.466.963-.551 2.169zM101.487 26.192c-.019.12-.255 1.153-.709 3.102-.313 1.319-.823 2.997-1.532 5.034-.236.689-.587 1.723-1.05 3.102-1.797 4.975-3.817 8.736-6.059 11.283-.142-.299-.225-.689-.248-1.168-.023-.48-.045-.944-.063-1.394 0-.39.009-.959.028-1.708.009-.569.099-1.064.27-1.484.056-.12.142-.329.255-.629.151-.539.303-1.094.454-1.664.188-.629.383-.974.582-1.033l.411.674c1.938-3.536 3.5-6.742 4.682-9.619.483-1.169 1.078-2.757 1.788-4.765.188-.569.391-1.146.604-1.73.212-.584.423-1.057.631-1.416l.312.27-.356 3.145zm-6.001-1.933l-1.419.36c-.104 0-.26-.045-.468-.135-.209-.09-.364-.135-.469-.135l-.652.27-.283-.27a4.108 4.108 0 0 1-.058-.629c0-.24.021-.509.064-.809.042-.3.068-.495.078-.584l-.071-.764c.01-.869.133-1.468.369-1.798.236-.33.464-.645.681-.944.511.539 1.017 1.063 1.518 1.573.55.569 1.026 1.333 1.434 2.292l-.724 1.573z"/><path fill="#B2B2B2" d="M40.877 80.935c-.653-.38-1.309-.76-1.963-1.142-.794-.461-1.455-.691-1.984-.691a.26.26 0 0 0-.23.122l.292 1.101c-.515.624-.877 1.508-1.086 2.649l-.46 3.342c-.277 1.74-.786 3.506-1.525 5.299-.683 1.686-1.427 3.071-2.235 4.158-.64.87-1.678 1.725-3.113 2.567-.306-.162-.73-.556-1.273-1.182a8.466 8.466 0 0 1-.042-.774c0-.951.236-1.698.71-2.242.069-.081.522-.406 1.358-.978.766-.544 1.546-1.441 2.34-2.69 1.532-2.445 2.521-5.489 2.967-9.131l-.418-1.55c-.654.055-1.303.096-1.942.123-.711.109-1.331.476-1.86 1.102l-.417-.205c-.334.244-.899 1.251-1.692 3.017-.669 1.44-1.352 2.16-2.048 2.16-1.114 0-1.748-.733-1.901-2.201.266-.842.642-1.453 1.129-1.834a28.48 28.48 0 0 1 1.441-1.059c.696-.653 1.34-1.598 1.933-2.834a15.935 15.935 0 0 0 1.284-3.975 13.37 13.37 0 0 0-.104-.774c-.055-.299-.146-.476-.271-.53 0-1.249.397-1.875 1.191-1.875.055 0 .146.015.271.041h.271c.474.463.794.829.961 1.101.293.462.509 1.073.648 1.835-.14.107-.349.298-.628.569l-.73 2.039.188.122c1.114-.571 2.57-.855 4.366-.855.822 0 1.547.027 2.174.081.181.027.493.101.939.224s.745.185.898.185l2.444-.286.251.979c-.307.788-.606 1.576-.898 2.364-.379.868-.79 1.411-1.236 1.628zm.899-5.624l-.501.651-.335-.122a6.735 6.735 0 0 1-.773-1.875 75.527 75.527 0 0 1-.459-2.16 18.021 18.021 0 0 0-.46-1.753h.627a56.34 56.34 0 0 1 1.274 1.753c.501.76.752 1.562.752 2.404 0 .327-.042.694-.125 1.102zm1.504-2.731l-.438.448h-.46c-.293-.463-.578-1.087-.856-1.876-.236-.705-.474-1.398-.71-2.078a9.136 9.136 0 0 0-.69-1.386l.857-.163 1.504 1.549c.571.734.857 1.617.857 2.648 0 .246-.022.531-.064.858zM60.81 86.628c-.46 0-1.06-.163-1.797-.489-.905-.406-1.497-.639-1.776-.692-.683-.163-1.922-.245-3.719-.245-.209 0-.508.055-.898.163-.39.108-.669.163-.836.163-1.128.109-1.824.217-2.089.327-.502.189-1.155.72-1.964 1.589-.25-.49-.376-1.317-.376-2.486.181-.896.293-1.427.334-1.59.182-.57.418-.856.711-.856.055 0 .14.015.25.041.111.027.195.041.251.041.209 0 .502-.067.878-.205.474-.188.772-.299.898-.324a6.167 6.167 0 0 1 1.504-.203H55.9c1.296 0 2.284.08 2.967.244.32.054.654.081 1.003.081-.167 0 .821-.137 2.967-.408a4.1 4.1 0 0 1 .334.163l.439.164c-.057 1.412-.376 2.54-.962 3.383-.53.76-1.142 1.139-1.838 1.139zM83.875 95.379c-.195 0-.453-.082-.773-.245a19.698 19.698 0 0 0-.752-.326c-.32-.054-1.435-.203-3.343-.448-1.282-.163-1.999-.245-2.152-.245-3.008 0-5.509 1.087-7.5 3.261-.529-.896-.795-2.365-.795-4.404 0-.273.119-.6.355-.982.377-.218.669-.314.878-.287.487-.488.947-1.43 1.379-2.817l1.003-3.424c.293-.842.717-2.119 1.274-3.832.168-.625.425-1.549.773-2.772.32-1.059.543-1.86.668-2.403.236-.897.411-1.74.522-2.528l-.041-.122a1.762 1.762 0 0 1-.21-.815c0-.843.224-1.494.669-1.957.418-.271.828-.544 1.232-.815.362.299.87.681 1.525 1.142.194.354.292.925.292 1.713 0 .435-.174.938-.521 1.508-.266.407-.529.815-.795 1.223-.877 1.821-1.956 4.986-3.237 9.498l-.878 2.446c-.362 1.032-.558 1.902-.585 2.61 1.059-.354 2.333-.532 3.823-.532 2.409 0 4.123.22 5.14.654-.236-1.359-.502-2.271-.794-2.732a43.344 43.344 0 0 1-.647-1.019 13.875 13.875 0 0 1-.522-1.347c.139-1.168.516-1.861 1.128-2.078.209.108.509.313.898.61.014 0 .224.354.627 1.061.181.244.453.651.815 1.223.277.488.619 1.575 1.023 3.261a52.56 52.56 0 0 1 .772 3.639 4.778 4.778 0 0 1-.46 1.572c-.234.471-.499.709-.791.709z"/><path d="M39.864 80.001L37.9 78.859c-.793-.462-1.455-.691-1.984-.691a.263.263 0 0 0-.23.122l.293 1.1c-.515.625-.877 1.509-1.086 2.649l-.46 3.343c-.278 1.74-.786 3.505-1.525 5.299-.683 1.686-1.428 3.07-2.235 4.157-.641.87-1.678 1.726-3.113 2.568-.306-.163-.73-.557-1.274-1.182a8.798 8.798 0 0 1-.041-.774c0-.951.236-1.699.71-2.242.069-.082.522-.406 1.358-.978.766-.544 1.546-1.44 2.34-2.69 1.532-2.445 2.521-5.49 2.966-9.132L33.2 78.86c-.655.055-1.303.096-1.943.123-.71.108-1.33.476-1.859 1.101l-.417-.204c-.335.245-.899 1.25-1.692 3.017-.669 1.44-1.352 2.16-2.048 2.16-1.114 0-1.748-.734-1.901-2.201.265-.841.641-1.454 1.129-1.833.486-.382.967-.735 1.441-1.061.696-.652 1.34-1.597 1.933-2.833a15.949 15.949 0 0 0 1.284-3.975c-.056-.463-.091-.72-.104-.774-.056-.299-.146-.476-.271-.531 0-1.248.397-1.874 1.19-1.874.056 0 .146.014.272.041h.271c.475.463.795.829.962 1.101.293.461.509 1.073.647 1.835a8.27 8.27 0 0 0-.627.57l-.73 2.038.188.122c1.114-.571 2.57-.856 4.366-.856.822 0 1.546.028 2.174.082.181.027.493.102.939.225.446.122.745.184.898.184l2.444-.286.251.979c-.307.788-.606 1.575-.898 2.363-.378.868-.788 1.411-1.235 1.628zm.9-5.625l-.502.652-.334-.122a6.748 6.748 0 0 1-.773-1.875 76.385 76.385 0 0 1-.459-2.16 18.63 18.63 0 0 0-.46-1.754h.627a56.39 56.39 0 0 1 1.274 1.754c.501.76.751 1.563.751 2.404 0 .327-.041.694-.124 1.101zm1.503-2.73l-.438.448h-.46c-.293-.463-.578-1.087-.856-1.876-.237-.705-.475-1.398-.711-2.078a8.988 8.988 0 0 0-.689-1.386l.856-.164 1.505 1.55c.571.733.856 1.617.856 2.649 0 .245-.02.531-.063.857zM59.797 85.695c-.46 0-1.06-.163-1.798-.488-.905-.408-1.496-.64-1.775-.693-.683-.164-1.922-.245-3.72-.245-.208 0-.507.054-.897.164-.39.107-.669.161-.836.161-1.128.11-1.824.218-2.09.327-.501.19-1.155.721-1.963 1.59-.251-.49-.376-1.318-.376-2.487.181-.896.293-1.426.334-1.589.182-.57.418-.856.71-.856.056 0 .14.015.251.04.111.027.194.042.251.042.209 0 .502-.067.877-.204.475-.189.773-.3.898-.326a6.223 6.223 0 0 1 1.505-.203h3.719c1.296 0 2.283.081 2.966.245.321.053.655.08 1.004.08-.168 0 .821-.135 2.966-.407.07.027.182.082.335.163l.438.164c-.056 1.412-.375 2.54-.961 3.383-.53.758-1.142 1.139-1.838 1.139zM82.862 94.445c-.195 0-.453-.081-.774-.244a22.4 22.4 0 0 0-.751-.327c-.321-.054-1.435-.202-3.343-.447-1.282-.163-1.999-.246-2.152-.246-3.009 0-5.509 1.087-7.5 3.262-.529-.896-.795-2.365-.795-4.405 0-.273.119-.599.355-.981.377-.218.669-.314.877-.287.488-.489.948-1.431 1.379-2.818l1.003-3.423c.293-.843.718-2.119 1.275-3.832.167-.625.425-1.549.772-2.772.32-1.06.543-1.86.669-2.404.236-.896.41-1.739.522-2.527l-.042-.122a1.767 1.767 0 0 1-.209-.815c0-.843.223-1.495.668-1.957.419-.271.829-.544 1.232-.815.363.3.871.68 1.525 1.142.195.354.293.925.293 1.713 0 .434-.174.938-.522 1.509-.265.406-.529.813-.794 1.222-.877 1.82-1.957 4.986-3.237 9.498l-.878 2.445c-.363 1.033-.558 1.903-.586 2.611 1.059-.354 2.334-.533 3.824-.533 2.409 0 4.122.22 5.14.655-.236-1.358-.502-2.271-.795-2.733-.334-.517-.55-.855-.646-1.019a13.943 13.943 0 0 1-.522-1.346c.139-1.168.516-1.861 1.128-2.079.209.109.508.313.898.611.014 0 .224.353.627 1.061.181.244.453.651.814 1.223.278.488.62 1.575 1.024 3.261a52.42 52.42 0 0 1 .772 3.638 4.79 4.79 0 0 1-.46 1.573c-.234.471-.5.708-.791.708zM12.419 54.97v2.75H12.2c-.07-.528-.195-.948-.377-1.261a1.977 1.977 0 0 0-.779-.745 2.145 2.145 0 0 0-1.043-.276c-.408 0-.744.124-1.01.372-.268.248-.4.53-.4.846 0 .242.084.463.254.662.242.292.82.683 1.732 1.17.744.398 1.252.704 1.523.917.273.213.482.464.629.753.148.289.221.592.221.908 0 .602-.232 1.12-.699 1.555s-1.066.654-1.801.654c-.23 0-.447-.019-.65-.055-.121-.02-.371-.093-.752-.219-.381-.125-.623-.188-.725-.188a.295.295 0 0 0-.23.09c-.057.06-.1.184-.127.371h-.219v-2.727h.219c.102.57.238.997.41 1.28.172.282.434.518.787.705s.74.281 1.162.281c.486 0 .871-.129 1.154-.387s.424-.563.424-.914c0-.195-.053-.393-.16-.592s-.275-.385-.502-.557c-.152-.117-.568-.366-1.252-.745-.682-.38-1.166-.683-1.453-.909-.285-.227-.504-.476-.652-.75s-.223-.574-.223-.901c0-.57.219-1.061.658-1.473.438-.412.994-.618 1.67-.618.424 0 .871.104 1.344.313.219.099.373.148.463.148a.353.353 0 0 0 .25-.091c.064-.062.115-.185.154-.37h.219zM15.562 58.714c.391-.393.621-.62.691-.678a2.09 2.09 0 0 1 .568-.348c.201-.083.402-.124.602-.124.336 0 .625.098.867.295.24.197.402.482.484.855.402-.472.742-.782 1.02-.929s.563-.221.855-.221c.285 0 .539.074.76.22s.395.387.523.719c.086.228.129.583.129 1.068v2.313c0 .335.025.564.078.689a.498.498 0 0 0 .217.22c.105.06.279.091.518.091v.211h-2.656v-.211h.111c.23 0 .41-.045.539-.135a.522.522 0 0 0 .193-.299c.016-.066.023-.255.023-.566v-2.309c0-.438-.053-.746-.156-.926-.152-.25-.396-.375-.732-.375-.207 0-.414.052-.623.155s-.461.296-.758.577l-.012.064.016.252v2.562c0 .366.021.594.063.684s.117.165.229.226c.113.06.305.091.576.091v.211h-2.711v-.211c.295 0 .498-.035.609-.105a.551.551 0 0 0 .23-.316c.018-.066.027-.259.027-.578v-2.31c0-.438-.063-.752-.191-.945a.82.82 0 0 0-.719-.378c-.209 0-.418.057-.623.171a2.413 2.413 0 0 0-.748.584v2.878c0 .351.025.578.074.684a.488.488 0 0 0 .215.237c.096.052.287.079.578.079v.211h-2.656v-.211c.246 0 .418-.027.516-.079a.496.496 0 0 0 .221-.252c.051-.114.076-.338.076-.669v-2.055c0-.591-.018-.973-.053-1.146-.027-.129-.07-.218-.129-.267s-.139-.073-.242-.073c-.109 0-.24.029-.393.088l-.09-.211 1.629-.656h.254v1.148zM26.333 62.32c-.549.426-.895.672-1.035.738a1.579 1.579 0 0 1-.672.146 1.2 1.2 0 0 1-.916-.382c-.24-.254-.361-.589-.361-1.003 0-.262.059-.488.176-.681.16-.266.438-.516.834-.75s1.055-.52 1.975-.856v-.21c0-.535-.084-.901-.252-1.101-.17-.199-.414-.298-.736-.298-.244 0-.439.066-.582.199a.6.6 0 0 0-.223.456l.012.339c0 .179-.045.317-.139.415a.478.478 0 0 1-.363.146.46.46 0 0 1-.357-.152.589.589 0 0 1-.141-.416c0-.335.172-.644.516-.925.344-.281.826-.421 1.447-.421.477 0 .867.08 1.172.24.23.121.4.311.51.568.07.168.105.512.105 1.031v1.821c0 .512.01.825.029.939.02.115.053.193.098.232s.098.059.156.059a.322.322 0 0 0 .164-.041c.082-.051.24-.193.475-.428v.328c-.438.588-.857.883-1.256.883a.57.57 0 0 1-.457-.199c-.116-.132-.175-.358-.179-.677zm0-.382v-2.046c-.588.235-.969.401-1.139.499-.309.172-.529.352-.662.54a1.04 1.04 0 0 0-.199.616c0 .281.084.515.252.7s.361.279.58.279c.295-.001.686-.196 1.168-.588zM30.198 57.563v1.207c.449-.805.91-1.207 1.383-1.207.215 0 .393.065.531.196a.602.602 0 0 1 .211.454c0 .152-.051.281-.152.387s-.223.158-.363.158c-.137 0-.289-.068-.459-.203s-.295-.203-.377-.203c-.07 0-.146.039-.229.118-.176.161-.357.425-.545.793v2.574c0 .298.037.523.111.676a.612.612 0 0 0 .27.265c.129.071.314.106.557.106v.211h-2.758v-.211c.273 0 .477-.043.609-.13a.502.502 0 0 0 .205-.3c.02-.066.029-.257.029-.57v-2.079c0-.626-.012-1-.037-1.12a.426.426 0 0 0-.143-.261.391.391 0 0 0-.256-.082c-.121 0-.258.029-.41.088l-.061-.211 1.635-.656h.249zM34.187 55.954v1.766h1.254v.414h-1.254v3.482c0 .349.051.583.15.704s.227.182.383.182a.673.673 0 0 0 .375-.121.782.782 0 0 0 .279-.355h.229c-.139.383-.332.672-.582.865-.252.193-.51.291-.775.291-.182 0-.357-.051-.529-.15s-.299-.242-.381-.428c-.084-.186-.125-.472-.125-.858v-3.611h-.852v-.195c.217-.086.438-.232.662-.438.227-.206.428-.449.607-.731a6.7 6.7 0 0 0 .379-.815h.18z"/><path d="M35.56 58.267l1.66-.672h.225v1.249c.277-.474.555-.805.834-.995.279-.189.574-.285.883-.285.539 0 .988.211 1.348.633.441.517.662 1.189.662 2.018 0 .927-.266 1.693-.797 2.3a2.11 2.11 0 0 1-1.652.745c-.289 0-.539-.041-.75-.123-.156-.059-.332-.176-.527-.352v1.638c0 .369.021.604.066.705.045.1.123.18.234.238s.313.088.605.088v.211h-2.814v-.211h.146c.215.004.398-.037.551-.123a.428.428 0 0 0 .172-.211c.041-.096.063-.342.063-.736v-5.07c0-.347-.018-.567-.049-.661a.394.394 0 0 0-.148-.21.493.493 0 0 0-.281-.07c-.094 0-.213.027-.357.082l-.074-.188zm1.884.922v2.006c0 .434.016.72.051.856.055.227.189.426.402.598.213.173.48.259.805.259.389 0 .705-.152.947-.458.316-.398.475-.96.475-1.683 0-.821-.18-1.452-.539-1.894-.25-.305-.547-.458-.889-.458-.188 0-.373.047-.557.141-.14.07-.372.281-.695.633zM43.53 54.759v3.926c.432-.478.775-.784 1.029-.919s.508-.203.762-.203c.303 0 .564.084.783.252s.381.433.486.792c.074.25.111.708.111 1.374v1.902c0 .339.027.57.082.695.039.094.105.168.199.223s.266.082.516.082v.211h-2.641v-.211h.123c.25 0 .424-.039.521-.114a.602.602 0 0 0 .205-.337c.012-.063.018-.245.018-.549v-1.902c0-.587-.031-.972-.092-1.156a.77.77 0 0 0-.289-.414.813.813 0 0 0-.479-.138c-.189 0-.389.051-.596.152-.205.102-.453.307-.74.616v2.842c0 .366.02.594.061.684s.117.165.229.226c.111.06.305.091.578.091v.211h-2.664v-.211c.238 0 .426-.037.563-.111.078-.039.141-.113.188-.223s.07-.331.07-.666v-4.86c0-.612-.016-.989-.045-1.129-.029-.14-.074-.236-.135-.287s-.143-.076-.244-.076c-.082 0-.217.031-.4.094l-.082-.211 1.611-.656h.272zM50.587 57.563c.813 0 1.465.309 1.957.927.418.528.627 1.134.627 1.818 0 .481-.115.968-.346 1.46-.23.492-.549.864-.953 1.114a2.506 2.506 0 0 1-1.35.376c-.809 0-1.451-.323-1.928-.969a3 3 0 0 1-.604-1.83c0-.493.121-.982.365-1.469s.566-.847.965-1.079c.4-.231.822-.348 1.267-.348zm-.182.383a1.22 1.22 0 0 0-.623.185c-.207.123-.377.339-.504.648-.129.309-.193.706-.193 1.191 0 .782.154 1.457.465 2.023.309.567.717.852 1.225.852.377 0 .689-.156.934-.47.246-.313.369-.851.369-1.613 0-.954-.205-1.705-.613-2.253-.278-.375-.632-.563-1.06-.563zM55.53 58.699c.627-.757 1.225-1.135 1.795-1.135.291 0 .543.074.754.22.209.146.377.389.502.725.086.235.129.595.129 1.08v2.296c0 .339.027.568.082.689.043.098.111.174.207.229s.273.082.531.082v.211h-2.664v-.211h.111c.25 0 .424-.039.523-.114.1-.076.17-.188.209-.337.016-.059.023-.241.023-.549v-2.204c0-.49-.063-.845-.189-1.066-.125-.221-.338-.332-.637-.332-.461 0-.92.254-1.377.763v2.839c0 .362.021.586.064.672a.537.537 0 0 0 .227.249c.096.052.289.079.584.079v.211H53.74v-.211h.117c.271 0 .457-.069.551-.208.096-.139.145-.402.145-.792v-2c0-.645-.016-1.037-.045-1.178s-.074-.236-.135-.287-.143-.076-.244-.076c-.109 0-.242.029-.395.088l-.088-.211 1.629-.656h.254v1.134zM60.858 59.751c-.004.797.189 1.422.578 1.875.391.453.85.68 1.377.68.35 0 .656-.096.916-.288.258-.192.477-.522.652-.994l.18.117c-.082.537-.32 1.024-.715 1.461s-.889.656-1.482.656c-.645 0-1.195-.252-1.654-.754s-.688-1.176-.688-2.024c0-.918.234-1.634.705-2.147s1.061-.771 1.771-.771c.602 0 1.096.199 1.482.595.387.397.58.928.58 1.592h-3.702zm0-.344h2.484c-.02-.344-.061-.586-.123-.727-.098-.219-.244-.391-.438-.516s-.395-.188-.605-.188c-.324 0-.615.126-.871.378s-.404.604-.447 1.053zM75.263 54.97l.203 2.508h-.203c-.207-.624-.475-1.094-.803-1.41-.473-.456-1.08-.684-1.822-.684-1.012 0-1.779.4-2.307 1.2-.441.675-.662 1.479-.662 2.412 0 .757.146 1.448.439 2.072s.676 1.082 1.152 1.373c.475.291.961.437 1.461.437a3.259 3.259 0 0 0 1.643-.439v-2.295c0-.4-.031-.661-.092-.785s-.154-.218-.281-.282c-.129-.065-.354-.097-.674-.097v-.219h3.078v.219h-.146c-.305 0-.514.102-.627.306-.078.145-.117.431-.117.858v2.43c-.449.242-.893.42-1.33.533s-.924.17-1.457.17c-1.535 0-2.701-.492-3.496-1.477a3.938 3.938 0 0 1-.896-2.553c0-.699.168-1.369.502-2.009.398-.761.945-1.347 1.641-1.757.58-.339 1.268-.509 2.059-.509.289 0 .551.024.787.071.236.047.57.151 1.004.313.219.083.365.124.439.124s.137-.035.189-.103c.053-.069.086-.204.098-.405h.218zM79.983 62.32c-.551.426-.896.672-1.037.738a1.566 1.566 0 0 1-.672.146c-.371 0-.676-.127-.916-.382-.24-.254-.359-.589-.359-1.003 0-.262.059-.488.176-.681.16-.266.438-.516.834-.75.395-.235 1.053-.52 1.975-.856v-.21c0-.535-.084-.901-.254-1.101-.168-.199-.414-.298-.736-.298-.244 0-.438.066-.582.199a.605.605 0 0 0-.221.456l.012.339c0 .179-.047.317-.139.415a.485.485 0 0 1-.365.146.461.461 0 0 1-.357-.152c-.094-.102-.139-.24-.139-.416 0-.335.172-.644.516-.925.344-.281.826-.421 1.447-.421.477 0 .867.08 1.172.24.23.121.4.311.51.568.07.168.105.512.105 1.031v1.821c0 .512.01.825.029.939.02.115.051.193.096.232s.098.059.156.059a.322.322 0 0 0 .164-.041c.082-.051.242-.193.477-.428v.328c-.439.588-.857.883-1.258.883-.191 0-.344-.066-.457-.199s-.173-.358-.177-.677zm0-.382v-2.046c-.59.235-.969.401-1.141.499-.309.172-.529.352-.66.54a1.04 1.04 0 0 0-.199.616c0 .281.084.515.252.7.166.186.359.279.578.279.297-.001.686-.196 1.17-.588zM83.872 58.714c.391-.393.619-.62.689-.678.176-.149.365-.266.568-.348s.404-.124.604-.124c.334 0 .623.098.865.295s.404.482.486.855c.402-.472.742-.782 1.02-.929s.563-.221.855-.221c.285 0 .537.074.758.22s.396.387.525.719c.086.228.129.583.129 1.068v2.313c0 .335.025.564.076.689a.498.498 0 0 0 .217.22c.107.06.279.091.52.091v.211h-2.656v-.211h.111c.23 0 .41-.045.539-.135a.522.522 0 0 0 .193-.299c.016-.066.023-.255.023-.566v-2.309c0-.438-.053-.746-.158-.926-.152-.25-.396-.375-.73-.375-.207 0-.416.052-.623.155-.209.104-.461.296-.758.577l-.012.064.016.252v2.562c0 .366.02.594.061.684s.117.165.23.226c.111.06.305.091.576.091v.211h-2.711v-.211c.295 0 .498-.035.607-.105a.543.543 0 0 0 .23-.316c.02-.066.029-.259.029-.578v-2.31c0-.438-.064-.752-.193-.945a.817.817 0 0 0-.717-.378 1.28 1.28 0 0 0-.625.171c-.322.173-.572.368-.746.584v2.878c0 .351.023.578.072.684s.121.185.215.237c.096.052.289.079.58.079v.211h-2.656v-.211c.244 0 .416-.027.514-.079a.509.509 0 0 0 .223-.252c.051-.114.076-.338.076-.669v-2.055c0-.591-.018-.973-.053-1.146-.027-.129-.072-.218-.131-.267s-.139-.073-.24-.073c-.109 0-.242.029-.395.088l-.088-.211 1.629-.656h.254v1.148zM92.511 59.751c-.004.797.189 1.422.578 1.875.391.453.85.68 1.377.68.35 0 .656-.096.916-.288.258-.192.477-.522.652-.994l.18.117c-.082.537-.32 1.024-.715 1.461s-.889.656-1.482.656c-.645 0-1.195-.252-1.654-.754s-.688-1.176-.688-2.024c0-.918.234-1.634.705-2.147s1.061-.771 1.771-.771c.602 0 1.096.199 1.482.595.387.397.58.928.58 1.592h-3.702zm0-.344h2.484c-.02-.344-.061-.586-.123-.727-.098-.219-.244-.391-.438-.516s-.395-.188-.605-.188c-.324 0-.615.126-.871.378s-.404.604-.447 1.053zM100.399 57.563v1.828h-.195c-.148-.575-.338-.966-.57-1.173s-.527-.311-.885-.311c-.273 0-.494.073-.662.217-.166.145-.25.305-.25.481 0 .219.061.407.186.563.119.161.365.331.736.511l.855.417c.795.387 1.191.897 1.191 1.531 0 .488-.186.883-.555 1.182s-.781.449-1.238.449c-.328 0-.703-.059-1.125-.176a1.147 1.147 0 0 0-.316-.059c-.09 0-.16.049-.211.148h-.195v-1.915h.195c.109.548.318.961.627 1.239.309.278.654.418 1.037.418.27 0 .488-.08.658-.238s.256-.35.256-.573a.916.916 0 0 0-.285-.682c-.189-.184-.566-.417-1.135-.698-.566-.281-.938-.535-1.113-.762-.176-.223-.264-.504-.264-.844 0-.442.15-.812.453-1.108.303-.297.693-.446 1.174-.446.211 0 .467.046.768.137.199.06.332.089.398.089a.227.227 0 0 0 .146-.042.586.586 0 0 0 .123-.185h.196z"/></svg>