<?xml version="1.0" encoding="utf-8"?>
<svg xmlns="http://www.w3.org/2000/svg" id="レイヤー_30" data-name="レイヤー 30" viewBox="0 0 156.98 116.89">
    <defs>
        <style>.cls-11,.cls-5,.cls-7,.cls-8,.cls-9{fill:none}.cls-13,.cls-2{fill:#fff}.cls-5,.cls-7,.cls-8,.cls-9{stroke:#fff}.cls-7{stroke-width:4px}.cls-8{stroke-width:5px}.cls-11,.cls-9{stroke-width:2px}.cls-11{stroke:#ce9f1f}.cls-12{fill:#1d7639}.cls-13{stroke:#b4901c}.cls-14{fill:#040000}.cls-19{fill:#f1ed97}.cls-20{fill:#3d3a39}.cls-21{fill:#533b8d}</style>
        <clipPath id="clip-path" transform="translate(-421.85 -237.57)">
            <path fill="none" d="M426.85 248.07h145.43v101.39H426.85z"/>
        </clipPath>
    </defs>
    <path d="M0 5.5h155.43v111.39H0z" class="cls-2"/>
    <g clip-path="url(#clip-path)">
        <path d="M121.67 45.06h27.91v9.99h-27.91z" class="cls-2"/>
        <path fill="#e6e6e6" d="M4.66 0h148.25v111.89H4.66z"/>
        <path d="M120.39.26v111.63M110.15.26v111.63M99.91.26v111.63" class="cls-5"/>
        <path fill="none" stroke="#fff" stroke-width="8" d="M86.21.26v111.63"/>
        <path d="M62.01.26v111.63" class="cls-7"/>
        <path d="M.4 85.83l147.64.45 6.99 8.69" class="cls-8"/>
        <path d="M4.66 59.91h147.99" class="cls-5"/>
        <path d="M4.66 50.18h147.99" class="cls-9"/>
        <path d="M20.54.26v111.63" class="cls-7"/>
        <path d="M4.66 68.11h147.99" class="cls-9"/>
        <path d="M4.66 33.54h147.99" class="cls-8"/>
        <path d="M4.66 20.23h76.56" class="cls-5"/>
        <path fill="#b9d27b" d="M4.66 22.53h76.3v8.19H4.66z"/>
        <path d="M40.76.26v111.63" class="cls-5"/>
        <path d="M4.53 33.67h147.86" class="cls-11"/>
        <path d="M73.02 16.39l-3.58 12.54 3.58-1.79 3.25 1.8-3.25-12.55z" class="cls-12"/>
        <path d="M69.95 19.71h5.89v1.28h-5.89z" class="cls-12"/>
        <path d="M62.01.26v111.37" class="cls-11"/>
        <path d="M57.66 21h8.96v25.86h-8.96z" class="cls-13"/>
        <path d="M486.47 265.7v.53h-2.13a4.58 4.58 0 0 0 2.17 3l-.29.52a5.09 5.09 0 0 1-1.33-1.21 5.3 5.3 0 0 1-.88-1.62 4.47 4.47 0 0 1-.81 1.65 4.7 4.7 0 0 1-1.43 1.21l-.32-.54a4 4 0 0 0 1.45-1.24 4 4 0 0 0 .72-1.75h-2.09v-.53h2.22v-1.61h.53v1.61zM482.65 275.86v1.55a.76.76 0 0 0 .23.62 1.06 1.06 0 0 0 .7.19h2.95v.53h-3a1.48 1.48 0 0 1-.63-.11 1 1 0 0 1-.44-.46l-.39.39-.3.27-.27-.57a3.53 3.53 0 0 0 .32-.21c.14-.1.27-.2.41-.32v-1.39h-.71v-.49zm-.3-1.06c-.15-.19-.3-.36-.43-.51a4.31 4.31 0 0 0-.36-.37l.36-.4c.16.15.31.31.44.45s.24.28.34.4zm3.47-1.34l.32.36a3.08 3.08 0 0 1-.43.38 3.84 3.84 0 0 1-.52.33h1.12v2.66a.71.71 0 0 1-.14.5.54.54 0 0 1-.44.16h-.37l-.05-.49h.36a.2.2 0 0 0 .14 0 .3.3 0 0 0 0-.16v-.38h-.93v1h-.49v-1h-.86v1.07h-.47v-3.32h1.16l-.19-.23-.28-.3.18-.08h-.72v-.46zm-1.4 1.54h-.86v.45h.86zm-.86.89v.43h.86v-.43zm1.77-2h-1a2.25 2.25 0 0 1 .21.24c.07.07.12.14.18.21zm.51 1.53V275h-.93v.45zm0 .87v-.43h-.93v.43z" class="cls-14" transform="translate(-421.85 -237.57)"/>
        <path d="M57.66 83.48h8.96v25.86h-8.96z" class="cls-13"/>
        <path d="M485.9 324.7v.89h-.63a1.09 1.09 0 0 1 0 .17 1.42 1.42 0 0 1-.08.18h1.42v.33h-5.13v-.33h1.38a1.24 1.24 0 0 0 0-.16c0-.06 0-.12-.07-.19h-.62v-.89zm.63-.55v.32h-5.08v-.32zm-.36-1.54V324h-4.36v-1.34h1.32v-.25h.47v.25h.78v-.25h.47v.25zm-3 .31h-.85v.22h.85zm-.85.5v.21h.85v-.21zm3.15 1.87V325h-2.87v.28zm-2.22.3c0 .05 0 .11.07.17s0 .12.06.18h1.28a.87.87 0 0 0 .07-.17 1.34 1.34 0 0 0 .07-.18zm1.17-2.67h-.78v.22h.78zm-.78.5v.21h.78v-.21zm2.1-.28v-.22h-.85v.22zm0 .49v-.21h-.85v.21zM481.58 327.57v-.37h1.82a2.62 2.62 0 0 1-.45 1.36 3.14 3.14 0 0 1-1.17 1l-.37-.36a3 3 0 0 0 1-.69 2 2 0 0 0 .47-.94zm2.67-1.26v1l.21.29.21.26a3.09 3.09 0 0 0 .65-.34 3.62 3.62 0 0 0 .59-.46l.38.29a5.5 5.5 0 0 1-.61.47 4.52 4.52 0 0 1-.69.36 5.56 5.56 0 0 0 .81.63 6.12 6.12 0 0 0 .74.4l-.31.4a6.53 6.53 0 0 1-1.12-.72 5.33 5.33 0 0 1-.86-.85v1.69a.48.48 0 0 1-.16.41.86.86 0 0 1-.53.13h-.62v-.4h.54a.47.47 0 0 0 .25-.05.24.24 0 0 0 .07-.19v-3.34zM486.38 330.76v.4h-1.58v.92a1 1 0 0 1 .11.27.86.86 0 0 1 0 .28 1.16 1.16 0 0 1-.51 1 3.28 3.28 0 0 1-1.51.54l-.26-.44a3.19 3.19 0 0 0 1.28-.31.83.83 0 0 0 .48-.65 1 1 0 0 1-.38.24 1.42 1.42 0 0 1-.48.08 1.32 1.32 0 0 1-.77-.21.66.66 0 0 1-.3-.55.78.78 0 0 1 .54-.74 1.61 1.61 0 0 1 1.25 0v-.44h-2.7v-.4h2.7v-.46h.51v.46zm-2.14 1.42a.75.75 0 0 0-.25-.25.84.84 0 0 0-.37-.08.65.65 0 0 0-.41.12.33.33 0 0 0-.16.29.34.34 0 0 0 .16.29.61.61 0 0 0 .39.12.74.74 0 0 0 .44-.13.54.54 0 0 0 .2-.36zM486.38 334.69v.39h-1.58v.92a1 1 0 0 1 .11.27.86.86 0 0 1 0 .28 1.15 1.15 0 0 1-.51 1 3.28 3.28 0 0 1-1.51.54l-.26-.44a3.19 3.19 0 0 0 1.28-.31.83.83 0 0 0 .48-.65 1 1 0 0 1-.38.24 1.42 1.42 0 0 1-.48.08 1.32 1.32 0 0 1-.77-.21.65.65 0 0 1-.3-.55.78.78 0 0 1 .54-.74 1.61 1.61 0 0 1 1.25 0v-.44h-2.7v-.39h2.7v-.47h.51v.47zm-2.14 1.41a.75.75 0 0 0-.25-.25.84.84 0 0 0-.37-.08.65.65 0 0 0-.41.12.34.34 0 0 0 0 .58.61.61 0 0 0 .39.12.74.74 0 0 0 .44-.13.54.54 0 0 0 .2-.36zM485.14 340.41l-.2-.14-.22-.21-.16-.18h-2.67l-.07-.41h2.43l-.17-.24a2.25 2.25 0 0 1-.08-.23h-2l-.08-.39h1.85l-.2-.44.54-.07.22.48h.72c.26 0 .53-.06.81-.11l.11.38-.69.08q-.36 0-.75.06a2.75 2.75 0 0 0 .15.25l.14.19c.24 0 .48 0 .71-.06s.46-.05.68-.09l.16.4-.62.08c-.2 0-.41.05-.61.06l.32.33.31.26-.27.4a7.2 7.2 0 0 0-.82-.15 4.78 4.78 0 0 0-.73-.06 2.83 2.83 0 0 0-.93.12c-.21.07-.31.18-.31.31s.15.25.45.33a6.2 6.2 0 0 0 1.33.11 4.58 4.58 0 0 0 .53 0 4 4 0 0 0 .5-.08l.12.41a6.17 6.17 0 0 1-.62.09h-.66a4.58 4.58 0 0 1-1.67-.24q-.57-.23-.57-.63a.65.65 0 0 1 .43-.56 2.86 2.86 0 0 1 1.24-.23 5.25 5.25 0 0 1 .56 0l.55.07zM484.24 345.78l-.25-.42a2.73 2.73 0 0 0 1.36-.43 1.14 1.14 0 0 0 0-1.79 2.05 2.05 0 0 0-1.19-.36 4 4 0 0 1-.49 2 1.23 1.23 0 0 1-1.05.68 1 1 0 0 1-.73-.33 1.14 1.14 0 0 1-.31-.85 1.6 1.6 0 0 1 .72-1.31 2.87 2.87 0 0 1 1.81-.56 2.69 2.69 0 0 1 1.61.46 1.42 1.42 0 0 1 .61 1.2 1.37 1.37 0 0 1-.53 1.14 3.27 3.27 0 0 1-1.56.57zm-.55-3a2.1 2.1 0 0 0-1.13.53 1.28 1.28 0 0 0-.41.93.89.89 0 0 0 .14.52.39.39 0 0 0 .34.19c.26 0 .49-.18.68-.55a4.1 4.1 0 0 0 .38-1.6z" class="cls-14" transform="translate(-421.85 -237.57)"/>
        <path d="M20.54.26v111.37" class="cls-11"/>
        <path d="M15.41 83.48h8.96v25.86h-8.96z" class="cls-13"/>
        <path d="M444.13 323.23v.55h-1.57v1.31a1.84 1.84 0 0 1 .14.77 1.92 1.92 0 0 1-.51 1.37 2.88 2.88 0 0 1-1.51.76l-.26-.62a2.53 2.53 0 0 0 1.28-.44 1.26 1.26 0 0 0 .49-.92 1.36 1.36 0 0 1-.39.34 1.12 1.12 0 0 1-1.25-.19 1 1 0 0 1-.3-.77 1.13 1.13 0 0 1 .54-1 1.18 1.18 0 0 1 1.25 0v-.62h-2.7v-.55H442v-.66h.52v.66zm-2.14 2a.88.88 0 0 0-.25-.35.61.61 0 0 0-.36-.11.54.54 0 0 0-.42.16.57.57 0 0 0-.16.42.55.55 0 0 0 .56.57.57.57 0 0 0 .43-.18.79.79 0 0 0 .21-.52zM444.13 329.06v.56h-1.57v1.3a2.72 2.72 0 0 1 .11.38 2.6 2.6 0 0 1 0 .4 1.92 1.92 0 0 1-.51 1.37 2.88 2.88 0 0 1-1.51.76l-.26-.62a2.53 2.53 0 0 0 1.28-.44 1.26 1.26 0 0 0 .49-.92 1.36 1.36 0 0 1-.39.34 1.05 1.05 0 0 1-1.55-1 1.12 1.12 0 0 1 .54-1 1.18 1.18 0 0 1 1.25.05v-.62h-2.7v-.56H442v-.65h.52v.65zm-2.14 2a.88.88 0 0 0-.25-.35.61.61 0 0 0-.36-.11.55.55 0 0 0-.58.58.52.52 0 0 0 .16.4.53.53 0 0 0 .4.17.54.54 0 0 0 .43-.19.79.79 0 0 0 .21-.5zM442.9 337.45l-.2-.2-.22-.3c-.07-.09-.12-.18-.17-.25h-2.67l-.07-.58H442l-.16-.33-.13-.3h-2l-.08-.55h1.85l-.2-.62.54-.1.21.68.72-.08a6.82 6.82 0 0 0 .82-.15l.11.53q-.33.08-.69.12l-.76.09c.05.13.1.24.15.35l.14.27.72-.09c.23 0 .45-.08.67-.12l.17.55-.62.12c-.21 0-.41.07-.62.09.11.17.22.32.33.46s.21.26.3.37l-.26.56c-.3-.09-.57-.16-.83-.22a3.83 3.83 0 0 0-.73-.07 2.08 2.08 0 0 0-.92.16.49.49 0 0 0-.32.44c0 .2.15.36.45.46a4.09 4.09 0 0 0 1.33.16 3.84 3.84 0 0 0 1-.15l.11.58a6 6 0 0 1-.61.12h-.66a3.47 3.47 0 0 1-1.68-.33 1 1 0 0 1-.56-.89.91.91 0 0 1 .43-.79 2.13 2.13 0 0 1 1.24-.32 3.39 3.39 0 0 1 .55 0 3.53 3.53 0 0 1 .55.1zM442 345.32l-.24-.59a2.23 2.23 0 0 0 1.35-.59 1.77 1.77 0 0 0 .46-1.29 1.73 1.73 0 0 0-.43-1.24 1.66 1.66 0 0 0-1.18-.51 7.41 7.41 0 0 1-.5 2.77q-.42 1-1.05 1a.89.89 0 0 1-.73-.45 2.13 2.13 0 0 1-.31-1.2 2.65 2.65 0 0 1 .72-1.86 2.35 2.35 0 0 1 1.81-.78 2.16 2.16 0 0 1 1.61.64 2.36 2.36 0 0 1 .62 1.69 2.41 2.41 0 0 1-.53 1.62 2.85 2.85 0 0 1-1.6.79zm-.54-4.19a1.88 1.88 0 0 0-1.13.74 2.17 2.17 0 0 0-.42 1.32 1.6 1.6 0 0 0 .15.74c.09.17.2.26.33.26s.49-.26.68-.78a7.73 7.73 0 0 0 .38-2.28zM489.17 287.35v1.13h.54v.22l.35-.1v-1.1h.43v1l.64-.17v-1.13h.43v1l1.14-.31v1.88a.45.45 0 0 1-.54.54h-.29v-.45h.23a.22.22 0 0 0 .14 0 .18.18 0 0 0 0-.14v-1.26l-.68.2v2h-.43v-1.89l-.64.18V291a.29.29 0 0 0 .07.23.33.33 0 0 0 .24.07h1.2c.16 0 .26 0 .31-.1a.8.8 0 0 0 .08-.4l.45.07a1.29 1.29 0 0 1-.18.7.72.72 0 0 1-.57.18h-1.28a.81.81 0 0 1-.6-.18.83.83 0 0 1-.16-.59v-1.95l-.32.09v-.22h-.54v1.62l.57-.17v.46l-1.53.54-.07-.5.58-.18v-1.77h-.55v-.45h.55v-1.13zM492.83 292.63v.44h-2.17v.93a6.64 6.64 0 0 0 .88.47 8 8 0 0 0 1 .41l-.2.47c-.34-.13-.65-.26-.93-.4a6.85 6.85 0 0 1-.77-.41V297h-.48v-3.93h-2v-.44zM488.39 298.71l-.22-.42a3.24 3.24 0 0 0 .49-.36c.15-.15.3-.31.46-.5h.38a3 3 0 0 0 .39.41 4.78 4.78 0 0 0 .42.34l-.21.43c-.13-.1-.27-.22-.4-.34a5 5 0 0 1-.39-.4 2.55 2.55 0 0 1-.42.45c-.15.13-.32.26-.5.39zm1.69 0v.41h-.56v.43h.79v.45h-.79v1.38l.82-.14v.42l-2.07.36v-.43l.87-.14V300h-.84v-.39h.84v-.43h-.61v-.41zm-1.2 2.39l-.38.08c0-.15-.06-.3-.1-.44s-.07-.28-.11-.41l.38-.07c0 .13.08.26.11.4s.07.34.1.47zm1.22 0l-.36-.08c0-.13.07-.26.1-.39s.05-.27.07-.41l.37.07c0 .17-.06.33-.08.46a2.14 2.14 0 0 1-.1.35zm1.41-2.81v-.87h.49v.87h.74v.41H492v.79h.89v.41H492a4.19 4.19 0 0 0 .34.89 4.57 4.57 0 0 0 .54.81l-.25.47a5.8 5.8 0 0 1-.56-.8 4.43 4.43 0 0 1-.36-.84 3.36 3.36 0 0 1-.41.9 3.54 3.54 0 0 1-.66.74l-.25-.48a2.8 2.8 0 0 0 .66-.76 2.91 2.91 0 0 0 .36-.93h-.9v-.41h1v-.79H491c0 .09-.06.18-.1.28l-.1.27-.42-.18a3.92 3.92 0 0 0 .25-.7 5.86 5.86 0 0 0 .14-.75l.41.07-.09.6zM492.83 303v.41h-2.12v.36h1.68v2h-1.2a3.11 3.11 0 0 0 .72.55 5.11 5.11 0 0 0 .94.42l-.23.41a4.76 4.76 0 0 1-1.08-.55 3.7 3.7 0 0 1-.83-.74v1.37h-.43v-1.36a4.13 4.13 0 0 1-.8.76 4.47 4.47 0 0 1-1.06.57l-.28-.39a4.63 4.63 0 0 0 .95-.44 2.92 2.92 0 0 0 .69-.6h-1.15v-2h1.65v-.36h-2.09V303h2.09v-.44h.43v.44zm-2.55 1.19h-1.21v.37h1.21zm-1.21.76v.43h1.21V305zm2.87-.39v-.37h-1.23v.37zm0 .82V305h-1.23v.43zM492.29 310.43v1.05h-.58v.19c0 .07-.05.14-.07.22h1.31v.38h-4.75v-.38h1.28v-.19c0-.07 0-.14-.07-.22h-.56v-1.05zm.58-.65v.38h-4.7v-.38zm-.33-1.81v1.58h-4V308h1.23v-.3h.43v.3h.72v-.3h.44v.3zm-2.81.36h-.79v.26h.79zm-.79.6v.23h.79v-.23zm2.92 2.19v-.33h-2.67v.33zm-2.06.36l.06.19a1.42 1.42 0 0 1 .05.22h1.19a1.72 1.72 0 0 0 .07-.21l.06-.2zm1.08-3.15h-.72v.26h.72zm-.72.6v.23h.72v-.23zm1.94-.34v-.26h-.78v.26zm0 .57v-.23h-.78v.23zM488.5 317l-.37-.15a2.46 2.46 0 0 0 .14-.52 5.67 5.67 0 0 0 .09-.65h.33a5.17 5.17 0 0 1-.07.72 2.75 2.75 0 0 1-.12.6zm.82-1.7v2.19h-.41v-2.16h-.66v-.41h.4a1.77 1.77 0 0 0 .16-.22l.14-.21a2.91 2.91 0 0 0-.38-.34 4.22 4.22 0 0 0-.36-.27l.19-.38.22.14a2.87 2.87 0 0 0 .18-.4c.05-.14.1-.29.14-.44l.42.14c-.05.14-.1.28-.17.44a4.88 4.88 0 0 1-.26.5l.13.11.1.1a4.19 4.19 0 0 0 .21-.43 2.57 2.57 0 0 0 .14-.38l.41.14a8.2 8.2 0 0 1-.36.79 7.18 7.18 0 0 1-.4.68h.48l-.08-.41h.35c0 .17.08.35.11.53s0 .35.07.53l-.37.05a.49.49 0 0 0 0-.12v-.15zm1.56.15l.23.23a4.13 4.13 0 0 1-.35.77 2.81 2.81 0 0 1-.52.63l-.25-.27h-.35l-.13-1.15h.34l.13 1a2 2 0 0 0 .37-.39 2.06 2.06 0 0 0 .25-.49h-.51v-.39zm1.78-2.2v1.85h-1v.22l.13.2.14.22a3.07 3.07 0 0 0 .31-.17 2.32 2.32 0 0 0 .3-.22l.27.33a3.81 3.81 0 0 1-.34.22 2.25 2.25 0 0 1-.3.16 2.5 2.5 0 0 0 .37.36 2 2 0 0 0 .4.27l-.25.4a2.85 2.85 0 0 1-.57-.47 4.64 4.64 0 0 1-.46-.61v.99a.42.42 0 0 1-.51.52h-.35l-.05-.44h.31a.19.19 0 0 0 .13 0V315.17h-1v-1.85h.81a1.86 1.86 0 0 0 .1-.25 2.09 2.09 0 0 0 .08-.23l.44.1a1.34 1.34 0 0 1-.07.18 1.67 1.67 0 0 1-.08.2zm-.44.72v-.34h-1.55v.37zm0 .72v-.34h-1.55v.34zM434.12 287.35v1.13h.54v.22l.35-.1v-1.1h.43v1l.64-.17v-1.13h.44v1l1.13-.31v1.88a.59.59 0 0 1-.12.42.55.55 0 0 1-.42.12h-.29v-.45h.18a.13.13 0 0 0 .17-.17v-1.26l-.67.2v2h-.44v-1.89l-.64.18V291a.26.26 0 0 0 .31.3H437c.16 0 .26 0 .31-.1a.7.7 0 0 0 .08-.4l.46.07a1.2 1.2 0 0 1-.19.7.72.72 0 0 1-.57.18h-1.28a.65.65 0 0 1-.81-.75v-1.95l-.32.09v-.22h-.54v1.62l.57-.17v.46l-1.52.54-.08-.5.58-.18v-1.77h-.55v-.45h.55v-1.13zM437.78 292.63v.44h-2.17v.93a7.33 7.33 0 0 0 .88.47 8.67 8.67 0 0 0 1 .41l-.2.47c-.34-.13-.65-.26-.93-.4a7.84 7.84 0 0 1-.77-.41V297h-.48v-3.93h-2v-.44zM433.34 298.71l-.22-.42a3.24 3.24 0 0 0 .49-.36 5.68 5.68 0 0 0 .46-.5h.38a5.16 5.16 0 0 0 .39.41 4.78 4.78 0 0 0 .42.34l-.2.43c-.14-.1-.27-.22-.41-.34a5 5 0 0 1-.39-.4 2.55 2.55 0 0 1-.42.45c-.15.13-.32.26-.5.39zm1.7 0v.41h-.56v.43h.78v.45h-.78v1.38l.81-.14v.42l-2.07.36-.05-.43.87-.14V300h-.83v-.39h.79v-.43h-.6v-.41zm-1.21 2.39l-.38.08c0-.15-.06-.3-.1-.44s-.07-.28-.11-.41l.38-.07c.05.13.08.26.12.4zm1.23 0l-.37-.08c0-.13.07-.26.1-.39s0-.27.07-.41l.37.07c0 .17-.05.33-.08.46s-.06.25-.09.35zm1.41-2.81v-.87h.43v.87h.74v.41h-.74v.79h.9v.41h-.8a3.68 3.68 0 0 0 .33.89 4.63 4.63 0 0 0 .55.81l-.26.47a5 5 0 0 1-.55-.8 3.91 3.91 0 0 1-.37-.84 3.07 3.07 0 0 1-.41.9 3.54 3.54 0 0 1-.66.74l-.25-.48a2.8 2.8 0 0 0 .66-.76 2.91 2.91 0 0 0 .36-.93h-.89v-.41h1v-.79H436c0 .09-.06.18-.1.28s-.06.18-.1.27l-.42-.18a3.92 3.92 0 0 0 .25-.7 5.86 5.86 0 0 0 .14-.75l.41.07-.09.6zM437.81 302.91v.41h-2.11v.45h1.88v2.82a.71.71 0 0 1-.15.51.72.72 0 0 1-.51.14h-.43l-.05-.46h.45a.26.26 0 0 0 .18 0 .26.26 0 0 0 0-.18v-2.37h-3.33v3.05h-.46v-3.46h1.91v-.45h-2.1v-.41h2.1v-.36h.47v.36zm-1 2v.41h-1.09v.4h1.11v.41h-1.11v1h-.46v-1h-1.15v-.41h1.15v-.4h-1.15v-.41h.63a.8.8 0 0 0-.08-.17 2.41 2.41 0 0 0-.14-.28l.43-.1c.06.1.1.2.15.29l.11.26h.53l.15-.26.14-.3.44.12c-.05.08-.09.17-.13.24l-.13.2zM434.53 309.39h-1.35v-.46h1.35v-1.19h.47v4.64h-.46v-1l-1.3.46-.13-.48 1.43-.47zm1.79-1.65v1.44c.25-.08.47-.17.68-.25a5.64 5.64 0 0 0 .55-.28l.23.43a7.56 7.56 0 0 1-.7.34c-.24.1-.5.18-.76.26v1.92a.28.28 0 0 0 .06.2.27.27 0 0 0 .2.06h.51a.24.24 0 0 0 .22-.17 2 2 0 0 0 .05-.52l.48.1a1.45 1.45 0 0 1-.16.77.51.51 0 0 1-.48.25h-.76a.53.53 0 0 1-.59-.59v-4zM433.45 317l-.37-.15a3.22 3.22 0 0 0 .15-.52c0-.2.06-.41.08-.65h.33q0 .39-.06.72a2.72 2.72 0 0 1-.13.6zm.82-1.7v2.19h-.41v-2.16h-.66v-.41h.4a1.77 1.77 0 0 0 .16-.22l.14-.21a2.91 2.91 0 0 0-.38-.34l-.36-.27.19-.38.22.14a2.87 2.87 0 0 0 .18-.4c.05-.14.1-.29.14-.44l.42.14a3.57 3.57 0 0 1-.17.44 4.88 4.88 0 0 1-.26.5l.13.11.11.1a4 4 0 0 0 .2-.43 2.57 2.57 0 0 0 .14-.38l.41.14a8.2 8.2 0 0 1-.36.79 5.53 5.53 0 0 1-.4.68h.48l-.08-.41h.35c0 .17.08.35.11.53s.05.35.07.53l-.37.05a.49.49 0 0 0 0-.12v-.15zm1.56.15l.23.23a4.09 4.09 0 0 1-.34.77 2.86 2.86 0 0 1-.53.63l-.25-.27h-.35l-.13-1.15h.34l.13 1a2 2 0 0 0 .37-.39 2.06 2.06 0 0 0 .25-.49H435v-.39zm1.78-2.2v1.85h-1v.22l.13.2.14.22.32-.17a3.15 3.15 0 0 0 .29-.22l.27.33a2.77 2.77 0 0 1-.34.22 2.25 2.25 0 0 1-.3.16 3.1 3.1 0 0 0 .37.36 2 2 0 0 0 .4.27l-.25.4a2.85 2.85 0 0 1-.57-.47 4.64 4.64 0 0 1-.46-.61v.99a.6.6 0 0 1-.1.41.56.56 0 0 1-.4.11h-.36l-.05-.44h.3a.24.24 0 0 0 .14 0 .19.19 0 0 0 0-.13v-1.78h-1v-1.85h.86a1.09 1.09 0 0 0 .1-.25 1 1 0 0 0 .08-.23l.44.1a1.34 1.34 0 0 1-.07.18 1.67 1.67 0 0 1-.08.2zm-.44.72v-.34h-1.55v.37zm0 .72v-.34h-1.55v.34z" class="cls-14" transform="translate(-421.85 -237.57)"/>
        <path d="M111.11 29.81h37.14v8.71h-37.14z" class="cls-13"/>
        <path d="M535.16 273.67l-.44-.36a3.5 3.5 0 0 0 .84-1.37 5.54 5.54 0 0 0 .27-1.85h.53a6.63 6.63 0 0 1-.31 2.07 3.63 3.63 0 0 1-.89 1.51zm4.21-.13l-.55.13a14.19 14.19 0 0 0-.55-1.76 15.54 15.54 0 0 0-.8-1.8l.53-.11a16.11 16.11 0 0 1 .79 1.76 18 18 0 0 1 .58 1.78zm-.51-3.49h-.36c0-.09-.07-.17-.11-.26s-.09-.18-.14-.27h.37c0 .08.09.16.13.25s.07.23.11.28zm.55-.12H539a2.55 2.55 0 0 0-.13-.29c0-.09-.09-.17-.14-.26h.37c.06.09.11.19.16.28s.12.18.15.27zM540.23 270.43V270h3.08a5 5 0 0 1-.23 1.08 4.13 4.13 0 0 1-.45.89c.22.17.45.38.71.61s.53.49.82.79l-.39.42c-.26-.29-.51-.55-.75-.79s-.48-.45-.7-.64a5.08 5.08 0 0 1-1 .85 6.77 6.77 0 0 1-1.26.65l-.25-.54a4.78 4.78 0 0 0 1.94-1.14 3.21 3.21 0 0 0 .92-1.7zM545.92 269.57v.75h3a2.2 2.2 0 0 1-.41 1.15 2.48 2.48 0 0 1-1.06.76l-.29-.45a2 2 0 0 0 .75-.38 1.23 1.23 0 0 0 .39-.59h-2.39v1.82a.59.59 0 0 0 .15.44.67.67 0 0 0 .46.14h2.26v.5h-2.32a1.09 1.09 0 0 1-.76-.28 1 1 0 0 1-.29-.76v-1.86h-.8v-.49h.8v-.75zM549.79 273.94l-.15-.57a4.3 4.3 0 0 0 2.38-.7 3.51 3.51 0 0 0 1.27-1.91l.52.24a4.19 4.19 0 0 1-1.45 2.1 5.05 5.05 0 0 1-2.57.84zm1.15-2.86a7.86 7.86 0 0 0-.67-.45 5.65 5.65 0 0 0-.62-.35l.3-.43.69.38a5.3 5.3 0 0 1 .61.39zM554.73 271.81l-.36-.39a3.11 3.11 0 0 0 .87-.82 3.31 3.31 0 0 0 .49-1.11l.49.12c0 .1-.05.18-.07.26l-.08.21h2.34a3.53 3.53 0 0 1-3.25 3.84l-.18-.51a5 5 0 0 0 1.28-.35 2.6 2.6 0 0 0 .87-.61 4.33 4.33 0 0 0-.61-.41 5.52 5.52 0 0 0-.69-.34l.27-.39q.42.18.75.36a5.84 5.84 0 0 1 .58.38 2.6 2.6 0 0 0 .3-.68 4.09 4.09 0 0 0 .15-.83h-2a4.24 4.24 0 0 1-.48.69 4.07 4.07 0 0 1-.67.58zM563.38 271.52v.48h-4v-.46zM568.56 270v.41h-4.65V270h1.28l-.1-.23-.14-.27.45-.11.16.33.13.28h1.08a1.49 1.49 0 0 0 .18-.3 3.54 3.54 0 0 0 .16-.34l.49.13a2.15 2.15 0 0 1-.14.26l-.15.25zm-2.44.8v2.71a.61.61 0 0 1-.13.44.62.62 0 0 1-.44.13h-.36v-.45h.35a.17.17 0 0 0 .13 0 .17.17 0 0 0 0-.12v-.54h-1v1.16h-.44v-3.33zm-.46.89v-.48h-1v.48zm0 .85v-.47h-1v.47zm1.5-1.62v2h-.44v-2zm1.09-.12v2.62a.7.7 0 0 1-.14.49.65.65 0 0 1-.49.14h-.41v-.45h.58a.28.28 0 0 0 0-.16v-2.6z" class="cls-14" transform="translate(-421.85 -237.57)"/>
        <path fill="#fff" stroke="#ae8c20" d="M16.18 23.55v5.89H8.25v8.2h7.93v8.7h8.2v-8.7h8.19V29.7h-8.19v-6.15h-8.2z"/>
        <path d="M444.73 266.73v.52h-2.12a4.46 4.46 0 0 0 .77 1.7 4.58 4.58 0 0 0 1.4 1.26l-.3.53a5.54 5.54 0 0 1-2.21-2.84 4.53 4.53 0 0 1-.8 1.65 4.77 4.77 0 0 1-1.44 1.22l-.31-.54a4.1 4.1 0 0 0 1.44-1.22 4.14 4.14 0 0 0 .73-1.76h-2.09v-.52h2.2v-1.62h.53v1.62zM440.92 276.88v1.55a.76.76 0 0 0 .23.63 1.11 1.11 0 0 0 .7.18h2.94v.54h-3a1.58 1.58 0 0 1-.63-.11 1 1 0 0 1-.44-.47l-.39.39-.31.28-.26-.57.32-.22.41-.31v-1.4h-.71v-.49zm-.3-1.06c-.16-.19-.3-.36-.43-.5a4.58 4.58 0 0 0-.36-.38l.35-.4q.26.24.45.45l.34.41zm3.47-1.34l.32.36a4.09 4.09 0 0 1-.44.39l-.51.33h1.12v2.66a.78.78 0 0 1-.14.5.58.58 0 0 1-.45.16h-.37v-.5h.49c.02 0 0-.08 0-.15v-.38h-.93v1h-.5v-1h-.86v1.07h-.47v-3.32h1.16l-.19-.23c-.07-.09-.17-.19-.28-.31l.18-.07h-.72v-.47zm-1.41 1.52h-.86v.45h.86zm-.86.89v.44h.86v-.44zm1.78-2h-1l.21.23.17.21zm.51 1.52V276h-.93v.45zm0 .88v-.44h-.93v.44zM457.48 263.32v.43h-2a3.66 3.66 0 0 0 .71 1.42 4.07 4.07 0 0 0 1.3 1.05l-.27.44a5 5 0 0 1-1.24-1 4.67 4.67 0 0 1-.81-1.35 3.61 3.61 0 0 1-.75 1.37 4.25 4.25 0 0 1-1.32 1l-.3-.45a3.65 3.65 0 0 0 1.34-1 3.32 3.32 0 0 0 .68-1.47h-1.94v-.43h2V262h.49v1.35zM458.81 264.1v1.29a.62.62 0 0 0 .21.52 1.13 1.13 0 0 0 .65.16h2.73v.44h-2.78a1.57 1.57 0 0 1-.58-.09.85.85 0 0 1-.41-.39c-.13.13-.26.23-.36.32a3.56 3.56 0 0 1-.29.23l-.24-.47.3-.18.37-.26v-1.16h-.65v-.41zm-.28-.88c-.14-.16-.27-.31-.39-.43s-.24-.23-.34-.31l.33-.33c.15.13.29.25.41.37l.32.34zm3.21-1.12l.3.3a4.31 4.31 0 0 1-.4.32l-.48.27h1v2.22a.53.53 0 0 1-.13.41.55.55 0 0 1-.41.14h-.35v-.41h.46a.17.17 0 0 0 0-.12v-.32h-.86v.84h-.46v-.84h-.79v.89h-.44V263h1.08l-.18-.19-.26-.25.17-.07h-.67v-.38zm-1.3 1.28h-.79v.37h.79zm-.79.74v.36h.79v-.36zm1.64-1.64h-1l.19.2a1.29 1.29 0 0 1 .16.18zm.47 1.27v-.37h-.86v.37zm0 .73v-.36h-.86v.36zM463 264l-.31-.38a3.14 3.14 0 0 0 .75-.61 3.09 3.09 0 0 0 .52-.79l.46.16a4.08 4.08 0 0 1-.62.93 4 4 0 0 1-.8.69zm0 2.38l-.1-.5.68-.08a5.8 5.8 0 0 0 .42-.94 10.17 10.17 0 0 0 .32-1.13l.48.1a9.93 9.93 0 0 1-.32 1 5.29 5.29 0 0 1-.38.86l2-.24c-.09-.15-.19-.3-.29-.45l-.3-.44.44-.2c.32.46.59.87.82 1.24s.3.51.37.65l-.45.22-.17-.33-.16-.26zm4.21-2.89l-.29.42a5.24 5.24 0 0 1-1.56-1.5l.42-.22a4.3 4.3 0 0 0 .66.74 4.58 4.58 0 0 0 .79.52zM472 262.1v4.55h-.44v-.16H468v.16h-.45v-4.55zm-.44 4v-3.57H470v.29h1.16v.33H470v.2h1.31v.36h-3v-.36h1.29v-.2h-1.12v-.33h1.12v-.29H468v3.57zm-.58-2.21v.94h-1l.21.19a1.37 1.37 0 0 0 .21.15l.16-.12.19-.17.37.22-.22.17-.14.1.28.11.31.11-.19.34a3.81 3.81 0 0 1-.73-.31 3.29 3.29 0 0 1-.54-.4v.72h-.44v-.73a4 4 0 0 1-.46.29 5.92 5.92 0 0 1-.56.23l-.21-.37a4.74 4.74 0 0 0 .64-.25 3.18 3.18 0 0 0 .52-.28h-.83v-.94zm-.41.64v-.33H469v.33z" class="cls-14" transform="translate(-421.85 -237.57)"/>
        <path fill="#8ebe48" d="M82.37 36.1h7.68v46.6h-7.68z"/>
        <path fill="#6fbfdb" d="M84.57 0h3.28v111.89h-3.28z"/>
        <path d="M502.48 253.72v.37H501a1.89 1.89 0 0 1-.34 1.21 2 2 0 0 1-1.1.68l-.22-.4a1.66 1.66 0 0 0 .94-.5 1.45 1.45 0 0 0 .29-1H499v-.37zm-.32-1.07v.35h-2.8v-.36zM503.64 252.68v2.73a2.6 2.6 0 0 0 1.5-.47 2.52 2.52 0 0 0 .84-1.31l.41.18a2.85 2.85 0 0 1-1.07 1.54 3.28 3.28 0 0 1-1.88.5h-.23v-3.16zM510.08 253.64a9.22 9.22 0 0 1-1.23.26 11.07 11.07 0 0 1-1.34.13v.76q0 .41.24.48a3.15 3.15 0 0 0 .84.08h.82q.39 0 .72-.06v.42l-.77.05h-.86a2.57 2.57 0 0 1-1.07-.16.71.71 0 0 1-.34-.72v-2.29h.4v1.06a12.79 12.79 0 0 0 1.3-.12 8.77 8.77 0 0 0 1.12-.26zm-.08-.74h-.3c0-.07-.05-.14-.08-.22a2.12 2.12 0 0 0-.11-.21h.29c0 .06.07.13.11.2zm.43-.11h-.29c0-.08-.07-.16-.1-.23l-.12-.21h.3a1.27 1.27 0 0 1 .12.23 1 1 0 0 1 .09.21zM511.35 252.52v.78h.32v.33h-.32v1.26l.39-.1v.36l-1.13.33-.06-.37.45-.11v-1.36h-.37v-.33h.37v-.78zm2.35 1.83h-1.41v-.21c-.08.06-.16.1-.24.15l-.24.14-.2-.31a2.75 2.75 0 0 0 .65-.37 2.42 2.42 0 0 0 .52-.49h.38a2.29 2.29 0 0 0 .5.48 3.73 3.73 0 0 0 .69.37l-.17.33-.28-.15-.2-.12zm.55-1.7v.35h-.55v.26h-.35V253h-.74v.26h-.35V253h-.5v-.33h.5v-.33h.35v.33h.74v-.33h.35v.33zm-.3 2v1.4h-.34v-.16h-1.24v.16H512v-1.4zm-.34.91V255h-1.24v.58zm-1.17-1.56h1.07l-.29-.23-.25-.26a3.07 3.07 0 0 1-.25.26 3.11 3.11 0 0 1-.28.23z" class="cls-14" transform="translate(-421.85 -237.57)"/>
        <path d="M508.07 286.82v1.64h-1.89a5.39 5.39 0 0 1-.19.79 3 3 0 0 1-.31.62l-.33-.4a2.55 2.55 0 0 0 .33-.78 3.94 3.94 0 0 0 .12-1v-.86zm-.46-.59v.33h-1.35v-.27c-.11.08-.22.14-.32.2s-.2.1-.29.13l-.24-.4a4.94 4.94 0 0 0 .7-.33 4.69 4.69 0 0 0 .63-.47h.36a3.67 3.67 0 0 0 .46.3 6.2 6.2 0 0 0 .68.32l-.17.41a5 5 0 0 1-.57-.28 6.15 6.15 0 0 1-.56-.38l-.27.25-.3.19zm0 1.84v-.28h-1.39v.28zm0-.61v-.27h-1.38v.27zm.44 1.28V290h-.43v-.08h-.93v.16h-.44v-1.36zm-.43.85v-.49h-.93v.49zm1.33-3.7v2.81h-.44v-2.81zm1-.43v4a.67.67 0 0 1-.12.46.62.62 0 0 1-.46.13h-.48v-.45h.44a.26.26 0 0 0 .18 0 .26.26 0 0 0 0-.18v-3.92zM510.07 291v.44h-1.39a6.87 6.87 0 0 0 .08.78 5.88 5.88 0 0 0 .18.81 3 3 0 0 0 .26-.47c.07-.18.15-.37.21-.57l.42.19a4.1 4.1 0 0 1-.26.64 4.23 4.23 0 0 1-.44.7 2.92 2.92 0 0 0 .31.57c.09.12.16.18.2.18s.06-.05.08-.14a2.42 2.42 0 0 0 .06-.43l.39.21a2.77 2.77 0 0 1-.16.73.36.36 0 0 1-.32.24.64.64 0 0 1-.41-.23 2.81 2.81 0 0 1-.48-.71 4 4 0 0 1-.52.49 3.6 3.6 0 0 1-.57.39l-.32-.38a3.84 3.84 0 0 0 .61-.44 4.91 4.91 0 0 0 .57-.55 7.4 7.4 0 0 1-.26-1 7.18 7.18 0 0 1-.11-1.05h-1.9v.73h1.4v1a1 1 0 0 1-.17.66.71.71 0 0 1-.59.19h-.27v-.45h.25c.15 0 .25 0 .3-.07a.46.46 0 0 0 .08-.32v-.57h-.95a7.48 7.48 0 0 1-.16 1.37 3.22 3.22 0 0 1-.37 1l-.37-.36a2.73 2.73 0 0 0 .34-.92 6.91 6.91 0 0 0 .12-1.37V291h2.34v-.76h.48v.76h.66a2.33 2.33 0 0 0-.17-.26 2.48 2.48 0 0 0-.19-.26l.39-.17.2.25.18.27-.38.17zM506.43 295.22v2.12a6.49 6.49 0 0 1-.14 1.42 2.55 2.55 0 0 1-.49 1l-.4-.34a2 2 0 0 0 .44-.9 5.4 5.4 0 0 0 .13-1.29v-2zm1.69.16v4h-.46v-4zm1.72-.18v4.61h-.46v-4.61zM505.89 302l-.32-.38a3.24 3.24 0 0 0 .76-.61 3 3 0 0 0 .52-.8l.45.17a3.74 3.74 0 0 1-.61.93 4.78 4.78 0 0 1-.8.69zm0 2.37l-.11-.49.69-.09a5.44 5.44 0 0 0 .42-.94 8 8 0 0 0 .31-1.13l.48.1c-.09.38-.2.73-.31 1.05a6.32 6.32 0 0 1-.38.86l2-.24-.29-.46-.3-.44.44-.19q.48.69.81 1.23c.19.3.31.51.38.65l-.45.22-.17-.32-.16-.27zm4.21-2.89l-.29.43a6.1 6.1 0 0 1-.88-.69 4.86 4.86 0 0 1-.68-.82l.42-.21a4.71 4.71 0 0 0 .66.74 4.52 4.52 0 0 0 .79.56zM510 305v4.55h-.43v-.16h-3.53v.16h-.46V305zm-.43 4v-3.57H508v.29h1.16v.28H508v.2h1.32v.36h-3v-.36h1.29v-.2h-1.12v-.33h1.12v-.29h-1.51V309zm-.59-2.21v.94h-1a1.74 1.74 0 0 0 .22.19 1.3 1.3 0 0 0 .2.15l.16-.12.19-.17.37.22-.22.17-.14.1.29.12.3.1-.19.34a4 4 0 0 1-.72-.31 3.39 3.39 0 0 1-.55-.4v.72h-.44v-.73a3 3 0 0 1-.46.29 5.92 5.92 0 0 1-.56.23l-.2-.37a6.42 6.42 0 0 0 .63-.24 4.35 4.35 0 0 0 .53-.29h-.84v-.94zm-.41.64v-.33H507v.33z" class="cls-5" transform="translate(-421.85 -237.57)"/>
        <path d="M508.07 286.82v1.64h-1.89a5.39 5.39 0 0 1-.19.79 3 3 0 0 1-.31.62l-.33-.4a2.55 2.55 0 0 0 .33-.78 3.94 3.94 0 0 0 .12-1v-.86zm-.46-.59v.33h-1.35v-.27c-.11.08-.22.14-.32.2s-.2.1-.29.13l-.24-.4a4.94 4.94 0 0 0 .7-.33 4.69 4.69 0 0 0 .63-.47h.36a3.67 3.67 0 0 0 .46.3 6.2 6.2 0 0 0 .68.32l-.17.41a5 5 0 0 1-.57-.28 6.15 6.15 0 0 1-.56-.38l-.27.25-.3.19zm0 1.84v-.28h-1.39v.28zm0-.61v-.27h-1.38v.27zm.44 1.28V290h-.43v-.08h-.93v.16h-.44v-1.36zm-.43.85v-.49h-.93v.49zm1.33-3.7v2.81h-.44v-2.81zm1-.43v4a.67.67 0 0 1-.12.46.62.62 0 0 1-.46.13h-.48v-.45h.44a.26.26 0 0 0 .18 0 .26.26 0 0 0 0-.18v-3.92zM510.07 291v.44h-1.39a6.87 6.87 0 0 0 .08.78 5.88 5.88 0 0 0 .18.81 3 3 0 0 0 .26-.47c.07-.18.15-.37.21-.57l.42.19a4.1 4.1 0 0 1-.26.64 4.23 4.23 0 0 1-.44.7 2.92 2.92 0 0 0 .31.57c.09.12.16.18.2.18s.06-.05.08-.14a2.42 2.42 0 0 0 .06-.43l.39.21a2.77 2.77 0 0 1-.16.73.36.36 0 0 1-.32.24.64.64 0 0 1-.41-.23 2.81 2.81 0 0 1-.48-.71 4 4 0 0 1-.52.49 3.6 3.6 0 0 1-.57.39l-.32-.38a3.84 3.84 0 0 0 .61-.44 4.91 4.91 0 0 0 .57-.55 7.4 7.4 0 0 1-.26-1 7.18 7.18 0 0 1-.11-1.05h-1.9v.73h1.4v1a1 1 0 0 1-.17.66.71.71 0 0 1-.59.19h-.27v-.45h.25c.15 0 .25 0 .3-.07a.46.46 0 0 0 .08-.32v-.57h-.95a7.48 7.48 0 0 1-.16 1.37 3.22 3.22 0 0 1-.37 1l-.37-.36a2.73 2.73 0 0 0 .34-.92 6.91 6.91 0 0 0 .12-1.37V291h2.34v-.76h.48v.76h.66a2.33 2.33 0 0 0-.17-.26 2.48 2.48 0 0 0-.19-.26l.39-.17.2.25.18.27-.38.17zM506.43 295.22v2.12a6.49 6.49 0 0 1-.14 1.42 2.55 2.55 0 0 1-.49 1l-.4-.34a2 2 0 0 0 .44-.9 5.4 5.4 0 0 0 .13-1.29v-2zm1.69.16v4h-.46v-4zm1.72-.18v4.61h-.46v-4.61zM505.89 302l-.32-.38a3.24 3.24 0 0 0 .76-.61 3 3 0 0 0 .52-.8l.45.17a3.74 3.74 0 0 1-.61.93 4.78 4.78 0 0 1-.8.69zm0 2.37l-.11-.49.69-.09a5.44 5.44 0 0 0 .42-.94 8 8 0 0 0 .31-1.13l.48.1c-.09.38-.2.73-.31 1.05a6.32 6.32 0 0 1-.38.86l2-.24-.29-.46-.3-.44.44-.19q.48.69.81 1.23c.19.3.31.51.38.65l-.45.22-.17-.32-.16-.27zm4.21-2.89l-.29.43a6.1 6.1 0 0 1-.88-.69 4.86 4.86 0 0 1-.68-.82l.42-.21a4.71 4.71 0 0 0 .66.74 4.52 4.52 0 0 0 .79.56zM510 305v4.55h-.43v-.16h-3.53v.16h-.46V305zm-.43 4v-3.57H508v.29h1.16v.28H508v.2h1.32v.36h-3v-.36h1.29v-.2h-1.12v-.33h1.12v-.29h-1.51V309zm-.59-2.21v.94h-1a1.74 1.74 0 0 0 .22.19 1.3 1.3 0 0 0 .2.15l.16-.12.19-.17.37.22-.22.17-.14.1.29.12.3.1-.19.34a4 4 0 0 1-.72-.31 3.39 3.39 0 0 1-.55-.4v.72h-.44v-.73a3 3 0 0 1-.46.29 5.92 5.92 0 0 1-.56.23l-.2-.37a6.42 6.42 0 0 0 .63-.24 4.35 4.35 0 0 0 .53-.29h-.84v-.94zm-.41.64v-.33H507v.33zM518.92 262.15v3.54h-3.54v-3.54zM520.28 263.41h-1.07V263h1.07v-1h.37v3.72h-.37V265l-1 .37-.1-.38 1.13-.37zm1.44-1.32v1.15c.19-.06.37-.13.54-.2a3.61 3.61 0 0 0 .44-.22l.18.34a4.68 4.68 0 0 1-.55.27l-.61.22v1.53a.19.19 0 0 0 0 .16.21.21 0 0 0 .15 0h.41a.19.19 0 0 0 .18-.13 1.39 1.39 0 0 0 0-.42l.38.09a1.24 1.24 0 0 1-.12.61.45.45 0 0 1-.39.2h-.61a.42.42 0 0 1-.47-.47v-3.17zM523.68 264l-.3-.27-.31-.26.22-.29.3.24.31.28zm-.27 1.81l-.32-.25a2.65 2.65 0 0 0 .32-.55 3.19 3.19 0 0 0 .24-.68l.31.17a4.48 4.48 0 0 1-.23.73 2.91 2.91 0 0 1-.32.54zm.36-2.84a3.76 3.76 0 0 0-.29-.28 2.17 2.17 0 0 0-.29-.24l.23-.3.28.24a4 4 0 0 1 .31.29zm2.94-.53v.33h-2.06a1.56 1.56 0 0 1-.14.19 1 1 0 0 1-.12.15h2.16v.86h.28v.33h-.29v.53h.31v.32h-.33a.81.81 0 0 1-.18.52.65.65 0 0 1-.5.16h-.38v-.35h.34a.5.5 0 0 0 .28-.07.42.42 0 0 0 .11-.26h-1.86v-.85h-.25v-.33h.27v-.85l-.29-.22a2 2 0 0 0 .28-.35 2.29 2.29 0 0 0 .24-.47l.34.09v.24zm-2.06 1.86v.53h.59v-.53zm.05-.86v.53h.58v-.53zm.84 1.39h.59v-.53h-.59zm.62-.86v-.53h-.57v.53zM527.93 263.75v1.06a.44.44 0 0 0 .16.37.77.77 0 0 0 .47.13h2.14v.34h-2.25a.82.82 0 0 1-.4-.09.64.64 0 0 1-.27-.29 3.45 3.45 0 0 1-.28.26l-.3.22-.2-.38a2.48 2.48 0 0 0 .31-.18 2.11 2.11 0 0 0 .31-.21v-.9H527v-.33zm-.28-.67l-.31-.33a3 3 0 0 0-.29-.25l.27-.28.36.33a2.4 2.4 0 0 1 .23.25zm3-.6v.32h-1.13v.24h.94v2h-2.16v-2h.78a.78.78 0 0 0 0-.14.38.38 0 0 0 0-.1h-1v-.32h.59a.77.77 0 0 0-.06-.15c0-.06-.07-.12-.12-.2l.36-.06a2.53 2.53 0 0 1 .12.23 1.34 1.34 0 0 1 .07.18h.54a1.89 1.89 0 0 0 .09-.21c0-.07 0-.15.08-.22l.37.07c0 .07 0 .13-.07.19l-.08.17zm-.59 1.1v-.23h-1.34v.23zm0 .55v-.26h-1.34v.26zm0 .56v-.28h-1.34v.28zM534.3 262.15v.26h-1.43v.16h1.65v.84h-.32v-.55h-1.33v.8h-.35v-.8h-1.29v.55h-.32v-.84h1.61v-.16h-1.39v-.26zm0 1.64v1.31h-1.47v.13a.16.16 0 0 0 0 .11.12.12 0 0 0 .11 0h1a.18.18 0 0 0 .15-.06.28.28 0 0 0 .07-.19l.33.16a.53.53 0 0 1-.14.32.49.49 0 0 1-.32.09H533a.5.5 0 0 1-.33-.09.45.45 0 0 1-.1-.33v-.18h-1.41v-1.31zm-2-.76v.2h-.86V263zm0 .36v.2h-.86v-.2zm.21.69h-1.06v.22h1.06zm-1.06.49v.25h1.06v-.25zm2.54-.27v-.22h-1.13v.22zm0 .52v-.25h-1.13v.25zm0-1.79v.2h-.9V263zm0 .36v.2h-.9v-.2zM538.26 262.89v1.7a1.75 1.75 0 0 1-.18.86.71.71 0 0 1-.66.26h-.48v-.37h.52a.36.36 0 0 0 .36-.18 1.34 1.34 0 0 0 .1-.58v-1.34h-1.4a3.2 3.2 0 0 1-.34 1.45 2.49 2.49 0 0 1-1 1l-.26-.35a2.1 2.1 0 0 0 .93-.83 2.53 2.53 0 0 0 .32-1.3h-1.2v-.35h1.21v-.81h.38v.81zM517.45 293.79v.37h-3.69v-.37zm-.25-2.55v.36h-3.12v-.36zM521.26 292.9v.33H520a2.48 2.48 0 0 0 .59.45 4 4 0 0 0 .78.36l-.21.33a4.71 4.71 0 0 1-.9-.46 3 3 0 0 1-.6-.55v1.11h-.36v-1.11a2.82 2.82 0 0 1-.64.6 4.34 4.34 0 0 1-.89.44l-.21-.35a3.8 3.8 0 0 0 .81-.35 2.31 2.31 0 0 0 .59-.47h-1.27v-.33h1.61v-.36h.36v.36zm-.7-1.86l.3.22a2.21 2.21 0 0 1-.41.4 2.94 2.94 0 0 1-.47.31 4.86 4.86 0 0 0 .58.2 6 6 0 0 0 .74.15l-.14.34q-.46-.09-.87-.21a4.2 4.2 0 0 1-.71-.28 6.36 6.36 0 0 1-.85.32 5.43 5.43 0 0 1-.85.19l-.17-.35a6 6 0 0 0 .74-.13 5.36 5.36 0 0 0 .71-.23l-.31-.21a1.55 1.55 0 0 1-.27-.24c-.1.07-.19.14-.28.19l-.26.15-.25-.3a3.14 3.14 0 0 0 .62-.36 2.57 2.57 0 0 0 .47-.46l.38.12-.07.08-.09.1zm-.32.33h-1.35c.12.1.24.18.34.25a1.45 1.45 0 0 0 .31.18 2.69 2.69 0 0 0 .38-.2zM525.25 291.16v.35h-1.69v.5H525v1.49a.44.44 0 0 1-.52.52h-.42v-.37H524.62a.21.21 0 0 0 0-.15v-1.1h-1.1v2.11h-.37v-2.11h-1.06v1.6h-.35v-2h1.41v-.5h-1.66v-.35h1.66v-.44h.37v.44zM529.15 292.34v.31h-1.61l-.06.11-.06.11H529v1a.49.49 0 0 1-.6.6h-.22v-.35h.19a.36.36 0 0 0 .25-.06.35.35 0 0 0 .07-.26v-.6h-.2a2.14 2.14 0 0 1-.35.73 2.21 2.21 0 0 1-.58.56l-.22-.26a2.4 2.4 0 0 0 .5-.45 2.16 2.16 0 0 0 .31-.58h-.31a1.79 1.79 0 0 1-.41.64 2.56 2.56 0 0 1-.7.54l-.2-.28a2.48 2.48 0 0 0 .58-.4 1.58 1.58 0 0 0 .37-.5h-.25l-.24.24a2.37 2.37 0 0 1-.3.23l-.18-.26-1 .35-.07-.37.45-.15V292h-.38v-.33h.38v-.78h.35v.78h.36v.33h-.36v1.08l.35-.1v.3a1.83 1.83 0 0 0 .36-.31 1.51 1.51 0 0 0 .23-.35h-.54v-.31zm-.26-1.52v1.32h-2v-1.32zm-.35.53v-.24h-1.36v.24zm0 .5v-.24h-1.36v.24z" class="cls-14" transform="translate(-421.85 -237.57)"/>
        <path fill="#d92e1c" d="M100.42 63.5h8.96v3.58h-8.96z"/>
        <path d="M119.37 98.06l-13.83-31.49 21.25 27.24" class="cls-19"/>
        <path d="M89.41 92.69h60.17v14.59H89.41z" class="cls-19"/>
        <path d="M522.7 337.59a4.3 4.3 0 0 1-.54.87l-.2-.13a3.78 3.78 0 0 0 .42-.7 3.63 3.63 0 0 0 .3-.79h-.58v-.24h.6v-.72h.3v.72h.41v.24H523v.36a2.42 2.42 0 0 0 .48.48l-.18.21a2.24 2.24 0 0 1-.3-.33v1.79h-.33zm.71 1.51l-.16-.18a4.85 4.85 0 0 0 .69-.56 4.26 4.26 0 0 0 .58-.72h-1v-.23h1.06v-.65h-.67a1.91 1.91 0 0 1-.27.42l-.24-.12a2.76 2.76 0 0 0 .28-.52 2.41 2.41 0 0 0 .18-.56h.33a4.24 4.24 0 0 1-.17.5h.56v-.63h.34v.63h1v.24h-1v.65H526v.23h-1a3.75 3.75 0 0 0 .64.75 5.15 5.15 0 0 0 .61.49l-.22.21a4.59 4.59 0 0 1-1.11-1.09v1.34h-.33V338a4 4 0 0 1-1.19 1.06M526.78 336.83v-.24H529v-.71h.35v.71h1.39v.24h-1.39a4.08 4.08 0 0 0 .11 1 2.65 2.65 0 0 0 .36.8c.17.25.31.37.41.37s.15-.07.16-.2v-.24a1.94 1.94 0 0 0 0-.24h.27a3.65 3.65 0 0 1 0 .7.32.32 0 0 1-.33.3.69.69 0 0 1-.29-.07 2.23 2.23 0 0 1-.33-.29 2.84 2.84 0 0 1-.37-.54 2.75 2.75 0 0 1-.24-.75 5.05 5.05 0 0 1-.1-.84zm.09 2.39v-.26l1-.08v-1.26H527v-.24h1.93v.24h-.77v1.23c.49-.05.81-.08 1-.11v.26l-1 .12-1.26.11m3.33-2.65s-.21-.22-.53-.52l.26-.15c.13.11.3.28.54.5zM535.42 337.39a5.44 5.44 0 0 1-1-.54 5.32 5.32 0 0 1-.93-.78 4.14 4.14 0 0 1-.89.77 5 5 0 0 1-1.07.58l-.16-.2a5.45 5.45 0 0 0 1-.56 3.28 3.28 0 0 0 .87-.78h.44a4.59 4.59 0 0 0 .89.74 5.74 5.74 0 0 0 1.07.55zm-3.73 1.91l-.05-.25h.6a7.12 7.12 0 0 0 .63-1h-1.27v-.23h3.75v.23h-2.09a10.08 10.08 0 0 1-.65.93c.88 0 1.54-.08 2-.12-.21-.22-.37-.38-.49-.49l.26-.13q.18.15.48.45c.19.2.34.36.44.48l-.31.14-.2-.24c-.27 0-.75.07-1.45.11l-1.61.08m.65-2.25h2.29v.23h-2.29zM536.83 339.33v-1.56a4.62 4.62 0 0 1-.62.43l-.14-.19a4.3 4.3 0 0 0 .83-.66 2.27 2.27 0 0 0 .52-.71h-1.19v-.23h.63v-.53h.31v.53h.55l.1.1a3 3 0 0 1-.66 1 3.37 3.37 0 0 0 .64.41l-.14.27a3.86 3.86 0 0 1-.5-.38v1.55zm.67-.11V339h1.23v-1.77h-.91V337h.91v-1.11h.34V337h1v.23h-1V339h1.18v.23zM541.89 337.39A3.62 3.62 0 0 1 541 339l-.29-.19a3.31 3.31 0 0 0 .52-.74 2.69 2.69 0 0 0 .27-.74zm.76 1.87h-.37v-2.34h-1.42v-.27h1.42V336h.37v.64H544v.27h-1.37zm1.54-.46l-.29.2a3.34 3.34 0 0 1-.51-.76 4.9 4.9 0 0 1-.34-.86l.35-.07a3.91 3.91 0 0 0 .79 1.49M545.87 336a4 4 0 0 1-.11.39h1.44v.26a2.73 2.73 0 0 1-.05.37 3.19 3.19 0 0 1-.12.49c0 .14-.11.3-.18.45a2.73 2.73 0 0 1-.26.43 2 2 0 0 1-.35.36 2.29 2.29 0 0 1-.46.3 3.77 3.77 0 0 1-.57.21l-.12-.28a2.08 2.08 0 0 0 1.2-.79 3.22 3.22 0 0 0 .51-1.53h-1.14a4.33 4.33 0 0 1-.39.7 2.8 2.8 0 0 1-.48.54l-.25-.21a3.13 3.13 0 0 0 .61-.82 3.65 3.65 0 0 0 .35-.92zM549.34 337.54l-.18.27a8 8 0 0 0-1.33-.48l.13-.25a7.15 7.15 0 0 1 1.38.46m1.67-.16a3.26 3.26 0 0 1-1.17 1.25 4.07 4.07 0 0 1-1.77.58l-.09-.28a4.9 4.9 0 0 0 1-.25 3 3 0 0 0 .76-.4 4 4 0 0 0 .5-.44 3.38 3.38 0 0 0 .42-.6zm-1.31-.79l-.18.27a9 9 0 0 0-1.33-.51l.14-.23c.16 0 .38.1.65.19s.5.19.72.28M554.43 337.37a3.22 3.22 0 0 1-.73 1 3.55 3.55 0 0 1-.94.6 4.79 4.79 0 0 1-1.13.28l-.08-.3a3.38 3.38 0 0 0 1-.23 2.73 2.73 0 0 0 .72-.39 3.21 3.21 0 0 0 .5-.46 2.87 2.87 0 0 0 .4-.63zm-1.36-.48l-.24.25a9.91 9.91 0 0 0-1.25-.71l.18-.23a6.61 6.61 0 0 1 1.31.69M556.47 337.54l-.17.27a8.44 8.44 0 0 0-1.34-.48l.13-.25a7.15 7.15 0 0 1 1.38.46m1.67-.16a3.26 3.26 0 0 1-1.17 1.25 4.07 4.07 0 0 1-1.77.58l-.08-.28a4.81 4.81 0 0 0 1-.25 3 3 0 0 0 .76-.4 5.08 5.08 0 0 0 .51-.44 4 4 0 0 0 .41-.6zm-1.31-.79l-.18.27a8.54 8.54 0 0 0-1.33-.51l.14-.23c.17 0 .38.1.65.19s.51.19.72.28M558.64 339.25l-.17-.24a4.83 4.83 0 0 0 1.33-1 3.81 3.81 0 0 0 .92-1.51h-1.89v-.26h2.25l.07.07a4.23 4.23 0 0 1-.81 1.52c.37.32.81.73 1.33 1.23l-.3.22c-.29-.33-.69-.75-1.2-1.24v.05a4.58 4.58 0 0 1-1.49 1.17M563.91 337.65a2.31 2.31 0 0 1-.11.76 1.21 1.21 0 0 1-.41.53 2.21 2.21 0 0 1-.83.32l-.11-.26a1.62 1.62 0 0 0 .81-.39 1.23 1.23 0 0 0 .27-.89v-.2H562v-.27h3.12v.27h-1.24zm1-1.16h-2.61v-.27h2.61zM568.84 339.12l-.36.11c0-.09-.07-.21-.12-.33-.71.11-1.63.19-2.77.25l-.05-.3h.37c.17-.37.36-.82.56-1.35a13.91 13.91 0 0 0 .46-1.41l.37.06c-.13.43-.3.91-.5 1.43s-.36.9-.53 1.26h.53c.57 0 1.05-.08 1.46-.14a.69.69 0 0 0 0-.13 8.72 8.72 0 0 0-.53-1.07l.29-.14a10.64 10.64 0 0 1 .87 1.81" class="cls-20" transform="translate(-421.85 -237.57)"/>
        <path d="M93.81 99.55l.36-.23v1.02l1.32-.76v-3.32l-1.45.83v.85l-.37.22v-.86l-1.07.62-.02 3.34 1.23-.71v-1zM97.22 99.27l.45 1.34 1.16.7-.82-2.69.84-.68-.91-.53-.74.51v-.94l-1.24-.73v3.35l1.26.75v-1.08z" class="cls-21"/>
        <path fill="#eb9b21" d="M95.94 101.11h-.01l.26-.15 1.24.72.65-.38-2.36-1.4-1.98 1.15 1.89 1.11.05.02-.26.15-1.39-.81-.65.37 2.35 1.37 1.96-1.12-1.75-1.03z"/>
        <path d="M518 308.58v3.54h-3.54v-3.54zM519.84 309.21v.33h-.53v.16a2.88 2.88 0 0 0 .26.35l.32.37-.15.38-.24-.29-.19-.26v2h-.38v-1.95a2.91 2.91 0 0 1-.23.42 2.7 2.7 0 0 1-.29.4l-.2-.35a3.7 3.7 0 0 0 .38-.54 4.38 4.38 0 0 0 .32-.69h-.63v-.33h.65v-.72h.38v.72zm.75-.68v3.06a.18.18 0 0 0 .2.2h.54a.21.21 0 0 0 .21-.16 2.39 2.39 0 0 0 0-.49h.36a1.92 1.92 0 0 1-.1.74.39.39 0 0 1-.41.22h-.68a.57.57 0 0 1-.41-.12.54.54 0 0 1-.12-.39v-3.1zM523 308.49v.58h.56v2.12a.33.33 0 0 1-.08.24.32.32 0 0 1-.23.07h-.11v-.35h.07a.1.1 0 0 0 .07 0 .14.14 0 0 0 0-.07v-1.67H523v2.82h-.31v-2.82h-.22v2.12h-.31v-2.44h.53v-.58zm1.93 1.56v.7h.91v.33h-.62v.64a.11.11 0 0 0 0 .08.1.1 0 0 0 .08 0h.12s.07 0 .08-.08a1 1 0 0 0 0-.23l.31.05a.9.9 0 0 1-.11.44.31.31 0 0 1-.28.14h-.26a.36.36 0 0 1-.26-.09.37.37 0 0 1-.09-.27v-.71h-.28a1.57 1.57 0 0 1-.23.69 1.42 1.42 0 0 1-.52.48l-.22-.31a1 1 0 0 0 .62-.86h-.53v-.33h.86v-.7zm.76-1.48V310h-1.9v-1.39zm-1.33 2l-.3.1a2.44 2.44 0 0 0-.1-.24c0-.08-.08-.16-.13-.24l.31-.09a.94.94 0 0 1 .12.22 1.86 1.86 0 0 1 .12.25zm1-1.46v-.23h-1.21v.23zm0 .55v-.26h-1.21v.26zm.07 1l-.29-.14a1.14 1.14 0 0 0 .15-.23 1 1 0 0 0 .12-.26l.33.11c0 .09-.09.18-.14.27a2.2 2.2 0 0 1-.16.29zM529.73 308.83v.32H528v.29h1.34V311h-1a2.54 2.54 0 0 0 .57.44 4.05 4.05 0 0 0 .76.33l-.18.34a4.42 4.42 0 0 1-.87-.44 2.72 2.72 0 0 1-.66-.6v1.1h-.35v-1.09a3.1 3.1 0 0 1-.64.61 4 4 0 0 1-.85.46l-.22-.32a3.13 3.13 0 0 0 .76-.35 2.34 2.34 0 0 0 .55-.48h-.92v-1.6h1.32v-.29H526v-.32h1.67v-.36h.33v.36zm-2 .94h-1v.3h1zm-1 .61v.35h1v-.35zm2.3-.31v-.3h-1v.3zm0 .66v-.35h-1v.35zM533.64 309.42v.33h-.93a6 6 0 0 0 .22 1.42c.11.32.19.48.27.48s0 0 .07-.12a3.17 3.17 0 0 0 .08-.37l.3.21a2.2 2.2 0 0 1-.2.64c-.09.14-.18.21-.28.21s-.33-.21-.49-.63a6.19 6.19 0 0 1-.33-1.84h-.89v.6h.71v.33h-.71v.88l.85-.1v.35l-2.35.28-.07-.37h.37v-1.61h.35v1.58h.47v-1.85h-1.18v-.33h2.45v-.93h.35v.93zm-1.67-.73v.31h-1.63v-.33zm1.51.38l-.28.13a1.87 1.87 0 0 0-.12-.25c-.05-.08-.1-.17-.17-.27l.27-.11a2.85 2.85 0 0 1 .17.26c.05.08.09.17.13.24zM534.18 311.47l-.34-.29a1.89 1.89 0 0 0 .38-.45 2.29 2.29 0 0 0 .27-.61l.4.11a4.09 4.09 0 0 1-.3.7 3.2 3.2 0 0 1-.41.54zm1.69-2.9v.62h1.51v.4h-1.51v1.89a.55.55 0 0 1-.14.43.85.85 0 0 1-.51.1h-.28v-.43h.25a.6.6 0 0 0 .23 0c.05 0 .07-.08.07-.17v-1.81H534v-.4h1.51v-.62zm1.66 2.72l-.4.17a3.93 3.93 0 0 0-.3-.62 3.21 3.21 0 0 0-.42-.59l.38-.18a3.78 3.78 0 0 1 .4.56 6.75 6.75 0 0 1 .34.66zM541.28 309.88v.37h-1.44a1.74 1.74 0 0 1-1.44 1.88l-.22-.4a1.6 1.6 0 0 0 .94-.5 1.42 1.42 0 0 0 .29-1h-1.57v-.37zm-.28-1.08v.37h-2.8v-.37zM542.65 309v.79a4 4 0 0 1-.18 1.26 2.59 2.59 0 0 1-.56 1l-.32-.31a2 2 0 0 0 .52-.85 4.2 4.2 0 0 0 .14-1.13V309zm1-.18v2.71a1.45 1.45 0 0 0 .81-.57 2.82 2.82 0 0 0 .45-1.16l.41.13a3.08 3.08 0 0 1-.71 1.52 2.17 2.17 0 0 1-1.39.59v-3.22z" class="cls-14" transform="translate(-421.85 -237.57)"/>
    </g>
</svg>