<?xml version="1.0" encoding="utf-8"?>
<svg xmlns="http://www.w3.org/2000/svg" id="レイヤー_33" data-name="レイヤー 33" viewBox="0 0 356.92 180">
    <defs>
        <style>.cls-1{fill:#ad84a5}.cls-1,.cls-2,.cls-3,.cls-4,.cls-5{stroke:#fff;stroke-width:.75px}.cls-1,.cls-2,.cls-3,.cls-4,.cls-5,.cls-8,.cls-9{stroke-miterlimit:10}.cls-2{fill:#96b36e}.cls-3{fill:#cb8a78}.cls-4{fill:#7ba48a}.cls-5{fill:#cea573}.cls-6{fill:#fff}.cls-7,.cls-8{fill:#231815}.cls-8,.cls-9{stroke:#231815}.cls-9{fill:none}</style>
    </defs>
    <path d="M279 346.25a83.35 83.35 0 0 0 37.5 68.14l49.5-68.31z" class="cls-1" transform="translate(-190.77 -260.35)"/>
    <path d="M283.05 319.32a82.93 82.93 0 0 0-4 26.93l86.92-.17z" class="cls-2" transform="translate(-190.77 -260.35)"/>
    <path d="M365.79 261.77a83.18 83.18 0 0 0-82.74 57.55L366 346.08z" class="cls-3" transform="translate(-190.77 -260.35)"/>
    <path d="M366 346.08l47.12 64.59a83.17 83.17 0 0 0-47.29-148.9z" class="cls-4" transform="translate(-190.77 -260.35)"/>
    <path d="M316.54 414.39a83.15 83.15 0 0 0 96.54-3.72L366 346.08z" class="cls-5" transform="translate(-190.77 -260.35)"/>
    <path d="M418.77 337.09a.33.33 0 0 1-.1.24.34.34 0 0 1-.24.11.61.61 0 0 1-.28-.06 4.9 4.9 0 0 0-.69-.18 5.12 5.12 0 0 0-.78-.06h-.47a4.87 4.87 0 0 0-.19 1.25 2.09 2.09 0 0 1 0 .25v.84a.65.65 0 0 0 .15.25.51.51 0 0 1 .16.26.41.41 0 0 1-.06.19 1.07 1.07 0 0 1-.13.19.93.93 0 0 1-.18.16.38.38 0 0 1-.19.06 1.82 1.82 0 0 1-.4-.07.39.39 0 0 1-.28-.28 1.55 1.55 0 0 1-.08-.51v-.3-.41q0-.48.06-.72a5.61 5.61 0 0 1 .14-1.09h-.42a8.37 8.37 0 0 0-2 .2 6 6 0 0 1-1.52.23.61.61 0 0 1-.33-.12 1.61 1.61 0 0 1-.3-.28 1.62 1.62 0 0 1 .4-.58l.39-.4.45-.43.43-.38a2.91 2.91 0 0 1 .29-.26l.89-.72.54-.43c.16-.13.3-.24.42-.35l.17-.14.22-.2.22-.2.19-.17.18-.15.18-.14.28-.21c.11-.08.23-.18.38-.28a1.44 1.44 0 0 1 .54-.33.81.81 0 0 1 .31.06c.11 0 .16.1.16.19s0 .11-.05.21-.06.2-.09.31-.07.24-.1.36-.06.23-.09.33l-.22.88c-.06.27-.12.51-.17.72s-.1.43-.14.65-.08.44-.11.66a4.37 4.37 0 0 0 1.38.14h.4c.26 0 .43.06.51.17a.83.83 0 0 1 .17.54zm-2.77-3.62l-.48.42-.51.41-.5.4a3.22 3.22 0 0 0-.42.4 9.12 9.12 0 0 1-.76.7c-.3.26-.62.5-.95.74 0 .06 0 .09.11.09a3 3 0 0 1 .73-.13l1-.07.7-.07a2.83 2.83 0 0 0 .52-.1 2.34 2.34 0 0 1 0-.26c0-.09 0-.18.05-.26s0-.2.08-.32l.11-.42c.08-.32.14-.55.17-.7a4.22 4.22 0 0 0 .15-.83zM427.75 335.62a2.86 2.86 0 0 1-.5 1.54 6.21 6.21 0 0 1-1.31 1.42 8.64 8.64 0 0 1-1.69 1.08 5.49 5.49 0 0 1-1.62.54 11.29 11.29 0 0 1-1.33.12 1.78 1.78 0 0 1-1.45-.63 2.48 2.48 0 0 1-.5-1.59 4.85 4.85 0 0 1 .29-1.6 7.22 7.22 0 0 1 .81-1.62 5.54 5.54 0 0 1 1.11-1.22 8.22 8.22 0 0 1 1.48-.94 3.42 3.42 0 0 1 1.5-.39 2.78 2.78 0 0 1 1.18.28 4 4 0 0 1 1.11.7 5 5 0 0 1 .37.35 3 3 0 0 1 .55 1.96zm-1 .19a3.54 3.54 0 0 0-.11-.78 1.49 1.49 0 0 0-.27-.64l-.24-.27-.27-.29a1.52 1.52 0 0 0-.46-.36.51.51 0 0 1-.42.17 1 1 0 0 1-.23-.13.58.58 0 0 0-.33-.14 3.25 3.25 0 0 0-.69.08 1.4 1.4 0 0 0-.56.21 6.78 6.78 0 0 0-.73.57 7.45 7.45 0 0 0-1.44 1.67 3.66 3.66 0 0 0-.56 1.89 3.08 3.08 0 0 0 .09.75.75.75 0 0 0 .33.51 2.11 2.11 0 0 0 1.12.3 4 4 0 0 0 1.56-.44 9.52 9.52 0 0 0 1.2-.72c.13-.1.27-.2.41-.32l.43-.37a5.89 5.89 0 0 0 .8-.87 1.43 1.43 0 0 0 .38-.82zM434.72 332.77q0 .24-.33.42l-.27.46q-.12.23-.27.45l-.29.45c-.1.15-.21.31-.31.48l-.35.53c-.12.18-.24.38-.37.59s-.25.39-.36.57-.2.34-.28.49-.17.32-.26.52-.21.44-.33.71l-.31.69-.24.5a.9.9 0 0 1-.18.19c-.1.09-.17.14-.2.14-.2 0-.3-.13-.3-.4a2.51 2.51 0 0 1 .13-.56c.09-.26.19-.52.3-.79s.23-.53.36-.79.27-.51.42-.76.3-.47.45-.68l.24-.34c.09-.12.17-.25.26-.39s.19-.29.3-.47.23-.38.36-.6l.36-.58c.09-.16.17-.3.24-.4l-.41-.09-.28-.06a3.45 3.45 0 0 0-.65 0h-.5a1.39 1.39 0 0 1 .12.57 2.05 2.05 0 0 1-.33 1.07 2 2 0 0 1-.79.8l-.31.15-.25.1a1.29 1.29 0 0 1-.45.07.61.61 0 0 1-.63-.35 2.08 2.08 0 0 1-.17-.89 2.56 2.56 0 0 1 .14-.62l.13-.38c0-.11.08-.2.11-.27a3.2 3.2 0 0 1 .34-.53 2.69 2.69 0 0 1 .43-.4 1.83 1.83 0 0 1 .5-.26 1.61 1.61 0 0 1 .58-.1.85.85 0 0 1 .55.31l.73.09.95.08.86.06h.48a.32.32 0 0 1 .08.22zm-3.65 1.06a4.41 4.41 0 0 0-.18-1h-.4c-.13 0-.27.12-.42.32a3.22 3.22 0 0 0-.36.69 1.62 1.62 0 0 0-.16.6v.16c0 .15 0 .25.1.29a1 1 0 0 0 .48.14.81.81 0 0 0 .65-.44 1.54 1.54 0 0 0 .29-.76zm5 4.19a2.28 2.28 0 0 1-.08.54.77.77 0 0 1-.24.43 4.29 4.29 0 0 1-.92.64 2.09 2.09 0 0 1-1 .2.88.88 0 0 1-.83-.36 1.71 1.71 0 0 1-.21-.75 2.14 2.14 0 0 1 .23-.9 2.87 2.87 0 0 1 .57-.8.91.91 0 0 1 .61-.32 2.44 2.44 0 0 1 .65.07 2 2 0 0 1 .6.26 1.41 1.41 0 0 1 .43.41 1 1 0 0 1 .2.56zm-.73.05a.39.39 0 0 0-.12-.27.5.5 0 0 0-.27-.17h-.11l-.16-.09a.7.7 0 0 0-.28-.12.48.48 0 0 0-.26.09.94.94 0 0 0-.25.27 1.85 1.85 0 0 0-.18.4 1.72 1.72 0 0 0-.07.52.59.59 0 0 0 .13.45 1.39 1.39 0 0 1 .3 0h.25a1.06 1.06 0 0 0 .44-.19l.27-.16.13-.1a.89.89 0 0 0 .19-.63zM319.85 302.72a.88.88 0 0 1-.06.29.83.83 0 0 1-.44.36 1.45 1.45 0 0 1-.6.16h-.21a3.33 3.33 0 0 1-.83-.08 8.3 8.3 0 0 0-2-.21h-.49l-.52.06a4.11 4.11 0 0 0-.93.22 2.31 2.31 0 0 0-.89.49 2.56 2.56 0 0 1-.36.37.64.64 0 0 1-.4.1c-.3 0-.45-.13-.45-.4a1.2 1.2 0 0 1 .2-.72 3 3 0 0 1 .77-.74l.53-.33.69-.37q.29-.14.57-.3a2.39 2.39 0 0 0 .52-.38l.42-.39.45-.4a5.26 5.26 0 0 0 .74-.8 5.74 5.74 0 0 0 .5-.75 1.53 1.53 0 0 0 .19-.73.91.91 0 0 0-.22-.56 2 2 0 0 0-.57-.5 1.15 1.15 0 0 0-.59-.2 2.07 2.07 0 0 0-.94.36l-.53.35a3.68 3.68 0 0 0-.41.33l-.13.13a.86.86 0 0 0-.13.14l-.13.13a.71.71 0 0 1-.15.08.48.48 0 0 1-.18 0h-.24c-.07 0-.16-.09-.25-.26a1 1 0 0 1-.12-.39.29.29 0 0 1 .08-.22l.28-.2.37-.26.54-.37.46-.3a3.19 3.19 0 0 1 .45-.23 3.27 3.27 0 0 1 .47-.18 3.5 3.5 0 0 1 1-.11 1.6 1.6 0 0 1 1.09.46 4.23 4.23 0 0 1 .87 1.1 2.48 2.48 0 0 1 .21.47 2.22 2.22 0 0 1-.39 1.1 7.49 7.49 0 0 1-.41.63c-.16.2-.32.41-.5.61a8.64 8.64 0 0 1-1 1 8 8 0 0 1-1.54 1.09h.92c.41 0 1 0 1.84.07h1.29a1 1 0 0 0 .39-.1 1.22 1.22 0 0 1 .36-.09.33.33 0 0 1 .23.15.4.4 0 0 1 .18.32zM328.77 299.33a2.75 2.75 0 0 1-.5 1.53 5.85 5.85 0 0 1-1.31 1.43 8.64 8.64 0 0 1-1.69 1.08 6.21 6.21 0 0 1-1.61.54 11.42 11.42 0 0 1-1.34.12 1.73 1.73 0 0 1-1.44-.64 2.44 2.44 0 0 1-.51-1.58 5.07 5.07 0 0 1 .29-1.6 7.22 7.22 0 0 1 .81-1.62 5.32 5.32 0 0 1 1.11-1.22 7.77 7.77 0 0 1 1.49-.94 3.35 3.35 0 0 1 1.49-.39 2.83 2.83 0 0 1 1.19.28 4.25 4.25 0 0 1 1.11.7 2.47 2.47 0 0 1 .91 2.31zm-1 .19a3.39 3.39 0 0 0-.11-.78 1.48 1.48 0 0 0-.28-.64l-.24-.28-.26-.28a1.8 1.8 0 0 0-.47-.37.49.49 0 0 1-.42.17.6.6 0 0 1-.22-.13.56.56 0 0 0-.34-.13 3.16 3.16 0 0 0-.68.08 1.26 1.26 0 0 0-.56.21 5.92 5.92 0 0 0-.73.57 7.23 7.23 0 0 0-1.41 1.67 3.55 3.55 0 0 0-.57 1.89 2.66 2.66 0 0 0 .1.75.82.82 0 0 0 .32.51 2.13 2.13 0 0 0 1.12.3 4 4 0 0 0 1.56-.44 10.88 10.88 0 0 0 1.2-.72l.41-.32c.14-.11.29-.24.44-.38a5.75 5.75 0 0 0 .79-.86 1.48 1.48 0 0 0 .37-.82zM335.75 296.48c0 .16-.11.3-.34.42l-.26.46-.27.44-.29.46c-.11.15-.21.31-.32.48l-.34.52-.38.59-.36.58-.28.49-.26.52c-.1.21-.2.44-.33.7s-.22.5-.31.7l-.23.5a1 1 0 0 1-.19.19c-.1.09-.16.14-.19.14-.21 0-.31-.14-.31-.4a2.8 2.8 0 0 1 .14-.56c.08-.26.18-.52.29-.79s.24-.54.37-.8.27-.51.41-.75.3-.47.46-.68l.24-.35c.08-.12.17-.24.25-.38l.3-.47.37-.6.35-.58.24-.4-.4-.1-.28-.05a3.51 3.51 0 0 0-.65 0h-.5a1.48 1.48 0 0 1 .11.57 2.16 2.16 0 0 1-.32 1.07 2.11 2.11 0 0 1-.8.8 2.73 2.73 0 0 1-.31.14l-.24.11a1.33 1.33 0 0 1-.45.07.63.63 0 0 1-.64-.35 1.94 1.94 0 0 1 0-1.51 3.3 3.3 0 0 1 .13-.38 1.86 1.86 0 0 1 .11-.27 2.66 2.66 0 0 1 .34-.53 2.25 2.25 0 0 1 .42-.4 1.92 1.92 0 0 1 .51-.27 1.81 1.81 0 0 1 .58-.09.81.81 0 0 1 .54.31l.73.09.95.07.87.06h.48a.35.35 0 0 1 .06.23zm-3.65 1.06a4.6 4.6 0 0 0-.19-1h-.4c-.13 0-.27.12-.41.32a2.83 2.83 0 0 0-.37.69 1.74 1.74 0 0 0-.15.59v.08a.28.28 0 0 0 0 .09c0 .15 0 .25.11.29a1 1 0 0 0 .48.13.82.82 0 0 0 .65-.43 1.57 1.57 0 0 0 .28-.76zm5 4.19a2.28 2.28 0 0 1-.08.54.88.88 0 0 1-.23.43 4.72 4.72 0 0 1-.93.64 2.18 2.18 0 0 1-1 .2.87.87 0 0 1-.83-.36 1.74 1.74 0 0 1-.22-.76 2 2 0 0 1 .24-.89 2.68 2.68 0 0 1 .57-.81.94.94 0 0 1 .61-.32 2.87 2.87 0 0 1 .64.08 2 2 0 0 1 .6.25 1.36 1.36 0 0 1 .44.42.94.94 0 0 1 .19.58zm-.73 0a.41.41 0 0 0-.12-.28.56.56 0 0 0-.26-.16.34.34 0 0 1-.11 0l-.17-.09a.77.77 0 0 0-.27-.11.43.43 0 0 0-.26.09.82.82 0 0 0-.25.27 1.47 1.47 0 0 0-.18.4 1.72 1.72 0 0 0-.08.52.63.63 0 0 0 .13.45h.56a1.18 1.18 0 0 0 .44-.19 1.74 1.74 0 0 0 .26-.16.52.52 0 0 0 .13-.11.85.85 0 0 0 .18-.58zM299.37 332.83a.66.66 0 0 1-.22.43.94.94 0 0 1-.41.28 6.4 6.4 0 0 1-1.22.1h-1.95a4.44 4.44 0 0 0-1.35.16l-.2.21-.18.21-.18.25-.23.32a3.43 3.43 0 0 1-.2.29l-.11.16a2.31 2.31 0 0 0 .38.15 4.28 4.28 0 0 0 .56.13l.33.05.32.05H295.18a3.57 3.57 0 0 1 1.58.62 1.7 1.7 0 0 1 .53 1.4 1.32 1.32 0 0 1-.1.51 2.42 2.42 0 0 1-.27.5 3.39 3.39 0 0 1-.4.45 4.34 4.34 0 0 1-.44.34 6.13 6.13 0 0 1-1.34.66 5.08 5.08 0 0 1-1.45.2 4 4 0 0 1-1.08-.13 2.7 2.7 0 0 1-.91-.46l-.14-.09a.63.63 0 0 1-.12-.1.94.94 0 0 1-.09-.12.28.28 0 0 1 0-.13c0-.38.24-.56.71-.56a.63.63 0 0 1 .34.14l.16.11.08.06a3 3 0 0 0 1.25.29 3.57 3.57 0 0 0 1.28-.26 3.53 3.53 0 0 0 1.12-.68 2.88 2.88 0 0 0 .3-.29.61.61 0 0 0 .08-.32 1.08 1.08 0 0 0-.22-.71 1.29 1.29 0 0 0-.57-.42 3.49 3.49 0 0 0-.72-.2c-.25 0-.53-.08-.84-.1h-1.1a1.46 1.46 0 0 1-.61-.25c-.21-.14-.31-.27-.31-.41a.68.68 0 0 1 .22-.44s.19-.29.5-.74.57-.82.77-1.08.36-.41.46-.42l.33-.05H297a3.64 3.64 0 0 0 .51 0h.22l.34-.09a2.82 2.82 0 0 1 .53-.12 1 1 0 0 1 .64.22l.09.06a.15.15 0 0 1 .06 0s-.02-.2-.02-.18zM305.62 332.77c0 .16-.11.3-.34.42l-.26.46-.27.45c-.1.14-.19.3-.29.45s-.21.31-.32.48l-.34.53-.38.59-.36.57-.28.49c-.07.15-.16.32-.26.52l-.33.71c-.11.26-.22.49-.31.69l-.23.5a.79.79 0 0 1-.19.19c-.1.09-.16.14-.19.14-.21 0-.31-.13-.31-.4a2.8 2.8 0 0 1 .14-.56c.08-.26.18-.52.29-.79s.24-.53.37-.79.27-.51.41-.76.3-.47.46-.68.16-.23.24-.34.17-.25.25-.39.19-.29.3-.47l.37-.6.35-.58c.1-.16.18-.3.25-.4l-.41-.09-.28-.06a3.51 3.51 0 0 0-.65 0h-.5a1.56 1.56 0 0 1 .11.57 2.13 2.13 0 0 1-.32 1.07 2 2 0 0 1-.8.8l-.31.15-.24.1a1.33 1.33 0 0 1-.45.07.63.63 0 0 1-.64-.35 2.08 2.08 0 0 1-.16-.89 2.14 2.14 0 0 1 .14-.62c0-.15.09-.27.13-.38a1.86 1.86 0 0 1 .11-.27 2.66 2.66 0 0 1 .34-.53 2.63 2.63 0 0 1 .42-.4 1.89 1.89 0 0 1 .51-.26 1.57 1.57 0 0 1 .58-.1.85.85 0 0 1 .54.31l.73.09.95.08.87.06h.48a.37.37 0 0 1 .08.22zm-3.62 1.06a4.6 4.6 0 0 0-.19-1h-.4c-.13 0-.27.12-.41.32a3.26 3.26 0 0 0-.37.69 1.78 1.78 0 0 0-.15.6v.08a.19.19 0 0 0 0 .08c0 .15 0 .25.11.29a1 1 0 0 0 .48.14.84.84 0 0 0 .65-.44 1.54 1.54 0 0 0 .28-.76zm5 4.19a2.28 2.28 0 0 1-.08.54.83.83 0 0 1-.23.43 4.33 4.33 0 0 1-.93.64 2 2 0 0 1-1 .2.87.87 0 0 1-.83-.36 1.74 1.74 0 0 1-.22-.75 2 2 0 0 1 .24-.9 2.52 2.52 0 0 1 .57-.8.89.89 0 0 1 .61-.32 2.37 2.37 0 0 1 .64.07 1.82 1.82 0 0 1 .6.26 1.45 1.45 0 0 1 .44.41 1 1 0 0 1 .19.56zm-.73.05a.39.39 0 0 0-.12-.27.51.51 0 0 0-.26-.17h-.11l-.17-.09a.67.67 0 0 0-.27-.12.43.43 0 0 0-.26.09.82.82 0 0 0-.25.27 1.47 1.47 0 0 0-.18.4 1.72 1.72 0 0 0-.08.52.63.63 0 0 0 .13.45 1.53 1.53 0 0 1 .3 0h.26a1.18 1.18 0 0 0 .44-.19 1.74 1.74 0 0 0 .26-.16l.13-.1a.89.89 0 0 0 .15-.63zM310.59 377.5a.36.36 0 0 1-.08.28 3.38 3.38 0 0 1-.7.24l-.79.13-.81.12a3.81 3.81 0 0 0-.75.22v.35c0 .2-.26.3-.77.3a.14.14 0 0 1-.12-.06 1.34 1.34 0 0 1-.11-.14l-.11-.12a.11.11 0 0 0-.1 0 4 4 0 0 0-.64.16l-.45.12-.24.08a4.06 4.06 0 0 1-1 .23.56.56 0 0 1-.39-.13.61.61 0 0 1-.2-.4c0-.19.14-.33.43-.42a6.34 6.34 0 0 1 1-.25l.76-.15a4.23 4.23 0 0 0 .71-.23v-.66c0-.2 0-.38.06-.55s0-.36.06-.59.06-.48.1-.76c.07-.57.14-1 .19-1.42 0-.19.06-.37.08-.55l.06-.5a2 2 0 0 0-.94.41l-.36.23-.28.15a5.34 5.34 0 0 1-.66.23 2.35 2.35 0 0 1-.58.09.23.23 0 0 1-.21-.09.68.68 0 0 1-.05-.27.38.38 0 0 1 .17-.37 6.47 6.47 0 0 1 .61-.28l.32-.14.17-.07.47-.24.43-.24.5-.3.69-.41a2.1 2.1 0 0 1 .56-.27c.13 0 .23.08.32.25a1 1 0 0 1 .14.45.52.52 0 0 1-.17.34c-.09.4-.18.8-.26 1.21s-.16.83-.24 1.26a13.55 13.55 0 0 0-.21 2.07v.53a.91.91 0 0 0 0 .17.59.59 0 0 0 0 .14 7.64 7.64 0 0 0 1.28-.25c.26-.08.47-.13.65-.17l.41-.09h.79a1 1 0 0 1 .26.36zM320.53 371.89a.66.66 0 0 1-.22.43 1 1 0 0 1-.41.28 6.54 6.54 0 0 1-1.22.09h-1.96a4.41 4.41 0 0 0-1.34.16l-.2.21-.18.21-.18.25-.23.32-.2.29-.11.16a2.31 2.31 0 0 0 .38.15 4.28 4.28 0 0 0 .56.13l.33.05.32.05H316.34a3.57 3.57 0 0 1 1.58.62 1.7 1.7 0 0 1 .53 1.4 1.32 1.32 0 0 1-.1.51 2.06 2.06 0 0 1-.28.5 2.32 2.32 0 0 1-.39.44 3.37 3.37 0 0 1-.44.35 6.13 6.13 0 0 1-1.34.66 5.13 5.13 0 0 1-1.45.2 4 4 0 0 1-1.08-.13 2.89 2.89 0 0 1-.91-.46l-.14-.09a.63.63 0 0 1-.12-.1.94.94 0 0 1-.09-.12.28.28 0 0 1 0-.13c0-.38.24-.56.71-.56a.56.56 0 0 1 .34.14l.15.11.09.06a3 3 0 0 0 1.25.29 3.38 3.38 0 0 0 1.28-.27 3.34 3.34 0 0 0 1.12-.67 1.9 1.9 0 0 0 .29-.29.53.53 0 0 0 .09-.32 1.13 1.13 0 0 0-.22-.71 1.29 1.29 0 0 0-.57-.42 4.27 4.27 0 0 0-.72-.21q-.37-.06-.84-.09h-1.1a1.46 1.46 0 0 1-.61-.25c-.21-.14-.31-.27-.31-.41a.75.75 0 0 1 .21-.45s.2-.28.51-.73.57-.82.77-1.08.36-.41.46-.42l.33-.05H318.16a3.77 3.77 0 0 0 .51 0h.21l.35-.09a2.82 2.82 0 0 1 .53-.12.93.93 0 0 1 .63.22l.1.06h.06a.05.05 0 0 1 0 .05s-.02-.24-.02-.22zM326.78 371.83c0 .16-.11.3-.34.42l-.26.46-.27.45c-.1.14-.19.29-.3.45l-.31.48-.34.53-.38.59-.36.57-.28.49c-.07.15-.16.32-.26.52s-.21.44-.33.71-.22.49-.31.69l-.23.5a1.06 1.06 0 0 1-.19.19c-.1.09-.16.14-.19.14-.21 0-.31-.13-.31-.4a2.8 2.8 0 0 1 .14-.56c.08-.26.18-.52.29-.79s.24-.54.37-.79.27-.51.41-.76.3-.47.46-.68.15-.23.24-.35a4.18 4.18 0 0 0 .25-.38c.09-.13.19-.29.3-.47l.37-.6c.13-.23.25-.42.35-.58l.24-.4-.4-.09-.29-.06a3.32 3.32 0 0 0-.64 0h-.51a1.39 1.39 0 0 1 .12.57 2.05 2.05 0 0 1-.33 1.07 2 2 0 0 1-.79.8l-.31.15-.25.1a1.25 1.25 0 0 1-.45.07.62.62 0 0 1-.63-.35 2.08 2.08 0 0 1-.17-.89 2.27 2.27 0 0 1 .11-.63c0-.15.09-.27.13-.38s.07-.2.1-.27a3.24 3.24 0 0 1 .35-.53 2.63 2.63 0 0 1 .42-.4 1.64 1.64 0 0 1 .51-.26 1.57 1.57 0 0 1 .58-.1.85.85 0 0 1 .54.31l.73.09 1 .08.87.06h.47a.33.33 0 0 1 .08.23zm-3.65 1.06a4.6 4.6 0 0 0-.19-1h-.4c-.13 0-.27.12-.41.32a3.26 3.26 0 0 0-.37.69 1.78 1.78 0 0 0-.15.6.22.22 0 0 1 0 .08v.08c0 .15 0 .25.11.29a1 1 0 0 0 .48.13.79.79 0 0 0 .64-.43 1.48 1.48 0 0 0 .29-.76zm5 4.19a2.28 2.28 0 0 1-.08.54.83.83 0 0 1-.23.43 4.33 4.33 0 0 1-.93.64 2.18 2.18 0 0 1-1 .2.86.86 0 0 1-.83-.36 1.61 1.61 0 0 1-.22-.75 2 2 0 0 1 .24-.9 2.52 2.52 0 0 1 .57-.8.89.89 0 0 1 .61-.32 2.37 2.37 0 0 1 .64.07 2 2 0 0 1 .6.25 1.6 1.6 0 0 1 .44.42 1 1 0 0 1 .19.58zm-.73.05a.39.39 0 0 0-.12-.27.51.51 0 0 0-.26-.17h-.11l-.17-.09a.67.67 0 0 0-.27-.12.48.48 0 0 0-.27.09.8.8 0 0 0-.24.27 1.86 1.86 0 0 0-.19.4 2.11 2.11 0 0 0-.07.52.59.59 0 0 0 .13.45 1.53 1.53 0 0 1 .3 0h.26a1.18 1.18 0 0 0 .44-.19l.26-.16.13-.1a.89.89 0 0 0 .18-.63zM359.6 410.85a.68.68 0 0 1-.07.29.8.8 0 0 1-.44.36 1.42 1.42 0 0 1-.59.16h-.22a3.24 3.24 0 0 1-.82-.08 8.38 8.38 0 0 0-2-.21h-.49l-.51.06a4 4 0 0 0-.93.22 2.43 2.43 0 0 0-.9.49 2.62 2.62 0 0 1-.35.37.66.66 0 0 1-.4.1c-.3 0-.46-.13-.46-.4a1.14 1.14 0 0 1 .21-.72 3 3 0 0 1 .77-.74c.15-.1.33-.21.53-.32l.68-.38q.29-.13.57-.3a2.39 2.39 0 0 0 .52-.38l.43-.39c.15-.13.29-.27.45-.4a6.54 6.54 0 0 0 .74-.8 4.57 4.57 0 0 0 .49-.75 1.54 1.54 0 0 0 .2-.73.92.92 0 0 0-.23-.56 2.07 2.07 0 0 0-.56-.5 1.18 1.18 0 0 0-.6-.2 2 2 0 0 0-.93.37l-.54.34a4.91 4.91 0 0 0-.41.33l-.13.13-.13.14a1.59 1.59 0 0 1-.13.13.39.39 0 0 1-.14.08l-.18.05h-.25c-.07 0-.15-.09-.24-.26a1 1 0 0 1-.12-.39.26.26 0 0 1 .08-.22l.28-.2.37-.26.53-.37.47-.3a2.64 2.64 0 0 1 .44-.23 3.8 3.8 0 0 1 .47-.18 3.54 3.54 0 0 1 1-.11 1.62 1.62 0 0 1 1.1.46 4.41 4.41 0 0 1 .86 1.1 2.83 2.83 0 0 1 .21.47 2.29 2.29 0 0 1-.38 1.1q-.19.31-.42.63c-.15.2-.32.41-.5.61a8.64 8.64 0 0 1-1 1 7.74 7.74 0 0 1-1.54 1.09h.92c.42 0 1 0 1.84.07h1.29a1.1 1.1 0 0 0 .4-.1 1.15 1.15 0 0 1 .36-.09.37.37 0 0 1 .23.15.4.4 0 0 1 .17.27zM368.52 407.46A2.8 2.8 0 0 1 368 409a6.16 6.16 0 0 1-1.3 1.42 9 9 0 0 1-1.7 1.08 5.8 5.8 0 0 1-1.62.54 11.25 11.25 0 0 1-1.34.12 1.75 1.75 0 0 1-1.44-.63 2.48 2.48 0 0 1-.51-1.59 4.83 4.83 0 0 1 .3-1.6 6.47 6.47 0 0 1 .81-1.62 5.09 5.09 0 0 1 1.11-1.22 7.41 7.41 0 0 1 1.48-.94 3.38 3.38 0 0 1 1.5-.39 2.78 2.78 0 0 1 1.18.28 4.25 4.25 0 0 1 1.11.7l.37.35a3.11 3.11 0 0 1 .57 1.96zm-1 .19a3.47 3.47 0 0 0-.11-.78 1.37 1.37 0 0 0-.28-.64l-.23-.27-.27-.29a1.79 1.79 0 0 0-.46-.37.49.49 0 0 1-.42.17.69.69 0 0 1-.23-.12.58.58 0 0 0-.34-.14 3.23 3.23 0 0 0-.68.08 1.26 1.26 0 0 0-.56.21 6.78 6.78 0 0 0-.73.57 7.23 7.23 0 0 0-1.41 1.67 3.57 3.57 0 0 0-.56 1.89 3.08 3.08 0 0 0 .09.75.77.77 0 0 0 .33.51 2.11 2.11 0 0 0 1.12.3 4 4 0 0 0 1.56-.44 9.52 9.52 0 0 0 1.2-.72l.41-.32c.14-.11.28-.24.43-.38a5.83 5.83 0 0 0 .8-.86 1.45 1.45 0 0 0 .35-.82zM375.49 404.61q0 .24-.33.42l-.27.46c-.08.15-.18.3-.27.45l-.29.45-.32.48-.34.53-.37.58c-.14.21-.26.4-.36.58s-.2.34-.28.49-.17.32-.26.52-.21.44-.33.71l-.31.69c-.1.19-.17.36-.24.5a.9.9 0 0 1-.18.19c-.1.09-.17.14-.2.14-.2 0-.3-.14-.3-.4a2.51 2.51 0 0 1 .13-.56c.09-.26.19-.52.3-.79s.23-.54.36-.79.27-.51.42-.76.3-.47.45-.68l.24-.35a4.17 4.17 0 0 0 .26-.38c.09-.13.19-.29.3-.47s.23-.38.36-.6.26-.42.35-.58.18-.3.25-.4l-.41-.1-.28-.05a3.45 3.45 0 0 0-.65 0h-.5a1.39 1.39 0 0 1 .12.57 2.34 2.34 0 0 1-1.13 1.87l-.3.14a2.41 2.41 0 0 1-.25.11 1.33 1.33 0 0 1-.45.07.63.63 0 0 1-.64-.35 2.08 2.08 0 0 1-.16-.89 2.46 2.46 0 0 1 .14-.62c.05-.15.09-.28.13-.38s.08-.2.11-.27a3.2 3.2 0 0 1 .34-.53 2.32 2.32 0 0 1 .43-.4 1.86 1.86 0 0 1 .5-.27 1.81 1.81 0 0 1 .58-.09.79.79 0 0 1 .54.31l.74.09.95.07.86.07h.48a.37.37 0 0 1 .08.22zm-3.65 1.06a4 4 0 0 0-.19-1h-.39c-.14 0-.27.12-.42.32a3.26 3.26 0 0 0-.37.69 1.79 1.79 0 0 0-.15.59v.17c0 .15 0 .25.1.29a1 1 0 0 0 .48.13.81.81 0 0 0 .65-.43 1.54 1.54 0 0 0 .29-.76zm5 4.19a1.9 1.9 0 0 1-.09.54.8.8 0 0 1-.23.43 4.55 4.55 0 0 1-.92.64 2.22 2.22 0 0 1-1 .2.88.88 0 0 1-.83-.36 1.71 1.71 0 0 1-.21-.75 2.14 2.14 0 0 1 .23-.9 2.87 2.87 0 0 1 .57-.8.91.91 0 0 1 .61-.33 3 3 0 0 1 .65.08 2.3 2.3 0 0 1 .6.25 1.44 1.44 0 0 1 .43.42 1 1 0 0 1 .2.58zm-.73.05a.39.39 0 0 0-.12-.27.5.5 0 0 0-.27-.17h-.11l-.16-.1a.87.87 0 0 0-.28-.11.48.48 0 0 0-.26.09.94.94 0 0 0-.25.27 1.85 1.85 0 0 0-.18.4 1.72 1.72 0 0 0-.07.52.59.59 0 0 0 .13.45 1.39 1.39 0 0 1 .3 0h.25a1.06 1.06 0 0 0 .44-.19 1.74 1.74 0 0 0 .26-.16.38.38 0 0 0 .13-.11.8.8 0 0 0 .2-.62z" class="cls-6" transform="translate(-190.77 -260.35)"/>
    <path d="M192.31 261a20.45 20.45 0 0 0 4.24-.37l.21.55a1.35 1.35 0 0 0-.41.29c-.88.73-2.14 1.64-3.17 2.35a29.79 29.79 0 0 1 5.28-.6v.62h-.39a5.32 5.32 0 0 0-1.32.13c-.75.21-2.55 1.27-2.55 2.46a.79.79 0 0 0 .45.78 6.57 6.57 0 0 0 2.15.43l-.19.6c-2.1-.16-3.06-.65-3.06-1.76s1.21-2.06 2.06-2.51a30.76 30.76 0 0 0-4.38.83l-.12-.59a3.42 3.42 0 0 0 1.14-.39 27.33 27.33 0 0 0 3.28-2.47c-.53.09-1.62.18-2.11.2l-.82.05a.38.38 0 0 1-.23.1zM204 261.9a.22.22 0 0 1-.22.14c-.31 2.7-1.21 5-2.65 5-.73 0-1.38-.72-1.38-2.09a3.81 3.81 0 0 1 3.9-3.83c2.5 0 3.58 1.59 3.58 3.28 0 2.06-1.19 3.06-3.29 3.55a3.11 3.11 0 0 0-.36-.53c2-.38 3-1.35 3-3a2.66 2.66 0 0 0-2.94-2.73h-.26zm-.83-.11a3.19 3.19 0 0 0-2.83 3.18c0 .93.39 1.51.81 1.51 1.08 0 1.85-2.32 2.05-4.69zM209.25 263.41a10.69 10.69 0 0 1-1 1.42 5.09 5.09 0 0 0-.31-.55 11.76 11.76 0 0 0 2.07-3.9l.68.22a.17.17 0 0 1-.19.09 15.15 15.15 0 0 1-.73 1.71l.2.07s-.06.09-.17.11v5.8h-.57zm2.56 3.61c0 .51.12.63.77.63H215c.59 0 .68-.28.77-1.39a1.81 1.81 0 0 0 .53.24c-.11 1.27-.31 1.69-1.29 1.69h-2.4c-1 0-1.34-.24-1.34-1.18v-2.93l-1 .34-.18-.52 1.15-.39v-2.41l.74.06c0 .06-.06.09-.17.11v2l1.44-.49v-2.38l.73.05c0 .06-.06.09-.17.11v2l1.58-.54.12-.1.47.18s0 .06-.09.09c0 1.57 0 2.87-.1 3.21-.1.6-.45.68-1.46.65a1.65 1.65 0 0 0-.14-.55h.75c.11 0 .25 0 .3-.26a20.72 20.72 0 0 0 .09-2.66l-1.52.53v3.17h-.56v-3l-1.44.51zM217.55 263.05a13.94 13.94 0 0 1 2.34.78l-.27.55a12.68 12.68 0 0 0-2.33-.8zm.52 4.24a9 9 0 0 0 5.9-5c.13.11.4.29.53.38a9.55 9.55 0 0 1-5.84 5.12.2.2 0 0 1-.1.22zm.44-6.39a14.48 14.48 0 0 1 2.32.85l-.29.53a13 13 0 0 0-2.29-.87zM231.89 261.46a.24.24 0 0 1-.12.1 13.57 13.57 0 0 1-1.73 3 32.55 32.55 0 0 1 3.17 2.93l-.53.46a28.72 28.72 0 0 0-3-2.91 13.51 13.51 0 0 1-3.34 2.91 2.77 2.77 0 0 0-.45-.46 12.45 12.45 0 0 0 5.08-5.66h-4.25v-.59h4.59l.11-.05zM241.71 264h-2.93.15a.2.2 0 0 1-.18.1 4.7 4.7 0 0 1-2.67 4 5 5 0 0 0-.47-.43 4.12 4.12 0 0 0 2.5-3.68h-3.37v-.58h7zm-.86-2.44h-5.32V261h5.32zM250.1 267.89c-.13-.29-.29-.61-.46-.92-1.81.19-4.77.37-6.1.44a.23.23 0 0 1-.16.18l-.24-.78h.91c.58-1.66 1.4-4.25 1.88-6l.84.23a.25.25 0 0 1-.25.12c-.48 1.6-1.23 3.92-1.82 5.62 1.43-.06 3.49-.21 4.63-.32a15.1 15.1 0 0 0-1.54-2.11l.52-.29a17 17 0 0 1 2.39 3.58zM255.14 263.64h-2.6v4.74H252v-7.67h3.18zm-.56-2.48h-2v.77h2zm-2 2h2v-.82h-2zm5.39 3h-1.27v2h-.52v-2h-1.33a2.88 2.88 0 0 1-1.2 2.08 1.69 1.69 0 0 0-.39-.36 2.26 2.26 0 0 0 1.07-1.72h-1.14v-.49h1.16v-1h-1v-.49h4.37v.49h-1v1h1.23zm-3.06-.49h1.31v-1h-1.31zm4.33-5v6.88c0 .74-.33.78-1.69.78a2.2 2.2 0 0 0-.19-.6h.8c.46 0 .51 0 .51-.2v-3.95H256v-2.93zm-.57.45h-2.12v.77h2.12zm-2.12 2h2.12v-.82h-2.12zM267.13 260.79s-.1.06-.18 0a13.55 13.55 0 0 1-1.24 1 7.15 7.15 0 0 0 .61.73 12.94 12.94 0 0 0 1.32-1.18l.53.39a.24.24 0 0 1-.19 0 14.18 14.18 0 0 1-1.32 1.07 5.55 5.55 0 0 0 1.7 1.05 2.44 2.44 0 0 0-.4.5 6.22 6.22 0 0 1-1.28-.77v.42h-1.09v1.37h2.13v.63h-2.13v1.5c0 .28.05.32.37.32H267c.29 0 .33-.17.37-1.14a1.78 1.78 0 0 0 .52.25c-.06 1.11-.21 1.43-.84 1.43h-1.19c-.71 0-.89-.19-.89-.86V266h-1.68c-.14 1-.67 1.85-2.41 2.47a1.63 1.63 0 0 0-.37-.46c1.53-.52 2-1.25 2.18-2h-2v-.55h2.07V264h-1v-.28a7.12 7.12 0 0 1-1.3.8 2.6 2.6 0 0 0-.37-.45 6 6 0 0 0 1.8-1.2 8.9 8.9 0 0 0-1.1-1l.37-.32a9.34 9.34 0 0 1 1.1.91 5.84 5.84 0 0 0 .88-1.3h-2.24v-.52H263.62a4.31 4.31 0 0 0 .4.21s0 .08-.09.09a6.33 6.33 0 0 1-1.79 2.5h4.27a7.59 7.59 0 0 1-2-3l.51-.16a7.58 7.58 0 0 0 .57 1.14 11.06 11.06 0 0 0 1.15-1.09zM265 265.4V264h-1.63v1.37zM195.21 295.37l-1.92.28v1.41c0 .58-.24.65-1.51.63a2.3 2.3 0 0 0-.18-.5h.61c.51 0 .52 0 .52-.13v-1.33c-.6.1-1.16.17-1.59.23a.15.15 0 0 1-.11.13l-.22-.65c.51-.06 1.19-.13 1.92-.23v-.84h.32a6.14 6.14 0 0 0 .75-.69h-1.14a9 9 0 0 1-1.49 1.15 2.63 2.63 0 0 0-.4-.42 6.8 6.8 0 0 0 1-.73h-.24v-.47h.78c.22-.21.43-.44.63-.67h-2.16V292h1.57v-.94h-1.17v-.51h1.17v-1l.72.05c0 .05-.07.1-.18.11v.8h1.15v.49a11.19 11.19 0 0 0 .6-1.2l.68.23c0 .07-.12.09-.21.08a11.61 11.61 0 0 1-1.01 1.89h1v.52h-1.4c-.18.23-.37.45-.57.67h1.22l.41.27a.24.24 0 0 1-.12.07 7.55 7.55 0 0 1-1.35 1.2v.41l1.91-.25zm-2.27-3.37h.48c.22-.3.43-.62.63-.94h-1.11zm5.95-.22h-.58a10.14 10.14 0 0 1-1.1 3.58 4.38 4.38 0 0 0 1.75 1.79 2.59 2.59 0 0 0-.42.51 4.92 4.92 0 0 1-1.68-1.74 5.47 5.47 0 0 1-2.12 1.74 2.23 2.23 0 0 0-.32-.5 4.91 4.91 0 0 0 2.14-1.82 11.12 11.12 0 0 1-.83-2.52 5.43 5.43 0 0 1-.56 1.05 2.27 2.27 0 0 0-.44-.37 10.55 10.55 0 0 0 1.31-3.9l.73.15c0 .07-.08.11-.19.11-.08.46-.19.92-.31 1.38h2.62zm-2.78 0v.09a11.88 11.88 0 0 0 .8 2.85 10.34 10.34 0 0 0 .83-2.94zM207.43 290.53v.53h-4.62.08a.22.22 0 0 1-.19.07 13.71 13.71 0 0 1-.85 1.09l3.82-.08c-.36-.28-.74-.56-1.09-.78l.46-.3a13.66 13.66 0 0 1 2.26 1.76l-.49.36a4.06 4.06 0 0 0-.59-.57c-2.14.07-4.4.15-5.83.18a.17.17 0 0 1-.13.13l-.24-.68h1.17a12.94 12.94 0 0 0 .85-1.2h-2.38v-.53h3.56v-.9l.76.05c0 .06 0 .1-.17.11v.74zm-1.29 2.88V297c0 .33-.09.48-.35.56a6 6 0 0 1-1.41.08 2.3 2.3 0 0 0-.2-.49h1.19c.14 0 .18 0 .18-.17v-.8h-4v1.46H201v-4.28zm-.59.49h-4v.72h4zm-4 1.88h4v-.72h-4zM211.78 292.85h-2.6v4.85h-.58V290h3.18zm-.56-2.38h-2v.74h2zm-2 1.93h2v-.78h-2zm6.66-2.38V297c0 .69-.32.73-1.45.73a2 2 0 0 0-.16-.55.6.6 0 0 0-.06.11 3.1 3.1 0 0 1-1.94-1.44 3 3 0 0 1-2.07 1.46 1.73 1.73 0 0 0-.34-.39c1.3-.35 1.77-.88 2-1.36h-1.88v-.46h2v-.73H210v-.45h1a3.37 3.37 0 0 0-.42-.76l.46-.14a2.88 2.88 0 0 1 .5.89h1.16a7.57 7.57 0 0 0 .48-.94l.61.24c0 .05-.09.07-.17.06-.11.18-.26.43-.41.64h1.11v.45h-2v.73h2.12v.46h-1.84a2.67 2.67 0 0 0 1.9 1.29 1.37 1.37 0 0 0-.26.31h.61c.38 0 .42 0 .42-.17v-4.1h-2.68V290zm-.57.45h-2.12v.74h2.12zm-2.12 1.94h2.12v-.79h-2.12zM218.6 293.11V296c.68 1 1.94 1 3.57 1 1 0 2.07 0 2.74-.06a2 2 0 0 0-.18.57h-2.41c-1.91 0-3.1 0-4-1.07-.4.39-.81.77-1.14 1.07a.12.12 0 0 1-.07.13l-.34-.61c.37-.28.82-.66 1.23-1v-2.36h-1.15v-.55zm-1.16-3.26a6.49 6.49 0 0 1 1.43 1.45l-.48.37a5.84 5.84 0 0 0-1.4-1.49zm4.1 6.79v-1H219v-.51h2.56v-.66h-2v-2.83h2V291h-2.43v-.49h2.43v-.86h.74c0 .06-.06.1-.18.12v.7h2.53v.53h-2.55v.65h2.06v2.83h-2.06v.66h2.67v.51h-2.67v1zm-1.43-4.54v.73h1.43v-.73zm0 1.91h1.43v-.75h-1.43zm3.48-1.91h-1.49v.73h1.49zm0 1.91v-.75h-1.49v.74zM198.81 327v.56h-6.91v.44h-.58v-7.56h7.3v.56h-6.72v6zm-.36-3.25v.52h-2.68a3.36 3.36 0 0 0 2.66 1.78 1.77 1.77 0 0 0-.36.5 3.82 3.82 0 0 1-2.64-1.8c-.3.7-1 1.36-2.64 1.86a1.83 1.83 0 0 0-.35-.44c1.8-.51 2.38-1.22 2.56-1.9h-2.58v-.52h2.65v-1.22h-1.4a5.22 5.22 0 0 1-.71.91 2.89 2.89 0 0 0-.45-.29 4.7 4.7 0 0 0 1.18-2l.66.19c0 .05-.06.08-.17.08-.07.18-.15.37-.23.55h4v.52h-2.3v1.22zM207.59 321.32h-6.25v2.32a6.71 6.71 0 0 1-1.24 4.36 3.08 3.08 0 0 0-.42-.39 4.81 4.81 0 0 0 1.06-2.77l-1 .57a.16.16 0 0 1-.09.15l-.25-.59c.35-.17.83-.42 1.34-.69v-3.5h2.88V320l.78.06c0 .06-.06.1-.18.12v.67h3.32zm-7.56.24a6.12 6.12 0 0 1 .59 1.69l-.48.21a6.64 6.64 0 0 0-.56-1.73zm5.48 1.06a4.68 4.68 0 0 0 .67.75 7.63 7.63 0 0 0 .7-.66l.46.33a.17.17 0 0 1-.16 0c-.18.15-.44.38-.68.55a4.75 4.75 0 0 0 1.14.63 2.05 2.05 0 0 0-.36.42 4.77 4.77 0 0 1-.79-.44v1.81h-1.72v1.38c0 .57-.27.59-1.46.59a1.78 1.78 0 0 0-.19-.48h.52c.57 0 .57 0 .57-.13V326h-1.68v-1.8a5.22 5.22 0 0 1-.77.46 1.67 1.67 0 0 0-.36-.39 5.5 5.5 0 0 0 1.11-.69 5.14 5.14 0 0 0-.72-.59l.33-.28a8.09 8.09 0 0 1 .74.57 4.43 4.43 0 0 0 .61-.71h-1.74v-.47h2a4.68 4.68 0 0 0 .32-.79l.69.08c0 .07-.06.11-.18.11a3.82 3.82 0 0 1-.25.6h3.1v.47zm-2.1 3.86a.16.16 0 0 1-.18.07 5.42 5.42 0 0 1-1.4 1.3 4.62 4.62 0 0 0-.41-.34 4.24 4.24 0 0 0 1.35-1.25zm2.55-1.82v-.58H203v.58zm0 1v-.6H203v.6zm-1.87-3a5.2 5.2 0 0 1-.86 1.06h2.59a4.76 4.76 0 0 1-.86-1.06zm2.84 5.27a8.18 8.18 0 0 0-1.38-1.39l.43-.24a9.6 9.6 0 0 1 1.4 1.36zM210.6 327.67h-.6l2.75-7.1h.59zM218.64 321.58l.38.23a.21.21 0 0 1-.12.08 8.55 8.55 0 0 1-1.11 2l1.25 1-.33.52c-.2-.23-.65-.65-1-1V328h-.57v-3.32a8.27 8.27 0 0 1-1 .95 2.1 2.1 0 0 0-.31-.51 7.91 7.91 0 0 0 2.46-3h-2.32v-.54h1.22V320l.73.05c0 .06-.05.1-.16.12v1.48h.83zm.29-1.31h4.91v.51h-4.91zm.19 7.74v-3.84h4.46V328H223v-.38h-3.32v.38zm.51-6.6h3.45v2.12h-3.45zm1.42 3.27h-1.37v.95h1.37zm-1.37 2.42h1.37v-1h-1.37zm2.86-4v-1.17h-2.38v1.17zm.46 2.57v-.95h-1.41v.95zm-1.41 1.47H223v-1h-1.41zM227.89 321.81a.17.17 0 0 1-.11.09 9.51 9.51 0 0 1-1.18 2.1c.4.27 1.17.85 1.37 1l-.33.49c-.23-.24-.74-.68-1.14-1V328h-.57v-3.26a8.49 8.49 0 0 1-1.17 1 2.65 2.65 0 0 0-.31-.52 8.18 8.18 0 0 0 2.63-3.12h-2.48v-.54h1.33V320l.74.05c0 .06-.06.1-.17.12v1.49h1zm2.74 5.42h2v.57h-5.24v-.57h.9V322h.75c0 .07-.05.11-.17.13v5.07h1.23V320h.76c0 .06-.06.11-.18.12v2.92h1.66v.55h-1.66zM491.82 433.32h3.38v1.85h-.6v-1.3h-6.15v1.3h-.58v-1.85h3.34v-1.07l.78.05c0 .06-.05.11-.17.12zm-2.12 3.53v.82h4.74v2.59h-.58V440h-4.16v.35h-.59v-5.67h4.63v2.21zm3.46-1.69h-3.46v1.17h3.46zm.7 3h-4.16v1.23h4.16zM499.4 432.78a.2.2 0 0 1-.2.09 10.6 10.6 0 0 1-2.41 3.46 2.76 2.76 0 0 0-.51-.39 9.19 9.19 0 0 0 2.36-3.42zm.92 2.88a.22.22 0 0 1-.22.11 33.72 33.72 0 0 1-1.63 3.47l4.07-.14c-.42-.59-.9-1.22-1.34-1.74l.55-.25a20.68 20.68 0 0 1 2.16 2.92l-.58.33a8.7 8.7 0 0 0-.45-.75c-2.17.13-4.49.22-5.93.29a.16.16 0 0 1-.13.12l-.25-.73h1.24a25.9 25.9 0 0 0 1.7-3.81zm1.38-3.14a13.16 13.16 0 0 0 2.53 3.32 2.84 2.84 0 0 0-.49.49 18.91 18.91 0 0 1-2.61-3.58zM509.42 433.36h3.41v.56h-6.73v1.84a9.69 9.69 0 0 1-.85 4.53 2.14 2.14 0 0 0-.5-.32 8.89 8.89 0 0 0 .77-4.22v-2.39h3.3v-1.1l.78.05c0 .06-.06.11-.18.12zm-2.78 2.55v-.56h6.13v.56h-2.65v3.66c0 .39-.08.57-.39.66a7.26 7.26 0 0 1-1.65.09 2.68 2.68 0 0 0-.22-.57h.91c.77 0 .77 0 .77-.2v-3.66zM518.44 436.28a.89.89 0 1 1-.89-.89.89.89 0 0 1 .89.89zM526.67 432.4a.23.23 0 0 1-.19.09c-.09.28-.24.65-.38 1h3.15v6.82h-.61v-.46h-4.72v.51h-.59v-6.87h2.15a7.15 7.15 0 0 0 .39-1.22zm2 1.64h-4.72v1.38h4.72zm0 1.93h-4.72v1.37h4.72zm-4.72 3.29h4.72v-1.38h-4.72zM531.17 434.7a6.79 6.79 0 0 1 1.73.83l-.33.5a7.06 7.06 0 0 0-1.72-.88zm0 5.09a24.93 24.93 0 0 0 1.63-2.79c.35.3.39.35.44.38a30.34 30.34 0 0 1-1.52 2.7.17.17 0 0 1 0 .11.14.14 0 0 1 0 .1zm.51-7.47a6.86 6.86 0 0 1 1.69.93l-.35.49a6.61 6.61 0 0 0-1.66-1zm4.37.15a.22.22 0 0 1-.21.09 24.79 24.79 0 0 1-1.21 2.79l3.09-.11a17.25 17.25 0 0 0-1.09-1.37l.5-.26a12.45 12.45 0 0 1 1.87 2.52l-.52.3c-.11-.2-.25-.43-.4-.69-1.7.1-3.5.18-4.61.22a.14.14 0 0 1-.13.11l-.22-.68h.88a19.69 19.69 0 0 0 1.27-3.11zm-2.12 7.86v-3.53h4.26v3.49h-.58v-.36h-3.11v.4zm3.68-3h-3.11v2h3.11zM542.21 432.55c0 .06-.09.09-.2.08a15.11 15.11 0 0 1-.79 1.8l.23.06c0 .05-.06.09-.17.1v5.75h-.57v-5a11.29 11.29 0 0 1-1.05 1.45 3.82 3.82 0 0 0-.31-.55 11.51 11.51 0 0 0 2.17-3.9zm5.33 2.25h-2.27a8.31 8.31 0 0 0 2.43 3.6 2.14 2.14 0 0 0-.44.46 9.49 9.49 0 0 1-2.4-3.81v3h1.41v.54h-1.41v1.72h-.56v-1.72h-1.43v-.54h1.43v-3a9.55 9.55 0 0 1-2.43 3.79 2.51 2.51 0 0 0-.42-.44 8.83 8.83 0 0 0 2.46-3.64h-2.14v-.56h2.53v-1.89h.74c0 .06 0 .1-.18.11v1.73h2.68zM492.05 411a3.76 3.76 0 0 0 .83 1.07 12.91 12.91 0 0 0 1.67-1l.52.38a.2.2 0 0 1-.19 0 17.49 17.49 0 0 1-1.63.85 5.65 5.65 0 0 0 2.32.92 2.08 2.08 0 0 0-.34.48 4.91 4.91 0 0 1-3.71-2.73 7.76 7.76 0 0 1-1.28.78h.13c0 .05-.06.1-.17.11v1l2.15-.24v.45c-1.2.17-2.47.32-3.27.42a.15.15 0 0 1-.11.13l-.26-.6.92-.1v-1a12.26 12.26 0 0 1-1.82.57 1.75 1.75 0 0 0-.33-.44 10.47 10.47 0 0 0 3.3-1.21h-3.17v-.48h3.6v-.65l.76.05c0 .06-.06.1-.17.12v.48h3.64v.64zm-2.47-2.73v-.49h-2v-.44h2v-.59h-1.06c-.12.21-.23.4-.34.56a3 3 0 0 0-.4-.21 4.66 4.66 0 0 0 .65-1.38l.58.19c0 .06-.09.07-.16.07s-.09.23-.14.35h.87v-.64h.68c0 .06-.05.11-.17.12v.48h1.6v.42h-1.6v.59H492v.44h-1.94v.49h1.65v1.09c0 .49-.27.5-1 .5a1.76 1.76 0 0 0-.16-.4h.45c.2 0 .22 0 .22-.1v-.68h-1.13v1.46h-.51v-1.46h-1.06v1.22H488v-1.56zm3.62-2.13c0 .05-.06.1-.17.11v2.94h-.53v-3.1zm2.06-.32c0 .06-.05.1-.16.12v3.49c0 .59-.17.64-1.57.64a2.47 2.47 0 0 0-.19-.49h.75c.42 0 .47 0 .47-.17v-3.65zM498.08 409.19V412c.68 1 1.92 1 3.48 1 .93 0 2 0 2.71-.07a2.27 2.27 0 0 0-.19.59h-2.41c-1.79 0-3 0-3.85-1.07-.42.38-.88.77-1.26 1.06 0 .08 0 .12-.07.14l-.34-.64a14.56 14.56 0 0 0 1.37-1.06v-2.3h-1.28v-.56zm-1.29-3.25a6.63 6.63 0 0 1 1.55 1.37l-.46.39a6.15 6.15 0 0 0-1.52-1.41zm7.34 2.73v.51h-5.64v-.51h2.56v-1.26h-1.26a5.26 5.26 0 0 1-.59 1 3.8 3.8 0 0 0-.49-.26 6.66 6.66 0 0 0 1-2.34l.69.19q0 .09-.18.09c-.07.25-.16.51-.25.77h1v-1.16h.76c0 .06-.06.1-.17.12v1h2.11v.52h-2.11v1.26zm-.73 3.84h-.57v-.3h-2.91v.32h-.56v-2.7h4zm-3.48-.82h2.91v-1.38h-2.91zM509.77 409.75a.9.9 0 1 1-.89-.89.89.89 0 0 1 .89.89zM513.82 408.17a6.81 6.81 0 0 1 1.62.89l-.33.49a7.86 7.86 0 0 0-1.6-.94zm-.06 5.11a30 30 0 0 0 1.57-2.86l.44.36a26.54 26.54 0 0 1-1.43 2.7.2.2 0 0 1 0 .13.14.14 0 0 1 0 .09zm.53-7.47a6.54 6.54 0 0 1 1.58.95l-.34.48a6.35 6.35 0 0 0-1.57-1zm3 5a3.3 3.3 0 0 1-1.32 3 2 2 0 0 0-.43-.39 2.81 2.81 0 0 0 1.21-2.59v-.92h.7c0 .06 0 .1-.16.12zM516 409h1a11.2 11.2 0 0 0 .78-1.5h-1.88v-.54h2.37v-1.16h.76c0 .07 0 .1-.17.12v1h2.66v.54h-2.93c0 .06-.09.07-.18.07-.2.41-.51 1-.78 1.41l2.55-.1c-.25-.27-.53-.54-.79-.77l.46-.25a8.46 8.46 0 0 1 1.65 1.8l-.48.3a5.27 5.27 0 0 0-.44-.62c-1.56.1-3.2.18-4.23.23 0 .07-.06.1-.12.12zm2.26 4.46v-3.5h.69c0 .06-.05.1-.16.12v3.33zm2.12-.6c0 .31 0 .35.21.35h.28c.22 0 .27-.08.29-.27s0-.48 0-.91a1 1 0 0 0 .41.23c0 1 0 1.43-.71 1.43h-.43c-.63 0-.63-.41-.63-.9v-2.87h.71c0 .06 0 .11-.17.12zM524.08 409.19v2.86c.67 1 1.9 1 3.54 1 1 0 2.06 0 2.73-.06a3.81 3.81 0 0 0-.19.57h-2.39c-1.9 0-3.08 0-3.94-1.08-.46.4-.94.78-1.33 1.07 0 .08 0 .12-.08.14l-.32-.62c.42-.28.95-.66 1.42-1v-2.34h-1.31v-.56zm-1.31-3.26a6.23 6.23 0 0 1 1.49 1.44l-.43.39a6.67 6.67 0 0 0-1.48-1.48zm4.87 2c-.54-.27-1.21-.56-1.77-.77l.38-.34c.38.14.82.31 1.24.5a7.94 7.94 0 0 0 1.32-.74H525v-.48H529.49l.44.29a.23.23 0 0 1-.14.07 9 9 0 0 1-1.78 1.14c.27.12.51.25.71.36h1.12v3.94c0 .57-.18.64-1.47.64a2.11 2.11 0 0 0-.17-.5h.67c.37 0 .42 0 .42-.16V411h-1.63v1.46h-.53V411h-1.57v1.5H525v-4.56zm-.49.47h-1.57v.82h1.57zm-1.57 2.13h1.57v-.86h-1.57zm3.73-1.31v-.82h-1.63v.82zm-1.63 1.31h1.63v-.86h-1.63z" class="cls-7" transform="translate(-190.77 -260.35)"/>
    <path d="M82.64 4.94h9.63" class="cls-8"/>
    <path d="M92.27 38.41V4.44" class="cls-9"/>
    <path d="M91.75 38.41h24.5M41.16 34.47l37.82-.43" class="cls-8"/>
    <path d="M78.98 76.37V33.82" class="cls-9"/>
    <path d="M78.98 76.37l17.52-.5M44.99 64.58h18.78" class="cls-8"/>
    <path d="M63.77 114.9V64.44" class="cls-9"/>
    <path d="M63.77 114.46h43.8M249.93 76.54h20.81" class="cls-8"/>
    <path d="M270.74 150.78V76.37" class="cls-9"/>
    <path d="M270.71 150.35h21.9" class="cls-8"/>
    <path d="M174.27 177.32v-18.11" class="cls-9"/>
    <path d="M174.04 176.88h116.8" class="cls-8"/>
</svg>